<?xml version="1.0" encoding="utf-8"?>
<!-- Generator: Adobe Illustrator 19.0.0, SVG Export Plug-In . SVG Version: 6.00 Build 0)  -->
<svg version="1.1" id="Capa_1" xmlns="http://www.w3.org/2000/svg" xmlns:xlink="http://www.w3.org/1999/xlink" x="0px" y="0px"
	 viewBox="0 0 26.3 28.2" style="enable-background:new 0 0 26.3 28.2;" xml:space="preserve">
<style type="text/css">
	.st0{fill:#042E35;}
</style>
<path class="st0" d="M21,10.9c-0.1,0.2-0.3,0.3-0.7,0.3h-0.6c0.1,0.4,0.3,0.7,0.3,1.2c0.2,0.8,0.3,1.6,0.3,2.3c0,0.4,0,0.8-0.1,1.2
	c-0.3,1.9-1.2,3.5-2.6,4.9c-1.5,1.4-2.9,2.1-4.4,2.1c-1.5,0-3-0.7-4.5-2.1c-1.5-1.4-2.3-3-2.6-4.9C6,15.4,6,15,6,14.7
	c0-0.9,0.1-1.6,0.2-2.3c0.1-0.5,0.3-0.9,0.4-1.2H6c-0.3,0-0.6-0.1-0.7-0.3c-0.1-0.2-0.1-0.5,0-0.7L5.4,10c0.1-0.3,0.4-0.5,0.7-0.7
	c0.3-0.2,0.7-0.3,1-0.3h0.1c0.8-1.3,1.6-2.3,2.4-2.7c0.8-0.5,1.9-0.7,3.4-0.7c1.4,0,2.6,0.2,3.4,0.7c0.8,0.5,1.6,1.4,2.4,2.7h0.1
	c0.3,0,0.7,0.1,1,0.3c0.3,0.2,0.6,0.5,0.7,0.7l0.1,0.2C21.1,10.5,21.1,10.7,21,10.9z M16.7,19.9c1.2-1.1,2-2.5,2.3-4.1H7.3
	c0.3,1.6,1,2.9,2.3,4.1c1.2,1.1,2.4,1.7,3.6,1.7C14.3,21.6,15.4,21.1,16.7,19.9z M7.5,12.4h11.3c-0.1-0.5-0.3-0.9-0.4-1.2H7.9
	C7.7,11.7,7.5,12.1,7.5,12.4z M9.6,13.5v1.2h2.4v-1.2H9.6z M14.3,13.5v1.2h2.4v-1.2H14.3z"/>
</svg>
