<?xml version="1.0" encoding="utf-8"?>
<!-- Generator: Adobe Illustrator 19.0.0, SVG Export Plug-In . SVG Version: 6.00 Build 0)  -->
<svg version="1.1" id="Capa_1" xmlns="http://www.w3.org/2000/svg" xmlns:xlink="http://www.w3.org/1999/xlink" x="0px" y="0px"
	 viewBox="0 0 26.3 28.2" style="enable-background:new 0 0 26.3 28.2;" xml:space="preserve">
<style type="text/css">
	.st0{fill:#042E35;}
</style>
<path class="st0" d="M22.6,21.5L13.8,6c-0.2-0.3-0.4-0.5-0.6-0.5c-0.2,0-0.4,0.2-0.6,0.5L3.6,21.5c-0.2,0.3-0.2,0.5-0.1,0.8
	c0.1,0.2,0.4,0.3,0.7,0.3H22c0.3,0,0.6-0.1,0.7-0.3C22.8,22.1,22.8,21.8,22.6,21.5z M12,16.3h-1.4v3.8H9.7v-3.8H8.3v-0.7H12V16.3z
	 M17.5,20.1h-0.8v-3.5h0l-1.3,3.5h-0.6l-1.2-3.5h0v3.5h-0.8v-4.5h1.1l1.2,3.5h0l1.2-3.5h1.1V20.1z"/>
</svg>
