<?xml version="1.0" encoding="utf-8"?>
<!-- Generator: Adobe Illustrator 19.0.0, SVG Export Plug-In . SVG Version: 6.00 Build 0)  -->
<svg version="1.1" id="Capa_1" xmlns="http://www.w3.org/2000/svg" xmlns:xlink="http://www.w3.org/1999/xlink" x="0px" y="0px"
	 viewBox="0 0 26.3 28.2" style="enable-background:new 0 0 26.3 28.2;" xml:space="preserve">
<style type="text/css">
	.st0{fill:#042E35;}
</style>
<path class="st0" d="M22,7.9c0.5,0.5,0.7,1,0.7,1.6v9.3c0,0.6-0.2,1.2-0.7,1.6c-0.5,0.5-1,0.7-1.7,0.7H6c-0.6,0-1.2-0.2-1.7-0.7
	c-0.5-0.5-0.7-1-0.7-1.6V9.5c0-0.6,0.2-1.2,0.7-1.6c0.5-0.5,1-0.7,1.7-0.7h14.3C20.9,7.2,21.5,7.4,22,7.9z M21.5,10.6H4.8v3.5h16.7
	V10.6z M9.5,18.2c0-0.5-0.2-0.9-0.5-1.2c-0.3-0.3-0.8-0.5-1.3-0.5c-0.5,0-0.9,0.2-1.3,0.5C6.1,17.3,6,17.7,6,18.2
	c0,0.5,0.2,0.9,0.5,1.2c0.3,0.3,0.8,0.5,1.3,0.5c0.5,0,0.9-0.2,1.3-0.5C9.4,19.1,9.5,18.6,9.5,18.2z M15.5,17.6h-2.4v1.2h2.4V17.6z
	 M17.9,17.6h-1.2v1.2h1.2V17.6z M20.3,17.6h-1.2v1.2h1.2V17.6z"/>
</svg>
