<?xml version="1.0" encoding="utf-8"?>
<!-- Generator: Adobe Illustrator 19.0.0, SVG Export Plug-In . SVG Version: 6.00 Build 0)  -->
<svg version="1.1" id="Capa_1" xmlns="http://www.w3.org/2000/svg" xmlns:xlink="http://www.w3.org/1999/xlink" x="0px" y="0px"
	 viewBox="0 0 26.3 28.2" style="enable-background:new 0 0 26.3 28.2;" xml:space="preserve">
<style type="text/css">
	.st0{fill-rule:evenodd;clip-rule:evenodd;fill:#042E35;}
	.st1{fill:#042E35;}
</style>
<g>
	<g>
		<circle id="XMLID_129_" class="st0" cx="7.6" cy="4.6" r="0.9"/>
		<path class="st1" d="M7.6,6.3c-1,0-1.7-0.8-1.7-1.7s0.8-1.7,1.7-1.7c1,0,1.7,0.8,1.7,1.7S8.6,6.3,7.6,6.3z M7.6,4.5
			C7.6,4.5,7.5,4.5,7.6,4.5c-0.1,0.1,0,0.1,0,0.1C7.6,4.6,7.7,4.6,7.6,4.5C7.7,4.5,7.6,4.5,7.6,4.5z"/>
	</g>
	<g>
		<circle id="XMLID_126_" class="st0" cx="2.1" cy="14.1" r="0.9"/>
		<path class="st1" d="M2.1,15.8c-1,0-1.7-0.8-1.7-1.7s0.8-1.7,1.7-1.7s1.7,0.8,1.7,1.7S3.1,15.8,2.1,15.8z M2.1,14
			C2.1,14,2,14.1,2.1,14c-0.1,0.1,0,0.1,0,0.1C2.1,14.2,2.2,14.1,2.1,14C2.2,14.1,2.1,14,2.1,14z"/>
	</g>
	<g>
		<circle id="XMLID_123_" class="st0" cx="7.6" cy="23.7" r="0.9"/>
		<path class="st1" d="M7.6,25.4c-1,0-1.7-0.8-1.7-1.7c0-1,0.8-1.7,1.7-1.7c1,0,1.7,0.8,1.7,1.7C9.3,24.6,8.6,25.4,7.6,25.4z
			 M7.6,23.6C7.6,23.6,7.5,23.6,7.6,23.6c-0.1,0.1,0,0.1,0,0.1C7.6,23.7,7.7,23.7,7.6,23.6C7.7,23.6,7.6,23.6,7.6,23.6z"/>
	</g>
	<g>
		<circle id="XMLID_120_" class="st0" cx="18.6" cy="23.7" r="0.9"/>
		<path class="st1" d="M18.6,25.4c-1,0-1.7-0.8-1.7-1.7c0-1,0.8-1.7,1.7-1.7c1,0,1.7,0.8,1.7,1.7C20.4,24.6,19.6,25.4,18.6,25.4z
			 M18.6,23.6C18.6,23.6,18.6,23.6,18.6,23.6c-0.1,0.1,0,0.1,0,0.1C18.7,23.7,18.7,23.7,18.6,23.6C18.7,23.6,18.7,23.6,18.6,23.6z"
			/>
	</g>
	<g>
		<circle id="XMLID_117_" class="st0" cx="24.1" cy="14.1" r="0.9"/>
		<path class="st1" d="M24.1,15.8c-1,0-1.7-0.8-1.7-1.7s0.8-1.7,1.7-1.7c1,0,1.7,0.8,1.7,1.7S25.1,15.8,24.1,15.8z M24.1,14
			C24.1,14,24.1,14.1,24.1,14c-0.1,0.1,0,0.1,0,0.1C24.2,14.2,24.2,14.1,24.1,14C24.2,14.1,24.2,14,24.1,14z"/>
	</g>
	<g>
		<circle id="XMLID_114_" class="st0" cx="18.6" cy="4.6" r="0.9"/>
		<path class="st1" d="M18.6,6.3c-1,0-1.7-0.8-1.7-1.7s0.8-1.7,1.7-1.7c1,0,1.7,0.8,1.7,1.7S19.6,6.3,18.6,6.3z M18.6,4.5
			C18.6,4.5,18.6,4.5,18.6,4.5c-0.1,0.1,0,0.1,0,0.1C18.7,4.6,18.7,4.6,18.6,4.5C18.7,4.5,18.7,4.5,18.6,4.5z"/>
	</g>
	<path class="st1" d="M19.1,24.5h-12l-6-10.4l6-10.4h12l6,10.4L19.1,24.5z M8.1,22.8h10.1l5-8.7l-5-8.7H8.1l-5,8.7L8.1,22.8z"/>
	<path class="st0" d="M15.1,17.2l1,0.1c0.2,1.2-0.2,2.1-1,3.2v0.1c1.3-1.1,2.4-3.2,2.4-5.6V7.4l-2.2,2.8c-0.1,0-0.1-0.1-0.2-0.1V15
		l1.1-0.6c0,0.7-0.3,1.5-0.9,1.6c0,0-0.1,0-0.2,0V17.2z M11.2,20.6c0.1,0.1,0.2,0.1,0.2,0.2c-0.1-0.1-0.2-0.2-0.2-0.3V20.6
		L11.2,20.6z M11.2,17.2l1.2-0.1l0.7,0.6l0.7-0.6l1.2,0.1V16c-0.4,0.1-1.1,0.1-1.1-0.4l1.1-0.6v-4.9c-0.6-0.3-1.3-0.5-1.9-0.5
		c-0.7,0-1.3,0.2-1.9,0.5V15l1.1,0.6c0,0.5-0.7,0.5-1.1,0.4V17.2L11.2,17.2z M15.1,20.5c-0.1,0.1-0.2,0.2-0.2,0.3
		c0.1-0.1,0.2-0.1,0.2-0.2V20.5z M11,10.2L8.8,7.4v7.7c0,2.4,1.1,4.5,2.4,5.6v-0.1c-0.8-1.1-1.2-2-1-3.2l1-0.1V16
		c-0.1,0-0.1,0-0.2,0c-0.6-0.2-0.9-0.9-0.9-1.6l1.1,0.6v-4.9C11.1,10.1,11.1,10.1,11,10.2z"/>
</g>
</svg>
