<?xml version="1.0" encoding="utf-8"?>
<!-- Generator: Adobe Illustrator 19.0.0, SVG Export Plug-In . SVG Version: 6.00 Build 0)  -->
<svg version="1.1" id="Capa_1" xmlns="http://www.w3.org/2000/svg" xmlns:xlink="http://www.w3.org/1999/xlink" x="0px" y="0px"
	 viewBox="0 0 26.3 28.2" style="enable-background:new 0 0 26.3 28.2;" xml:space="preserve">
<style type="text/css">
	.st0{fill:#042E35;}
</style>
<path class="st0" d="M4.6,11.2c0.5-0.4,1-0.7,1.6-0.7H12v5.6H9.7l1.7,4c0.2,0.4,0.1,0.8-0.1,1.1c-0.2,0.3-0.5,0.5-1,0.5
	c-0.5,0-1-0.2-1.4-0.5c-0.5-0.3-0.8-0.7-1-1.1l-1.7-4c-0.6,0-1.2-0.2-1.6-0.7c-0.5-0.4-0.7-1-0.7-1.6v-1.1
	C3.9,12.2,4.1,11.7,4.6,11.2z M19.7,6.5c0.2,0.1,0.3,0.3,0.3,0.6v12.3c0,0.3-0.1,0.5-0.3,0.6c-0.2,0.1-0.5,0.1-0.7,0l-5.9-2.9V9.4
	L19,6.6C19.3,6.4,19.5,6.4,19.7,6.5z M22,12c0.2,0.2,0.3,0.5,0.3,0.8v1.1c0,0.3-0.1,0.6-0.3,0.8c-0.2,0.2-0.5,0.3-0.8,0.3v-3.4
	C21.5,11.7,21.8,11.8,22,12z"/>
</svg>
