<?xml version="1.0" encoding="utf-8"?>
<!-- Generator: Adobe Illustrator 19.0.0, SVG Export Plug-In . SVG Version: 6.00 Build 0)  -->
<svg version="1.1" id="Capa_1" xmlns="http://www.w3.org/2000/svg" xmlns:xlink="http://www.w3.org/1999/xlink" x="0px" y="0px"
	 viewBox="0 0 26.3 28.2" style="enable-background:new 0 0 26.3 28.2;" xml:space="preserve">
<style type="text/css">
	.st0{fill:#042E35;}
</style>
<g>
	<g>
		<path class="st0" d="M22.3,6.4v13c0,0.6-0.2,1.2-0.7,1.6c-0.5,0.5-1,0.7-1.6,0.7H6.2c-0.6,0-1.2-0.2-1.6-0.7
			c-0.5-0.5-0.7-1-0.7-1.6V8.7h2.3V6.4H22.3z M21.1,7.6H7.4v11.9H6.2V9.9H5.1v9.6c0,0.3,0.1,0.6,0.3,0.8c0.2,0.2,0.5,0.3,0.8,0.3H20
			c0.3,0,0.6-0.1,0.8-0.3c0.2-0.2,0.3-0.5,0.3-0.8V7.6z M8.5,12H20V8.8H8.5V12z M8.5,14.3h5.7v-1.1H8.5V14.3z M8.5,16.6h5.7v-1.1
			H8.5V16.6z M15.4,18.9H20l0-5.8h-4.6L15.4,18.9z"/>
	</g>
	<rect id="XMLID_92_" x="8.5" y="17.8" class="st0" width="5.7" height="1.1"/>
</g>
</svg>
