<?xml version="1.0" encoding="utf-8"?>
<!-- Generator: Adobe Illustrator 19.0.0, SVG Export Plug-In . SVG Version: 6.00 Build 0)  -->
<svg version="1.1" id="Capa_1" xmlns="http://www.w3.org/2000/svg" xmlns:xlink="http://www.w3.org/1999/xlink" x="0px" y="0px"
	 viewBox="0 0 26.3 28.2" style="enable-background:new 0 0 26.3 28.2;" xml:space="preserve">
<style type="text/css">
	.st0{fill:#042E35;}
</style>
<path class="st0" d="M19,5.5c0.5,0.5,0.7,1,0.7,1.6v13.9c0,0.6-0.2,1.2-0.7,1.6c-0.5,0.5-1,0.7-1.7,0.7H8.9c-0.6,0-1.2-0.2-1.7-0.7
	c-0.5-0.5-0.7-1-0.7-1.6V7.2c0-0.6,0.2-1.2,0.7-1.6c0.5-0.5,1-0.7,1.7-0.7h8.3C17.9,4.9,18.5,5.1,19,5.5z M18.5,7.2
	c0-0.3-0.1-0.6-0.3-0.8C17.9,6.1,17.6,6,17.3,6H9C8.6,6,8.3,6.1,8.1,6.3C7.9,6.6,7.8,6.8,7.8,7.2v13.9c0,0.3,0.1,0.6,0.3,0.8
	c0.2,0.2,0.5,0.3,0.9,0.3h8.3c0.3,0,0.6-0.1,0.9-0.3c0.2-0.2,0.3-0.5,0.3-0.8V7.2z M9,18.7h8.3V7.2H9V18.7z M12.5,21.1h1.2v-1.2
	h-1.2V21.1z"/>
</svg>
