<?xml version="1.0" encoding="utf-8"?>
<!-- Generator: Adobe Illustrator 19.0.0, SVG Export Plug-In . SVG Version: 6.00 Build 0)  -->
<svg version="1.1" id="Capa_1" xmlns="http://www.w3.org/2000/svg" xmlns:xlink="http://www.w3.org/1999/xlink" x="0px" y="0px"
	 viewBox="0 0 26.3 28.2" style="enable-background:new 0 0 26.3 28.2;" xml:space="preserve">
<style type="text/css">
	.st0{fill:#042E35;}
</style>
<path class="st0" d="M20.3,16.7 M18.7,19.7c-0.3,3.1-2.3,3.3-3.1,3.3c-1.1,0-2.2-0.2-3.2-0.7c-1-0.4-1.9-1-2.6-1.7
	c-0.8-0.7-1.4-1.6-1.8-2.6c-0.2-0.4-0.4-0.9-0.5-1.4H6l2.5-4.6l2.2,4.6H9.2c0.8,3.2,4.7,4.7,6.6,3.8c2.1-0.9,0.8-11.1,0.8-11.1
	c-0.8-0.5-1.2-1.1-1.2-2c0-0.6,0.2-1.2,0.7-1.6c0.5-0.5,1-0.7,1.7-0.7c0.6,0,1.2,0.2,1.7,0.7c0.5,0.5,0.7,1,0.7,1.6
	c0,0.9-0.4,1.5-1.2,2L18.7,19.7 M19,7.5c0-0.3-0.1-0.6-0.3-0.8c-0.2-0.2-0.5-0.3-0.9-0.3c-0.3,0-0.6,0.1-0.9,0.3
	c-0.2,0.2-0.3,0.5-0.3,0.8c0,0.3,0.1,0.6,0.3,0.8c0.2,0.2,0.5,0.3,0.9,0.3c0.3,0,0.6-0.1,0.9-0.3C18.9,8.1,19,7.8,19,7.5z"/>
</svg>
