<svg width="22" height="19" viewBox="0 0 22 19" fill="none" xmlns="http://www.w3.org/2000/svg">
<path d="M22 10.3751C22 10.2275 21.9066 10.0958 21.7663 10.0454L16.6774 8.21624V2.35782H16.6637C16.7152 2.18134 16.6187 1.99575 16.4437 1.93428L11.1211 0.0213739C11.0429 -0.00712463 10.9571 -0.00712463 10.8789 0.0213739L5.55633 1.93428C5.44278 1.97554 5.35824 2.07099 5.3319 2.1877H5.32258V8.21624L0.23375 10.0454C0.120202 10.0867 0.0356613 10.1821 0.00931452 10.2988H0V16.5168H0.00887096C-0.0302057 16.6888 0.0660887 16.8627 0.23375 16.9228L5.55633 18.8357C5.63444 18.8643 5.7204 18.8643 5.79851 18.8357L11 16.9662L16.2015 18.8357C16.2796 18.8643 16.3656 18.8643 16.4437 18.8357L21.7663 16.9228C21.874 16.884 21.9562 16.7961 21.9867 16.6869H22V10.4689C22 10.4689 21.9997 10.4069 22 10.3751ZM5.32258 18.0053L0.709677 16.3475V10.8758L5.32258 12.534V18.0053ZM5.67742 11.9149L1.39319 10.3751L5.64948 8.84496L9.93415 10.3852L5.67742 11.9149ZM10.6452 16.3475L6.03226 18.0053V12.534L10.6452 10.8758V16.3475ZM10.6452 9.87442L6.03226 8.21624V2.76469L10.6452 4.42286V9.87442ZM6.71577 2.26399L11 0.724192L15.2842 2.26399L11 3.80379L6.71577 2.26399ZM15.9677 2.76469V8.21624L11.3548 9.87442V4.42286L15.9677 2.76469ZM15.9677 18.0053L11.3548 16.3475V10.8758L15.9677 12.534V18.0053ZM16.3226 11.9149L12.0658 10.3852L16.3505 8.84496L20.6068 10.3751L16.3226 11.9149ZM21.2903 16.3475L16.6774 18.0053V12.534L21.2903 10.8758V16.3475Z" fill="black"/>
</svg>
