<?xml version="1.0" encoding="utf-8"?>
<!-- Generator: Adobe Illustrator 18.0.0, SVG Export Plug-In . SVG Version: 6.00 Build 0)  -->
<!DOCTYPE svg PUBLIC "-//W3C//DTD SVG 1.1//EN" "http://www.w3.org/Graphics/SVG/1.1/DTD/svg11.dtd">
<svg version="1.1" id="Layer_1" xmlns="http://www.w3.org/2000/svg" xmlns:xlink="http://www.w3.org/1999/xlink" x="0px" y="0px"
	 viewBox="0 0 100 100" enable-background="new 0 0 100 100" xml:space="preserve">
<g>
	<g>
		<path d="M16.1,50c1.4,0.9,0.9,2.1,1.7,3.3c1.7,2.4,4.2,4.8,4.5,4.5c3.3,4.8,8.1,5,12.7,3.3c5.3-1.8,10.1-4.4,15.5-6.7
			c2.7,1.4,6,3.5,9.4,5c2.3,1,4.9,1.7,7.3,2.2c4.2,0.9,8-0.1,11.2-4.5c0,0,3.9-3.2,3.9-3.7c0.1-1.5,0.3-2.7,1.8-3.6
			c1-0.6,2.1-1.8,2.3-3c1.8-6.8,1.8-13.5-3.7-18.6c-3.2-3.1-7.2-5.7-11.3-7.4c-10.5-4.5-21.6-4.8-32.6-3c-7.4,1.2-14.3,3.9-20,8.9
			c-5.5,4.9-7.7,12.8-5.1,19.7C14,48,14.9,49.4,16.1,50z M33.2,55c-1.4-0.1-2.7-2.3-4-3.7l0.4-0.5c3.7,0.8,7.6,1.5,11.3,2.3v0.5
			C38.3,54.1,35.6,55.3,33.2,55z M64.3,54.6c-1.5-0.4-3.2-0.6-4.8-0.9c0-0.1,0-0.4,0-0.5c3.7-0.8,7.4-1.5,11.2-2.3
			C69,55,68.2,55.4,64.3,54.6z M23.4,39.5c7.3-4.2,15.2-6.3,23.5-6.6c10.4-0.4,20.4,1.2,29.5,6.4c1.3,0.8,2.1,1.5,2.1,3.2
			c0,1.8-0.6,2.6-2.3,3C67.6,47.8,59,49.4,50,49.2c-8.9,0-17.5-1.4-25.9-3.9c-0.9-0.3-2.1-1-2.2-1.8C21.6,42.2,21.5,40.5,23.4,39.5z
			"/>
		<path stroke="#000000" stroke-miterlimit="10" d="M82.1,24.8C67,11.4,33.8,11.2,18.5,24.5C17.9,16,31.6,4.7,45,2.9
			C62.1,0.6,79.2,10.6,82.1,24.8z"/>
	</g>
	<path d="M78.5,51v4l0,0c0,15.7-12.8,37-28.5,37S21.5,70.8,21.5,55.1v-0.4l0,0v-7.7c-1.4,0.1-2.7,0-4.1-0.3v8.3
		C17.4,73,32,96.2,49.9,96.2S82.4,73,82.4,55.1v-4.5C81.2,50.9,79.8,51.2,78.5,51z"/>
</g>
</svg>
