<?xml version="1.0" encoding="utf-8"?>
<!-- Generator: Adobe Illustrator 18.0.0, SVG Export Plug-In . SVG Version: 6.00 Build 0)  -->
<!DOCTYPE svg PUBLIC "-//W3C//DTD SVG 1.1//EN" "http://www.w3.org/Graphics/SVG/1.1/DTD/svg11.dtd">
<svg version="1.1" id="Capa_1" xmlns="http://www.w3.org/2000/svg" xmlns:xlink="http://www.w3.org/1999/xlink" x="0px" y="0px"
	 viewBox="0 0 100 100" enable-background="new 0 0 100 100" xml:space="preserve">
<g>
	<path fill="#1B2734" d="M44.1,40.2H32v29h-6.7v-29H14.1v-6h30V40.2z"/>
	<path fill="#1B2734" d="M71.9,68.1V46l-9,17.2h-3.7l-9-17.2v23.1h-6.8V34.2h7.3L61,54.1l10.4-19.9h7.2v33.9H71.9z"/>
</g>
<g>
	<path fill="#1B2734" stroke="#1B2734" stroke-width="3" stroke-miterlimit="10" d="M44.5,7c-23.7,0-43,19.3-43,43s19.3,43,43,43
		s43-19.3,43-43S68.2,7,44.5,7z M44.5,89.6C22.7,89.6,4.9,71.8,4.9,50s17.8-39.6,39.6-39.6S84.1,28.2,84.1,50S66.3,89.6,44.5,89.6z"
		/>
</g>
<g>
	<g>
		<g>
			<path fill="#FFFFFF" stroke="#FFFFFF" stroke-width="11" stroke-miterlimit="10" d="M98.8,48.2c0.3-0.6,0.2-1.2-0.1-1.8
				c-0.3-0.5-0.9-0.9-1.5-0.9H77.9V1.8c0-0.9-0.6-1.6-1.5-1.8c-0.9-0.2-1.7,0.3-2,1.1L55.9,63.6c-0.2,0.6-0.1,1.2,0.2,1.7
				c0.3,0.5,0.9,0.8,1.5,0.8h20.3v31.1c0,0.9,0.6,1.6,1.4,1.8c0.1,0,0.3,0,0.4,0c0.7,0,1.3-0.4,1.7-1L98.8,48.2z"/>
		</g>
	</g>
	<g>
		<g>
			<path fill="#1B2734" stroke="#1B2734" stroke-miterlimit="10" d="M98.8,48.2c0.3-0.6,0.2-1.2-0.1-1.8c-0.3-0.5-0.9-0.9-1.5-0.9
				H77.9V1.8c0-0.9-0.6-1.6-1.5-1.8c-0.9-0.2-1.7,0.3-2,1.1L55.9,63.6c-0.2,0.6-0.1,1.2,0.2,1.7c0.3,0.5,0.9,0.8,1.5,0.8h20.3v31.1
				c0,0.9,0.6,1.6,1.4,1.8c0.1,0,0.3,0,0.4,0c0.7,0,1.3-0.4,1.7-1L98.8,48.2z M81.5,89V64.2c0-1-0.8-1.8-1.8-1.8H60.3l14-50.9v35.9
				c0,1,0.8,1.8,1.8,1.8h18.2L81.5,89z"/>
		</g>
	</g>
</g>
</svg>
