<?xml version="1.0" encoding="utf-8"?>
<!-- Generator: Adobe Illustrator 18.0.0, SVG Export Plug-In . SVG Version: 6.00 Build 0)  -->
<!DOCTYPE svg PUBLIC "-//W3C//DTD SVG 1.1//EN" "http://www.w3.org/Graphics/SVG/1.1/DTD/svg11.dtd">
<svg version="1.1" id="Layer_1" xmlns="http://www.w3.org/2000/svg" xmlns:xlink="http://www.w3.org/1999/xlink" x="0px" y="0px"
	 viewBox="0 0 100 100" enable-background="new 0 0 100 100" xml:space="preserve">
<g>
	<g transform="translate(-1)">
		<g>
			<path fill="#1B2734" stroke="#1B2734" stroke-width="2" stroke-miterlimit="10" d="M77.9,38c0-0.9-0.7-1.6-1.6-1.6h-4.7v-1.6
				c0-1.2-0.1-2.4-0.3-3.6l-0.8-2.9c-1.5-4.2-4.3-7.8-7.9-10.3c1.6-1.1,2.7-3,2.7-5.2c0-3.5-2.8-6.3-6.3-6.3c-0.9,0-1.6,0.7-1.6,1.6
				c0,0.9,0.7,1.6,1.6,1.6c1.7,0,3.2,1.4,3.2,3.2c0,1.7-1.4,3.2-3.2,3.2c-2.4-1-5.1-1.6-7.9-1.6c-2.8,0-5.5,0.6-7.9,1.6
				c-1.7,0-3.2-1.4-3.2-3.2c0-1.7,1.4-3.2,3.2-3.2c0.9,0,1.6-0.7,1.6-1.6c0-0.9-0.8-1.7-1.7-1.7c-3.5,0-6.3,2.8-6.3,6.3
				c0,2.1,1.1,4,2.7,5.2c-3.6,2.5-6.4,6.1-7.9,10.3l-0.9,3.1c-0.2,1.2-0.3,2.4-0.3,3.6v1.6h-4.7c-0.9,0-1.6,0.7-1.6,1.6l0.1,28.5
				c0,14.8,12.1,26.9,26.9,26.9C65.9,93.6,78,81.5,78,66.7L77.9,38z M33.5,34.9c0-9.6,7.8-17.4,17.4-17.4s17.4,7.8,17.4,17.4v1.6
				H33.5V34.9z M49.4,90.4C37,89.5,27.2,79.2,27.2,66.6V48.7l22.2,12.5V90.4z M50.9,58.5L27.2,45v-5.3c0-0.1,4.7-0.1,4.7-0.1h42.8
				v5.3L50.9,58.5z M74.8,66.6c-0.1,12.6-9.9,22.9-22.2,23.7V61.2l22.2-12.5V66.6z"/>
		</g>
	</g>
	<path fill="none" stroke="#1B2734" stroke-width="5" stroke-linecap="round" stroke-miterlimit="10" d="M19.6,14
		c0,0-1.5,11.7,10.7,15.5"/>
	<path fill="none" stroke="#1B2734" stroke-width="5" stroke-linecap="round" stroke-miterlimit="10" d="M81.1,14
		c0,0,1.5,11.7-10.7,15.5"/>
	<path fill="none" stroke="#1B2734" stroke-width="5" stroke-linecap="round" stroke-miterlimit="10" d="M3.1,25.7
		c0,0-1.2,17.4,19.9,20.9"/>
	<path fill="none" stroke="#1B2734" stroke-width="5" stroke-linecap="round" stroke-miterlimit="10" d="M96.9,25.7
		c0,0,1.2,17.4-19.9,20.9"/>
	<path fill="none" stroke="#1B2734" stroke-width="5" stroke-linecap="round" stroke-miterlimit="10" d="M96.9,80.8
		c0,0,1.2-17.4-19.9-20.9"/>
	<path fill="none" stroke="#1B2734" stroke-width="5" stroke-linecap="round" stroke-miterlimit="10" d="M3.1,80.8
		c0,0-1.2-17.4,19.9-20.9"/>
</g>
</svg>
