<?xml version="1.0" encoding="utf-8"?>
<!-- Generator: Adobe Illustrator 18.0.0, SVG Export Plug-In . SVG Version: 6.00 Build 0)  -->
<!DOCTYPE svg PUBLIC "-//W3C//DTD SVG 1.1//EN" "http://www.w3.org/Graphics/SVG/1.1/DTD/svg11.dtd">
<svg version="1.1" id="Capa_1" xmlns="http://www.w3.org/2000/svg" xmlns:xlink="http://www.w3.org/1999/xlink" x="0px" y="0px"
	 viewBox="0 0 100 100" enable-background="new 0 0 100 100" xml:space="preserve">
<g>
	<path fill="#1B2734" d="M94.9,24.9l-24.7-5L54.6,36.3l16.1,1.9L50.8,75.8l32.6,6.6c3.4,0.7,6.7-1.5,7.4-4.9l9.1-45.1
		C100.6,29,98.4,25.6,94.9,24.9z M62.9,31.7l6-7.2L92.9,28c1.1,0.2,1.9,1.2,1.7,2.3l-0.8,5.8L62.9,31.7z M88,75.9
		c-0.2,1.1-1.2,1.9-2.3,1.7l-28.2-4l12-26.2l22.3,3.2L88,75.9z"/>
	<path fill="#1B2734" d="M53.3,33.4l-15.5,4.7l7.7-21.2L5,25.8c-3.4,0.7-5.5,4.1-4.8,7.5L10,78.2c0.7,3.4,4.1,5.5,7.5,4.8l32.8-7.2
		L53.3,33.4z M4.3,32.3c-0.2-1.1,0.5-2.2,1.6-2.4L40,22.5l-3.1,8.8L5.6,38.1L4.3,32.3z M14.1,77.3l-5.5-25l40.8-8.9l-2,28.7
		l-30.9,6.8C15.5,79.1,14.4,78.4,14.1,77.3z"/>
</g>
</svg>
