<?xml version="1.0" encoding="utf-8"?>
<!-- Generator: Adobe Illustrator 18.0.0, SVG Export Plug-In . SVG Version: 6.00 Build 0)  -->
<!DOCTYPE svg PUBLIC "-//W3C//DTD SVG 1.1//EN" "http://www.w3.org/Graphics/SVG/1.1/DTD/svg11.dtd">
<svg version="1.1" id="Capa_1" xmlns="http://www.w3.org/2000/svg" xmlns:xlink="http://www.w3.org/1999/xlink" x="0px" y="0px"
	 viewBox="0 0 100 100" enable-background="new 0 0 100 100" xml:space="preserve">
<g>
	<path fill="#1B2734" stroke="#1B2734" stroke-miterlimit="10" d="M45.6,70.5l-19.5-8.2c-0.6-0.3-1.3-0.2-1.9,0.1
		c-0.6,0.4-1,1-1,1.6c-0.5,5.7,2.8,11.1,8.1,13.3c1.6,0.7,3.4,1,5.1,1c3.8,0,7.5-1.7,10-4.6c0.4-0.5,0.6-1.2,0.5-1.9
		C46.7,71.4,46.2,70.8,45.6,70.5z M36.3,74.2c-1.2,0-2.4-0.2-3.5-0.7c-2.6-1.1-4.5-3.3-5.2-5.8l13,5.4
		C39.4,73.8,37.9,74.2,36.3,74.2z"/>
	<path fill="#1B2734" stroke="#1B2734" stroke-miterlimit="10" d="M85.1,1c-1-0.2-2,0.4-2.4,1.4L70.9,37.9
		c-6.1-4.2-13.4-6.5-20.9-6.5s-14.8,2.3-20.9,6.5L17.2,2.5c-0.3-1-1.3-1.6-2.4-1.4c-1,0.2-1.8,1.1-1.8,2.1v76.6
		c0,0.8,0.5,1.6,1.2,1.9L49,98.8c0.3,0.1,0.6,0.2,0.9,0.2c0.3,0,0.6-0.1,0.9-0.2l34.8-17.1c0.7-0.4,1.2-1.1,1.2-1.9V3.1
		C86.9,2.1,86.2,1.2,85.1,1z M82.7,78.4L50,94.5L17.3,78.4V16.2L26,42c0.2,0.7,0.8,1.2,1.4,1.4c0.7,0.2,1.4,0,1.9-0.4
		c5.8-4.7,13.1-7.3,20.6-7.3s14.8,2.6,20.6,7.3c0.5,0.4,1.3,0.6,1.9,0.4c0.7-0.2,1.2-0.7,1.4-1.4l8.7-25.8L82.7,78.4L82.7,78.4z"/>
	<path fill="#1B2734" stroke="#1B2734" stroke-miterlimit="10" d="M54.4,70.5c-0.6,0.3-1.1,0.8-1.3,1.5s0,1.4,0.5,1.9
		c2.5,2.9,6.2,4.6,10,4.6c1.8,0,3.5-0.3,5.1-1c5.3-2.2,8.5-7.6,8.1-13.3c-0.1-0.7-0.4-1.3-1-1.6c-0.6-0.4-1.3-0.4-1.9-0.1L54.4,70.5
		z M67.1,73.5c-1.1,0.5-2.3,0.7-3.5,0.7c-1.5,0-3-0.4-4.3-1.1l13-5.4C71.6,70.3,69.7,72.4,67.1,73.5z"/>
</g>
</svg>
