<?xml version="1.0" encoding="utf-8"?>
<!-- Generator: Adobe Illustrator 18.0.0, SVG Export Plug-In . SVG Version: 6.00 Build 0)  -->
<!DOCTYPE svg PUBLIC "-//W3C//DTD SVG 1.1//EN" "http://www.w3.org/Graphics/SVG/1.1/DTD/svg11.dtd">
<svg version="1.1" id="Capa_1" xmlns="http://www.w3.org/2000/svg" xmlns:xlink="http://www.w3.org/1999/xlink" x="0px" y="0px"
	 viewBox="0 0 100 100" enable-background="new 0 0 100 100" xml:space="preserve">
<g>
	<path fill="#1B2734" stroke="#1B2734" stroke-miterlimit="10" d="M81,49.5L81,49.5c1.5,0,2.6,1.2,2.6,2.6s-1.2,2.6-2.6,2.6
		s-2.6-1.2-2.6-2.6S79.6,49.5,81,49.5z M71.3,28.7L71.3,28.7c-1.1,1-1.2,2.6-0.2,3.7c0.5,0.6,1.2,0.9,2,0.9c0.6,0,1.2-0.2,1.7-0.7
		c1.1-1,1.2-2.6,0.2-3.7C74.1,27.9,72.4,27.8,71.3,28.7z M78.1,38L78.1,38c-1.3,0.6-2,2.1-1.4,3.4c0.4,1,1.4,1.6,2.4,1.6
		c0.3,0,0.7-0.1,1-0.2c1.3-0.5,2-2.1,1.4-3.4C80.9,38.1,79.4,37.5,78.1,38z M93.9,33.6c-3-7.4-7.8-13.9-14-18.9
		c-1.1-0.9-2.8-0.7-3.7,0.4c-0.9,1.1-0.7,2.8,0.4,3.7c5.5,4.4,9.8,10.2,12.4,16.8C93.4,46,93.3,57.5,89,67.9
		c-4.4,10.4-12.5,18.5-23,22.8c-10.4,4.3-21.9,4.2-32.3-0.1c-10.4-4.4-18.5-12.5-22.8-23C6.6,57.1,6.7,45.6,11,35.2
		c4.4-10.4,12.5-18.5,23-22.8c6.8-2.8,14.2-3.8,21.5-2.8c1.4,0.2,2.7-0.8,2.9-2.3c0.2-1.4-0.8-2.7-2.3-2.9C48,3.4,39.7,4.5,32,7.6
		C20.3,12.4,11.1,21.5,6.2,33.2c-4.9,11.7-5,24.6-0.2,36.3c4.8,11.7,13.9,20.9,25.6,25.8c5.9,2.5,12.1,3.7,18.4,3.7
		c6.1,0,12.2-1.2,18-3.6c11.7-4.8,20.9-13.9,25.8-25.6C98.7,58.2,98.7,45.3,93.9,33.6z M31.5,76.4h37.1c1.4,0,2.6-1.2,2.6-2.6
		c0-1.4-1.2-2.6-2.6-2.6H31.5c-1.4,0-2.6,1.2-2.6,2.6C28.8,75.2,30,76.4,31.5,76.4z M48.9,52.5c0.4,0.2,0.7,0.2,1.1,0.2
		c1,0,1.9-0.6,2.4-1.5L73.4,4.6c0.6-1.3,0-2.9-1.3-3.5c-1.3-0.6-2.9,0-3.5,1.3L47.6,49C47,50.3,47.6,51.9,48.9,52.5z"/>
	<path fill="#1B2734" stroke="#1B2734" stroke-miterlimit="10" d="M45.7,23c1.5-0.1,2.5-1.4,2.4-2.8c-0.1-1.4-1.4-2.5-2.8-2.4
		c-0.5,0-1,0.1-1.5,0.2c-17.9,2.3-30.7,18.7-28.4,36.6c0.2,1.4,1.5,2.4,2.9,2.3c1.4-0.2,2.4-1.5,2.3-2.9C18.6,38.4,30,24.2,45.7,23z
		"/>
</g>
</svg>
