<?xml version="1.0" encoding="utf-8"?>
<!-- Generator: Adobe Illustrator 18.0.0, SVG Export Plug-In . SVG Version: 6.00 Build 0)  -->
<!DOCTYPE svg PUBLIC "-//W3C//DTD SVG 1.1//EN" "http://www.w3.org/Graphics/SVG/1.1/DTD/svg11.dtd">
<svg version="1.1" id="Capa_1" xmlns="http://www.w3.org/2000/svg" xmlns:xlink="http://www.w3.org/1999/xlink" x="0px" y="0px"
	 viewBox="0 0 100 100" enable-background="new 0 0 100 100" xml:space="preserve">
<g>
	<path fill="#1B2734" stroke="#1B2734" stroke-width="2" stroke-miterlimit="10" d="M74.5,44.8H33.7c-0.9,0-1.6,0.7-1.6,1.6
		s0.7,1.6,1.6,1.6h40.8c0.9,0,1.6-0.7,1.6-1.6S75.4,44.8,74.5,44.8z"/>
	<path fill="#1B2734" stroke="#1B2734" stroke-width="2" stroke-miterlimit="10" d="M33.7,35H50c0.9,0,1.6-0.7,1.6-1.6
		s-0.7-1.6-1.6-1.6H33.7c-0.9,0-1.6,0.7-1.6,1.6S32.8,35,33.7,35z"/>
	<path fill="#1B2734" stroke="#1B2734" stroke-width="2" stroke-miterlimit="10" d="M74.5,56.9H33.7c-0.9,0-1.6,0.7-1.6,1.6
		s0.7,1.6,1.6,1.6h40.8c0.9,0,1.6-0.7,1.6-1.6S75.4,56.9,74.5,56.9z"/>
	<path fill="#1B2734" stroke="#1B2734" stroke-width="2" stroke-miterlimit="10" d="M74.5,69H33.7c-0.9,0-1.6,0.7-1.6,1.6
		s0.7,1.6,1.6,1.6h40.8c0.9,0,1.6-0.7,1.6-1.6S75.4,69,74.5,69z"/>
	<path fill="#1B2734" stroke="#1B2734" stroke-width="2" stroke-miterlimit="10" d="M74.5,81H33.7c-0.9,0-1.6,0.7-1.6,1.6
		s0.7,1.6,1.6,1.6h40.8c0.9,0,1.6-0.7,1.6-1.6S75.4,81,74.5,81z"/>
	<path fill="#1B2734" stroke="#1B2734" stroke-width="2" stroke-miterlimit="10" d="M81,27.8V1H6.8v89.8H19V99h70.2V36L81,27.8z
		 M66.3,17.7L81,32.4l2.6,2.6H66.3V17.7z M10.1,87.6V4.3h67.7v20.3L65.4,12.2H19v75.4H10.1z M22.2,95.7v-4.9V15.4H63v22.9h22.9v57.4
		H22.2z"/>
</g>
</svg>
