<?xml version="1.0" encoding="utf-8"?>
<!-- Generator: Adobe Illustrator 18.0.0, SVG Export Plug-In . SVG Version: 6.00 Build 0)  -->
<!DOCTYPE svg PUBLIC "-//W3C//DTD SVG 1.1//EN" "http://www.w3.org/Graphics/SVG/1.1/DTD/svg11.dtd">
<svg version="1.1" id="Layer_1" xmlns="http://www.w3.org/2000/svg" xmlns:xlink="http://www.w3.org/1999/xlink" x="0px" y="0px"
	 viewBox="0 0 100 100" enable-background="new 0 0 100 100" xml:space="preserve">
<g transform="translate(1 1)">
	<g>
		<path fill="#1B2734" d="M97.6,80.5L78.8,61.6l-1.4,1.4L57.3,43l0,0L43.1,28.8l0,0L24.4,10.1l0.1-0.1l-8.7-8.7
			c-1.5-1.5-4.2-1.5-5.7,0L8.8,2.7C8.2,3.3,7.7,4.3,7.7,5.5S8,7.7,8.8,8.3l1.1,1.1c-2.9,3-9.7,11.2-9.3,22.9c0.2,4,1.2,8.2,3.3,12.2
			c0.5,1.2,1.3,2.3,2.2,3.7c4.2,6.5,6.7,11.6,2,16.4c-0.3,0-0.5,0-0.8,0c-4.7,0-8.3,3.7-8.3,8.3c0,4.1,2.8,7.4,6.7,8.2v3.5H2.3
			c-1,0-1.7,0.7-1.7,1.7c0,1,0.7,1.7,1.7,1.7h3.3v5c0,1-0.7,1.7-1.7,1.7s-1.7-0.7-1.7-1.7c0-1-0.7-1.7-1.7-1.7S-1,91.8-1,92.8
			c0,2.8,2.2,5,5,5s5-2.2,5-5v-5h3.3c1,0,1.7-0.7,1.7-1.7s-0.7-1.7-1.7-1.7H9V81c3.8-0.8,6.7-4.1,6.7-8.2c0-3.1-1.6-5.7-4-7.1
			C17,58.9,12.2,51.6,9,46.5C8.3,45.1,7.5,44,7,43c-2-3.5-3-7.2-3-10.7c-0.3-10.2,5.8-17.7,8.3-20.5l2.8,2.8l0,0l0.3,0.3
			C12.8,19.2,15,26.4,21,32.3c4.3,4.3,9.3,6.7,13.5,6.7c0.4,0,0.8,0,1.2-0.1c-0.4,3.1,0.1,6.5,0.3,7.9c0.9,5,2.8,9.5,5.1,12.5
			c-2.1,3.3-1.7,7.7,1,10.5l4.6,4.6l-2.8,4c-1-0.5-2.2-0.7-3.3-0.7c-2.2,0-4.2,1-5.8,2.5c-1.7,1.5-2.5,3.7-2.5,5.8s1,4.2,2.5,5.8
			c1.5,1.7,3.7,2.5,5.8,2.5c2.2,0,4.2-1,5.8-2.5c1.7-1.5,2.5-3.7,2.5-5.8c0-2.1-0.9-4.2-2.3-5.7l2.5-3.6l2.5,2.5
			c1.5,1.7,3.7,2.5,5.8,2.5c2.2,0,4.2-0.8,6-2.5c3.2-3.3,3.2-8.7,0-11.8l2.2-2.2l4.8,4.7l-1.2,1.2L88,90c1,0.8,2.2,1.3,3.3,1.3
			c1.2,0,2.3-0.5,3.5-1.3l2.8-2.8C99.5,85.3,99.5,82.3,97.6,80.5z M7.3,77.8c-2.8,0-5-2.2-5-5s2.2-5,5-5s5,2.2,5,5
			S10.2,77.8,7.3,77.8z M45.6,86.1c0,1.3-0.5,2.5-1.5,3.5c-1.8,1.8-5.2,1.8-7,0c-1-0.8-1.5-2.2-1.5-3.5c0-1.3,0.5-2.7,1.5-3.5
			c0.8-1,2.2-1.5,3.5-1.5c0.5,0,0.9,0.1,1.3,0.2l-2.7,3.8c-0.7,0.8-0.5,1.8,0.3,2.3c0.3,0.2,0.7,0.3,1,0.3c0.5,0,1-0.2,1.3-0.7
			l2.7-3.9C45.3,84,45.6,85.1,45.6,86.1z M41,35.8l2.3-2.3l4.6,4.6l4.9,4.9l-2.3,2.3L41,35.8z M38.6,33.4L19.8,14.7l2.3-2.3
			l18.7,18.7L38.6,33.4z M11.2,6C11,5.8,11,5.7,11,5.5c0-0.2,0-0.3,0.2-0.5l1.3-1.3c0.2-0.2,0.3-0.2,0.5-0.2s0.3,0,0.5,0.2l6.2,6.3
			l-2.3,2.3L11.2,6z M23.3,30c-4.5-4.5-6.2-9.6-5.5-12.5l18.1,18C33,36.3,27.9,34.5,23.3,30z M39,38.7L50.3,50l0.1-0.1l5.8,5.8
			L54,58c-2.9-2.8-7.2-3.1-10.5-1.1c-2-2.5-3.6-6.4-4.4-10.8C38.6,43,38.6,40.4,39,38.7z M61,77.1c-1.8,2-5,2-7,0L51,74.2l2.6-3.7
			c0.7-0.8,0.5-1.7-0.3-2.3c-0.8-0.7-1.8-0.5-2.3,0.3l-2.3,3.3l-4.2-4.2c-2-1.8-2-5,0-7c1-1,2.2-1.5,3.5-1.5c1.3,0,2.7,0.5,3.5,1.5
			l9.5,9.5C63,72,63,75.1,61,77.1z M61.1,65.1l-4.7-4.7l2.2-2.2l4.7,4.7L61.1,65.1z M52.7,47.6l2.3-2.3l20.1,20.1l-2.3,2.3
			L52.7,47.6z M95.1,84.8l-2.8,2.8c-0.5,0.5-1.3,0.5-1.8,0L74,71.1l4.7-4.7L95.1,83C95.6,83.5,95.6,84.3,95.1,84.8z"/>
	</g>
</g>
</svg>
