<?xml version="1.0" encoding="utf-8"?>
<!-- Generator: Adobe Illustrator 18.0.0, SVG Export Plug-In . SVG Version: 6.00 Build 0)  -->
<!DOCTYPE svg PUBLIC "-//W3C//DTD SVG 1.1//EN" "http://www.w3.org/Graphics/SVG/1.1/DTD/svg11.dtd">
<svg version="1.1" id="Capa_1" xmlns="http://www.w3.org/2000/svg" xmlns:xlink="http://www.w3.org/1999/xlink" x="0px" y="0px"
	 viewBox="0 0 100 100" enable-background="new 0 0 100 100" xml:space="preserve">
<g>
	<path fill="#1B2734" d="M89.1,32.6c0,5.6-0.1,11.2,0,16.8c0,3.7-0.5,7.3-1.6,10.8c-2.7,9.1-7.2,17.3-13.5,24.5
		c-4,4.6-8.7,8.4-14.1,11.3c-3.4,1.8-7,3.2-10.8,4.1c-0.1,0-0.2,0-0.3,0c-5.5-1.3-10.6-3.6-15.3-6.9c-6.3-4.4-11.3-9.9-15.4-16.3
		c-3.5-5.5-6.1-11.3-7.9-17.5C9.5,56,9,52.9,9,49.6C9,37.8,9,25.9,9,14c0-1.9,0.7-3.4,2-4.8c1.2-1.3,2.7-2.2,4.3-3
		c3.5-1.8,7.2-2.9,11-3.8c3.3-0.8,6.7-1.3,10.1-1.7C42.1,0,47.8-0.1,53.6,0.1c3.8,0.1,7.6,0.5,11.3,1c4.3,0.6,8.5,1.5,12.6,2.9
		c2.9,1,5.8,2.2,8.3,4.1c0.9,0.7,1.8,1.5,2.4,2.5c0.6,0.9,0.9,1.9,0.9,3C89.1,19.9,89.1,26.3,89.1,32.6z M53.5,94
		c1.4-0.7,2.7-1.2,4-1.9c4.9-2.5,9.1-6,12.8-10.1c6.1-6.8,10.5-14.7,13.1-23.5c0.9-3,1.3-6,1.3-9.1c0-11.9,0-23.9,0-35.8
		c0-0.7-0.2-1.2-0.7-1.6c-0.8-0.6-1.7-1.3-2.6-1.8c-2.4-1.3-5.1-2.2-7.7-3c-4-1.1-8-1.9-12.1-2.3c-2.8-0.3-5.5-0.5-8.3-0.6
		c-3.7-0.2-7.3-0.1-11,0.1c-3.2,0.2-6.3,0.5-9.5,1c-2.9,0.5-5.9,1.1-8.7,1.9c-2.5,0.7-4.9,1.6-7.3,2.8c-1,0.6-2,1.2-2.8,2
		c-0.3,0.3-0.4,0.7-0.4,1.2c0,12.5,0,24.9,0,37.4c0,0.4,0,0.8,0,1.2c0.2,2.4,0.7,4.7,1.4,7c2.4,7.9,6.3,15.1,11.6,21.4
		c4.4,5.3,9.7,9.6,16,12.5c0.7,0.3,1.4,0.6,2.1,0.9c0-4.7,0-9.3,0-14c3,0,5.9,0,8.9,0C53.5,84.6,53.5,89.2,53.5,94z"/>
	<path fill="#1B2734" d="M49,66.5c-0.2,0.2-0.3,0.4-0.5,0.6c-1.2,1.2-2.5,2.5-3.7,3.7c-0.1,0.1-0.4,0.2-0.5,0.2c-5,0-9.9,0-14.9,0
		c-0.2,0-0.4,0-0.5-0.3c-3.6-5.7-7.1-11.4-10.7-17.1c0-0.1-0.1-0.2-0.1-0.3c0.7,0.6,1.4,1.1,2,1.7c3.6,3,7.3,6.1,10.9,9.1
		c0.1,0.1,0.3,0.2,0.4,0.2c2.8,0,5.6,0,8.4,0c0.2,0,0.4-0.1,0.5-0.2c2.1-2.1,4.1-4.1,6.2-6.2c0.2-0.2,0.4-0.3,0.6-0.2
		c1.3,0,2.5,0,3.8,0c0.2,0,0.4,0.1,0.6,0.2c2,2.1,4.1,4.1,6.2,6.2c0.2,0.2,0.4,0.3,0.7,0.3c2.7,0,5.4,0,8.1,0c0.3,0,0.5-0.1,0.7-0.2
		c4.2-3.5,8.4-7,12.6-10.5c0.1-0.1,0.2-0.2,0.4-0.2c0,0.1-0.1,0.2-0.1,0.3c-3.6,5.7-7.1,11.4-10.7,17.1c-0.1,0.2-0.3,0.3-0.5,0.3
		c-5,0-10,0-14.9,0c-0.2,0-0.4-0.1-0.5-0.2c-1.3-1.3-2.6-2.6-3.9-3.9C49.3,66.8,49.2,66.7,49,66.5z"/>
	<path fill="#1B2734" d="M80.1,28.7c-1.2-0.7-2.4-1.4-3.6-2.1c-1.7-0.9-3.5-1.6-5.3-2C67.9,24,65.3,25,63,27.3c-1.2,1.2-2.1,2.6-3,4
		c-0.3,0.5-0.7,1-1.1,1.4c-1.3,1-3.1,0.9-4.3-0.3c-1.2-1.1-1.3-3-0.3-4.3c1-1.2,1.9-2.5,3-3.6c1.9-2,4.1-3.5,6.8-4.1
		c4.1-0.9,7.8-0.1,11.1,2.4C77.3,24.4,78.9,26.4,80.1,28.7C80,28.7,80,28.7,80.1,28.7z"/>
	<path fill="#1B2734" d="M18,28.8c0-0.1,0.1-0.2,0.1-0.2c1.6-2.5,3.4-4.8,5.9-6.5c2.5-1.6,5.2-2.3,8.1-2.1c3.5,0.3,6.4,1.9,8.8,4.4
		c1,1,1.8,2.2,2.7,3.2c0.6,0.7,1,1.5,0.9,2.5c0,1.4-1,2.7-2.5,3.1c-1.4,0.4-2.8-0.1-3.6-1.3c-0.9-1.3-1.7-2.5-2.6-3.7
		c-1.2-1.5-2.6-2.6-4.4-3.3c-1.7-0.6-3.4-0.5-5.1-0.1c-2.7,0.6-5,1.9-7.3,3.3C18.8,28.3,18.5,28.5,18,28.8z"/>
	<path fill="#1B2734" d="M20.2,36.7c4.6-4.6,13.5-4.3,17.7,0C33.7,41,24.7,41.2,20.2,36.7z"/>
	<path fill="#1B2734" d="M77.9,36.7c-4.4,4.4-13.2,4.5-17.7,0C64.1,32.5,73.2,32,77.9,36.7z"/>
</g>
</svg>
