<?xml version="1.0" encoding="utf-8"?>
<!-- Generator: Adobe Illustrator 18.0.0, SVG Export Plug-In . SVG Version: 6.00 Build 0)  -->
<!DOCTYPE svg PUBLIC "-//W3C//DTD SVG 1.1//EN" "http://www.w3.org/Graphics/SVG/1.1/DTD/svg11.dtd">
<svg version="1.1" id="Capa_1" xmlns="http://www.w3.org/2000/svg" xmlns:xlink="http://www.w3.org/1999/xlink" x="0px" y="0px"
	 viewBox="0 0 100 100" enable-background="new 0 0 100 100" xml:space="preserve">
<g>
	<g>
		<path d="M84,16.9H16v1.2v15.5H4.9c-1.6,0-3,1.3-3,3s1.3,3,3,3h90.2c1.6,0,3-1.3,3-3s-1.3-3-3-3H84V18.1V16.9z"/>
		<path d="M50.9,43.4h-1.7H19h-3.3L17,55.5c0.6,6.4,6,11.3,12.5,11.3h5.2c6.3,0,11.5-4.5,12.4-10.7l1.2-6.7h3.5l1.2,6.7
			c0.9,6.2,6.2,10.7,12.4,10.7h5.2c6.4,0,11.8-4.9,12.4-11.3l1.3-12.1H81H50.9z"/>
	</g>
	<g>
		<path d="M32.9,78.6c0.1-0.5,0.3-1,0.3-1.5c0.3-1.8,1.2-3.1,2.9-4c3-1.6,6.2-2.8,9.6-3c4.2-0.3,8.4-0.5,12.4,0.8
			c1.9,0.6,3.8,1.4,5.7,2.3c1.5,0.7,2.4,1.9,2.6,3.6c0.2,1.4,0.4,2.8,0.6,4.2c0.1,0.7,0,1.5-0.7,1.9c-0.7,0.4-1.4,0.1-2.1-0.3
			c-0.7-0.4-1.3-1-2.1-1.5c0,0.2,0,0.3,0,0.5c0,0.8-0.4,1.2-1.2,0.9c-0.7-0.2-1.4-0.6-2.1-1c-0.5-0.3-1-0.6-1.5-0.9
			c-0.6,1-0.8,1.1-1.9,0.7c-0.7-0.3-1.4-0.6-2.2-0.9c-0.4,0.8-1,0.7-1.7,0.5c-1.1-0.4-2.2-0.3-3.3,0c-0.6,0.2-1.2,0.3-1.5-0.5
			c-0.9,0.3-1.7,0.6-2.6,1c-0.8,0.3-1.3,0.1-1.5-0.8c-0.8,0.4-1.5,0.9-2.2,1.3c-0.3,0.2-0.6,0.4-1,0.5c-1.3,0.5-1.7,0.2-1.7-1.3
			c-0.4,0.3-0.7,0.5-1.1,0.8c-1.7,1.2-2.7,0.9-3.6-0.9C32.9,80.2,32.9,79.4,32.9,78.6z"/>
	</g>
</g>
</svg>
