<?xml version="1.0" encoding="utf-8"?>
<!-- Generator: Adobe Illustrator 18.0.0, SVG Export Plug-In . SVG Version: 6.00 Build 0)  -->
<!DOCTYPE svg PUBLIC "-//W3C//DTD SVG 1.1//EN" "http://www.w3.org/Graphics/SVG/1.1/DTD/svg11.dtd">
<svg version="1.1" id="Layer_1" xmlns="http://www.w3.org/2000/svg" xmlns:xlink="http://www.w3.org/1999/xlink" x="0px" y="0px"
	 viewBox="0 0 100 100" enable-background="new 0 0 100 100" xml:space="preserve">
<g>
	<g>
		<path stroke="#000000" stroke-miterlimit="10" d="M422.6-91.5c-1-14-13.1-25-27.8-25c-11.7,0-21.9,6.9-26,17.3c-0.3,0-0.6,0-0.9,0
			c-13.2,0-24,10.8-24,24s10.8,24,24,24h3.5L371-50c-0.2,0.6-0.2,1.3,0.2,1.8c0.4,0.5,1,0.8,1.6,0.8H392v21.1c0,0.9,0.6,1.7,1.5,1.9
			c0.1,0,0.3,0,0.4,0c0.7,0,1.4-0.4,1.7-1.1l12.3-25.9c0.2,0,0.3,0.1,0.5,0.1c4.8,0,14.3,0,14.4,0c10.7-0.6,19.1-9.4,19.1-20.1
			C441.9-82.2,433.4-91.1,422.6-91.5z M395.8-34.7v-14.5c0-1.1-0.9-1.9-1.9-1.9h-18.3l12.6-32.1v20.6c0,1.1,0.9,1.9,1.9,1.9h18.1
			L395.8-34.7z M422.7-55.1c0,0-8,0-13,0l3.2-6.8c0.3-0.6,0.2-1.3-0.1-1.9c-0.4-0.6-1-0.9-1.6-0.9H392v-28.9c0-0.9-0.7-1.7-1.6-1.9
			c-0.9-0.2-1.8,0.3-2.1,1.2L372.9-55l-4.7,0l-0.3,0c-11.1,0-20.2-9.1-20.2-20.2s9.1-20.2,20.2-20.2c0.7,0,1.3,0,2,0.1
			c0.9,0.1,1.7-0.5,2-1.3c3.2-9.6,12.4-16.1,22.9-16.1c13.2,0,24,10.3,24,23.1c0,1,0.8,1.9,1.9,1.9c0.2,0,0.5,0,0.7,0l0.3,0
			c9,0,16.3,7.3,16.3,16.3C438.1-62.7,431.3-55.5,422.7-55.1z"/>
	</g>
</g>
<g>
	<path d="M36.6,32.9h-7.5v24.7c0,1.4-0.3,2.5-0.9,3.2c-0.6,0.7-1.5,1-2.5,1c-1,0-1.8-0.3-2.5-1c-0.6-0.7-1-1.7-1-3.2V32.9h-7.5
		c-1.2,0-2-0.3-2.6-0.8c-0.6-0.5-0.9-1.2-0.9-2.1c0-0.9,0.3-1.6,0.9-2.1c0.6-0.5,1.5-0.8,2.6-0.8h21.9c1.2,0,2.1,0.3,2.7,0.8
		c0.6,0.5,0.9,1.2,0.9,2.1s-0.3,1.5-0.9,2.1C38.6,32.7,37.8,32.9,36.6,32.9z"/>
	<path d="M72,55.1l-5.4-21.6v23.4c0,1.3-0.3-1.7-0.9-1.1s-1.3,0-2.3,0c-0.9,0-1.7,0.7-2.3,0c-0.6-0.6-0.9,2.4-0.9,1.1V30
		c0-1.5,0.4-2.5,1.2-3c0.8-0.5,1.8-0.8,3.1-0.8h2.1c1.3,0,2.2,0.1,2.8,0.3c0.6,0.2,1,0.6,1.3,1.3c0.3,0.6,0.6,1.6,0.9,2.9l4.9,18.6
		l4.9-18.6c0.4-1.4,0.7-2.3,0.9-2.9c0.3-0.6,0.7-1,1.3-1.3c0.6-0.2,1.5-0.3,2.8-0.3h2.1c1.3,0,2.4,0.3,3.1,0.8s1.2,1.5,1.2,3v26.9
		c0,1.3-0.3,2.3-0.9,2.9s-1.4,1-2.3,1c-0.9,0-1.7-0.3-2.2-1c-0.6-0.6-0.9-1.6-0.9-2.9V33.5l-5.4,21.6c-0.4,1.4-0.6,2.4-0.9,3.1
		c-0.2,0.7-0.6,1.3-1.2,1.8s-1.4,0.8-2.5,0.8c-0.8,0-1.5-0.2-2-0.5s-1-0.8-1.3-1.3c-0.3-0.5-0.6-1.1-0.7-1.8
		C72.4,56.5,72.2,55.8,72,55.1z"/>
</g>
<rect x="317.7" y="46.8" fill="none" width="63.8" height="51.5"/>
<text transform="matrix(1 0 0 1 317.667 73.0413)" font-family="'ArialRoundedMTBold'" font-size="36">TM</text>
<g>
	<g>
		<g>
			<path fill="none" stroke="#FFFFFF" stroke-width="5" stroke-miterlimit="10" d="M71.3,56.1c0.3-0.6,0.2-1.3-0.1-1.9
				c-0.4-0.6-1-0.9-1.6-0.9H50.4V24.5c0-0.9-0.7-1.7-1.6-1.9c-0.9-0.2-1.8,0.3-2.1,1.2L29.4,68c-0.2,0.6-0.2,1.3,0.2,1.8
				c0.4,0.5,1,0.8,1.6,0.8h19.2v21.1c0,0.9,0.6,1.7,1.5,1.9c0.1,0,0.3,0,0.4,0c0.7,0,1.4-0.4,1.7-1.1L71.3,56.1z"/>
		</g>
	</g>
	<g>
		<g>
			<path stroke="#000000" stroke-miterlimit="10" d="M71.3,56.1c0.3-0.6,0.2-1.3-0.1-1.9c-0.4-0.6-1-0.9-1.6-0.9H50.4V24.5
				c0-0.9-0.7-1.7-1.6-1.9c-0.9-0.2-1.8,0.3-2.1,1.2L29.4,68c-0.2,0.6-0.2,1.3,0.2,1.8c0.4,0.5,1,0.8,1.6,0.8h19.2v21.1
				c0,0.9,0.6,1.7,1.5,1.9c0.1,0,0.3,0,0.4,0c0.7,0,1.4-0.4,1.7-1.1L71.3,56.1z M54.2,83.2V68.7c0-1.1-0.9-1.9-1.9-1.9H34l12.6-32.1
				v20.6c0,1.1,0.9,1.9,1.9,1.9h18.1L54.2,83.2z"/>
		</g>
	</g>
</g>
</svg>
