<?xml version="1.0" encoding="utf-8"?>
<!-- Generator: Adobe Illustrator 22.1.0, SVG Export Plug-In . SVG Version: 6.00 Build 0)  -->
<svg version="1.1" id="Capa_1" xmlns="http://www.w3.org/2000/svg" xmlns:xlink="http://www.w3.org/1999/xlink" x="0px" y="0px"
	 viewBox="0 0 100 100" style="enable-background:new 0 0 100 100;" xml:space="preserve">
<style type="text/css">
	.st0{fill:#201D21;}
</style>
<g>
	<path class="st0" d="M92.7,58.2c-3.2-12.3-6.6-24.7-9.9-36.9c-1-3.8-4-6-7.8-6c-0.3,0-0.9,0-1.5,0.2c-18.3,4.8-36.5,9.8-54.8,14.8
		c-3.5,0.9-5.7,3.5-5.4,7c0.2,2.7-0.9,3.9-2.7,5.3C6.5,45.6,6,49,8.6,53.3c5.2,8.5,10.4,16.8,15.5,25.3c2,3.2,4.9,4.7,8.5,3.8
		c18.2-4.7,36.6-9.7,54.7-14.8C91.8,66.5,93.8,62.5,92.7,58.2z M83.9,62.6C69.8,66.4,55.6,70.2,41.5,74c-3.1,0.9-6.2,1.6-9.3,2.5
		c-1.9,0.6-3-0.2-3.5-1.9c-3.1-11.8-6.2-23.7-9.5-35.5c-0.6-2.2,0.3-3.2,2.4-3.8c17.3-4.6,34.5-9.1,51.8-13.8
		c0.4-0.2,0.9-0.3,1.3-0.4c1.5-0.1,2.2,0.6,2.6,2c3.2,12.1,6.6,24.2,9.7,36.2C87.7,61.9,85.7,62.2,83.9,62.6z"/>
	<path class="st0" d="M46,48.5c0.7-0.2,1.9,0,1.7-1.1c-0.9-3.5-1.9-6.8-2.7-10.2c-0.4-2-1.4-2.2-3-1.7c-5.2,1.5-10.3,2.8-15.4,4.1
		c-1.5,0.3-1.9,1-1.6,2.5c0.9,3.2,1.9,6.4,2.7,9.6c0.3,1.6,1,1.5,2.3,1C35.3,51.3,40.6,49.9,46,48.5z"/>
	<path class="st0" d="M76.4,49.7c1.9-0.5,1.7-1.5,1.4-2.8c-0.3-1.5-0.7-2.2-2.7-1.6c-8.6,2.5-17.5,4.7-26.2,7
		c-6,1.6-12,3.2-17.9,4.7c-1.4,0.3-2.2,0.9-1.4,2.4c0.5,0.9-0.1,2.7,1.9,2.3c0.3-0.1,0.5-0.2,0.7-0.3C47,57.4,61.6,53.6,76.4,49.7z"
		/>
	<path class="st0" d="M77.7,53.7c-7.7,2.2-15.4,4.1-23,6.1c-7.1,1.9-14.1,3.8-21,5.7c-1.2,0.3-2.3,0.7-1.6,2.3c0.4,1,0,2.6,1.7,2.4
		c0.3-0.1,0.4-0.2,0.5-0.2c14.8-3.9,29.8-7.9,44.7-11.8c2.2-0.6,1.2-1.8,1-3C79.8,53.8,79.3,53.3,77.7,53.7z"/>
	<path class="st0" d="M50.4,38c7.5-2,14.8-4,22.1-6c1.6-0.4,1-1.6,0.6-2.6c-0.3-0.9,0-2.4-1.8-1.9c-7.2,1.9-14.2,3.8-21.4,5.7
		c-1.6,0.4-1.2,1.5-0.8,2.5C49.4,36.7,49.1,38.1,50.4,38z"/>
	<path class="st0" d="M51.5,44.6c0.3,0.9,0.1,2.3,1.3,2.2c7.7-2.1,14.9-4,22.2-6c1.8-0.5,0.8-1.9,0.5-2.9c-0.2-0.9-0.2-1.9-1.7-1.5
		c-7.2,1.9-14.2,3.8-21.4,5.7C50.7,42.4,51.1,43.6,51.5,44.6z"/>
</g>
</svg>
