<?xml version="1.0" encoding="utf-8"?>
<!-- Generator: Adobe Illustrator 18.0.0, SVG Export Plug-In . SVG Version: 6.00 Build 0)  -->
<!DOCTYPE svg PUBLIC "-//W3C//DTD SVG 1.1//EN" "http://www.w3.org/Graphics/SVG/1.1/DTD/svg11.dtd">
<svg version="1.1" id="Capa_1" xmlns="http://www.w3.org/2000/svg" xmlns:xlink="http://www.w3.org/1999/xlink" x="0px" y="0px"
	 viewBox="450 450 100 100" enable-background="new 450 450 100 100" xml:space="preserve">
<g>
	<path fill="#1B2734" stroke="#252525" stroke-width="3" stroke-miterlimit="10" d="M520.2,452h-40.3c-3.9,0-7,3.2-7,7v81.9
		c0,3.9,3.2,7,7,7h40.3c3.9,0,7-3.2,7-7V459C527.2,455.1,524,452,520.2,452z M476,467.7h48v54.8h-48V467.7z M479.8,455.1h40.3
		c2.1,0,3.8,1.7,3.8,3.9v5.6h-48V459C476,456.9,477.7,455.1,479.8,455.1z M520.2,544.8h-40.3c-2.1,0-3.9-1.7-3.9-3.8v-15.2h48v15.2
		C524,543,522.3,544.8,520.2,544.8z"/>
	<path fill="#1B2734" stroke="#252525" stroke-miterlimit="10" d="M500,529.4c-3.5,0-6.4,2.9-6.4,6.4s2.9,6.4,6.4,6.4
		c3.5,0,6.4-2.9,6.4-6.4S503.5,529.4,500,529.4z M500,539c-1.8,0-3.2-1.4-3.2-3.2c0-1.8,1.4-3.2,3.2-3.2s3.2,1.4,3.2,3.2
		S501.8,539,500,539z"/>
</g>
</svg>
