<?xml version="1.0" encoding="utf-8"?>
<!-- Generator: Adobe Illustrator 18.0.0, SVG Export Plug-In . SVG Version: 6.00 Build 0)  -->
<!DOCTYPE svg PUBLIC "-//W3C//DTD SVG 1.1//EN" "http://www.w3.org/Graphics/SVG/1.1/DTD/svg11.dtd">
<svg version="1.1" id="Layer_1" xmlns="http://www.w3.org/2000/svg" xmlns:xlink="http://www.w3.org/1999/xlink" x="0px" y="0px"
	 viewBox="0 0 100 100" enable-background="new 0 0 100 100" xml:space="preserve">
<g transform="translate(1 1)">
	<g>
		<g>
			<path fill="#1B2734" stroke="#1B2734" stroke-width="2" stroke-miterlimit="10" d="M38.5,73L25.2,61.7v12.4
				c0.2,10.1,8.4,18.4,18.5,18.4s18.4-8.3,18.4-18.4V63.2c3.5-0.9,6.1-4.9,6.1-9.8s-2.6-8.8-6.1-9.8V7.1c0-0.9-0.6-1.5-1.5-1.5
				S59,6.2,59,7.1v36.5c-3.5,0.9-6.1,4.9-6.1,9.8s2.6,8.8,6.1,9.8v10.9c0,8.4-6.9,15.3-15.3,15.3s-15.3-6.9-15.3-15.3v-5.8l8.1,7
				c0.6,0.6,1.7,0.5,2.1-0.2C39.3,74.5,39.1,73.6,38.5,73z M60.6,60.3c-2.5,0-4.6-3.2-4.6-6.9s2.1-6.9,4.6-6.9s4.6,3.2,4.6,6.9
				C65.1,57.1,63,60.3,60.6,60.3z"/>
		</g>
	</g>
</g>
</svg>
