<?xml version="1.0" encoding="utf-8"?>
<!-- Generator: Adobe Illustrator 18.0.0, SVG Export Plug-In . SVG Version: 6.00 Build 0)  -->
<!DOCTYPE svg PUBLIC "-//W3C//DTD SVG 1.1//EN" "http://www.w3.org/Graphics/SVG/1.1/DTD/svg11.dtd">
<svg version="1.1" id="Capa_1" xmlns="http://www.w3.org/2000/svg" xmlns:xlink="http://www.w3.org/1999/xlink" x="0px" y="0px"
	 viewBox="0 0 100 100" enable-background="new 0 0 100 100" xml:space="preserve">
<g>
	<path fill="#1B2734" stroke="#1B2734" stroke-width="3" stroke-miterlimit="10" d="M50,4.1C24.7,4.1,4.1,24.7,4.1,50
		S24.7,95.9,50,95.9S95.9,75.3,95.9,50S75.3,4.1,50,4.1z M50,92.3c-23.3,0-42.3-19-42.3-42.3S26.7,7.7,50,7.7s42.3,19,42.3,42.3
		S73.3,92.3,50,92.3z"/>
	<path fill="#1B2734" stroke="#1B2734" stroke-width="3" stroke-miterlimit="10" d="M72.1,48.2H51.8V28.8c0-1-0.8-1.8-1.8-1.8
		s-1.8,0.8-1.8,1.8v19.4H27.9c-1,0-1.8,0.8-1.8,1.8s0.8,1.8,1.8,1.8h20.3V73c0,1,0.8,1.8,1.8,1.8s1.8-0.8,1.8-1.8V51.8h20.3
		c1,0,1.8-0.8,1.8-1.8S73,48.2,72.1,48.2z"/>
</g>
</svg>
