<?xml version="1.0" encoding="utf-8"?>
<!-- Generator: Adobe Illustrator 18.0.0, SVG Export Plug-In . SVG Version: 6.00 Build 0)  -->
<!DOCTYPE svg PUBLIC "-//W3C//DTD SVG 1.1//EN" "http://www.w3.org/Graphics/SVG/1.1/DTD/svg11.dtd">
<svg version="1.1" id="Layer_1" xmlns="http://www.w3.org/2000/svg" xmlns:xlink="http://www.w3.org/1999/xlink" x="0px" y="0px"
	 viewBox="0 0 100 100" enable-background="new 0 0 100 100" xml:space="preserve">
<path d="M98,96.1h-6.6V33.9c0-2.9-2.4-5.3-5.3-5.3h-9.6c-2.9,0-5.3,2.4-5.3,5.3v62.2H59.5v-34c0-2.9-2.4-5.3-5.3-5.3h-9.6
	c-2.9,0-5.3,2.4-5.3,5.3v34H27.5V78.5c0-2.9-2.4-5.3-5.3-5.3h-9.6c-2.9,0-5.3,2.4-5.3,5.3v17.6H3.9V96l0-77.9c0-1.1-0.9-2-2-2
	c-0.5,0-1,0.2-1.4,0.6C0.2,17.1,0,17.6,0,18.1v2L0,98c0,0,0,0,0,0c0,1.1,0.9,2,2,2H98c1.1,0,2-0.9,2-2S99.1,96.1,98,96.1z
	 M23.6,96.1H11.4V78.5c0-0.7,0.6-1.3,1.3-1.3h9.6c0.7,0,1.3,0.6,1.3,1.3V96.1z M55.6,96.1H43.3v-34c0-0.7,0.6-1.3,1.3-1.3h9.6
	c0.7,0,1.3,0.6,1.3,1.3V96.1z M87.5,96.1H75.3V33.9c0-0.7,0.6-1.3,1.3-1.3h9.6c0.7,0,1.3,0.6,1.3,1.3V96.1z"/>
</svg>
