<?xml version="1.0" encoding="utf-8"?>
<!-- Generator: Adobe Illustrator 25.2.1, SVG Export Plug-In . SVG Version: 6.00 Build 0)  -->
<svg version="1.1" id="Capa_1" xmlns="http://www.w3.org/2000/svg" xmlns:xlink="http://www.w3.org/1999/xlink" x="0px" y="0px"
	 viewBox="0 0 393.8 520.8" style="enable-background:new 0 0 393.8 520.8;" xml:space="preserve">
<style type="text/css">
	.st0{fill:#1B2734;stroke:#1B2734;stroke-width:7;stroke-miterlimit:10;}
</style>
<g>
	<path class="st0" d="M311.1,395.8H82.6c-4.1,0-7.5,3.4-7.5,7.5s3.4,7.5,7.5,7.5h228.6c4.1,0,7.5-3.4,7.5-7.5
		S315.3,395.8,311.1,395.8z"/>
	<path class="st0" d="M311.1,430.1H82.6c-4.1,0-7.5,3.4-7.5,7.5s3.4,7.5,7.5,7.5h228.6c4.1,0,7.5-3.4,7.5-7.5
		S315.3,430.1,311.1,430.1z"/>
	<path class="st0" d="M82.6,171.3c-4.1,0-7.5,3.4-7.5,7.5v181c0,4.1,3.4,7.5,7.5,7.5h228.6c4,0,7.2-3.1,7.5-7c0-0.2,0.1-0.3,0.1-0.5
		V205.1c0-7.6-6.2-13.8-13.8-13.8h-23.5c-7.6,0-13.8,6.2-13.8,13.8v73.3c0,4.1,3.4,7.5,7.5,7.5s7.5-3.4,7.5-7.5v-72.1h21v145.9h-21
		v-78.9c0-4.1-3.4-7.5-7.5-7.5s-7.5,3.4-7.5,7.5v78.9h-29.6v-90.9c0-7.6-6.2-13.8-13.8-13.8h-23.5c-7.6,0-13.8,6.2-13.8,13.8v90.9
		h-27.6v-38.9c0-7.6-6.2-13.8-13.8-13.8h-23.5c-7.6,0-13.8,6.2-13.8,13.8v38.9H90.1V178.8C90.1,174.6,86.7,171.3,82.6,171.3
		L82.6,171.3z M202,262.6h21v89.7h-21V262.6z M123.3,314.6h21v37.7h-21C123.3,352.3,123.3,314.6,123.3,314.6z"/>
	<path class="st0" d="M132,75h129.7c12.3,0,22.4-10,22.4-22.4V26.7c0-12.3-10-22.4-22.4-22.4H132c-12.3,0-22.4,10-22.4,22.4v25.9
		C109.6,65,119.7,75,132,75L132,75z M124.6,26.7c0-4.1,3.3-7.4,7.4-7.4h129.7c4.1,0,7.4,3.3,7.4,7.4v25.9c0,4.1-3.3,7.4-7.4,7.4H132
		c-4.1,0-7.4-3.3-7.4-7.4V26.7L124.6,26.7z"/>
	<path class="st0" d="M356.4,32.2h-44.9c-4.1,0-7.5,3.4-7.5,7.5s3.4,7.5,7.5,7.5h44.9c9.6,0,17.5,7.8,17.5,17.5v419.2
		c0,9.6-7.8,17.5-17.5,17.5H37.3c-9.6,0-17.5-7.8-17.5-17.5V64.7c0-9.6,7.8-17.5,17.5-17.5h44.9c4.1,0,7.5-3.4,7.5-7.5
		s-3.4-7.5-7.5-7.5H37.3c-17.9,0-32.5,14.6-32.5,32.5v419.2c0,17.9,14.6,32.5,32.5,32.5h319.1c17.9,0,32.5-14.6,32.5-32.5V64.7
		C388.9,46.8,374.3,32.2,356.4,32.2L356.4,32.2z"/>
</g>
</svg>
