<?xml version="1.0" encoding="utf-8"?>
<!-- Generator: Adobe Illustrator 22.1.0, SVG Export Plug-In . SVG Version: 6.00 Build 0)  -->
<svg version="1.1" id="Layer_1" xmlns="http://www.w3.org/2000/svg" xmlns:xlink="http://www.w3.org/1999/xlink" x="0px" y="0px"
	 viewBox="0 0 100 100" enable-background="new 0 0 100 100" xml:space="preserve">
<g>
	<g>
		<defs>
			<path id="SVGID_1_" d="M57.424,69.272l-5.485-6.125c-1.071-1.196-2.807-1.196-3.878,0l-5.485,6.125
				c-1.72,1.921-0.502,5.228,1.939,5.228h10.97C57.917,74.5,59.15,71.2,57.424,69.272z"/>
		</defs>
		<use xlink:href="#SVGID_1_"  overflow="visible" fill-rule="evenodd" clip-rule="evenodd" fill="#1B2734"/>
		<clipPath id="SVGID_2_">
			<use xlink:href="#SVGID_1_"  overflow="visible"/>
		</clipPath>
		<rect x="19.312" y="39.792" clip-path="url(#SVGID_2_)" fill="#1B2734" width="61.376" height="57.167"/>
	</g>
	<g>
		<defs>
			<path id="SVGID_3_" d="M68,56.571c-4.765,0-8.679-3.885-8.679-8.613c0-4.728,3.915-8.613,8.679-8.613s8.679,3.885,8.679,8.613
				C76.679,52.687,72.765,56.571,68,56.571z M68,33.667c-7.941,0-14.402,6.411-14.402,14.292c0,7.88,6.46,14.292,14.402,14.292
				s14.402-6.411,14.402-14.292C82.402,40.078,75.941,33.667,68,33.667z"/>
		</defs>
		<use xlink:href="#SVGID_3_"  overflow="visible" fill="#1B2734"/>
		<clipPath id="SVGID_4_">
			<use xlink:href="#SVGID_3_"  overflow="visible"/>
		</clipPath>
		<rect x="31.14" y="11.208" clip-path="url(#SVGID_4_)" fill="#1B2734" width="73.72" height="73.5"/>
	</g>
	<g>
		<defs>
			<path id="SVGID_5_" d="M32,56.571c-4.765,0-8.679-3.885-8.679-8.613c0-4.728,3.915-8.613,8.679-8.613
				c4.765,0,8.679,3.885,8.679,8.613C40.679,52.687,36.765,56.571,32,56.571z M32,33.667c-7.941,0-14.402,6.411-14.402,14.292
				c0,7.88,6.46,14.292,14.402,14.292c7.941,0,14.402-6.411,14.402-14.292C46.402,40.078,39.941,33.667,32,33.667z"/>
		</defs>
		<use xlink:href="#SVGID_5_"  overflow="visible" fill="#1B2734"/>
		<clipPath id="SVGID_6_">
			<use xlink:href="#SVGID_5_"  overflow="visible"/>
		</clipPath>
		<rect x="-4.86" y="11.208" clip-path="url(#SVGID_6_)" fill="#1B2734" width="73.72" height="73.5"/>
	</g>
	<g>
		<defs>
			<path id="SVGID_7_" d="M86.961,61.785c-1.175,4.062-4.581,7.064-8.894,7.84c-2.354,0.072-2.026,0.541-4.449,0.051
				c-1.784-0.361-3.454,1-3.454,2.814v14.252c0,1.161-0.668,2.19-1.701,2.622c-1.053,0.439-2.47,0.931-4.099,1.456v-6.212
				c0-1.586-1.251-2.833-2.842-2.833c-1.591,0-2.881,1.285-2.881,2.871v7.718c-1.803,0.362-3.777,0.608-5.8,0.752v-8.509
				c0-1.586-1.251-2.833-2.842-2.833c-1.591,0-2.881,1.285-2.881,2.871v8.509c-2.022-0.144-3.997-0.467-5.8-0.829v-7.718
				c0-1.586-1.251-2.833-2.842-2.833c-1.591,0-2.881,1.285-2.881,2.871v6.212c-1.628-0.525-3.007-1.054-4.06-1.494
				c-1.034-0.431-1.74-1.499-1.74-2.66l0-14.25c0-1.811-1.629-3.137-3.415-2.776c-2.569,0.52-2.004,0.007-4.544-0.055
				c-4.222-0.781-7.576-3.734-8.769-7.732c-0.778-2.607-0.664-5.284,0.328-7.741c0.22-0.544,0.267-1.142,0.135-1.714
				c-2.969-12.897,0.989-25.793,9.987-34.762C30.593,10.625,39.997,6.704,50,6.704s19.407,3.921,26.48,10.97
				c9.162,9.132,12.896,22.127,9.987,34.762c-0.132,0.572-0.084,1.17,0.135,1.714C87.581,56.573,87.705,59.213,86.961,61.785z
				 M92.27,52.869c2.997-14.304-1.348-28.921-11.716-39.255v0C72.393,5.48,61.542,1,50,1S27.608,5.48,19.446,13.614
				C9.101,23.925,4.713,38.532,7.73,52.87c-1.18,3.429-1.245,7.094-0.183,10.658c1.806,6.052,6.829,10.522,13.147,11.724
				c0.729,0.207,0.772,0.003,2.201,0.238c0.393,0.065,0.768,0.119,1.179,0.146v11.106c0,3.482,2.056,6.591,5.237,7.918
				c4.743,1.98,12.182,4.339,20.684,4.34c0.002,0,0.003,0,0.004,0c0.002,0,0.003,0,0.004,0c8.501-0.001,15.941-2.361,20.685-4.34
				c3.181-1.328,5.237-4.436,5.237-7.918v-11.12c0.399-0.027,0.771-0.077,1.161-0.137c1.523-0.232,1.583-0.017,2.35-0.275
				c6.321-1.265,11.305-5.769,13.06-11.835C93.514,59.861,93.433,56.249,92.27,52.869z"/>
		</defs>
		<use xlink:href="#SVGID_7_"  overflow="visible" fill="#1B2734"/>
		<clipPath id="SVGID_8_">
			<use xlink:href="#SVGID_7_"  overflow="visible"/>
		</clipPath>
		<rect x="-15.663" y="-21.458" clip-path="url(#SVGID_8_)" fill="#1B2734" width="131.326" height="142.917"/>
	</g>
</g>
</svg>
