<?xml version="1.0" encoding="utf-8"?>
<!-- Generator: Adobe Illustrator 18.0.0, SVG Export Plug-In . SVG Version: 6.00 Build 0)  -->
<!DOCTYPE svg PUBLIC "-//W3C//DTD SVG 1.1//EN" "http://www.w3.org/Graphics/SVG/1.1/DTD/svg11.dtd">
<svg version="1.1" id="Capa_1" xmlns="http://www.w3.org/2000/svg" xmlns:xlink="http://www.w3.org/1999/xlink" x="0px" y="0px"
	 viewBox="0 0 100 100" enable-background="new 0 0 100 100" xml:space="preserve">
<g>
	<circle fill="#1B2734" stroke="#1B2734" stroke-width="2" stroke-miterlimit="10" cx="40.5" cy="8.8" r="1.6"/>
	<circle fill="#1B2734" stroke="#1B2734" stroke-width="2" stroke-miterlimit="10" cx="35.7" cy="13.6" r="1.6"/>
	<circle fill="#1B2734" stroke="#1B2734" stroke-width="2" stroke-miterlimit="10" cx="26.2" cy="23.1" r="1.6"/>
	<circle fill="#1B2734" stroke="#1B2734" stroke-width="2" stroke-miterlimit="10" cx="21.5" cy="18.3" r="1.6"/>
	<circle fill="#1B2734" stroke="#1B2734" stroke-width="2" stroke-miterlimit="10" cx="21.5" cy="27.8" r="1.6"/>
	<circle fill="#1B2734" stroke="#1B2734" stroke-width="2" stroke-miterlimit="10" cx="35.7" cy="23.1" r="1.6"/>
	<circle fill="#1B2734" stroke="#1B2734" stroke-width="2" stroke-miterlimit="10" cx="40.5" cy="18.3" r="1.6"/>
	<circle fill="#1B2734" stroke="#1B2734" stroke-width="2" stroke-miterlimit="10" cx="31" cy="18.3" r="1.6"/>
	<circle fill="#1B2734" stroke="#1B2734" stroke-width="2" stroke-miterlimit="10" cx="40.5" cy="27.8" r="1.6"/>
	<circle fill="#1B2734" stroke="#1B2734" stroke-width="2" stroke-miterlimit="10" cx="31" cy="27.8" r="1.6"/>
	<circle fill="#1B2734" stroke="#1B2734" stroke-width="2" stroke-miterlimit="10" cx="16.7" cy="32.6" r="1.6"/>
	<circle fill="#1B2734" stroke="#1B2734" stroke-width="2" stroke-miterlimit="10" cx="26.2" cy="32.6" r="1.6"/>
	<circle fill="#1B2734" stroke="#1B2734" stroke-width="2" stroke-miterlimit="10" cx="35.7" cy="32.6" r="1.6"/>
	<circle fill="#1B2734" stroke="#1B2734" stroke-width="2" stroke-miterlimit="10" cx="16.7" cy="42.1" r="1.6"/>
	<circle fill="#1B2734" stroke="#1B2734" stroke-width="2" stroke-miterlimit="10" cx="12" cy="37.3" r="1.6"/>
	<circle fill="#1B2734" stroke="#1B2734" stroke-width="2" stroke-miterlimit="10" cx="26.2" cy="42.1" r="1.6"/>
	<circle fill="#1B2734" stroke="#1B2734" stroke-width="2" stroke-miterlimit="10" cx="21.5" cy="37.3" r="1.6"/>
	<circle fill="#1B2734" stroke="#1B2734" stroke-width="2" stroke-miterlimit="10" cx="35.7" cy="42.1" r="1.6"/>
	<circle fill="#1B2734" stroke="#1B2734" stroke-width="2" stroke-miterlimit="10" cx="40.5" cy="37.3" r="1.6"/>
	<circle fill="#1B2734" stroke="#1B2734" stroke-width="2" stroke-miterlimit="10" cx="31" cy="37.3" r="1.6"/>
	<path fill="#1B2734" stroke="#1B2734" stroke-width="2" stroke-miterlimit="10" d="M48.4,2.5l-1.7,0.1C23.2,4.2,4.2,23.2,2.6,46.7
		l-0.1,1.7h45.9V2.5z"/>
	<path fill="#1B2734" stroke="#1B2734" stroke-width="2" stroke-miterlimit="10" d="M86,19C77.6,9.3,66,3.5,53.3,2.6l-1.7-0.1v49.1
		H2.5l0.1,1.7C3.3,63.6,7.3,73.2,14.1,81l0,0c0.6,0.7,1.3,1.4,2.2,2.3l2.4,2.3c0.9,0.9,1.7,1.5,2.4,2.1c8.3,6.4,18.5,9.8,29,9.8
		c1.2,0,2.5,0,3.7-0.1C76.8,95.6,95.5,77,97.4,54C98.4,41.1,94.4,28.7,86,19z M94.2,53.7C92.4,75.1,75,92.5,53.5,94.2
		c-11,0.9-21.8-2.4-30.5-9c-0.6-0.5-1.3-1.1-2.1-1.9L18.4,81c-0.8-0.8-1.5-1.4-2-2c-6-6.9-9.6-15.2-10.5-24.2h48.8V5.9
		C66,7.1,76.2,12.5,83.6,21.1C91.4,30.1,95.2,41.7,94.2,53.7z"/>
</g>
</svg>
