<?xml version="1.0" encoding="utf-8"?>
<!-- Generator: Adobe Illustrator 22.1.0, SVG Export Plug-In . SVG Version: 6.00 Build 0)  -->
<svg version="1.1" id="Layer_1" xmlns="http://www.w3.org/2000/svg" xmlns:xlink="http://www.w3.org/1999/xlink" x="0px" y="0px"
	 viewBox="0 0 600 600" style="enable-background:new 0 0 600 600;" xml:space="preserve">
<style type="text/css">
	.st0{fill:#E2EEF9;}
	.st1{opacity:0;}
	.st2{fill:#FFFFFF;}
	.st3{opacity:3.225806e-02;}
	.st4{fill:#FDFDFD;}
	.st5{opacity:6.451613e-02;}
	.st6{fill:#FBFBFB;}
	.st7{opacity:9.677419e-02;}
	.st8{fill:#F9F9F9;}
	.st9{opacity:0.129;}
	.st10{fill:#F7F7F7;}
	.st11{opacity:0.1613;}
	.st12{fill:#F5F5F5;}
	.st13{opacity:0.1935;}
	.st14{fill:#F3F3F3;}
	.st15{opacity:0.2258;}
	.st16{fill:#F1F1F1;}
	.st17{opacity:0.2581;}
	.st18{fill:#EEEEEE;}
	.st19{opacity:0.2903;}
	.st20{fill:#ECECEC;}
	.st21{opacity:0.3226;}
	.st22{fill:#EAEAEA;}
	.st23{opacity:0.3548;}
	.st24{fill:#E8E8E8;}
	.st25{opacity:0.3871;}
	.st26{fill:#E6E6E6;}
	.st27{opacity:0.4194;}
	.st28{fill:#E4E4E4;}
	.st29{opacity:0.4516;}
	.st30{fill:#E2E2E2;}
	.st31{opacity:0.4839;}
	.st32{fill:#E0E0E0;}
	.st33{opacity:0.5161;}
	.st34{fill:#DEDEDE;}
	.st35{opacity:0.5484;}
	.st36{fill:#DCDCDC;}
	.st37{opacity:0.5806;}
	.st38{fill:#DADADA;}
	.st39{opacity:0.6129;}
	.st40{fill:#D8D8D8;}
	.st41{opacity:0.6452;}
	.st42{fill:#D6D6D6;}
	.st43{opacity:0.6774;}
	.st44{fill:#D4D4D4;}
	.st45{opacity:0.7097;}
	.st46{fill:#D2D2D2;}
	.st47{opacity:0.7419;}
	.st48{fill:#D0D0D0;}
	.st49{opacity:0.7742;}
	.st50{fill:#CDCDCD;}
	.st51{opacity:0.8065;}
	.st52{fill:#CBCBCB;}
	.st53{opacity:0.8387;}
	.st54{fill:#C9C9C9;}
	.st55{opacity:0.871;}
	.st56{fill:#C7C7C7;}
	.st57{opacity:0.9032;}
	.st58{fill:#C5C5C5;}
	.st59{opacity:0.9355;}
	.st60{fill:#C3C3C3;}
	.st61{opacity:0.9677;}
	.st62{fill:#C1C1C1;}
	.st63{fill:#BFBFBF;}
	.st64{fill:#EFAB7D;}
	.st65{fill:#E59D6C;}
	.st66{fill:#A0C2FF;}
	.st67{fill:#2C3E50;}
	.st68{fill:#FEBE17;}
	.st69{fill:#FEBE92;}
</style>
<g>
	<path class="st0" d="M600,300c0,165.7-134.3,300-300,300c-132.3,0-244.7-85.7-284.5-204.7C5.5,365.3,0,333.3,0,300
		c0-28.4,4-55.9,11.3-82C47,92.2,162.8,0,300,0C465.7,0,600,134.3,600,300z"/>
	<g>
		<g class="st1">
			<rect x="220.2" y="324.7" class="st2" width="68.7" height="87.6"/>
			<path class="st2" d="M466.1,283.2v170.6H324c-27.9,0-50.7-22.7-50.7-50.7v-69.3c0-8.7,2.2-16.8,6-23.9l0.1-0.2
				c1.4-2.5,2.9-4.8,4.6-7.1c9.3-11.9,23.7-19.5,39.9-19.5H466.1z"/>
			<path class="st2" d="M393.7,433.1h-0.8c-22.1,0-40-17.9-40-40v-47.9c0-22.1,17.9-40,40-40h0.8c22.1,0,40,17.9,40,40v47.9
				C433.7,415.2,415.8,433.1,393.7,433.1z"/>
			<rect x="192.3" y="287.8" class="st2" width="66.5" height="142.9"/>
			<path class="st2" d="M238.2,269.5v177.2H66.9c-10-29.9-15.5-62-15.5-95.2c0-28.4,4-55.9,11.3-82H238.2z"/>
			<g>
				<path class="st2" d="M222.8,384.7c0,7.7-6.2,13.9-13.9,13.9c-7.7,0-13.9-6.2-13.9-13.9c0-7.7,6.2-13.9,13.9-13.9
					C216.6,370.8,222.8,377,222.8,384.7z"/>
				<ellipse class="st2" cx="170" cy="384.7" rx="13.9" ry="13.9"/>
			</g>
			<g>
				<path class="st2" d="M466.8,283.3h-72.4c-10.3,0-18.7,9.1-18.7,20.2v3.3c0,11.2,8.4,20.2,18.7,20.2h72.4c10.5,0,19-9.2,19-20.5
					v-2.8C485.8,292.4,477.3,283.3,466.8,283.3z"/>
				<path class="st2" d="M461,412.4h-54.9c-10.5,0-19.1,9.1-19.1,20.2v1c0,11.2,8.5,20.2,19.1,20.2H461c10.7,0,19.3-9.2,19.3-20.5
					v-0.4C480.3,421.5,471.7,412.4,461,412.4z"/>
				<path class="st2" d="M471.9,368.5h-78.3c-11.2,0-20.2,9.1-20.2,20.2v3.3c0,11.2,9.1,20.2,20.2,20.2h78.3
					c11.3,0,20.5-9.2,20.5-20.5v-2.8C492.4,377.7,483.2,368.5,471.9,368.5z"/>
				<path class="st2" d="M477.7,324.7h-94.6c-11.2,0-20.2,9.1-20.2,20.2v3.3c0,11.2,9.1,20.2,20.2,20.2h94.6
					c11.3,0,20.5-9.2,20.5-20.5v-2.8C498.3,333.9,489.1,324.7,477.7,324.7z"/>
			</g>
			<path class="st2" d="M364.7,221.8l-7.4,61.4l-4.5,22.1c-2.9,14.2-10,27.1-20.5,37.1l-0.4,0.4c-13.2,12.6-30.7,19.6-48.9,19.6
				h-9.8v-28.5c0-8.7,2.2-16.8,6-23.9l66.2-155.7l2.4,1C374.1,166.1,375.6,195.5,364.7,221.8z"/>
		</g>
		<g class="st3">
			<rect x="218.5" y="323.1" class="st4" width="68.7" height="87.6"/>
			<path class="st4" d="M464.4,281.6v170.6H322.4c-27.9,0-50.7-22.7-50.7-50.7v-69.3c0-8.7,2.2-16.8,6-23.9l0.1-0.2
				c1.4-2.5,2.9-4.8,4.6-7.1c9.2-11.9,23.7-19.5,39.9-19.5H464.4z"/>
			<path class="st4" d="M392,431.4h-0.8c-22.1,0-40-17.9-40-40v-47.9c0-22.1,17.9-40,40-40h0.8c22.1,0,40,17.9,40,40v47.9
				C432,413.5,414.1,431.4,392,431.4z"/>
			<rect x="190.6" y="286.1" class="st4" width="66.5" height="142.9"/>
			<path class="st4" d="M236.6,267.8V445H65.3c-10-29.9-15.5-62-15.5-95.2c0-28.4,4-55.9,11.3-82H236.6z"/>
			<g>
				<path class="st4" d="M221.2,383c0,7.7-6.2,13.9-13.9,13.9c-7.7,0-13.9-6.2-13.9-13.9c0-7.7,6.2-13.9,13.9-13.9
					C215,369.1,221.2,375.3,221.2,383z"/>
				<path class="st4" d="M182.2,383c0,7.7-6.2,13.9-13.9,13.9c-7.7,0-13.9-6.2-13.9-13.9c0-7.7,6.2-13.9,13.9-13.9
					C176,369.1,182.2,375.3,182.2,383z"/>
			</g>
			<g>
				<path class="st4" d="M465.2,281.6h-72.4c-10.3,0-18.7,9.1-18.7,20.2v3.3c0,11.2,8.4,20.2,18.7,20.2h72.4c10.5,0,19-9.2,19-20.5
					v-2.8C484.1,290.8,475.6,281.6,465.2,281.6z"/>
				<path class="st4" d="M459.3,410.7h-54.9c-10.5,0-19.1,9.1-19.1,20.2v1c0,11.2,8.5,20.2,19.1,20.2h54.9
					c10.7,0,19.3-9.2,19.3-20.5v-0.4C478.6,419.9,470,410.7,459.3,410.7z"/>
				<path class="st4" d="M470.2,366.9H392c-11.2,0-20.2,9.1-20.2,20.2v3.3c0,11.2,9.1,20.2,20.2,20.2h78.3
					c11.3,0,20.5-9.2,20.5-20.5v-2.8C490.8,376.1,481.6,366.9,470.2,366.9z"/>
				<path class="st4" d="M476.1,323.1h-94.6c-11.2,0-20.2,9.1-20.2,20.2v3.3c0,11.2,9.1,20.2,20.2,20.2h94.6
					c11.3,0,20.5-9.2,20.5-20.5v-2.8C496.6,332.2,487.4,323.1,476.1,323.1z"/>
			</g>
			<path class="st4" d="M363.1,220.2l-7.4,61.4l-4.5,22.1c-2.9,14.2-10,27.1-20.5,37.1l-0.4,0.4c-13.2,12.6-30.7,19.6-48.9,19.6
				h-9.8v-28.5c0-8.7,2.2-16.8,6-23.9l66.2-155.7l2.4,1C372.5,164.5,373.9,193.9,363.1,220.2z"/>
		</g>
		<g class="st5">
			<rect x="216.9" y="321.4" class="st6" width="68.7" height="87.6"/>
			<path class="st6" d="M462.8,279.9v170.6H320.7c-27.9,0-50.7-22.7-50.7-50.7v-69.3c0-8.7,2.2-16.8,6-23.9l0.1-0.2
				c1.4-2.5,2.9-4.8,4.6-7.1c9.2-11.9,23.7-19.5,39.9-19.5H462.8z"/>
			<path class="st6" d="M390.4,429.8h-0.8c-22.1,0-40-17.9-40-40v-47.9c0-22.1,17.9-40,40-40h0.8c22.1,0,40,17.9,40,40v47.9
				C430.4,411.9,412.5,429.8,390.4,429.8z"/>
			<rect x="188.9" y="284.4" class="st6" width="66.5" height="142.9"/>
			<path class="st6" d="M234.9,266.2v177.2H63.6c-10-29.9-15.5-62-15.5-95.2c0-28.4,4-55.9,11.3-82H234.9z"/>
			<g>
				<path class="st6" d="M219.5,381.3c0,7.7-6.2,13.9-13.9,13.9c-7.7,0-13.9-6.2-13.9-13.9c0-7.7,6.2-13.9,13.9-13.9
					C213.3,367.5,219.5,373.7,219.5,381.3z"/>
				<path class="st6" d="M180.6,381.3c0,7.7-6.2,13.9-13.9,13.9c-7.7,0-13.9-6.2-13.9-13.9c0-7.7,6.2-13.9,13.9-13.9
					C174.4,367.5,180.6,373.7,180.6,381.3z"/>
			</g>
			<g>
				<path class="st6" d="M463.5,279.9h-72.4c-10.3,0-18.7,9.1-18.7,20.2v3.3c0,11.2,8.4,20.2,18.7,20.2h72.4c10.5,0,19-9.2,19-20.5
					v-2.8C482.5,289.1,474,279.9,463.5,279.9z"/>
				<path class="st6" d="M457.7,409h-54.9c-10.5,0-19.1,9.1-19.1,20.2v1c0,11.2,8.5,20.2,19.1,20.2h54.9c10.7,0,19.3-9.2,19.3-20.5
					v-0.4C477,418.2,468.3,409,457.7,409z"/>
				<path class="st6" d="M468.6,365.2h-78.3c-11.2,0-20.2,9.1-20.2,20.2v3.3c0,11.2,9.1,20.2,20.2,20.2h78.3
					c11.3,0,20.5-9.2,20.5-20.5v-2.8C489.1,374.4,479.9,365.2,468.6,365.2z"/>
				<path class="st6" d="M474.4,321.4h-94.6c-11.2,0-20.2,9.1-20.2,20.2v3.3c0,11.2,9.1,20.2,20.2,20.2h94.6
					c11.3,0,20.5-9.2,20.5-20.5v-2.8C494.9,330.6,485.8,321.4,474.4,321.4z"/>
			</g>
			<path class="st6" d="M361.4,218.5l-7.4,61.4l-4.5,22.1c-2.9,14.2-10,27.1-20.5,37.1l-0.4,0.4c-13.2,12.6-30.7,19.6-48.9,19.6H270
				v-28.5c0-8.7,2.2-16.8,6-23.9L342.2,151l2.4,1C370.8,162.8,372.3,192.2,361.4,218.5z"/>
		</g>
		<g class="st7">
			<rect x="215.2" y="319.7" class="st8" width="68.7" height="87.6"/>
			<path class="st8" d="M461.1,278.2v170.6H319c-27.9,0-50.7-22.7-50.7-50.7v-69.3c0-8.7,2.2-16.8,6-23.9l0.1-0.2
				c1.4-2.5,2.9-4.8,4.6-7.1c9.2-11.9,23.7-19.5,39.9-19.5H461.1z"/>
			<path class="st8" d="M388.7,428.1h-0.8c-22.1,0-40-17.9-40-40v-47.9c0-22.1,17.9-40,40-40h0.8c22.1,0,40,17.9,40,40v47.9
				C428.7,410.2,410.8,428.1,388.7,428.1z"/>
			<rect x="187.3" y="282.8" class="st8" width="66.5" height="142.9"/>
			<path class="st8" d="M233.3,264.5v177.2H61.9c-10-29.9-15.5-62-15.5-95.2c0-28.4,4-55.9,11.3-82H233.3z"/>
			<g>
				<path class="st8" d="M217.9,379.7c0,7.7-6.2,13.9-13.9,13.9c-7.7,0-13.9-6.2-13.9-13.9c0-7.7,6.2-13.9,13.9-13.9
					C211.6,365.8,217.9,372,217.9,379.7z"/>
				<path class="st8" d="M178.9,379.7c0,7.7-6.2,13.9-13.9,13.9c-7.7,0-13.9-6.2-13.9-13.9c0-7.7,6.2-13.9,13.9-13.9
					C172.7,365.8,178.9,372,178.9,379.7z"/>
			</g>
			<g>
				<path class="st8" d="M461.8,278.3h-72.4c-10.3,0-18.7,9.1-18.7,20.2v3.3c0,11.2,8.4,20.2,18.7,20.2h72.4c10.5,0,19-9.2,19-20.5
					v-2.8C480.8,287.5,472.3,278.3,461.8,278.3z"/>
				<path class="st8" d="M456,407.4h-54.9c-10.5,0-19.1,9.1-19.1,20.2v1c0,11.2,8.5,20.2,19.1,20.2H456c10.7,0,19.3-9.2,19.3-20.5
					v-0.4C475.3,416.6,466.7,407.4,456,407.4z"/>
				<path class="st8" d="M466.9,363.6h-78.3c-11.2,0-20.2,9.1-20.2,20.2v3.3c0,11.2,9.1,20.2,20.2,20.2h78.3
					c11.3,0,20.5-9.2,20.5-20.5v-2.8C487.4,372.7,478.3,363.6,466.9,363.6z"/>
				<path class="st8" d="M472.8,319.7h-94.6c-11.2,0-20.2,9.1-20.2,20.2v3.3c0,11.2,9.1,20.2,20.2,20.2h94.6
					c11.3,0,20.5-9.2,20.5-20.5v-2.8C493.3,328.9,484.1,319.7,472.8,319.7z"/>
			</g>
			<path class="st8" d="M359.8,216.9l-7.4,61.4l-4.5,22.1c-2.9,14.2-10,27.1-20.5,37.1l-0.4,0.4c-13.2,12.6-30.7,19.6-48.9,19.6
				h-9.8v-28.5c0-8.7,2.2-16.8,6-23.9l66.2-155.7l2.4,1C369.2,161.2,370.6,190.6,359.8,216.9z"/>
		</g>
		<g class="st9">
			<rect x="213.6" y="318.1" class="st10" width="68.7" height="87.6"/>
			<path class="st10" d="M459.4,276.6v170.6H317.4c-27.9,0-50.7-22.7-50.7-50.7v-69.3c0-8.7,2.2-16.8,6-23.9l0.1-0.2
				c1.4-2.5,2.9-4.8,4.6-7.1c9.2-11.9,23.7-19.5,39.9-19.5H459.4z"/>
			<path class="st10" d="M387.1,426.5h-0.8c-22.1,0-40-17.9-40-40v-47.9c0-22.1,17.9-40,40-40h0.8c22.1,0,40,17.9,40,40v47.9
				C427,408.6,409.1,426.5,387.1,426.5z"/>
			<rect x="185.6" y="281.1" class="st10" width="66.5" height="142.9"/>
			<path class="st10" d="M231.6,262.8v177.2H60.3c-10-29.9-15.5-62-15.5-95.2c0-28.4,4-55.9,11.3-82H231.6z"/>
			<g>
				<path class="st10" d="M216.2,378c0,7.7-6.2,13.9-13.9,13.9c-7.7,0-13.9-6.2-13.9-13.9c0-7.7,6.2-13.9,13.9-13.9
					C210,364.1,216.2,370.4,216.2,378z"/>
				<path class="st10" d="M177.3,378c0,7.7-6.2,13.9-13.9,13.9c-7.7,0-13.9-6.2-13.9-13.9c0-7.7,6.2-13.9,13.9-13.9
					C171,364.1,177.3,370.4,177.3,378z"/>
			</g>
			<g>
				<path class="st10" d="M460.2,276.6h-72.4c-10.3,0-18.7,9.1-18.7,20.2v3.3c0,11.2,8.4,20.2,18.7,20.2h72.4c10.5,0,19-9.2,19-20.5
					v-2.8C479.2,285.8,470.7,276.6,460.2,276.6z"/>
				<path class="st10" d="M454.3,405.7h-54.9c-10.5,0-19.1,9.1-19.1,20.2v1c0,11.2,8.5,20.2,19.1,20.2h54.9
					c10.7,0,19.3-9.2,19.3-20.5v-0.4C473.7,414.9,465,405.7,454.3,405.7z"/>
				<path class="st10" d="M465.3,361.9H387c-11.2,0-20.2,9.1-20.2,20.2v3.3c0,11.2,9.1,20.2,20.2,20.2h78.3
					c11.3,0,20.5-9.2,20.5-20.5v-2.8C485.8,371.1,476.6,361.9,465.3,361.9z"/>
				<path class="st10" d="M471.1,318.1h-94.6c-11.2,0-20.2,9.1-20.2,20.2v3.3c0,11.2,9.1,20.2,20.2,20.2h94.6
					c11.3,0,20.5-9.2,20.5-20.5v-2.8C491.6,327.3,482.4,318.1,471.1,318.1z"/>
			</g>
			<path class="st10" d="M358.1,215.2l-7.4,61.4l-4.5,22.1c-2.9,14.2-10,27.1-20.5,37.1l-0.4,0.4c-13.2,12.6-30.7,19.6-48.9,19.6
				h-9.8v-28.5c0-8.7,2.2-16.8,6-23.9l66.2-155.7l2.4,1C367.5,159.5,369,188.9,358.1,215.2z"/>
		</g>
		<g class="st11">
			<rect x="211.9" y="316.4" class="st12" width="68.7" height="87.6"/>
			<path class="st12" d="M457.8,274.9v170.6H315.7c-27.9,0-50.7-22.7-50.7-50.7v-69.3c0-8.7,2.2-16.8,6-23.9l0.1-0.2
				c1.4-2.5,2.9-4.8,4.6-7.1c9.2-11.9,23.7-19.5,39.9-19.5H457.8z"/>
			<path class="st12" d="M385.4,424.8h-0.8c-22.1,0-40-17.9-40-40V337c0-22.1,17.9-40,40-40h0.8c22.1,0,40,17.9,40,40v47.9
				C425.4,406.9,407.5,424.8,385.4,424.8z"/>
			<rect x="184" y="279.5" class="st12" width="66.5" height="142.9"/>
			<path class="st12" d="M229.9,261.2v177.2H58.6c-10-29.9-15.5-62-15.5-95.2c0-28.4,4-55.9,11.3-82H229.9z"/>
			<g>
				<path class="st12" d="M214.5,376.4c0,7.7-6.2,13.9-13.9,13.9c-7.7,0-13.9-6.2-13.9-13.9c0-7.7,6.2-13.9,13.9-13.9
					C208.3,362.5,214.5,368.7,214.5,376.4z"/>
				<path class="st12" d="M175.6,376.4c0,7.7-6.2,13.9-13.9,13.9c-7.7,0-13.9-6.2-13.9-13.9c0-7.7,6.2-13.9,13.9-13.9
					C169.4,362.5,175.6,368.7,175.6,376.4z"/>
			</g>
			<g>
				<path class="st12" d="M458.5,275h-72.4c-10.3,0-18.7,9.1-18.7,20.2v3.3c0,11.2,8.4,20.2,18.7,20.2h72.4c10.5,0,19-9.2,19-20.5
					v-2.8C477.5,284.1,469,275,458.5,275z"/>
				<path class="st12" d="M452.7,404.1h-54.9c-10.5,0-19.1,9.1-19.1,20.2v1c0,11.2,8.5,20.2,19.1,20.2h54.9
					c10.7,0,19.3-9.2,19.3-20.5v-0.4C472,413.3,463.4,404.1,452.7,404.1z"/>
				<path class="st12" d="M463.6,360.2h-78.3c-11.2,0-20.2,9.1-20.2,20.2v3.3c0,11.2,9.1,20.2,20.2,20.2h78.3
					c11.3,0,20.5-9.2,20.5-20.5v-2.8C484.1,369.4,474.9,360.2,463.6,360.2z"/>
				<path class="st12" d="M469.4,316.4h-94.6c-11.2,0-20.2,9.1-20.2,20.2v3.3c0,11.2,9.1,20.2,20.2,20.2h94.6
					c11.3,0,20.5-9.2,20.5-20.5v-2.8C490,325.6,480.8,316.4,469.4,316.4z"/>
			</g>
			<path class="st12" d="M356.4,213.5l-7.4,61.4l-4.5,22.1c-2.9,14.2-10,27.1-20.5,37.1l-0.4,0.4c-13.2,12.6-30.7,19.6-48.9,19.6
				h-9.8v-28.5c0-8.7,2.2-16.8,6-23.9L337.2,146l2.4,1C365.9,157.8,367.3,187.2,356.4,213.5z"/>
		</g>
		<g class="st13">
			<rect x="210.2" y="314.8" class="st14" width="68.7" height="87.6"/>
			<path class="st14" d="M456.1,273.3v170.6H314.1c-27.9,0-50.7-22.7-50.7-50.7v-69.3c0-8.7,2.2-16.8,6-23.9l0.1-0.2
				c1.4-2.5,2.9-4.8,4.6-7.1c9.2-11.9,23.7-19.5,39.9-19.5H456.1z"/>
			<path class="st14" d="M383.7,423.1h-0.8c-22.1,0-40-17.9-40-40v-47.9c0-22.1,17.9-40,40-40h0.8c22.1,0,40,17.9,40,40v47.9
				C423.7,405.2,405.8,423.1,383.7,423.1z"/>
			<rect x="182.3" y="277.8" class="st14" width="66.5" height="142.9"/>
			<path class="st14" d="M228.3,259.5v177.2H57c-10-29.9-15.5-62-15.5-95.2c0-28.4,4-55.9,11.3-82H228.3z"/>
			<g>
				<path class="st14" d="M212.9,374.7c0,7.7-6.2,13.9-13.9,13.9c-7.7,0-13.9-6.2-13.9-13.9c0-7.7,6.2-13.9,13.9-13.9
					C206.7,360.8,212.9,367,212.9,374.7z"/>
				<path class="st14" d="M173.9,374.7c0,7.7-6.2,13.9-13.9,13.9c-7.7,0-13.9-6.2-13.9-13.9c0-7.7,6.2-13.9,13.9-13.9
					C167.7,360.8,173.9,367,173.9,374.7z"/>
			</g>
			<g>
				<path class="st14" d="M456.9,273.3h-72.4c-10.3,0-18.7,9.1-18.7,20.2v3.3c0,11.2,8.4,20.2,18.7,20.2h72.4c10.5,0,19-9.2,19-20.5
					v-2.8C475.8,282.5,467.3,273.3,456.9,273.3z"/>
				<path class="st14" d="M451,402.4h-54.9c-10.5,0-19.1,9.1-19.1,20.2v1c0,11.2,8.5,20.2,19.1,20.2H451c10.7,0,19.3-9.2,19.3-20.5
					v-0.4C470.3,411.6,461.7,402.4,451,402.4z"/>
				<path class="st14" d="M461.9,358.6h-78.3c-11.2,0-20.2,9.1-20.2,20.2v3.3c0,11.2,9.1,20.2,20.2,20.2h78.3
					c11.3,0,20.5-9.2,20.5-20.5v-2.8C482.5,367.8,473.3,358.6,461.9,358.6z"/>
				<path class="st14" d="M467.8,314.8h-94.6c-11.2,0-20.2,9.1-20.2,20.2v3.3c0,11.2,9.1,20.2,20.2,20.2h94.6
					c11.3,0,20.5-9.2,20.5-20.5v-2.8C488.3,323.9,479.1,314.8,467.8,314.8z"/>
			</g>
			<path class="st14" d="M354.8,211.9l-7.4,61.4l-4.5,22.1c-2.9,14.2-10,27.1-20.5,37.1l-0.4,0.4c-13.2,12.6-30.7,19.6-48.9,19.6
				h-9.8v-28.5c0-8.7,2.2-16.8,6-23.9l66.2-155.7l2.4,1C364.2,156.2,365.7,185.6,354.8,211.9z"/>
		</g>
		<g class="st15">
			<rect x="208.6" y="313.1" class="st16" width="68.7" height="87.6"/>
			<path class="st16" d="M454.5,271.6v170.6H312.4c-27.9,0-50.7-22.7-50.7-50.7v-69.3c0-8.7,2.2-16.8,6-23.9l0.1-0.2
				c1.4-2.5,2.9-4.8,4.6-7.1c9.2-11.9,23.7-19.5,39.9-19.5H454.5z"/>
			<path class="st16" d="M382.1,421.5h-0.8c-22.1,0-40-17.9-40-40v-47.9c0-22.1,17.9-40,40-40h0.8c22.1,0,40,17.9,40,40v47.9
				C422.1,403.6,404.2,421.5,382.1,421.5z"/>
			<rect x="180.6" y="276.1" class="st16" width="66.5" height="142.9"/>
			<path class="st16" d="M226.6,257.9v177.2H55.3c-10-29.9-15.5-62-15.5-95.2c0-28.4,4-55.9,11.3-82H226.6z"/>
			<g>
				<path class="st16" d="M211.2,373c0,7.7-6.2,13.9-13.9,13.9c-7.7,0-13.9-6.2-13.9-13.9c0-7.7,6.2-13.9,13.9-13.9
					C205,359.2,211.2,365.4,211.2,373z"/>
				<path class="st16" d="M172.3,373c0,7.7-6.2,13.9-13.9,13.9c-7.7,0-13.9-6.2-13.9-13.9c0-7.7,6.2-13.9,13.9-13.9
					C166.1,359.2,172.3,365.4,172.3,373z"/>
			</g>
			<g>
				<path class="st16" d="M455.2,271.6h-72.4c-10.3,0-18.7,9.1-18.7,20.2v3.3c0,11.2,8.4,20.2,18.7,20.2h72.4c10.5,0,19-9.2,19-20.5
					v-2.8C474.2,280.8,465.7,271.6,455.2,271.6z"/>
				<path class="st16" d="M449.4,400.7h-54.9c-10.5,0-19.1,9.1-19.1,20.2v1c0,11.2,8.5,20.2,19.1,20.2h54.9
					c10.7,0,19.3-9.2,19.3-20.5v-0.4C468.7,409.9,460,400.7,449.4,400.7z"/>
				<path class="st16" d="M460.3,356.9H382c-11.2,0-20.2,9.1-20.2,20.2v3.3c0,11.2,9.1,20.2,20.2,20.2h78.3
					c11.3,0,20.5-9.2,20.5-20.5v-2.8C480.8,366.1,471.6,356.9,460.3,356.9z"/>
				<path class="st16" d="M466.1,313.1h-94.6c-11.2,0-20.2,9.1-20.2,20.2v3.3c0,11.2,9.1,20.2,20.2,20.2h94.6
					c11.3,0,20.5-9.2,20.5-20.5v-2.8C486.7,322.3,477.5,313.1,466.1,313.1z"/>
			</g>
			<path class="st16" d="M353.1,210.2l-7.4,61.4l-4.5,22.1c-2.9,14.2-10,27.1-20.5,37.1l-0.4,0.4c-13.2,12.6-30.7,19.6-48.9,19.6
				h-9.8v-28.5c0-8.7,2.2-16.8,6-23.9l66.2-155.7l2.4,1C362.5,154.5,364,183.9,353.1,210.2z"/>
		</g>
		<g class="st17">
			<rect x="206.9" y="311.4" class="st18" width="68.7" height="87.6"/>
			<path class="st18" d="M452.8,270v170.6H310.7c-27.9,0-50.7-22.7-50.7-50.7v-69.3c0-8.7,2.2-16.8,6-23.9l0.1-0.2
				c1.4-2.5,2.9-4.8,4.6-7.1c9.2-11.9,23.7-19.5,39.9-19.5H452.8z"/>
			<path class="st18" d="M380.4,419.8h-0.8c-22.1,0-40-17.9-40-40V332c0-22.1,17.9-40,40-40h0.8c22.1,0,40,17.9,40,40v47.9
				C420.4,401.9,402.5,419.8,380.4,419.8z"/>
			<rect x="179" y="274.5" class="st18" width="66.5" height="142.9"/>
			<path class="st18" d="M225,256.2v177.2H53.6c-10-29.9-15.5-62-15.5-95.2c0-28.4,4-55.9,11.3-82H225z"/>
			<g>
				<path class="st18" d="M209.6,371.4c0,7.7-6.2,13.9-13.9,13.9c-7.7,0-13.9-6.2-13.9-13.9c0-7.7,6.2-13.9,13.9-13.9
					C203.4,357.5,209.6,363.7,209.6,371.4z"/>
				<path class="st18" d="M170.6,371.4c0,7.7-6.2,13.9-13.9,13.9c-7.7,0-13.9-6.2-13.9-13.9c0-7.7,6.2-13.9,13.9-13.9
					C164.4,357.5,170.6,363.7,170.6,371.4z"/>
			</g>
			<g>
				<path class="st18" d="M453.5,270h-72.4c-10.3,0-18.7,9.1-18.7,20.2v3.3c0,11.2,8.4,20.2,18.7,20.2h72.4c10.5,0,19-9.2,19-20.5
					v-2.8C472.5,279.2,464,270,453.5,270z"/>
				<path class="st18" d="M447.7,399.1h-54.9c-10.5,0-19.1,9.1-19.1,20.2v1c0,11.2,8.5,20.2,19.1,20.2h54.9
					c10.7,0,19.3-9.2,19.3-20.5v-0.4C467,408.3,458.4,399.1,447.7,399.1z"/>
				<path class="st18" d="M458.6,355.3h-78.3c-11.2,0-20.2,9.1-20.2,20.2v3.3c0,11.2,9.1,20.2,20.2,20.2h78.3
					c11.3,0,20.5-9.2,20.5-20.5v-2.8C479.1,364.5,470,355.3,458.6,355.3z"/>
				<path class="st18" d="M464.5,311.4h-94.6c-11.2,0-20.2,9.1-20.2,20.2v3.3c0,11.2,9.1,20.2,20.2,20.2h94.6
					c11.3,0,20.5-9.2,20.5-20.5V332C485,320.6,475.8,311.4,464.5,311.4z"/>
			</g>
			<path class="st18" d="M351.5,208.6l-7.4,61.4l-4.5,22.1c-2.9,14.2-10,27.1-20.5,37.1l-0.4,0.4c-13.2,12.6-30.7,19.6-48.9,19.6
				h-9.8v-28.5c0-8.7,2.2-16.8,6-23.9L332.2,141l2.4,1C360.9,152.9,362.3,182.3,351.5,208.6z"/>
		</g>
		<g class="st19">
			<rect x="205.3" y="309.8" class="st20" width="68.7" height="87.6"/>
			<path class="st20" d="M451.1,268.3v170.6H309.1c-27.9,0-50.7-22.7-50.7-50.7V319c0-8.7,2.2-16.8,6-23.9l0.1-0.2
				c1.4-2.5,2.9-4.8,4.6-7.1c9.2-11.9,23.7-19.5,39.9-19.5H451.1z"/>
			<path class="st20" d="M378.8,418.2H378c-22.1,0-40-17.9-40-40v-47.9c0-22.1,17.9-40,40-40h0.8c22.1,0,40,17.9,40,40v47.9
				C418.7,400.3,400.8,418.2,378.8,418.2z"/>
			<rect x="177.3" y="272.8" class="st20" width="66.5" height="142.9"/>
			<path class="st20" d="M223.3,254.5v177.2H52c-10-29.9-15.5-62-15.5-95.2c0-28.4,4-55.9,11.3-82H223.3z"/>
			<g>
				<path class="st20" d="M207.9,369.7c0,7.7-6.2,13.9-13.9,13.9c-7.7,0-13.9-6.2-13.9-13.9c0-7.7,6.2-13.9,13.9-13.9
					C201.7,355.8,207.9,362.1,207.9,369.7z"/>
				<path class="st20" d="M169,369.7c0,7.7-6.2,13.9-13.9,13.9c-7.7,0-13.9-6.2-13.9-13.9c0-7.7,6.2-13.9,13.9-13.9
					C162.7,355.8,169,362.1,169,369.7z"/>
			</g>
			<g>
				<path class="st20" d="M451.9,268.3h-72.4c-10.3,0-18.7,9.1-18.7,20.2v3.3c0,11.2,8.4,20.2,18.7,20.2h72.4c10.5,0,19-9.2,19-20.5
					v-2.8C470.9,277.5,462.4,268.3,451.9,268.3z"/>
				<path class="st20" d="M446,397.4h-54.9c-10.5,0-19.1,9.1-19.1,20.2v1c0,11.2,8.5,20.2,19.1,20.2H446c10.7,0,19.3-9.2,19.3-20.5
					V418C465.4,406.6,456.7,397.4,446,397.4z"/>
				<path class="st20" d="M457,353.6h-78.3c-11.2,0-20.2,9.1-20.2,20.2v3.3c0,11.2,9.1,20.2,20.2,20.2H457
					c11.3,0,20.5-9.2,20.5-20.5v-2.8C477.5,362.8,468.3,353.6,457,353.6z"/>
				<path class="st20" d="M462.8,309.8h-94.6c-11.2,0-20.2,9.1-20.2,20.2v3.3c0,11.2,9.1,20.2,20.2,20.2h94.6
					c11.3,0,20.5-9.2,20.5-20.5v-2.8C483.3,319,474.1,309.8,462.8,309.8z"/>
			</g>
			<path class="st20" d="M349.8,206.9l-7.4,61.4l-4.5,22.1c-2.9,14.2-10,27.1-20.5,37.1l-0.4,0.4c-13.2,12.6-30.7,19.6-48.9,19.6
				h-9.8V319c0-8.7,2.2-16.8,6-23.9l66.2-155.7l2.4,1C359.2,151.2,360.7,180.6,349.8,206.9z"/>
		</g>
		<g class="st21">
			<rect x="203.6" y="308.1" class="st22" width="68.7" height="87.6"/>
			<path class="st22" d="M449.5,266.6v170.6H307.4c-27.9,0-50.7-22.7-50.7-50.7v-69.3c0-8.7,2.2-16.8,6-23.9l0.1-0.2
				c1.4-2.5,2.9-4.8,4.6-7.1c9.2-11.9,23.7-19.5,39.9-19.5H449.5z"/>
			<path class="st22" d="M377.1,416.5h-0.8c-22.1,0-40-17.9-40-40v-47.9c0-22.1,17.9-40,40-40h0.8c22.1,0,40,17.9,40,40v47.9
				C417.1,398.6,399.2,416.5,377.1,416.5z"/>
			<rect x="175.7" y="271.2" class="st22" width="66.5" height="142.9"/>
			<path class="st22" d="M221.6,252.9v177.2H50.3c-10-29.9-15.5-62-15.5-95.2c0-28.4,4-55.9,11.3-82H221.6z"/>
			<g>
				<path class="st22" d="M206.2,368.1c0,7.7-6.2,13.9-13.9,13.9c-7.7,0-13.9-6.2-13.9-13.9c0-7.7,6.2-13.9,13.9-13.9
					C200,354.2,206.2,360.4,206.2,368.1z"/>
				<path class="st22" d="M167.3,368.1c0,7.7-6.2,13.9-13.9,13.9c-7.7,0-13.9-6.2-13.9-13.9c0-7.7,6.2-13.9,13.9-13.9
					C161.1,354.2,167.3,360.4,167.3,368.1z"/>
			</g>
			<g>
				<path class="st22" d="M450.2,266.7h-72.4c-10.3,0-18.7,9.1-18.7,20.2v3.3c0,11.2,8.4,20.2,18.7,20.2h72.4c10.5,0,19-9.2,19-20.5
					v-2.8C469.2,275.8,460.7,266.7,450.2,266.7z"/>
				<path class="st22" d="M444.4,395.8h-54.9c-10.5,0-19.1,9.1-19.1,20.2v1c0,11.2,8.5,20.2,19.1,20.2h54.9
					c10.7,0,19.3-9.2,19.3-20.5v-0.4C463.7,405,455.1,395.8,444.4,395.8z"/>
				<path class="st22" d="M455.3,351.9H377c-11.2,0-20.2,9.1-20.2,20.2v3.3c0,11.2,9.1,20.2,20.2,20.2h78.3
					c11.3,0,20.5-9.2,20.5-20.5v-2.8C475.8,361.1,466.6,351.9,455.3,351.9z"/>
				<path class="st22" d="M461.1,308.1h-94.6c-11.2,0-20.2,9.1-20.2,20.2v3.3c0,11.2,9.1,20.2,20.2,20.2h94.6
					c11.3,0,20.5-9.2,20.5-20.5v-2.8C481.7,317.3,472.5,308.1,461.1,308.1z"/>
			</g>
			<path class="st22" d="M348.2,205.2l-7.4,61.4l-4.5,22.1c-2.9,14.2-10,27.1-20.5,37.1l-0.4,0.4c-13.2,12.6-30.7,19.6-48.9,19.6
				h-9.8v-28.5c0-8.7,2.2-16.8,6-23.9l66.2-155.7l2.4,1C357.6,149.5,359,178.9,348.2,205.2z"/>
		</g>
		<g class="st23">
			<rect x="201.9" y="306.5" class="st24" width="68.7" height="87.6"/>
			<path class="st24" d="M447.8,265v170.6H305.8c-27.9,0-50.7-22.7-50.7-50.7v-69.3c0-8.7,2.2-16.8,6-23.9l0.1-0.2
				c1.4-2.5,2.9-4.8,4.6-7.1c9.2-11.9,23.7-19.5,39.9-19.5H447.8z"/>
			<path class="st24" d="M375.5,414.8h-0.8c-22.1,0-40-17.9-40-40V327c0-22.1,17.9-40,40-40h0.8c22.1,0,40,17.9,40,40v47.9
				C415.4,396.9,397.5,414.8,375.5,414.8z"/>
			<rect x="174" y="269.5" class="st24" width="66.5" height="142.9"/>
			<path class="st24" d="M220,251.2v177.2H48.7c-10-29.9-15.5-62-15.5-95.2c0-28.4,4-55.9,11.3-82H220z"/>
			<g>
				<path class="st24" d="M204.6,366.4c0,7.7-6.2,13.9-13.9,13.9c-7.7,0-13.9-6.2-13.9-13.9c0-7.7,6.2-13.9,13.9-13.9
					C198.4,352.5,204.6,358.7,204.6,366.4z"/>
				<path class="st24" d="M165.6,366.4c0,7.7-6.2,13.9-13.9,13.9c-7.7,0-13.9-6.2-13.9-13.9c0-7.7,6.2-13.9,13.9-13.9
					C159.4,352.5,165.6,358.7,165.6,366.4z"/>
			</g>
			<g>
				<path class="st24" d="M448.6,265h-72.4c-10.3,0-18.7,9.1-18.7,20.2v3.3c0,11.2,8.4,20.2,18.7,20.2h72.4c10.5,0,19-9.2,19-20.5
					v-2.8C467.5,274.2,459,265,448.6,265z"/>
				<path class="st24" d="M442.7,394.1h-54.9c-10.5,0-19.1,9.1-19.1,20.2v1c0,11.2,8.5,20.2,19.1,20.2h54.9
					c10.7,0,19.3-9.2,19.3-20.5v-0.4C462.1,403.3,453.4,394.1,442.7,394.1z"/>
				<path class="st24" d="M453.6,350.3h-78.3c-11.2,0-20.2,9.1-20.2,20.2v3.3c0,11.2,9.1,20.2,20.2,20.2h78.3
					c11.3,0,20.5-9.2,20.5-20.5v-2.8C474.2,359.5,465,350.3,453.6,350.3z"/>
				<path class="st24" d="M459.5,306.5h-94.6c-11.2,0-20.2,9.1-20.2,20.2v3.3c0,11.2,9.1,20.2,20.2,20.2h94.6
					c11.3,0,20.5-9.2,20.5-20.5V327C480,315.7,470.8,306.5,459.5,306.5z"/>
			</g>
			<path class="st24" d="M346.5,203.6l-7.4,61.4l-4.5,22.1c-2.9,14.2-10,27.1-20.5,37.1l-0.4,0.4c-13.2,12.6-30.7,19.6-48.9,19.6
				h-9.8v-28.5c0-8.7,2.2-16.8,6-23.9L327.2,136l2.4,1C355.9,147.9,357.4,177.3,346.5,203.6z"/>
		</g>
		<g class="st25">
			<rect x="200.3" y="304.8" class="st26" width="68.7" height="87.6"/>
			<path class="st26" d="M446.2,263.3v170.6H304.1c-27.9,0-50.7-22.7-50.7-50.7V314c0-8.7,2.2-16.8,6-23.9l0.1-0.2
				c1.4-2.5,2.9-4.8,4.6-7.1c9.2-11.9,23.7-19.5,39.9-19.5H446.2z"/>
			<path class="st26" d="M373.8,413.2H373c-22.1,0-40-17.9-40-40v-47.9c0-22.1,17.9-40,40-40h0.8c22.1,0,40,17.9,40,40v47.9
				C413.8,395.3,395.9,413.2,373.8,413.2z"/>
			<rect x="172.4" y="267.8" class="st26" width="66.5" height="142.9"/>
			<path class="st26" d="M218.3,249.6v177.2H47c-10-29.9-15.5-62-15.5-95.2c0-28.4,4-55.9,11.3-82H218.3z"/>
			<g>
				<path class="st26" d="M202.9,364.8c0,7.7-6.2,13.9-13.9,13.9c-7.7,0-13.9-6.2-13.9-13.9c0-7.7,6.2-13.9,13.9-13.9
					C196.7,350.9,202.9,357.1,202.9,364.8z"/>
				<path class="st26" d="M164,364.8c0,7.7-6.2,13.9-13.9,13.9c-7.7,0-13.9-6.2-13.9-13.9c0-7.7,6.2-13.9,13.9-13.9
					C157.8,350.9,164,357.1,164,364.8z"/>
			</g>
			<g>
				<path class="st26" d="M446.9,263.3h-72.4c-10.3,0-18.7,9.1-18.7,20.2v3.3c0,11.2,8.4,20.2,18.7,20.2h72.4c10.5,0,19-9.2,19-20.5
					v-2.8C465.9,272.5,457.4,263.3,446.9,263.3z"/>
				<path class="st26" d="M441.1,392.5h-54.9c-10.5,0-19.1,9.1-19.1,20.2v1c0,11.2,8.5,20.2,19.1,20.2h54.9
					c10.7,0,19.3-9.2,19.3-20.5V413C460.4,401.6,451.7,392.5,441.1,392.5z"/>
				<path class="st26" d="M452,348.6h-78.3c-11.2,0-20.2,9.1-20.2,20.2v3.3c0,11.2,9.1,20.2,20.2,20.2H452
					c11.3,0,20.5-9.2,20.5-20.5v-2.8C472.5,357.8,463.3,348.6,452,348.6z"/>
				<path class="st26" d="M457.8,304.8h-94.6c-11.2,0-20.2,9.1-20.2,20.2v3.3c0,11.2,9.1,20.2,20.2,20.2h94.6
					c11.3,0,20.5-9.2,20.5-20.5v-2.8C478.4,314,469.2,304.8,457.8,304.8z"/>
			</g>
			<path class="st26" d="M344.8,201.9l-7.4,61.4l-4.5,22.1c-2.9,14.2-10,27.1-20.5,37.1l-0.4,0.4c-13.2,12.6-30.7,19.6-48.9,19.6
				h-9.8V314c0-8.7,2.2-16.8,6-23.9l66.2-155.7l2.4,1C354.2,146.2,355.7,175.6,344.8,201.9z"/>
		</g>
		<g class="st27">
			<rect x="198.6" y="303.1" class="st28" width="68.7" height="87.6"/>
			<path class="st28" d="M444.5,261.7v170.6H302.4c-27.9,0-50.7-22.7-50.7-50.7v-69.3c0-8.7,2.2-16.8,6-23.9l0.1-0.2
				c1.4-2.5,2.9-4.8,4.6-7.1c9.2-11.9,23.7-19.5,39.9-19.5H444.5z"/>
			<path class="st28" d="M372.1,411.5h-0.8c-22.1,0-40-17.9-40-40v-47.9c0-22.1,17.9-40,40-40h0.8c22.1,0,40,17.9,40,40v47.9
				C412.1,393.6,394.2,411.5,372.1,411.5z"/>
			<rect x="170.7" y="266.2" class="st28" width="66.5" height="142.9"/>
			<path class="st28" d="M216.7,247.9v177.2H45.3c-10-29.9-15.5-62-15.5-95.2c0-28.4,4-55.9,11.3-82H216.7z"/>
			<g>
				<path class="st28" d="M201.3,363.1c0,7.7-6.2,13.9-13.9,13.9c-7.7,0-13.9-6.2-13.9-13.9c0-7.7,6.2-13.9,13.9-13.9
					C195.1,349.2,201.3,355.4,201.3,363.1z"/>
				<path class="st28" d="M162.3,363.1c0,7.7-6.2,13.9-13.9,13.9c-7.7,0-13.9-6.2-13.9-13.9c0-7.7,6.2-13.9,13.9-13.9
					C156.1,349.2,162.3,355.4,162.3,363.1z"/>
			</g>
			<g>
				<path class="st28" d="M445.2,261.7h-72.4c-10.3,0-18.7,9.1-18.7,20.2v3.3c0,11.2,8.4,20.2,18.7,20.2h72.4c10.5,0,19-9.2,19-20.5
					v-2.8C464.2,270.9,455.7,261.7,445.2,261.7z"/>
				<path class="st28" d="M439.4,390.8h-54.9c-10.5,0-19.1,9.1-19.1,20.2v1c0,11.2,8.5,20.2,19.1,20.2h54.9
					c10.7,0,19.3-9.2,19.3-20.5v-0.4C458.7,400,450.1,390.8,439.4,390.8z"/>
				<path class="st28" d="M450.3,347h-78.3c-11.2,0-20.2,9.1-20.2,20.2v3.3c0,11.2,9.1,20.2,20.2,20.2h78.3
					c11.3,0,20.5-9.2,20.5-20.5v-2.8C470.9,356.2,461.7,347,450.3,347z"/>
				<path class="st28" d="M456.2,303.1h-94.6c-11.2,0-20.2,9.1-20.2,20.2v3.3c0,11.2,9.1,20.2,20.2,20.2h94.6
					c11.3,0,20.5-9.2,20.5-20.5v-2.8C476.7,312.3,467.5,303.1,456.2,303.1z"/>
			</g>
			<path class="st28" d="M343.2,200.3l-7.4,61.4l-4.5,22.1c-2.9,14.2-10,27.1-20.5,37.1l-0.4,0.4c-13.2,12.6-30.7,19.6-48.9,19.6
				h-9.8v-28.5c0-8.7,2.2-16.8,6-23.9l66.2-155.7l2.4,1C352.6,144.6,354,174,343.2,200.3z"/>
		</g>
		<g class="st29">
			<rect x="197" y="301.5" class="st30" width="68.7" height="87.6"/>
			<path class="st30" d="M442.8,260v170.6H300.8c-27.9,0-50.7-22.7-50.7-50.7v-69.3c0-8.7,2.2-16.8,6-23.9l0.1-0.2
				c1.4-2.5,2.9-4.8,4.6-7.1c9.2-11.9,23.7-19.5,39.9-19.5H442.8z"/>
			<path class="st30" d="M370.5,409.9h-0.8c-22.1,0-40-17.9-40-40V322c0-22.1,17.9-40,40-40h0.8c22.1,0,40,17.9,40,40v47.9
				C410.4,392,392.6,409.9,370.5,409.9z"/>
			<rect x="169" y="264.5" class="st30" width="66.5" height="142.9"/>
			<path class="st30" d="M215,246.2v177.2H43.7c-10-29.9-15.5-62-15.5-95.2c0-28.4,4-55.9,11.3-82H215z"/>
			<g>
				<path class="st30" d="M199.6,361.4c0,7.7-6.2,13.9-13.9,13.9c-7.7,0-13.9-6.2-13.9-13.9c0-7.7,6.2-13.9,13.9-13.9
					C193.4,347.5,199.6,353.8,199.6,361.4z"/>
				<path class="st30" d="M160.7,361.4c0,7.7-6.2,13.9-13.9,13.9c-7.7,0-13.9-6.2-13.9-13.9c0-7.7,6.2-13.9,13.9-13.9
					C154.4,347.5,160.7,353.8,160.7,361.4z"/>
			</g>
			<g>
				<path class="st30" d="M443.6,260h-72.4c-10.3,0-18.7,9.1-18.7,20.2v3.3c0,11.2,8.4,20.2,18.7,20.2h72.4c10.5,0,19-9.2,19-20.5
					v-2.8C462.6,269.2,454.1,260,443.6,260z"/>
				<path class="st30" d="M437.7,389.1h-54.9c-10.5,0-19.1,9.1-19.1,20.2v1c0,11.2,8.5,20.2,19.1,20.2h54.9
					c10.7,0,19.3-9.2,19.3-20.5v-0.4C457.1,398.3,448.4,389.1,437.7,389.1z"/>
				<path class="st30" d="M448.7,345.3h-78.3c-11.2,0-20.2,9.1-20.2,20.2v3.3c0,11.2,9.1,20.2,20.2,20.2h78.3
					c11.3,0,20.5-9.2,20.5-20.5v-2.8C469.2,354.5,460,345.3,448.7,345.3z"/>
				<path class="st30" d="M454.5,301.5h-94.6c-11.2,0-20.2,9.1-20.2,20.2v3.3c0,11.2,9.1,20.2,20.2,20.2h94.6
					c11.3,0,20.5-9.2,20.5-20.5V322C475,310.7,465.8,301.5,454.5,301.5z"/>
			</g>
			<path class="st30" d="M341.5,198.6l-7.4,61.4l-4.5,22.1c-2.9,14.2-10,27.1-20.5,37.1l-0.4,0.4c-13.2,12.6-30.7,19.6-48.9,19.6
				h-9.8v-28.5c0-8.7,2.2-16.8,6-23.9L322.2,131l2.4,1C350.9,142.9,352.4,172.3,341.5,198.6z"/>
		</g>
		<g class="st31">
			<rect x="195.3" y="299.8" class="st32" width="68.7" height="87.6"/>
			<path class="st32" d="M441.2,258.3v170.6H299.1c-27.9,0-50.7-22.7-50.7-50.7V309c0-8.7,2.2-16.8,6-23.9l0.1-0.2
				c1.4-2.5,2.9-4.8,4.6-7.1c9.2-11.9,23.7-19.5,39.9-19.5H441.2z"/>
			<path class="st32" d="M368.8,408.2H368c-22.1,0-40-17.9-40-40v-47.9c0-22.1,17.9-40,40-40h0.8c22.1,0,40,17.9,40,40v47.9
				C408.8,390.3,390.9,408.2,368.8,408.2z"/>
			<rect x="167.4" y="262.9" class="st32" width="66.5" height="142.9"/>
			<path class="st32" d="M213.3,244.6v177.2H42c-10-29.9-15.5-62-15.5-95.2c0-28.4,4-55.9,11.3-82H213.3z"/>
			<g>
				<path class="st32" d="M198,359.8c0,7.7-6.2,13.9-13.9,13.9c-7.7,0-13.9-6.2-13.9-13.9c0-7.7,6.2-13.9,13.9-13.9
					C191.7,345.9,198,352.1,198,359.8z"/>
				<path class="st32" d="M159,359.8c0,7.7-6.2,13.9-13.9,13.9c-7.7,0-13.9-6.2-13.9-13.9c0-7.7,6.2-13.9,13.9-13.9
					C152.8,345.9,159,352.1,159,359.8z"/>
			</g>
			<g>
				<path class="st32" d="M441.9,258.4h-72.4c-10.3,0-18.7,9.1-18.7,20.2v3.3c0,11.2,8.4,20.2,18.7,20.2h72.4c10.5,0,19-9.2,19-20.5
					v-2.8C460.9,267.5,452.4,258.4,441.9,258.4z"/>
				<path class="st32" d="M436.1,387.5h-54.9c-10.5,0-19.1,9.1-19.1,20.2v1c0,11.2,8.5,20.2,19.1,20.2h54.9
					c10.7,0,19.3-9.2,19.3-20.5V408C455.4,396.7,446.8,387.5,436.1,387.5z"/>
				<path class="st32" d="M447,343.6h-78.3c-11.2,0-20.2,9.1-20.2,20.2v3.3c0,11.2,9.1,20.2,20.2,20.2H447
					c11.3,0,20.5-9.2,20.5-20.5v-2.8C467.5,352.8,458.3,343.6,447,343.6z"/>
				<path class="st32" d="M452.8,299.8h-94.6c-11.2,0-20.2,9.1-20.2,20.2v3.3c0,11.2,9.1,20.2,20.2,20.2h94.6
					c11.3,0,20.5-9.2,20.5-20.5v-2.8C473.4,309,464.2,299.8,452.8,299.8z"/>
			</g>
			<path class="st32" d="M339.9,196.9l-7.4,61.4l-4.5,22.1c-2.9,14.2-10,27.1-20.5,37.1l-0.4,0.4c-13.2,12.6-30.7,19.6-48.9,19.6
				h-9.8V309c0-8.7,2.2-16.8,6-23.9l66.2-155.7l2.4,1C349.3,141.2,350.7,170.7,339.9,196.9z"/>
		</g>
		<g class="st33">
			<rect x="193.7" y="298.2" class="st34" width="68.7" height="87.6"/>
			<path class="st34" d="M439.5,256.7v170.6H297.5c-27.9,0-50.7-22.7-50.7-50.7v-69.3c0-8.7,2.2-16.8,6-23.9l0.1-0.2
				c1.4-2.5,2.9-4.8,4.6-7.1c9.2-11.9,23.7-19.5,39.9-19.5H439.5z"/>
			<path class="st34" d="M367.2,406.5h-0.8c-22.1,0-40-17.9-40-40v-47.9c0-22.1,17.9-40,40-40h0.8c22.1,0,40,17.9,40,40v47.9
				C407.1,388.7,389.2,406.5,367.2,406.5z"/>
			<rect x="165.7" y="261.2" class="st34" width="66.5" height="142.9"/>
			<path class="st34" d="M211.7,242.9v177.2H40.4c-10-29.9-15.5-62-15.5-95.2c0-28.4,4-55.9,11.3-82H211.7z"/>
			<g>
				<path class="st34" d="M196.3,358.1c0,7.7-6.2,13.9-13.9,13.9c-7.7,0-13.9-6.2-13.9-13.9c0-7.7,6.2-13.9,13.9-13.9
					C190.1,344.2,196.3,350.4,196.3,358.1z"/>
				<path class="st34" d="M157.3,358.1c0,7.7-6.2,13.9-13.9,13.9c-7.7,0-13.9-6.2-13.9-13.9c0-7.7,6.2-13.9,13.9-13.9
					C151.1,344.2,157.3,350.4,157.3,358.1z"/>
			</g>
			<g>
				<path class="st34" d="M440.3,256.7h-72.4c-10.3,0-18.7,9.1-18.7,20.2v3.3c0,11.2,8.4,20.2,18.7,20.2h72.4c10.5,0,19-9.2,19-20.5
					v-2.8C459.2,265.9,450.7,256.7,440.3,256.7z"/>
				<path class="st34" d="M434.4,385.8h-54.9c-10.5,0-19.1,9.1-19.1,20.2v1c0,11.2,8.5,20.2,19.1,20.2h54.9
					c10.7,0,19.3-9.2,19.3-20.5v-0.4C453.8,395,445.1,385.8,434.4,385.8z"/>
				<path class="st34" d="M445.3,342h-78.3c-11.2,0-20.2,9.1-20.2,20.2v3.3c0,11.2,9.1,20.2,20.2,20.2h78.3
					c11.3,0,20.5-9.2,20.5-20.5v-2.8C465.9,351.2,456.7,342,445.3,342z"/>
				<path class="st34" d="M451.2,298.2h-94.6c-11.2,0-20.2,9.1-20.2,20.2v3.3c0,11.2,9.1,20.2,20.2,20.2h94.6
					c11.3,0,20.5-9.2,20.5-20.5v-2.8C471.7,307.4,462.5,298.2,451.2,298.2z"/>
			</g>
			<path class="st34" d="M338.2,195.3l-7.4,61.4l-4.5,22.1c-2.9,14.2-10,27.1-20.5,37.1l-0.4,0.4c-13.2,12.6-30.7,19.6-48.9,19.6
				h-9.8v-28.5c0-8.7,2.2-16.8,6-23.9l66.2-155.7l2.4,1C347.6,139.6,349.1,169,338.2,195.3z"/>
		</g>
		<g class="st35">
			<rect x="192" y="296.5" class="st36" width="68.7" height="87.6"/>
			<path class="st36" d="M437.9,255v170.6H295.8c-27.9,0-50.7-22.7-50.7-50.7v-69.3c0-8.7,2.2-16.8,6-23.9l0.1-0.2
				c1.4-2.5,2.9-4.8,4.6-7.1c9.2-11.9,23.7-19.5,39.9-19.5H437.9z"/>
			<path class="st36" d="M365.5,404.9h-0.8c-22.1,0-40-17.9-40-40V317c0-22.1,17.9-40,40-40h0.8c22.1,0,40,17.9,40,40v47.9
				C405.5,387,387.6,404.9,365.5,404.9z"/>
			<rect x="164.1" y="259.5" class="st36" width="66.5" height="142.9"/>
			<path class="st36" d="M210,241.3v177.2H38.7c-10-29.9-15.5-62-15.5-95.3c0-28.4,4-55.9,11.3-82H210z"/>
			<g>
				<path class="st36" d="M194.6,356.5c0,7.7-6.2,13.9-13.9,13.9c-7.7,0-13.9-6.2-13.9-13.9c0-7.7,6.2-13.9,13.9-13.9
					C188.4,342.6,194.6,348.8,194.6,356.5z"/>
				<path class="st36" d="M155.7,356.5c0,7.7-6.2,13.9-13.9,13.9c-7.7,0-13.9-6.2-13.9-13.9c0-7.7,6.2-13.9,13.9-13.9
					C149.5,342.6,155.7,348.8,155.7,356.5z"/>
			</g>
			<g>
				<path class="st36" d="M438.6,255h-72.4c-10.3,0-18.7,9.1-18.7,20.2v3.3c0,11.2,8.4,20.2,18.7,20.2h72.4c10.5,0,19-9.2,19-20.5
					v-2.8C457.6,264.2,449.1,255,438.6,255z"/>
				<path class="st36" d="M432.8,384.2h-54.9c-10.5,0-19.1,9.1-19.1,20.2v1c0,11.2,8.5,20.2,19.1,20.2h54.9
					c10.7,0,19.3-9.2,19.3-20.5v-0.4C452.1,393.3,443.4,384.2,432.8,384.2z"/>
				<path class="st36" d="M443.7,340.3h-78.3c-11.2,0-20.2,9.1-20.2,20.2v3.3c0,11.2,9.1,20.2,20.2,20.2h78.3
					c11.3,0,20.5-9.2,20.5-20.5v-2.8C464.2,349.5,455,340.3,443.7,340.3z"/>
				<path class="st36" d="M449.5,296.5h-94.6c-11.2,0-20.2,9.1-20.2,20.2v3.3c0,11.2,9.1,20.2,20.2,20.2h94.6
					c11.3,0,20.5-9.2,20.5-20.5V317C470.1,305.7,460.9,296.5,449.5,296.5z"/>
			</g>
			<path class="st36" d="M336.5,193.6l-7.4,61.4l-4.5,22.1c-2.9,14.2-10,27.1-20.5,37.1l-0.4,0.4c-13.2,12.6-30.7,19.6-48.9,19.6
				h-9.8v-28.5c0-8.7,2.2-16.8,6-23.9l66.2-155.7l2.4,1C345.9,137.9,347.4,167.3,336.5,193.6z"/>
		</g>
		<g class="st37">
			<rect x="190.3" y="294.9" class="st38" width="68.7" height="87.6"/>
			<path class="st38" d="M436.2,253.4V424H294.1c-27.9,0-50.7-22.7-50.7-50.7V304c0-8.7,2.2-16.8,6-23.9l0.1-0.2
				c1.4-2.5,2.9-4.8,4.6-7.1c9.2-11.9,23.7-19.5,39.9-19.5H436.2z"/>
			<path class="st38" d="M363.8,403.2H363c-22.1,0-40-17.9-40-40v-47.9c0-22.1,17.9-40,40-40h0.8c22.1,0,40,17.9,40,40v47.9
				C403.8,385.3,385.9,403.2,363.8,403.2z"/>
			<rect x="162.4" y="257.9" class="st38" width="66.5" height="142.9"/>
			<path class="st38" d="M208.4,239.6v177.2H37.1c-10-29.9-15.5-62-15.5-95.3c0-28.4,4-55.9,11.3-82H208.4z"/>
			<g>
				<path class="st38" d="M193,354.8c0,7.7-6.2,13.9-13.9,13.9c-7.7,0-13.9-6.2-13.9-13.9c0-7.7,6.2-13.9,13.9-13.9
					C186.8,340.9,193,347.1,193,354.8z"/>
				<path class="st38" d="M154,354.8c0,7.7-6.2,13.9-13.9,13.9c-7.7,0-13.9-6.2-13.9-13.9c0-7.7,6.2-13.9,13.9-13.9
					C147.8,340.9,154,347.1,154,354.8z"/>
			</g>
			<g>
				<path class="st38" d="M437,253.4h-72.4c-10.3,0-18.7,9.1-18.7,20.2v3.3c0,11.2,8.4,20.2,18.7,20.2H437c10.5,0,19-9.2,19-20.5
					v-2.8C455.9,262.6,447.4,253.4,437,253.4z"/>
				<path class="st38" d="M431.1,382.5h-54.9c-10.5,0-19.1,9.1-19.1,20.2v1c0,11.2,8.5,20.2,19.1,20.2h54.9
					c10.7,0,19.3-9.2,19.3-20.5V403C450.4,391.7,441.8,382.5,431.1,382.5z"/>
				<path class="st38" d="M442,338.7h-78.3c-11.2,0-20.2,9.1-20.2,20.2v3.3c0,11.2,9.1,20.2,20.2,20.2H442
					c11.3,0,20.5-9.2,20.5-20.5v-2.8C462.6,347.9,453.4,338.7,442,338.7z"/>
				<path class="st38" d="M447.9,294.9h-94.6c-11.2,0-20.2,9.1-20.2,20.2v3.3c0,11.2,9.1,20.2,20.2,20.2h94.6
					c11.3,0,20.5-9.2,20.5-20.5v-2.8C468.4,304,459.2,294.9,447.9,294.9z"/>
			</g>
			<path class="st38" d="M334.9,192l-7.4,61.4l-4.5,22.1c-2.9,14.2-10,27.1-20.5,37.1l-0.4,0.4c-13.2,12.6-30.7,19.6-48.9,19.6h-9.8
				V304c0-8.7,2.2-16.8,6-23.9l66.2-155.7l2.4,1C344.3,136.3,345.7,165.7,334.9,192z"/>
		</g>
		<g class="st39">
			<rect x="188.7" y="293.2" class="st40" width="68.7" height="87.6"/>
			<path class="st40" d="M434.6,251.7v170.6H292.5c-27.9,0-50.7-22.7-50.7-50.7v-69.3c0-8.7,2.2-16.8,6-23.9l0.1-0.2
				c1.4-2.5,2.9-4.8,4.6-7.1c9.2-11.9,23.7-19.5,39.9-19.5H434.6z"/>
			<path class="st40" d="M362.2,401.6h-0.8c-22.1,0-40-17.9-40-40v-47.9c0-22.1,17.9-40,40-40h0.8c22.1,0,40,17.9,40,40v47.9
				C402.1,383.7,384.3,401.6,362.2,401.6z"/>
			<rect x="160.7" y="256.2" class="st40" width="66.5" height="142.9"/>
			<path class="st40" d="M206.7,238v177.2H35.4c-10-29.9-15.5-62-15.5-95.3c0-28.4,4-55.9,11.3-82H206.7z"/>
			<g>
				<path class="st40" d="M191.3,353.1c0,7.7-6.2,13.9-13.9,13.9c-7.7,0-13.9-6.2-13.9-13.9c0-7.7,6.2-13.9,13.9-13.9
					C185.1,339.3,191.3,345.5,191.3,353.1z"/>
				<path class="st40" d="M152.4,353.1c0,7.7-6.2,13.9-13.9,13.9c-7.7,0-13.9-6.2-13.9-13.9c0-7.7,6.2-13.9,13.9-13.9
					C146.2,339.3,152.4,345.5,152.4,353.1z"/>
			</g>
			<g>
				<path class="st40" d="M435.3,251.7h-72.4c-10.3,0-18.7,9.1-18.7,20.2v3.3c0,11.2,8.4,20.2,18.7,20.2h72.4c10.5,0,19-9.2,19-20.5
					v-2.8C454.3,260.9,445.8,251.7,435.3,251.7z"/>
				<path class="st40" d="M429.5,380.8h-54.9c-10.5,0-19.1,9.1-19.1,20.2v1c0,11.2,8.5,20.2,19.1,20.2h54.9
					c10.7,0,19.3-9.2,19.3-20.5v-0.4C448.8,390,440.1,380.8,429.5,380.8z"/>
				<path class="st40" d="M440.4,337h-78.3c-11.2,0-20.2,9.1-20.2,20.2v3.3c0,11.2,9.1,20.2,20.2,20.2h78.3
					c11.3,0,20.5-9.2,20.5-20.5v-2.8C460.9,346.2,451.7,337,440.4,337z"/>
				<path class="st40" d="M446.2,293.2h-94.6c-11.2,0-20.2,9.1-20.2,20.2v3.3c0,11.2,9.1,20.2,20.2,20.2h94.6
					c11.3,0,20.5-9.2,20.5-20.5v-2.8C466.7,302.4,457.5,293.2,446.2,293.2z"/>
			</g>
			<path class="st40" d="M333.2,190.3l-7.4,61.4l-4.5,22.1c-2.9,14.2-10,27.1-20.5,37.1l-0.4,0.4c-13.2,12.6-30.7,19.6-48.9,19.6
				h-9.8v-28.5c0-8.7,2.2-16.8,6-23.9l66.2-155.7l2.4,1C342.6,134.6,344.1,164,333.2,190.3z"/>
		</g>
		<g class="st41">
			<rect x="187" y="291.5" class="st42" width="68.7" height="87.6"/>
			<path class="st42" d="M432.9,250v170.6H290.8c-27.9,0-50.7-22.7-50.7-50.7v-69.3c0-8.7,2.2-16.8,6-23.9l0.1-0.2
				c1.4-2.5,2.9-4.8,4.6-7.1c9.2-11.9,23.7-19.5,39.9-19.5H432.9z"/>
			<path class="st42" d="M360.5,399.9h-0.8c-22.1,0-40-17.9-40-40v-47.9c0-22.1,17.9-40,40-40h0.8c22.1,0,40,17.9,40,40v47.9
				C400.5,382,382.6,399.9,360.5,399.9z"/>
			<rect x="159.1" y="254.6" class="st42" width="66.5" height="142.9"/>
			<path class="st42" d="M205.1,236.3v177.2H33.7c-10-29.9-15.5-62-15.5-95.3c0-28.4,4-55.9,11.3-82H205.1z"/>
			<g>
				<path class="st42" d="M189.7,351.5c0,7.7-6.2,13.9-13.9,13.9c-7.7,0-13.9-6.2-13.9-13.9c0-7.7,6.2-13.9,13.9-13.9
					C183.4,337.6,189.7,343.8,189.7,351.5z"/>
				<path class="st42" d="M150.7,351.5c0,7.7-6.2,13.9-13.9,13.9c-7.7,0-13.9-6.2-13.9-13.9c0-7.7,6.2-13.9,13.9-13.9
					C144.5,337.6,150.7,343.8,150.7,351.5z"/>
			</g>
			<g>
				<path class="st42" d="M433.6,250.1h-72.4c-10.3,0-18.7,9.1-18.7,20.2v3.3c0,11.2,8.4,20.2,18.7,20.2h72.4c10.5,0,19-9.2,19-20.5
					v-2.8C452.6,259.3,444.1,250.1,433.6,250.1z"/>
				<path class="st42" d="M427.8,379.2h-54.9c-10.5,0-19.1,9.1-19.1,20.2v1c0,11.2,8.5,20.2,19.1,20.2h54.9
					c10.7,0,19.3-9.2,19.3-20.5v-0.4C447.1,388.4,438.5,379.2,427.8,379.2z"/>
				<path class="st42" d="M438.7,335.4h-78.3c-11.2,0-20.2,9.1-20.2,20.2v3.3c0,11.2,9.1,20.2,20.2,20.2h78.3
					c11.3,0,20.5-9.2,20.5-20.5v-2.8C459.2,344.5,450,335.4,438.7,335.4z"/>
				<path class="st42" d="M444.6,291.5H350c-11.2,0-20.2,9.1-20.2,20.2v3.3c0,11.2,9.1,20.2,20.2,20.2h94.6
					c11.3,0,20.5-9.2,20.5-20.5v-2.8C465.1,300.7,455.9,291.5,444.6,291.5z"/>
			</g>
			<path class="st42" d="M331.6,188.6l-7.4,61.4l-4.5,22.1c-2.9,14.2-10,27.1-20.5,37.1l-0.4,0.4c-13.2,12.6-30.7,19.6-48.9,19.6
				h-9.8v-28.5c0-8.7,2.2-16.8,6-23.9l66.2-155.7l2.4,1C341,132.9,342.4,162.4,331.6,188.6z"/>
		</g>
		<g class="st43">
			<rect x="185.4" y="289.9" class="st44" width="68.7" height="87.6"/>
			<path class="st44" d="M431.2,248.4V419H289.2c-27.9,0-50.7-22.7-50.7-50.7v-69.3c0-8.7,2.2-16.8,6-23.9l0.1-0.2
				c1.4-2.5,2.9-4.8,4.6-7.1c9.2-11.9,23.7-19.5,39.9-19.5H431.2z"/>
			<path class="st44" d="M358.9,398.3h-0.8c-22.1,0-40-17.9-40-40v-47.9c0-22.1,17.9-40,40-40h0.8c22.1,0,40,17.9,40,40v47.9
				C398.8,380.4,380.9,398.3,358.9,398.3z"/>
			<rect x="157.4" y="252.9" class="st44" width="66.5" height="142.9"/>
			<path class="st44" d="M203.4,234.6v177.2H32.1c-10-29.9-15.5-62-15.5-95.3c0-28.4,4-55.9,11.3-82H203.4z"/>
			<g>
				<path class="st44" d="M188,349.8c0,7.7-6.2,13.9-13.9,13.9c-7.7,0-13.9-6.2-13.9-13.9c0-7.7,6.2-13.9,13.9-13.9
					C181.8,335.9,188,342.2,188,349.8z"/>
				<path class="st44" d="M149.1,349.8c0,7.7-6.2,13.9-13.9,13.9c-7.7,0-13.9-6.2-13.9-13.9c0-7.7,6.2-13.9,13.9-13.9
					C142.8,335.9,149.1,342.2,149.1,349.8z"/>
			</g>
			<g>
				<path class="st44" d="M432,248.4h-72.4c-10.3,0-18.7,9.1-18.7,20.2v3.3c0,11.2,8.4,20.2,18.7,20.2H432c10.5,0,19-9.2,19-20.5
					v-2.8C451,257.6,442.5,248.4,432,248.4z"/>
				<path class="st44" d="M426.1,377.5h-54.9c-10.5,0-19.1,9.1-19.1,20.2v1c0,11.2,8.5,20.2,19.1,20.2h54.9
					c10.7,0,19.3-9.2,19.3-20.5V398C445.5,386.7,436.8,377.5,426.1,377.5z"/>
				<path class="st44" d="M437,333.7h-78.3c-11.2,0-20.2,9.1-20.2,20.2v3.3c0,11.2,9.1,20.2,20.2,20.2H437
					c11.3,0,20.5-9.2,20.5-20.5v-2.8C457.6,342.9,448.4,333.7,437,333.7z"/>
				<path class="st44" d="M442.9,289.9h-94.6c-11.2,0-20.2,9.1-20.2,20.2v3.3c0,11.2,9.1,20.2,20.2,20.2h94.6
					c11.3,0,20.5-9.2,20.5-20.5v-2.8C463.4,299.1,454.2,289.9,442.9,289.9z"/>
			</g>
			<path class="st44" d="M329.9,187l-7.4,61.4l-4.5,22.1c-2.9,14.2-10,27.1-20.5,37.1l-0.4,0.4c-13.2,12.6-30.7,19.6-48.9,19.6h-9.8
				v-28.5c0-8.7,2.2-16.8,6-23.9l66.2-155.7l2.4,1C339.3,131.3,340.8,160.7,329.9,187z"/>
		</g>
		<g class="st45">
			<rect x="183.7" y="288.2" class="st46" width="68.7" height="87.6"/>
			<path class="st46" d="M429.6,246.7v170.6H287.5c-27.9,0-50.7-22.7-50.7-50.7v-69.3c0-8.7,2.2-16.8,6-23.9l0.1-0.2
				c1.4-2.5,2.9-4.8,4.6-7.1c9.2-11.9,23.7-19.5,39.9-19.5H429.6z"/>
			<path class="st46" d="M357.2,396.6h-0.8c-22.1,0-40-17.9-40-40v-47.9c0-22.1,17.9-40,40-40h0.8c22.1,0,40,17.9,40,40v47.9
				C397.2,378.7,379.3,396.6,357.2,396.6z"/>
			<rect x="155.8" y="251.2" class="st46" width="66.5" height="142.9"/>
			<path class="st46" d="M201.7,233v177.2H30.4c-10-29.9-15.5-62-15.5-95.3c0-28.4,4-55.9,11.3-82H201.7z"/>
			<g>
				<path class="st46" d="M186.3,348.2c0,7.7-6.2,13.9-13.9,13.9c-7.7,0-13.9-6.2-13.9-13.9c0-7.7,6.2-13.9,13.9-13.9
					C180.1,334.3,186.3,340.5,186.3,348.2z"/>
				<path class="st46" d="M147.4,348.2c0,7.7-6.2,13.9-13.9,13.9c-7.7,0-13.9-6.2-13.9-13.9c0-7.7,6.2-13.9,13.9-13.9
					C141.2,334.3,147.4,340.5,147.4,348.2z"/>
			</g>
			<g>
				<path class="st46" d="M430.3,246.7h-72.4c-10.3,0-18.7,9.1-18.7,20.2v3.3c0,11.2,8.4,20.2,18.7,20.2h72.4c10.5,0,19-9.2,19-20.5
					v-2.8C449.3,255.9,440.8,246.7,430.3,246.7z"/>
				<path class="st46" d="M424.5,375.9h-54.9c-10.5,0-19.1,9.1-19.1,20.2v1c0,11.2,8.5,20.2,19.1,20.2h54.9
					c10.7,0,19.3-9.2,19.3-20.5v-0.4C443.8,385.1,435.1,375.9,424.5,375.9z"/>
				<path class="st46" d="M435.4,332h-78.3c-11.2,0-20.2,9.1-20.2,20.2v3.3c0,11.2,9.1,20.2,20.2,20.2h78.3
					c11.3,0,20.5-9.2,20.5-20.5v-2.8C455.9,341.2,446.7,332,435.4,332z"/>
				<path class="st46" d="M441.2,288.2h-94.6c-11.2,0-20.2,9.1-20.2,20.2v3.3c0,11.2,9.1,20.2,20.2,20.2h94.6
					c11.3,0,20.5-9.2,20.5-20.5v-2.8C461.8,297.4,452.6,288.2,441.2,288.2z"/>
			</g>
			<path class="st46" d="M328.2,185.3l-7.4,61.4l-4.5,22.1c-2.9,14.2-10,27.1-20.5,37.1l-0.4,0.4c-13.2,12.6-30.7,19.6-48.9,19.6
				h-9.8v-28.5c0-8.7,2.2-16.8,6-23.9L309,117.8l2.4,1C337.6,129.6,339.1,159,328.2,185.3z"/>
		</g>
		<g class="st47">
			<rect x="182" y="286.6" class="st48" width="68.7" height="87.6"/>
			<path class="st48" d="M427.9,245.1v170.6H285.9c-27.9,0-50.7-22.7-50.7-50.7v-69.3c0-8.7,2.2-16.8,6-23.9l0.1-0.2
				c1.4-2.5,2.9-4.8,4.6-7.1c9.2-11.9,23.7-19.5,39.9-19.5H427.9z"/>
			<path class="st48" d="M355.5,394.9h-0.8c-22.1,0-40-17.9-40-40v-47.9c0-22.1,17.9-40,40-40h0.8c22.1,0,40,17.9,40,40V355
				C395.5,377,377.6,394.9,355.5,394.9z"/>
			<rect x="154.1" y="249.6" class="st48" width="66.5" height="142.9"/>
			<path class="st48" d="M200.1,231.3v177.2H28.8c-10-29.9-15.5-62-15.5-95.3c0-28.4,4-55.9,11.3-82H200.1z"/>
			<g>
				<path class="st48" d="M184.7,346.5c0,7.7-6.2,13.9-13.9,13.9c-7.7,0-13.9-6.2-13.9-13.9c0-7.7,6.2-13.9,13.9-13.9
					C178.5,332.6,184.7,338.8,184.7,346.5z"/>
				<path class="st48" d="M145.7,346.5c0,7.7-6.2,13.9-13.9,13.9c-7.7,0-13.9-6.2-13.9-13.9c0-7.7,6.2-13.9,13.9-13.9
					C139.5,332.6,145.7,338.8,145.7,346.5z"/>
			</g>
			<g>
				<path class="st48" d="M428.7,245.1h-72.4c-10.3,0-18.7,9.1-18.7,20.2v3.3c0,11.2,8.4,20.2,18.7,20.2h72.4c10.5,0,19-9.2,19-20.5
					v-2.8C447.6,254.3,439.1,245.1,428.7,245.1z"/>
				<path class="st48" d="M422.8,374.2h-54.9c-10.5,0-19.1,9.1-19.1,20.2v1c0,11.2,8.5,20.2,19.1,20.2h54.9
					c10.7,0,19.3-9.2,19.3-20.5v-0.4C442.1,383.4,433.5,374.2,422.8,374.2z"/>
				<path class="st48" d="M433.7,330.4h-78.3c-11.2,0-20.2,9.1-20.2,20.2v3.3c0,11.2,9.1,20.2,20.2,20.2h78.3
					c11.3,0,20.5-9.2,20.5-20.5v-2.8C454.3,339.6,445.1,330.4,433.7,330.4z"/>
				<path class="st48" d="M439.6,286.6H345c-11.2,0-20.2,9.1-20.2,20.2v3.3c0,11.2,9.1,20.2,20.2,20.2h94.6
					c11.3,0,20.5-9.2,20.5-20.5v-2.8C460.1,295.7,450.9,286.6,439.6,286.6z"/>
			</g>
			<path class="st48" d="M326.6,183.7l-7.4,61.4l-4.5,22.1c-2.9,14.2-10,27.1-20.5,37.1l-0.4,0.4c-13.2,12.6-30.7,19.6-48.9,19.6
				h-9.8v-28.5c0-8.7,2.2-16.8,6-23.9l66.2-155.7l2.4,1C336,128,337.4,157.4,326.6,183.7z"/>
		</g>
		<g class="st49">
			<rect x="180.4" y="284.9" class="st50" width="68.7" height="87.6"/>
			<path class="st50" d="M426.3,243.4V414H284.2c-27.9,0-50.7-22.7-50.7-50.7v-69.3c0-8.7,2.2-16.8,6-23.9l0.1-0.2
				c1.4-2.5,2.9-4.8,4.6-7.1c9.2-11.9,23.7-19.5,39.9-19.5H426.3z"/>
			<path class="st50" d="M353.9,393.3h-0.8c-22.1,0-40-17.9-40-40v-47.9c0-22.1,17.9-40,40-40h0.8c22.1,0,40,17.9,40,40v47.9
				C393.9,375.4,376,393.3,353.9,393.3z"/>
			<rect x="152.4" y="247.9" class="st50" width="66.5" height="142.9"/>
			<path class="st50" d="M198.4,229.7v177.2H27.1c-10-29.9-15.5-62-15.5-95.3c0-28.4,4-55.9,11.3-82H198.4z"/>
			<g>
				<path class="st50" d="M183,344.8c0,7.7-6.2,13.9-13.9,13.9c-7.7,0-13.9-6.2-13.9-13.9c0-7.7,6.2-13.9,13.9-13.9
					C176.8,331,183,337.2,183,344.8z"/>
				<path class="st50" d="M144.1,344.8c0,7.7-6.2,13.9-13.9,13.9c-7.7,0-13.9-6.2-13.9-13.9c0-7.7,6.2-13.9,13.9-13.9
					C137.9,331,144.1,337.2,144.1,344.8z"/>
			</g>
			<g>
				<path class="st50" d="M427,243.4h-72.4c-10.3,0-18.7,9.1-18.7,20.2v3.3c0,11.2,8.4,20.2,18.7,20.2H427c10.5,0,19-9.2,19-20.5
					V264C446,252.6,437.5,243.4,427,243.4z"/>
				<path class="st50" d="M421.2,372.5h-54.9c-10.5,0-19.1,9.1-19.1,20.2v1c0,11.2,8.5,20.2,19.1,20.2h54.9
					c10.7,0,19.3-9.2,19.3-20.5v-0.4C440.5,381.7,431.8,372.5,421.2,372.5z"/>
				<path class="st50" d="M432.1,328.7h-78.3c-11.2,0-20.2,9.1-20.2,20.2v3.3c0,11.2,9.1,20.2,20.2,20.2h78.3
					c11.3,0,20.5-9.2,20.5-20.5v-2.8C452.6,337.9,443.4,328.7,432.1,328.7z"/>
				<path class="st50" d="M437.9,284.9h-94.6c-11.2,0-20.2,9.1-20.2,20.2v3.3c0,11.2,9.1,20.2,20.2,20.2h94.6
					c11.3,0,20.5-9.2,20.5-20.5v-2.8C458.4,294.1,449.3,284.9,437.9,284.9z"/>
			</g>
			<path class="st50" d="M324.9,182l-7.4,61.4l-4.5,22.1c-2.9,14.2-10,27.1-20.5,37.1l-0.4,0.4c-13.2,12.6-30.7,19.6-48.9,19.6h-9.8
				v-28.5c0-8.7,2.2-16.8,6-23.9l66.2-155.7l2.4,1C334.3,126.3,335.8,155.7,324.9,182z"/>
		</g>
		<g class="st51">
			<rect x="178.7" y="283.2" class="st52" width="68.7" height="87.6"/>
			<path class="st52" d="M424.6,241.7v170.6H282.5c-27.9,0-50.7-22.7-50.7-50.7v-69.3c0-8.7,2.2-16.8,6-23.9l0.1-0.2
				c1.4-2.5,2.9-4.8,4.6-7.1c9.2-11.9,23.7-19.5,39.9-19.5H424.6z"/>
			<path class="st52" d="M352.2,391.6h-0.8c-22.1,0-40-17.9-40-40v-47.9c0-22.1,17.9-40,40-40h0.8c22.1,0,40,17.9,40,40v47.9
				C392.2,373.7,374.3,391.6,352.2,391.6z"/>
			<rect x="150.8" y="246.3" class="st52" width="66.5" height="142.9"/>
			<path class="st52" d="M196.8,228v177.2H25.4c-10-29.9-15.5-62-15.5-95.3c0-28.4,4-55.9,11.3-82H196.8z"/>
			<g>
				<path class="st52" d="M181.4,343.2c0,7.7-6.2,13.9-13.9,13.9c-7.7,0-13.9-6.2-13.9-13.9c0-7.7,6.2-13.9,13.9-13.9
					C175.1,329.3,181.4,335.5,181.4,343.2z"/>
				<path class="st52" d="M142.4,343.2c0,7.7-6.2,13.9-13.9,13.9c-7.7,0-13.9-6.2-13.9-13.9c0-7.7,6.2-13.9,13.9-13.9
					C136.2,329.3,142.4,335.5,142.4,343.2z"/>
			</g>
			<g>
				<path class="st52" d="M425.3,241.8H353c-10.3,0-18.7,9.1-18.7,20.2v3.3c0,11.2,8.4,20.2,18.7,20.2h72.4c10.5,0,19-9.2,19-20.5
					v-2.8C444.3,251,435.8,241.8,425.3,241.8z"/>
				<path class="st52" d="M419.5,370.9h-54.9c-10.5,0-19.1,9.1-19.1,20.2v1c0,11.2,8.5,20.2,19.1,20.2h54.9
					c10.7,0,19.3-9.2,19.3-20.5v-0.4C438.8,380.1,430.2,370.9,419.5,370.9z"/>
				<path class="st52" d="M430.4,327.1h-78.3c-11.2,0-20.2,9.1-20.2,20.2v3.3c0,11.2,9.1,20.2,20.2,20.2h78.3
					c11.3,0,20.5-9.2,20.5-20.5v-2.8C450.9,336.2,441.7,327.1,430.4,327.1z"/>
				<path class="st52" d="M436.3,283.2h-94.6c-11.2,0-20.2,9.1-20.2,20.2v3.3c0,11.2,9.1,20.2,20.2,20.2h94.6
					c11.3,0,20.5-9.2,20.5-20.5v-2.8C456.8,292.4,447.6,283.2,436.3,283.2z"/>
			</g>
			<path class="st52" d="M323.3,180.3l-7.4,61.4l-4.5,22.1c-2.9,14.2-10,27.1-20.5,37.1l-0.4,0.4c-13.2,12.6-30.7,19.6-48.9,19.6
				h-9.8v-28.5c0-8.7,2.2-16.8,6-23.9L304,112.8l2.4,1C332.7,124.7,334.1,154.1,323.3,180.3z"/>
		</g>
		<g class="st53">
			<rect x="177.1" y="281.6" class="st54" width="68.7" height="87.6"/>
			<path class="st54" d="M422.9,240.1v170.6H280.9c-27.9,0-50.7-22.7-50.7-50.7v-69.3c0-8.7,2.2-16.8,6-23.9l0.1-0.2
				c1.4-2.5,2.9-4.8,4.6-7.1c9.2-11.9,23.7-19.5,39.9-19.5H422.9z"/>
			<path class="st54" d="M350.6,390h-0.8c-22.1,0-40-17.9-40-40v-47.9c0-22.1,17.9-40,40-40h0.8c22.1,0,40,17.9,40,40V350
				C390.5,372.1,372.6,390,350.6,390z"/>
			<rect x="149.1" y="244.6" class="st54" width="66.5" height="142.9"/>
			<path class="st54" d="M195.1,226.3v177.2H23.8c-10-29.9-15.5-62-15.5-95.3c0-28.4,4-55.9,11.3-82H195.1z"/>
			<g>
				<path class="st54" d="M179.7,341.5c0,7.7-6.2,13.9-13.9,13.9c-7.7,0-13.9-6.2-13.9-13.9c0-7.7,6.2-13.9,13.9-13.9
					C173.5,327.6,179.7,333.9,179.7,341.5z"/>
				<path class="st54" d="M140.8,341.5c0,7.7-6.2,13.9-13.9,13.9c-7.7,0-13.9-6.2-13.9-13.9c0-7.7,6.2-13.9,13.9-13.9
					C134.5,327.6,140.8,333.9,140.8,341.5z"/>
			</g>
			<g>
				<path class="st54" d="M423.7,240.1h-72.4c-10.3,0-18.7,9.1-18.7,20.2v3.3c0,11.2,8.4,20.2,18.7,20.2h72.4c10.5,0,19-9.2,19-20.5
					v-2.8C442.7,249.3,434.2,240.1,423.7,240.1z"/>
				<path class="st54" d="M417.8,369.2H363c-10.5,0-19.1,9.1-19.1,20.2v1c0,11.2,8.5,20.2,19.1,20.2h54.9c10.7,0,19.3-9.2,19.3-20.5
					v-0.4C437.2,378.4,428.5,369.2,417.8,369.2z"/>
				<path class="st54" d="M428.8,325.4h-78.3c-11.2,0-20.2,9.1-20.2,20.2v3.3c0,11.2,9.1,20.2,20.2,20.2h78.3
					c11.3,0,20.5-9.2,20.5-20.5v-2.8C449.3,334.6,440.1,325.4,428.8,325.4z"/>
				<path class="st54" d="M434.6,281.6H340c-11.2,0-20.2,9.1-20.2,20.2v3.3c0,11.2,9.1,20.2,20.2,20.2h94.6
					c11.3,0,20.5-9.2,20.5-20.5v-2.8C455.1,290.8,445.9,281.6,434.6,281.6z"/>
			</g>
			<path class="st54" d="M321.6,178.7l-7.4,61.4l-4.5,22.1c-2.9,14.2-10,27.1-20.5,37.1l-0.4,0.4c-13.2,12.6-30.7,19.6-48.9,19.6
				h-9.8v-28.5c0-8.7,2.2-16.8,6-23.9l66.2-155.7l2.4,1C331,123,332.5,152.4,321.6,178.7z"/>
		</g>
		<g class="st55">
			<rect x="175.4" y="279.9" class="st56" width="68.7" height="87.6"/>
			<path class="st56" d="M421.3,238.4V409H279.2c-27.9,0-50.7-22.7-50.7-50.7v-69.3c0-8.7,2.2-16.8,6-23.9l0.1-0.2
				c1.4-2.5,2.9-4.8,4.6-7.1c9.2-11.9,23.7-19.5,39.9-19.5H421.3z"/>
			<path class="st56" d="M348.9,388.3h-0.8c-22.1,0-40-17.9-40-40v-47.9c0-22.1,17.9-40,40-40h0.8c22.1,0,40,17.9,40,40v47.9
				C388.9,370.4,371,388.3,348.9,388.3z"/>
			<rect x="147.5" y="242.9" class="st56" width="66.5" height="142.9"/>
			<path class="st56" d="M193.4,224.7v177.2H22.1c-10-29.9-15.5-62-15.5-95.3c0-28.4,4-55.9,11.3-82H193.4z"/>
			<g>
				<path class="st56" d="M178,339.9c0,7.7-6.2,13.9-13.9,13.9c-7.7,0-13.9-6.2-13.9-13.9c0-7.7,6.2-13.9,13.9-13.9
					C171.8,326,178,332.2,178,339.9z"/>
				<path class="st56" d="M139.1,339.9c0,7.7-6.2,13.9-13.9,13.9c-7.7,0-13.9-6.2-13.9-13.9c0-7.7,6.2-13.9,13.9-13.9
					C132.9,326,139.1,332.2,139.1,339.9z"/>
			</g>
			<g>
				<path class="st56" d="M422,238.5h-72.4c-10.3,0-18.7,9.1-18.7,20.2v3.3c0,11.2,8.4,20.2,18.7,20.2H422c10.5,0,19-9.2,19-20.5
					V259C441,247.6,432.5,238.5,422,238.5z"/>
				<path class="st56" d="M416.2,367.6h-54.9c-10.5,0-19.1,9.1-19.1,20.2v1c0,11.2,8.5,20.2,19.1,20.2h54.9
					c10.7,0,19.3-9.2,19.3-20.5v-0.4C435.5,376.8,426.9,367.6,416.2,367.6z"/>
				<path class="st56" d="M427.1,323.7h-78.3c-11.2,0-20.2,9.1-20.2,20.2v3.3c0,11.2,9.1,20.2,20.2,20.2h78.3
					c11.3,0,20.5-9.2,20.5-20.5v-2.8C447.6,332.9,438.4,323.7,427.1,323.7z"/>
				<path class="st56" d="M432.9,279.9h-94.6c-11.2,0-20.2,9.1-20.2,20.2v3.3c0,11.2,9.1,20.2,20.2,20.2h94.6
					c11.3,0,20.5-9.2,20.5-20.5v-2.8C453.5,289.1,444.3,279.9,432.9,279.9z"/>
			</g>
			<path class="st56" d="M319.9,177l-7.4,61.4l-4.5,22.1c-2.9,14.2-10,27.1-20.5,37.1l-0.4,0.4c-13.2,12.6-30.7,19.6-48.9,19.6h-9.8
				v-28.5c0-8.7,2.2-16.8,6-23.9l66.2-155.7l2.4,1C329.4,121.3,330.8,150.7,319.9,177z"/>
		</g>
		<g class="st57">
			<rect x="173.7" y="278.3" class="st58" width="68.7" height="87.6"/>
			<path class="st58" d="M419.6,236.8v170.6H277.6c-27.9,0-50.7-22.7-50.7-50.7v-69.3c0-8.7,2.2-16.8,6-23.9l0.1-0.2
				c1.4-2.5,2.9-4.8,4.6-7.1c9.2-11.9,23.7-19.5,39.9-19.5H419.6z"/>
			<path class="st58" d="M347.2,386.6h-0.8c-22.1,0-40-17.9-40-40v-47.9c0-22.1,17.9-40,40-40h0.8c22.1,0,40,17.9,40,40v47.9
				C387.2,368.7,369.3,386.6,347.2,386.6z"/>
			<rect x="145.8" y="241.3" class="st58" width="66.5" height="142.9"/>
			<path class="st58" d="M191.8,223v177.2H20.5C10.4,370.3,5,338.3,5,305c0-28.4,4-55.9,11.3-82H191.8z"/>
			<g>
				<path class="st58" d="M176.4,338.2c0,7.7-6.2,13.9-13.9,13.9c-7.7,0-13.9-6.2-13.9-13.9c0-7.7,6.2-13.9,13.9-13.9
					C170.2,324.3,176.4,330.5,176.4,338.2z"/>
				<path class="st58" d="M137.4,338.2c0,7.7-6.2,13.9-13.9,13.9c-7.7,0-13.9-6.2-13.9-13.9c0-7.7,6.2-13.9,13.9-13.9
					C131.2,324.3,137.4,330.5,137.4,338.2z"/>
			</g>
			<g>
				<path class="st58" d="M420.4,236.8H348c-10.3,0-18.7,9.1-18.7,20.2v3.3c0,11.2,8.4,20.2,18.7,20.2h72.4c10.5,0,19-9.2,19-20.5
					v-2.8C439.3,246,430.8,236.8,420.4,236.8z"/>
				<path class="st58" d="M414.5,365.9h-54.9c-10.5,0-19.1,9.1-19.1,20.2v1c0,11.2,8.5,20.2,19.1,20.2h54.9
					c10.7,0,19.3-9.2,19.3-20.5v-0.4C433.8,375.1,425.2,365.9,414.5,365.9z"/>
				<path class="st58" d="M425.4,322.1h-78.3c-11.2,0-20.2,9.1-20.2,20.2v3.3c0,11.2,9.1,20.2,20.2,20.2h78.3
					c11.3,0,20.5-9.2,20.5-20.5v-2.8C446,331.3,436.8,322.1,425.4,322.1z"/>
				<path class="st58" d="M431.3,278.3h-94.6c-11.2,0-20.2,9.1-20.2,20.2v3.3c0,11.2,9.1,20.2,20.2,20.2h94.6
					c11.3,0,20.5-9.2,20.5-20.5v-2.8C451.8,287.4,442.6,278.3,431.3,278.3z"/>
			</g>
			<path class="st58" d="M318.3,175.4l-7.4,61.4l-4.5,22.1c-2.9,14.2-10,27.1-20.5,37.1l-0.4,0.4c-13.2,12.6-30.7,19.6-48.9,19.6
				h-9.8v-28.5c0-8.7,2.2-16.8,6-23.9L299,107.8l2.4,1C327.7,119.7,329.2,149.1,318.3,175.4z"/>
		</g>
		<g class="st59">
			<rect x="172.1" y="276.6" class="st60" width="68.7" height="87.6"/>
			<path class="st60" d="M418,235.1v170.6H275.9c-27.9,0-50.7-22.7-50.7-50.7v-69.3c0-8.7,2.2-16.8,6-23.9l0.1-0.2
				c1.4-2.5,2.9-4.9,4.6-7.1c9.2-11.9,23.7-19.5,39.9-19.5H418z"/>
			<path class="st60" d="M345.6,385h-0.8c-22.1,0-40-17.9-40-40v-47.9c0-22.1,17.9-40,40-40h0.8c22.1,0,40,17.9,40,40V345
				C385.6,367.1,367.7,385,345.6,385z"/>
			<rect x="144.1" y="239.6" class="st60" width="66.5" height="142.9"/>
			<path class="st60" d="M190.1,221.4v177.2H18.8c-10-29.9-15.5-62-15.5-95.3c0-28.4,4-55.9,11.3-82H190.1z"/>
			<g>
				<path class="st60" d="M174.7,336.5c0,7.7-6.2,13.9-13.9,13.9c-7.7,0-13.9-6.2-13.9-13.9c0-7.7,6.2-13.9,13.9-13.9
					C168.5,322.7,174.7,328.9,174.7,336.5z"/>
				<path class="st60" d="M135.8,336.5c0,7.7-6.2,13.9-13.9,13.9c-7.7,0-13.9-6.2-13.9-13.9c0-7.7,6.2-13.9,13.9-13.9
					C129.6,322.7,135.8,328.9,135.8,336.5z"/>
			</g>
			<g>
				<path class="st60" d="M418.7,235.1h-72.4c-10.3,0-18.7,9.1-18.7,20.2v3.3c0,11.2,8.4,20.2,18.7,20.2h72.4c10.5,0,19-9.2,19-20.5
					v-2.8C437.7,244.3,429.2,235.1,418.7,235.1z"/>
				<path class="st60" d="M412.9,364.2H358c-10.5,0-19.1,9.1-19.1,20.2v1c0,11.2,8.5,20.2,19.1,20.2h54.9c10.7,0,19.3-9.2,19.3-20.5
					v-0.4C432.2,373.4,423.5,364.2,412.9,364.2z"/>
				<path class="st60" d="M423.8,320.4h-78.3c-11.2,0-20.2,9.1-20.2,20.2v3.3c0,11.2,9.1,20.2,20.2,20.2h78.3
					c11.3,0,20.5-9.2,20.5-20.5V341C444.3,329.6,435.1,320.4,423.8,320.4z"/>
				<path class="st60" d="M429.6,276.6H335c-11.2,0-20.2,9.1-20.2,20.2v3.3c0,11.2,9.1,20.2,20.2,20.2h94.6
					c11.3,0,20.5-9.2,20.5-20.5v-2.8C450.1,285.8,441,276.6,429.6,276.6z"/>
			</g>
			<path class="st60" d="M316.6,173.7l-7.4,61.4l-4.5,22.1c-2.9,14.2-10,27.1-20.5,37.1l-0.4,0.4c-13.2,12.6-30.7,19.6-48.9,19.6
				h-9.8v-28.5c0-8.7,2.2-16.8,6-23.9l66.2-155.7l2.4,1C326,118,327.5,147.4,316.6,173.7z"/>
		</g>
		<g class="st61">
			<rect x="170.4" y="274.9" class="st62" width="68.7" height="87.6"/>
			<path class="st62" d="M416.3,233.5v170.6H274.2c-27.9,0-50.7-22.7-50.7-50.7v-69.3c0-8.7,2.2-16.8,6-23.9l0.1-0.2
				c1.4-2.5,2.9-4.9,4.6-7.1c9.2-11.9,23.7-19.5,39.9-19.5H416.3z"/>
			<path class="st62" d="M343.9,383.3h-0.8c-22.1,0-40-17.9-40-40v-47.9c0-22.1,17.9-40,40-40h0.8c22.1,0,40,17.9,40,40v47.9
				C383.9,365.4,366,383.3,343.9,383.3z"/>
			<rect x="142.5" y="238" class="st62" width="66.5" height="142.9"/>
			<path class="st62" d="M188.5,219.7v177.2H17.1C7.1,367,1.7,335,1.7,301.7c0-28.4,4-55.9,11.3-82H188.5z"/>
			<g>
				<path class="st62" d="M173.1,334.9c0,7.7-6.2,13.9-13.9,13.9c-7.7,0-13.9-6.2-13.9-13.9c0-7.7,6.2-13.9,13.9-13.9
					C166.8,321,173.1,327.2,173.1,334.9z"/>
				<path class="st62" d="M134.1,334.9c0,7.7-6.2,13.9-13.9,13.9c-7.7,0-13.9-6.2-13.9-13.9c0-7.7,6.2-13.9,13.9-13.9
					C127.9,321,134.1,327.2,134.1,334.9z"/>
			</g>
			<g>
				<path class="st62" d="M417,233.5h-72.4c-10.3,0-18.7,9.1-18.7,20.2v3.3c0,11.2,8.4,20.2,18.7,20.2H417c10.5,0,19-9.2,19-20.5
					V254C436,242.7,427.5,233.5,417,233.5z"/>
				<path class="st62" d="M411.2,362.6h-54.9c-10.5,0-19.1,9.1-19.1,20.2v1c0,11.2,8.5,20.2,19.1,20.2h54.9
					c10.7,0,19.3-9.2,19.3-20.5v-0.4C430.5,371.8,421.9,362.6,411.2,362.6z"/>
				<path class="st62" d="M422.1,318.8h-78.3c-11.2,0-20.2,9.1-20.2,20.2v3.3c0,11.2,9.1,20.2,20.2,20.2h78.3
					c11.3,0,20.5-9.2,20.5-20.5v-2.8C442.6,328,433.5,318.8,422.1,318.8z"/>
				<path class="st62" d="M428,274.9h-94.6c-11.2,0-20.2,9.1-20.2,20.2v3.3c0,11.2,9.1,20.2,20.2,20.2H428
					c11.3,0,20.5-9.2,20.5-20.5v-2.8C448.5,284.1,439.3,274.9,428,274.9z"/>
			</g>
			<path class="st62" d="M315,172.1l-7.4,61.4l-4.5,22.1c-2.9,14.2-10,27.1-20.5,37.1l-0.4,0.4c-13.2,12.6-30.7,19.6-48.9,19.6h-9.8
				v-28.5c0-8.7,2.2-16.8,6-23.9l66.2-155.7l2.4,1C324.4,116.4,325.8,145.8,315,172.1z"/>
		</g>
		<g>
			<rect x="168.8" y="273.3" class="st63" width="68.7" height="87.6"/>
			<path class="st63" d="M414.6,231.8v170.6H272.6c-27.9,0-50.7-22.7-50.7-50.7v-69.3c0-8.7,2.2-16.8,6-23.9l0.1-0.2
				c1.4-2.5,2.9-4.8,4.6-7.1c9.3-11.9,23.7-19.5,39.9-19.5H414.6z"/>
			<path class="st63" d="M342.3,381.7h-0.8c-22.1,0-40-17.9-40-40v-47.9c0-22.1,17.9-40,40-40h0.8c22.1,0,40,17.9,40,40v47.9
				C382.2,363.8,364.3,381.7,342.3,381.7z"/>
			<rect x="140.8" y="236.3" class="st63" width="66.5" height="142.9"/>
			<path class="st63" d="M186.8,218v177.2H15.5C5.5,365.3,0,333.3,0,300c0-28.4,4-55.9,11.3-82H186.8z"/>
			<g>
				<path class="st63" d="M171.4,333.2c0,7.7-6.2,13.9-13.9,13.9c-7.7,0-13.9-6.2-13.9-13.9c0-7.7,6.2-13.9,13.9-13.9
					C165.2,319.3,171.4,325.6,171.4,333.2z"/>
				<path class="st63" d="M132.5,333.2c0,7.7-6.2,13.9-13.9,13.9c-7.7,0-13.9-6.2-13.9-13.9c0-7.7,6.2-13.9,13.9-13.9
					C126.2,319.3,132.5,325.6,132.5,333.2z"/>
			</g>
			<g>
				<path class="st63" d="M415.4,231.8H343c-10.3,0-18.7,9.1-18.7,20.2v3.3c0,11.2,8.4,20.2,18.7,20.2h72.4c10.5,0,19-9.2,19-20.5
					v-2.8C434.4,241,425.9,231.8,415.4,231.8z"/>
				<path class="st63" d="M409.5,360.9h-54.9c-10.5,0-19.1,9.1-19.1,20.2v1c0,11.2,8.5,20.2,19.1,20.2h54.9
					c10.7,0,19.3-9.2,19.3-20.5v-0.4C428.9,370.1,420.2,360.9,409.5,360.9z"/>
				<path class="st63" d="M420.5,317.1h-78.3c-11.2,0-20.2,9.1-20.2,20.2v3.3c0,11.2,9.1,20.2,20.2,20.2h78.3
					c11.3,0,20.5-9.2,20.5-20.5v-2.8C441,326.3,431.8,317.1,420.5,317.1z"/>
				<path class="st63" d="M426.3,273.3h-94.6c-11.2,0-20.2,9.1-20.2,20.2v3.3c0,11.2,9.1,20.2,20.2,20.2h94.6
					c11.3,0,20.5-9.2,20.5-20.5v-2.8C446.8,282.5,437.6,273.3,426.3,273.3z"/>
			</g>
			<path class="st63" d="M313.3,170.4l-7.4,61.4l-4.5,22.1c-2.9,14.2-10,27.1-20.5,37.1l-0.4,0.4c-13.2,12.6-30.7,19.6-48.9,19.6
				h-9.8v-28.5c0-8.7,2.2-16.8,6-23.9L294,102.8l2.4,1C322.7,114.7,324.2,144.1,313.3,170.4z"/>
		</g>
	</g>
	<g>
		<rect x="168.8" y="273.3" class="st64" width="68.7" height="87.6"/>
		<path class="st64" d="M414.6,231.8v170.6H272.6c-27.9,0-50.7-22.7-50.7-50.7v-69.3c0-8.7,2.2-16.8,6-23.9l0.1-0.2
			c1.4-2.5,2.9-4.8,4.6-7.1c9.3-11.9,23.7-19.5,39.9-19.5H414.6z"/>
		<path class="st65" d="M342.3,381.7h-0.8c-22.1,0-40-17.9-40-40v-47.9c0-22.1,17.9-40,40-40h0.8c22.1,0,40,17.9,40,40v47.9
			C382.2,363.8,364.3,381.7,342.3,381.7z"/>
		<rect x="140.8" y="236.3" class="st66" width="66.5" height="142.9"/>
		<path class="st67" d="M186.8,218v177.2H15.5C5.5,365.3,0,333.3,0,300c0-28.4,4-55.9,11.3-82H186.8z"/>
		<g>
			<path class="st68" d="M171.4,333.2c0,7.7-6.2,13.9-13.9,13.9c-7.7,0-13.9-6.2-13.9-13.9c0-7.7,6.2-13.9,13.9-13.9
				C165.2,319.3,171.4,325.6,171.4,333.2z"/>
			<path class="st68" d="M132.5,333.2c0,7.7-6.2,13.9-13.9,13.9c-7.7,0-13.9-6.2-13.9-13.9c0-7.7,6.2-13.9,13.9-13.9
				C126.2,319.3,132.5,325.6,132.5,333.2z"/>
		</g>
		<g>
			<path class="st69" d="M415.4,231.8H343c-10.3,0-18.7,9.1-18.7,20.2v3.3c0,11.2,8.4,20.2,18.7,20.2h72.4c10.5,0,19-9.2,19-20.5
				v-2.8C434.4,241,425.9,231.8,415.4,231.8z"/>
			<path class="st69" d="M409.5,360.9h-54.9c-10.5,0-19.1,9.1-19.1,20.2v1c0,11.2,8.5,20.2,19.1,20.2h54.9
				c10.7,0,19.3-9.2,19.3-20.5v-0.4C428.9,370.1,420.2,360.9,409.5,360.9z"/>
			<path class="st69" d="M420.5,317.1h-78.3c-11.2,0-20.2,9.1-20.2,20.2v3.3c0,11.2,9.1,20.2,20.2,20.2h78.3
				c11.3,0,20.5-9.2,20.5-20.5v-2.8C441,326.3,431.8,317.1,420.5,317.1z"/>
			<path class="st69" d="M426.3,273.3h-94.6c-11.2,0-20.2,9.1-20.2,20.2v3.3c0,11.2,9.1,20.2,20.2,20.2h94.6
				c11.3,0,20.5-9.2,20.5-20.5v-2.8C446.8,282.5,437.6,273.3,426.3,273.3z"/>
		</g>
		<path class="st69" d="M313.3,170.4l-7.4,61.4l-4.5,22.1c-2.9,14.2-10,27.1-20.5,37.1l-0.4,0.4c-13.2,12.6-30.7,19.6-48.9,19.6
			h-9.8v-28.5c0-8.7,2.2-16.8,6-23.9L294,102.8l2.4,1C322.7,114.7,324.2,144.1,313.3,170.4z"/>
	</g>
</g>
</svg>
