<?xml version="1.0" encoding="utf-8"?>
<!-- Generator: Adobe Illustrator 18.0.0, SVG Export Plug-In . SVG Version: 6.00 Build 0)  -->
<!DOCTYPE svg PUBLIC "-//W3C//DTD SVG 1.1//EN" "http://www.w3.org/Graphics/SVG/1.1/DTD/svg11.dtd">
<svg version="1.1" id="Layer_1" xmlns="http://www.w3.org/2000/svg" xmlns:xlink="http://www.w3.org/1999/xlink" x="0px" y="0px"
	 viewBox="0 0 100 100" enable-background="new 0 0 100 100" xml:space="preserve">
<g>
	<g>
		<path fill="#96A0A3" stroke="#96A0A3" stroke-width="2" stroke-miterlimit="10" d="M96.1,70.4C84.9,59.2,83.2,53.6,83.2,35.7
			C83.2,17.4,68.4,2.5,50,2.5S16.8,17.4,16.8,35.7c0,9.6-0.3,13.2-1.6,17.6c-1.6,5.5-5,10.8-11.3,17c-3,3-0.9,8.1,3.4,8.1h26.4
			l-0.2,2.4c0,9.2,7.4,16.6,16.6,16.6S66.7,90,66.7,80.8l-0.2-2.4h26.4C97,78.5,99.1,73.4,96.1,70.4z M50,92.7
			c-6.6,0-11.9-5.3-11.9-11.9l0.2-2.4h23.3l0.2,2.4C61.9,87.4,56.6,92.7,50,92.7z M7.3,73.7c14.2-14.2,14.2-23.7,14.2-38
			C21.5,20,34.3,7.2,50,7.2S78.5,20,78.5,35.7c0,14.2,0,23.7,14.2,38H7.3z"/>
	</g>
</g>
</svg>
