<?xml version="1.0" encoding="utf-8"?>
<!-- Generator: Adobe Illustrator 18.0.0, SVG Export Plug-In . SVG Version: 6.00 Build 0)  -->
<!DOCTYPE svg PUBLIC "-//W3C//DTD SVG 1.1//EN" "http://www.w3.org/Graphics/SVG/1.1/DTD/svg11.dtd">
<svg version="1.1" id="Capa_1" xmlns="http://www.w3.org/2000/svg" xmlns:xlink="http://www.w3.org/1999/xlink" x="0px" y="0px"
	 viewBox="0 0 100 100" enable-background="new 0 0 100 100" xml:space="preserve">
<g>
	<path fill="#1B2734" stroke="#1B2734" stroke-width="3" stroke-miterlimit="10" d="M86.9,75.8V40.2H72.1v35.6h-5.7v-48H51.5v48
		h-5.7V47.4H31v28.4h-5.7V58.5H10.5v17.3H9.2C8.6,75.8,8,76.3,8,77c0,0.7,0.6,1.2,1.2,1.2h1.2h14.8H31h14.8h5.7h14.8h5.7h14.8
		c0.7,0,1.2-0.6,1.2-1.2C88.1,76.3,87.6,75.8,86.9,75.8z M12.9,75.8V61h9.9v14.8H12.9z M33.5,75.8v-26h9.9v26H33.5z M54,75.8V30.3
		h9.9v45.5H54z M74.6,75.8V42.7h9.9v33.1H74.6z"/>
</g>
</svg>
