<?xml version="1.0" encoding="utf-8"?>
<!-- Generator: Adobe Illustrator 18.0.0, SVG Export Plug-In . SVG Version: 6.00 Build 0)  -->
<!DOCTYPE svg PUBLIC "-//W3C//DTD SVG 1.1//EN" "http://www.w3.org/Graphics/SVG/1.1/DTD/svg11.dtd">
<svg version="1.1" id="Capa_1" xmlns="http://www.w3.org/2000/svg" xmlns:xlink="http://www.w3.org/1999/xlink" x="0px" y="0px"
	 viewBox="0 0 100 100" enable-background="new 0 0 100 100" xml:space="preserve">
<g>
	<path fill="#1B2734" stroke="#1B2734" stroke-width="2" stroke-miterlimit="10" d="M50,2.5C23.8,2.5,2.5,23.8,2.5,50
		S23.8,97.5,50,97.5S97.5,76.2,97.5,50S76.2,2.5,50,2.5z M50,93.9C25.9,93.9,6.1,74.1,6.1,50S25.9,6.1,50,6.1S93.9,25.9,93.9,50
		S74.1,93.9,50,93.9z"/>
	<path fill="#1B2734" stroke="#1B2734" stroke-width="2" stroke-miterlimit="10" d="M50,70.1c-1,0-1.8,0.9-1.8,1.8v3.6
		c0,1,0.9,1.8,1.8,1.8c1,0,1.8-0.9,1.8-1.8v-3.6C51.8,70.9,51,70.1,50,70.1z"/>
	<path fill="#1B2734" stroke="#1B2734" stroke-width="2" stroke-miterlimit="10" d="M50.2,18.9c-0.1,0-0.1,0-0.2,0
		c-3.9,0-7.5,1.5-10.3,4.2c-2.9,2.8-4.4,6.5-4.4,10.4c0,1,0.9,1.8,1.8,1.8s1.8-0.9,1.8-1.8c0-2.9,1.1-5.7,3.2-7.8s4.9-3.2,7.9-3.1
		c5.8,0.1,10.7,5,10.8,10.8c0.1,3.8-1.8,7.3-5,9.4C51,45.9,48,51.4,48,57.6v5.2c0,1,0.9,1.8,1.8,1.8c1,0,1.8-0.9,1.8-1.8v-5.3
		c0-4.8,2.4-9.3,6.1-11.8c4.3-2.8,6.7-7.4,6.7-12.5C64.5,25.5,58.1,19,50.2,18.9z"/>
</g>
</svg>
