<?xml version="1.0" encoding="utf-8"?>
<!-- Generator: Adobe Illustrator 18.0.0, SVG Export Plug-In . SVG Version: 6.00 Build 0)  -->
<!DOCTYPE svg PUBLIC "-//W3C//DTD SVG 1.1//EN" "http://www.w3.org/Graphics/SVG/1.1/DTD/svg11.dtd">
<svg version="1.1" id="Layer_1" xmlns="http://www.w3.org/2000/svg" xmlns:xlink="http://www.w3.org/1999/xlink" x="0px" y="0px"
	 viewBox="0 0 100 100" enable-background="new 0 0 100 100" xml:space="preserve">
<g>
	<g>
		<g>
			<path fill="#96A0A3" stroke="#96A0A3" stroke-width="2" stroke-miterlimit="10" d="M68,12.9c-2.1-0.9-4.5,0-5.4,2.1
				s0,4.5,2.1,5.4C78,26.2,86.8,39.3,86.8,54.1c0,20.3-16.5,36.8-36.8,36.8S13.2,74.4,13.2,54.1c0-14.7,8.8-27.9,22-33.7
				c2.1-0.9,3-3.3,2.1-5.4s-3.3-3-5.4-2.1C15.8,20,5.1,36.1,5.1,54.1C5.1,78.9,25.2,99,50,99s44.9-20.1,44.9-44.9
				C94.9,36.1,84.2,20,68,12.9z"/>
			<path fill="#96A0A3" stroke="#96A0A3" stroke-width="2" stroke-miterlimit="10" d="M50,45.9c2.3,0,4.1-1.8,4.1-4.1V5.1
				C54.1,2.8,52.3,1,50,1s-4.1,1.8-4.1,4.1v36.8C45.9,44.1,47.7,45.9,50,45.9z"/>
		</g>
	</g>
</g>
</svg>
