<?xml version="1.0" encoding="utf-8"?>
<!-- Generator: Adobe Illustrator 22.1.0, SVG Export Plug-In . SVG Version: 6.00 Build 0)  -->
<svg version="1.1" id="Layer_1" xmlns="http://www.w3.org/2000/svg" xmlns:xlink="http://www.w3.org/1999/xlink" x="0px" y="0px"
	 viewBox="0 0 100 100" enable-background="new 0 0 100 100" xml:space="preserve">
<g>
	<path fill="#6C757D" d="M65.377,40.588c-0.376-0.264-0.744-0.568-1.103-0.912c-0.596-0.572-1.163-1.148-1.711-1.706
		c-0.705-0.717-1.371-1.395-2.05-2.015c-1.503-1.373-2.381-3.33-2.408-5.37c-0.027-2.046,0.81-4.042,2.298-5.475
		c2.008-1.934,4.019-3.967,5.965-5.936c-2.011-2.015-4.022-4.029-6.045-6.032c-1.873-1.854-2.613-4.269-2.099-6.728
		c-3.686,0-7.372,0-11.058,0c-13.771,0-27.542-0.001-41.313,0.001c-0.457,0-0.918-0.008-1.372,0.04
		C2.04,6.712,0.426,8.69,0.645,11.14c0.112,1.254,0.926,2.084,1.753,2.912c10.455,10.465,20.904,20.936,31.37,31.389
		c0.514,0.513,0.718,1.022,0.716,1.75c-0.024,10.038,0.005,20.076-0.036,30.113c-0.007,1.817,0.587,3.242,1.872,4.513
		c5.257,5.203,10.47,10.45,15.703,15.676c0.373,0.372,0.752,0.748,1.175,1.059c1.345,0.989,2.801,1.07,4.286,0.37
		c1.841-0.867,2.347-2.46,2.346-4.358c-0.012-15.743,0.001-31.487-0.025-47.23c-0.001-0.848,0.248-1.425,0.841-2.017
		C62.225,43.743,63.8,42.164,65.377,40.588z"/>
	<g>
		<path fill="#DC665A" d="M72.314,19.164c-0.145-0.152-0.266-0.285-0.393-0.412c-2.872-2.873-5.737-5.755-8.624-8.614
			c-0.938-0.929-1.23-2.018-0.841-3.235c0.158-0.494,0.54-0.951,0.911-1.337c1.282-1.331,2.601-2.626,3.912-3.929
			c1.371-1.364,3.124-1.361,4.505,0.016c2.877,2.869,5.747,5.745,8.62,8.617c0.127,0.127,0.26,0.247,0.413,0.391
			c0.156-0.148,0.289-0.269,0.416-0.396c2.866-2.856,5.775-5.671,8.578-8.588c1.263-1.314,3.418-1.328,4.646,0.009
			c1.339,1.458,2.809,2.796,4.159,4.244c0.988,1.059,0.992,2.604,0.123,3.76c-0.169,0.225-0.368,0.43-0.568,0.63
			c-2.817,2.811-5.636,5.62-8.455,8.43c-0.128,0.127-0.25,0.26-0.396,0.413c0.142,0.15,0.261,0.282,0.388,0.409
			c2.86,2.862,5.715,5.73,8.587,8.58c0.936,0.929,1.296,1.995,0.896,3.263c-0.112,0.355-0.292,0.731-0.549,0.992
			c-1.538,1.568-3.067,3.148-4.681,4.637c-1.048,0.967-2.668,0.888-3.752-0.041c-0.416-0.357-0.797-0.756-1.185-1.144
			c-2.603-2.601-5.205-5.204-7.804-7.809c-0.117-0.117-0.204-0.265-0.338-0.442c-0.212,0.202-0.355,0.332-0.491,0.469
			c-2.833,2.842-5.67,5.68-8.496,8.529c-0.948,0.956-2.054,1.376-3.349,0.922c-0.496-0.174-0.961-0.531-1.347-0.902
			c-1.297-1.245-2.51-2.58-3.837-3.791c-1.329-1.214-1.413-3.345-0.028-4.679c2.913-2.807,5.73-5.713,8.587-8.58
			C72.049,19.448,72.17,19.316,72.314,19.164z"/>
	</g>
</g>
</svg>
