<?xml version="1.0" encoding="utf-8"?>
<!-- Generator: Adobe Illustrator 18.0.0, SVG Export Plug-In . SVG Version: 6.00 Build 0)  -->
<!DOCTYPE svg PUBLIC "-//W3C//DTD SVG 1.1//EN" "http://www.w3.org/Graphics/SVG/1.1/DTD/svg11.dtd">
<svg version="1.1" id="Layer_1" xmlns="http://www.w3.org/2000/svg" xmlns:xlink="http://www.w3.org/1999/xlink" x="0px" y="0px"
	 viewBox="0 0 15.8 3.4" enable-background="new 0 0 15.8 3.4" xml:space="preserve">
<g>
	<g>
		<g>
			<g>
				<path fill="#327ABD" d="M1.6,0C0.7,0,0,0.7,0,1.6v0.2c0,0.9,0.7,1.6,1.6,1.6s1.6-0.7,1.6-1.6V1.6C3.2,0.7,2.5,0,1.6,0z"/>
				<path fill="#327ABD" d="M7.9,0C7,0,6.3,0.7,6.3,1.6v0.2c0,0.9,0.7,1.6,1.6,1.6c0.9,0,1.6-0.7,1.6-1.6V1.6C9.5,0.7,8.8,0,7.9,0z"
					/>
			</g>
		</g>
	</g>
	<g>
		<g>
			<g>
				<path fill="#327ABD" d="M14.2,0c-0.9,0-1.6,0.7-1.6,1.6v0.2c0,0.9,0.7,1.6,1.6,1.6c0.9,0,1.6-0.7,1.6-1.6V1.6
					C15.8,0.7,15.1,0,14.2,0z"/>
			</g>
		</g>
	</g>
</g>
</svg>
