<?xml version="1.0" encoding="utf-8"?>
<!-- Generator: Adobe Illustrator 18.0.0, SVG Export Plug-In . SVG Version: 6.00 Build 0)  -->
<!DOCTYPE svg PUBLIC "-//W3C//DTD SVG 1.1//EN" "http://www.w3.org/Graphics/SVG/1.1/DTD/svg11.dtd">
<svg version="1.1" id="Capa_1" xmlns="http://www.w3.org/2000/svg" xmlns:xlink="http://www.w3.org/1999/xlink" x="0px" y="0px"
	 viewBox="0 0 100 100" enable-background="new 0 0 100 100" xml:space="preserve">
<g>
	<path fill="#1B2734" stroke="#1B2734" stroke-width="2" stroke-miterlimit="10" d="M92.7,39.5h-8.9c-1.4,0-2.6-0.8-3.1-2.1
		s-0.3-2.8,0.8-3.7l6.3-6.3c1-0.9,1.4-2.2,1.4-3.4c0-1.3-0.5-2.6-1.4-3.4l-8-8c-1.8-1.8-5-1.8-6.9,0l-6.4,6.1c-1,1-2.4,1.3-3.7,0.8
		c-1.3-0.6-2.1-1.7-2.1-3.1V7.3c0-2.7-2.2-4.8-4.8-4.8H44.3c-2.7,0-4.8,2.2-4.8,4.8v8.9c0,1.4-0.8,2.6-2.1,3.1
		c-1.3,0.6-2.8,0.3-3.7-0.8l-6.3-6.3c-1.8-1.8-5-1.8-6.9,0l-8,8c-1,0.9-1.4,2.2-1.4,3.4c0,1.3,0.5,2.6,1.4,3.4l6.3,6.3
		c1,1,1.3,2.4,0.8,3.7c-0.6,1.3-1.7,2.1-3.1,2.1h-9c-2.7,0.2-4.8,2.4-4.8,5v11.4c0,2.7,2.2,4.8,4.8,4.8h8.9c1.4,0,2.6,0.8,3.1,2.1
		s0.3,2.8-0.8,3.7l-6.3,6.3c-1,1.2-1.4,2.4-1.4,3.6c0,1.3,0.5,2.6,1.4,3.4l8,8c1.8,1.8,5,1.9,6.9,0l6.3-6.3c1-1,2.4-1.3,3.7-0.8
		c1.3,0.6,2.1,1.7,2.1,3.1v8.9c0,2.7,2.2,4.8,4.8,4.8h11.5c2.7,0,4.8-2.2,4.8-4.8v-8.9c0-1.4,0.8-2.6,2.1-3.1
		c1.3-0.6,2.8-0.3,3.7,0.8l6.3,6.3c1.8,1.8,5,1.8,6.9,0l8-8c0.9-0.9,1.4-2.2,1.4-3.4c0-1.3-0.5-2.6-1.4-3.4l-6.2-6.3
		c-1-1-1.3-2.4-0.8-3.7c0.6-1.3,1.7-2.1,3.1-2.1h8.9c2.7,0,4.8-2.2,4.8-4.8V44.3C97.5,41.6,95.3,39.5,92.7,39.5z M94,55.7
		c0,0.8-0.6,1.3-1.3,1.3h-8.9c-2.8,0-5.3,1.6-6.4,4.3s-0.5,5.5,1.5,7.6l6.3,6.3c0.6,0.6,0.6,1.4,0,1.9l-8.1,8.1
		c-0.6,0.6-1.4,0.6-1.9,0l-6.3-6.3c-2-2-4.9-2.6-7.6-1.5c-2.7,1-4.3,3.5-4.3,6.4v8.9c0,0.8-0.6,1.3-1.3,1.3H44.3
		c-0.8,0-1.3-0.6-1.3-1.3v-8.9c0-2.8-1.6-5.3-4.3-6.4c-0.9-0.4-1.8-0.6-2.7-0.6c-1.8,0-3.5,0.7-4.8,2.1l-6.3,6.3
		c-0.6,0.6-1.4,0.6-1.9,0l-8.2-8.1c-0.6-0.6-0.6-1.4,0-1.9l6.3-6.3c2-2,2.6-4.9,1.5-7.6S19.1,57,16.3,57h-9C6.6,57,6,56.5,6,55.7
		V44.3C6,43.5,6.6,43,7.3,43h8.9c2.9,0,5.3-1.6,6.4-4.3s0.5-5.5-1.5-7.6l-6.3-6.3c-0.6-0.6-0.6-1.4,0-1.9l8-8c0.6-0.6,1.4-0.6,1.9,0
		l6.3,6.3c2,2,4.9,2.6,7.6,1.5c2.7-1,4.3-3.5,4.3-6.4v-9c0-0.8,0.6-1.3,1.3-1.3h11.5C56.5,6,57,6.6,57,7.3v8.9
		c0,2.8,1.6,5.3,4.3,6.4s5.5,0.5,7.6-1.5l6.3-6.3c0.6-0.6,1.4-0.6,1.9,0l8,8c0.6,0.6,0.6,1.4,0,1.9L78.8,31c-2,2-2.6,4.9-1.5,7.6
		c1,2.7,3.5,4.3,6.4,4.3h8.9c0.8,0,1.3,0.6,1.3,1.3L94,55.7L94,55.7z"/>
	<path fill="#1B2734" stroke="#1B2734" stroke-width="2" stroke-miterlimit="10" d="M50,34.1c-8.7,0-15.9,7.1-15.9,15.9
		S41.3,65.9,50,65.9S65.9,58.7,65.9,50S58.7,34.1,50,34.1z M50,62.3c-6.7,0-12.3-5.5-12.3-12.4S43.2,37.6,50,37.6S62.3,43.2,62.3,50
		S56.7,62.3,50,62.3z"/>
</g>
</svg>
