<?xml version="1.0" encoding="utf-8"?>
<!-- Generator: Adobe Illustrator 18.0.0, SVG Export Plug-In . SVG Version: 6.00 Build 0)  -->
<!DOCTYPE svg PUBLIC "-//W3C//DTD SVG 1.1//EN" "http://www.w3.org/Graphics/SVG/1.1/DTD/svg11.dtd">
<svg version="1.1" id="Capa_1" xmlns="http://www.w3.org/2000/svg" xmlns:xlink="http://www.w3.org/1999/xlink" x="0px" y="0px"
	 viewBox="0 0 100 100" enable-background="new 0 0 100 100" xml:space="preserve">
<g>
	<path fill="#96A0A3" stroke="#96A0A3" stroke-width="2" stroke-miterlimit="10" d="M96,60.3l-4.8-4.8c-2-2-5.2-2-7.2,0L57.9,81.6
		l-3.6,13.2l-0.9,0.9c-0.7,0.7-0.7,1.7,0,2.4l0,0l0,0c0.3,0.3,0.8,0.5,1.2,0.5c0.4,0,0.9-0.2,1.2-0.5l0.9-0.9l13.2-3.6L96,67.5
		C98,65.5,98,62.3,96,60.3z M61.8,82.5l17.4-17.4l7.2,7.2L69,89.7L61.8,82.5z M60.3,85.8l5.5,5.5l-7.5,2L60.3,85.8z M93.6,65.1
		l-4.8,4.8l-7.2-7.2l4.8-4.8c0.7-0.7,1.7-0.7,2.4,0l4.8,4.8C94.3,63.4,94.3,64.4,93.6,65.1z"/>
	<path fill="#96A0A3" stroke="#96A0A3" stroke-width="2" stroke-miterlimit="10" d="M49.2,18.4c5.8,0,10,1.4,12.5,4.2
		C64.5,25.8,64,30,64,30l0,9.7l0.6,0.5c0.6,0.5,0.9,1.3,0.9,2.1v6c0,1.2-0.8,2.3-2,2.7c-0.9,0.3-1.4,1.2-1.1,2.1
		c0.3,0.9,1.2,1.4,2.1,1.1c2.6-0.8,4.4-3.2,4.4-5.9v-6c0-1.5-0.5-2.9-1.5-4v-7.9c0.1-0.9,0.4-5.8-3.2-9.9c-3.1-3.6-8.2-5.4-15-5.4
		s-11.9,1.8-15,5.4c-3.6,4.1-3.3,9.1-3.2,9.9v7.9c-1,1.1-1.5,2.5-1.5,4v6c0,1.9,0.8,3.6,2.3,4.8c1.4,5.4,4.2,9.5,5.2,10.8v4.9
		c0,1.4-0.8,2.7-2,3.3l-13.4,7.3c-0.4,0.2-0.9,0.5-1.3,0.8c-8.9-8-14.3-19.5-14.3-32.2c0-23.9,19.4-43.3,43.3-43.3
		s43.3,19.4,43.3,43.3c0,0.9,0.8,1.7,1.7,1.7s1.7-0.8,1.7-1.7c0-25.7-20.9-46.7-46.7-46.7S2.5,22.4,2.5,48.1
		c0,13.5,5.8,25.8,15.1,34.4l0,0l0.5,0.4c3.9,3.5,8.5,6.4,13.5,8.4c0.3,0.1,0.6,0.2,0.8,0.3c0.6,0.2,1.2,0.4,1.8,0.6
		c0.6,0.2,1.3,0.4,2,0.6c0.5,0.1,0.9,0.3,1.4,0.4c1.2,0.3,2.4,0.6,3.6,0.8c0.1,0,0.2,0,0.3,0c0.8,0,1.5-0.6,1.7-1.4
		c0.2-0.9-0.5-1.8-1.4-2c0,0,0,0,0,0c-1.1-0.2-2.2-0.4-3.3-0.7c-0.4-0.1-0.7-0.2-1.1-0.3c-0.7-0.2-1.4-0.4-2.1-0.7
		c-0.8-0.3-1.7-0.6-2.5-0.9c-0.3-0.1-0.7-0.3-1-0.4c-0.7-0.3-1.4-0.6-2.1-1c-0.1,0-0.1-0.1-0.2-0.1c-2.3-1.2-4.4-2.5-6.5-4.1
		c0.1,0,0.1-0.1,0.2-0.1l13.4-7.3c2.3-1.3,3.7-3.7,3.7-6.3v-6.1l-0.4-0.5c0,0-3.7-4.5-5.1-10.5L34.7,51l-0.6-0.4
		c-0.8-0.5-1.3-1.4-1.3-2.4v-6c0-0.8,0.3-1.5,0.9-2.1l0.6-0.5v-9.4l0-0.2c0,0-0.5-4.1,2.4-7.4C39.1,19.8,43.3,18.4,49.2,18.4z"/>
</g>
</svg>
