<?xml version="1.0" encoding="utf-8"?>
<!-- Generator: Adobe Illustrator 18.0.0, SVG Export Plug-In . SVG Version: 6.00 Build 0)  -->
<!DOCTYPE svg PUBLIC "-//W3C//DTD SVG 1.1//EN" "http://www.w3.org/Graphics/SVG/1.1/DTD/svg11.dtd">
<svg version="1.1" id="Layer_1" xmlns="http://www.w3.org/2000/svg" xmlns:xlink="http://www.w3.org/1999/xlink" x="0px" y="0px"
	 viewBox="0 0 1234 474" enable-background="new 0 0 1234 474" xml:space="preserve">
<g>
	<g>
		<path fill="#FEFEFE" d="M1235.5,464.7c0,4.7,1.8,11.1-0.5,13.5c-2.3,2.3-8.8,0.5-13.5,0.5c-405.4,0-810.9,0-1216.3,0.1
			c-4.1,0-4.8-0.9-4.8-4.9C0.5,318.6,0.5,163.3,0.4,8c0-3.5,0.6-4.4,4.3-4.4c408.9,0.1,817.9,0.1,1226.8,0c3.4,0,4.5,0.6,4.1,4.1
			c-0.4,3.3-0.1,6.7-0.1,10c-114,0-228,0-341.9-0.1c-5.3,0-9.1,1.2-13,5.2c-3.8,3.9-4.9,7-1.8,11.6c2.3,3.5,6.6,7.3-1.1,10.4
			c-1.7,0.7-2.8,2-4.5,0.7c-5.2-4-12.5-4.5-16.8-10.1c-0.8-1.1-3.4-2.6-4.1-0.5c-1.1,3-4.3,5.9-0.9,9.9c2.1,2.5,3.2,5.4,7.2,5
			c1.7-0.2,2.8,1,3,2.7c0.2,2.2,2.1,4.5-0.7,6.3c-2.3,1.6-4.2,3.2-7.5,1.4c-3.2-1.7-6.7-2.6-8.4-6.4c-0.5-1.2-2.1-2.8-3.3-2.8
			c-6.4-0.3-7.5-4.3-7.2-9.6c0.1-1.6-0.3-3.4-1-4.8c-2.2-4.3-2.5-8.3-0.3-12.9c1.5-3.1,0.5-6.1-4.4-6c-12.2,0.2-24.3,0.2-36.5,0.2
			c-43.9,0-87.8-0.1-131.7-0.1c-3.7,0-7.3-0.1-11-0.1c-2.3,0-4.6,0.4-5.7,2.4c-2.6,4.7-7.9,9.2-1.5,15.3c-5.1-0.4-10.8,3-9.6,5.2
			c1.5,2.9-0.2,3.2-1.7,4.4c-2.1,1.7-4.4,3.3-5.7,5.5c-2.9,5-10.1,8.6-6,16.3c0,0,0,0,0,0c-1.3-0.6-2.8-1.6-4.1-0.2
			c-1.7,1.8-2.5,1.7-3.6-0.7c-0.9-1.8-2.7-0.5-3.9,0.3c-1.5,1-1.5,1.9,0.4,2.8c1.8,0.9,0.6,2.2-0.4,2.4c-2.9,0.5-2.1,3-2.7,4.7
			c-5.4-2.1-9.9,0.2-12.1,6.2c3.6-0.3,7.2-0.6,11.6-0.9c-4,2.4-6.9,4.7-11.2,2.7c-1.4-0.6-4.4-0.1-5,2.7c-0.1,0.2-0.1,0.3-0.2,0.5
			c0.1-0.1,0.2-0.3,0.2-0.4c1.1,0.2,2.3-0.5,3.4,0.7c-0.9,1.5-2.9,2.1-3.8,1.7c-3.9-1.3-5.6,1.4-7.9,3.4c-0.8,0.7-1.7,1-1.4,2.2
			c0.3,1.1,1.1,1.6,2.2,1.8c3.5,0.5,7,1,10.9,1.6c-3.4,2.9-6.4,0.7-9.5,0c-1.8-0.4-4.4-1.7-4.6,1.5c-0.2,2.7,2.7,5.1,0.3,8.5
			c-0.8,1.1,2,3.4,5,3c3.7-0.4,7.4-1.7,11.2-0.7c1.5,0.4,2,1,1.3,2.4c-0.2,0.3-0.8,0.8-0.8,0.8c-4.3-3.8-9.1-0.7-13.7-1
			c-4-0.2-3.4,1.8-3,4.8c0.3,2.1,3.6,2.6,2.2,4.9c-2.3,3.6,0.7,4.8,3.9,7c-4.7-0.2-5.1,2.6-5.3,4.9c-0.2,2.9,0.2,5.9,0.7,8.8
			c0.4,2.5,1.9,1.1,2.8,0.2c2.2-2,3.1-1.4,3.1,1.4c0,1,0,2,0,3l0,0c-3.7,1.3-4.4,5.6-1.1,8.2c2.7,2.1,6.1,3.3,8.6,5.5
			c3.3,3,6.5,3,9.9,1.1c5.3-2.9,9.1-7.6,12.8-12.2c0.9-1.1,1.2-3,3-2.9c4.8,0.3,5.2-3.2,5.7-6.5c0.2-1.6,0-3.3,2.3-4.7
			c-1.6,5.8,1.5,8.6,5.8,10.7c-1.2-0.1-2,0.4-1.8,1.7c1.7,12.8,6.3,24.5,12.8,35.6c2.1,3.6,1.5,8.9-2.5,9.3
			c-3.5,0.4-2.5,7.9-7.5,3.9c-0.2,0.3-0.4,0.6-0.6,0.8c-3.7,3.1-3.5,6.8,0.7,9.6c1.8,1.2,2.4,3.1,1.8,4.7c-0.8,2.1-2.1,0.3-3.1-0.2
			c-1-0.5-1.9-0.8-2.5,0.5c-0.4,0.9,0.2,1.6,0.9,2.1c1.5,1.2,3,1.5,5,0.6c4.4-2,4.3-6.9,4.9-9.9c0.7-3.3,4.6-5.8,2.3-9.8
			c2.5,1.9,4.1,3.7,3.2,6.6c-0.8,2.8,0.9,3.2,2.9,3.2c2.1,0,4.1-1.1,6.4-0.9c1.7,0.1,2.5-1.3,1.8-2.8c-2.6-5.9,4-8.6,5.6-8.3
			c7.1,1.2,10-2.8,12.6-7.9c0.5,1.7-0.5,3.8,1.2,6.1c0.7-3.4,2.2-5.8,1.8-9.2c-1.3,1.4-2.2,2.3-3,3.2c1-9,2.1-18,3.1-27
			c0.4-3.4-0.6-4.1-3.1-4.6c8-1.4,13.6-5.9,18.4-12.4c-7.2,5.3-13-2.2-20.3-1.1c5-3,10.3-2.7,14.5,0.4c0.3,0.3,1,0.5,1.3,0.3
			c3.2-1.3,5.9-3.4,7.6-6.2c1.5-2.4-0.3-4.2-1.8-6.1c-2.6-3.4-4.9-7.1-9.4-8.5c-1.6-0.5-2.1-2-2.7-3.7c-3.5-9.9,3.5-19.2,1.5-29
			c0-0.2,0.6-0.9,0.9-0.9c4.8-0.6,1.8-8.3,7.4-8.2c0.7-6.6,7.2-7.5,10.9-11.2c3.9-3.9,8.9-6.1,11.6-11.8c2.3-4.9,4.7-8.7,1.4-13.7
			c-0.1-0.2-0.1-0.8,0-0.9c4-3.5,1.9-9.6,6.4-13.5c5.2-4.6,4.7-5.1,11.7-6c5.4-0.7,10-0.9,14.8,3.2c4.7,4,1.9,8.3,2.9,12.4
			c0.8,3.3-1.9,3.4-4.3,3.8c-1.7,0.3-2.4,2.1-3.2,3.6c-3.8,6.4-7.3,13-13.2,17.9c-2.5,2.1-5,4.4-5.3,8c-0.2,1.6-1.5,2.1-2.9,2.3
			c-1,0.1-2.1-0.2-2.8,0.8c-5.1,7.5-4.1,15.6-2.1,23.6c0.7,2.9,2,5.4,1.2,8.6c-0.9,3.5-1.1,7.2-1.2,10.8c-0.1,2.1,0,3.8,3.3,4.9
			c2.9,1,8.4,2.1,6.6,7.6c1.7,1.4,2.2-2.5,3.9-0.2c1.1,1.4,0.8,2.9,0.9,3.8c6.5-1.6,12.9-3.1,18.9-5.8c4.1-1.8,8.1-3.9,13-4.3
			c3-0.3,6.7,1.4,9.2-1.8c1.5,0,3-0.1,4.4-0.7c1.2-0.5,2.1-0.5,2.2,1.5c0.2,4.1,2.7,6.3,6.7,6.1c3.6-0.1,5,1.8,6,4.8
			c-1.3,0.5-2.4,0.1-3.5-0.3c-5.6-2-8.6,3.9-13.4,4.4c-1.2,6.7-6.8,4.9-9.7,3.6c-7-3.3-13.5-2.5-20.4-0.5
			c-9.2,2.6-11.4,5.9-9.1,14.9c0.3,1.1,0.8,2.2,1.5,3.1c0.6,0.8,1.6,1.9,2.2,1.8c6.4-1.2,3.9,2.9,3.1,5.4c-0.8,2.5-0.4,4.9,0.1,7.3
			c0.8,3.9-1.2,6.8-4.4,8.1c-3.3,1.4-4.6-1.5-6.1-4.1c-3.9-7-9.4-8.3-13-3c-2.6,3.8-4.6,8.5-5.2,13c-0.7,5.6-1,11.6,1.3,17.3
			c0.8,1.9,0.5,4.3,0.4,6.4c-0.1,2.5-1.4,3.6-4,2.4c-3.6-1.7-6.2-1.2-7.3,3.2c-0.9,3.6-4.1,4.8-7.2,5.3c-3.1,0.5-4.3-2.2-5.1-4.6
			c-0.7-2.1-2-2.4-3.8-2.3c-3,0.2-5.8,0.9-8.5,2.3c-5.6,3-10.7,6.9-17.1,8.4c-2.7,0.6-6.7,1.1-5.6,5.9c0,0-0.9,0.3-1.4,0.4
			c-2.9-2.6-3-8-9.3-7.7c1.2-0.9,1.5-1.2,1.9-1.4c2.1-1.2,3-2.9,1.1-4.7c-2.2-2.1-2.7,0.3-3.3,1.7c-0.5,1.1-1.4,1.5-2.4,1
			c-2.5-1.2-3.4,0.9-5,1.9c-3.7,2.3-7,6.4-12.5,3.7c1.4-2.3,3-4.2-1.4-4.6c-5.7-0.5-7.3-5-8-9.9c0,0,0.2-0.2,0.2-0.2l-0.2,0.2
			c-2.2-1.7-1.6-6.3,1-8c0.1,1.5,0,3,0.5,4.3c0.7,2,2.6,2.9,4.7,3.1c1.2,0.1,2.3-0.6,2.6-1.8c0.4-2,0.4-4.1-1.2-5.5
			c-2.1-1.9-4.4-0.1-6.6-0.1c1.6-4.1,1.4-9.5,7.4-10.6c1-0.2,1.4-1.3,1.5-2.4c0-1.2-0.7-1.9-1.8-1.9c-3.4-0.2-3.2-2.6-3.3-5
			c-0.1-2.4,1.2-4.5,1.7-6.7c0.6-2.1,0.9-5-1.1-5.9c-1.8-0.8-4,1-5.1,3c-1.4,2.5-3,4.7-6.4,4.6c-1.6,0-3.3,0.6-4.4,1.9
			c-1,1.2-2.8,2.2-1.9,4.2c1.1,2.4,2.9,0.3,4.4,0.5l0.2,0.1c-0.6,1.5-1.1,3.3-3.5,2.2c-1-0.4-2.3-0.2-2.3,1.1
			c-0.1,4.6-1.6,10.5,0.6,13.5c2.8,3.7,3.1,7.3,3.9,11.1c0.5,2.6,3.8,5.5,0,8.1c1.3,1.4,1.6,3.2,2,4.9c0.2,0.7,1.2,1.8,0,1.9
			c-2.9,0.1-3.2,2.3-4.3,4.1c-0.6,0.9-1.3,2-3.1,0c-2.6-3-7.3-0.9-8.3,3.1c0,0.4-0.1,0.8-0.1,1.1c-6.2-3.9-19.1,0.9-20.6,8.3
			c-1,5-3.5,8.8-6.3,12.6c-2.1,1.9-0.9,6.1-4.7,6.7c-4.1,0-6.6,3.7-10.5,4.3c-3.4,0.5-5.1,2.4-5.1,6.1c0.1,4.8-2,8-7.1,9.3
			c-2.2,0.6-6,0.8-5,5.3c0.3,1.3-1.6,2.1-2.4,2c-3.6-0.8-8.2,1.3-10.4-3.5c-0.9-1.8-2.7-1.4-3.9-0.8c-1.6,0.7-0.3,2.1,0.1,3
			c1.7,3.3,1.9,6.8,2,10.7c-4.9-0.9-10,2.4-14-2.4c-0.3-0.4-1.7-0.4-2.3,0c-2.1,1.3-4.4,1.2-6.7,1.6c-3.6,0.6-3.8,1.2-2,4.2
			c0.3,0.4,0.2,1.3,0,1.8c-1.3,3.3,0.3,4.1,3.3,4.8c7.5,1.9,16.1,2.6,17.5,13.1c0.3,1.9,1.9,4,4.1,4.8c3.1,1.1,3.8,3.5,3.9,6.2
			c0.2,8.3-1.3,16.4-2.8,24.5c-1.1,5.7-3.8,7.3-9.5,6.2c-3.7-0.7-7.5-1.6-11.2-1.4c-10.9,0.5-21.6-1.1-32.3-2.8
			c-1.6-0.3-3.5,0-4.2,0.8c-2.1,2.6-4.8,3.6-7.8,4.5c-2,0.6-2.7,2.4-1.1,4.8c1.4,2.1,3.8,4.4,2.8,7.1c-1.4,3.8-0.1,7.2,0.4,10.8
			c0.2,1.8,0.7,3.5,0.2,5.4c-1.5,5.7-2,11.7-5.3,17c-1.6,2.5-2.4,6.2,1,7.9c3.4,1.6,3.3,3.8,3,6.7c-0.2,2.3,0,4.7-0.1,7
			c0,1-0.2,2.4,1.1,2.3c3.6-0.2,7.5,2.5,10.9-0.8c0.3,0,0.6,0,0.9-0.1c5.6-0.9,7.4,2.7,9.2,7c2.3,5.7,4.7,6.1,8.8,2.1
			c0.9-0.9,2.1-1,3-1.6c5.1-3.1,10.8-2.3,16.4-2.6c3.1-0.2,7.1,0.6,9-2.5c2-3.2,3.8-5.5,7.9-6.7c3.6-1,2.5-6.8,5.8-9.1
			c0.7-0.5,1.4-0.9,2.1-1.4c1.7-1.1,2.2-2.1,0.5-3.9c-2.9-3-3.2-6.3-0.6-9.8c2.3-3.2,4.8-6.4,7.1-9.6c1.4-1.9,1.8-4.5,4.7-5.1
			c4.8-1,8.7-3.8,12.9-6.2c3.9-2.2,5.1-4.9,3.2-8.9c-0.2-0.6-0.5-1.1-0.7-1.7c-0.6-7.3,4.9-11.6,12.1-10.3c3.8,0.6,7.3,1.7,10.7,3.4
			c3.3,1.7,6.1,0.6,8.6-1.8c2-1.9,3.7-4.5,6.5-5.2c3.6-0.9,6.3-2.7,8.4-5.7c1.1-1.6,2.6-2.8,4.6-1.9c4.9,2.4,10.7,3.4,12.1,10.4
			c0.6,3,1.9,6.1,4.2,8.8c8.3,9.6,18.8,16.1,29.4,22.5c2.6,1.6,6.4,2.1,6.6,6.4c0,0.7,1.7,1.6,2.8,1.8c2.5,0.5,3.4,2,4.2,4.3
			c1.8,5.2,4.4,10.2-0.3,15.2c-0.9,1-2.2,2.6-0.1,3.7c1.8,1,2.4-1.1,3.5-1.8c3.1-2,2.3-6.2,5-8.2c3.7-2.7,3.9-4.9,0-7.3
			c-2.2-1.4-2.6-2.6-1.7-4.8c0.9-2.1,1.7-5.5,3.9-5.2c2.7,0.4,6.2,0.8,8,3.9c0.7,1.2,1.3,3.3,3.1,2.1c1.8-1.2,1.3-3.3-0.1-4.8
			c-1.6-1.7-3.2-3.3-5.2-4.6c-4.2-2.6-8.7-4.9-13.2-7.1c-1.3-0.6-3.1-1.2-1.6-3.2c2.5-3.3-0.2-3.2-2.2-3.2c-7.4,0-13.7-4-15.6-11
			c-1.6-5.9-4.8-10-10.1-12.8c-2.2-1.2-3.5-3-3.8-5.5c-0.5-3.7,1.8-7.4-0.1-11.1c-0.2-0.3,0.5-1.6,0.8-1.6c3.8-0.1,6.2-3.9,10.1-3.5
			c0.9,0.6,2.6,1.2,1.1,2.5c-3.3,2.8-0.3,5,0.6,7.3c0.5,1.3,1.7,1.5,2.7,0.1c0.9-1.4,1.4-3.8,2.5-4.1c4-1-0.5,2.8,1.6,3.2
			c0.2,0,0.3,0.1,0.5,0c2.5-0.8,2.3,0.9,2.2,2.4c-0.2,4.8,3.7,7.6,5.6,11.4c2.1,3.9,8.7,2.8,9.1,8.6c0.1,0.9,2,0.5,3.2,0.1
			c1.4-0.5,2.5-0.3,3.2,1.2c-1.4,0.9-3.6-0.5-4.8,1.7c2.3,0.3,4-0.6,6.1,0.3c6.5,2.8,12,6.8,17.1,11.5c0.8,0.7,1.4,1.3,1.2,2.5
			c-0.5,2.9-0.8,5.9-1.3,8.8c-0.6,3.5-0.9,6.9,2.8,9.1c1.5,0.9,2.1,2.5,1.9,4.3c-0.3,0-0.7,0-1,0c-0.1-0.1-0.3-0.2-0.4-0.2
			c0.1,0.1,0.3,0.1,0.4,0.2c0.3,0.6,0.7,0.6,1,0c0.7,0,1.3,0,2,0c0.3,4.8,3.8,6.4,7.7,7.5c0,1.7-2.8,0.1-2.2,1.9
			c1.2,3.2,3.1,5.8,7.6,5.7c-3.1,2.1-6.4,4.2-2.7,7.1c3,2.4,0.3,6,2.7,8.1c0.3,0.3,1.1,0.4,1.3,0.2c2.6-2.5,2.8,0.4,3.7,1.6
			c0.4,0.6,0.9,2.2,1.4,1.1c2-3.9,3.3,1.1,4.9,0.3c0.8-3-1.2-5.4-1.8-8.1c0.3-0.2,0.5-0.5,0.8-0.7c1.3-0.1,2.9,1.3,4-0.6
			c-0.7-1.5-3.8-2.6-2.1-4.4c2.3-2.5,4.7,0.3,7.1,1.2c0.6-2.5,0.8-4.5-1.5-5.9c0.9-4.5-3.3-6.2-5.1-9.1c1.3-1.4,0.6-1.8-0.9-1.8
			c0.3-2.4-1.6-4-2.7-5.5c-2.3-3-2.2-5.4-0.3-8.6c2.2,2.2,4.1,4.1,6.1,6.1c0.1,0.1,0.3,0.2,0.4,0.3c-0.1-0.1-0.3-0.1-0.4-0.2
			c0.7-2.4,4.2-3.5,3.2-6.9c-0.3-0.8,1.1-0.8,1.8-1.2c5.9-3.3,12-2,18.1-0.6c3.1,2.6,6.6,3.8,10,0.9c6.6-5.6,12.4-5.6,19.8,0.4
			c-3.2-0.2-4.9,2.5-6.9,3c-4.1,1.2-8.8,1.1-13.2,0.6c-6.6-0.9-7.7-0.7-9.4,5.4c-0.6,2.2-1.3,5.2,3,3.8c1-0.3,2.6-0.3,2.2,0.9
			c-1,3,2,5.3,0.8,8.2c-0.5,1.4,1.7,5.7-2.8,2.3c-0.2-0.2-1.1,0-1.2,0.2c-0.2,0.6-0.3,1.3-0.2,1.9c0.4,1.4,1.9,1.1,2.8,1.7
			c2.2,1.3,5.4,1.6,4.2,5.9c-0.5,1.8,1.6,6.1,2.8,6.2c3.7,0.3,6.1,3.7,9.9,3.2c2.1-0.2,3,1.4,4.1,3c2.8,4.2,10.2,4.1,11.4-0.3
			c1.5-5.5,5.3-4,8.1-3c2.8,1,5.8,2.6,7.8,5.2c1.6,2.1,3.7,2.3,6.3,1.9c4.4-0.8,8.3-2.1,11.1-5.9c1.2-1.6,2.8-2.3,4.8-1.1
			c2.8,1.7,5.6,2,8.1-0.7c0.7-0.8,1.7-1,2.6-0.1c0.9,1,0.5,1.9-0.3,2.6c-1.7,1.5-1.6,3.4-2,5.4c-0.9,4.7,1.2,9.4,0.2,13.7
			c-1.5,6.8,2.5,5.4,6.1,5.4c72.1,0,144.2,0,216.3,0C1122.5,464.7,1179,464.7,1235.5,464.7z M22.5,102.7c-0.3-0.3-0.7-0.7-1-1
			c0-0.8-0.2-1.6-1-2C18,94.5,18.1,88.9,19,82.3c-4.1,6-3.1,14.1,1.4,17.4c0,0.8,0.2,1.6,1,2C21.8,102,22.1,102.4,22.5,102.7
			c0.3,0.4,0.6,0.7,1,1c0.4,0.8,1.2,1,2,1c3.8,5.1,12.1,5.5,19,1c0.3-0.3,0.7-0.7,1-1c0.1-0.1,0.3-0.3,0.4-0.4
			c-0.1,0.1-0.3,0.3-0.4,0.4c-0.3,0.3-0.7,0.7-1,1c-6.4,1-12.8,2.2-19-1c-0.4-0.8-1.2-1-2-1C23.2,103.4,22.8,103,22.5,102.7z
			 M20.5,79.7c0.3-0.4,0.5-0.7,0.8-1.1c-0.1-0.1-0.3-0.2-0.4-0.3C20.7,78.8,20.6,79.3,20.5,79.7c-0.3,0.3-0.5,0.7-0.8,1
			c0.1,0.1,0.3,0.2,0.4,0.3C20.2,80.6,20.4,80.1,20.5,79.7z M43.5,63.7c0.8,0,1.6-0.2,2-1c0.4-0.1,0.9-0.3,1.3-0.4
			c-0.1-0.1-0.2-0.3-0.3-0.4c-0.4,0.3-0.7,0.5-1.1,0.8C44.7,62.7,43.9,62.9,43.5,63.7c-0.3,0.3-0.7,0.7-1,1c-6.1,0.1-12.2,0.4-18-2
			c-0.3-2.3-1.6-3.7-4-4c-2.5-6.6-2.5-13.2-1-20c0.8-0.1,1.6-0.1,1.5-1.2c0-0.1-0.2-0.3-0.3-0.3c-1.1-0.1-1.1,0.8-1.2,1.5
			c-4.5,6.5-4.1,14.6,1,20c0.3,2.3,1.7,3.7,4,4c4.9,4.7,12.5,5.5,18,2C42.8,64.4,43.2,64,43.5,63.7z M45.5,32.7c-0.7-1.2-1.9-1-3-1
			c-5.3-4.6-13.9-3.6-18,2c-0.1,0.1-0.2,0.1-0.3,0.2c-0.1,0-0.1,0.2-0.1,0.3c0.1-0.1,0.3-0.3,0.4-0.4c5.8-2.6,11.7-4.1,18-2
			C43.2,32.9,44.4,32.7,45.5,32.7c0.6,2.8,2.2,4.4,5,5c2.2,7.1,3.6,14.3-1,21.3c6-5.3,6.3-15.8,1-21.3C49.9,35,48.2,33.3,45.5,32.7z
			 M49.5,100.7c6.1-4.5,6.7-15.2,1-20c-0.2-3.8-2.2-5.8-6-6c-4.9-5.7-15.5-5.2-20,1c-0.4,0.1-0.9,0.3-1.3,0.4
			c0.1,0.1,0.2,0.3,0.2,0.4c0.4-0.3,0.7-0.5,1.1-0.8c6.5-3.5,13.2-4.1,20-1c1.6,2.4,3.6,4.4,6,6C53.6,87.5,53,94.2,49.5,100.7
			c-0.1,0-0.3,0.1-0.3,0.2c-0.1,0.1,0,0.2-0.1,0.3C49.2,101,49.4,100.9,49.5,100.7z M698.5,165.7c-7.6,1.4-9.7,7.2-6.7,14.8
			C696.9,177,696.1,170.7,698.5,165.7c0.3-0.2,0.7-0.3,1-0.5c-0.1,0-0.3-0.1-0.3-0.1C698.9,165.3,698.7,165.5,698.5,165.7z
			 M464.5,218.7c-4.2,2.3-8.6,3-13.4,3.1c-4.7,0.1-1.4,4.7-0.7,5.2c1.8,1.3,1.2,1.6,0,2.6c-3.4,3.2-2,5.2,1.8,6.3
			c1.5,0.5,3.1,0.8,5.2,1.3c-2.1,1.3-3.3,2.8-4.2,4.9c-1,2.5-1.2,5.3-3.2,7.4c-1.1,1.2-5,1.2-2.4,4.4c-3.9,4.2,2,3.5,2.7,5.4
			c0.1,0.1,0.3,0.3,0.4,0.4c4,2.3,7.6,0.6,10.9-1.5c3.9-2.5,7.8-5.7,12.3-6.2c5.3-0.5,6.3-3.7,7.7-7.7c1.8-5.1,0.5-9.9-0.7-14.6
			c-0.7-2.8-0.6-3.9,1.8-5.4c3.9-2.5,4.9-5.7,2.7-10.4c-2.4-5.1-5.6-7.3-11-6.3c-0.1-0.1-0.2-0.1-0.3-0.2c0.1,0.1,0.2,0.1,0.3,0.2
			c0,1.9-1.1,2.8-2.3,1.2c-1.5-2-3.1-1-4.8-1c-5.3,0.1-4.8,5.4-7.6,7.5C461.1,217.5,464.5,215.4,464.5,218.7L464.5,218.7z
			 M55.5,261.7c-3.3-2.1-6.5-0.2-7.9,1.9c-4.9,7.4-10.1,14.9-11.1,24.2h0c-1.1,0.1-1.9,0.6-2,1.8c-0.1,5.2-4.5,7.3-7.3,10.7
			c0.9,1.5,3.4-0.5,4.6,1.3c-1.6,1.5-3.3,2.8-4.8,4.3c-1.6,1.5-3.4,3.1-2,5.5c1.3,2.2,3.5,1.6,5.4,0.9c2.1-0.7,4.3-0.7,6.4-0.3
			c4.9,1,9.8,1.7,14.6-0.7c0.9-0.5,2.2-0.9,2.7,0.2c1.4,3.5,3.1,1.7,5,0.7c1.1-0.6,2.5-0.8,3.5-0.1c-1.9,2.2-3.7,4.5-5.8,6.4
			c-0.9,0.9-3.5,0.8-2.3,2.7c0.9,1.3,3.4,1,4.4-0.4c2.2-3.2,5-5.7,8.1-8c0.9-0.7,0.3-3.4,2.3-2.4c1.9,0.9,2.2,3.3,1.8,5.2
			c-0.4,1.6-1.4,3-2,4.5c-0.1,0.3,0.2,0.8,0.3,1.2c1.8,0.3,2.2-2.2,3.8-1.8c1.3,1.3-0.9,4.1,2,4.3c2.9,0.2,4.7-1.1,4.6-4.4
			c0-1.1,0.7-2.2,1.1-3.3c0.5-1.2,1.4-2.7,0.2-3.7c-1.4-1.2-1.6,1.9-3.1,1.4c-1.4-2.1,1-4.3,0.1-6.9c-1,1-1.7,1.7-2.5,2.3
			c-1,0.8-1.4,3.4-3.2,1.9c-0.7-0.5-0.5-3,0.2-4c1-1.6,2.1-3.4,4-4.4c0.9-0.5,2.2-1,1.5-2.4c-2.2-1.1-4.1,3.2-6.3,0.1
			c-1.9-2.7-1.1-4.5,1-6.7c1.8-1.9-0.3-5.2-3.2-4.8c-2,0.2-4.2-0.1-6.1,1.2c-3.7,2.5-6.3-2.9-9.9-1.7c-0.2-1.2-0.8-2.6,0.2-3.7
			c0.7-0.8,2.1-1.2,2.1-3.1c-2,0.7-3.9-1.2-5.6,0.1c-1.5,1.1-2.7,2.8-4.9,5.2c1-5,2.8-8.1,4.5-11.3c1.6-2.9,5.3-6.4,4.1-8.9
			C52.3,263.4,54.3,263.1,55.5,261.7c0.7-0.1,1.6-0.1,1.5-1.2c0-0.1-0.2-0.3-0.3-0.3C55.6,260.1,55.6,261,55.5,261.7z M328.5,22.7
			c-0.1-0.1-0.3-0.1-0.4-0.2C328.2,22.6,328.3,22.6,328.5,22.7c1.4,3.6-1.3,3.6-3.8,4c2.3,1.3,4.1,2.7,6.6,1.6
			c1.8-0.8,3.7-1.5,5.6-2.2c3.4-1.2,6.5,0.9,8.7,2.4c1.8,1.2-2,2.1-2.9,3.5c-0.9,1.4-1.4,2.3,0.8,2.7c1.1,0.2,2.3-0.5,3.5,1.1
			c-5.2,1.3-10.3,2.4-15.3,3.7c-1.1,0.3-3.3-0.1-3,1.8c0.4,2.4,2.3,0.8,3.6,0.6c5.2-0.8,9.9-0.7,12.9,4.8c0.7,1.3-1,4.1,2.2,4l0,0
			c0.1,3-1.7,4.8-3.9,6.5c-1.2,0.9-4.2-0.2-3.7,2.2c0.5,2.3,3.1,1,4.8,1.3c1.3,0.2,3,0.5,3.9-0.1c4.2-3.1,7.4,0.4,9,2.6
			c3.4,4.4,8.2,4.1,12.4,5.3c4.7,1.3,9.2,0.1,11.6-5.1c0.2-0.3,0.8-0.5,1.3-0.6c5.5-1.4,10.5-3.6,14.5-7.9c1.4-1.5,3.7-2.5,5.8-2.8
			c7-1.2,8.1-8.1,12.1-12.2c2-2,0.6-5.9,1-8.6c0.7-4.4-0.7-5.8-4.1-6.9c-0.4-0.1-0.6-0.8-1-1.1c-6.4-5.6-6.4-5.6-15.7-5.6
			c-3.7,0-7.3,0.1-11,0c-3.3-0.1-6.6-0.6-5.5,4.6c-1.9-0.4-1.5-2-2.3-2.8c-2-2.1-8-2.8-8.8-0.6c-1.4,4.1-2.7,2.1-4.1,0.3
			c-0.8-1-1.6-1.7-2.9-1.3c-1.5,0.4-1.2,1.7-1.3,2.9c-0.1,1.4,0.2,4.2-0.6,4.1c-4.9-0.8-4.4,3.7-6.2,6.5c-1-3.4-5.1-5.3-2.7-8.9
			c2.4-3.7,0.3-4.3-2.6-4.7c-3.7-0.5-7.4,1.5-11.2,0.1c-1.4-0.5-3.4-0.6-4.9,1.3c-1.9,2.5,2.4,2.3,1.6,4.1
			C331.2,24.2,330,22.5,328.5,22.7z M485.5,175.7c1.7,1.1,1.3,2.7,0.5,3.8c-1.1,1.6-1.4,3.6-3,5c-1,0.8-2.5,1.9-0.6,3.9
			c2.4,2.5,2.6-0.6,3.7-1.1c0.9-0.3,1.6-1.1,2.4-1.6l0,0c-1.1,6.5-2.2,13-3.4,19.5c0.4-2.4,5.3,0.1,4.2-3.6
			c-1.7-5.6-1.6-5.6,3.9-5.4c0.8,5.7,0.5,11.3-2.5,16.5c-0.6,1,0.6,1.5,2.2,1.5c4.6,0.3,8.8-1,13.6-2.8c-2.8,6.1-3.2,9.2-0.1,11
			c5.9,3.3,1.1,7.7,2.1,11.5c0.1,0.4-1,1.7-1.5,1.6c-3.4-0.1-6.8,2.2-10.6-0.5c1.6,2.7,1,4.9-0.7,6.8c-0.1,0.1-0.1,0.2-0.2,0.3
			c0.1-0.1,0.1-0.3,0.2-0.4c1.4,0.3,3.6-0.9,4,1.7c0.4,2.8,0.9,5.8-1.9,7.7c-1.9,1.3-4.1,2.1-6.2,3.1c-1.2,0.6-1.8,1.5-1.1,2.8
			c0.6,1.2,1.5,3,2.8,2.1c3.2-2.5,5.5-0.3,7.5,1.2c3.4,2.4,6.4,2.8,9.8,0.4c0.1,0.1,0.3,0.3,0.4,0.4c-1.4,3.2-3.2,5.3-7.2,4
			c-3.2-1-5.7,1.1-7,3.5c-2.4,4.4-5.8,7.9-9.7,11.2c2.2,1.6,3.6,0.8,5.4-0.6c2.2-1.9,4.8-3.3,7.8-2c2.4,1.1,3.6,0.5,4.5-1.9
			c1.4-3.4,4.2-4.1,7.3-2.6c2.1,1,3.7,0.6,6,0c3.2-0.9,6.2-2.4,10-2c5.4,0.6,11.4,1.4,16.1-3c1-1,2.9-1.6,2.5-3.4
			c-0.4-1.8-2.2-1-3.4-1.2c-2.2-0.3-3.9,0-1.2-3.1c1.9-2.1,4.3-4,5.7-6.5c1.6-3.1,3.6-6.5,1-9.7c-2.5-3.1-6-4-9.8-1.8
			c-0.8,0.5-1.4,1-2.2,0.3c-1.2-0.9-0.4-1.8,0.2-2.5c1.2-1.6,1-3.5-0.2-4.6c-2.6-2.2-2.5-5.3-2.7-8c-0.3-4.2-2.7-7.1-5.6-8.9
			c-3.7-2.3-5.3-5.3-6-9.2c-0.7-3.8-2-7.1-4.7-10.2c-3.1-3.5-6.7-3.2-10.8-2.5c0.6-2.4,2-3.2,3.6-3.7c3-1.1-1.3-2.8,0.2-3.9
			c4.8-3.5,5.6-9.2,7.8-14.2c1.6-3.6,0.5-5.4-3.3-5c-5,0.5-10-1.3-14.4,1.2c-1.2-5,1.7-7.4,4.5-10.1c1-0.9,1.9-1.9,2.7-2.9
			c0.7-1,1-2.2,0.2-3.3c-0.7-1-1.8-0.4-2.8-0.3c-4.1,0.5-8,2.4-12.2,1.1c-1.4-0.5-1.8,1.1-2.1,2.2c-0.6,2.9-1.3,7-2.6,8.2
			C484.5,168.8,485.4,172.1,485.5,175.7c-2.3,0.4-3.8-0.1-4-2.8c-0.1-1,0.4-2.8-1.4-2.4c-1.1,0.3-2.8,1.7-2.8,2.4
			c0.4,2.8,3,3.8,5.1,5.1C484.9,179.4,485,177.2,485.5,175.7z M102.5,79.7L102.5,79.7c0.5,3.2-1.5,7.1,2,9.2c2.6,1.6,4.4,3,3.3,6.3
			c2.4,0.4,3.7-2.6,5.9-1.1c-1.1,1.5-3.2,2.3-3.2,4.7c0.1,4.7,7.9,14.4,12.5,15c-0.5,1.4-3.5,1.9-1.6,3.9c1.6,1.7,2.1-0.6,3-1.2
			c0.8-0.6,1.5-0.5,2.3-0.2c2.7,1,4.6-0.1,6.7-1.8c1.9-1.6,4.4-2.5,6.6-5c-2.4,11-2.4,11,6.8,13.9c-0.8,0.9-2.2,1.8-2.1,2.5
			c0.7,4.7,6.2,3.6,8.6,6.4c0.5,0.6,3.2,3,4.1-0.6l0,0c2.1-0.3,4.9,0.9,5.9-2.3c1.7-5.4-3.4-6-6.4-8.7c4.8,1.9,8.6,1.3,10-3.5
			c1.3-4.6,2.5-9.5,2.2-14.1c-0.2-3.1,3.3-4.1,2.2-6.9c-1-2.4-0.8-4.8-0.1-7.3c0.6-2.2,0.3-4.3-2.9-4.6c-1-0.1-2.4-0.4-2.4-2.4
			c3.4-1.2,11.7,3.3,8.5-6.4l0,0c3.5,0.5,5.2-1.3,6-4.5c0.5-1.7,0.9-3.5,2.3-4.9c1.9-1.9,2.5-4,2-7.1c-0.5-3.2-1.4-4.3-4.5-4.5
			c-0.7,0-2.4-1.1-2-2.8c0.4-0.1,0.8-0.2,1.1-0.1c4,1.9,6.7-0.5,8.7-3.2c1.4-1.9-2.3-7.4-5.2-8.2c-2-0.6-1.9-2.3-1.9-3.5
			c0-1.6,1.7-1.1,2.8-1.1c0.8,0,1.7,0.1,2.4,0.4c3.3,1.4,4.2-1.4,5.8-3.2c1.9-2.1,0.5-2.9-0.9-4.3c-2.3-2.1-0.4-2.7,1.4-2.9
			c2.9-0.4,5.9-0.7,8.9-1.1c2-0.3,4.3-0.7,4-3.4c-0.3-2.2-1.9-3.4-4.2-3.5c-1,0-2,0-3,0c-38.4,0-76.9,0-115.3,0
			c-1.2,0-2.3-0.1-3.5,0.1c-2.4,0.4-2.3,2.6-2.7,4.2c-0.4,1.6,0.1,3,1.9,3.5c3.5,0.9,5.1,1.7,5.6,6.7c0.5,5.7,2.4,11.5,2.4,17.4
			c0,1,0.3,2.2,1.3,2.5c1.8,0.6,1.5-1.3,2-2.1c1.8-2.9,1.9-8,7.6-5.3l0,0c-0.1,1.5-1.1,1.7-2.3,2.1c-3.9,1-4.8,5.1-4.1,7.5
			c0.6,2.4,3.8-0.3,5.8-0.5c0.2,0,0.3-0.1,0.5-0.1c1.1,0.1,2.3-2.6,3.2-0.4c1,2.4-2,2.1-2.8,2.2c-5,0.7-7.5,4.2-5.8,8.1
			C94.5,69.3,96.4,76,102.5,79.7z M477.8,464.7c2.1,0,3.6,0,5,0c39.1,0,78.2,0,117.3,0c6,0,12,0.1,18,0c6.2-0.2,14-9.5,10.7-13.2
			c-4.3-5-5.2-8.5,0-12.8c0.6-0.5,0.8-1.6,0.1-2.3c-1.1-1-1.8,0.1-2.5,0.8c-1.3,1.1-2.2,1.8-3.5-0.2c-2.6-4.2-6.4-5-10.8-2.4
			c-4,2.4-7.8,2.6-12.5,1.8c-3.8-0.6-8.2-0.6-12.3,0.5c-3,0.8-5.9,4.1-9.2,1.9c-4.4-2.9-8.7-2.2-13.4-1.1
			c-5.4,1.3-10.6,3.4-16.5,3.2c-4.6-0.2-8.7,2-12,5.3c-1.2,1.2-2.2,2.6-4.1,2.5c-3.5-0.3-5.9,1.6-8.3,3.9c-3.6,3.6-8,5.1-12.6,3
			c-4.1-1.8-8.1-1.1-11.9-0.5c-4.7,0.8-7.6-0.8-10.1-4.4c-0.7-1-0.7-2.8-2.6-2.5c-1.9,0.3-3.2,1.2-3.9,3.3
			C481.6,455.7,479.8,459.7,477.8,464.7z M33.3,222.1c0.2-1.5,1.6-1.5,2.6-2.1c1.4-0.7,3.8,0.1,4.1-2.1c0.2-1.8-2.2-2.1-3.2-3.5
			c-0.9-1.2-1.8-1.5-3.3-0.5c-2.4,1.5-4-0.1-5.3-2c-0.6-0.9-0.6-3.1-1.6-2.8c-4.2,1.1-7.5-4.2-12.1-0.6c1.8-5.7,0.2-11.4-3.1-11.2
			c-3.6,0.2-4.6-1.8-5.8-4.4c-1.6,1.8-1,3.6-1,5.1c-0.1,11.3,0,22.7,0,34c0,14,0,28,0,42c0,1.6-0.8,4.6,1.7,4.4
			c4.8-0.4,9.9,1.1,14.4-3c3-2.8,5.8-5.8,8.5-9c1.3-1.5,2.6-2.5,4.8-2.9c7-1.5,14-3,19.2-8.8c2.9-3.3,1.6-5.4-0.6-7.9
			c-0.3-0.3-1.8-0.5-0.8-0.8c4.9-1.2,1.4-4.6,2.1-6.8c1.5-4.7-2.2-6.6-4.9-8.8c-2.5-1.9-4.6,0-6.5,1.7c-0.7,0.7-1.5,0.4-2.2-0.3
			C44.4,226.2,42.7,223.9,33.3,222.1z M668.3,422.8c-1.2,0-1.8,0-2.4,0c-4.1,0.1-7.8,2.8-12.1,2.1c-2.9-0.5-5.4-2.1-8.8-1
			c-1.6,0.6-2.6,1-3,2.4c-0.6,1.8,0.7,2.6,2.2,3.2c5.4,2.3,10.8,4.5,15.4,8.2c2.6,2,6.6,0.5,5.7-2.2
			C663.7,430.7,666.2,427.1,668.3,422.8z M618.4,395.8c-0.8-1.5-0.5-5.6-3.7-5.8c-3.4-0.2-5.8,4-9.5,4.3c0.1,0.5,0,1.1,0.2,1.4
			c3.1,4.4,2.5,9,1.5,13.9c-0.4,1.9,0.4,3.7,2.1,4.7c1.8,1.1,2.7-0.3,3.4-1.7c0.5-0.9,1.3-0.8,2.2-0.6c2.3,0.7,2.6-0.9,2.7-2.4
			C617.7,405.4,618,401.1,618.4,395.8z M4.7,340.3c0,0.2-0.7,2,1.3,2.2c2.1,0.2,1.5-1,1.3-2.5c-0.2-2.2,1.9-2.3,3.6-2.2
			c3.3,0.2,5.8-1.3,7.7-3.8c1-1.2,1.3-2.6-0.6-3.1c-3.9-1-4-3.3-2.7-6.4c0.4-1.1,0.1-2.4-1.1-3.1c-1.4-0.8-2.3,0.2-2.9,1.2
			C8.3,327.7,4.6,332.8,4.7,340.3z M615.8,369.1c-1,1.1-1.5,2.1-2.4,2.7c-5,3.8-5.7,6.8-2.9,12.3c0.5,1.1,1.1,2.2,2.4,2.3
			c1.8,0.1,1.9-1.6,2.3-2.8C617,379.2,617.1,374.5,615.8,369.1z M760.8,455.2c-1.6-1.2-2.9,0.7-4.3-0.2c-5-3.1-11.2-0.9-16.3-3.8
			c-1.1-0.6-2.8-0.2-3,1.5c-0.1,1.5,1.1,1.7,2.4,1.9c2.9,0.4,5.6,1.3,8.4,2.4C752.3,458.7,756.7,456.8,760.8,455.2z M827.7,452.1
			c-4,0.9-8,1.7-11.9,2.7c-1.6,0.4-3.4,1.4-2.9,3.4c0.4,1.7,2.1,2.3,3.9,2.6c3.7,0.6,6-2.5,9.2-3.3
			C828.2,456.9,826.2,453.7,827.7,452.1z M734.9,155.3c-4.1-1.7-8.5-1.3-11.4,1c-3.4,2.6,2.4,5.5,1.3,9
			C726,159.6,733.5,160.5,734.9,155.3z M35.8,40.3c0.2,6.3-2.8,8.3-9.3,7.5c3.5,2.4,6.1,0.8,7.7,2.5c1.5,1.6-0.4,4.2,3.1,7.3
			c-3.8-9.1,2.7-7.8,7-9.2C38.8,48.5,34.8,47.7,35.8,40.3z M215.1,17.7C215.1,17.7,215.1,17.7,215.1,17.7c-1.2,0-2.3-0.1-3.5,0.1
			c-3.3,0.5-2.1,4.1-3.8,5.8c-0.1,0.1,0.4,1.4,0.8,1.5c2.1,0.7,3.6-0.5,4.5-2.1c1-1.7,2-2.4,4-1.6c1.7,0.7,2.5-0.7,2.7-2.1
			c0.2-2.2-1.7-1.4-2.8-1.6C216.5,17.6,215.8,17.7,215.1,17.7z M475.3,167.5c4.2-2.5,4.9-6.3,6.1-10.3
			C474.5,159.3,473.3,161.3,475.3,167.5z M555.8,407.7c2.7-0.5,4.3,5.7,7.4,1c1-1.5,1-2.4-0.7-3.6C559,402.3,557.9,406,555.8,407.7z
			 M28.2,90.1c0,0.4,0,0.9,0.1,1.3c4.9,0,9.8,0.5,14.7-1.3C38,90.1,33.1,90.1,28.2,90.1z M523.7,131.4c2.3-7,2.3-7-1.7-9.9
			C521.4,124.9,522.1,128,523.7,131.4z M729.3,146.9c-1.1,0.8-3.5,0.3-3.3,2.1c0.1,1.3,1.2,3.3,3,3.5c1.6,0.1,2.9-1.1,3.1-2.6
			C732.3,148.2,730.9,147.4,729.3,146.9z M757.2,411.8c2,0.2,2.6,3.9,5.3,2c0.8-0.6,0.5-1.4,0-2.2
			C760.8,409.2,759.1,410.5,757.2,411.8z M474.8,90.1c-1.4,0.1-1.3,1.2-1.3,2.1c-0.1,1.5,0.6,2.7,2.1,2.8c1.1,0.1,1.5-1.2,1.6-2.1
			C477.2,91.4,476.1,90.7,474.8,90.1z M740,402.4l0.2-0.3l-0.3,0L740,402.4z"/>
		<path fill="#E5E5E5" d="M706.5,406.7c0.2-1.8-0.4-3.4-1.9-4.3c-3.7-2.3-3.4-5.6-2.8-9.1c0.5-2.9,0.8-5.9,1.3-8.8
			c0.2-1.2-0.4-1.8-1.2-2.5c-5.1-4.7-10.6-8.7-17.1-11.5c-2.1-0.9-3.8,0-6.1-0.3c1.2-2.2,3.4-0.8,4.8-1.7c-0.7-1.5-1.8-1.7-3.2-1.2
			c-1.1,0.4-3.1,0.8-3.2-0.1c-0.4-5.8-7.1-4.8-9.1-8.6c-2-3.7-5.9-6.6-5.6-11.4c0.1-1.5,0.3-3.2-2.2-2.4c-0.1,0-0.3,0-0.5,0
			c-2.1-0.4,2.3-4.2-1.6-3.2c-1.1,0.3-1.7,2.7-2.5,4.1c-0.9,1.5-2.2,1.2-2.7-0.1c-0.9-2.3-3.9-4.5-0.6-7.3c1.5-1.3-0.2-1.9-1.1-2.5
			c-0.2-1.6,0-3.4-0.6-4.8c-1.7-3.7,1.3-4.6,3.1-4.1c5.6,1.4,10-2,15-2.9c4-0.7,7.4-3,7.8-8.1c0.1-1.7-1.1-6,3.8-4.6
			c0.9,0.3,0.9-1.6,0.9-2.5c0.1-3.1-2.6-5.7-1.9-9c0.1-0.3-2.1-1.8-2.8-1.5c-2.6,1.1-4.5-0.6-6.6-1.3c-3.1-1.1-6.2-2.4-8.2,1.7
			c-0.8,1.5-2.8,2.2-3.8,1.8c-3.6-1.2-5.9,1-8.6,2.4c0,0,0,0,0,0c0.1-0.7,0-1.7,0.4-1.9c4.1-2.4,2.9-4.5-0.3-6.3
			c-5.7-3.4-7.6-9.3-10.2-14.8c-0.8-1.7,0.1-2,1.3-2.3c7.4-1.5,12.2-9.4,20.7-8.2c0.3,0,0.8-0.9,1.1-1.4c1-2.4,1.5-4.7-0.4-7
			c-1.1-1.3-2-2.8-1.7-4.5c0.7-5,0.3-9.6-3.4-13.4c-0.6-0.6-1-1.7-0.4-2.3c3-3.1,1-6.6,0.8-9.9c0.5-0.1,1.4-0.4,1.4-0.4
			c-1.1-4.8,2.9-5.2,5.6-5.9c6.4-1.5,11.5-5.4,17.1-8.4c2.7-1.5,5.5-2.1,8.5-2.3c1.8-0.1,3.1,0.2,3.8,2.3c0.8,2.4,2,5.1,5.1,4.6
			c3.1-0.5,6.4-1.7,7.2-5.3c1.1-4.5,3.7-4.9,7.3-3.2c2.6,1.2,3.9,0.1,4-2.4c0.1-2.1,0.4-4.5-0.4-6.4c-2.3-5.7-2-11.6-1.3-17.3
			c0.6-4.5,2.6-9.2,5.2-13c3.6-5.3,9.1-4,13,3c1.5,2.7,2.8,5.5,6.1,4.1c3.2-1.3,5.2-4.2,4.4-8.1c-0.5-2.4-0.9-4.7-0.1-7.3
			c0.8-2.5,3.3-6.6-3.1-5.4c-0.6,0.1-1.7-1-2.2-1.8c-0.7-0.9-1.2-2-1.5-3.1c-2.3-9-0.1-12.2,9.1-14.9c7-2,13.4-2.8,20.4,0.5
			c2.9,1.4,8.6,3.1,9.7-3.6c4.8-0.5,7.9-6.4,13.4-4.4c1.1,0.4,2.2,0.7,3.5,0.3c-1-3-2.4-4.9-6-4.8c-4,0.2-6.5-2-6.7-6.1
			c-0.1-1.9-1-1.9-2.2-1.5c-1.4,0.6-2.9,0.7-4.4,0.7c0.6-0.8,1.1-1.7,1.8-2.4c9.4-9,17.2-19.3,24.7-29.8c6.1-8.4,5.8-11.5-2-18.6
			c-0.7-0.7-1.7-1.1-2.4-1.8c-2.5-2.4-5.2-4.5-1.5-8.4c2.2-2.4,2.4-5.8-0.7-8.4c-1.8-1.5-2.7-3.4-1.6-5.7c0.4-0.8,0.7-1.9,0-2.3
			c-6.5-3.8-2-9.5-2.7-14.3c-0.6-4.1,5.1-6.8,2-11.2c12.2-0.1,24.3,0,36.5-0.2c4.8-0.1,5.9,2.9,4.4,6c-2.2,4.6-1.9,8.6,0.3,12.9
			c0.7,1.4,1.1,3.2,1,4.8c-0.3,5.3,0.8,9.2,7.2,9.6c1.2,0.1,2.7,1.6,3.3,2.8c1.6,3.9,5.1,4.7,8.4,6.4c3.3,1.8,5.2,0.1,7.5-1.4
			c2.7-1.9,0.9-4.2,0.7-6.3c-0.2-1.8-1.2-2.9-3-2.7c-4,0.4-5.1-2.5-7.2-5c-3.4-4-0.1-6.9,0.9-9.9c0.8-2.2,3.3-0.6,4.1,0.5
			c4.3,5.7,11.6,6.2,16.8,10.1c1.7,1.3,2.8-0.1,4.5-0.7c7.7-3.1,3.4-6.9,1.1-10.4c-3.1-4.6-2-7.7,1.8-11.6c3.8-4,7.6-5.2,13-5.2
			c114,0.1,228,0.1,341.9,0.1c0,149,0,298,0,447c-56.5,0-113,0-169.4,0c-72.1,0-144.2,0-216.3,0c-3.6,0-7.6,1.4-6.1-5.4
			c1-4.3-1.1-9-0.2-13.7c0.4-2,0.3-3.9,2-5.4c0.8-0.7,1.2-1.6,0.3-2.6c-0.9-0.9-1.8-0.8-2.6,0.1c-2.5,2.7-5.3,2.4-8.1,0.7
			c-2-1.2-3.6-0.5-4.8,1.1c-2.8,3.7-6.7,5.1-11.1,5.9c-2.6,0.4-4.6,0.2-6.3-1.9c-2-2.6-5-4.2-7.8-5.2c-2.8-1-6.6-2.5-8.1,3
			c-1.2,4.5-8.6,4.5-11.4,0.3c-1.1-1.6-1.9-3.3-4.1-3c-3.8,0.4-6.2-2.9-9.9-3.2c-1.2-0.1-3.2-4.4-2.8-6.2c1.2-4.4-2-4.6-4.2-5.9
			c-1-0.6-2.5-0.3-2.8-1.7c-0.2-0.6,0-1.3,0.2-1.9c0.1-0.2,0.9-0.4,1.2-0.2c4.5,3.3,2.2-1,2.8-2.3c1.1-2.9-1.9-5.2-0.8-8.2
			c0.4-1.2-1.2-1.2-2.2-0.9c-4.3,1.4-3.6-1.5-3-3.8c1.6-6,2.7-6.2,9.4-5.4c4.3,0.6,9,0.6,13.2-0.6c2-0.6,3.8-3.2,6.9-3
			c-7.4-6.1-13.2-6-19.8-0.4c-3.4,2.9-6.9,1.6-10-0.9c-0.3-3.7,6.2-6.5,1.4-10.9c0,0,0.2-0.6,0.5-0.8c2.7-1.5,5-4.7,8.6-2.6
			c1.8,1,3.4,0.8,5.2,0.7c0.5,4.4,3.5,6.8,7.2,8.1c6.3,2.2,13.2,0.8,19.7,2.2c1.3,0.3,1.9-0.9,2.9-1.6c10.4-7.7,21.3-12.7,34-5.2
			c0.6,0.3,1.3,0.8,1.8,0.6c2.6-0.8,4.4-0.5,5.1,2.6c0.3,1.5,1.9,1.8,3.3,1.2c1.2-0.6,2.2-0.1,3.3,0.4c6,3.2,12.2,4.9,18.9,2.8
			c1.1-0.3,2.1-0.6,3.4-0.2c6.1,1.8,15.3-1.9,18.4-7.2c0.5-0.8,1-1.9,0.9-2.8c-1.3-5.9-3.1-11.5-9.7-13.8c-1.4-0.5-2.5-1.6-3.8-2.2
			c-4.4-2.2-6.5-7.1-10.5-9.8c-6.3-4.2-13.3-7.4-19.6-13.5c6.2,0.4,8.6-3.2,10-7.8c0.7-2.1,3.3-1.4,4.4-3.3
			c-0.6-0.6-1.1-1.5-1.8-2.1c-2.3-1.8-3.8-3.1,0.5-4.3c2.4-0.7,4.1-3.1,6.7-3.9c1.3-0.4,2.5-1.4,1.8-3c-0.7-1.5-1.9-0.5-3-0.4
			c-10.5,1.4-20.1,5.8-29.7,9.8c-3.6,1.5-5.9,3.1-4.5,7.3c1.8,5.4,4.1,7,9.2,5.9c1.4-0.3,2.9-1.3,4,0.3c0.3,0.5,0,1.6-0.3,2.3
			c-0.8,2-2.6,1.9-4.2,1.5c-1.4-0.3-2.8-1.2-4.2-0.1c-3.2,2.6-7.9,2.5-10.5,6.2c-1,1.5-3,1.3-4.6,0.7c-2-0.8-1.1-2.3-0.9-3.8
			c0.4-2,0.4-3.9-2.2-4.9c-1.9-0.7-5.1-1.5-5-3.2c0.1-2.2,3.1-3,5.2-3.9c0.3-0.1,0.7-0.2,0.9-0.4c0.6-0.7,1.6-1.5,1.7-2.3
			c0.1-1.3-1.4-1.1-2.2-1.5c-2.3-1-4.5-0.5-6.8-0.1c-2,0.4-4.2-0.7-5.1-2.5c-1.2-2.3,2.1-1.5,2.8-2.7c-5.5-3.7-11.6-2.3-14.4,3.2
			c-1.2,2.4-2.7,4.9-5.3,5.6c-3.5,0.9-3.6,3.3-3.6,6c-1.2,0-2.4-0.3-3.5,0c-8.6,1.6-9.7,0.9-9.5-7.8c0-1.5,0.1-3,0.6-4.4
			c0.9-2.8,0.4-5.7-1.2-7.6c-3.6-4.4-6.4-9.3-8.9-14.4c-1.2-2.4-3.9-2.8-4.9-1.3c-2.8,4.3-8.2,2.4-11.3,5.6
			c-0.6,0.7-1.7,0.8-2.2,0.1c-2.5-3.5-6.5-2-9.7-2.9c-6-1.6-12.3,2.4-15.5,7.9c-3.4,5.9-4.1,14.5-13.8,15.3c4,4,6.6,8.4,9.6,12.3
			c2.7,3.5,3.9,6.5,8.9,5c0.9-0.3,2.7,0.4,2,1.2c-2.6,3,1.9,3.7,1.6,5.8c0,0,0,0,0,0c-4.7,2.1-5.2,4-1.5,7.9
			c2.4,2.5,3.2,4.2,0.1,6.8c-2.9,2.5-2.4,5.9-0.3,8.7c1.1,1.5,2.9,2.7,2.6,4.5c-0.6,4.4,2.2,3.4,4.5,3c1.9-0.3,3.8-1,5.7-1.5
			c1.7-0.4,3.4-1,3.8,1.6l0-0.1c-8.1-0.7-15.4,2.7-22.9,4.8c-2.5,0.7-6.5,0.9-7.5,3c-2.1,4.5-5.6,7.9-7.7,12.2
			C707.8,406.7,707.1,406.7,706.5,406.7C706.5,406.7,706.5,406.7,706.5,406.7z M992,410.1c0.6-2.1,3.6-0.7,3-3.2
			c-0.4-2.1-1.5-3.5-3.8-4.1c-5.1-1.4-2.2-4.8-1.8-7.6c0.6-4.5,2.7-0.8,4.1-0.6c2.1,0.2,4.2,0.9,6.3,1c2.3,0.1,4.2-1.5,5.2-3.1
			c1-1.7-1.2-2.9-2.3-3.9c-1.9-1.8-3.2-3.6-3.7-6.3c-0.4-2.3-1.9-4-4.6-3.5c-2.6,0.4-4.9,1.2-5.1,4.5c0,1,0.5,2.4-1.3,3
			c-2.5-2.8-1.9-6.1-1.2-9.3c0.7-3.3,1.5-5.8-3.5-6.7c-2.9-0.5-5.5-3.1-7.3-6.4c-2.2-3.8-2.2-9.3-7.6-10.9c-0.8-0.2-1.1-1.3-0.7-2.2
			c0.5-1.2,1.6-1,2.5-1c2.1-0.1,4.2,2,6.4,0.5c-0.1-2.2-3.9-2.5-1.9-5.6c1.7-2.6,3.2-4.3,6.6-4c3.5,0.3,7,0.1,11,0.1
			c-3.5-2.1-3.1-4.4-1.5-7.6c1.3-2.5,1.2-5.8,1.1-8.7c-0.1-2-1.6-4.3-3.9-3.5c-4.4,1.4-8,0.2-11.8-1.7c-0.7-0.3-1.7-0.4-2.4-0.1
			c-5.1,2.2-11.1,4.5-14.5,8c-6.9,7-18,9.8-21.3,20.5c-0.1,0.4-0.7,0.7-1,1.1c-0.9,1.3-0.8,2.7,0.5,3.5c5.4,3.1,5.2,8.5,5.7,13.5
			c0.4,3.2,1,6.1,3.1,8.7c3.6,4.5,7.3,9.1,10.2,14.1c2,3.6,3.8,6.9,7.9,8.4c0.8,0.3,1.6,0.8,1.6,1.7c-0.1,1.1-1.1,1.1-1.9,1.1
			c-3.3,0-3.9,2.4-4.7,4.8c-0.9,2.6-0.1,5.7-2,8c-3.2,3.7-3.2,13.3,0.1,16.7c1.1,1.2,2.5,1.6,4.1,1.5c2.1-0.1,3.8,0.6,5.2,2.4
			c5.1,6.6,12.1,7.4,19.7,6.1c3.7-0.6,7.1-2.6,11.1-1.8c2,0.4,1.7-1.3,1.4-2.7c-1-5.2-1.9-10.3-0.7-15.7
			C999.3,414.5,997,411.1,992,410.1z"/>
		<path fill="#88C6E0" d="M657.4,230.7c0.2,3.3,2.2,6.8-0.8,9.9c-0.6,0.6-0.2,1.6,0.4,2.3c3.7,3.8,4.1,8.4,3.4,13.4
			c-0.3,1.8,0.6,3.2,1.7,4.5c1.9,2.3,1.4,4.6,0.4,7c-0.2,0.6-0.8,1.5-1.1,1.4c-8.5-1.2-13.3,6.8-20.7,8.2c-1.3,0.3-2.1,0.6-1.3,2.3
			c2.6,5.5,4.5,11.4,10.2,14.8c3.2,1.9,4.4,4,0.3,6.3c-0.4,0.2-0.3,1.2-0.4,1.9c-1.3,0.2-2.4,0.7-3,2c-5.9,2.3,0.2,4.6,0,7
			c0.1,0.1,0.3,0.2,0.4,0.3c-0.1-0.1-0.3-0.1-0.4-0.2c0.6-2.3-1.9-4.7,0-7c1.4-0.1,2.9-0.1,3-2c2.7-1.4,5-3.6,8.6-2.4
			c1,0.3,3-0.3,3.8-1.8c2.1-4,5.1-2.8,8.2-1.7c2.1,0.8,4,2.4,6.6,1.3c0.7-0.3,2.8,1.2,2.8,1.5c-0.7,3.3,2,5.9,1.9,9
			c0,0.9-0.1,2.8-0.9,2.5c-4.9-1.4-3.7,2.9-3.8,4.6c-0.4,5.1-3.8,7.4-7.8,8.1c-5,0.9-9.4,4.3-15,2.9c-1.9-0.5-4.9,0.4-3.1,4.1
			c0.6,1.4,0.4,3.2,0.6,4.8c-3.9-0.4-6.4,3.4-10.1,3.5c-0.3,0-1,1.3-0.8,1.6c2,3.7-0.4,7.4,0.1,11.1c0.3,2.5,1.6,4.3,3.8,5.5
			c5.3,2.7,8.5,6.8,10.1,12.8c1.9,7.1,8.2,11.1,15.6,11c1.9,0,4.7-0.1,2.2,3.2c-1.5,2,0.3,2.6,1.6,3.2c4.5,2.2,8.9,4.4,13.2,7.1
			c2,1.3,3.6,2.9,5.2,4.6c1.5,1.5,1.9,3.6,0.1,4.8c-1.8,1.3-2.4-0.9-3.1-2.1c-1.8-3.1-5.3-3.5-8-3.9c-2.2-0.3-3,3.1-3.9,5.2
			c-0.9,2.2-0.5,3.5,1.7,4.8c3.9,2.4,3.7,4.6,0,7.3c-2.7,2-1.9,6.2-5,8.2c-1.2,0.7-1.7,2.8-3.5,1.8c-2.1-1.1-0.8-2.8,0.1-3.7
			c4.7-5.1,2.1-10.1,0.3-15.2c-0.8-2.2-1.7-3.8-4.2-4.3c-1-0.2-2.7-1.2-2.8-1.8c-0.2-4.3-4-4.8-6.6-6.4c-10.6-6.5-21.1-13-29.4-22.5
			c-2.3-2.7-3.6-5.8-4.2-8.8c-1.4-7-7.1-8-12.1-10.4c-2.1-1-3.5,0.3-4.6,1.9c-2.1,3-4.8,4.8-8.4,5.7c-2.8,0.7-4.5,3.3-6.5,5.2
			c-2.5,2.4-5.3,3.5-8.6,1.8c-3.4-1.7-6.8-2.8-10.7-3.4c-7.2-1.2-12.7,3-12.1,10.3c-0.8,0.7-1.6,1.3-2.3,2c-4.3,0.3-8-2.3-12-3
			c-1.8-1.7-3.4-3.9-6-1c-2.3,0-4.7,0-7,0c-1.1-1.4-2.7-0.8-4-1c-1-2.3-3.1-1.9-5-2c-0.9-1.2-1.1-3.2-3.4-3.6c0,2.5,1,3.7,3.4,3.5
			c1.4,1.4,3.1,1.9,5,2c1.1,1.4,2.7,0.8,4,1c2.3,1.5,4.6,1.5,7,0c2,0.3,4,0.7,6,1c1.1,3.5,6.5,4.9,12,3c1-0.1,2.1-0.2,3.1-0.3
			c1.9,4,0.7,6.7-3.2,8.9c-4.2,2.4-8.1,5.2-12.9,6.2c-2.9,0.6-3.3,3.2-4.7,5.1c-2.4,3.2-4.8,6.3-7.1,9.6c-2.6,3.5-2.3,6.9,0.6,9.8
			c1.8,1.8,1.2,2.8-0.5,3.9c-0.7,0.5-1.4,0.9-2.1,1.4c-3.3,2.3-2.2,8.1-5.8,9.1c-4.1,1.2-5.9,3.4-7.9,6.7c-1.9,3.1-5.9,2.3-9,2.5
			c-5.6,0.3-11.3-0.5-16.4,2.6c-1,0.6-2.1,0.7-3,1.6c-4.1,4.1-6.4,3.6-8.8-2.1c-1.8-4.3-3.6-7.9-9.2-7c-0.3-1.7-0.7-3.3-1-5
			c0.8-0.4,1-1.2,1-2c0.3-0.3,0.7-0.7,1-1c0.3-0.3,0.7-0.7,1-1c0.6-0.1,1.3-0.1,1.5-0.9c0-0.2-0.4-0.6-0.6-0.5
			c-0.8,0.1-0.7,0.9-0.9,1.5c-0.3,0.3-0.7,0.7-1,1c-0.3,0.3-0.7,0.7-1,1c-0.8,0.4-1,1.2-1,2c-1.8,1.7-0.5,3.3,0.1,5
			c-3.4,3.3-7.3,0.5-10.9,0.8c-1.4,0.1-1.1-1.3-1.1-2.3c0-2.3-0.2-4.7,0.1-7c0.3-2.9,0.4-5.1-3-6.7c-3.4-1.6-2.6-5.4-1-7.9
			c3.3-5.3,3.8-11.2,5.3-17c0.5-1.9,0-3.6-0.2-5.4c-0.5-3.5-1.8-7-0.4-10.8c1-2.7-1.4-5-2.8-7.1c-1.6-2.4-0.9-4.2,1.1-4.8
			c3-1,5.7-1.9,7.8-4.5c0.7-0.9,2.6-1.1,4.2-0.8c10.7,1.7,21.4,3.3,32.3,2.8c3.7-0.2,7.5,0.7,11.2,1.4c5.7,1.1,8.5-0.5,9.5-6.2
			c1.5-8.1,3-16.2,2.8-24.5c-0.1-2.8-0.8-5.2-3.9-6.2c-2.2-0.7-3.8-2.9-4.1-4.8c-1.4-10.5-9.9-11.2-17.5-13.1
			c-3-0.7-4.6-1.5-3.3-4.8c0.2-0.5,0.3-1.4,0-1.8c-1.8-3-1.6-3.6,2-4.2c2.3-0.4,4.6-0.3,6.7-1.6c0.6-0.4,2-0.4,2.3,0
			c4,4.8,9.1,1.4,14,2.4c-0.1-3.9-0.3-7.4-2-10.7c-0.5-0.9-1.7-2.2-0.1-3c1.2-0.6,3-1,3.9,0.8c2.2,4.8,6.8,2.7,10.4,3.5
			c0.8,0.2,2.7-0.6,2.4-2c-1.1-4.5,2.7-4.7,5-5.3c5.2-1.3,7.2-4.5,7.1-9.3c-0.1-3.7,1.6-5.7,5.1-6.1c3.9-0.6,6.4-4.3,10.5-4.3
			c-0.2,1.2,0.1,1.4,1.5,1.8c4.8,1.3,7.6-4.4,12.4-3c-3.7-1.2-7.5-1.6-9.2-5.5c2.8-3.8,5.3-7.6,6.3-12.6c1.6-7.4,14.5-12.2,20.6-8.3
			c0.1,3.6,0.9,7.2-2.9,9.7c-1.5,1-0.5,1.9,0.9,2.1c0.8,1.2,1.2,2.5,1,4c-0.3,0.3-0.7,0.7-1,1c-0.7,0.3-0.9,0.9-0.8,1.6
			c0,0.1,0.4,0.2,0.5,0.3c0.1-0.6,0.2-1.3,0.3-1.9c0.3-0.3,0.7-0.7,1-1c2.8-2.1,1.8-3.3-1-4c0-1.1,0.9-1.6,1.4-2.4
			c2.1-3.4,4.3-6.9,0.7-10.7c1-4,5.6-6,8.3-3.1c1.8,2,2.5,0.9,3.1,0c1.1-1.7,1.4-4,4.3-4.1c1.3,0,0.2-1.2,0-1.9
			c-0.4-1.7-0.7-3.5-2-4.9c3.8-2.6,0.6-5.5,0-8.1c-0.7-3.8-1.1-7.4-3.9-11.1c-2.3-2.9-0.7-8.9-0.6-13.5c0-1.2,1.3-1.5,2.3-1.1
			c2.4,1.1,2.8-0.6,3.4-2.2c1.5-0.8,3.6-1.1,3.1-3.6c-0.1-0.4-0.7-0.9-0.8-0.9c-1.8,0.6-1.9,2.4-2.4,3.9c0,0.2,0,0.3,0,0.5
			c-1.5-0.3-3.3,1.8-4.4-0.5c-0.9-2,0.9-3,1.9-4.2c1.1-1.4,2.9-2,4.4-1.9c3.5,0.1,5-2,6.4-4.6c1.1-2,3.3-3.8,5.1-3
			c2,0.9,1.7,3.7,1.1,5.9c-0.6,2.2-1.8,4.2-1.7,6.7c0.1,2.4-0.2,4.8,3.3,5c1.1,0.1,1.8,0.7,1.8,1.9c0,1.1-0.5,2.2-1.5,2.4
			c-6,1.1-5.8,6.5-7.4,10.6l0,0c-2.6,1.8-3.2,6.3-1,8l0,0c0.7,4.9,2.3,9.3,8,9.9c4.4,0.4,2.8,2.3,1.4,4.6c5.5,2.7,8.8-1.4,12.5-3.7
			c1.6-1,2.6-3.1,5-1.9c1,0.5,1.9,0.1,2.4-1c0.7-1.4,1.1-3.8,3.3-1.7c1.9,1.9,1,3.5-1.1,4.7c-0.4,0.2-0.7,0.5-1.9,1.4
			C654.4,222.7,654.5,228,657.4,230.7z M645.5,313.7c-0.3-0.3-0.7-0.7-1-1c-3.9-2.8-7.5-1.3-11,1c-0.1,0-0.3,0.1-0.4,0.2
			c-0.1,0-0.1,0.2-0.1,0.2c0.1-0.1,0.3-0.3,0.4-0.4c3.7-0.3,7.4-0.7,11-1C644.8,313,645.2,313.4,645.5,313.7
			c0.1,0.1,0.1,0.2,0.2,0.3c0,0.1,0.2,0.1,0.3,0.1C645.8,314,645.6,313.9,645.5,313.7z M588.5,274.7c0-0.8-0.2-1.6-1-2
			c-0.3-2-0.7-4-1-6c2.4-0.6,1.7-1.9,1.5-4c-1.7,1.8-1.3,3-1.5,4.1c-1-0.3-2-0.7-3-1c-0.8-1.3-1.7-2.5-4.2-0.8
			c1.9,0.3,3,0.5,4.2,0.7c-1.1,3.7-0.8,6.6,4,7C587.5,273.5,587.6,274.3,588.5,274.7c0,1,0,2,0,3c-2.6,1.6-6.6,2.4-4,7
			c-0.8,4.4-3.4,0.6-5,1c-0.1-0.1-0.3-0.2-0.4-0.3c0.1,0.1,0.3,0.1,0.4,0.2c1.1,2.4,3.3,3.1,5.6,3.2c2.8,0.1,5.1,1.3,7.4,2.8
			c2.7,2.6,6.1,1.9,9.3,2.3c-2.7-2.5-6.1-2-9.3-2.2c-0.3-2.3-3-3.8-1.5-6.7c0.7-1.4-1.2-2-2.5-2.3c0-1.7,0-3.4,0-5
			C591.2,276.7,590,275.7,588.5,274.7z M472.5,411.7c-0.1-1.1,0.1-2.3-1-3c1-1,2-2,3-3c1.5-1.7,1-3.4,0-5.2c0,1.7,0,3.5,0,5.2
			c-1.2,0.1-2.5-0.2-3.5,0.3c-2.5,1.2-1.5,2.1,0.5,2.7C471.6,409.8,471.4,411,472.5,411.7c0.2,1,0.6,1.7,1.8,1.6
			c0.1,0,0.4-0.2,0.4-0.3C474.3,412,473.4,411.9,472.5,411.7z M594.5,342.7c-2.5,0-3.7,0.8-1.9,3.6
			C593.3,344.9,593.9,343.8,594.5,342.7c2.7-1.7,2.3-3.4,0-5c-0.6-2.6,1.1-2.8,3-3.4c2.1-0.7,5.1,0.1,6.2-2.4c1.9-4.5,3.5-2,5.4-0.1
			c0.9,0.9,1.1,2.6,3.2,2.5c0.2-4.3,2.7-5.4,6.8-5.5c3.1-0.1,4.5-3.2,5.3-6c0.2-0.8-0.1-1.9-1.1-1.8c-6.8,0.6-6.2-3.3-4.8-7.5
			c-7.2-3.6-14-1.9-21,0.8c-4.5,1.7-11.3,11.1-10.7,16.4c2.1,0,2.4-4.2,4.7-2.5c1.7,1.3,2.2,3.8,1.3,6.3c-0.5,1.5-0.6,3.1,1.7,3.3
			C594.5,339.4,594.5,341,594.5,342.7z M596.5,354.7c-0.1-0.1-0.2-0.1-0.4-0.2C596.2,354.6,596.4,354.6,596.5,354.7
			c1.4,0.7,2.6,1.9,4.3,1.8c0.1,0,0.3-0.7,0.2-0.8C599.8,354.1,597.9,355.2,596.5,354.7z M628.5,314.7c0.5,0.7,1.1,1,1.9,0.8
			c0.1,0,0.2-0.2,0.3-0.4C629.9,315,629.2,314.8,628.5,314.7c-1-2.9-2.5-1.9-4.1-0.3C625.7,314.5,627.1,314.6,628.5,314.7z
			 M573.5,281.7c-3.1,0.5-1.2-4.2-4-4c-4.1-2.2-6.2-7.7-12-7c-0.1-0.7-0.2-1.4-0.4-3.4c-0.5,2.2-0.3,2.9,0.4,3.4
			c3,2,6.1,3.8,8.7,6.4c0.7,0.7,2.2,0.4,3.3,0.6C569.8,282.9,569.8,282.9,573.5,281.7c2-0.7,1.7,2.4,3.7,2.4
			c-0.4-1.7-0.7-3.2-1.1-4.7C574.6,279.8,574.1,280.8,573.5,281.7z M585.9,257.8c1.3-1.3,3.6,0.2,5.3-2
			C588.8,256.1,586.8,254.8,585.9,257.8z M603.1,298.5c1.4-1,2.3-1.7,1.6-3.6C603.4,295.9,602.9,296.8,603.1,298.5z M594.2,352.9
			c0-0.5,0.2-1,0.1-1.5c-0.1-0.7-0.3-2-1.3-0.8C592.5,351.2,593.2,352.3,594.2,352.9z"/>
		<path fill="#88C6E0" d="M792.3,17.9c3.1,4.4-2.7,7.1-2,11.2c0.7,4.8-3.8,10.5,2.7,14.3c0.7,0.4,0.4,1.5,0,2.3
			c-1.1,2.4-0.2,4.2,1.6,5.7c3.1,2.6,2.9,6,0.7,8.4c-3.7,3.9-1.1,6,1.5,8.4c0.7,0.7,1.7,1.1,2.4,1.8c7.8,7.1,8,10.2,2,18.6
			c-7.6,10.5-15.3,20.8-24.7,29.8c-0.7,0.7-1.2,1.6-1.8,2.4c-2.5,3.1-6.3,1.5-9.2,1.8c-4.8,0.4-8.9,2.5-13,4.3
			c-6,2.7-12.3,4.3-18.9,5.8c-0.1-0.9,0.2-2.4-0.9-3.8c-1.7-2.2-2.3,1.7-3.9,0.2c1.8-5.6-3.8-6.7-6.6-7.6c-3.3-1.1-3.4-2.8-3.3-4.9
			c0.1-3.6,0.3-7.3,1.2-10.8c0.8-3.2-0.5-5.7-1.2-8.6c-2-8-3-16.1,2.1-23.6c0.7-1,1.8-0.6,2.8-0.8c1.4-0.2,2.7-0.7,2.9-2.3
			c0.4-3.7,2.8-6,5.3-8c5.9-4.9,9.4-11.5,13.2-17.9c0.9-1.5,1.5-3.2,3.2-3.6c2.4-0.5,5.1-0.5,4.3-3.8c-1-4,1.9-8.4-2.9-12.4
			c-4.9-4.1-9.5-3.9-14.8-3.2c-7,0.9-6.5,1.4-11.7,6c-4.4,3.9-2.3,10-6.4,13.5c-0.2,0.1-0.2,0.7,0,0.9c3.3,5,0.9,8.8-1.4,13.7
			c-2.7,5.7-7.7,7.9-11.6,11.8c-3.7,3.7-10.2,4.6-10.9,11.2c-5.6-0.1-2.6,7.6-7.4,8.2c-0.4,0-1,0.7-0.9,0.9c2,9.8-5,19.1-1.5,29
			c0.6,1.7,1.1,3.2,2.7,3.7c4.6,1.4,6.8,5,9.4,8.5c1.5,1.9,3.3,3.8,1.8,6.1c-1.8,2.8-4.5,4.9-7.6,6.2c-0.4,0.1-1-0.1-1.3-0.3
			c-4.2-3.1-9.5-3.5-14.5-0.4c7.2-1.1,13.1,6.4,20.3,1.1c-4.7,6.5-10.4,11.1-18.4,12.4c2.5,0.5,3.5,1.2,3.1,4.6c-1,9-2.1,18-3.1,27
			l0,0c-2.6,5.1-5.5,9-12.6,7.9c-1.6-0.3-8.1,2.5-5.6,8.3c0.6,1.4-0.2,2.9-1.8,2.8c-2.2-0.2-4.2,0.9-6.4,0.9c-2,0-3.8-0.4-2.9-3.2
			c0.8-2.8-0.7-4.7-3.2-6.6c2.2,4-1.6,6.5-2.3,9.8c-0.7,3-0.5,7.9-4.9,9.9c-2,0.9-3.5,0.6-5-0.6c-0.7-0.5-1.3-1.2-0.9-2.1
			c0.5-1.3,1.5-0.9,2.5-0.5c1,0.5,2.4,2.3,3.1,0.2c0.6-1.7,0-3.5-1.8-4.7c-4.2-2.8-4.4-6.5-0.7-9.6c0.2-0.2,0.4-0.5,0.6-0.8
			c5,4,4-3.5,7.5-3.9c4-0.4,4.6-5.7,2.5-9.3c-6.5-11-11.1-22.8-12.8-35.6c-0.2-1.3,0.6-1.8,1.8-1.7c0.1,1,0.2,2.1,1.5,2.3
			c1,0.1,1.4-0.9,1.5-1.7c0.1-2.1,1.4-4,0.5-6.3c-1.3-3,0-6.2,2.1-7.7c6.2-4.3,5.1-9.8,3.4-15.5c-0.7-2.4-1.1-3.9,1.8-5.6
			c2.9-1.6,3.3-5.6,0.5-7.6c-4.7-3.2-4.5-7.1-3.3-11.7c0.4-1.6-0.3-3.3-0.4-4.9c-0.4-7.2-2.1-14.4-0.4-21.6c1.5-6.6,6-10.5,11.1-9.9
			c2,0.3,4.4,2,5.3-1.3c0.7-2.7,1.6-5.8-1.4-7.6c-2.6-1.6-1.7-3.2-0.6-4.9c5.2-7.6,6.2-16.2,6.6-25.1
			C704.5,17.8,748.4,17.9,792.3,17.9z"/>
		<path fill="#E5E5E5" d="M97.5,44.7c-5.7-2.7-5.8,2.4-7.6,5.3c-0.5,0.9-0.2,2.7-2,2.1c-1-0.3-1.3-1.4-1.3-2.5
			c0-6-1.8-11.8-2.4-17.4c-0.4-5-2.1-5.8-5.6-6.7c-1.8-0.5-2.4-1.9-1.9-3.5c0.5-1.6,0.3-3.9,2.7-4.2c1.1-0.2,2.3-0.1,3.5-0.1
			c38.4,0,76.9,0,115.3,0c1,0,2,0,3,0c2.3,0.1,3.9,1.3,4.2,3.5c0.3,2.7-1.9,3.1-4,3.4c-2.9,0.4-5.9,0.7-8.9,1.1
			c-1.9,0.3-3.8,0.8-1.4,2.9c1.5,1.3,2.8,2.1,0.9,4.3c-1.6,1.8-2.4,4.6-5.8,3.2c-0.7-0.3-1.6-0.4-2.4-0.4c-1.1,0-2.8-0.5-2.8,1.1
			c0,1.2-0.1,2.9,1.9,3.5c3,0.8,6.6,6.4,5.2,8.2c-2,2.7-4.7,5.1-8.7,3.2c-0.2-0.1-0.6,0.1-1.1,0.1c-0.4,1.7,1.2,2.8,2,2.8
			c3.1,0.2,4,1.2,4.5,4.5c0.5,3.1-0.1,5.2-2,7.1c-1.4,1.4-1.8,3.1-2.3,4.9c-0.9,3.2-2.5,5-6,4.5c-0.3-0.3-0.7-0.7-1-1
			c-0.3-0.3-0.7-0.7-1-1c-0.1-0.1-0.3-0.2-0.4-0.2c0.1,0.1,0.3,0.1,0.4,0.2c0.3,0.3,0.7,0.7,1,1c0.3,0.3,0.7,0.7,1,1
			c3.2,9.7-5,5.2-8.5,6.4c0.1,1.9,1.5,2.3,2.4,2.4c3.2,0.2,3.5,2.4,2.9,4.6c-0.7,2.5-0.9,4.8,0.1,7.3c1.1,2.7-2.4,3.8-2.2,6.9
			c0.3,4.6-0.9,9.5-2.2,14.1c-1.4,4.8-5.2,5.4-10,3.5c3,2.7,8,3.3,6.4,8.7c-1,3.2-3.7,2-5.9,2.3c-0.1-0.1-0.3-0.2-0.4-0.2
			c0.1,0.1,0.3,0.2,0.4,0.2c-0.8,3.6-3.6,1.2-4.1,0.6c-2.5-2.8-7.9-1.6-8.6-6.4c-0.1-0.7,1.3-1.7,2.1-2.5c-9.2-2.9-9.2-2.9-6.8-13.9
			c-2.1,2.5-4.6,3.4-6.6,5c-2.1,1.7-4,2.9-6.7,1.8c-0.8-0.3-1.5-0.4-2.3,0.2c-0.9,0.6-1.4,3-3,1.2c-1.8-2,1.1-2.5,1.6-3.9
			c-4.6-0.7-12.4-10.3-12.5-15c0-2.4,2.1-3.2,3.2-4.7c-2.3-1.6-3.5,1.4-5.9,1.1c1.1-3.2-0.6-4.7-3.3-6.3c-3.5-2.1-1.5-6.1-2-9.2
			c0.3-0.3,0.7-0.7,1-1c0.3-0.3,0.7-0.7,1-1c0.1-0.1,0.2-0.1,0.3-0.2c0.1,0,0-0.2,0.1-0.3c-0.1,0.1-0.3,0.3-0.4,0.4
			c-0.3,0.3-0.7,0.7-1,1c-0.3,0.3-0.7,0.7-1,1c-6.1-3.7-8-10.4-10.6-16.3c-1.7-3.8,0.8-7.4,5.8-8.1c0.8-0.1,3.8,0.3,2.8-2.2
			c-0.9-2.2-2,0.6-3.2,0.4c-0.2,0-0.3,0.1-0.5,0.1c-2.1,0.2-5.2,2.9-5.8,0.5c-0.6-2.4,0.3-6.4,4.1-7.5
			C96.4,46.4,97.4,46.2,97.5,44.7c3.1-0.7,4.7,1.3,6.6,4c0.5-6.5-6.6-7.9-7.3-13C97,38.7,97.2,41.7,97.5,44.7z M148.5,120.7
			c-0.1,0.1-0.2,0.1-0.3,0.2c-0.1,0,0,0.2-0.1,0.3C148.2,121,148.4,120.8,148.5,120.7c0.1-0.1,0.2-0.3,0.2-0.4
			C148.6,120.4,148.6,120.6,148.5,120.7z M88.5,24.7c-0.3,0.4-0.5,0.7-0.8,1.1c0.1,0.1,0.3,0.2,0.4,0.2
			C88.2,25.6,88.4,25.1,88.5,24.7c0.1-0.1,0.3-0.3,0.4-0.4c-0.1,0-0.2,0-0.3,0.1C88.6,24.5,88.5,24.6,88.5,24.7z M153.5,127.7
			c-0.3,0.4-0.5,0.7-0.8,1.1c0.1,0.1,0.3,0.2,0.4,0.3C153.2,128.6,153.4,128.1,153.5,127.7c0.1,0,0.3-0.1,0.3-0.2
			c0.1,0,0-0.2,0.1-0.3C153.8,127.4,153.6,127.6,153.5,127.7z"/>
		<path fill="#E5E5E5" d="M660.6,17.8c-0.4,8.8-1.5,17.5-6.6,25.1c-1.2,1.7-2,3.3,0.6,4.9c3,1.9,2.1,5,1.4,7.6
			c-0.9,3.3-3.3,1.6-5.3,1.3c-5.1-0.7-9.6,3.3-11.1,9.9c-1.6,7.2,0,14.4,0.4,21.6c0.1,1.6,0.8,3.3,0.4,4.9
			c-1.2,4.6-1.4,8.4,3.3,11.7c2.9,2,2.4,6-0.5,7.6c-3,1.7-2.5,3.1-1.8,5.6c1.7,5.7,2.8,11.2-3.4,15.5c-2.1,1.5-3.4,4.7-2.1,7.7
			c1,2.3-0.4,4.2-0.5,6.3c0,0.8-0.4,1.8-1.5,1.7c-1.2-0.1-1.3-1.3-1.5-2.3c-4.2-2.1-7.4-4.9-5.8-10.7c-2.3,1.4-2,3.1-2.3,4.7
			c-0.5,3.3-0.9,6.8-5.7,6.5c-1.8-0.1-2.2,1.8-3,2.9c-3.8,4.6-7.5,9.3-12.8,12.2c-3.5,1.9-6.7,1.9-9.9-1.1c-2.5-2.2-5.9-3.4-8.6-5.5
			c-3.3-2.6-2.6-6.8,1.1-8.2c0.7,2.7,1.9,2.3,3.8,0.2c-1.6-0.1-2.7-0.2-3.8-0.3c0-1,0-2,0-3c0-2.8-0.9-3.4-3.1-1.4
			c-0.9,0.8-2.3,2.2-2.8-0.2c-0.5-2.9-0.9-5.9-0.7-8.8c0.2-2.3,0.6-5.1,5.3-4.9c-3.2-2.2-6.2-3.4-3.9-7c1.4-2.3-1.9-2.8-2.2-4.9
			c-0.4-2.9-1-4.9,3-4.8c4.6,0.2,9.3-2.9,13.7,1c0,0,0.6-0.5,0.8-0.8c0.6-1.4,0.1-2-1.3-2.4c-3.8-1-7.5,0.3-11.2,0.7
			c-3,0.4-5.8-1.9-5-3c2.3-3.4-0.5-5.7-0.3-8.5c0.2-3.2,2.9-1.9,4.6-1.5c3.1,0.7,6.1,2.9,9.5,0c-3.9-0.6-7.4-1-10.9-1.6
			c-1.1-0.2-1.9-0.7-2.2-1.8c-0.3-1.2,0.6-1.6,1.4-2.2c2.3-2,4-4.7,7.9-3.4c0.9,0.3,2.9-0.3,3.8-1.7c-1-1.2-2.3-0.5-3.4-0.7l0,0
			c0.7-2.8,3.7-3.4,5-2.7c4.3,2,7.2-0.3,11.2-2.7c-4.4,0.3-8,0.6-11.6,0.9c2.2-5.9,6.7-8.3,12.1-6.2c0.6-1.7-0.2-4.1,2.7-4.7
			c1-0.2,2.3-1.5,0.4-2.4c-1.8-0.9-1.9-1.8-0.4-2.8c1.2-0.8,3-2.1,3.9-0.3c1.2,2.4,1.9,2.5,3.6,0.7c1.3-1.4,2.8-0.4,4.1,0.2
			c1.1,3.7,4.2,1.9,6.2,1.8c2.9-0.2,1.4-3.1,1.8-4.8c5.2,0.3,4.3-3.5,4.6-6.8c-4.3,0.7-2.1,5.3-4.6,6.8c-2.9,0.4-4.7,3.6-8,3
			c-4.2-7.6,3-11.2,6-16.3c1.3-2.2,3.6-3.9,5.7-5.5c1.5-1.2,3.2-1.5,1.7-4.4c-1.2-2.2,4.6-5.5,9.6-5.2c-6.4-6.1-1.1-10.5,1.5-15.3
			c1.1-2,3.4-2.4,5.7-2.4C653.3,17.8,657,17.8,660.6,17.8z M607.5,78.7c0-0.1-0.1-0.2-0.1-0.3c0-0.1-0.2-0.1-0.2-0.1
			C607.2,78.4,607.4,78.6,607.5,78.7c0.1,0.1,0.3,0.1,0.4,0.2C607.8,78.9,607.6,78.8,607.5,78.7z M588.5,139.7c-0.3,0.3-0.7,0.7-1,1
			c-0.1,0-0.2,0.1-0.3,0.2c-0.1,0-0.1,0.2-0.1,0.3c0.1-0.1,0.3-0.3,0.4-0.4C587.8,140.4,588.2,140,588.5,139.7
			c0.1-0.1,0.2-0.1,0.3-0.2c0.1,0,0-0.2,0.1-0.3C588.8,139.4,588.6,139.6,588.5,139.7z M593.5,122.7c-3.2,0-5.5,0.5-2.2,4.3
			C592,125.5,592.8,124.1,593.5,122.7c0.1-0.1,0.2-0.3,0.2-0.4C593.6,122.4,593.6,122.6,593.5,122.7z M586.9,134.7
			c-0.7-1.1-2.8-0.2-2.7-2.1c-2.7,0-3.3,2-2,3.5C583.7,137.6,585.4,135.7,586.9,134.7z M586.5,129.3c0.8-0.1,0.9-0.8,0.9-1.4
			c0-0.6,0.2-1.4-0.7-1.3c-0.4,0.1-0.8,0.8-1,1.4C585.5,128.5,585.7,129.2,586.5,129.3z M597.9,107.4c-0.5,1.1-0.8,2.1,0.6,2.9
			C599.1,109.2,598.5,108.4,597.9,107.4z"/>
		<path fill="#88C6E0" d="M746.5,386.7c-0.4-2.6-2.1-2-3.8-1.6c-1.9,0.5-3.8,1.2-5.7,1.5c-2.2,0.3-5.1,1.4-4.5-3
			c0.3-1.8-1.5-3.1-2.6-4.5c-2.1-2.8-2.6-6.2,0.3-8.7c3.1-2.6,2.3-4.3-0.1-6.8c-3.8-3.9-3.3-5.8,1.5-7.9c-0.9,1.9-1.1,3.6,1.7,3.9
			c6.4,0.7,12.8,1.4,19.2,2c1.7,0.2,3.4,0,4.1-1.9c0.3-0.3,0.7-0.7,1-1c0.3-0.3,0.7-0.7,1-1c0.8,0,1.6-0.1,2-1c2.7-0.3,5.4-0.7,8-1
			c1.7,2.6,4.4,2.5,7,3c0.4,0.9,0.9,1.7,2.1,1.6c0.2,0,0.4-0.5,0.4-0.7c-0.5-1.1-1.6-0.7-2.5-0.8c-1.3-3.4-4.4-2.7-7-3
			c-3-2-5.5-1.1-8,1c-0.8,0-1.6,0.2-2,1c-0.3,0.3-0.7,0.7-1,1c-0.3,0.3-0.7,0.7-1,1c-5.6,0.7-11.1-0.8-16.6-1.3
			c-2.8-0.2-6.4,0.4-8.4-2.7c0.3-2.1-4.2-2.8-1.6-5.8c0.7-0.8-1.2-1.5-2-1.2c-4.9,1.5-6.2-1.5-8.9-5c-3-3.9-5.6-8.2-9.6-12.3
			c9.8-0.8,10.4-9.4,13.8-15.3c3.1-5.4,9.5-9.5,15.5-7.9c3.2,0.9,7.2-0.6,9.7,2.9c0.5,0.7,1.6,0.5,2.2-0.1c3.1-3.1,8.5-1.3,11.3-5.6
			c1-1.5,3.7-1.1,4.9,1.3c2.5,5.1,5.3,9.9,8.9,14.4c1.6,2,2.1,4.8,1.2,7.6c-0.5,1.4-0.6,2.9-0.6,4.4c-0.1,8.6,0.9,9.4,9.5,7.8
			c1.1-0.2,2.3,0,3.5,0c0.1,2.2,1,4.6-1.7,6.1c-2.1,1.2-2.7-0.7-3.9-1.7c-1.8,4.5-2.3,9-3.2,13.5c-0.1,0.1-0.4,0.2-0.4,0.3
			c0,0.3,0.1,0.5,0.2,0.8c-0.2,1.5,0.6,3.5-2,3.8c-2.8,0.4-3.6,2.6-3.9,5c-0.2,1.3-0.1,2.7-1.3,3.6c-2.5,1.9-1.4,3.5,0.3,5.2
			c0.8,0.8,1.7,1.6,1.6,2.9c-1.8,0.1-3.4,0.3-5.2-0.7c-3.6-2.1-5.9,1.1-8.6,2.6c-0.2,0.1-0.5,0.7-0.5,0.8c4.7,4.3-1.7,7.2-1.4,10.9
			c-6.1-1.4-12.1-2.7-18.1,0.6c-0.7,0.4-2.1,0.4-1.8,1.2c1.1,3.4-2.4,4.5-3.2,6.9c0,0,0.1-0.1,0.1-0.1c-1.9-1.9-3.8-3.8-6.1-6.1
			c-1.9,3.2-2,5.6,0.3,8.6c1.1,1.5,3,3.1,2.7,5.5c0,0,0,0,0,0c-1.3,0-2.3,0.4-1.9,2c1,1.7-3.5,2.6-1,3.8c3.2,1.4,5.4,4.3,8.8,5.2
			c2.3,1.4,2.1,3.4,1.5,5.9c-2.4-1-4.8-3.8-7.1-1.2c-1.6,1.8,1.4,2.9,2.1,4.4c-1.1,1.9-2.7,0.5-4,0.6c-0.3-0.5-0.4-1.5-1.2-0.9
			c-0.6,0.4-0.1,1.1,0.4,1.6c0.6,2.7,2.6,5.1,1.8,8.1c-1.7,0.8-2.9-4.2-4.9-0.3c-0.6,1.1-1-0.5-1.4-1.1c-0.9-1.2-1.1-4.1-3.7-1.6
			c-0.2,0.2-1,0-1.3-0.2c-2.4-2.1,0.3-5.7-2.7-8.1c-3.7-2.9-0.4-5,2.7-7.1c-4.5,0.2-6.4-2.5-7.6-5.7c-0.7-1.8,2.1-0.2,2.2-1.9
			c-3.9-1.1-7.4-2.7-7.7-7.5c2.1-4.3,5.6-7.7,7.7-12.2c1-2.1,5-2.3,7.5-3C731.1,389.3,738.4,386,746.5,386.7
			c3.4,2.7,7.2,2.5,11.1,1.8c2.7-0.5,3.1-1.8,1.1-5c0.3,4-1.6,4.4-3.9,4.1C751.9,387.5,749.2,387.1,746.5,386.7z M733.2,423.3
			c-1.7-0.8-3.3-1.7-5.1-2.3c-0.9-0.3-1.8,0.3-1.5,1.2c0.7,1.8,2.8,2.2,4.3,3C731.7,425.5,732.6,424.5,733.2,423.3z M725.1,421.5
			c-0.3-0.4-0.5-0.7-0.7-0.7c-0.4,0-0.8,0.2-1.2,0.3c0.2,0.2,0.3,0.5,0.5,0.5C724.1,421.7,724.5,421.6,725.1,421.5z"/>
		<path fill="#88C6E0" d="M495.5,241.7c1.7-1.9,2.3-4.1,0.7-6.8c3.8,2.7,7.2,0.4,10.6,0.5c0.5,0,1.6-1.2,1.5-1.6
			c-0.9-3.7,3.8-8.2-2.1-11.5c-3.1-1.8-2.7-4.9,0.1-11c-4.7,1.8-9,3.1-13.6,2.8c-1.5-0.1-2.7-0.6-2.2-1.5c3-5.2,3.3-10.7,2.5-16.5
			c-5.4-0.2-5.5-0.1-3.9,5.4c1.1,3.7-3.7,1.2-4.2,3.6c1.1-6.5,2.2-13,3.4-19.5c0.2-0.1,0.3-0.3,0.5-0.4c-0.1,0-0.2,0-0.3,0
			c-0.1,0.1-0.1,0.3-0.2,0.4c-0.8,0.6-1.5,1.3-2.4,1.6c-1.2,0.4-1.4,3.5-3.7,1.1c-1.9-2-0.4-3.1,0.6-3.9c1.7-1.3,1.9-3.4,3-5
			c0.8-1.2,1.2-2.8-0.5-3.8l0,0c-0.1-3.6-1-7,2.6-10.1c1.3-1.2,2-5.3,2.6-8.2c0.3-1.2,0.6-2.7,2.1-2.2c4.3,1.3,8.2-0.6,12.2-1.1
			c1-0.1,2-0.6,2.8,0.3c0.8,1,0.5,2.3-0.2,3.3c-0.8,1.1-1.7,2-2.7,2.9c-2.8,2.6-5.8,5.1-4.5,10.1c4.4-2.5,9.4-0.7,14.4-1.2
			c3.8-0.4,4.9,1.5,3.3,5c-2.2,4.9-3,10.7-7.8,14.2c-1.5,1.1,2.8,2.7-0.2,3.9c-1.6,0.6-3,1.3-3.6,3.7c4.1-0.8,7.7-1,10.8,2.5
			c2.7,3.1,4,6.4,4.7,10.2c0.7,3.9,2.4,6.9,6,9.2c3,1.8,5.3,4.7,5.6,8.9c0.2,2.7,0.1,5.8,2.7,8c1.2,1,1.4,3,0.2,4.6
			c-0.6,0.8-1.4,1.6-0.2,2.5c0.8,0.6,1.4,0.1,2.2-0.3c3.7-2.2,7.3-1.3,9.8,1.8c2.6,3.2,0.6,6.7-1,9.7c-1.4,2.6-3.8,4.4-5.7,6.5
			c-2.7,3.1-1,2.8,1.2,3.1c1.2,0.2,3-0.6,3.4,1.2c0.4,1.8-1.4,2.4-2.5,3.4c-4.7,4.5-10.7,3.6-16.1,3c-3.8-0.4-6.8,1.1-10,2
			c-2.2,0.6-3.9,1-6,0c-3.2-1.4-5.9-0.8-7.3,2.6c-1,2.4-2.1,3-4.5,1.9c-3-1.3-5.6,0.1-7.8,2c-1.7,1.5-3.1,2.3-5.4,0.6
			c3.9-3.3,7.3-6.8,9.7-11.2c1.3-2.4,3.8-4.6,7-3.5c4,1.3,5.9-0.8,7.2-4c0.2-0.2,0.5-0.5,0.5-0.6c-0.4-0.6-0.7-0.2-0.9,0.2
			c-3.4,2.4-6.5,2-9.8-0.4c-2.1-1.5-4.4-3.6-7.5-1.2c-1.2,1-2.2-0.8-2.8-2.1c-0.6-1.3-0.1-2.2,1.1-2.8c2.1-1,4.3-1.8,6.2-3.1
			c2.9-1.9,2.3-4.9,1.9-7.7C499.1,240.7,496.9,242,495.5,241.7L495.5,241.7z"/>
		<path fill="#E5E5E5" d="M477.8,464.7c2-5,3.8-9.1,5.2-13.3c0.7-2.1,2-2.9,3.9-3.3c1.9-0.3,1.9,1.5,2.6,2.5
			c2.4,3.6,5.3,5.2,10.1,4.4c3.8-0.6,7.9-1.3,11.9,0.5c4.7,2.1,9.1,0.6,12.6-3c2.3-2.3,4.8-4.2,8.3-3.9c1.9,0.2,3-1.3,4.1-2.5
			c3.3-3.3,7.4-5.5,12-5.3c5.8,0.2,11-1.9,16.5-3.2c4.6-1.1,9-1.8,13.4,1.1c3.3,2.2,6.2-1.1,9.2-1.9c4.2-1.2,8.6-1.1,12.3-0.5
			c4.7,0.8,8.5,0.5,12.5-1.8c4.4-2.6,8.1-1.8,10.8,2.4c1.3,2,2.2,1.4,3.5,0.2c0.7-0.6,1.4-1.7,2.5-0.8c0.7,0.7,0.5,1.8-0.1,2.3
			c-5.2,4.3-4.3,7.8,0,12.8c3.3,3.7-4.5,13-10.7,13.2c-6,0.1-12,0-18,0c-39.1,0-78.2,0-117.3,0C481.4,464.7,479.9,464.7,477.8,464.7
			z"/>
		<path fill="#E5E5E5" d="M347.5,50.7c-3.2,0.1-1.5-2.7-2.2-4c-3-5.5-7.7-5.6-12.9-4.8c-1.3,0.2-3.2,1.8-3.6-0.6
			c-0.3-1.9,1.8-1.5,3-1.8c5-1.3,10-2.4,15.3-3.7c-1.2-1.6-2.5-0.9-3.5-1.1c-2.2-0.4-1.8-1.3-0.8-2.7c0.9-1.4,4.7-2.3,2.9-3.5
			c-2.3-1.5-5.3-3.6-8.7-2.4c-1.9,0.7-3.7,1.4-5.6,2.2c-2.5,1.1-4.4-0.3-6.6-1.6c2.5-0.4,5.2-0.4,3.8-4l0,0c1.5-0.2,2.7,1.5,4.4,0.5
			c0.7-1.8-3.6-1.6-1.6-4.1c1.5-1.9,3.5-1.8,4.9-1.3c3.9,1.5,7.5-0.6,11.2-0.1c2.9,0.4,4.9,1.1,2.6,4.7c-2.3,3.6,1.7,5.6,2.7,8.9
			c1.8-2.8,1.3-7.2,6.2-6.5c0.8,0.1,0.4-2.7,0.6-4.1c0.1-1.1-0.1-2.4,1.3-2.9c1.3-0.4,2.1,0.3,2.9,1.3c1.4,1.8,2.7,3.8,4.1-0.3
			c0.8-2.2,6.8-1.5,8.8,0.6c0.8,0.8,0.3,2.4,2.3,2.8c-1.1-5.2,2.2-4.7,5.5-4.6c3.7,0.1,7.3,0,11,0c9.3,0,9.3,0,15.7,5.6
			c0.4,0.3,0.6,1,1,1.1c3.4,1.2,4.8,2.5,4.1,6.9c-0.4,2.6,1,6.5-1,8.6c-4,4.1-5.1,11-12.1,12.2c-2,0.3-4.4,1.4-5.8,2.8
			c-4,4.3-9,6.5-14.5,7.9c-0.5,0.1-1.1,0.3-1.3,0.6c-2.4,5.2-6.9,6.3-11.6,5.1c-4.2-1.2-9-0.9-12.4-5.3c-1.7-2.2-4.8-5.7-9-2.6
			c-0.9,0.6-2.6,0.3-3.9,0.1c-1.7-0.2-4.3,1.1-4.8-1.3c-0.5-2.5,2.5-1.4,3.7-2.2C345.8,55.5,347.5,53.7,347.5,50.7
			c0.4-0.1,0.9-0.2,1.3-0.4c-0.1-0.1-0.2-0.3-0.2-0.4C348.2,50.2,347.8,50.5,347.5,50.7z"/>
		<path fill="#E5E5E5" d="M33.3,222.1c9.4,1.7,11.1,4.1,7,9.6c0.6,0.7,1.4,1,2.2,0.3c1.9-1.7,4-3.6,6.5-1.7c2.7,2.1,6.4,4,4.9,8.8
			c-0.7,2.2,2.9,5.6-2.1,6.8c-1,0.2,0.5,0.5,0.8,0.8c2.2,2.5,3.5,4.7,0.6,7.9C48,260.5,41,262,34,263.5c-2.2,0.5-3.5,1.4-4.8,2.9
			c-2.7,3.1-5.5,6.1-8.5,9c-4.4,4.1-9.6,2.6-14.4,3c-2.6,0.2-1.7-2.8-1.7-4.4c-0.1-14,0-28,0-42c0-11.3,0-22.7,0-34
			c0-1.6-0.6-3.3,1-5.1c1.2,2.6,2.2,4.6,5.8,4.4c3.4-0.2,5,5.4,3.1,11.2c4.5-3.6,7.9,1.6,12.1,0.6c1-0.3,0.9,1.9,1.6,2.8
			c1.3,1.9,2.9,3.5,5.3,2c1.5-1,2.5-0.7,3.3,0.5c0.9,1.3,3.4,1.6,3.2,3.5c-0.3,2.2-2.7,1.3-4.1,2.1
			C34.9,220.6,33.5,220.7,33.3,222.1z M17.5,233.7c7.2-0.6,10.4-7.8,18.1-9.6c-5.9-1.2-8.8,3-12.8,3.4
			C18.7,228,17.2,229.8,17.5,233.7c-0.5,0.4-0.9,0.8-1.4,1.2c0.2,0.1,0.4,0.3,0.6,0.4C17,234.8,17.3,234.3,17.5,233.7z"/>
		<path fill="#E5E5E5" d="M36.5,287.7c1-9.3,6.2-16.7,11.1-24.2c1.4-2.1,4.6-4,7.9-1.9l0,0c-1.2,1.4-3.2,1.7-1.7,5
			c1.2,2.6-2.4,6-4.1,8.9c-1.8,3.2-3.5,6.3-4.5,11.3c2.2-2.4,3.3-4.1,4.9-5.2c1.8-1.3,3.7,0.6,5.6-0.1c-0.1,1.9-1.4,2.3-2.1,3.1
			c-1,1.1-0.4,2.4-0.2,3.7c3.6-1.1,6.1,4.2,9.9,1.7c1.9-1.3,4.1-1,6.1-1.2c2.9-0.4,5,2.9,3.2,4.8c-2.1,2.2-2.9,4-1,6.7
			c2.2,3.1,4-1.1,6.3-0.1c0.8,1.4-0.5,1.9-1.5,2.4c-1.9,1-3,2.7-4,4.4c-0.6,1.1-0.8,3.5-0.2,4c1.9,1.5,2.2-1.1,3.2-1.9
			c0.7-0.6,1.4-1.3,2.5-2.3c0.9,2.6-1.5,4.8-0.1,6.9c1.5,0.5,1.7-2.6,3.1-1.4c1.1,1,0.3,2.5-0.2,3.7c-0.5,1.1-1.2,2.2-1.1,3.3
			c0.1,3.3-1.7,4.6-4.6,4.4c-2.9-0.2-0.6-3-2-4.3c-1.6-0.4-2,2-3.8,1.8c-0.1-0.4-0.5-0.9-0.3-1.2c0.6-1.5,1.7-3,2-4.5
			c0.4-2,0.1-4.3-1.8-5.2c-2-1-1.4,1.7-2.3,2.4c-3,2.3-5.8,4.8-8.1,8c-1,1.4-3.6,1.7-4.4,0.4c-1.3-1.9,1.3-1.8,2.3-2.7
			c2.1-2,3.9-4.3,5.8-6.4c-1-0.7-2.4-0.5-3.5,0.1c-1.9,1.1-3.6,2.8-5-0.7c-0.4-1.1-1.7-0.6-2.7-0.2c-4.8,2.3-9.7,1.7-14.6,0.7
			c-2.1-0.4-4.3-0.5-6.4,0.3c-1.9,0.6-4.1,1.2-5.4-0.9c-1.4-2.4,0.4-4,2-5.5c1.6-1.4,3.2-2.8,4.8-4.3c-1.3-1.8-3.7,0.2-4.6-1.3
			c2.9-3.4,7.3-5.5,7.3-10.7C34.5,288.3,35.4,287.8,36.5,287.7c0.1,0.1,0.3,0.2,0.4,0.2C36.8,287.9,36.6,287.8,36.5,287.7z"/>
		<path fill="#88C6E0" d="M450.2,259.5c-0.7-1.9-6.6-1.3-2.7-5.4c-2.6-3.3,1.3-3.2,2.4-4.4c2-2.1,2.2-5,3.2-7.4
			c0.9-2.1,2.1-3.6,4.2-4.9c-2.1-0.5-3.7-0.9-5.2-1.3c-3.8-1.1-5.3-3.1-1.8-6.3c1.2-1.1,1.8-1.3,0-2.6c-0.7-0.5-4-5.1,0.7-5.2
			c4.9-0.1,9.2-0.8,13.4-3.1c0.1,0.1,0.1,0.3,0.2,0.4c0,0.1,0.2,0.1,0.3,0.1c-0.1-0.2-0.3-0.3-0.4-0.4c0.1-3.3-3.4-1.2-4.6-3.3
			c2.8-2.1,2.3-7.5,7.6-7.5c1.7,0,3.2-1,4.8,1c1.2,1.6,2.3,0.7,2.3-1.2l0,0c5.4-0.9,8.6,1.3,11,6.3c2.2,4.7,1.1,7.9-2.7,10.4
			c-2.4,1.5-2.5,2.6-1.8,5.4c1.1,4.7,2.4,9.5,0.7,14.6c-1.4,4-2.3,7.2-7.7,7.7c-4.5,0.5-8.4,3.7-12.3,6.2c-3.3,2.1-6.9,3.8-10.9,1.5
			c0.2-0.2,0.6-0.5,0.6-0.6C450.8,258.8,450.5,259.1,450.2,259.5z M466.5,221.7c-0.1-0.1-0.3-0.2-0.4-0.3
			C466.2,221.5,466.4,221.6,466.5,221.7c0.2,0,0.3,0.1,0.4,0.2C466.8,221.9,466.6,221.8,466.5,221.7z M473.5,220.7
			c0.3-0.3,1.3,0.4,1-0.7C474.2,220.2,473.8,220.5,473.5,220.7c-0.8,0.5-1,1.2-1,2.1c-1.1,0.5-2.8-0.6-3.6,1.2
			c1.9,1.1,2.8,0.1,3.6-1.2C473.3,222.3,473.3,221.5,473.5,220.7z M458,244.9c-0.2-0.5-0.3-0.7-0.4-1c-0.5,0.3-1,0.6-1.5,0.9
			c0,0,0.2,0.6,0.3,0.6C457,245.3,457.5,245.1,458,244.9z"/>
		<path fill="#88C6E0" d="M668.3,422.8c-2.1,4.2-4.6,7.8-3,12.8c0.9,2.6-3.1,4.2-5.7,2.2c-4.7-3.7-10.1-5.9-15.4-8.2
			c-1.5-0.7-2.8-1.4-2.2-3.2c0.4-1.4,1.4-1.9,3-2.4c3.4-1.2,5.9,0.5,8.8,1c4.3,0.8,7.9-2,12.1-2.1
			C666.5,422.8,667.1,422.8,668.3,422.8z"/>
		<path fill="#88C6E0" d="M618.4,395.8c-0.4,5.3-0.6,9.5-1,13.8c-0.1,1.5-0.4,3.2-2.7,2.4c-0.8-0.3-1.7-0.3-2.2,0.6
			c-0.8,1.4-1.6,2.8-3.4,1.7c-1.7-1-2.5-2.9-2.1-4.7c1-4.8,1.5-9.5-1.5-13.9c-0.2-0.4-0.2-0.9-0.2-1.4c3.8-0.3,6.1-4.6,9.5-4.3
			C617.9,390.2,617.6,394.3,618.4,395.8z"/>
		<path fill="#E5E5E5" d="M4.7,340.3c0-7.5,3.6-12.6,6.7-17.8c0.5-0.9,1.5-2,2.9-1.2c1.2,0.7,1.5,2,1.1,3.1
			c-1.2,3.1-1.2,5.4,2.7,6.4c1.9,0.5,1.5,1.9,0.6,3.1c-2,2.5-4.4,4-7.7,3.8c-1.7-0.1-3.8,0-3.6,2.2c0.1,1.5,0.7,2.7-1.3,2.5
			C4,342.3,4.7,340.5,4.7,340.3z M14.2,333.3c-0.6-0.6-0.4-2.1-1.7-1.9c-1.3,0.2-2.6,0.9-2.8,2.4c-0.2,1.2,0.6,1.8,1.8,1.8
			C12.9,335.6,14,335.1,14.2,333.3z"/>
		<path fill="#88C6E0" d="M615.8,369.1c1.3,5.4,1.2,10.1-0.6,14.6c-0.4,1.1-0.5,2.9-2.3,2.8c-1.3-0.1-1.8-1.2-2.4-2.3
			c-2.8-5.6-2.1-8.6,2.9-12.3C614.2,371.3,614.8,370.3,615.8,369.1z"/>
		<path fill="#88C6E0" d="M760.8,455.2c-4.1,1.6-8.5,3.5-12.8,1.8c-2.8-1.1-5.5-2-8.4-2.4c-1.2-0.2-2.5-0.4-2.4-1.9
			c0.2-1.8,1.9-2.2,3-1.5c5.1,2.9,11.3,0.8,16.3,3.8C757.9,455.8,759.2,454,760.8,455.2z"/>
		<path fill="#E5E5E5" d="M827.7,452.1c-1.6,1.6,0.4,4.8-1.8,5.4c-3.2,0.8-5.5,3.9-9.2,3.3c-1.8-0.3-3.4-0.9-3.9-2.6
			c-0.5-2,1.3-3,2.9-3.4C819.8,453.8,823.8,453,827.7,452.1z"/>
		<path fill="#88C6E0" d="M698.4,165.7c-2.4,5-1.5,11.4-6.7,14.8C688.8,172.9,690.9,167.1,698.4,165.7L698.4,165.7z"/>
		<path fill="#E5E5E5" d="M734.9,155.3c-1.4,5.3-8.9,4.3-10.1,10c1.1-3.4-4.7-6.3-1.3-9C726.4,154,730.8,153.6,734.9,155.3z"/>
		<path fill="#88C6E0" d="M35.8,40.3c-1,7.4,3,8.1,8.5,8c-4.4,1.4-10.8,0.1-7,9.2c-3.5-3.1-1.6-5.7-3.1-7.3c-1.6-1.7-4.2,0-7.7-2.5
			C33,48.6,36.1,46.6,35.8,40.3z"/>
		<path fill="#E5E5E5" d="M215.1,17.7c0.7,0,1.3-0.1,2,0c1.1,0.2,3-0.6,2.8,1.6c-0.1,1.4-1,2.7-2.7,2.1c-2-0.8-3-0.1-4,1.6
			c-1,1.6-2.5,2.8-4.5,2.1c-0.4-0.1-0.9-1.4-0.8-1.5c1.7-1.7,0.5-5.3,3.8-5.8C212.8,17.6,214,17.7,215.1,17.7
			C215.1,17.7,215.1,17.7,215.1,17.7z"/>
		<path fill="#88C6E0" d="M619.5,202.7c2.2,0,4.5-1.8,6.6,0.1c1.6,1.5,1.7,3.5,1.2,5.5c-0.3,1.3-1.4,1.9-2.6,1.8
			c-2-0.2-3.9-1.1-4.7-3.1C619.5,205.7,619.6,204.1,619.5,202.7L619.5,202.7z"/>
		<path fill="#E5E5E5" d="M568.5,256.7c1.7,4,5.5,4.4,9.2,5.5c-4.8-1.3-7.6,4.3-12.4,3c-1.3-0.4-1.7-0.6-1.5-1.8
			C567.7,262.8,566.5,258.6,568.5,256.7z M569.1,260.4c-0.1,0-0.3,0-0.3,0.1c-0.1,0.1-0.1,0.2-0.1,0.4c0.2,0,0.4-0.1,0.5-0.1
			C569.2,260.6,569.2,260.5,569.1,260.4z"/>
		<path fill="#88C6E0" d="M475.3,167.5c-2-6.1-0.8-8.1,6.1-10.3C480.2,161.2,479.5,165,475.3,167.5z"/>
		<path fill="#E5E5E5" d="M739.5,421.6c-3.4-0.9-5.6-3.8-8.8-5.2c-2.6-1.1,1.9-2.1,1-3.8c0.8,0.3,1.5,0.9,2.1-0.2
			c0.2,0,0.4,0,0.6,0.1C736.2,415.5,740.4,417.2,739.5,421.6z"/>
		<path fill="#88C6E0" d="M555.8,407.7c2.1-1.7,3.2-5.4,6.8-2.6c1.6,1.2,1.6,2.2,0.7,3.6C560.1,413.4,558.4,407.2,555.8,407.7z"/>
		<path fill="#E5E5E5" d="M50.5,37.7c5.3,5.5,5,16-1,21.3C54,52,52.7,44.9,50.5,37.7C50.5,37.7,50.5,37.7,50.5,37.7z"/>
		<path fill="#E5E5E5" d="M44.5,74.7c-6.8-3.1-13.5-2.5-20,1l0,0C29,69.5,39.6,69,44.5,74.7C44.5,74.7,44.5,74.7,44.5,74.7z"/>
		<path fill="#88C6E0" d="M485.5,175.7c-0.4,1.6-0.6,3.7-3,2.3c-2.1-1.2-4.8-2.3-5.1-5.1c-0.1-0.7,1.7-2.2,2.8-2.4
			c1.8-0.4,1.4,1.4,1.4,2.4C481.6,175.5,483.2,176.1,485.5,175.7C485.5,175.7,485.5,175.7,485.5,175.7z"/>
		<path fill="#E5E5E5" d="M50.5,80.7c5.7,4.8,5.1,15.5-1,20l0,0C53,94.2,53.6,87.5,50.5,80.7L50.5,80.7z"/>
		<path fill="#E5E5E5" d="M19.5,38.7c-1.5,6.8-1.5,13.4,1,20c0,0,0,0,0,0C15.4,53.3,15,45.2,19.5,38.7L19.5,38.7z"/>
		<path fill="#E5E5E5" d="M25.5,104.7c6.2,3.2,12.6,2,19,1c0,0,0,0,0,0C37.6,110.2,29.2,109.8,25.5,104.7
			C25.5,104.7,25.5,104.7,25.5,104.7z"/>
		<path fill="#E5E5E5" d="M20.5,99.7c-4.5-3.3-5.6-11.3-1.4-17.4C18.1,88.9,18,94.5,20.5,99.7C20.5,99.7,20.5,99.7,20.5,99.7z"/>
		<path fill="#E5E5E5" d="M42.5,31.7c-6.3-2.1-12.2-0.6-18,2l0,0C28.6,28.1,37.2,27.1,42.5,31.7C42.5,31.7,42.5,31.7,42.5,31.7z"/>
		<path fill="#88C6E0" d="M28.2,90.1c4.9,0,9.8,0,14.7,0c-4.9,1.8-9.8,1.3-14.7,1.3C28.3,91,28.2,90.6,28.2,90.1z"/>
		<path fill="#E5E5E5" d="M42.5,64.7c-5.5,3.5-13.1,2.7-18-2l0,0C30.3,65.1,36.4,64.8,42.5,64.7C42.5,64.7,42.5,64.7,42.5,64.7z"/>
		<path fill="#88C6E0" d="M523.7,131.4c-1.7-3.4-2.3-6.6-1.7-9.9C526,124.4,526,124.4,523.7,131.4z"/>
		<path fill="#E5E5E5" d="M729.3,146.9c1.6,0.5,3,1.3,2.8,3c-0.2,1.5-1.5,2.8-3.1,2.6c-1.8-0.2-2.9-2.1-3-3.5
			C725.8,147.2,728.2,147.7,729.3,146.9z"/>
		<path fill="#E5E5E5" d="M593.5,247.7c-1.5-0.2-2.5-1.1-0.9-2.1c3.8-2.5,3.1-6.2,2.9-9.7c0-0.4,0.1-0.8,0.1-1.1
			c3.6,3.8,1.4,7.3-0.7,10.7C594.4,246.1,593.4,246.6,593.5,247.7L593.5,247.7z"/>
		<path fill="#88C6E0" d="M757.2,411.8c1.9-1.3,3.6-2.7,5.2-0.2c0.5,0.8,0.8,1.6,0,2.2C759.8,415.7,759.2,412,757.2,411.8z"/>
		<path fill="#88C6E0" d="M675.5,185.7c0.9-0.9,1.7-1.8,3-3.2c0.5,3.4-1,5.8-1.8,9.2C675,189.5,676,187.4,675.5,185.7
			C675.5,185.7,675.5,185.7,675.5,185.7z"/>
		<path fill="#E5E5E5" d="M474.8,90.1c1.2,0.6,2.4,1.3,2.3,2.8c-0.1,0.9-0.4,2.2-1.6,2.1c-1.5-0.1-2.1-1.3-2.1-2.8
			C473.6,91.3,473.5,90.2,474.8,90.1z"/>
		<path fill="#E5E5E5" d="M50.5,80.7c-2.4-1.6-4.4-3.6-6-6c0,0,0,0,0,0C48.3,74.9,50.3,76.9,50.5,80.7L50.5,80.7z"/>
		<path fill="#E5E5E5" d="M45.5,32.7c2.7,0.6,4.4,2.3,5,5c0,0,0,0,0,0C47.7,37.1,46,35.5,45.5,32.7L45.5,32.7z"/>
		<path fill="#E5E5E5" d="M24.5,62.7c-2.3-0.3-3.7-1.7-4-4c0,0,0,0,0,0C22.8,59,24.2,60.3,24.5,62.7C24.5,62.7,24.5,62.7,24.5,62.7z
			"/>
		<path fill="#E5E5E5" d="M470.5,428.7c0.3,1.7,0.7,3.3,1,5c-0.3,0-0.6,0.1-0.9,0.1C470,432.1,468.7,430.4,470.5,428.7
			C470.5,428.7,470.5,428.7,470.5,428.7z"/>
		<path fill="#88C6E0" d="M734.4,412.5c-0.2-0.1-0.4-0.1-0.6-0.1c-0.1-0.6-0.2-1.2-0.3-1.8c0,0,0,0,0,0
			C735,410.7,735.6,411.2,734.4,412.5z"/>
		<path fill="#E5E5E5" d="M561.6,375.4c-1,0.1-2.1,0.2-3.1,0.3c0,0,0,0,0,0c0.8-0.7,1.6-1.3,2.3-2
			C561.1,374.3,561.3,374.8,561.6,375.4z"/>
		<path fill="#E5E5E5" d="M55.5,261.7c0.1-0.7,0.1-1.6,1.2-1.5c0.1,0,0.3,0.2,0.3,0.3C57.1,261.6,56.2,261.6,55.5,261.7
			C55.5,261.7,55.5,261.7,55.5,261.7z"/>
		<path fill="#E5E5E5" d="M19.5,38.7c0.1-0.7,0.1-1.6,1.2-1.5c0.1,0,0.3,0.2,0.3,0.3C21.1,38.6,20.2,38.6,19.5,38.7
			C19.5,38.7,19.5,38.7,19.5,38.7z"/>
		<path fill="#E5E5E5" d="M45.5,32.7c-1.1,0-2.3,0.2-3-1c0,0,0,0,0,0C43.6,31.7,44.8,31.5,45.5,32.7C45.5,32.7,45.5,32.7,45.5,32.7z
			"/>
		<path fill="#88C6E0" d="M698.5,165.7c0.2-0.2,0.4-0.4,0.7-0.6c0.1,0,0.2,0.1,0.3,0.1C699.2,165.4,698.8,165.5,698.5,165.7
			C698.4,165.7,698.5,165.7,698.5,165.7z"/>
		<path fill="#E5E5E5" d="M43.5,63.7c0.4-0.8,1.2-1,2-1l0,0C45.1,63.5,44.3,63.7,43.5,63.7L43.5,63.7z"/>
		<path fill="#E5E5E5" d="M24.5,75.7c-0.4,0.3-0.7,0.5-1.1,0.8c-0.1-0.1-0.2-0.3-0.2-0.4C23.6,76,24,75.8,24.5,75.7
			C24.5,75.7,24.5,75.7,24.5,75.7z"/>
		<path fill="#E5E5E5" d="M23.5,103.7c0.8,0,1.6,0.2,2,1c0,0,0,0,0,0C24.6,104.7,23.9,104.5,23.5,103.7L23.5,103.7z"/>
		<path fill="#E5E5E5" d="M20.5,79.7c0.1-0.4,0.3-0.9,0.4-1.3c0.1,0.1,0.3,0.2,0.4,0.3C21,79,20.7,79.4,20.5,79.7L20.5,79.7z"/>
		<path fill="#E5E5E5" d="M45.5,62.7c0.4-0.3,0.7-0.5,1.1-0.8c0.1,0.1,0.2,0.3,0.3,0.4C46.4,62.5,45.9,62.6,45.5,62.7
			C45.5,62.7,45.5,62.7,45.5,62.7z"/>
		<path fill="#E5E5E5" d="M21.5,101.7c-0.8-0.4-1-1.2-1-2c0,0,0,0,0,0C21.3,100.1,21.5,100.9,21.5,101.7
			C21.5,101.7,21.5,101.7,21.5,101.7z"/>
		<path fill="#E5E5E5" d="M20.5,79.7c-0.1,0.4-0.3,0.9-0.4,1.3c-0.1-0.1-0.3-0.2-0.4-0.3C20,80.4,20.2,80.1,20.5,79.7
			C20.5,79.7,20.5,79.7,20.5,79.7z"/>
		<path fill="#E5E5E5" d="M24.5,33.7c-0.1,0.1-0.3,0.3-0.4,0.4c0-0.1,0-0.2,0.1-0.3C24.2,33.8,24.4,33.7,24.5,33.7
			C24.5,33.7,24.5,33.7,24.5,33.7z"/>
		<polygon fill="#88C6E0" points="740,402.4 739.9,402.1 740.2,402.1 		"/>
		<path fill="#88C6E0" d="M736.5,402.7c0.1,0.1,0.3,0.1,0.4,0.2C736.8,402.9,736.6,402.8,736.5,402.7
			C736.5,402.7,736.5,402.7,736.5,402.7z"/>
		<path fill="#E5E5E5" d="M705.5,406.7c-0.1-0.1-0.3-0.1-0.4-0.2C705.2,406.6,705.3,406.6,705.5,406.7L705.5,406.7z"/>
		<path fill="#E5E5E5" d="M705.5,406.7c0.3,0,0.7,0,1,0c0,0,0,0,0,0C706.1,407.3,705.8,407.3,705.5,406.7
			C705.5,406.7,705.5,406.7,705.5,406.7z"/>
		<path fill="#E5E5E5" d="M328.5,22.7c-0.1-0.1-0.3-0.2-0.4-0.2C328.2,22.6,328.3,22.6,328.5,22.7C328.5,22.7,328.5,22.7,328.5,22.7
			z"/>
		<path fill="#E5E5E5" d="M45.5,104.7c-0.3,0.3-0.7,0.7-1,1c0,0,0,0,0,0C44.8,105.4,45.1,105,45.5,104.7
			C45.5,104.7,45.5,104.7,45.5,104.7z"/>
		<path fill="#E5E5E5" d="M45.5,104.7c0.1-0.1,0.3-0.3,0.4-0.4C45.8,104.4,45.6,104.6,45.5,104.7C45.5,104.7,45.5,104.7,45.5,104.7z
			"/>
		<path fill="#E5E5E5" d="M23.5,103.7c-0.3-0.3-0.7-0.7-1-1c0,0,0,0,0,0C22.8,103,23.2,103.4,23.5,103.7
			C23.5,103.7,23.5,103.7,23.5,103.7z"/>
		<path fill="#E5E5E5" d="M22.5,102.7c-0.3-0.3-0.7-0.7-1-1c0,0,0,0,0,0C21.8,102,22.2,102.4,22.5,102.7
			C22.5,102.7,22.5,102.7,22.5,102.7z"/>
		<path fill="#E5E5E5" d="M49.5,100.7c-0.1,0.1-0.3,0.3-0.4,0.4c0-0.1,0-0.2,0.1-0.3C49.2,100.8,49.4,100.8,49.5,100.7
			C49.5,100.7,49.5,100.7,49.5,100.7z"/>
		<path fill="#E5E5E5" d="M588.5,86.7c-0.1,0.1-0.2,0.3-0.2,0.4C588.3,87,588.4,86.8,588.5,86.7C588.5,86.7,588.5,86.7,588.5,86.7z"
			/>
		<path fill="#88C6E0" d="M495.5,241.7c-0.1,0.1-0.1,0.3-0.2,0.4C495.4,242,495.4,241.8,495.5,241.7
			C495.5,241.7,495.5,241.7,495.5,241.7z"/>
		<polygon fill="#88C6E0" points="618.5,210.7 618.7,210.5 618.5,210.7 		"/>
		<path fill="#88C6E0" d="M474.5,207.7c-0.1-0.1-0.2-0.1-0.3-0.2C474.3,207.6,474.4,207.7,474.5,207.7
			C474.5,207.7,474.5,207.7,474.5,207.7z"/>
		<path fill="#E5E5E5" d="M43.5,63.7c-0.3,0.3-0.7,0.7-1,1c0,0,0,0,0,0C42.8,64.4,43.2,64,43.5,63.7C43.5,63.7,43.5,63.7,43.5,63.7z
			"/>
		<path fill="#FEFEFE" d="M780.5,358.8c1-4.5,1.5-9,3.2-13.5c1.1,1.1,1.7,3,3.9,1.7c2.7-1.6,1.8-3.9,1.7-6.1c-0.1-2.8,0.1-5.1,3.6-6
			c2.7-0.7,4.1-3.2,5.3-5.6c2.8-5.5,9-6.9,14.4-3.2c-0.7,1.2-4.1,0.4-2.8,2.7c0.9,1.7,3.1,2.8,5.1,2.5c2.3-0.4,4.6-0.9,6.8,0.1
			c0.8,0.4,2.3,0.2,2.2,1.5c-0.1,0.8-1.1,1.6-1.7,2.3c-0.2,0.2-0.6,0.3-0.9,0.4c-2.1,0.9-5.1,1.7-5.2,3.9c-0.1,1.7,3.1,2.5,5,3.2
			c2.6,0.9,2.5,2.9,2.2,4.9c-0.3,1.5-1.2,3,0.9,3.8c1.6,0.6,3.6,0.8,4.6-0.7c2.6-3.8,7.3-3.7,10.5-6.2c1.5-1.2,2.8-0.2,4.2,0.1
			c1.7,0.3,3.4,0.5,4.2-1.5c0.3-0.7,0.6-1.8,0.3-2.3c-1.1-1.7-2.6-0.6-4-0.3c-5,1.1-7.4-0.5-9.2-5.9c-1.4-4.2,0.9-5.8,4.5-7.3
			c9.7-4,19.2-8.4,29.7-9.8c1.1-0.1,2.4-1.1,3,0.4c0.7,1.6-0.5,2.6-1.8,3c-2.6,0.7-4.3,3.2-6.7,3.9c-4.3,1.2-2.8,2.5-0.5,4.3
			c0.8,0.6,1.3,1.4,1.8,2.1c-1.1,1.9-3.8,1.2-4.4,3.3c-1.4,4.6-3.9,8.2-10,7.8c6.3,6.1,13.3,9.3,19.6,13.5c4,2.6,6,7.5,10.5,9.8
			c1.3,0.7,2.5,1.8,3.8,2.2c6.6,2.3,8.4,7.9,9.7,13.8c0.2,0.8-0.4,1.9-0.9,2.8c-3.1,5.4-12.3,9-18.4,7.2c-1.3-0.4-2.2-0.1-3.4,0.2
			c-6.8,2.1-13,0.4-18.9-2.8c-1-0.6-2.1-1-3.3-0.4c-1.4,0.7-3,0.3-3.3-1.2c-0.7-3.1-2.5-3.4-5.1-2.6c-0.5,0.2-1.3-0.3-1.8-0.6
			c-12.7-7.5-23.6-2.5-34,5.2c-0.9,0.7-1.6,1.9-2.9,1.6c-6.5-1.4-13.3,0.1-19.7-2.2c-3.7-1.3-6.7-3.7-7.2-8.1c0-1.3-0.8-2.1-1.6-2.9
			c-1.7-1.7-2.9-3.3-0.3-5.2c1.2-0.9,1.1-2.3,1.3-3.6c0.3-2.4,1.1-4.6,3.9-5c2.5-0.4,1.8-2.3,2-3.8
			C780.4,359.5,780.5,359.1,780.5,358.8z"/>
		<path fill="#FEFEFE" d="M992,410.1c5,0.9,7.3,4.3,6.4,8.9c-1.2,5.4-0.3,10.5,0.7,15.7c0.3,1.4,0.6,3.1-1.4,2.7
			c-4-0.8-7.4,1.2-11.1,1.8c-7.6,1.3-14.6,0.5-19.7-6.1c-1.4-1.8-3.1-2.5-5.2-2.4c-1.6,0-2.9-0.3-4.1-1.5c-3.3-3.4-3.3-13-0.1-16.7
			c1.9-2.3,1.1-5.3,2-8c0.9-2.4,1.4-4.9,4.7-4.8c0.8,0,1.8,0,1.9-1.1c0-0.9-0.7-1.4-1.6-1.7c-4-1.5-5.8-4.8-7.9-8.4
			c-2.8-5-6.6-9.6-10.2-14.1c-2.1-2.6-2.7-5.5-3.1-8.7c-0.6-5-0.3-10.4-5.7-13.5c-1.3-0.8-1.4-2.2-0.5-3.5c0.3-0.4,0.8-0.7,1-1.1
			c3.3-10.7,14.4-13.5,21.3-20.5c3.5-3.5,9.4-5.7,14.5-8c0.7-0.3,1.7-0.3,2.4,0.1c3.8,1.8,7.5,3,11.8,1.7c2.4-0.7,3.9,1.5,3.9,3.5
			c0.1,2.9,0.2,6.3-1.1,8.7c-1.6,3.2-2,5.5,1.5,7.6c-4,0-7.6,0.3-11-0.1c-3.4-0.3-4.9,1.3-6.6,4c-2,3.1,1.8,3.4,1.9,5.6
			c-2.2,1.6-4.2-0.6-6.4-0.5c-1,0-2.1-0.1-2.5,1c-0.4,0.9-0.1,1.9,0.7,2.2c5.4,1.6,5.5,7.2,7.6,10.9c1.9,3.3,4.5,5.8,7.3,6.4
			c5,0.9,4.2,3.4,3.5,6.7c-0.7,3.2-1.3,6.5,1.2,9.3c1.8-0.7,1.2-2,1.3-3c0.1-3.3,2.5-4,5.1-4.5c2.7-0.5,4.2,1.3,4.6,3.5
			c0.5,2.7,1.8,4.5,3.7,6.3c1.1,1.1,3.3,2.3,2.3,3.9c-1,1.7-2.9,3.3-5.2,3.1c-2.1-0.1-4.2-0.8-6.3-1c-1.4-0.1-3.5-3.9-4.1,0.6
			c-0.4,2.7-3.3,6.2,1.8,7.6c2.3,0.6,3.3,2,3.8,4.1C995.5,409.4,992.6,408,992,410.1z"/>
		<path fill="#E5E5E5" d="M594.5,337.7c-2.2-0.2-2.2-1.8-1.7-3.3c0.8-2.4,0.4-5-1.3-6.3c-2.2-1.6-2.6,2.5-4.7,2.5
			c-0.5-5.3,6.2-14.7,10.7-16.4c7-2.7,13.8-4.4,21-0.8c-1.4,4.2-2,8.1,4.8,7.5c1-0.1,1.3,1,1.1,1.8c-0.8,2.8-2.2,5.9-5.3,6
			c-4.1,0.1-6.7,1.2-6.8,5.5c-2.1,0.1-2.3-1.7-3.2-2.5c-1.9-1.8-3.5-4.4-5.4,0.1c-1.1,2.6-4.1,1.7-6.2,2.4
			C595.6,334.9,593.9,335.1,594.5,337.7C594.5,337.7,594.5,337.7,594.5,337.7z"/>
		<path fill="#E5E5E5" d="M579.5,285.7c1.7-0.5,4.2,3.4,5-1c0,0,0,0,0,0c1.3,0.6,0.6,3.8,3,2.9c2.6-0.9,1.4-3.1,1-4.9l0,0
			c1.3,0.3,3.2,0.9,2.5,2.3c-1.5,2.9,1.3,4.5,1.5,6.7l0,0c-2.2-1.5-4.5-2.7-7.4-2.8C582.8,288.8,580.6,288.1,579.5,285.7
			L579.5,285.7z"/>
		<path fill="#E5E5E5" d="M583.5,265.7c1,0.3,2,0.7,3,1l0,0c0.3,2,0.7,4,1,6l0,0C582.7,272.3,582.4,269.4,583.5,265.7L583.5,265.7z"
			/>
		<path fill="#E5E5E5" d="M546.5,372.7c4.1,0.7,7.7,3.3,12,3c0,0,0,0,0,0C553,377.5,547.7,376.2,546.5,372.7L546.5,372.7z"/>
		<path fill="#E5E5E5" d="M557.5,270.7c5.8-0.7,7.9,4.8,12,7l0,0c-1.1-0.2-2.6,0-3.3-0.6C563.6,274.5,560.5,272.7,557.5,270.7
			L557.5,270.7z"/>
		<path fill="#E5E5E5" d="M592.5,291.7c3.2,0.2,6.6-0.3,9.3,2.2C598.6,293.6,595.2,294.3,592.5,291.7
			C592.5,291.7,592.5,291.7,592.5,291.7z"/>
		<path fill="#E5E5E5" d="M588.5,277.7c0,1.7,0,3.4,0,5c0,0,0,0,0,0c-2.4-1.3-4.2-1.6-4,2c0,0,0,0,0,0
			C581.9,280.1,585.9,279.3,588.5,277.7L588.5,277.7z"/>
		<path fill="#E5E5E5" d="M644.5,312.7c-3.7,0.3-7.4,0.7-11,1l0,0C637,311.5,640.5,309.9,644.5,312.7
			C644.5,312.7,644.5,312.7,644.5,312.7z"/>
		<path fill="#E5E5E5" d="M585.9,257.8c0.9-3,2.9-1.8,5.3-2C589.5,258,587.2,256.5,585.9,257.8z"/>
		<path fill="#E5E5E5" d="M569.5,277.7c2.8-0.2,0.9,4.5,4,4l0,0C569.8,282.9,569.8,282.9,569.5,277.7
			C569.5,277.7,569.5,277.7,569.5,277.7z"/>
		<path fill="#E5E5E5" d="M474.5,405.7c-1,1-2,2-3,3l0,0c-2-0.6-3-1.5-0.5-2.7C472,405.6,473.3,405.8,474.5,405.7
			C474.5,405.7,474.5,405.7,474.5,405.7z"/>
		<path fill="#E5E5E5" d="M573.5,281.7c0.6-0.9,1.1-2,2.6-2.3c0.3,1.5,0.7,3,1.1,4.7C575.2,284.1,575.5,281,573.5,281.7
			C573.5,281.7,573.5,281.7,573.5,281.7z"/>
		<path fill="#E5E5E5" d="M646.5,311.7c0.2-2.3-5.9-4.6,0-7l0,0C644.5,307,647.1,309.4,646.5,311.7L646.5,311.7z"/>
		<path fill="#E5E5E5" d="M524.5,368.7c-2.4,0.1-3.4-1-3.4-3.5C523.4,365.6,523.5,367.5,524.5,368.7
			C524.5,368.7,524.5,368.7,524.5,368.7z"/>
		<path fill="#E5E5E5" d="M546.5,372.7c-2-0.3-4-0.7-6-1c0,0,0,0,0,0C543,368.8,544.7,371.1,546.5,372.7
			C546.5,372.7,546.5,372.7,546.5,372.7z"/>
		<path fill="#E5E5E5" d="M628.5,314.7c-1.4-0.1-2.8-0.2-4.1-0.3C626,312.8,627.5,311.8,628.5,314.7L628.5,314.7z"/>
		<path fill="#FEFEFE" d="M610.4,184.6c0-0.2,0-0.3,0-0.5c0.5-1.5,0.6-3.2,2.4-3.9c0.2-0.1,0.8,0.5,0.8,0.9c0.5,2.5-1.6,2.8-3.1,3.6
			C610.5,184.8,610.4,184.6,610.4,184.6z"/>
		<path fill="#E5E5E5" d="M596.5,354.7c1.5,0.5,3.3-0.7,4.5,0.9c0.1,0.2-0.1,0.8-0.2,0.8C599.1,356.6,597.9,355.4,596.5,354.7
			L596.5,354.7z"/>
		<path fill="#E5E5E5" d="M586.5,266.7c0.2-1.1-0.3-2.3,1.5-4.1C588.2,264.8,588.8,266.1,586.5,266.7
			C586.5,266.7,586.5,266.7,586.5,266.7z"/>
		<path fill="#E5E5E5" d="M603.1,298.5c-0.2-1.6,0.3-2.6,1.6-3.6C605.4,296.7,604.5,297.5,603.1,298.5z"/>
		<path fill="#E5E5E5" d="M594.5,342.7c-0.6,1.1-1.1,2.2-1.9,3.7C590.8,343.5,592,342.7,594.5,342.7L594.5,342.7z"/>
		<path fill="#E5E5E5" d="M594.5,342.7c0-1.7,0-3.4,0-5.1c0,0,0,0,0,0C596.8,339.4,597.2,341,594.5,342.7
			C594.5,342.7,594.5,342.7,594.5,342.7z"/>
		<path fill="#E5E5E5" d="M583.5,265.7c-1.2-0.2-2.3-0.4-4.2-0.7C581.7,263.3,582.6,264.4,583.5,265.7
			C583.5,265.7,583.5,265.7,583.5,265.7z"/>
		<path fill="#E5E5E5" d="M533.5,371.7c2.3,0,4.7,0,7,0c0,0,0,0,0,0C538.2,373.2,535.8,373.1,533.5,371.7
			C533.5,371.7,533.5,371.7,533.5,371.7z"/>
		<path fill="#E5E5E5" d="M593.5,247.7c2.8,0.7,3.8,1.8,1,4c0,0,0,0,0,0C594.7,250.2,594.3,248.9,593.5,247.7
			C593.5,247.7,593.5,247.7,593.5,247.7z"/>
		<path fill="#E5E5E5" d="M474.5,405.7c0-1.7,0-3.5,0-5.2C475.4,402.3,476,404,474.5,405.7C474.5,405.7,474.5,405.7,474.5,405.7z"/>
		<path fill="#E5E5E5" d="M529.5,370.7c-1.9-0.1-3.6-0.6-5-2c0,0,0,0,0,0C526.3,368.8,528.4,368.4,529.5,370.7L529.5,370.7z"/>
		<path fill="#E5E5E5" d="M594.2,352.9c-1-0.6-1.7-1.7-1.2-2.3c1-1.1,1.1,0.1,1.3,0.8C594.4,351.9,594.2,352.4,594.2,352.9z"/>
		<path fill="#E5E5E5" d="M472.5,411.7c0.9,0.1,1.9,0.3,2.2,1.4c0,0.1-0.2,0.2-0.4,0.3C473.1,413.5,472.6,412.7,472.5,411.7
			C472.5,411.7,472.5,411.7,472.5,411.7z"/>
		<path fill="#E5E5E5" d="M646.5,304.7c0.6-1.3,1.7-1.8,3-2c0,0,0,0,0,0C649.3,304.6,647.8,304.6,646.5,304.7
			C646.5,304.7,646.5,304.7,646.5,304.7z"/>
		<path fill="#E5E5E5" d="M588.5,277.7c0-1,0-2,0-3c0,0,0,0,0,0C590,275.7,591.2,276.7,588.5,277.7
			C588.5,277.7,588.5,277.7,588.5,277.7z"/>
		<path fill="#E5E5E5" d="M529.5,370.7c1.4,0.2,3-0.4,4,1c0,0,0,0,0,0C532.1,371.5,530.6,372.1,529.5,370.7
			C529.5,370.7,529.5,370.7,529.5,370.7z"/>
		<path fill="#E5E5E5" d="M473.5,424.7c0.1-0.6,0-1.4,0.9-1.5c0.2,0,0.6,0.4,0.6,0.5C474.8,424.6,474.1,424.6,473.5,424.7
			C473.5,424.7,473.5,424.7,473.5,424.7z"/>
		<path fill="#E5E5E5" d="M557.5,270.7c-0.7-0.5-1-1.2-0.4-3.4C557.3,269.3,557.4,270,557.5,270.7
			C557.5,270.7,557.5,270.7,557.5,270.7z"/>
		<path fill="#E5E5E5" d="M628.5,314.7c0.7,0.1,1.5,0.2,2.2,0.3c-0.1,0.1-0.1,0.3-0.3,0.4C629.6,315.7,628.9,315.4,628.5,314.7
			C628.5,314.7,628.5,314.7,628.5,314.7z"/>
		<path fill="#E5E5E5" d="M471.5,408.7c1.1,0.8,0.9,1.9,1,3c0,0,0,0,0,0C471.4,411,471.6,409.8,471.5,408.7
			C471.5,408.7,471.5,408.7,471.5,408.7z"/>
		<path fill="#E5E5E5" d="M593.5,252.7c-0.1,0.6-0.2,1.3-0.3,1.9c-0.2-0.1-0.5-0.2-0.5-0.3C592.6,253.6,592.8,253.1,593.5,252.7
			L593.5,252.7z"/>
		<path fill="#E5E5E5" d="M471.5,426.7c0,0.8-0.2,1.6-1,2c0,0,0,0,0,0C470.5,427.9,470.7,427.2,471.5,426.7
			C471.5,426.7,471.5,426.7,471.5,426.7z"/>
		<path fill="#E5E5E5" d="M587.5,272.7c0.8,0.4,1,1.2,1,2c0,0,0,0,0,0C587.6,274.3,587.5,273.5,587.5,272.7
			C587.5,272.7,587.5,272.7,587.5,272.7z"/>
		<path fill="#E5E5E5" d="M472.5,425.7c0.3-0.3,0.7-0.7,1-1c0,0,0,0,0,0C473.1,425,472.8,425.3,472.5,425.7L472.5,425.7z"/>
		<path fill="#E5E5E5" d="M472.5,425.7c-0.3,0.3-0.7,0.7-1,1c0,0,0,0,0,0C471.8,426.4,472.2,426.1,472.5,425.7
			C472.5,425.7,472.5,425.7,472.5,425.7z"/>
		<path fill="#E5E5E5" d="M596.5,354.7c-0.1-0.1-0.3-0.1-0.4-0.2C596.2,354.6,596.3,354.7,596.5,354.7
			C596.5,354.7,596.5,354.7,596.5,354.7z"/>
		<path fill="#E5E5E5" d="M645.5,313.7c0.1,0.1,0.3,0.3,0.4,0.4c-0.1,0-0.2,0-0.3-0.1C645.6,313.9,645.6,313.8,645.5,313.7
			L645.5,313.7z"/>
		<path fill="#E5E5E5" d="M633.5,313.7c-0.1,0.1-0.3,0.3-0.4,0.4c0-0.1,0-0.2,0.1-0.2C633.3,313.8,633.4,313.8,633.5,313.7
			C633.5,313.7,633.5,313.7,633.5,313.7z"/>
		<path fill="#E5E5E5" d="M645.5,313.7c-0.3-0.3-0.7-0.7-1-1c0,0,0,0,0,0C644.8,313.1,645.1,313.4,645.5,313.7
			C645.5,313.7,645.5,313.7,645.5,313.7z"/>
		<path fill="#E5E5E5" d="M646.5,311.7c0.1,0.1,0.3,0.1,0.4,0.2C646.8,311.9,646.6,311.8,646.5,311.7
			C646.5,311.7,646.5,311.7,646.5,311.7z"/>
		<path fill="#E5E5E5" d="M579.5,285.7c-0.1-0.1-0.3-0.1-0.4-0.2C579.2,285.6,579.3,285.6,579.5,285.7
			C579.5,285.7,579.5,285.7,579.5,285.7z"/>
		<path fill="#E5E5E5" d="M593.5,252.7c0.3-0.3,0.7-0.7,1-1c0,0,0,0,0,0C594.1,252,593.8,252.4,593.5,252.7
			C593.5,252.7,593.5,252.7,593.5,252.7z"/>
		<path fill="#FEFEFE" d="M97.5,44.7c-0.2-3-0.5-6-0.7-9.1c0.7,5.1,7.8,6.5,7.3,13C102.2,46,100.5,44,97.5,44.7
			C97.5,44.7,97.5,44.7,97.5,44.7z"/>
		<path fill="#FEFEFE" d="M153.5,127.7c-0.1,0.4-0.3,0.9-0.4,1.3c-0.1-0.1-0.3-0.2-0.4-0.3C153,128.4,153.2,128.1,153.5,127.7
			L153.5,127.7z"/>
		<path fill="#FEFEFE" d="M88.5,24.7c-0.1,0.4-0.3,0.9-0.4,1.3c-0.1-0.1-0.3-0.2-0.4-0.2C88,25.4,88.2,25.1,88.5,24.7
			C88.5,24.7,88.5,24.7,88.5,24.7z"/>
		<path fill="#FEFEFE" d="M88.5,24.7c0.1-0.1,0.1-0.2,0.2-0.3c0-0.1,0.2-0.1,0.3-0.1C88.8,24.4,88.6,24.6,88.5,24.7
			C88.5,24.7,88.5,24.7,88.5,24.7z"/>
		<path fill="#FEFEFE" d="M157.5,131.7c-0.1-0.1-0.3-0.2-0.4-0.2C157.2,131.6,157.3,131.6,157.5,131.7
			C157.5,131.7,157.5,131.7,157.5,131.7z"/>
		<path fill="#FEFEFE" d="M153.5,127.7c0.1-0.1,0.3-0.3,0.4-0.4c0,0.1,0,0.2-0.1,0.3C153.7,127.6,153.6,127.7,153.5,127.7
			C153.5,127.7,153.5,127.7,153.5,127.7z"/>
		<path fill="#FEFEFE" d="M148.5,120.7c-0.1,0.1-0.3,0.3-0.4,0.4c0-0.1,0-0.2,0.1-0.3C148.2,120.8,148.4,120.8,148.5,120.7
			L148.5,120.7z"/>
		<path fill="#FEFEFE" d="M148.5,120.7c0.1-0.1,0.2-0.3,0.2-0.4C148.6,120.4,148.6,120.6,148.5,120.7
			C148.5,120.7,148.5,120.7,148.5,120.7z"/>
		<path fill="#FEFEFE" d="M102.5,79.7c0.3-0.3,0.7-0.7,1-1c0,0,0,0,0,0C103.2,79,102.8,79.4,102.5,79.7
			C102.5,79.7,102.5,79.7,102.5,79.7z"/>
		<path fill="#FEFEFE" d="M104.5,77.7c-0.3,0.3-0.7,0.7-1,1c0,0,0,0,0,0C103.8,78.4,104.1,78,104.5,77.7L104.5,77.7z"/>
		<path fill="#FEFEFE" d="M104.5,77.7c0.1-0.1,0.3-0.3,0.4-0.4c0,0.1,0,0.2-0.1,0.3C104.7,77.6,104.6,77.7,104.5,77.7
			C104.5,77.7,104.5,77.7,104.5,77.7z"/>
		<path fill="#FEFEFE" d="M173.5,74.7c0.3,0.3,0.7,0.7,1,1c0,0,0,0,0,0C174.1,75.4,173.8,75,173.5,74.7L173.5,74.7z"/>
		<path fill="#FEFEFE" d="M173.5,74.7c-0.3-0.3-0.7-0.7-1-1l0,0C172.8,74,173.2,74.4,173.5,74.7C173.5,74.7,173.5,74.7,173.5,74.7z"
			/>
		<path fill="#FEFEFE" d="M172.5,73.7c-0.1-0.1-0.3-0.1-0.4-0.2C172.2,73.6,172.3,73.6,172.5,73.7C172.5,73.7,172.5,73.7,172.5,73.7
			z"/>
		<path fill="#FEFEFE" d="M627.5,63.7c-0.4,1.7,1,4.5-1.8,4.8c-2,0.2-5.1,1.9-6.2-1.8c0,0,0,0,0,0C622.7,67.3,624.6,64.1,627.5,63.7
			L627.5,63.7z"/>
		<path fill="#FEFEFE" d="M627.5,63.7c2.5-1.5,0.3-6.1,4.6-6.8C631.8,60.3,632.6,64,627.5,63.7C627.5,63.7,627.5,63.7,627.5,63.7z"
			/>
		<path fill="#FEFEFE" d="M586.9,134.7c-1.5,1-3.2,2.9-4.7,1.4c-1.4-1.4-0.7-3.4,2-3.5C584.1,134.5,586.2,133.6,586.9,134.7z"/>
		<path fill="#FEFEFE" d="M593.5,122.7c-0.7,1.4-1.5,2.8-2.2,4.3C588,123.2,590.3,122.7,593.5,122.7L593.5,122.7z"/>
		<path fill="#FEFEFE" d="M585.5,147.7c1.1,0.1,2.2,0.2,3.8,0.3C587.4,150,586.2,150.4,585.5,147.7
			C585.5,147.7,585.5,147.7,585.5,147.7z"/>
		<path fill="#FEFEFE" d="M586.5,129.3c-0.9-0.1-1-0.7-0.8-1.3c0.2-0.5,0.6-1.3,1-1.4c0.9-0.2,0.7,0.7,0.7,1.3
			C587.4,128.5,587.3,129.1,586.5,129.3z"/>
		<path fill="#FEFEFE" d="M597.9,107.4c0.7,0.9,1.2,1.8,0.6,2.9C597.1,109.6,597.4,108.6,597.9,107.4z"/>
		<path fill="#FEFEFE" d="M587.5,140.7c-0.1,0.1-0.3,0.3-0.4,0.4c0-0.1,0-0.2,0.1-0.3C587.2,140.8,587.4,140.8,587.5,140.7
			C587.5,140.7,587.5,140.7,587.5,140.7z"/>
		<path fill="#FEFEFE" d="M588.5,139.7c-0.3,0.3-0.7,0.7-1,1c0,0,0,0,0,0C587.8,140.4,588.1,140,588.5,139.7
			C588.5,139.7,588.5,139.7,588.5,139.7z"/>
		<path fill="#FEFEFE" d="M588.5,139.7c0.1-0.1,0.3-0.3,0.4-0.4c0,0.1,0,0.2-0.1,0.3C588.7,139.6,588.6,139.7,588.5,139.7
			L588.5,139.7z"/>
		<path fill="#FEFEFE" d="M593.5,122.7c0.1-0.1,0.2-0.3,0.2-0.4C593.6,122.4,593.6,122.6,593.5,122.7
			C593.5,122.7,593.5,122.7,593.5,122.7z"/>
		<path fill="#FEFEFE" d="M607.5,78.7c0.1,0.1,0.3,0.1,0.4,0.2C607.8,78.9,607.6,78.8,607.5,78.7C607.5,78.7,607.5,78.7,607.5,78.7z
			"/>
		<path fill="#FEFEFE" d="M607.5,78.7c-0.1-0.1-0.3-0.3-0.4-0.4c0.1,0,0.2,0,0.2,0.1C607.4,78.5,607.4,78.6,607.5,78.7
			C607.5,78.7,607.5,78.7,607.5,78.7z"/>
		<path fill="#E5E5E5" d="M756.5,359.7c-0.8,1.9-2.4,2.1-4.1,1.9c-6.4-0.6-12.8-1.3-19.2-2c-2.8-0.3-2.6-2-1.7-3.9c0,0,0,0,0,0
			c2.1,3.1,5.7,2.5,8.4,2.7C745.4,358.9,750.9,360.4,756.5,359.7L756.5,359.7z"/>
		<path fill="#E5E5E5" d="M746.5,386.7c2.7,0.3,5.5,0.7,8.2,1c2.3,0.2,4.2-0.2,3.9-4.1c2.1,3.2,1.6,4.5-1.1,5
			C753.6,389.2,749.8,389.4,746.5,386.7C746.5,386.7,746.5,386.7,746.5,386.7z"/>
		<path fill="#FEFEFE" d="M733.2,423.3c-0.5,1.3-1.5,2.3-2.3,1.9c-1.5-0.8-3.6-1.2-4.3-3c-0.4-0.9,0.6-1.6,1.5-1.2
			C729.8,421.6,731.5,422.5,733.2,423.3z"/>
		<path fill="#E5E5E5" d="M775.5,358.7c-2.6-0.5-5.3-0.5-7-3l0,0C771.1,356,774.2,355.4,775.5,358.7L775.5,358.7z"/>
		<path fill="#E5E5E5" d="M768.5,355.7c-2.7,0.3-5.4,0.7-8,1l0,0C762.9,354.6,765.5,353.7,768.5,355.7
			C768.5,355.7,768.5,355.7,768.5,355.7z"/>
		<path fill="#E5E5E5" d="M775.5,358.7c0.9,0.1,2-0.3,2.5,0.8c0.1,0.1-0.2,0.7-0.4,0.7C776.4,360.4,775.9,359.6,775.5,358.7
			C775.5,358.7,775.5,358.7,775.5,358.7z"/>
		<path fill="#FEFEFE" d="M733.5,410.7c0.1,0.6,0.2,1.2,0.3,1.8c-0.6,1.1-1.4,0.6-2.1,0.2C731.2,411.1,732.2,410.7,733.5,410.7z"/>
		<path fill="#FEFEFE" d="M725.1,421.5c-0.6,0.1-1,0.2-1.4,0.1c-0.2,0-0.4-0.3-0.5-0.5c0.4-0.1,0.8-0.3,1.2-0.3
			C724.6,420.8,724.7,421.2,725.1,421.5z"/>
		<path fill="#FEFEFE" d="M731.1,432c-0.5-0.5-1-1.2-0.4-1.6c0.8-0.5,0.9,0.5,1.2,0.9C731.7,431.5,731.4,431.8,731.1,432z"/>
		<path fill="#E5E5E5" d="M760.5,356.7c-0.4,0.9-1.2,1-2,1c0,0,0,0,0,0C758.9,356.9,759.7,356.7,760.5,356.7
			C760.5,356.7,760.5,356.7,760.5,356.7z"/>
		<path fill="#E5E5E5" d="M757.5,358.7c0.3-0.3,0.7-0.7,1-1c0,0,0,0,0,0C758.1,358,757.8,358.4,757.5,358.7
			C757.5,358.7,757.5,358.7,757.5,358.7z"/>
		<path fill="#E5E5E5" d="M756.5,359.7c0.3-0.3,0.7-0.7,1-1c0,0,0,0,0,0C757.1,359,756.8,359.4,756.5,359.7
			C756.5,359.7,756.5,359.7,756.5,359.7z"/>
		<path fill="#E5E5E5" d="M780.5,358.8c-0.1,0.4-0.1,0.7-0.2,1.1c-0.1-0.3-0.2-0.5-0.2-0.8C780.1,359,780.4,358.9,780.5,358.8z"/>
		<path fill="#FEFEFE" d="M510.3,260.5c0.3-0.3,0.5-0.7,0.9-0.2c0,0.1-0.3,0.4-0.5,0.6C510.6,260.8,510.4,260.7,510.3,260.5z"/>
		<path fill="#FEFEFE" d="M488.5,185.7c0.1-0.1,0.1-0.3,0.2-0.4c0.1-0.1,0.2,0,0.3,0C488.8,185.4,488.6,185.6,488.5,185.7
			C488.5,185.7,488.5,185.7,488.5,185.7z"/>
		<path fill="#FEFEFE" d="M347.5,50.7c0.4-0.2,0.7-0.5,1.1-0.7c0.1,0.1,0.2,0.3,0.2,0.4C348.4,50.5,347.9,50.6,347.5,50.7
			C347.5,50.7,347.5,50.7,347.5,50.7z"/>
		<path fill="#FEFEFE" d="M17.5,233.7c-0.3-3.8,1.2-5.7,5.3-6.1c4-0.4,6.9-4.7,12.8-3.4C28,225.9,24.7,233.2,17.5,233.7L17.5,233.7z
			"/>
		<path fill="#FEFEFE" d="M17.5,233.7c-0.2,0.5-0.5,1.1-0.7,1.6c-0.2-0.1-0.4-0.3-0.6-0.4C16.6,234.5,17,234.1,17.5,233.7
			C17.5,233.7,17.5,233.7,17.5,233.7z"/>
		<path fill="#FEFEFE" d="M36.5,287.7c0.1,0.1,0.3,0.2,0.4,0.2C36.8,287.9,36.6,287.8,36.5,287.7C36.5,287.7,36.5,287.7,36.5,287.7z
			"/>
		<path fill="#E5E5E5" d="M472.5,222.7c-0.8,1.3-1.6,2.3-3.6,1.2C469.8,222.2,471.4,223.2,472.5,222.7
			C472.5,222.7,472.5,222.7,472.5,222.7z"/>
		<path fill="#FEFEFE" d="M458,244.9c-0.6,0.2-1.1,0.4-1.6,0.5c0,0-0.3-0.6-0.3-0.6c0.5-0.3,1-0.6,1.5-0.9
			C457.7,244.2,457.8,244.4,458,244.9z"/>
		<path fill="#E5E5E5" d="M473.5,220.7c0.3-0.2,0.7-0.5,1-0.7C474.8,221.1,473.8,220.4,473.5,220.7L473.5,220.7z"/>
		<path fill="#E5E5E5" d="M473.5,220.7c-0.1,0.8-0.1,1.6-1,2c0,0,0,0,0,0C472.5,221.9,472.7,221.1,473.5,220.7
			C473.5,220.7,473.5,220.7,473.5,220.7z"/>
		<path fill="#FEFEFE" d="M450.2,259.5c0.3-0.4,0.6-0.7,1-0.1c0,0-0.4,0.4-0.6,0.6C450.5,259.7,450.4,259.6,450.2,259.5z"/>
		<path fill="#E5E5E5" d="M466.5,221.7c0.1,0.1,0.3,0.1,0.4,0.2C466.8,221.8,466.6,221.8,466.5,221.7L466.5,221.7z"/>
		<path fill="#E5E5E5" d="M466.5,221.7c-0.1-0.1-0.3-0.2-0.4-0.2C466.2,221.5,466.3,221.6,466.5,221.7
			C466.5,221.7,466.5,221.7,466.5,221.7z"/>
		<path fill="#E5E5E5" d="M464.5,218.7c0.1,0.1,0.3,0.3,0.4,0.4c-0.1,0-0.2,0-0.3-0.1C464.6,218.9,464.5,218.8,464.5,218.7
			C464.5,218.7,464.5,218.7,464.5,218.7z"/>
		<path fill="#FEFEFE" d="M14.2,333.3c-0.2,1.8-1.3,2.3-2.8,2.3c-1.2,0-1.9-0.6-1.8-1.8c0.2-1.5,1.5-2.2,2.8-2.4
			C13.9,331.2,13.6,332.7,14.2,333.3z"/>
		<path fill="#FEFEFE" d="M569.1,260.4c0,0.1,0.1,0.2,0.1,0.4c-0.2,0-0.4,0.1-0.5,0.1c0-0.1,0-0.3,0.1-0.4
			C568.8,260.4,569,260.4,569.1,260.4z"/>
		<path fill="#88C6E0" d="M584.5,284.7c-0.1-3.6,1.7-3.4,4-2c0.4,1.8,1.5,3.9-1,4.9C585.1,288.5,585.8,285.3,584.5,284.7z"/>
	</g>
</g>
<g>
	<circle fill="#FFFFFF" stroke="#0074FF" stroke-width="3" stroke-miterlimit="10" cx="551" cy="382.5" r="19"/>
	<circle fill="#0074FF" cx="551" cy="382.5" r="9.7"/>
</g>
<g>
	<circle fill="#FFFFFF" stroke="#0074FF" stroke-width="3" stroke-miterlimit="10" cx="551" cy="320.5" r="19"/>
	<circle fill="#0074FF" cx="551" cy="320.5" r="9.7"/>
</g>
<g>
	<circle fill="#FFFFFF" stroke="#0074FF" stroke-width="3" stroke-miterlimit="10" cx="532" cy="240.2" r="19"/>
	<circle fill="#0074FF" cx="532" cy="240.2" r="9.7"/>
</g>
<g>
	<circle fill="#FFFFFF" stroke="#0074FF" stroke-width="3" stroke-miterlimit="10" cx="681" cy="114" r="19"/>
	<circle fill="#0074FF" cx="681" cy="114" r="9.7"/>
</g>
<g>
	<circle fill="#FFFFFF" stroke="#0074FF" stroke-width="3" stroke-miterlimit="10" cx="656" cy="392.3" r="19"/>
	<circle fill="#0074FF" cx="656" cy="392.3" r="9.7"/>
</g>
<g>
	<circle fill="#FFFFFF" stroke="#0074FF" stroke-width="3" stroke-miterlimit="10" cx="450" cy="230.5" r="19"/>
	<circle fill="#0074FF" cx="450" cy="230.5" r="9.7"/>
</g>
<g>
	<circle fill="#FFFFFF" stroke="#0074FF" stroke-width="3" stroke-miterlimit="10" cx="772" cy="339.5" r="19"/>
	<circle fill="#0074FF" cx="772" cy="339.5" r="9.7"/>
</g>
</svg>
