<?xml version="1.0" encoding="utf-8"?>
<!-- Generator: Adobe Illustrator 18.0.0, SVG Export Plug-In . SVG Version: 6.00 Build 0)  -->
<!DOCTYPE svg PUBLIC "-//W3C//DTD SVG 1.1//EN" "http://www.w3.org/Graphics/SVG/1.1/DTD/svg11.dtd">
<svg version="1.1" id="Layer_1" xmlns="http://www.w3.org/2000/svg" xmlns:xlink="http://www.w3.org/1999/xlink" x="0px" y="0px"
	 viewBox="0 0 1234 474" enable-background="new 0 0 1234 474" xml:space="preserve">
<line opacity="0.4" fill="none" stroke="#000000" stroke-linecap="round" stroke-linejoin="round" x1="27" y1="469" x2="1207" y2="469"/>
<line opacity="0.4" fill="none" stroke="#000000" stroke-linecap="round" stroke-linejoin="round" x1="27" y1="409" x2="1207" y2="409"/>
<line opacity="0.4" fill="none" stroke="#000000" stroke-linecap="round" stroke-linejoin="round" x1="27" y1="349" x2="1207" y2="349"/>
<line opacity="0.4" fill="none" stroke="#000000" stroke-linecap="round" stroke-linejoin="round" x1="27" y1="289" x2="1207" y2="289"/>
<line opacity="0.4" fill="none" stroke="#000000" stroke-linecap="round" stroke-linejoin="round" x1="27" y1="229" x2="1207" y2="229"/>
<line opacity="0.4" fill="none" stroke="#000000" stroke-linecap="round" stroke-linejoin="round" x1="27" y1="169" x2="1207" y2="169"/>
<line opacity="0.4" fill="none" stroke="#000000" stroke-linecap="round" stroke-linejoin="round" x1="27" y1="109" x2="1207" y2="109"/>
<line opacity="0.4" fill="none" stroke="#000000" stroke-linecap="round" stroke-linejoin="round" x1="27" y1="49" x2="1207" y2="49"/>
<g>
	<polyline fill="none" stroke="#00A4FF" stroke-width="5" stroke-linecap="round" stroke-linejoin="round" points="40,437 69,379 
		97,392 122,368 160,382 236,358 284,344 330,352 384,352 432,358 511,325 559,330 601,318 656,312 689,323 768,300 816,308 
		872,293 900,50 926,222 1003,289 1058,294 1105.7,302 1148.7,311 1197.7,319 	"/>
	
		<circle fill="#FFFFFF" stroke="#00A4FF" stroke-width="5" stroke-linecap="round" stroke-linejoin="round" cx="900" cy="50" r="7.3"/>
	
		<circle fill="#FFFFFF" stroke="#00A4FF" stroke-width="5" stroke-linecap="round" stroke-linejoin="round" cx="926" cy="220.5" r="7.3"/>
	
		<circle fill="#FFFFFF" stroke="#00A4FF" stroke-width="5" stroke-linecap="round" stroke-linejoin="round" cx="1003" cy="289" r="7.3"/>
	
		<circle fill="#FFFFFF" stroke="#00A4FF" stroke-width="5" stroke-linecap="round" stroke-linejoin="round" cx="1058" cy="294" r="7.3"/>
	
		<circle fill="#FFFFFF" stroke="#00A4FF" stroke-width="5" stroke-linecap="round" stroke-linejoin="round" cx="1105.7" cy="302" r="7.3"/>
	
		<circle fill="#FFFFFF" stroke="#00A4FF" stroke-width="5" stroke-linecap="round" stroke-linejoin="round" cx="1152.2" cy="309.3" r="7.3"/>
	
		<circle fill="#FFFFFF" stroke="#00A4FF" stroke-width="5" stroke-linecap="round" stroke-linejoin="round" cx="1199.7" cy="317.7" r="7.3"/>
	
		<circle fill="#FFFFFF" stroke="#00A4FF" stroke-width="5" stroke-linecap="round" stroke-linejoin="round" cx="871.5" cy="294" r="7.3"/>
	
		<circle fill="#FFFFFF" stroke="#00A4FF" stroke-width="5" stroke-linecap="round" stroke-linejoin="round" cx="816.5" cy="306.5" r="7.3"/>
	
		<circle fill="#FFFFFF" stroke="#00A4FF" stroke-width="5" stroke-linecap="round" stroke-linejoin="round" cx="768" cy="300" r="7.3"/>
	
		<circle fill="#FFFFFF" stroke="#00A4FF" stroke-width="5" stroke-linecap="round" stroke-linejoin="round" cx="690" cy="324" r="7.3"/>
	
		<circle fill="#FFFFFF" stroke="#00A4FF" stroke-width="5" stroke-linecap="round" stroke-linejoin="round" cx="653.5" cy="311" r="7.3"/>
	
		<circle fill="#FFFFFF" stroke="#00A4FF" stroke-width="5" stroke-linecap="round" stroke-linejoin="round" cx="604" cy="317.7" r="7.3"/>
	
		<circle fill="#FFFFFF" stroke="#00A4FF" stroke-width="5" stroke-linecap="round" stroke-linejoin="round" cx="558.5" cy="328" r="7.3"/>
	
		<circle fill="#FFFFFF" stroke="#00A4FF" stroke-width="5" stroke-linecap="round" stroke-linejoin="round" cx="511" cy="325" r="7.3"/>
	
		<circle fill="#FFFFFF" stroke="#00A4FF" stroke-width="5" stroke-linecap="round" stroke-linejoin="round" cx="432" cy="358" r="7.3"/>
	
		<circle fill="#FFFFFF" stroke="#00A4FF" stroke-width="5" stroke-linecap="round" stroke-linejoin="round" cx="387" cy="351.7" r="7.3"/>
	
		<circle fill="#FFFFFF" stroke="#00A4FF" stroke-width="5" stroke-linecap="round" stroke-linejoin="round" cx="330" cy="350.7" r="7.3"/>
	
		<circle fill="#FFFFFF" stroke="#00A4FF" stroke-width="5" stroke-linecap="round" stroke-linejoin="round" cx="283.5" cy="344.3" r="7.3"/>
	
		<circle fill="#FFFFFF" stroke="#00A4FF" stroke-width="5" stroke-linecap="round" stroke-linejoin="round" cx="237" cy="358" r="7.3"/>
	
		<circle fill="#FFFFFF" stroke="#00A4FF" stroke-width="5" stroke-linecap="round" stroke-linejoin="round" cx="160" cy="382" r="7.3"/>
	
		<circle fill="#FFFFFF" stroke="#00A4FF" stroke-width="5" stroke-linecap="round" stroke-linejoin="round" cx="122" cy="368" r="7.3"/>
	
		<circle fill="#FFFFFF" stroke="#00A4FF" stroke-width="5" stroke-linecap="round" stroke-linejoin="round" cx="97" cy="390.3" r="7.3"/>
	
		<circle fill="#FFFFFF" stroke="#00A4FF" stroke-width="5" stroke-linecap="round" stroke-linejoin="round" cx="69" cy="379" r="7.3"/>
	
		<circle fill="#FFFFFF" stroke="#00A4FF" stroke-width="5" stroke-linecap="round" stroke-linejoin="round" cx="41" cy="437.5" r="7.3"/>
</g>
</svg>
