<?xml version="1.0" encoding="utf-8"?>
<!-- Generator: Adobe Illustrator 25.2.3, SVG Export Plug-In . SVG Version: 6.00 Build 0)  -->
<svg version="1.1" id="Layer_1" xmlns:xodm="http://www.corel.com/coreldraw/odm/2003"
	 xmlns="http://www.w3.org/2000/svg" xmlns:xlink="http://www.w3.org/1999/xlink" x="0px" y="0px" viewBox="0 0 325.8 328"
	 style="enable-background:new 0 0 325.8 328;" xml:space="preserve">
<style type="text/css">
	.st0{clip-path:url(#SVGID_2_);}
	.st1{fill:#E52736;}
	.st2{fill:#E52936;}
	.st3{fill:#E52C35;}
	.st4{fill:#E52D35;}
	.st5{fill:#E53035;}
	.st6{fill:#E63235;}
	.st7{fill:#E63435;}
	.st8{fill:#E63635;}
	.st9{fill:#E63734;}
	.st10{fill:#E63934;}
	.st11{fill:#E73B34;}
	.st12{fill:#E73D33;}
	.st13{fill:#E73E33;}
	.st14{fill:#E74033;}
	.st15{fill:#E74233;}
	.st16{fill:#E74432;}
	.st17{fill:#E84632;}
	.st18{fill:#E84831;}
	.st19{fill:#E84A32;}
	.st20{fill:#E84C31;}
	.st21{fill:#E84D31;}
	.st22{fill:#E94F30;}
	.st23{fill:#E95130;}
	.st24{fill:#E9532F;}
	.st25{fill:#E9542F;}
	.st26{fill:#E9552F;}
	.st27{fill:#EA572F;}
	.st28{fill:#EA592E;}
	.st29{fill:#EA5B2E;}
	.st30{fill:#EA5C2D;}
	.st31{fill:#EA5D2C;}
	.st32{fill:#EB5F2C;}
	.st33{fill:#EB612C;}
	.st34{fill:#EB622B;}
	.st35{fill:#EB642A;}
	.st36{fill:#EB652A;}
	.st37{fill:#EC6729;}
	.st38{fill:#EC6928;}
	.st39{fill:#EC6A28;}
	.st40{fill:#EC6B28;}
	.st41{fill:#ED6D27;}
	.st42{fill:#ED6F26;}
	.st43{fill:#ED7025;}
	.st44{fill:#ED7124;}
	.st45{fill:#ED7323;}
	.st46{fill:#EE7522;}
	.st47{fill:#EE7622;}
	.st48{fill:#EE7721;}
	.st49{fill:#EE791F;}
	.st50{fill:#EF7B1E;}
	.st51{fill:#EF7C1D;}
	.st52{fill:#EF7D1C;}
	.st53{fill:#EF7F1A;}
	.st54{fill:#EF801A;}
	.st55{fill:#F08219;}
	.st56{fill:#F08419;}
	.st57{fill:#F08618;}
	.st58{fill:#F18818;}
	.st59{fill:#F18917;}
	.st60{fill:#F18A17;}
	.st61{fill:#F18C16;}
	.st62{fill:#F18D16;}
	.st63{fill:#F28F15;}
	.st64{fill:#F29015;}
	.st65{fill:#F29114;}
	.st66{fill:#F39314;}
	.st67{fill:#F39413;}
	.st68{fill:#F39612;}
	.st69{fill:#F49712;}
	.st70{fill:#F49811;}
	.st71{fill:#F49A11;}
	.st72{fill:#F49B0F;}
	.st73{fill:#F59D0E;}
	.st74{fill:#F59E0E;}
	.st75{fill:#F59F0D;}
	.st76{fill:#F5A10B;}
	.st77{fill:#F6A20A;}
	.st78{fill:#F6A409;}
	.st79{fill:#F6A607;}
	.st80{fill:#F6A707;}
	.st81{fill:#F4A809;}
	.st82{fill:#F3A80A;}
	.st83{fill:#F2A90A;}
	.st84{fill:#F0A90C;}
	.st85{fill:#EFAA0C;}
	.st86{fill:#EDAB0C;}
	.st87{fill:#EBAB0E;}
	.st88{fill:#EAAC0D;}
	.st89{fill:#E8AC0F;}
	.st90{fill:#E7AC10;}
	.st91{fill:#E6AD10;}
	.st92{fill:#E4AD12;}
	.st93{fill:#E3AE12;}
	.st94{fill:#E1AE13;}
	.st95{fill:#DFAE14;}
	.st96{fill:#DEAF14;}
	.st97{fill:#DCAF14;}
	.st98{fill:#DBB015;}
	.st99{fill:#D9B016;}
	.st100{fill:#D7B017;}
	.st101{fill:#D6B118;}
	.st102{fill:#D4B119;}
	.st103{fill:#D3B11A;}
	.st104{fill:#D1B21A;}
	.st105{fill:#CFB21B;}
	.st106{fill:#CEB21B;}
	.st107{fill:#CCB31C;}
	.st108{fill:#CAB21E;}
	.st109{fill:#C9B31E;}
	.st110{fill:#C6B31F;}
	.st111{fill:#C5B31F;}
	.st112{fill:#C3B320;}
	.st113{fill:#C1B321;}
	.st114{fill:#BFB421;}
	.st115{fill:#BEB422;}
	.st116{fill:#BBB323;}
	.st117{fill:#B9B423;}
	.st118{fill:#B7B424;}
	.st119{fill:#B5B425;}
	.st120{fill:#B3B425;}
	.st121{fill:#B1B426;}
	.st122{fill:#AFB426;}
	.st123{fill:#ACB427;}
	.st124{fill:#ABB428;}
	.st125{fill:#A9B428;}
	.st126{fill:#A6B429;}
	.st127{fill:#A4B42A;}
	.st128{fill:#A2B42A;}
	.st129{fill:#A0B42B;}
	.st130{fill:#9EB42B;}
	.st131{fill:#9BB42C;}
	.st132{fill:#99B42D;}
	.st133{fill:#97B42D;}
	.st134{fill:#94B42E;}
	.st135{fill:#92B42E;}
	.st136{fill:#90B42F;}
	.st137{fill:#8DB330;}
	.st138{fill:#8AB430;}
	.st139{fill:#87B331;}
	.st140{fill:#85B331;}
	.st141{fill:#82B332;}
	.st142{fill:#7FB233;}
	.st143{fill:#7CB333;}
	.st144{fill:#79B234;}
	.st145{fill:#76B234;}
	.st146{fill:#73B235;}
	.st147{fill:#6FB136;}
	.st148{fill:#6DB136;}
	.st149{fill:#6AB137;}
	.st150{fill:#65B137;}
	.st151{fill:#62B138;}
	.st152{fill:#5EB039;}
	.st153{fill:#5AB039;}
	.st154{fill:#57B039;}
	.st155{fill:#56AF3A;}
	.st156{fill:#53AF3A;}
	.st157{fill:#51AE3A;}
	.st158{fill:#4EAE3B;}
	.st159{fill:#4CAD3B;}
	.st160{fill:#49AD3C;}
	.st161{fill:#48AC3C;}
	.st162{fill:#43AC3C;}
	.st163{fill:#41AB3C;}
	.st164{fill:#3CAB3D;}
	.st165{fill:#3AAA3D;}
	.st166{fill:#36AA3D;}
	.st167{fill:#33A93D;}
	.st168{fill:#31A93E;}
	.st169{fill:#2DA83E;}
	.st170{fill:#2AA83E;}
	.st171{fill:#26A73F;}
	.st172{fill:#24A73F;}
	.st173{fill:#1FA63F;}
	.st174{fill:#1DA63F;}
	.st175{fill:#19A540;}
	.st176{fill:#17A540;}
	.st177{fill:#13A440;}
	.st178{fill:#11A440;}
	.st179{fill:#0DA341;}
	.st180{fill:#0BA341;}
	.st181{fill:#07A241;}
	.st182{fill:#05A241;}
	.st183{fill:#01A142;}
	.st184{fill:#00A142;}
	.st185{fill:#00A042;}
	.st186{fill:#009F43;}
	.st187{fill:#009E43;}
	.st188{fill:#009D44;}
	.st189{fill:#009C44;}
	.st190{fill:#009B45;}
	.st191{fill:#009A45;}
	.st192{fill:#009945;}
	.st193{fill:#009946;}
	.st194{fill:#009846;}
</style>
<g id="Layer_x0020_1">
	<g id="_2128826558864">
		<g>
			<g>
				<defs>
					<path id="SVGID_1_" d="M206.9,22.1c-3.6,3.9-7.4,7.7-11.3,11.3c4.9,2.8,9.6,5.8,14.1,9.1c3.3,2.4,6.6,4.9,9.7,7.5
						c5.1-5.1,9.8-10.6,14.2-16.3C225.2,29,216.2,25.1,206.9,22.1z M150.7,312.7c-6.6-3.7-12.9-7.7-19-12.1c-2.3-1.6-4.6-3.3-6.8-5
						c-10.6,0.8-21.1,1.2-31.6,1c7.3,3.7,14.8,6.9,22.6,9.4C127.1,309.6,138.8,311.9,150.7,312.7L150.7,312.7z M108.5,281.6
						c-5.7-5.4-11.1-11.1-16.2-17c-2.6-3.1-2.3-7.8,0.8-10.5c3.1-2.7,7.8-2.3,10.5,0.8c7.9,9.2,16.5,17.7,26,25.3
						c17.5-1.7,35.1-4.9,52.7-9.6c22.8-6.1,44.4-14.5,64.5-24.8c2.3-1.2,4.6-2.4,6.8-3.6c1.9-4.4,3.6-8.8,5-13.3
						c2.9-9,5-18.3,6.3-27.7c-9.4,6.3-19.2,12.1-29.4,17.4c-3.6,1.9-8.1,0.4-10-3.2c-1.9-3.6-0.5-8.1,3.2-10
						c13.2-6.8,25.8-14.6,37.5-23.2c0.1-11.2-1.1-22.5-3.5-33.8c-8.8,7.1-18.1,13.7-27.9,19.8c-3.5,2.2-8.1,1.1-10.2-2.4
						c-2.2-3.5-1.1-8.1,2.4-10.2c11.1-6.9,21.6-14.5,31.4-22.9c-3.2-9.7-7.3-18.9-12.1-27.6c-0.9,0.9-1.9,1.7-2.9,2.5
						c-14.9,12.8-31.5,23.9-49.6,32.7c-3.7,1.8-8.2,0.2-10-3.4c-1.8-3.7-0.2-8.2,3.4-10c17-8.3,32.5-18.6,46.4-30.6
						c1.5-1.3,3.1-2.7,4.6-4.1c-5.5-7.9-11.7-15.3-18.5-21.9c-5.6,5-11.5,9.6-17.7,13.9c-18.4,12.8-39.2,22.6-62.1,28.8
						c-20.8,5.6-41.7,7.6-62.1,6.5c-4.6-0.2-9.2-0.6-13.8-1.2c-1.3,5.2-2.4,10.4-3.3,15.7c-0.7,4.1-4.5,6.8-8.5,6.1
						c-4.1-0.7-6.8-4.5-6.1-8.6c0.9-5.2,1.9-10.5,3.2-15.6c-9-1.8-17.7-4.2-26.3-7.2c-3.6,9-6.3,18.3-8.1,27.9
						c-0.8,4.1-4.7,6.7-8.7,6c-4.1-0.8-6.7-4.7-6-8.7c5.7-30.5,20.1-58.7,41-81.3C61.5,30.5,88,13.9,118.9,5.6
						C162.6-6.1,206.9,1,243.3,22l0.4,0.3c36.1,21,64.3,55.8,76,99.3c11.7,43.7,4.6,88.1-16.4,124.4c-21,36.4-55.8,64.7-99.6,76.4
						c-31.5,8.5-63.4,7.1-92.3-2.2c-29.8-9.6-56.6-27.6-76.7-52c-2.6-3.2-2.2-7.9,1-10.5c3.2-2.6,7.8-2.2,10.5,1
						c6.6,8,14,15.3,22,21.6C81.4,281.7,94.9,282.1,108.5,281.6L108.5,281.6z M147.1,293.2c11.1,7.2,23,13.4,35.5,18.4
						c5.7-0.9,11.5-2,17.2-3.6l1.2-0.3c0.2-0.2,0.5-0.5,0.8-0.7c15.9-11.5,29.2-25.8,39.5-41.9c-17.6,8.2-36.1,14.9-55.4,20.1
						C173,288.6,160.1,291.3,147.1,293.2L147.1,293.2z M115.6,25.5C105.1,36.2,95.9,48,88.2,60.6c12-0.2,24.1-1.8,36.3-5.1
						c14.5-3.9,28-9.8,40.1-17.4c1-0.6,1.9-1.2,2.9-1.8C151.1,29.8,133.6,26.1,115.6,25.5z M79.9,75.3c-4.6,9.2-8.5,18.6-11.7,28.4
						c3.4,0.4,6.9,0.7,10.4,0.9c18.9,1,38.2-0.9,57.5-6c21.1-5.7,40.4-14.8,57.4-26.6c5.2-3.7,10.3-7.6,15.1-11.7
						c-2.4-2-4.9-3.8-7.4-5.6c-5.7-4.1-11.7-7.8-17.9-11.1c-3.4,2.6-7,5-10.7,7.3c-13.4,8.3-28.2,14.8-44.2,19.1
						c-14.6,3.9-29.4,5.7-43.9,5.6C82.9,75.4,81.4,75.4,79.9,75.3L79.9,75.3z M53.2,101.4c3-9.4,6.6-18.5,10.8-27.4
						c-6.3-0.9-12.6-2.1-18.7-3.6C39.1,78,33.7,86.3,29.2,95C37,97.7,45.1,99.8,53.2,101.4L53.2,101.4z M71.3,59.9
						c5.1-9.1,10.9-17.8,17.3-26.1c-11.8,6.6-22.5,14.6-31.9,23.9C61.6,58.7,66.4,59.4,71.3,59.9z M150.5,15.3
						c10.6,2.6,21,6.2,30.9,10.7c3.1-2.6,6.2-5.4,9.1-8.2C177.5,15.2,164.1,14.3,150.5,15.3L150.5,15.3z M230.5,60
						c6.7,6.6,12.9,13.9,18.5,21.6c6.7-7,12.9-14.4,18.6-22.2c-6.5-6.6-13.6-12.5-21.2-17.8C241.5,48,236.2,54.2,230.5,60z
						 M257.3,94.4c5,8.5,9.3,17.6,12.9,27.2c8.5-8.2,16.3-17,23.5-26.2c-4.6-8.8-10-17-16-24.6C271.4,79,264.6,87,257.3,94.4z
						 M275.2,137.3c3,11.1,4.7,22.3,5.4,33.4c9.3-7.8,18.1-16.1,26.4-25c0.6-0.7,1.3-1.2,2-1.5c-0.9-6.3-2.1-12.5-3.8-18.8
						c-1.4-5.1-3-10-4.8-14.8C292.7,120.1,284.3,129,275.2,137.3L275.2,137.3z M280.7,189.7c-0.7,13.9-3.1,27.5-7.1,40.6
						c10.5-6.8,20.5-14,30-21.8c4.5-14.3,6.8-29.4,6.8-44.8C301.2,172.9,291.3,181.6,280.7,189.7L280.7,189.7z M265,252.9
						c-6,13-13.7,25.3-22.9,36.4c20.1-13,36.6-30.5,48.2-50.7c0.5-0.8,1-1.7,1.4-2.5C283.2,242,274.3,247.7,265,252.9L265,252.9z"/>
				</defs>
				<clipPath id="SVGID_2_">
					<use xlink:href="#SVGID_1_"  style="overflow:visible;"/>
				</clipPath>
				<g class="st0">
					<polygon class="st1" points="162.6,164 -76,162.5 -75.8,153.7 					"/>
					<polygon id="_x31_" class="st1" points="162.6,164 -75.8,155.2 -75.4,147.8 					"/>
					<polygon id="_x32_" class="st1" points="162.6,164 -75.5,149.3 -75,141.9 					"/>
					<polygon id="_x33_" class="st1" points="162.6,164 -75.1,143.4 -74.4,136 					"/>
					<polygon id="_x34_" class="st1" points="162.6,164 -74.5,137.5 -73.6,130.1 					"/>
					<polygon id="_x35_" class="st1" points="162.6,164 -73.8,131.6 -72.7,124.3 					"/>
					<polygon id="_x36_" class="st1" points="162.6,164 -72.9,125.8 -71.7,118.5 					"/>
					<polygon id="_x37_" class="st1" points="162.6,164 -71.9,120 -70.5,112.7 					"/>
					<polygon id="_x38_" class="st1" points="162.6,164 -70.8,114.2 -69.2,107 					"/>
					<polygon id="_x39_" class="st1" points="162.6,164 -69.5,108.4 -67.7,101.2 					"/>
					<polygon id="_x31_0" class="st1" points="162.6,164 -68.1,102.7 -66.1,95.6 					"/>
					<polygon id="_x31_1" class="st1" points="162.6,164 -66.5,97 -64.4,89.9 					"/>
					<polygon id="_x31_2" class="st1" points="162.6,164 -64.8,91.3 -62.5,84.3 					"/>
					<polygon id="_x31_3" class="st1" points="162.6,164 -63,85.7 -60.5,78.8 					"/>
					<polygon id="_x31_4" class="st1" points="162.6,164 -61,80.2 -58.4,73.3 					"/>
					<polygon id="_x31_5" class="st1" points="162.6,164 -58.9,74.7 -56.1,67.8 					"/>
					<polygon id="_x31_6" class="st1" points="162.6,164 -56.7,69.2 -53.7,62.5 					"/>
					<polygon id="_x31_7" class="st1" points="162.6,164 -54.3,63.8 -51.2,57.1 					"/>
					<polygon id="_x31_8" class="st1" points="162.6,164 -51.8,58.5 -48.5,51.9 					"/>
					<polygon id="_x31_9" class="st1" points="162.6,164 -49.2,53.2 -45.7,46.7 					"/>
					<polygon id="_x32_0" class="st1" points="162.6,164 -46.4,48 -42.8,41.6 					"/>
					<polygon id="_x32_1" class="st1" points="162.6,164 -43.5,42.9 -39.8,36.5 					"/>
					<polygon id="_x32_2" class="st1" points="162.6,164 -40.5,37.8 -36.6,31.6 					"/>
					<polygon id="_x32_3" class="st1" points="162.6,164 -37.4,32.8 -33.3,26.7 					"/>
					<polygon id="_x32_4" class="st1" points="162.6,164 -34.1,27.9 -29.9,21.8 					"/>
					<polygon id="_x32_5" class="st1" points="162.6,164 -30.7,23.1 -26.4,17.1 					"/>
					<polygon id="_x32_6" class="st1" points="162.6,164 -27.2,18.3 -22.7,12.5 					"/>
					<polygon id="_x32_7" class="st1" points="162.6,164 -23.6,13.7 -19,7.9 					"/>
					<polygon id="_x32_8" class="st1" points="162.6,164 -19.9,9.1 -15.2,3.5 					"/>
					<polygon id="_x32_9" class="st1" points="162.6,164 -16.1,4.6 -11.2,-0.9 					"/>
					<polygon id="_x33_0" class="st1" points="162.6,164 -12.2,0.2 -7.1,-5.1 					"/>
					<polygon id="_x33_1" class="st1" points="162.6,164 -8.1,-4 -3,-9.2 					"/>
					<polygon id="_x33_2" class="st1" points="162.6,164 -4,-8.2 1.3,-13.3 					"/>
					<polygon id="_x33_3" class="st1" points="162.6,164 0.3,-12.3 5.7,-17.2 					"/>
					<polygon id="_x33_4" class="st1" points="162.6,164 4.6,-16.2 10.1,-21.1 					"/>
					<polygon id="_x33_5" class="st1" points="162.6,164 9,-20.1 14.7,-24.8 					"/>
					<polygon id="_x33_6" class="st1" points="162.6,164 13.6,-23.9 19.3,-28.4 					"/>
					<polygon id="_x33_7" class="st1" points="162.6,164 18.2,-27.5 24,-31.9 					"/>
					<polygon id="_x33_8" class="st1" points="162.6,164 22.9,-31 28.9,-35.2 					"/>
					<polygon id="_x33_9" class="st1" points="162.6,164 27.6,-34.4 33.7,-38.5 					"/>
					<polygon id="_x34_0" class="st1" points="162.6,164 32.5,-37.7 38.7,-41.6 					"/>
					<polygon id="_x34_1" class="st1" points="162.6,164 37.5,-40.8 43.8,-44.6 					"/>
					<polygon id="_x34_2" class="st1" points="162.6,164 42.5,-43.9 48.9,-47.5 					"/>
					<polygon id="_x34_3" class="st1" points="162.6,164 47.6,-46.8 54,-50.2 					"/>
					<polygon id="_x34_4" class="st1" points="162.6,164 52.8,-49.6 59.3,-52.9 					"/>
					<polygon id="_x34_5" class="st1" points="162.6,164 58,-52.2 64.6,-55.4 					"/>
					<polygon id="_x34_6" class="st2" points="162.6,164 63.3,-54.7 70,-57.8 					"/>
					<polygon id="_x34_7" class="st3" points="162.6,164 68.6,-57.1 75.4,-60 					"/>
					<polygon id="_x34_8" class="st4" points="162.6,164 74.1,-59.4 80.9,-62.1 					"/>
					<polygon id="_x34_9" class="st5" points="162.6,164 79.5,-61.5 86.4,-64 					"/>
					<polygon id="_x35_0" class="st6" points="162.6,164 85,-63.5 92,-65.8 					"/>
					<polygon id="_x35_1" class="st7" points="162.6,164 90.6,-65.4 97.6,-67.5 					"/>
					<polygon id="_x35_2" class="st8" points="162.6,164 96.2,-67.1 103.2,-69.1 					"/>
					<polygon id="_x35_3" class="st9" points="162.6,164 101.8,-68.6 109,-70.4 					"/>
					<polygon id="_x35_4" class="st10" points="162.6,164 107.5,-70.1 114.7,-71.7 					"/>
					<polygon id="_x35_5" class="st11" points="162.6,164 113.2,-71.4 120.4,-72.8 					"/>
					<polygon id="_x35_6" class="st12" points="162.6,164 119,-72.5 126.2,-73.8 					"/>
					<polygon id="_x35_7" class="st13" points="162.6,164 124.8,-73.6 132,-74.6 					"/>
					<polygon id="_x35_8" class="st14" points="162.6,164 130.5,-74.4 137.8,-75.3 					"/>
					<polygon id="_x35_9" class="st15" points="162.6,164 136.4,-75.1 143.6,-75.9 					"/>
					<polygon id="_x36_0" class="st16" points="162.6,164 142.2,-75.7 149.5,-76.3 					"/>
					<polygon id="_x36_1" class="st17" points="162.6,164 148,-76.1 155.3,-76.5 					"/>
					<polygon id="_x36_2" class="st17" points="162.6,164 153.9,-76.4 161.2,-76.6 					"/>
					<polygon id="_x36_3" class="st18" points="162.6,164 159.7,-76.6 167.1,-76.6 					"/>
					<polygon id="_x36_4" class="st19" points="162.6,164 165.6,-76.6 172.9,-76.4 					"/>
					<polygon id="_x36_5" class="st20" points="162.6,164 171.4,-76.4 178.8,-76.1 					"/>
					<polygon id="_x36_6" class="st21" points="162.6,164 177.3,-76.1 184.6,-75.6 					"/>
					<polygon id="_x36_7" class="st22" points="162.6,164 183.1,-75.7 190.4,-75 					"/>
					<polygon id="_x36_8" class="st23" points="162.6,164 189,-75.1 196.2,-74.2 					"/>
					<polygon id="_x36_9" class="st24" points="162.6,164 194.8,-74.4 202,-73.3 					"/>
					<polygon id="_x37_0" class="st25" points="162.6,164 200.6,-73.6 207.8,-72.3 					"/>
					<polygon id="_x37_1" class="st26" points="162.6,164 206.3,-72.5 213.5,-71.1 					"/>
					<polygon id="_x37_2" class="st27" points="162.6,164 212.1,-71.4 219.2,-69.8 					"/>
					<polygon id="_x37_3" class="st28" points="162.6,164 217.8,-70.1 224.9,-68.3 					"/>
					<polygon id="_x37_4" class="st29" points="162.6,164 223.5,-68.6 230.5,-66.7 					"/>
					<polygon id="_x37_5" class="st30" points="162.6,164 229.1,-67.1 236.1,-64.9 					"/>
					<polygon id="_x37_6" class="st31" points="162.6,164 234.7,-65.4 241.7,-63 					"/>
					<polygon id="_x37_7" class="st32" points="162.6,164 240.3,-63.5 247.2,-61 					"/>
					<polygon id="_x37_8" class="st33" points="162.6,164 245.8,-61.5 252.6,-58.9 					"/>
					<polygon id="_x37_9" class="st34" points="162.6,164 251.3,-59.4 258,-56.6 					"/>
					<polygon id="_x38_0" class="st35" points="162.6,164 256.7,-57.1 263.4,-54.1 					"/>
					<polygon id="_x38_1" class="st36" points="162.6,164 262,-54.7 268.6,-51.6 					"/>
					<polygon id="_x38_2" class="st37" points="162.6,164 267.3,-52.2 273.8,-48.9 					"/>
					<polygon id="_x38_3" class="st38" points="162.6,164 272.6,-49.6 279,-46.1 					"/>
					<polygon id="_x38_4" class="st39" points="162.6,164 277.7,-46.8 284.1,-43.1 					"/>
					<polygon id="_x38_5" class="st40" points="162.6,164 282.8,-43.9 289.1,-40.1 					"/>
					<polygon id="_x38_6" class="st41" points="162.6,164 287.8,-40.8 294,-36.9 					"/>
					<polygon id="_x38_7" class="st42" points="162.6,164 292.8,-37.7 298.9,-33.6 					"/>
					<polygon id="_x38_8" class="st43" points="162.6,164 297.7,-34.4 303.6,-30.1 					"/>
					<polygon id="_x38_9" class="st44" points="162.6,164 302.4,-31 308.3,-26.6 					"/>
					<polygon id="_x39_0" class="st45" points="162.6,164 307.1,-27.5 312.9,-22.9 					"/>
					<polygon id="_x39_1" class="st46" points="162.6,164 311.8,-23.9 317.4,-19.2 					"/>
					<polygon id="_x39_2" class="st47" points="162.6,164 316.3,-20.1 321.8,-15.3 					"/>
					<polygon id="_x39_3" class="st48" points="162.6,164 320.7,-16.2 326.1,-11.3 					"/>
					<polygon id="_x39_4" class="st49" points="162.6,164 325.1,-12.3 330.4,-7.2 					"/>
					<polygon id="_x39_5" class="st50" points="162.6,164 329.3,-8.2 334.5,-3 					"/>
					<polygon id="_x39_6" class="st51" points="162.6,164 333.4,-4 338.5,1.3 					"/>
					<polygon id="_x39_7" class="st52" points="162.6,164 337.5,0.2 342.4,5.7 					"/>
					<polygon id="_x39_8" class="st53" points="162.6,164 341.4,4.6 346.2,10.2 					"/>
					<polygon id="_x39_9" class="st54" points="162.6,164 345.3,9.1 349.9,14.8 					"/>
					<polygon id="_x31_00" class="st55" points="162.6,164 348.9,13.7 353.5,19.5 					"/>
					<polygon id="_x31_01" class="st56" points="162.6,164 352.6,18.3 356.9,24.2 					"/>
					<polygon id="_x31_02" class="st56" points="162.6,164 356.1,23.1 360.3,29.1 					"/>
					<polygon id="_x31_03" class="st57" points="162.6,164 359.4,27.9 363.5,34 					"/>
					<polygon id="_x31_04" class="st58" points="162.6,164 362.7,32.8 366.6,39 					"/>
					<polygon id="_x31_05" class="st59" points="162.6,164 365.8,37.8 369.6,44.1 					"/>
					<polygon id="_x31_06" class="st60" points="162.6,164 368.8,42.9 372.4,49.3 					"/>
					<polygon id="_x31_07" class="st61" points="162.6,164 371.7,48 375.1,54.5 					"/>
					<polygon id="_x31_08" class="st62" points="162.6,164 374.5,53.2 377.8,59.8 					"/>
					<polygon id="_x31_09" class="st63" points="162.6,164 377.1,58.5 380.2,65.1 					"/>
					<polygon id="_x31_10" class="st64" points="162.6,164 379.6,63.8 382.6,70.5 					"/>
					<polygon id="_x31_11" class="st65" points="162.6,164 382,69.2 384.8,76 					"/>
					<polygon id="_x31_12" class="st66" points="162.6,164 384.2,74.7 386.8,81.6 					"/>
					<polygon id="_x31_13" class="st67" points="162.6,164 386.3,80.2 388.8,87.1 					"/>
					<polygon id="_x31_14" class="st68" points="162.6,164 388.3,85.7 390.6,92.7 					"/>
					<polygon id="_x31_15" class="st69" points="162.6,164 390.1,91.3 392.3,98.4 					"/>
					<polygon id="_x31_16" class="st70" points="162.6,164 391.8,97 393.8,104.1 					"/>
					<polygon id="_x31_17" class="st71" points="162.6,164 393.4,102.7 395.2,109.8 					"/>
					<polygon id="_x31_18" class="st72" points="162.6,164 394.8,108.4 396.4,115.6 					"/>
					<polygon id="_x31_19" class="st73" points="162.6,164 396.1,114.2 397.5,121.4 					"/>
					<polygon id="_x31_20" class="st74" points="162.6,164 397.2,120 398.5,127.2 					"/>
					<polygon id="_x31_21" class="st75" points="162.6,164 398.3,125.8 399.3,133.1 					"/>
					<polygon id="_x31_22" class="st76" points="162.6,164 399.1,131.6 400,138.9 					"/>
					<polygon id="_x31_23" class="st77" points="162.6,164 399.8,137.5 400.5,144.8 					"/>
					<polygon id="_x31_24" class="st78" points="162.6,164 400.4,143.4 400.9,150.7 					"/>
					<polygon id="_x31_25" class="st78" points="162.6,164 400.8,149.3 401.2,156.6 					"/>
					<polygon id="_x31_26" class="st79" points="162.6,164 401.1,155.2 401.3,162.5 					"/>
					<polygon id="_x31_27" class="st80" points="162.6,164 401.3,161.1 401.3,168.4 					"/>
					<polygon id="_x31_28" class="st81" points="162.6,164 401.3,167 401.1,174.3 					"/>
					<polygon id="_x31_29" class="st82" points="162.6,164 401.1,172.9 400.8,180.2 					"/>
					<polygon id="_x31_30" class="st83" points="162.6,164 400.8,178.8 400.3,186.1 					"/>
					<polygon id="_x31_31" class="st84" points="162.6,164 400.4,184.6 399.7,192 					"/>
					<polygon id="_x31_32" class="st85" points="162.6,164 399.8,190.5 398.9,197.9 					"/>
					<polygon id="_x31_33" class="st86" points="162.6,164 399.1,196.4 398,203.7 					"/>
					<polygon id="_x31_34" class="st87" points="162.6,164 398.3,202.2 397,209.5 					"/>
					<polygon id="_x31_35" class="st88" points="162.6,164 397.2,208 395.8,215.3 					"/>
					<polygon id="_x31_36" class="st89" points="162.6,164 396.1,213.8 394.5,221 					"/>
					<polygon id="_x31_37" class="st90" points="162.6,164 394.8,219.6 393,226.8 					"/>
					<polygon id="_x31_38" class="st91" points="162.6,164 393.4,225.3 391.4,232.4 					"/>
					<polygon id="_x31_39" class="st92" points="162.6,164 391.8,231 389.7,238.1 					"/>
					<polygon id="_x31_40" class="st93" points="162.6,164 390.1,236.7 387.8,243.7 					"/>
					<polygon id="_x31_41" class="st94" points="162.6,164 388.3,242.3 385.8,249.2 					"/>
					<polygon id="_x31_42" class="st95" points="162.6,164 386.3,247.8 383.7,254.7 					"/>
					<polygon id="_x31_43" class="st96" points="162.6,164 384.2,253.3 381.4,260.2 					"/>
					<polygon id="_x31_44" class="st97" points="162.6,164 382,258.8 379,265.6 					"/>
					<polygon id="_x31_45" class="st98" points="162.6,164 379.6,264.2 376.5,270.9 					"/>
					<polygon id="_x31_46" class="st99" points="162.6,164 377.1,269.5 373.8,276.1 					"/>
					<polygon id="_x31_47" class="st100" points="162.6,164 374.5,274.8 371,281.3 					"/>
					<polygon id="_x31_48" class="st101" points="162.6,164 371.7,280 368.1,286.4 					"/>
					<polygon id="_x31_49" class="st102" points="162.6,164 368.8,285.2 365.1,291.5 					"/>
					<polygon id="_x31_50" class="st103" points="162.6,164 365.8,290.2 361.9,296.4 					"/>
					<polygon id="_x31_51" class="st104" points="162.6,164 362.7,295.2 358.6,301.4 					"/>
					<polygon id="_x31_52" class="st105" points="162.6,164 359.4,300.1 355.2,306.2 					"/>
					<polygon id="_x31_53" class="st106" points="162.6,164 356.1,304.9 351.7,310.9 					"/>
					<polygon id="_x31_54" class="st107" points="162.6,164 352.6,309.7 348.1,315.5 					"/>
					<polygon id="_x31_55" class="st108" points="162.6,164 348.9,314.3 344.3,320.1 					"/>
					<polygon id="_x31_56" class="st109" points="162.6,164 345.3,318.9 340.5,324.5 					"/>
					<polygon id="_x31_57" class="st110" points="162.6,164 341.4,323.4 336.5,328.9 					"/>
					<polygon id="_x31_58" class="st111" points="162.6,164 337.5,327.8 332.4,333.1 					"/>
					<polygon id="_x31_59" class="st112" points="162.6,164 333.4,332 328.3,337.3 					"/>
					<polygon id="_x31_60" class="st113" points="162.6,164 329.3,336.2 324,341.3 					"/>
					<polygon id="_x31_61" class="st114" points="162.6,164 325.1,340.3 319.6,345.2 					"/>
					<polygon id="_x31_62" class="st115" points="162.6,164 320.7,344.2 315.2,349.1 					"/>
					<polygon id="_x31_63" class="st116" points="162.6,164 316.3,348.1 310.6,352.8 					"/>
					<polygon id="_x31_64" class="st117" points="162.6,164 311.8,351.9 306,356.4 					"/>
					<polygon id="_x31_65" class="st118" points="162.6,164 307.1,355.5 301.3,359.9 					"/>
					<polygon id="_x31_66" class="st119" points="162.6,164 302.4,359 296.5,363.2 					"/>
					<polygon id="_x31_67" class="st120" points="162.6,164 297.7,362.4 291.6,366.5 					"/>
					<polygon id="_x31_68" class="st121" points="162.6,164 292.8,365.7 286.6,369.6 					"/>
					<polygon id="_x31_69" class="st122" points="162.6,164 287.8,368.8 281.5,372.7 					"/>
					<polygon id="_x31_70" class="st123" points="162.6,164 282.8,371.9 276.4,375.5 					"/>
					<polygon id="_x31_71" class="st124" points="162.6,164 277.7,374.8 271.3,378.3 					"/>
					<polygon id="_x31_72" class="st125" points="162.6,164 272.6,377.6 266,380.9 					"/>
					<polygon id="_x31_73" class="st126" points="162.6,164 267.3,380.2 260.7,383.4 					"/>
					<polygon id="_x31_74" class="st127" points="162.6,164 262,382.7 255.3,385.8 					"/>
					<polygon id="_x31_75" class="st128" points="162.6,164 256.7,385.1 249.9,388 					"/>
					<polygon id="_x31_76" class="st129" points="162.6,164 251.3,387.4 244.4,390.1 					"/>
					<polygon id="_x31_77" class="st130" points="162.6,164 245.8,389.5 238.9,392 					"/>
					<polygon id="_x31_78" class="st131" points="162.6,164 240.3,391.5 233.3,393.8 					"/>
					<polygon id="_x31_79" class="st132" points="162.6,164 234.7,393.4 227.7,395.5 					"/>
					<polygon id="_x31_80" class="st133" points="162.6,164 229.1,395.1 222.1,397.1 					"/>
					<polygon id="_x31_81" class="st134" points="162.6,164 223.5,396.7 216.4,398.5 					"/>
					<polygon id="_x31_82" class="st135" points="162.6,164 217.8,398.1 210.6,399.7 					"/>
					<polygon id="_x31_83" class="st136" points="162.6,164 212.1,399.4 204.9,400.8 					"/>
					<polygon id="_x31_84" class="st137" points="162.6,164 206.3,400.5 199.1,401.8 					"/>
					<polygon id="_x31_85" class="st138" points="162.6,164 200.6,401.6 193.3,402.6 					"/>
					<polygon id="_x31_86" class="st139" points="162.6,164 194.8,402.4 187.5,403.3 					"/>
					<polygon id="_x31_87" class="st140" points="162.6,164 189,403.2 181.7,403.9 					"/>
					<polygon id="_x31_88" class="st141" points="162.6,164 183.1,403.7 175.8,404.3 					"/>
					<polygon id="_x31_89" class="st142" points="162.6,164 177.3,404.1 170,404.5 					"/>
					<polygon id="_x31_90" class="st143" points="162.6,164 171.4,404.4 164.1,404.6 					"/>
					<polygon id="_x31_91" class="st144" points="162.6,164 165.6,404.6 158.3,404.6 					"/>
					<polygon id="_x31_92" class="st145" points="162.6,164 159.7,404.6 152.4,404.4 					"/>
					<polygon id="_x31_93" class="st146" points="162.6,164 153.9,404.4 146.6,404.1 					"/>
					<polygon id="_x31_94" class="st147" points="162.6,164 148,404.1 140.7,403.6 					"/>
					<polygon id="_x31_95" class="st148" points="162.6,164 142.2,403.7 134.9,403 					"/>
					<polygon id="_x31_96" class="st149" points="162.6,164 136.4,403.2 129.1,402.2 					"/>
					<polygon id="_x31_97" class="st150" points="162.6,164 130.5,402.4 123.3,401.3 					"/>
					<polygon id="_x31_98" class="st151" points="162.6,164 124.8,401.6 117.5,400.3 					"/>
					<polygon id="_x31_99" class="st152" points="162.6,164 119,400.5 111.8,399.1 					"/>
					<polygon id="_x32_00" class="st153" points="162.6,164 113.2,399.4 106.1,397.8 					"/>
					<polygon id="_x32_01" class="st154" points="162.6,164 107.5,398.1 100.4,396.3 					"/>
					<polygon id="_x32_02" class="st155" points="162.6,164 101.8,396.7 94.8,394.7 					"/>
					<polygon id="_x32_03" class="st156" points="162.6,164 96.2,395.1 89.2,392.9 					"/>
					<polygon id="_x32_04" class="st157" points="162.6,164 90.6,393.4 83.6,391 					"/>
					<polygon id="_x32_05" class="st158" points="162.6,164 85,391.5 78.1,389 					"/>
					<polygon id="_x32_06" class="st159" points="162.6,164 79.5,389.5 72.7,386.9 					"/>
					<polygon id="_x32_07" class="st160" points="162.6,164 74.1,387.4 67.3,384.6 					"/>
					<polygon id="_x32_08" class="st161" points="162.6,164 68.6,385.1 62,382.2 					"/>
					<polygon id="_x32_09" class="st162" points="162.6,164 63.3,382.7 56.7,379.6 					"/>
					<polygon id="_x32_10" class="st163" points="162.6,164 58,380.2 51.5,376.9 					"/>
					<polygon id="_x32_11" class="st164" points="162.6,164 52.8,377.6 46.3,374.1 					"/>
					<polygon id="_x32_12" class="st165" points="162.6,164 47.6,374.8 41.2,371.2 					"/>
					<polygon id="_x32_13" class="st166" points="162.6,164 42.5,371.9 36.2,368.1 					"/>
					<polygon id="_x32_14" class="st167" points="162.6,164 37.5,368.8 31.3,364.9 					"/>
					<polygon id="_x32_15" class="st168" points="162.6,164 32.5,365.7 26.4,361.6 					"/>
					<polygon id="_x32_16" class="st169" points="162.6,164 27.6,362.4 21.7,358.1 					"/>
					<polygon id="_x32_17" class="st170" points="162.6,164 22.9,359 17,354.6 					"/>
					<polygon id="_x32_18" class="st171" points="162.6,164 18.2,355.5 12.4,350.9 					"/>
					<polygon id="_x32_19" class="st172" points="162.6,164 13.6,351.9 7.9,347.2 					"/>
					<polygon id="_x32_20" class="st173" points="162.6,164 9,348.1 3.5,343.3 					"/>
					<polygon id="_x32_21" class="st174" points="162.6,164 4.6,344.2 -0.8,339.3 					"/>
					<polygon id="_x32_22" class="st175" points="162.6,164 0.3,340.3 -5.1,335.2 					"/>
					<polygon id="_x32_23" class="st176" points="162.6,164 -4,336.2 -9.2,331 					"/>
					<polygon id="_x32_24" class="st177" points="162.6,164 -8.1,332 -13.2,326.7 					"/>
					<polygon id="_x32_25" class="st178" points="162.6,164 -12.2,327.8 -17.1,322.3 					"/>
					<polygon id="_x32_26" class="st179" points="162.6,164 -16.1,323.4 -20.9,317.8 					"/>
					<polygon id="_x32_27" class="st180" points="162.6,164 -19.9,318.9 -24.6,313.2 					"/>
					<polygon id="_x32_28" class="st181" points="162.6,164 -23.6,314.3 -28.1,308.5 					"/>
					<polygon id="_x32_29" class="st182" points="162.6,164 -27.2,309.7 -31.6,303.8 					"/>
					<polygon id="_x32_30" class="st183" points="162.6,164 -30.7,304.9 -35,298.9 					"/>
					<polygon id="_x32_31" class="st184" points="162.6,164 -34.1,300.1 -38.2,294 					"/>
					<polygon id="_x32_32" class="st185" points="162.6,164 -37.4,295.2 -41.3,289 					"/>
					<polygon id="_x32_33" class="st185" points="162.6,164 -40.5,290.2 -44.2,283.9 					"/>
					<polygon id="_x32_34" class="st185" points="162.6,164 -43.5,285.2 -47.1,278.7 					"/>
					<polygon id="_x32_35" class="st186" points="162.6,164 -46.4,280 -49.8,273.5 					"/>
					<polygon id="_x32_36" class="st186" points="162.6,164 -49.2,274.8 -52.4,268.2 					"/>
					<polygon id="_x32_37" class="st187" points="162.6,164 -51.8,269.5 -54.9,262.9 					"/>
					<polygon id="_x32_38" class="st187" points="162.6,164 -54.3,264.2 -57.3,257.5 					"/>
					<polygon id="_x32_39" class="st187" points="162.6,164 -56.7,258.8 -59.5,252 					"/>
					<polygon id="_x32_40" class="st188" points="162.6,164 -58.9,253.3 -61.5,246.4 					"/>
					<polygon id="_x32_41" class="st188" points="162.6,164 -61,247.8 -63.5,240.9 					"/>
					<polygon id="_x32_42" class="st188" points="162.6,164 -63,242.3 -65.3,235.3 					"/>
					<polygon id="_x32_43" class="st189" points="162.6,164 -64.8,236.7 -66.9,229.6 					"/>
					<polygon id="_x32_44" class="st189" points="162.6,164 -66.5,231 -68.5,223.9 					"/>
					<polygon id="_x32_45" class="st190" points="162.6,164 -68.1,225.3 -69.9,218.2 					"/>
					<polygon id="_x32_46" class="st190" points="162.6,164 -69.5,219.6 -71.1,212.4 					"/>
					<polygon id="_x32_47" class="st191" points="162.6,164 -70.8,213.8 -72.2,206.6 					"/>
					<polygon id="_x32_48" class="st191" points="162.6,164 -71.9,208 -73.2,200.8 					"/>
					<polygon id="_x32_49" class="st192" points="162.6,164 -72.9,202.2 -74,194.9 					"/>
					<polygon id="_x32_50" class="st193" points="162.6,164 -73.8,196.4 -74.7,189.1 					"/>
					<polygon id="_x32_51" class="st193" points="162.6,164 -74.5,190.5 -75.2,183.2 					"/>
					<polygon id="_x32_52" class="st194" points="162.6,164 -75.1,184.6 -75.6,177.3 					"/>
					<polygon id="_x32_53" class="st194" points="162.6,164 -75.5,178.8 -75.9,171.4 					"/>
					<polygon id="_x32_54" class="st194" points="162.6,164 -75.8,172.9 -76,165.5 					"/>
					<polygon id="_x32_55" class="st1" points="162.6,164 -75.9,167 -75.9,161.1 					"/>
				</g>
			</g>
		</g>
	</g>
</g>
</svg>
