<?xml version="1.0" encoding="utf-8"?>
<!-- Generator: Adobe Illustrator 18.0.0, SVG Export Plug-In . SVG Version: 6.00 Build 0)  -->
<!DOCTYPE svg PUBLIC "-//W3C//DTD SVG 1.1//EN" "http://www.w3.org/Graphics/SVG/1.1/DTD/svg11.dtd">
<svg version="1.1" id="Layer_1" xmlns="http://www.w3.org/2000/svg" xmlns:xlink="http://www.w3.org/1999/xlink" x="0px" y="0px"
	 viewBox="0 0 44 55" enable-background="new 0 0 44 55" xml:space="preserve">
<g>
	<path fill="#08262C" d="M-383.9-97h-54.8v-116.1h51.8c22.6,0,33.9,12.1,33.9,31.5c0,9.7-4,17.6-11,22.7
		c9.5,5.2,15.3,14.5,15.3,27.7C-348.5-110.4-362.3-97-383.9-97z M-417.3-193.1v25.6h30.5c7.3,0,13.1-5.2,13.1-12.9
		s-5-12.7-13.1-12.7H-417.3z M-387.4-147.3h-30v30h30.5c8.2,0,16.5-3.4,16.5-14.7C-370.5-141.7-376.5-147.3-387.4-147.3z"/>
</g>
<circle fill="#0091B3" cx="-544.2" cy="-186.7" r="25.5"/>
<rect x="-569.7" y="-147.5" fill="#08262C" width="51" height="51"/>
<circle fill="#FF5959" cx="-478.7" cy="-122" r="25.5"/>
<rect x="-504.2" y="-212.2" fill="#08262C" width="51" height="51"/>
<g>
	<path fill="#08262C" d="M23.1,50H0V1.1h21.8c9.5,0,14.2,5,14.2,13.2c0,4-1.8,7.4-4.7,9.5c4,2.3,6.5,6.1,6.5,11.6
		C37.9,44.4,32.3,50,23.1,50z M9,9.7v10.8h12.7c3.1,0,5.5-2.3,5.5-5.5s-2.1-5.3-5.5-5.3H9z M21.6,28.9H9v12.6h12.7
		c3.5,0,6.9-1.5,6.9-6.1C28.7,31.1,26.1,28.9,21.6,28.9z"/>
</g>
</svg>
