<?xml version="1.0" encoding="utf-8"?>
<!-- Generator: Adobe Illustrator 18.0.0, SVG Export Plug-In . SVG Version: 6.00 Build 0)  -->
<!DOCTYPE svg PUBLIC "-//W3C//DTD SVG 1.1//EN" "http://www.w3.org/Graphics/SVG/1.1/DTD/svg11.dtd">
<svg version="1.1" id="Layer_1" xmlns="http://www.w3.org/2000/svg" xmlns:xlink="http://www.w3.org/1999/xlink" x="0px" y="0px"
	 viewBox="0 0 62 30.3" enable-background="new 0 0 62 30.3" xml:space="preserve">
<g>
	<path fill="#08262C" d="M-238-76h-34v-72h32.1c14,0,21,7.5,21,19.5c0,6-2.5,10.9-6.8,14.1c5.9,3.2,9.5,9,9.5,17.2
		C-216.1-84.3-224.6-76-238-76z M-258.7-135.6v15.9h18.9c4.5,0,8.1-3.2,8.1-8c0-4.8-3.1-7.9-8.1-7.9H-258.7z M-240.2-107.2h-18.6
		v18.6h18.9c5.1,0,10.2-2.1,10.2-9.1C-229.7-103.7-233.4-107.2-240.2-107.2z"/>
</g>
<circle fill="#0091B3" cx="-337.4" cy="-131.6" r="15.8"/>
<rect x="-353.2" y="-107.3" fill="#08262C" width="31.6" height="31.6"/>
<circle fill="#FF5959" cx="-296.8" cy="-91.5" r="15.8"/>
<rect x="-312.6" y="-147.4" fill="#08262C" width="31.6" height="31.6"/>
<g>
	<path fill="#08262C" d="M52.8,30.3H38.5V0H52c5.9,0,8.8,3.1,8.8,8.2c0,2.5-1.1,4.6-2.9,5.9c2.5,1.4,4,3.8,4,7.2
		C62,26.8,58.5,30.3,52.8,30.3z M44.1,5.3v6.7H52c1.9,0,3.4-1.4,3.4-3.4c0-2-1.3-3.3-3.4-3.3H44.1z M51.9,17.2h-7.8V25H52
		c2.2,0,4.3-0.9,4.3-3.8C56.3,18.6,54.7,17.2,51.9,17.2z"/>
</g>
<g>
	<circle fill="#0091B3" cx="6.7" cy="6.7" r="6.7"/>
	<rect x="0" y="16.9" fill="#08262C" width="13.3" height="13.3"/>
	<circle fill="#FF5959" cx="23.8" cy="23.6" r="6.7"/>
	<rect x="17.2" y="0" fill="#08262C" width="13.3" height="13.3"/>
</g>
</svg>
