<svg enable-background="new 0 0 100 13.7" viewBox="0 0 100 13.7" xmlns="http://www.w3.org/2000/svg"><g fill="#010101"><g transform="translate(73.5 -513.23666)"><path d="m-73.5 526.6v-12.9h3.5l5.9 7.9v-7.9h3.5v12.9h-3.5l-5.9-8v8z"/><path d="m-56.4 526.6v-12.9h8.6v2.9h-5.1v2.1h4.9v2.8h-4.9v2.2h5.1v2.9z"/><path d="m-38.5 526.6h-3.5v-10.1h-3.4v-2.9h10.4v2.9h-3.4z"/><path d="m-26.5 519.4h6.9c0 4.9-2.6 7.6-6.9 7.6-4.1 0-7.2-2.5-7.2-6.6 0-4.4 2.8-7.1 7.1-7.1 4.8 0 6.2 3.5 6.2 3.5l-3.4 1.3s-.7-2-3-2c-1.6 0-3.2 1.3-3.2 4.1 0 2.4 1.5 4.1 3.5 4.1 1.8 0 2.6-1 2.7-2.2h-2.8z"/><path d="m-1 513.7-4.7 12.9h3.7l.7-2.4h4.7l.7 2.4h3.5l-4.6-12.9zm2 3.3 1.5 4.6h-3.1z"/><path d="m9.9 513.7v12.9h3.5v-5h.3l3.2 5h4.4l-4.1-5.3c1.5-.2 3-1.3 3-3.5 0-2.3-1.5-4-4.9-4zm3.5 2.5h1c1.8 0 2.2.7 2.2 1.6 0 1.2-.7 1.6-2.2 1.6h-1z"/><path d="m-16.4 526.6v-12.9h8.6v2.9h-5.2v2.1h5v2.8h-5v2.2h5.1v2.9z"/></g><path d="m98.1 0c1 0 1.9.9 1.9 1.9s-.9 1.9-1.9 1.9-1.9-.9-1.9-1.9.8-1.9 1.9-1.9zm0 .4c-.9 0-1.5.7-1.5 1.5s.7 1.5 1.5 1.5c.9 0 1.5-.7 1.5-1.5s-.7-1.5-1.5-1.5zm-.3 2.5h-.5v-1.9c.2 0 .4-.1.7-.1.4 0 .5.1.7.2.1.1.2.2.2.4s-.2.4-.4.5c.2.1.3.2.3.5.1.3.1.4.1.5h-.5c-.1-.1-.1-.2-.2-.5 0-.2-.2-.3-.4-.3h-.2v.8zm0-1h.2c.3 0 .5-.1.5-.3s-.1-.3-.4-.3c-.1 0-.2 0-.3 0z"/></g></svg>