<?xml version="1.0" encoding="UTF-8"?>
<!DOCTYPE svg PUBLIC "-//W3C//DTD SVG 1.1//EN" "http://www.w3.org/Graphics/SVG/1.1/DTD/svg11.dtd">
<!-- Creator: CorelDRAW 2019 (64-Bit) -->
<svg xmlns="http://www.w3.org/2000/svg" xml:space="preserve" width="945px" height="328px" version="1.1" style="shape-rendering:geometricPrecision; text-rendering:geometricPrecision; image-rendering:optimizeQuality; fill-rule:evenodd; clip-rule:evenodd"
viewBox="0 0 342.3 118.93"
 xmlns:xlink="http://www.w3.org/1999/xlink"
 xmlns:xodm="http://www.corel.com/coreldraw/odm/2003">
 <defs>
  <style type="text/css">
   <![CDATA[
    .fil81 {fill:#F6A607;fill-rule:nonzero}
    .fil80 {fill:#F6A409;fill-rule:nonzero}
    .fil79 {fill:#F6A409;fill-rule:nonzero}
    .fil78 {fill:#F6A20A;fill-rule:nonzero}
    .fil77 {fill:#F5A10B;fill-rule:nonzero}
    .fil76 {fill:#F59F0D;fill-rule:nonzero}
    .fil75 {fill:#F59E0E;fill-rule:nonzero}
    .fil74 {fill:#F59D0E;fill-rule:nonzero}
    .fil73 {fill:#F49B0F;fill-rule:nonzero}
    .fil72 {fill:#F49A11;fill-rule:nonzero}
    .fil71 {fill:#F49811;fill-rule:nonzero}
    .fil70 {fill:#F49712;fill-rule:nonzero}
    .fil69 {fill:#F39612;fill-rule:nonzero}
    .fil68 {fill:#F39413;fill-rule:nonzero}
    .fil67 {fill:#F39314;fill-rule:nonzero}
    .fil66 {fill:#F29114;fill-rule:nonzero}
    .fil65 {fill:#F29015;fill-rule:nonzero}
    .fil64 {fill:#F28F15;fill-rule:nonzero}
    .fil63 {fill:#F18D16;fill-rule:nonzero}
    .fil62 {fill:#F18C16;fill-rule:nonzero}
    .fil61 {fill:#F18A17;fill-rule:nonzero}
    .fil60 {fill:#F18917;fill-rule:nonzero}
    .fil59 {fill:#F18818;fill-rule:nonzero}
    .fil58 {fill:#F08618;fill-rule:nonzero}
    .fil57 {fill:#F08419;fill-rule:nonzero}
    .fil56 {fill:#F08419;fill-rule:nonzero}
    .fil55 {fill:#F08219;fill-rule:nonzero}
    .fil54 {fill:#EF801A;fill-rule:nonzero}
    .fil53 {fill:#EF7F1A;fill-rule:nonzero}
    .fil52 {fill:#EF7D1C;fill-rule:nonzero}
    .fil51 {fill:#EF7C1D;fill-rule:nonzero}
    .fil50 {fill:#EF7B1E;fill-rule:nonzero}
    .fil49 {fill:#EE791F;fill-rule:nonzero}
    .fil48 {fill:#EE7721;fill-rule:nonzero}
    .fil47 {fill:#EE7622;fill-rule:nonzero}
    .fil46 {fill:#EE7522;fill-rule:nonzero}
    .fil45 {fill:#ED7323;fill-rule:nonzero}
    .fil44 {fill:#ED7124;fill-rule:nonzero}
    .fil43 {fill:#ED7025;fill-rule:nonzero}
    .fil42 {fill:#ED6F26;fill-rule:nonzero}
    .fil41 {fill:#ED6D27;fill-rule:nonzero}
    .fil40 {fill:#EC6B28;fill-rule:nonzero}
    .fil39 {fill:#EC6A28;fill-rule:nonzero}
    .fil38 {fill:#EC6928;fill-rule:nonzero}
    .fil37 {fill:#EC6729;fill-rule:nonzero}
    .fil36 {fill:#EB652A;fill-rule:nonzero}
    .fil35 {fill:#EB642A;fill-rule:nonzero}
    .fil34 {fill:#EB622B;fill-rule:nonzero}
    .fil33 {fill:#EB612C;fill-rule:nonzero}
    .fil32 {fill:#EB5F2C;fill-rule:nonzero}
    .fil31 {fill:#EA5D2C;fill-rule:nonzero}
    .fil30 {fill:#EA5C2D;fill-rule:nonzero}
    .fil29 {fill:#EA5B2E;fill-rule:nonzero}
    .fil28 {fill:#EA592E;fill-rule:nonzero}
    .fil27 {fill:#EA572F;fill-rule:nonzero}
    .fil26 {fill:#E9552F;fill-rule:nonzero}
    .fil25 {fill:#E9542F;fill-rule:nonzero}
    .fil24 {fill:#E9532F;fill-rule:nonzero}
    .fil23 {fill:#E95130;fill-rule:nonzero}
    .fil22 {fill:#E94F30;fill-rule:nonzero}
    .fil21 {fill:#E84D31;fill-rule:nonzero}
    .fil20 {fill:#E84C31;fill-rule:nonzero}
    .fil19 {fill:#E84A32;fill-rule:nonzero}
    .fil18 {fill:#E84831;fill-rule:nonzero}
    .fil17 {fill:#E84632;fill-rule:nonzero}
    .fil16 {fill:#E84632;fill-rule:nonzero}
    .fil15 {fill:#E74432;fill-rule:nonzero}
    .fil14 {fill:#E74233;fill-rule:nonzero}
    .fil13 {fill:#E74033;fill-rule:nonzero}
    .fil12 {fill:#E73E33;fill-rule:nonzero}
    .fil11 {fill:#E73D33;fill-rule:nonzero}
    .fil10 {fill:#E73B34;fill-rule:nonzero}
    .fil9 {fill:#E63934;fill-rule:nonzero}
    .fil8 {fill:#E63734;fill-rule:nonzero}
    .fil7 {fill:#E63635;fill-rule:nonzero}
    .fil6 {fill:#E63435;fill-rule:nonzero}
    .fil5 {fill:#E63235;fill-rule:nonzero}
    .fil4 {fill:#E53035;fill-rule:nonzero}
    .fil3 {fill:#E52D35;fill-rule:nonzero}
    .fil2 {fill:#E52C35;fill-rule:nonzero}
    .fil1 {fill:#E52936;fill-rule:nonzero}
    .fil211 {fill:#E52736;fill-rule:nonzero}
    .fil0 {fill:#E52736;fill-rule:nonzero}
    .fil82 {fill:#F6A707;fill-rule:nonzero}
    .fil83 {fill:#F4A809;fill-rule:nonzero}
    .fil84 {fill:#F3A80A;fill-rule:nonzero}
    .fil85 {fill:#F2A90A;fill-rule:nonzero}
    .fil86 {fill:#F0A90C;fill-rule:nonzero}
    .fil87 {fill:#EFAA0C;fill-rule:nonzero}
    .fil88 {fill:#EDAB0C;fill-rule:nonzero}
    .fil89 {fill:#EBAB0E;fill-rule:nonzero}
    .fil90 {fill:#EAAC0D;fill-rule:nonzero}
    .fil91 {fill:#E8AC0F;fill-rule:nonzero}
    .fil92 {fill:#E7AC10;fill-rule:nonzero}
    .fil93 {fill:#E6AD10;fill-rule:nonzero}
    .fil94 {fill:#E4AD12;fill-rule:nonzero}
    .fil95 {fill:#E3AE12;fill-rule:nonzero}
    .fil96 {fill:#E1AE13;fill-rule:nonzero}
    .fil97 {fill:#DFAE14;fill-rule:nonzero}
    .fil98 {fill:#DEAF14;fill-rule:nonzero}
    .fil99 {fill:#DCAF14;fill-rule:nonzero}
    .fil100 {fill:#DBB015;fill-rule:nonzero}
    .fil101 {fill:#D9B016;fill-rule:nonzero}
    .fil102 {fill:#D7B017;fill-rule:nonzero}
    .fil103 {fill:#D6B118;fill-rule:nonzero}
    .fil104 {fill:#D4B119;fill-rule:nonzero}
    .fil105 {fill:#D3B11A;fill-rule:nonzero}
    .fil106 {fill:#D1B21A;fill-rule:nonzero}
    .fil107 {fill:#CFB21B;fill-rule:nonzero}
    .fil108 {fill:#CEB21B;fill-rule:nonzero}
    .fil109 {fill:#CCB31C;fill-rule:nonzero}
    .fil110 {fill:#CAB21E;fill-rule:nonzero}
    .fil111 {fill:#C9B31E;fill-rule:nonzero}
    .fil112 {fill:#C6B31F;fill-rule:nonzero}
    .fil113 {fill:#C5B31F;fill-rule:nonzero}
    .fil114 {fill:#C3B320;fill-rule:nonzero}
    .fil115 {fill:#C1B321;fill-rule:nonzero}
    .fil116 {fill:#BFB421;fill-rule:nonzero}
    .fil117 {fill:#BEB422;fill-rule:nonzero}
    .fil118 {fill:#BBB323;fill-rule:nonzero}
    .fil119 {fill:#B9B423;fill-rule:nonzero}
    .fil120 {fill:#B7B424;fill-rule:nonzero}
    .fil121 {fill:#B5B425;fill-rule:nonzero}
    .fil122 {fill:#B3B425;fill-rule:nonzero}
    .fil123 {fill:#B1B426;fill-rule:nonzero}
    .fil124 {fill:#AFB426;fill-rule:nonzero}
    .fil125 {fill:#ACB427;fill-rule:nonzero}
    .fil126 {fill:#ABB428;fill-rule:nonzero}
    .fil127 {fill:#A9B428;fill-rule:nonzero}
    .fil128 {fill:#A6B429;fill-rule:nonzero}
    .fil129 {fill:#A4B42A;fill-rule:nonzero}
    .fil130 {fill:#A2B42A;fill-rule:nonzero}
    .fil131 {fill:#A0B42B;fill-rule:nonzero}
    .fil132 {fill:#9EB42B;fill-rule:nonzero}
    .fil133 {fill:#9BB42C;fill-rule:nonzero}
    .fil134 {fill:#99B42D;fill-rule:nonzero}
    .fil135 {fill:#97B42D;fill-rule:nonzero}
    .fil136 {fill:#94B42E;fill-rule:nonzero}
    .fil137 {fill:#92B42E;fill-rule:nonzero}
    .fil138 {fill:#90B42F;fill-rule:nonzero}
    .fil139 {fill:#8DB330;fill-rule:nonzero}
    .fil140 {fill:#8AB430;fill-rule:nonzero}
    .fil141 {fill:#87B331;fill-rule:nonzero}
    .fil142 {fill:#85B331;fill-rule:nonzero}
    .fil143 {fill:#82B332;fill-rule:nonzero}
    .fil144 {fill:#7FB233;fill-rule:nonzero}
    .fil145 {fill:#7CB333;fill-rule:nonzero}
    .fil146 {fill:#79B234;fill-rule:nonzero}
    .fil147 {fill:#76B234;fill-rule:nonzero}
    .fil148 {fill:#73B235;fill-rule:nonzero}
    .fil149 {fill:#6FB136;fill-rule:nonzero}
    .fil150 {fill:#6DB136;fill-rule:nonzero}
    .fil151 {fill:#6AB137;fill-rule:nonzero}
    .fil152 {fill:#65B137;fill-rule:nonzero}
    .fil153 {fill:#62B138;fill-rule:nonzero}
    .fil154 {fill:#5EB039;fill-rule:nonzero}
    .fil155 {fill:#5AB039;fill-rule:nonzero}
    .fil156 {fill:#57B039;fill-rule:nonzero}
    .fil157 {fill:#56AF3A;fill-rule:nonzero}
    .fil158 {fill:#53AF3A;fill-rule:nonzero}
    .fil159 {fill:#51AE3A;fill-rule:nonzero}
    .fil160 {fill:#4EAE3B;fill-rule:nonzero}
    .fil161 {fill:#4CAD3B;fill-rule:nonzero}
    .fil162 {fill:#49AD3C;fill-rule:nonzero}
    .fil163 {fill:#48AC3C;fill-rule:nonzero}
    .fil164 {fill:#43AC3C;fill-rule:nonzero}
    .fil165 {fill:#41AB3C;fill-rule:nonzero}
    .fil166 {fill:#3CAB3D;fill-rule:nonzero}
    .fil167 {fill:#3AAA3D;fill-rule:nonzero}
    .fil168 {fill:#36AA3D;fill-rule:nonzero}
    .fil169 {fill:#33A93D;fill-rule:nonzero}
    .fil170 {fill:#31A93E;fill-rule:nonzero}
    .fil171 {fill:#2DA83E;fill-rule:nonzero}
    .fil172 {fill:#2AA83E;fill-rule:nonzero}
    .fil173 {fill:#26A73F;fill-rule:nonzero}
    .fil174 {fill:#24A73F;fill-rule:nonzero}
    .fil175 {fill:#1FA63F;fill-rule:nonzero}
    .fil176 {fill:#1DA63F;fill-rule:nonzero}
    .fil177 {fill:#19A540;fill-rule:nonzero}
    .fil178 {fill:#17A540;fill-rule:nonzero}
    .fil179 {fill:#13A440;fill-rule:nonzero}
    .fil180 {fill:#11A440;fill-rule:nonzero}
    .fil181 {fill:#0DA341;fill-rule:nonzero}
    .fil182 {fill:#0BA341;fill-rule:nonzero}
    .fil183 {fill:#07A241;fill-rule:nonzero}
    .fil184 {fill:#05A241;fill-rule:nonzero}
    .fil185 {fill:#01A142;fill-rule:nonzero}
    .fil186 {fill:#00A142;fill-rule:nonzero}
    .fil187 {fill:#00A042;fill-rule:nonzero}
    .fil188 {fill:#00A042;fill-rule:nonzero}
    .fil189 {fill:#00A042;fill-rule:nonzero}
    .fil190 {fill:#009F43;fill-rule:nonzero}
    .fil191 {fill:#009F43;fill-rule:nonzero}
    .fil192 {fill:#009E43;fill-rule:nonzero}
    .fil193 {fill:#009E43;fill-rule:nonzero}
    .fil194 {fill:#009E43;fill-rule:nonzero}
    .fil195 {fill:#009D44;fill-rule:nonzero}
    .fil196 {fill:#009D44;fill-rule:nonzero}
    .fil197 {fill:#009D44;fill-rule:nonzero}
    .fil198 {fill:#009C44;fill-rule:nonzero}
    .fil199 {fill:#009C44;fill-rule:nonzero}
    .fil200 {fill:#009B45;fill-rule:nonzero}
    .fil201 {fill:#009B45;fill-rule:nonzero}
    .fil202 {fill:#009A45;fill-rule:nonzero}
    .fil203 {fill:#009A45;fill-rule:nonzero}
    .fil204 {fill:#009945;fill-rule:nonzero}
    .fil205 {fill:#009946;fill-rule:nonzero}
    .fil206 {fill:#009946;fill-rule:nonzero}
    .fil207 {fill:#009846;fill-rule:nonzero}
    .fil208 {fill:#009846;fill-rule:nonzero}
    .fil209 {fill:#009846;fill-rule:nonzero}
    .fil210 {fill:black;fill-rule:nonzero}
   ]]>
  </style>
     <clipPath id="id0" style="clip-rule:nonzero">
      <path d="M299.38 8.01c-1.3,1.42 -2.67,2.79 -4.11,4.09 1.76,1.01 3.47,2.11 5.12,3.29 1.21,0.86 2.38,1.77 3.53,2.72 1.84,-1.86 3.56,-3.84 5.16,-5.9 -3.08,-1.71 -6.33,-3.12 -9.7,-4.2zm-20.4 105.39c-2.38,-1.35 -4.68,-2.81 -6.89,-4.38 -0.83,-0.59 -1.65,-1.19 -2.46,-1.81 -3.83,0.3 -7.65,0.42 -11.45,0.36 2.63,1.35 5.38,2.49 8.21,3.4 4.05,1.29 8.28,2.12 12.59,2.43zm-15.31 -11.28c-2.07,-1.95 -4.04,-4.01 -5.89,-6.17 -0.96,-1.13 -0.83,-2.83 0.3,-3.8 1.13,-0.97 2.84,-0.84 3.8,0.3 2.86,3.33 6,6.4 9.41,9.18 6.35,-0.62 12.74,-1.76 19.11,-3.47 8.27,-2.21 16.09,-5.26 23.39,-9.01 0.83,-0.43 1.65,-0.86 2.46,-1.31 0.68,-1.58 1.29,-3.19 1.82,-4.83 1.06,-3.26 1.82,-6.62 2.27,-10.06 -3.41,2.29 -6.97,4.39 -10.66,6.3 -1.32,0.68 -2.95,0.16 -3.63,-1.17 -0.69,-1.32 -0.17,-2.95 1.16,-3.63 4.8,-2.48 9.35,-5.29 13.61,-8.4 0.02,-4.06 -0.39,-8.17 -1.28,-12.27 -3.18,2.58 -6.56,4.98 -10.11,7.17 -1.27,0.78 -2.93,0.39 -3.71,-0.87 -0.78,-1.27 -0.39,-2.93 0.88,-3.71 4.02,-2.49 7.82,-5.27 11.39,-8.32 -1.16,-3.53 -2.64,-6.87 -4.38,-10 -0.34,0.31 -0.69,0.61 -1.04,0.91 -5.4,4.65 -11.42,8.66 -17.98,11.86 -1.34,0.65 -2.96,0.09 -3.62,-1.25 -0.65,-1.34 -0.09,-2.96 1.25,-3.61 6.16,-3.01 11.8,-6.75 16.82,-11.08 0.56,-0.48 1.12,-0.97 1.67,-1.47 -2,-2.88 -4.25,-5.53 -6.7,-7.95 -2.04,1.8 -4.18,3.48 -6.43,5.05 -6.66,4.63 -14.22,8.21 -22.52,10.43 -7.53,2.02 -15.11,2.76 -22.52,2.36 -1.68,-0.09 -3.35,-0.23 -5.01,-0.44 -0.46,1.87 -0.86,3.77 -1.18,5.68 -0.24,1.47 -1.63,2.46 -3.1,2.22 -1.47,-0.25 -2.47,-1.64 -2.22,-3.11 0.31,-1.9 0.7,-3.79 1.16,-5.66 -3.25,-0.66 -6.43,-1.54 -9.54,-2.62 -1.3,3.26 -2.3,6.65 -2.95,10.13 -0.28,1.47 -1.69,2.43 -3.15,2.16 -1.47,-0.28 -2.43,-1.69 -2.16,-3.15 2.08,-11.05 7.28,-21.29 14.88,-29.49 7.36,-7.95 16.97,-13.98 28.18,-16.98 15.85,-4.25 31.93,-1.67 45.11,5.94l0.16 0.1c13.1,7.62 23.31,20.22 27.54,36 4.25,15.85 1.66,31.93 -5.94,45.1 -7.62,13.19 -20.25,23.47 -36.1,27.71 -11.43,3.07 -22.98,2.58 -33.48,-0.79 -10.82,-3.47 -20.53,-10 -27.82,-18.86 -0.95,-1.15 -0.78,-2.85 0.37,-3.79 1.15,-0.95 2.84,-0.78 3.79,0.37 2.39,2.9 5.07,5.53 7.97,7.85 4.82,0.46 9.7,0.61 14.62,0.45zm14.01 4.18c4.03,2.62 8.35,4.86 12.89,6.67 2.08,-0.31 4.17,-0.74 6.25,-1.3l0.43 -0.11c0.09,-0.09 0.19,-0.18 0.3,-0.26 5.75,-4.17 10.59,-9.36 14.34,-15.21 -6.38,2.96 -13.09,5.41 -20.09,7.29 -4.71,1.26 -9.42,2.23 -14.12,2.92zm-11.42 -97.07c-3.81,3.9 -7.13,8.18 -9.94,12.73 4.34,-0.07 8.75,-0.67 13.17,-1.85 5.27,-1.42 10.15,-3.56 14.55,-6.3 0.35,-0.21 0.7,-0.43 1.04,-0.66 -5.95,-2.35 -12.31,-3.7 -18.82,-3.92zm-12.95 18.09c-1.68,3.32 -3.1,6.76 -4.26,10.28 1.25,0.14 2.5,0.25 3.77,0.31 6.84,0.37 13.86,-0.32 20.85,-2.19 7.66,-2.06 14.66,-5.37 20.82,-9.65 1.9,-1.33 3.72,-2.74 5.46,-4.24 -0.88,-0.71 -1.77,-1.39 -2.69,-2.04 -2.07,-1.49 -4.24,-2.83 -6.49,-4.02 -1.25,0.93 -2.54,1.8 -3.87,2.63 -4.86,3.01 -10.22,5.37 -16.02,6.93 -5.3,1.42 -10.65,2.07 -15.92,2.03 -0.55,-0.01 -1.1,-0.02 -1.65,-0.04zm-9.66 9.46c1.07,-3.4 2.38,-6.72 3.9,-9.95 -2.3,-0.31 -4.56,-0.75 -6.78,-1.32 -2.24,2.78 -4.2,5.77 -5.85,8.93 2.84,0.97 5.76,1.76 8.73,2.34zm6.56 -15.07c1.86,-3.29 3.96,-6.45 6.28,-9.46 -4.28,2.38 -8.16,5.31 -11.57,8.67 1.75,0.35 3.51,0.61 5.29,0.79zm28.7 -16.16c3.86,0.94 7.61,2.24 11.2,3.88 1.14,-0.95 2.24,-1.95 3.29,-2.98 -4.7,-0.94 -9.57,-1.26 -14.49,-0.9zm29.01 16.19c2.43,2.41 4.67,5.03 6.7,7.85 2.42,-2.54 4.67,-5.23 6.74,-8.06 -2.36,-2.39 -4.93,-4.55 -7.68,-6.45 -1.78,2.33 -3.7,4.56 -5.76,6.66zm9.72 12.48c1.82,3.1 3.39,6.39 4.68,9.87 3.07,-2.99 5.91,-6.16 8.51,-9.51 -1.66,-3.2 -3.61,-6.18 -5.81,-8.93 -2.26,3.01 -4.73,5.88 -7.38,8.57zm6.5 15.58c1.07,4.04 1.72,8.09 1.96,12.12 3.38,-2.82 6.57,-5.84 9.57,-9.06 0.22,-0.24 0.47,-0.42 0.74,-0.56 -0.31,-2.28 -0.76,-4.55 -1.37,-6.82 -0.49,-1.84 -1.07,-3.63 -1.74,-5.36 -2.82,3.43 -5.88,6.67 -9.16,9.68zm2 18.99c-0.26,5.03 -1.13,9.97 -2.57,14.72 3.79,-2.45 7.42,-5.09 10.86,-7.92 1.63,-5.19 2.48,-10.65 2.47,-16.23 -3.36,3.35 -6.95,6.5 -10.76,9.43zm-5.7 22.9c-2.19,4.72 -4.98,9.16 -8.29,13.2 7.3,-4.7 13.26,-11.05 17.49,-18.39 0.18,-0.3 0.35,-0.61 0.52,-0.92 -3.12,2.18 -6.37,4.22 -9.72,6.11z"/>
     </clipPath>
 </defs>
 <g id="Layer_x0020_1">
  <metadata id="CorelCorpID_0Corel-Layer"/>
  <g id="_2128826558864">
   <g>
    <g style="clip-path:url(#id0)">
     <polygon class="fil0" points="283.32,59.47 196.79,58.93 196.87,55.72 "/>
     <polygon id="1" class="fil0" points="283.32,59.47 196.86,56.26 196.99,53.58 "/>
     <polygon id="2" class="fil0" points="283.32,59.47 196.96,54.12 197.16,51.45 "/>
     <polygon id="3" class="fil0" points="283.32,59.47 197.12,51.98 197.38,49.32 "/>
     <polygon id="4" class="fil0" points="283.32,59.47 197.33,49.85 197.65,47.19 "/>
     <polygon id="5" class="fil0" points="283.32,59.47 197.59,47.73 197.98,45.08 "/>
     <polygon id="6" class="fil0" points="283.32,59.47 197.9,45.61 198.35,42.97 "/>
     <polygon id="7" class="fil0" points="283.32,59.47 198.26,43.5 198.78,40.87 "/>
     <polygon id="8" class="fil0" points="283.32,59.47 198.68,41.4 199.26,38.79 "/>
     <polygon id="9" class="fil0" points="283.32,59.47 199.14,39.31 199.79,36.71 "/>
     <polygon id="10" class="fil0" points="283.32,59.47 199.66,37.23 200.37,34.65 "/>
     <polygon id="11" class="fil0" points="283.32,59.47 200.22,35.17 200.99,32.61 "/>
     <polygon id="12" class="fil0" points="283.32,59.47 200.84,33.12 201.67,30.58 "/>
     <polygon id="13" class="fil0" points="283.32,59.47 201.51,31.09 202.4,28.57 "/>
     <polygon id="14" class="fil0" points="283.32,59.47 202.22,29.07 203.18,26.57 "/>
     <polygon id="15" class="fil0" points="283.32,59.47 202.99,27.07 204,24.6 "/>
     <polygon id="16" class="fil0" points="283.32,59.47 203.8,25.09 204.87,22.65 "/>
     <polygon id="17" class="fil0" points="283.32,59.47 204.66,23.14 205.79,20.72 "/>
     <polygon id="18" class="fil0" points="283.32,59.47 205.57,21.2 206.76,18.81 "/>
     <polygon id="19" class="fil0" points="283.32,59.47 206.52,19.29 207.77,16.93 "/>
     <polygon id="20" class="fil0" points="283.32,59.47 207.52,17.4 208.83,15.07 "/>
     <polygon id="21" class="fil0" points="283.32,59.47 208.57,15.54 209.93,13.24 "/>
     <polygon id="22" class="fil0" points="283.32,59.47 209.66,13.7 211.08,11.44 "/>
     <polygon id="23" class="fil0" points="283.32,59.47 210.8,11.89 212.27,9.67 "/>
     <polygon id="24" class="fil0" points="283.32,59.47 211.98,10.11 213.51,7.92 "/>
     <polygon id="25" class="fil0" points="283.32,59.47 213.2,8.36 214.78,6.21 "/>
     <polygon id="26" class="fil0" points="283.32,59.47 214.47,6.64 216.1,4.53 "/>
     <polygon id="27" class="fil0" points="283.32,59.47 215.77,4.95 217.46,2.88 "/>
     <polygon id="28" class="fil0" points="283.32,59.47 217.12,3.3 218.85,1.27 "/>
     <polygon id="29" class="fil0" points="283.32,59.47 218.51,1.68 220.29,-0.31 "/>
     <polygon id="30" class="fil0" points="283.32,59.47 219.93,0.09 221.76,-1.85 "/>
     <polygon id="31" class="fil0" points="283.32,59.47 221.4,-1.46 223.27,-3.35 "/>
     <polygon id="32" class="fil0" points="283.32,59.47 222.9,-2.97 224.82,-4.82 "/>
     <polygon id="33" class="fil0" points="283.32,59.47 224.44,-4.45 226.4,-6.25 "/>
     <polygon id="34" class="fil0" points="283.32,59.47 226.01,-5.89 228.02,-7.64 "/>
     <polygon id="35" class="fil0" points="283.32,59.47 227.62,-7.29 229.67,-8.99 "/>
     <polygon id="36" class="fil0" points="283.32,59.47 229.26,-8.65 231.35,-10.29 "/>
     <polygon id="37" class="fil0" points="283.32,59.47 230.93,-9.96 233.06,-11.56 "/>
     <polygon id="38" class="fil0" points="283.32,59.47 232.64,-11.24 234.81,-12.78 "/>
     <polygon id="39" class="fil0" points="283.32,59.47 234.37,-12.47 236.58,-13.96 "/>
     <polygon id="40" class="fil0" points="283.32,59.47 236.14,-13.66 238.38,-15.09 "/>
     <polygon id="41" class="fil0" points="283.32,59.47 237.93,-14.81 240.21,-16.18 "/>
     <polygon id="42" class="fil0" points="283.32,59.47 239.76,-15.91 242.07,-17.23 "/>
     <polygon id="43" class="fil0" points="283.32,59.47 241.6,-16.96 243.94,-18.22 "/>
     <polygon id="44" class="fil0" points="283.32,59.47 243.48,-17.97 245.85,-19.18 "/>
     <polygon id="45" class="fil0" points="283.32,59.47 245.37,-18.93 247.77,-20.08 "/>
     <polygon id="46" class="fil1" points="283.32,59.47 247.29,-19.85 249.72,-20.94 "/>
     <polygon id="47" class="fil2" points="283.32,59.47 249.23,-20.72 251.69,-21.74 "/>
     <polygon id="48" class="fil3" points="283.32,59.47 251.2,-21.54 253.67,-22.5 "/>
     <polygon id="49" class="fil4" points="283.32,59.47 253.18,-22.31 255.68,-23.21 "/>
     <polygon id="50" class="fil5" points="283.32,59.47 255.18,-23.03 257.7,-23.87 "/>
     <polygon id="51" class="fil6" points="283.32,59.47 257.19,-23.7 259.73,-24.48 "/>
     <polygon id="52" class="fil7" points="283.32,59.47 259.22,-24.32 261.78,-25.04 "/>
     <polygon id="53" class="fil8" points="283.32,59.47 261.27,-24.89 263.85,-25.54 "/>
     <polygon id="54" class="fil9" points="283.32,59.47 263.33,-25.41 265.92,-26 "/>
     <polygon id="55" class="fil10" points="283.32,59.47 265.4,-25.88 268.01,-26.4 "/>
     <polygon id="56" class="fil11" points="283.32,59.47 267.49,-26.3 270.1,-26.76 "/>
     <polygon id="57" class="fil12" points="283.32,59.47 269.58,-26.67 272.2,-27.06 "/>
     <polygon id="58" class="fil13" points="283.32,59.47 271.68,-26.98 274.31,-27.31 "/>
     <polygon id="59" class="fil14" points="283.32,59.47 273.79,-27.24 276.43,-27.51 "/>
     <polygon id="60" class="fil15" points="283.32,59.47 275.9,-27.45 278.55,-27.65 "/>
     <polygon id="61" class="fil16" points="283.32,59.47 278.02,-27.61 280.67,-27.74 "/>
     <polygon id="62" class="fil17" points="283.32,59.47 280.14,-27.72 282.79,-27.78 "/>
     <polygon id="63" class="fil18" points="283.32,59.47 282.26,-27.77 284.92,-27.77 "/>
     <polygon id="64" class="fil19" points="283.32,59.47 284.38,-27.77 287.04,-27.7 "/>
     <polygon id="65" class="fil20" points="283.32,59.47 286.51,-27.72 289.16,-27.58 "/>
     <polygon id="66" class="fil21" points="283.32,59.47 288.63,-27.61 291.28,-27.41 "/>
     <polygon id="67" class="fil22" points="283.32,59.47 290.75,-27.45 293.39,-27.19 "/>
     <polygon id="68" class="fil23" points="283.32,59.47 292.86,-27.24 295.49,-26.92 "/>
     <polygon id="69" class="fil24" points="283.32,59.47 294.97,-26.98 297.59,-26.59 "/>
     <polygon id="70" class="fil25" points="283.32,59.47 297.07,-26.67 299.68,-26.21 "/>
     <polygon id="71" class="fil26" points="283.32,59.47 299.16,-26.3 301.76,-25.78 "/>
     <polygon id="72" class="fil27" points="283.32,59.47 301.24,-25.88 303.83,-25.3 "/>
     <polygon id="73" class="fil28" points="283.32,59.47 303.31,-25.41 305.89,-24.76 "/>
     <polygon id="74" class="fil29" points="283.32,59.47 305.37,-24.89 307.93,-24.18 "/>
     <polygon id="75" class="fil30" points="283.32,59.47 307.42,-24.32 309.96,-23.55 "/>
     <polygon id="76" class="fil31" points="283.32,59.47 309.45,-23.7 311.97,-22.86 "/>
     <polygon id="77" class="fil32" points="283.32,59.47 311.47,-23.03 313.97,-22.13 "/>
     <polygon id="78" class="fil33" points="283.32,59.47 313.47,-22.31 315.95,-21.34 "/>
     <polygon id="79" class="fil34" points="283.32,59.47 315.45,-21.54 317.9,-20.51 "/>
     <polygon id="80" class="fil35" points="283.32,59.47 317.41,-20.72 319.84,-19.63 "/>
     <polygon id="81" class="fil36" points="283.32,59.47 319.35,-19.85 321.75,-18.71 "/>
     <polygon id="82" class="fil37" points="283.32,59.47 321.27,-18.93 323.64,-17.73 "/>
     <polygon id="83" class="fil38" points="283.32,59.47 323.17,-17.97 325.51,-16.71 "/>
     <polygon id="84" class="fil39" points="283.32,59.47 325.04,-16.96 327.35,-15.64 "/>
     <polygon id="85" class="fil40" points="283.32,59.47 326.89,-15.91 329.17,-14.53 "/>
     <polygon id="86" class="fil41" points="283.32,59.47 328.71,-14.81 330.95,-13.37 "/>
     <polygon id="87" class="fil42" points="283.32,59.47 330.51,-13.66 332.71,-12.17 "/>
     <polygon id="88" class="fil43" points="283.32,59.47 332.27,-12.47 334.44,-10.93 "/>
     <polygon id="89" class="fil44" points="283.32,59.47 334.01,-11.24 336.14,-9.64 "/>
     <polygon id="90" class="fil45" points="283.32,59.47 335.71,-9.96 337.81,-8.32 "/>
     <polygon id="91" class="fil46" points="283.32,59.47 337.39,-8.65 339.44,-6.95 "/>
     <polygon id="92" class="fil47" points="283.32,59.47 339.03,-7.29 341.04,-5.54 "/>
     <polygon id="93" class="fil48" points="283.32,59.47 340.64,-5.89 342.6,-4.09 "/>
     <polygon id="94" class="fil49" points="283.32,59.47 342.21,-4.45 344.13,-2.61 "/>
     <polygon id="95" class="fil50" points="283.32,59.47 343.75,-2.97 345.62,-1.08 "/>
     <polygon id="96" class="fil51" points="283.32,59.47 345.25,-1.46 347.08,0.48 "/>
     <polygon id="97" class="fil52" points="283.32,59.47 346.71,0.09 348.5,2.07 "/>
     <polygon id="98" class="fil53" points="283.32,59.47 348.14,1.68 349.87,3.7 "/>
     <polygon id="99" class="fil54" points="283.32,59.47 349.53,3.3 351.21,5.37 "/>
     <polygon id="100" class="fil55" points="283.32,59.47 350.87,4.95 352.51,7.06 "/>
     <polygon id="101" class="fil56" points="283.32,59.47 352.18,6.64 353.76,8.79 "/>
     <polygon id="102" class="fil57" points="283.32,59.47 353.45,8.36 354.97,10.55 "/>
     <polygon id="103" class="fil58" points="283.32,59.47 354.67,10.11 356.14,12.34 "/>
     <polygon id="104" class="fil59" points="283.32,59.47 355.85,11.89 357.27,14.15 "/>
     <polygon id="105" class="fil60" points="283.32,59.47 356.98,13.7 358.35,16 "/>
     <polygon id="106" class="fil61" points="283.32,59.47 358.08,15.54 359.38,17.87 "/>
     <polygon id="107" class="fil62" points="283.32,59.47 359.12,17.4 360.37,19.76 "/>
     <polygon id="108" class="fil63" points="283.32,59.47 360.12,19.29 361.32,21.68 "/>
     <polygon id="109" class="fil64" points="283.32,59.47 361.08,21.2 362.21,23.62 "/>
     <polygon id="110" class="fil65" points="283.32,59.47 361.99,23.14 363.06,25.58 "/>
     <polygon id="111" class="fil66" points="283.32,59.47 362.85,25.09 363.86,27.57 "/>
     <polygon id="112" class="fil67" points="283.32,59.47 363.66,27.07 364.61,29.57 "/>
     <polygon id="113" class="fil68" points="283.32,59.47 364.42,29.07 365.32,31.59 "/>
     <polygon id="114" class="fil69" points="283.32,59.47 365.14,31.09 365.97,33.63 "/>
     <polygon id="115" class="fil70" points="283.32,59.47 365.8,33.12 366.58,35.68 "/>
     <polygon id="116" class="fil71" points="283.32,59.47 366.42,35.17 367.13,37.75 "/>
     <polygon id="117" class="fil72" points="283.32,59.47 366.99,37.23 367.63,39.83 "/>
     <polygon id="118" class="fil73" points="283.32,59.47 367.5,39.31 368.09,41.92 "/>
     <polygon id="119" class="fil74" points="283.32,59.47 367.97,41.4 368.49,44.02 "/>
     <polygon id="120" class="fil75" points="283.32,59.47 368.38,43.5 368.84,46.13 "/>
     <polygon id="121" class="fil76" points="283.32,59.47 368.75,45.61 369.14,48.25 "/>
     <polygon id="122" class="fil77" points="283.32,59.47 369.06,47.73 369.38,50.38 "/>
     <polygon id="123" class="fil78" points="283.32,59.47 369.32,49.85 369.58,52.51 "/>
     <polygon id="124" class="fil79" points="283.32,59.47 369.53,51.98 369.72,54.65 "/>
     <polygon id="125" class="fil80" points="283.32,59.47 369.68,54.12 369.81,56.79 "/>
     <polygon id="126" class="fil81" points="283.32,59.47 369.79,56.26 369.85,58.93 "/>
     <polygon id="127" class="fil82" points="283.32,59.47 369.84,58.4 369.84,61.07 "/>
     <polygon id="128" class="fil83" points="283.32,59.47 369.84,60.54 369.77,63.21 "/>
     <polygon id="129" class="fil84" points="283.32,59.47 369.79,62.68 369.66,65.35 "/>
     <polygon id="130" class="fil85" points="283.32,59.47 369.68,64.82 369.49,67.49 "/>
     <polygon id="131" class="fil86" points="283.32,59.47 369.53,66.95 369.27,69.62 "/>
     <polygon id="132" class="fil87" points="283.32,59.47 369.32,69.08 368.99,71.74 "/>
     <polygon id="133" class="fil88" points="283.32,59.47 369.06,71.21 368.67,73.85 "/>
     <polygon id="134" class="fil89" points="283.32,59.47 368.75,73.33 368.29,75.96 "/>
     <polygon id="135" class="fil90" points="283.32,59.47 368.38,75.43 367.87,78.06 "/>
     <polygon id="136" class="fil91" points="283.32,59.47 367.97,77.53 367.39,80.15 "/>
     <polygon id="137" class="fil92" points="283.32,59.47 367.5,79.62 366.86,82.22 "/>
     <polygon id="138" class="fil93" points="283.32,59.47 366.99,81.7 366.28,84.28 "/>
     <polygon id="139" class="fil94" points="283.32,59.47 366.42,83.76 365.65,86.33 "/>
     <polygon id="140" class="fil95" points="283.32,59.47 365.8,85.81 364.97,88.36 "/>
     <polygon id="141" class="fil96" points="283.32,59.47 365.14,87.85 364.24,90.37 "/>
     <polygon id="142" class="fil97" points="283.32,59.47 364.42,89.86 363.47,92.36 "/>
     <polygon id="143" class="fil98" points="283.32,59.47 363.66,91.86 362.64,94.33 "/>
     <polygon id="144" class="fil99" points="283.32,59.47 362.85,93.84 361.77,96.29 "/>
     <polygon id="145" class="fil100" points="283.32,59.47 361.99,95.8 360.85,98.22 "/>
     <polygon id="146" class="fil101" points="283.32,59.47 361.08,97.73 359.88,100.12 "/>
     <polygon id="147" class="fil102" points="283.32,59.47 360.12,99.64 358.87,102 "/>
     <polygon id="148" class="fil103" points="283.32,59.47 359.12,101.53 357.81,103.86 "/>
     <polygon id="149" class="fil104" points="283.32,59.47 358.08,103.4 356.71,105.69 "/>
     <polygon id="150" class="fil105" points="283.32,59.47 356.98,105.23 355.56,107.49 "/>
     <polygon id="151" class="fil106" points="283.32,59.47 355.85,107.04 354.37,109.27 "/>
     <polygon id="152" class="fil107" points="283.32,59.47 354.67,108.82 353.14,111.01 "/>
     <polygon id="153" class="fil108" points="283.32,59.47 353.45,110.57 351.86,112.72 "/>
     <polygon id="154" class="fil109" points="283.32,59.47 352.18,112.29 350.55,114.4 "/>
     <polygon id="155" class="fil110" points="283.32,59.47 350.87,113.98 349.19,116.05 "/>
     <polygon id="156" class="fil111" points="283.32,59.47 349.53,115.63 347.79,117.66 "/>
     <polygon id="157" class="fil112" points="283.32,59.47 348.14,117.26 346.36,119.24 "/>
     <polygon id="158" class="fil113" points="283.32,59.47 346.71,118.84 344.88,120.78 "/>
     <polygon id="159" class="fil114" points="283.32,59.47 345.25,120.39 343.37,122.29 "/>
     <polygon id="160" class="fil115" points="283.32,59.47 343.75,121.91 341.83,123.75 "/>
     <polygon id="161" class="fil116" points="283.32,59.47 342.21,123.38 340.24,125.18 "/>
     <polygon id="162" class="fil117" points="283.32,59.47 340.64,124.82 338.63,126.57 "/>
     <polygon id="163" class="fil118" points="283.32,59.47 339.03,126.22 336.98,127.92 "/>
     <polygon id="164" class="fil119" points="283.32,59.47 337.39,127.58 335.29,129.23 "/>
     <polygon id="165" class="fil120" points="283.32,59.47 335.71,128.9 333.58,130.49 "/>
     <polygon id="166" class="fil121" points="283.32,59.47 334.01,130.17 331.84,131.71 "/>
     <polygon id="167" class="fil122" points="283.32,59.47 332.27,131.4 330.06,132.89 "/>
     <polygon id="168" class="fil123" points="283.32,59.47 330.51,132.59 328.26,134.03 "/>
     <polygon id="169" class="fil124" points="283.32,59.47 328.71,133.74 326.43,135.12 "/>
     <polygon id="170" class="fil125" points="283.32,59.47 326.89,134.84 324.58,136.16 "/>
     <polygon id="171" class="fil126" points="283.32,59.47 325.04,135.9 322.7,137.16 "/>
     <polygon id="172" class="fil127" points="283.32,59.47 323.17,136.9 320.8,138.11 "/>
     <polygon id="173" class="fil128" points="283.32,59.47 321.27,137.87 318.87,139.01 "/>
     <polygon id="174" class="fil129" points="283.32,59.47 319.35,138.78 316.93,139.87 "/>
     <polygon id="175" class="fil130" points="283.32,59.47 317.41,139.65 314.96,140.67 "/>
     <polygon id="176" class="fil131" points="283.32,59.47 315.45,140.47 312.97,141.43 "/>
     <polygon id="177" class="fil132" points="283.32,59.47 313.47,141.24 310.97,142.14 "/>
     <polygon id="178" class="fil133" points="283.32,59.47 311.47,141.96 308.95,142.8 "/>
     <polygon id="179" class="fil134" points="283.32,59.47 309.45,142.63 306.91,143.41 "/>
     <polygon id="180" class="fil135" points="283.32,59.47 307.42,143.25 304.86,143.97 "/>
     <polygon id="181" class="fil136" points="283.32,59.47 305.37,143.83 302.8,144.48 "/>
     <polygon id="182" class="fil137" points="283.32,59.47 303.31,144.35 300.72,144.93 "/>
     <polygon id="183" class="fil138" points="283.32,59.47 301.24,144.82 298.64,145.34 "/>
     <polygon id="184" class="fil139" points="283.32,59.47 299.16,145.23 296.54,145.69 "/>
     <polygon id="185" class="fil140" points="283.32,59.47 297.07,145.6 294.44,145.99 "/>
     <polygon id="186" class="fil141" points="283.32,59.47 294.97,145.91 292.33,146.24 "/>
     <polygon id="187" class="fil142" points="283.32,59.47 292.86,146.18 290.22,146.44 "/>
     <polygon id="188" class="fil143" points="283.32,59.47 290.75,146.39 288.1,146.58 "/>
     <polygon id="189" class="fil144" points="283.32,59.47 288.63,146.54 285.98,146.67 "/>
     <polygon id="190" class="fil145" points="283.32,59.47 286.51,146.65 283.85,146.71 "/>
     <polygon id="191" class="fil146" points="283.32,59.47 284.38,146.7 281.73,146.7 "/>
     <polygon id="192" class="fil147" points="283.32,59.47 282.26,146.7 279.61,146.63 "/>
     <polygon id="193" class="fil148" points="283.32,59.47 280.14,146.65 277.49,146.52 "/>
     <polygon id="194" class="fil149" points="283.32,59.47 278.02,146.54 275.37,146.35 "/>
     <polygon id="195" class="fil150" points="283.32,59.47 275.9,146.39 273.26,146.12 "/>
     <polygon id="196" class="fil151" points="283.32,59.47 273.79,146.18 271.15,145.85 "/>
     <polygon id="197" class="fil152" points="283.32,59.47 271.68,145.91 269.05,145.52 "/>
     <polygon id="198" class="fil153" points="283.32,59.47 269.58,145.6 266.96,145.14 "/>
     <polygon id="199" class="fil154" points="283.32,59.47 267.49,145.23 264.88,144.71 "/>
     <polygon id="200" class="fil155" points="283.32,59.47 265.4,144.82 262.81,144.23 "/>
     <polygon id="201" class="fil156" points="283.32,59.47 263.33,144.35 260.76,143.7 "/>
     <polygon id="202" class="fil157" points="283.32,59.47 261.27,143.83 258.71,143.11 "/>
     <polygon id="203" class="fil158" points="283.32,59.47 259.22,143.25 256.68,142.48 "/>
     <polygon id="204" class="fil159" points="283.32,59.47 257.19,142.63 254.67,141.79 "/>
     <polygon id="205" class="fil160" points="283.32,59.47 255.18,141.96 252.68,141.06 "/>
     <polygon id="206" class="fil161" points="283.32,59.47 253.18,141.24 250.7,140.28 "/>
     <polygon id="207" class="fil162" points="283.32,59.47 251.2,140.47 248.74,139.45 "/>
     <polygon id="208" class="fil163" points="283.32,59.47 249.23,139.65 246.81,138.57 "/>
     <polygon id="209" class="fil164" points="283.32,59.47 247.29,138.78 244.89,137.64 "/>
     <polygon id="210" class="fil165" points="283.32,59.47 245.37,137.87 243,136.66 "/>
     <polygon id="211" class="fil166" points="283.32,59.47 243.48,136.9 241.13,135.64 "/>
     <polygon id="212" class="fil167" points="283.32,59.47 241.6,135.9 239.29,134.58 "/>
     <polygon id="213" class="fil168" points="283.32,59.47 239.76,134.84 237.48,133.46 "/>
     <polygon id="214" class="fil169" points="283.32,59.47 237.93,133.74 235.69,132.31 "/>
     <polygon id="215" class="fil170" points="283.32,59.47 236.14,132.59 233.93,131.11 "/>
     <polygon id="216" class="fil171" points="283.32,59.47 234.37,131.4 232.2,129.86 "/>
     <polygon id="217" class="fil172" points="283.32,59.47 232.64,130.17 230.51,128.58 "/>
     <polygon id="218" class="fil173" points="283.32,59.47 230.93,128.9 228.84,127.25 "/>
     <polygon id="219" class="fil174" points="283.32,59.47 229.26,127.58 227.21,125.88 "/>
     <polygon id="220" class="fil175" points="283.32,59.47 227.62,126.22 225.61,124.47 "/>
     <polygon id="221" class="fil176" points="283.32,59.47 226.01,124.82 224.04,123.02 "/>
     <polygon id="222" class="fil177" points="283.32,59.47 224.44,123.38 222.51,121.54 "/>
     <polygon id="223" class="fil178" points="283.32,59.47 222.9,121.91 221.02,120.01 "/>
     <polygon id="224" class="fil179" points="283.32,59.47 221.4,120.39 219.57,118.45 "/>
     <polygon id="225" class="fil180" points="283.32,59.47 219.93,118.84 218.15,116.86 "/>
     <polygon id="226" class="fil181" points="283.32,59.47 218.51,117.26 216.77,115.23 "/>
     <polygon id="227" class="fil182" points="283.32,59.47 217.12,115.63 215.43,113.57 "/>
     <polygon id="228" class="fil183" points="283.32,59.47 215.77,113.98 214.14,111.87 "/>
     <polygon id="229" class="fil184" points="283.32,59.47 214.47,112.29 212.88,110.14 "/>
     <polygon id="230" class="fil185" points="283.32,59.47 213.2,110.57 211.67,108.38 "/>
     <polygon id="231" class="fil186" points="283.32,59.47 211.98,108.82 210.5,106.6 "/>
     <polygon id="232" class="fil187" points="283.32,59.47 210.8,107.04 209.38,104.78 "/>
     <polygon id="233" class="fil188" points="283.32,59.47 209.66,105.23 208.3,102.94 "/>
     <polygon id="234" class="fil189" points="283.32,59.47 208.57,103.4 207.26,101.07 "/>
     <polygon id="235" class="fil190" points="283.32,59.47 207.52,101.53 206.27,99.17 "/>
     <polygon id="236" class="fil191" points="283.32,59.47 206.52,99.64 205.33,97.25 "/>
     <polygon id="237" class="fil192" points="283.32,59.47 205.57,97.73 204.43,95.31 "/>
     <polygon id="238" class="fil193" points="283.32,59.47 204.66,95.8 203.58,93.35 "/>
     <polygon id="239" class="fil194" points="283.32,59.47 203.8,93.84 202.78,91.37 "/>
     <polygon id="240" class="fil195" points="283.32,59.47 202.99,91.86 202.03,89.36 "/>
     <polygon id="241" class="fil196" points="283.32,59.47 202.22,89.86 201.33,87.34 "/>
     <polygon id="242" class="fil197" points="283.32,59.47 201.51,87.85 200.67,85.31 "/>
     <polygon id="243" class="fil198" points="283.32,59.47 200.84,85.81 200.07,83.25 "/>
     <polygon id="244" class="fil199" points="283.32,59.47 200.22,83.76 199.52,81.18 "/>
     <polygon id="245" class="fil200" points="283.32,59.47 199.66,81.7 199.01,79.1 "/>
     <polygon id="246" class="fil201" points="283.32,59.47 199.14,79.62 198.56,77.01 "/>
     <polygon id="247" class="fil202" points="283.32,59.47 198.68,77.53 198.16,74.91 "/>
     <polygon id="248" class="fil203" points="283.32,59.47 198.26,75.43 197.81,72.8 "/>
     <polygon id="249" class="fil204" points="283.32,59.47 197.9,73.33 197.51,70.68 "/>
     <polygon id="250" class="fil205" points="283.32,59.47 197.59,71.21 197.26,68.55 "/>
     <polygon id="251" class="fil206" points="283.32,59.47 197.33,69.08 197.07,66.42 "/>
     <polygon id="252" class="fil207" points="283.32,59.47 197.12,66.95 196.92,64.28 "/>
     <polygon id="253" class="fil208" points="283.32,59.47 196.96,64.82 196.83,62.14 "/>
     <polygon id="254" class="fil209" points="283.32,59.47 196.86,62.68 196.79,60 "/>
     <polygon id="255" class="fil0" points="283.32,59.47 196.81,60.54 196.81,58.4 "/>
    </g>
   </g>
   <path class="fil210" d="M140.66 86.47l0 -39.68 14.59 0c2.74,0 5.07,0.26 7,0.76 1.92,0.52 3.49,1.24 4.7,2.16 1.22,0.94 2.11,2.06 2.66,3.4 0.56,1.33 0.83,2.81 0.83,4.45 0,0.89 -0.13,1.75 -0.38,2.59 -0.26,0.82 -0.66,1.6 -1.2,2.33 -0.54,0.73 -1.24,1.39 -2.1,1.98 -0.85,0.59 -1.87,1.11 -3.07,1.55 2.61,0.63 4.54,1.66 5.8,3.08 1.25,1.42 1.87,3.24 1.87,5.46 0,1.69 -0.32,3.26 -0.98,4.7 -0.65,1.45 -1.6,2.72 -2.86,3.79 -1.26,1.08 -2.82,1.92 -4.67,2.53 -1.86,0.6 -3.97,0.9 -6.35,0.9l-15.84 0zm9.2 -16.82l0 9.86 6.48 0c1.22,0 2.21,-0.16 2.98,-0.47 0.78,-0.3 1.37,-0.7 1.81,-1.18 0.44,-0.49 0.74,-1.05 0.9,-1.67 0.16,-0.61 0.24,-1.24 0.24,-1.86 0,-0.73 -0.09,-1.38 -0.28,-1.96 -0.19,-0.58 -0.52,-1.07 -0.98,-1.46 -0.46,-0.4 -1.08,-0.71 -1.84,-0.93 -0.76,-0.22 -1.72,-0.33 -2.88,-0.33l-6.43 0zm0 -6.15l4.79 0c1.02,0 1.94,-0.07 2.75,-0.21 0.82,-0.15 1.52,-0.4 2.09,-0.77 0.57,-0.36 1.01,-0.86 1.3,-1.49 0.3,-0.64 0.45,-1.44 0.45,-2.4 0,-0.94 -0.12,-1.73 -0.35,-2.36 -0.24,-0.62 -0.6,-1.12 -1.09,-1.5 -0.49,-0.39 -1.11,-0.66 -1.86,-0.82 -0.76,-0.16 -1.65,-0.25 -2.69,-0.25l-5.39 0 0 9.8zm24.33 22.97l0 -28.25 5.01 0c0.42,0 0.77,0.04 1.05,0.11 0.29,0.07 0.52,0.19 0.71,0.35 0.19,0.15 0.34,0.35 0.44,0.61 0.1,0.26 0.18,0.57 0.25,0.93l0.46 2.66c1.04,-1.61 2.2,-2.88 3.49,-3.8 1.29,-0.94 2.69,-1.4 4.22,-1.4 1.29,0 2.32,0.32 3.1,0.94l-1.09 6.22c-0.07,0.38 -0.22,0.64 -0.43,0.79 -0.22,0.16 -0.51,0.24 -0.87,0.24 -0.31,0 -0.68,-0.04 -1.09,-0.13 -0.42,-0.08 -0.95,-0.11 -1.58,-0.11 -2.22,0 -3.96,1.26 -5.23,3.79l0 17.05 -8.44 0zm39.25 0c-0.8,0 -1.4,-0.1 -1.8,-0.32 -0.41,-0.22 -0.76,-0.67 -1.03,-1.36l-0.6 -1.55c-0.71,0.59 -1.39,1.12 -2.04,1.57 -0.65,0.46 -1.32,0.84 -2.02,1.16 -0.7,0.31 -1.44,0.55 -2.23,0.7 -0.79,0.16 -1.67,0.24 -2.64,0.24 -1.28,0 -2.45,-0.17 -3.51,-0.51 -1.05,-0.33 -1.94,-0.82 -2.67,-1.49 -0.74,-0.65 -1.31,-1.47 -1.71,-2.44 -0.4,-0.97 -0.6,-2.09 -0.6,-3.37 0,-1 0.26,-2.02 0.77,-3.09 0.5,-1.05 1.38,-2.01 2.64,-2.87 1.25,-0.87 2.93,-1.59 5.06,-2.18 2.12,-0.58 4.8,-0.87 8.03,-0.87l0 -1.21c0,-1.67 -0.34,-2.87 -1.02,-3.61 -0.68,-0.74 -1.65,-1.11 -2.9,-1.11 -1,0 -1.82,0.1 -2.45,0.32 -0.64,0.22 -1.2,0.47 -1.7,0.74 -0.5,0.27 -0.99,0.51 -1.46,0.73 -0.47,0.22 -1.03,0.33 -1.69,0.33 -0.58,0 -1.07,-0.15 -1.48,-0.43 -0.4,-0.28 -0.73,-0.62 -0.97,-1.04l-1.52 -2.64c1.71,-1.52 3.6,-2.64 5.68,-3.38 2.08,-0.74 4.3,-1.11 6.68,-1.11 1.7,0 3.24,0.28 4.61,0.83 1.37,0.56 2.54,1.33 3.49,2.32 0.95,0.99 1.68,2.16 2.18,3.53 0.51,1.36 0.77,2.84 0.77,4.46l0 17.65 -3.87 0zm-9.69 -5.17c1.09,0 2.04,-0.19 2.86,-0.56 0.82,-0.37 1.64,-0.98 2.48,-1.82l0 -3.88c-1.69,0 -3.08,0.11 -4.17,0.33 -1.09,0.22 -1.95,0.49 -2.58,0.82 -0.64,0.33 -1.07,0.7 -1.32,1.12 -0.24,0.42 -0.37,0.88 -0.37,1.37 0,0.96 0.26,1.64 0.79,2.03 0.53,0.39 1.3,0.59 2.31,0.59zm16.82 5.17l0 -28.25 5.23 0c0.52,0 0.97,0.12 1.32,0.36 0.36,0.23 0.6,0.6 0.75,1.07l0.49 1.65c0.54,-0.52 1.1,-0.99 1.68,-1.43 0.58,-0.44 1.21,-0.81 1.87,-1.11 0.67,-0.3 1.38,-0.54 2.15,-0.71 0.77,-0.17 1.61,-0.26 2.52,-0.26 1.54,0 2.91,0.27 4.1,0.8 1.19,0.54 2.18,1.28 3,2.24 0.82,0.95 1.43,2.08 1.85,3.4 0.42,1.31 0.63,2.75 0.63,4.29l0 17.95 -8.44 0 0 -17.93c0,-1.38 -0.32,-2.46 -0.95,-3.23 -0.64,-0.77 -1.57,-1.15 -2.81,-1.15 -0.92,0 -1.79,0.22 -2.61,0.68 -0.82,0.45 -1.6,1.06 -2.34,1.82l0 19.81 -8.44 0zm49.76 0c-0.53,0 -0.97,-0.11 -1.32,-0.35 -0.35,-0.24 -0.61,-0.59 -0.75,-1.06l-0.66 -2.15c-0.56,0.6 -1.15,1.14 -1.77,1.63 -0.61,0.49 -1.27,0.91 -1.99,1.26 -0.72,0.36 -1.49,0.63 -2.31,0.82 -0.83,0.19 -1.73,0.29 -2.69,0.29 -1.47,0 -2.83,-0.33 -4.08,-0.98 -1.25,-0.65 -2.33,-1.6 -3.24,-2.83 -0.91,-1.24 -1.62,-2.75 -2.13,-4.54 -0.52,-1.79 -0.78,-3.83 -0.78,-6.12 0,-2.11 0.29,-4.06 0.87,-5.87 0.58,-1.81 1.4,-3.37 2.46,-4.68 1.07,-1.32 2.34,-2.35 3.82,-3.1 1.49,-0.74 3.13,-1.11 4.93,-1.11 1.45,0 2.69,0.22 3.69,0.65 1.01,0.44 1.92,1.01 2.73,1.72l0 -14.35 8.44 0 0 15.62 0 25.15 -5.22 0zm-8.55 -6.05c0.62,0 1.18,-0.05 1.68,-0.17 0.5,-0.12 0.95,-0.29 1.37,-0.51 0.41,-0.22 0.81,-0.49 1.19,-0.81 0.37,-0.33 0.73,-0.71 1.09,-1.15l0 -11.98c-0.65,-0.71 -1.34,-1.21 -2.07,-1.49 -0.74,-0.28 -1.52,-0.43 -2.34,-0.43 -0.78,0 -1.49,0.16 -2.15,0.47 -0.65,0.3 -1.21,0.8 -1.69,1.48 -0.48,0.68 -0.86,1.56 -1.14,2.66 -0.27,1.09 -0.4,2.41 -0.4,3.95 0,1.49 0.1,2.75 0.32,3.76 0.22,1.02 0.53,1.85 0.92,2.47 0.39,0.63 0.85,1.07 1.4,1.34 0.54,0.28 1.15,0.41 1.82,0.41zm35.93 -16.01c-0.22,0.34 -0.45,0.58 -0.69,0.73 -0.25,0.14 -0.57,0.21 -0.95,0.21 -0.4,0 -0.8,-0.09 -1.2,-0.26 -0.39,-0.17 -0.82,-0.35 -1.28,-0.55 -0.47,-0.2 -0.99,-0.39 -1.57,-0.57 -0.58,-0.17 -1.25,-0.25 -1.99,-0.25 -1.07,0 -1.89,0.21 -2.46,0.62 -0.57,0.41 -0.86,0.97 -0.86,1.69 0,0.53 0.19,0.97 0.56,1.31 0.37,0.35 0.86,0.65 1.48,0.92 0.62,0.26 1.32,0.51 2.1,0.75 0.78,0.24 1.58,0.5 2.39,0.79 0.82,0.29 1.62,0.63 2.4,1.02 0.78,0.39 1.48,0.87 2.09,1.45 0.62,0.57 1.12,1.26 1.49,2.07 0.37,0.82 0.55,1.81 0.55,2.95 0,1.4 -0.25,2.69 -0.76,3.87 -0.51,1.18 -1.26,2.2 -2.27,3.06 -1,0.85 -2.25,1.51 -3.73,1.98 -1.47,0.47 -3.18,0.71 -5.1,0.71 -0.96,0 -1.93,-0.09 -2.89,-0.27 -0.96,-0.18 -1.88,-0.43 -2.78,-0.74 -0.9,-0.31 -1.74,-0.68 -2.5,-1.1 -0.76,-0.43 -1.41,-0.88 -1.96,-1.37l1.96 -3.13c0.24,-0.37 0.52,-0.65 0.85,-0.86 0.32,-0.21 0.75,-0.31 1.28,-0.31 0.48,0 0.93,0.1 1.32,0.32 0.39,0.22 0.81,0.46 1.26,0.71 0.45,0.25 0.99,0.49 1.6,0.71 0.61,0.22 1.37,0.32 2.29,0.32 0.66,0 1.21,-0.07 1.66,-0.2 0.46,-0.14 0.82,-0.32 1.09,-0.56 0.27,-0.23 0.47,-0.5 0.6,-0.79 0.13,-0.29 0.19,-0.59 0.19,-0.9 0,-0.56 -0.19,-1.02 -0.57,-1.38 -0.38,-0.37 -0.88,-0.68 -1.5,-0.95 -0.61,-0.26 -1.31,-0.51 -2.1,-0.73 -0.79,-0.23 -1.6,-0.48 -2.42,-0.77 -0.81,-0.29 -1.61,-0.65 -2.4,-1.06 -0.79,-0.4 -1.5,-0.92 -2.11,-1.55 -0.62,-0.62 -1.12,-1.39 -1.5,-2.29 -0.38,-0.91 -0.57,-2.01 -0.57,-3.3 0,-1.19 0.23,-2.34 0.7,-3.42 0.46,-1.08 1.15,-2.02 2.07,-2.84 0.93,-0.81 2.09,-1.47 3.49,-1.95 1.39,-0.48 3.03,-0.71 4.9,-0.71 1.01,0 2,0.09 2.95,0.27 0.96,0.18 1.85,0.44 2.68,0.77 0.84,0.33 1.6,0.72 2.29,1.17 0.69,0.45 1.29,0.94 1.82,1.47l-1.9 2.94z"/>
   <path class="fil211" d="M31.56 46.75l0 7.31 -11.18 0 0 32.42 -9.21 0 0 -32.42 -11.17 0 0 -7.31 31.56 0zm0 39.73l0 -28.28 5.01 0c0.42,0 0.77,0.03 1.05,0.11 0.29,0.07 0.52,0.19 0.71,0.34 0.19,0.16 0.34,0.36 0.44,0.62 0.1,0.25 0.18,0.56 0.25,0.93l0.47 2.66c1.03,-1.61 2.19,-2.88 3.48,-3.81 1.29,-0.93 2.7,-1.4 4.23,-1.4 1.29,0 2.32,0.32 3.1,0.95l-1.09 6.22c-0.07,0.38 -0.21,0.64 -0.43,0.8 -0.22,0.15 -0.51,0.24 -0.87,0.24 -0.31,0 -0.68,-0.05 -1.09,-0.13 -0.42,-0.08 -0.95,-0.12 -1.58,-0.12 -2.22,0 -3.96,1.26 -5.24,3.8l0 17.07 -8.44 0zm29.86 -28.28l0 17.95c0,1.41 0.32,2.49 0.96,3.25 0.63,0.76 1.57,1.14 2.8,1.14 0.93,0 1.8,-0.19 2.61,-0.57 0.81,-0.38 1.59,-0.92 2.35,-1.61l0 -20.16 8.45 0 0 28.28 -5.23 0c-1.06,0 -1.75,-0.46 -2.07,-1.39l-0.52 -1.61c-0.55,0.52 -1.11,0.99 -1.69,1.41 -0.58,0.42 -1.2,0.78 -1.86,1.08 -0.67,0.29 -1.38,0.52 -2.15,0.7 -0.76,0.17 -1.59,0.25 -2.5,0.25 -1.55,0 -2.91,-0.27 -4.1,-0.81 -1.19,-0.53 -2.2,-1.28 -3.02,-2.24 -0.81,-0.96 -1.43,-2.11 -1.85,-3.42 -0.42,-1.31 -0.63,-2.74 -0.63,-4.3l0 -17.95 8.45 0zm38.81 6.19c-0.22,0.35 -0.45,0.58 -0.69,0.73 -0.25,0.14 -0.57,0.22 -0.95,0.22 -0.4,0 -0.8,-0.09 -1.2,-0.27 -0.4,-0.17 -0.82,-0.35 -1.29,-0.55 -0.46,-0.2 -0.99,-0.39 -1.57,-0.56 -0.58,-0.18 -1.24,-0.26 -1.99,-0.26 -1.07,0 -1.89,0.21 -2.46,0.62 -0.57,0.41 -0.86,0.97 -0.86,1.7 0,0.53 0.19,0.96 0.56,1.31 0.37,0.35 0.86,0.65 1.48,0.91 0.62,0.27 1.32,0.52 2.1,0.76 0.78,0.23 1.58,0.5 2.4,0.79 0.82,0.29 1.62,0.63 2.4,1.02 0.78,0.39 1.48,0.88 2.09,1.45 0.62,0.57 1.12,1.26 1.49,2.08 0.38,0.82 0.56,1.81 0.56,2.95 0,1.4 -0.26,2.69 -0.76,3.87 -0.51,1.18 -1.27,2.21 -2.28,3.06 -1,0.86 -2.25,1.52 -3.73,1.99 -1.48,0.47 -3.19,0.71 -5.11,0.71 -0.97,0 -1.93,-0.09 -2.89,-0.27 -0.96,-0.18 -1.89,-0.43 -2.79,-0.74 -0.9,-0.31 -1.74,-0.68 -2.5,-1.11 -0.76,-0.42 -1.42,-0.88 -1.96,-1.37l1.96 -3.12c0.24,-0.38 0.52,-0.66 0.85,-0.87 0.32,-0.21 0.75,-0.31 1.28,-0.31 0.49,0 0.93,0.11 1.32,0.32 0.39,0.22 0.81,0.46 1.27,0.71 0.45,0.26 0.99,0.49 1.59,0.71 0.61,0.22 1.38,0.33 2.3,0.33 0.66,0 1.21,-0.08 1.67,-0.21 0.45,-0.14 0.81,-0.32 1.09,-0.56 0.27,-0.23 0.47,-0.5 0.59,-0.79 0.13,-0.29 0.2,-0.59 0.2,-0.89 0,-0.57 -0.2,-1.03 -0.58,-1.39 -0.38,-0.37 -0.88,-0.69 -1.5,-0.95 -0.61,-0.26 -1.31,-0.51 -2.1,-0.73 -0.79,-0.23 -1.6,-0.49 -2.42,-0.78 -0.82,-0.29 -1.62,-0.64 -2.41,-1.05 -0.79,-0.41 -1.5,-0.93 -2.11,-1.55 -0.62,-0.63 -1.12,-1.39 -1.5,-2.3 -0.38,-0.91 -0.57,-2.01 -0.57,-3.3 0,-1.2 0.23,-2.34 0.7,-3.42 0.46,-1.09 1.15,-2.03 2.08,-2.85 0.92,-0.82 2.08,-1.47 3.48,-1.95 1.4,-0.48 3.04,-0.72 4.91,-0.72 1.02,0 2.01,0.09 2.96,0.27 0.95,0.19 1.84,0.45 2.68,0.78 0.84,0.32 1.6,0.71 2.29,1.17 0.69,0.44 1.3,0.93 1.82,1.47l-1.9 2.94zm16.07 22.53c-1.34,0 -2.52,-0.2 -3.55,-0.59 -1.02,-0.39 -1.89,-0.94 -2.59,-1.66 -0.7,-0.72 -1.23,-1.59 -1.59,-2.61 -0.37,-1.02 -0.55,-2.15 -0.55,-3.41l0 -14.62 -2.4 0c-0.43,0 -0.81,-0.14 -1.11,-0.42 -0.31,-0.27 -0.47,-0.68 -0.47,-1.22l0 -3.25 4.5 -0.88 1.66 -6.95c0.22,-0.88 0.84,-1.31 1.85,-1.31l4.42 0 0 8.25 6.87 0 0 5.78 -6.87 0 0 14.03c0,0.66 0.16,1.19 0.48,1.62 0.32,0.43 0.77,0.65 1.37,0.65 0.31,0 0.57,-0.04 0.78,-0.1 0.21,-0.07 0.39,-0.14 0.55,-0.22 0.15,-0.08 0.3,-0.16 0.43,-0.22 0.14,-0.06 0.29,-0.09 0.48,-0.09 0.25,0 0.46,0.05 0.61,0.17 0.16,0.13 0.31,0.31 0.48,0.56l2.56 4.04c-1.09,0.82 -2.32,1.42 -3.68,1.83 -1.36,0.41 -2.77,0.62 -4.23,0.62zm18.97 -28.72l0 28.28 -8.45 0 0 -28.28 8.45 0zm0.98 -7.74c0,0.67 -0.13,1.3 -0.41,1.89 -0.27,0.59 -0.64,1.11 -1.11,1.55 -0.48,0.45 -1.02,0.8 -1.65,1.06 -0.63,0.27 -1.3,0.4 -2.01,0.4 -0.69,0 -1.33,-0.13 -1.93,-0.4 -0.6,-0.26 -1.13,-0.61 -1.59,-1.06 -0.46,-0.44 -0.83,-0.96 -1.09,-1.55 -0.26,-0.59 -0.4,-1.22 -0.4,-1.89 0,-0.69 0.14,-1.34 0.4,-1.94 0.26,-0.6 0.63,-1.12 1.09,-1.58 0.46,-0.45 0.99,-0.8 1.59,-1.06 0.6,-0.25 1.24,-0.38 1.93,-0.38 0.71,0 1.38,0.13 2.01,0.38 0.63,0.26 1.17,0.61 1.65,1.06 0.47,0.46 0.84,0.98 1.11,1.58 0.28,0.6 0.41,1.25 0.41,1.94z"/>
  </g>
 </g>
</svg>
