<?xml version="1.0" encoding="UTF-8" standalone="no"?>
<!-- Created with Inkscape (http://www.inkscape.org/) -->

<svg
   version="1.1"
   id="svg48"
   width="319.34961"
   height="99.305969"
   viewBox="0 0 319.3496 99.305969"
   sodipodi:docname="O24-provisinal-guideline.pdf"
   xmlns:inkscape="http://www.inkscape.org/namespaces/inkscape"
   xmlns:sodipodi="http://sodipodi.sourceforge.net/DTD/sodipodi-0.dtd"
   xmlns="http://www.w3.org/2000/svg"
   xmlns:svg="http://www.w3.org/2000/svg">
  <defs
     id="defs52">
    <clipPath
       clipPathUnits="userSpaceOnUse"
       id="clipPath638">
      <path
         d="M 0,595.276 H 841.89 V 0 H 0 Z"
         id="path636" />
    </clipPath>
  </defs>
  <sodipodi:namedview
     id="namedview50"
     pagecolor="#ffffff"
     bordercolor="#000000"
     borderopacity="0.25"
     inkscape:showpageshadow="2"
     inkscape:pageopacity="0.0"
     inkscape:pagecheckerboard="0"
     inkscape:deskcolor="#d1d1d1"
     showgrid="false" />
  <g
     id="g614"
     inkscape:groupmode="layer"
     inkscape:label="Page 5"
     transform="matrix(1.3333333,0,0,-1.3333333,-717.37956,380.0958)">
    <g
       id="g634"
       clip-path="url(#clipPath638)"
       transform="translate(5.263622,23.406702)">
      <g
         id="g844"
         transform="translate(557.69692,229.69106)">
        <path
           d="m 0,0 h -14.548 v -14.528 h 14.78 c 4.013,0 7.945,1.62 7.945,7.141 C 8.178,-2.678 5.268,0 0,0 M -14.548,22.237 V 9.818 h 14.78 c 3.541,0 6.369,2.518 6.369,6.25 0,3.732 -2.435,6.169 -6.369,6.169 z M 1.651,-24.349 H -24.926 V 31.974 H 0.233 c 10.932,0 16.436,-5.842 16.436,-15.257 0,-4.708 -1.967,-8.523 -5.349,-11.037 4.643,-2.517 7.472,-7.062 7.472,-13.474 0,-10.062 -6.604,-16.555 -17.141,-16.555"
           style="fill:#ffffff;fill-opacity:1;fill-rule:nonzero;stroke:none"
           id="path846" />
      </g>
      <g
         id="g848"
         transform="translate(592.26022,205.34226)">
        <path
           d="m 0,0 h -10.171 v 56.31 h 10.17 V 0 Z"
           style="fill:#ffffff;fill-opacity:1;fill-rule:nonzero;stroke:none"
           id="path850" />
      </g>
      <g
         id="g852"
         transform="translate(633.70682,205.34226)">
        <path
           d="m 0,0 h -9.707 v 3.62 c -2.466,-2.851 -5.933,-4.545 -10.092,-4.545 -9.401,0 -15.64,7.011 -15.64,17.409 v 23.189 h 10.167 V 16.485 c 0,-2.232 0.772,-7.78 7.398,-7.78 4.547,0 7.703,3.39 7.703,7.78 V 39.673 H 0 Z"
           style="fill:#ffffff;fill-opacity:1;fill-rule:nonzero;stroke:none"
           id="path854" />
      </g>
      <g
         id="g856"
         transform="translate(667.21812,233.53816)">
        <path
           d="m 0,0 c -1.846,2.235 -4.62,3.542 -7.855,3.542 -5.857,0 -10.554,-4.623 -10.788,-11.401 z M 11.404,-15.562 C 9.092,-23.651 2.08,-29.12 -7.781,-29.12 c -11.245,0 -20.335,9.243 -20.335,20.722 0,11.478 9.089,20.877 20.335,20.877 9.555,0 17.567,-6.009 19.491,-16.639 l -28.041,-11.787 c 2.003,-2.695 5.007,-4.238 8.476,-4.238 3.311,0 6.7,1.463 8.395,4.623 z"
           style="fill:#ffffff;fill-opacity:1;fill-rule:nonzero;stroke:none"
           id="path858" />
      </g>
      <path
         d="m 694.87832,205.34266 h -10.168 v 56.31 h 10.168 z"
         style="fill:#ffffff;fill-opacity:1;fill-rule:nonzero;stroke:none"
         id="path860" />
      <g
         id="g862"
         transform="translate(743.07522,205.34226)">
        <path
           d="m 0,0 h -10.94 l -15.02,39.673 h 10.631 L -5.47,11.27 4.469,39.673 h 10.48 z"
           style="fill:#ffffff;fill-opacity:1;fill-rule:nonzero;stroke:none"
           id="path864" />
      </g>
      <path
         d="m 701.81032,245.01466 h 10.168 v -39.673 h -10.168 z"
         style="fill:#ffffff;fill-opacity:1;fill-rule:nonzero;stroke:none"
         id="path866" />
      <g
         id="g868"
         transform="translate(706.89332,261.66516)">
        <path
           d="m 0,0 c 3.404,0 6.164,-2.76 6.164,-6.164 0,-3.404 -2.76,-6.164 -6.164,-6.164 -3.404,0 -6.164,2.76 -6.164,6.164 C -6.164,-2.76 -3.404,0 0,0"
           style="fill:#ff6150;fill-opacity:1;fill-rule:nonzero;stroke:none"
           id="path870" />
      </g>
      <path
         d="m 759.95532,217.75666 h 12.328 v -12.328 h -12.328 z"
         style="fill:#1ac0c6;fill-opacity:1;fill-rule:nonzero;stroke:none"
         id="path872" />
      <g
         id="g874"
         transform="translate(537.32982,190.38756)">
        <path
           d="m 0,0 -0.778,2.18 c -0.024,0.074 -0.06,0.185 -0.109,0.334 -0.049,0.148 -0.098,0.302 -0.147,0.46 -0.049,0.158 -0.088,0.29 -0.119,0.394 C -1.187,3.23 -1.226,3.084 -1.269,2.931 -1.313,2.777 -1.356,2.634 -1.398,2.501 -1.44,2.368 -1.475,2.261 -1.502,2.18 L -2.291,0 Z M 1.108,-3.1 0.289,-0.9 H -2.61 l -0.809,-2.2 h -1.077 l 2.822,7.424 h 1.062 L 2.196,-3.1 Z"
           style="fill:#ffffff;fill-opacity:1;fill-rule:nonzero;stroke:none"
           id="path876" />
      </g>
      <g
         id="g878"
         transform="translate(546.50462,187.28716)">
        <path
           d="m 0,0 h -1.244 l -3.829,6.059 h -0.04 C -5.104,5.877 -5.091,5.677 -5.078,5.46 -5.065,5.242 -5.054,5.015 -5.045,4.777 -5.037,4.54 -5.031,4.299 -5.027,4.056 V 0 h -0.951 v 7.394 h 1.234 l 3.813,-6.028 h 0.035 C -0.902,1.514 -0.91,1.698 -0.921,1.917 -0.931,2.136 -0.94,2.368 -0.949,2.612 -0.957,2.857 -0.961,3.089 -0.961,3.308 V 7.394 H 0 Z"
           style="fill:#ffffff;fill-opacity:1;fill-rule:nonzero;stroke:none"
           id="path880" />
      </g>
      <g
         id="g882"
         transform="translate(551.89702,190.99456)">
        <path
           d="m 0,0 c 0,-0.6 0.083,-1.119 0.25,-1.555 0.167,-0.437 0.423,-0.774 0.769,-1.012 0.345,-0.238 0.786,-0.356 1.322,-0.356 0.543,0 0.986,0.118 1.33,0.356 0.344,0.238 0.598,0.575 0.76,1.012 C 4.592,-1.119 4.673,-0.6 4.673,0 4.673,0.91 4.487,1.623 4.116,2.137 3.746,2.651 3.159,2.908 2.356,2.908 1.817,2.908 1.373,2.791 1.026,2.557 0.679,2.322 0.421,1.988 0.252,1.555 0.084,1.122 0,0.603 0,0 M 5.766,0 C 5.766,-0.57 5.693,-1.088 5.548,-1.555 5.403,-2.022 5.188,-2.423 4.903,-2.759 4.618,-3.095 4.263,-3.353 3.836,-3.535 3.41,-3.717 2.911,-3.808 2.341,-3.808 c -0.579,0 -1.084,0.091 -1.515,0.273 -0.429,0.182 -0.786,0.441 -1.069,0.779 -0.283,0.337 -0.495,0.74 -0.635,1.208 -0.14,0.469 -0.21,0.988 -0.21,1.558 0,0.759 0.125,1.423 0.374,1.993 0.25,0.57 0.63,1.012 1.141,1.328 0.511,0.315 1.154,0.472 1.929,0.472 0.749,0 1.376,-0.156 1.882,-0.47 C 4.743,3.019 5.125,2.579 5.381,2.01 5.637,1.442 5.766,0.772 5.766,0"
           style="fill:#ffffff;fill-opacity:1;fill-rule:nonzero;stroke:none"
           id="path884" />
      </g>
      <g
         id="g886"
         transform="translate(564.97632,194.68166)">
        <path
           d="m 0,0 v -4.785 c 0,-0.519 -0.107,-0.982 -0.321,-1.391 -0.214,-0.408 -0.537,-0.729 -0.969,-0.966 -0.432,-0.236 -0.974,-0.354 -1.629,-0.354 -0.927,0 -1.635,0.249 -2.122,0.747 -0.487,0.497 -0.73,1.159 -0.73,1.985 V 0 h 1.042 v -4.724 c 0,-0.624 0.155,-1.094 0.467,-1.411 0.312,-0.317 0.777,-0.476 1.394,-0.476 0.425,0 0.772,0.077 1.042,0.23 0.27,0.154 0.469,0.372 0.599,0.653 0.13,0.282 0.195,0.616 0.195,1.004 V 0 Z"
           style="fill:#ffffff;fill-opacity:1;fill-rule:nonzero;stroke:none"
           id="path888" />
      </g>
      <g
         id="g890"
         transform="translate(569.31592,187.28716)">
        <path
           d="M 0,0 H -1.042 V 6.499 H -3.288 V 7.394 H 2.24 V 6.499 H 0 Z"
           style="fill:#ffffff;fill-opacity:1;fill-rule:nonzero;stroke:none"
           id="path892" />
      </g>
      <g
         id="g894"
         transform="translate(574.63662,193.81166)">
        <path
           d="m 0,0 h -0.921 v -2.812 h 0.734 c 0.427,0 0.787,0.048 1.077,0.144 0.29,0.096 0.509,0.25 0.657,0.463 0.148,0.212 0.222,0.492 0.222,0.839 0,0.459 -0.143,0.801 -0.429,1.027 C 1.054,-0.113 0.607,0 0,0 m 0.081,0.87 c 0.954,0 1.651,-0.191 2.091,-0.572 0.44,-0.38 0.66,-0.922 0.66,-1.623 0,-0.317 -0.051,-0.618 -0.152,-0.903 C 2.579,-2.513 2.414,-2.764 2.187,-2.982 1.959,-3.199 1.661,-3.371 1.289,-3.498 0.918,-3.624 0.463,-3.687 -0.076,-3.687 H -0.921 V -6.525 H -1.958 V 0.87 Z"
           style="fill:#ffffff;fill-opacity:1;fill-rule:nonzero;stroke:none"
           id="path896" />
      </g>
      <g
         id="g898"
         transform="translate(579.70452,190.99456)">
        <path
           d="m 0,0 c 0,-0.6 0.083,-1.119 0.25,-1.555 0.167,-0.437 0.423,-0.774 0.769,-1.012 0.345,-0.238 0.786,-0.356 1.322,-0.356 0.543,0 0.986,0.118 1.33,0.356 0.344,0.238 0.598,0.575 0.76,1.012 C 4.592,-1.119 4.673,-0.6 4.673,0 4.673,0.91 4.487,1.623 4.116,2.137 3.746,2.651 3.159,2.908 2.356,2.908 1.817,2.908 1.373,2.791 1.026,2.557 0.679,2.322 0.421,1.988 0.252,1.555 0.084,1.122 0,0.603 0,0 M 5.766,0 C 5.766,-0.57 5.693,-1.088 5.548,-1.555 5.403,-2.022 5.188,-2.423 4.903,-2.759 4.618,-3.095 4.263,-3.353 3.836,-3.535 3.41,-3.717 2.911,-3.808 2.341,-3.808 c -0.579,0 -1.084,0.091 -1.515,0.273 -0.429,0.182 -0.786,0.441 -1.069,0.779 -0.283,0.337 -0.495,0.74 -0.635,1.208 -0.14,0.469 -0.21,0.988 -0.21,1.558 0,0.759 0.125,1.423 0.374,1.993 0.25,0.57 0.63,1.012 1.141,1.328 0.511,0.315 1.154,0.472 1.929,0.472 0.749,0 1.376,-0.156 1.882,-0.47 C 4.743,3.019 5.125,2.579 5.381,2.01 5.637,1.442 5.766,0.772 5.766,0"
           style="fill:#ffffff;fill-opacity:1;fill-rule:nonzero;stroke:none"
           id="path900" />
      </g>
      <g
         id="g902"
         transform="translate(591.30712,189.27486)">
        <path
           d="m 0,0 c 0,-0.438 -0.109,-0.814 -0.327,-1.126 -0.217,-0.311 -0.523,-0.55 -0.918,-0.715 -0.394,-0.165 -0.863,-0.248 -1.405,-0.248 -0.274,0 -0.534,0.015 -0.782,0.043 -0.248,0.029 -0.478,0.07 -0.69,0.124 -0.213,0.054 -0.405,0.121 -0.577,0.202 v 0.982 c 0.28,-0.115 0.604,-0.222 0.971,-0.321 0.367,-0.1 0.747,-0.15 1.138,-0.15 0.34,0 0.626,0.046 0.857,0.139 0.231,0.093 0.405,0.224 0.524,0.392 0.118,0.169 0.177,0.371 0.177,0.607 0,0.236 -0.057,0.434 -0.173,0.594 -0.114,0.161 -0.295,0.308 -0.543,0.443 -0.248,0.135 -0.572,0.278 -0.974,0.43 -0.279,0.101 -0.534,0.217 -0.763,0.347 -0.23,0.129 -0.427,0.279 -0.595,0.447 -0.166,0.168 -0.295,0.367 -0.386,0.595 -0.091,0.227 -0.137,0.489 -0.137,0.786 0,0.408 0.1,0.757 0.301,1.047 0.2,0.29 0.481,0.511 0.842,0.665 0.361,0.153 0.779,0.23 1.255,0.23 0.39,0 0.755,-0.039 1.095,-0.116 0.338,-0.078 0.661,-0.184 0.968,-0.319 l -0.329,-0.86 c -0.286,0.118 -0.575,0.214 -0.864,0.288 -0.29,0.075 -0.591,0.112 -0.901,0.112 -0.287,0 -0.529,-0.042 -0.726,-0.127 C -3.159,4.407 -3.309,4.287 -3.412,4.132 -3.515,3.977 -3.566,3.793 -3.566,3.581 c 0,-0.239 0.054,-0.439 0.162,-0.597 0.108,-0.158 0.277,-0.302 0.511,-0.43 0.232,-0.128 0.535,-0.264 0.91,-0.41 0.421,-0.161 0.78,-0.333 1.075,-0.515 0.295,-0.182 0.52,-0.402 0.675,-0.658 C -0.078,0.715 0,0.391 0,0"
           style="fill:#ffffff;fill-opacity:1;fill-rule:nonzero;stroke:none"
           id="path904" />
      </g>
      <g
         id="g906"
         transform="translate(595.18602,187.28716)">
        <path
           d="M 0,0 H -1.042 V 6.499 H -3.288 V 7.394 H 2.24 V 6.499 H 0 Z"
           style="fill:#ffffff;fill-opacity:1;fill-rule:nonzero;stroke:none"
           id="path908" />
      </g>
      <g
         id="g910"
         transform="translate(602.96952,187.28716)">
        <path
           d="m 0,0 h -4.926 v 0.799 l 1.947,1.978 c 0.371,0.374 0.679,0.702 0.923,0.984 0.245,0.281 0.429,0.554 0.553,0.819 0.126,0.265 0.188,0.554 0.188,0.867 0,0.385 -0.113,0.678 -0.339,0.88 C -1.88,6.53 -2.18,6.631 -2.555,6.631 -2.891,6.631 -3.196,6.569 -3.467,6.446 -3.739,6.323 -4.019,6.147 -4.309,5.918 l -0.546,0.677 c 0.199,0.169 0.414,0.322 0.647,0.458 0.233,0.137 0.487,0.245 0.763,0.326 0.277,0.081 0.584,0.122 0.922,0.122 0.461,0 0.86,-0.081 1.195,-0.243 C -0.992,7.096 -0.734,6.867 -0.552,6.57 -0.37,6.273 -0.278,5.926 -0.278,5.528 -0.278,5.134 -0.356,4.769 -0.514,4.433 -0.67,4.098 -0.892,3.765 -1.179,3.434 -1.465,3.104 -1.804,2.751 -2.195,2.377 L -3.636,0.951 V 0.905 H 0 Z"
           style="fill:#ffffff;fill-opacity:1;fill-rule:nonzero;stroke:none"
           id="path912" />
      </g>
      <g
         id="g914"
         transform="translate(607.16272,189.83126)">
        <path
           d="m 0,0 v 2.124 c 0,0.169 0.002,0.33 0.005,0.483 0.004,0.154 0.008,0.3 0.015,0.438 0.007,0.138 0.013,0.267 0.02,0.387 0.007,0.119 0.012,0.228 0.016,0.326 H 0.016 C -0.049,3.623 -0.121,3.483 -0.2,3.338 -0.279,3.193 -0.363,3.058 -0.45,2.934 L -2.499,0 Z M 2.048,-0.875 H 0.996 V -2.544 H 0 v 1.669 h -3.47 v 0.804 l 3.45,4.952 H 0.996 V 0 h 1.052 z"
           style="fill:#ffffff;fill-opacity:1;fill-rule:nonzero;stroke:none"
           id="path916" />
      </g>
      <g
         id="g918"
         transform="translate(616.24182,193.89266)">
        <path
           d="M 0,0 C -0.381,0 -0.722,-0.067 -1.024,-0.2 -1.326,-0.333 -1.581,-0.527 -1.79,-0.781 -2,-1.036 -2.16,-1.342 -2.271,-1.699 -2.383,-2.057 -2.438,-2.46 -2.438,-2.908 c 0,-0.597 0.089,-1.113 0.265,-1.548 0.178,-0.435 0.445,-0.77 0.802,-1.006 0.358,-0.237 0.808,-0.354 1.351,-0.354 0.323,0 0.633,0.029 0.928,0.088 0.295,0.059 0.589,0.136 0.882,0.23 v -0.89 C 1.507,-6.496 1.215,-6.576 0.913,-6.628 0.611,-6.681 0.258,-6.707 -0.146,-6.707 c -0.756,0 -1.384,0.157 -1.885,0.471 -0.5,0.313 -0.874,0.754 -1.12,1.322 -0.246,0.569 -0.369,1.239 -0.369,2.011 0,0.56 0.078,1.071 0.232,1.535 0.155,0.463 0.383,0.865 0.683,1.204 0.3,0.338 0.669,0.6 1.106,0.783 0.436,0.184 0.939,0.276 1.509,0.276 0.371,0 0.732,-0.039 1.085,-0.118 0.352,-0.08 0.677,-0.19 0.973,-0.332 L 1.684,-0.42 C 1.438,-0.309 1.174,-0.211 0.892,-0.126 0.611,-0.042 0.314,0 0,0"
           style="fill:#ffffff;fill-opacity:1;fill-rule:nonzero;stroke:none"
           id="path920" />
      </g>
      <g
         id="g922"
         transform="translate(620.35342,190.99456)">
        <path
           d="m 0,0 c 0,-0.6 0.083,-1.119 0.25,-1.555 0.167,-0.437 0.423,-0.774 0.769,-1.012 0.345,-0.238 0.786,-0.356 1.322,-0.356 0.543,0 0.986,0.118 1.33,0.356 0.344,0.238 0.598,0.575 0.76,1.012 C 4.592,-1.119 4.673,-0.6 4.673,0 4.673,0.91 4.487,1.623 4.116,2.137 3.746,2.651 3.159,2.908 2.356,2.908 1.817,2.908 1.373,2.791 1.026,2.557 0.679,2.322 0.421,1.988 0.252,1.555 0.084,1.122 0,0.603 0,0 M 5.766,0 C 5.766,-0.57 5.693,-1.088 5.548,-1.555 5.403,-2.022 5.188,-2.423 4.903,-2.759 4.618,-3.095 4.263,-3.353 3.836,-3.535 3.41,-3.717 2.911,-3.808 2.341,-3.808 c -0.579,0 -1.084,0.091 -1.515,0.273 -0.429,0.182 -0.786,0.441 -1.069,0.779 -0.283,0.337 -0.495,0.74 -0.635,1.208 -0.14,0.469 -0.21,0.988 -0.21,1.558 0,0.759 0.125,1.423 0.374,1.993 0.25,0.57 0.63,1.012 1.141,1.328 0.511,0.315 1.154,0.472 1.929,0.472 0.749,0 1.376,-0.156 1.882,-0.47 C 4.743,3.019 5.125,2.579 5.381,2.01 5.637,1.442 5.766,0.772 5.766,0"
           style="fill:#ffffff;fill-opacity:1;fill-rule:nonzero;stroke:none"
           id="path924" />
      </g>
      <g
         id="g926"
         transform="translate(630.95452,187.28716)">
        <path
           d="m 0,0 -2.306,6.358 h -0.041 c 0.011,-0.139 0.022,-0.317 0.034,-0.534 0.011,-0.218 0.021,-0.453 0.03,-0.708 0.009,-0.255 0.012,-0.505 0.012,-0.751 V 0 h -0.95 v 7.394 h 1.492 L 0.461,1.371 H 0.496 L 2.742,7.394 H 4.224 V 0 H 3.222 v 4.426 c 0,0.222 0.003,0.454 0.01,0.695 0.007,0.241 0.017,0.471 0.028,0.688 0.012,0.218 0.023,0.397 0.033,0.538 H 3.248 L 0.885,0 Z"
           style="fill:#ffffff;fill-opacity:1;fill-rule:nonzero;stroke:none"
           id="path928" />
      </g>
      <g
         id="g930"
         transform="translate(639.11852,193.81166)">
        <path
           d="m 0,0 h -0.921 v -2.812 h 0.733 c 0.428,0 0.788,0.048 1.078,0.144 0.29,0.096 0.509,0.25 0.657,0.463 0.148,0.212 0.222,0.492 0.222,0.839 0,0.459 -0.143,0.801 -0.429,1.027 C 1.054,-0.113 0.607,0 0,0 m 0.081,0.87 c 0.954,0 1.651,-0.191 2.091,-0.572 0.44,-0.38 0.66,-0.922 0.66,-1.623 0,-0.317 -0.051,-0.618 -0.152,-0.903 C 2.579,-2.513 2.414,-2.764 2.187,-2.982 1.959,-3.199 1.66,-3.371 1.289,-3.498 0.918,-3.624 0.463,-3.687 -0.076,-3.687 H -0.921 V -6.525 H -1.958 V 0.87 Z"
           style="fill:#ffffff;fill-opacity:1;fill-rule:nonzero;stroke:none"
           id="path932" />
      </g>
      <g
         id="g934"
         transform="translate(646.96652,190.38756)">
        <path
           d="m 0,0 -0.778,2.18 c -0.024,0.074 -0.06,0.185 -0.109,0.334 -0.049,0.148 -0.098,0.302 -0.147,0.46 -0.049,0.158 -0.088,0.29 -0.119,0.394 C -1.187,3.23 -1.226,3.084 -1.269,2.931 -1.313,2.777 -1.356,2.634 -1.398,2.501 -1.44,2.368 -1.475,2.261 -1.502,2.18 L -2.291,0 Z M 1.108,-3.1 0.289,-0.9 H -2.61 l -0.809,-2.2 h -1.077 l 2.822,7.424 h 1.062 L 2.196,-3.1 Z"
           style="fill:#ffffff;fill-opacity:1;fill-rule:nonzero;stroke:none"
           id="path936" />
      </g>
      <g
         id="g938"
         transform="translate(656.14212,187.28716)">
        <path
           d="m 0,0 h -1.244 l -3.829,6.059 h -0.04 C -5.104,5.877 -5.091,5.677 -5.078,5.46 -5.065,5.242 -5.054,5.015 -5.045,4.777 -5.037,4.54 -5.031,4.299 -5.027,4.056 V 0 h -0.951 v 7.394 h 1.234 l 3.813,-6.028 h 0.035 C -0.902,1.514 -0.91,1.698 -0.921,1.917 -0.931,2.136 -0.94,2.368 -0.949,2.612 -0.957,2.857 -0.961,3.089 -0.961,3.308 V 7.394 H 0 Z"
           style="fill:#ffffff;fill-opacity:1;fill-rule:nonzero;stroke:none"
           id="path940" />
      </g>
      <g
         id="g942"
         transform="translate(660.11282,191.14116)">
        <path
           d="M 0,0 1.861,3.54 H 2.974 L 0.516,-0.981 v -2.873 h -1.037 v 2.827 L -2.984,3.54 h 1.133 z"
           style="fill:#ffffff;fill-opacity:1;fill-rule:nonzero;stroke:none"
           id="path944" />
      </g>
    </g>
  </g>
</svg>
