<?xml version="1.0" encoding="utf-8"?>
<!-- Generator: Adobe Illustrator 19.2.1, SVG Export Plug-In . SVG Version: 6.00 Build 0)  -->
<svg version="1.1" id="Layer_1" xmlns="http://www.w3.org/2000/svg" xmlns:xlink="http://www.w3.org/1999/xlink" x="0px" y="0px"
	 viewBox="0 0 472.9 111.3" style="enable-background:new 0 0 472.9 111.3;" xml:space="preserve">
<style type="text/css">
	.st0{fill:#787662;}
	.st1{fill:#ED1B2F;}
	.st2{fill:#E82F31;}
	.st3{fill:#6B7160;}
</style>
<g>
	<g>
		<g>
			<g>
				<g>
					<path class="st0" d="M350.3,56c0-0.8-0.1-1.6-0.1-2.4c0.2,0,0.4,0.1,0.7,0.1c0.2,0,0.5,0,0.8,0c0.4,0,0.9,0,1.4-0.1
						c0.5,0,1.2-0.1,2-0.1c1.1,0,2.1,0.1,2.9,0.3c0.9,0.2,1.7,0.5,2.3,1c0.6,0.5,1.1,1.1,1.5,1.9c0.4,0.8,0.5,1.8,0.5,3
						c0,1-0.2,2-0.5,2.8c-0.3,0.8-0.8,1.6-1.4,2.2c-0.6,0.6-1.3,1.1-2.1,1.4c-0.8,0.3-1.6,0.5-2.5,0.5c-0.9,0-1.7,0-2.4,0
						c-0.7,0-1.2,0-1.7,0c-0.3,0-0.6,0-0.8,0c-0.3,0-0.5,0-0.7,0c0-0.8,0.1-1.6,0.1-2.4c0-0.8,0-1.7,0-2.8v-2.6
						C350.4,57.7,350.4,56.8,350.3,56z M353.2,62.7v1.1c0,0.4,0,0.7,0,1c0,0.3,0,0.5,0,0.6c0.2,0,0.4,0,0.7,0c0.3,0,0.6,0,1,0
						c1.4,0,2.5-0.5,3.4-1.4c0.8-1,1.2-2.4,1.2-4.4c0-0.8-0.1-1.5-0.3-2.1c-0.2-0.6-0.5-1.1-0.9-1.6c-0.4-0.4-0.8-0.8-1.4-1
						c-0.5-0.2-1.1-0.3-1.8-0.3c-0.5,0-0.8,0-1.1,0c-0.3,0-0.6,0-0.9,0.1c0,0.1,0,0.3,0,0.6c0,0.3,0,0.6,0,1l0,1.1v0.9v3.3V62.7z"/>
					<path class="st0" d="M379.1,66.5c-0.3,0-0.6,0-0.9,0c-0.3,0-0.5,0-0.8,0c-0.3,0-0.5,0-0.8,0c-0.3,0-0.5,0-0.8,0
						c-0.2-0.6-0.4-1.2-0.6-1.9c-0.2-0.6-0.4-1.3-0.7-1.9c-0.4,0-0.8,0-1.2,0c-0.4,0-0.8,0-1.2,0c-0.3,0-0.7,0-1,0c-0.3,0-0.7,0-1,0
						c-0.3,0.6-0.5,1.3-0.7,1.9c-0.2,0.6-0.4,1.3-0.6,1.9c-0.2,0-0.3,0-0.4,0c-0.1,0-0.3,0-0.4,0c-0.2,0-0.3,0-0.5,0s-0.3,0-0.5,0
						c0.2-0.3,0.4-0.8,0.6-1.4c0.3-0.6,0.5-1.2,0.8-2c0.3-0.7,0.6-1.5,1-2.3c0.3-0.8,0.7-1.7,1-2.5c0.3-0.9,0.7-1.7,1-2.5
						c0.3-0.8,0.6-1.6,0.9-2.3c0.1,0,0.2,0.1,0.4,0.1c0.1,0,0.2,0,0.4,0c0.1,0,0.2,0,0.4,0c0.1,0,0.2,0,0.4-0.1
						c0.4,1.1,0.8,2.2,1.3,3.4c0.5,1.2,0.9,2.4,1.4,3.6c0.5,1.2,0.9,2.3,1.4,3.3C378.4,64.9,378.8,65.8,379.1,66.5z M372.4,57.1
						c-0.3,0.8-0.6,1.5-0.9,2.2c-0.3,0.7-0.6,1.5-0.8,2.3h3.5c-0.3-0.8-0.5-1.5-0.8-2.3C373,58.6,372.7,57.8,372.4,57.1z"/>
					<path class="st0" d="M386.3,55.6c0-0.3,0-0.5,0-0.7c-0.2,0-0.4,0-0.7,0c-0.3,0-0.6,0-0.9,0c-0.3,0-0.6,0-1,0.1
						c-0.3,0-0.6,0.1-0.9,0.1c0-0.1,0-0.3,0.1-0.4c0-0.1,0-0.3,0-0.4c0-0.1,0-0.3,0-0.4c0-0.1,0-0.3-0.1-0.4c0.4,0,0.8,0,1.2,0
						c0.3,0,0.7,0,1.1,0c0.4,0,0.8,0,1.2,0c0.4,0,0.9,0,1.5,0c0.6,0,1.1,0,1.5,0c0.4,0,0.8,0,1.2,0c0.4,0,0.7,0,1,0
						c0.3,0,0.7,0,1.1,0c0,0.1,0,0.3-0.1,0.4c0,0.1,0,0.3,0,0.4c0,0.1,0,0.3,0,0.4c0,0.1,0,0.3,0.1,0.4c-0.3,0-0.5-0.1-0.8-0.1
						c-0.3,0-0.6-0.1-0.9-0.1c-0.3,0-0.6,0-0.9,0c-0.3,0-0.5,0-0.7,0c0,0.1,0,0.1,0,0.3c0,0.1,0,0.2,0,0.4v1v4.7c0,1,0,2,0,2.8
						c0,0.8,0.1,1.6,0.1,2.4c-0.2,0-0.4,0-0.7,0c-0.3,0-0.5,0-0.9,0c-0.3,0-0.6,0-0.9,0c-0.3,0-0.5,0-0.7,0c0.1-0.8,0.1-1.6,0.1-2.4
						c0-0.8,0-1.7,0-2.8v-4.7C386.4,56.3,386.4,55.9,386.3,55.6z"/>
					<path class="st0" d="M408.3,66.5c-0.3,0-0.6,0-0.9,0c-0.3,0-0.5,0-0.8,0c-0.3,0-0.5,0-0.8,0s-0.5,0-0.8,0
						c-0.2-0.6-0.4-1.2-0.6-1.9c-0.2-0.6-0.4-1.3-0.7-1.9c-0.4,0-0.8,0-1.2,0c-0.4,0-0.8,0-1.2,0c-0.3,0-0.7,0-1,0c-0.3,0-0.7,0-1,0
						c-0.3,0.6-0.5,1.3-0.7,1.9c-0.2,0.6-0.4,1.3-0.6,1.9c-0.2,0-0.3,0-0.4,0c-0.1,0-0.3,0-0.4,0c-0.2,0-0.3,0-0.5,0
						c-0.2,0-0.3,0-0.5,0c0.1-0.3,0.4-0.8,0.6-1.4c0.3-0.6,0.5-1.2,0.8-2c0.3-0.7,0.6-1.5,1-2.3c0.3-0.8,0.7-1.7,1-2.5
						c0.3-0.9,0.7-1.7,1-2.5c0.3-0.8,0.6-1.6,0.9-2.3c0.1,0,0.2,0.1,0.4,0.1c0.1,0,0.2,0,0.4,0s0.2,0,0.4,0c0.1,0,0.2,0,0.4-0.1
						c0.4,1.1,0.8,2.2,1.3,3.4c0.5,1.2,0.9,2.4,1.4,3.6c0.5,1.2,0.9,2.3,1.4,3.3C407.6,64.9,408,65.8,408.3,66.5z M401.7,57.1
						c-0.3,0.8-0.6,1.5-0.9,2.2c-0.3,0.7-0.6,1.5-0.8,2.3h3.5c-0.3-0.8-0.6-1.5-0.8-2.3C402.2,58.6,402,57.8,401.7,57.1z"/>
					<path class="st0" d="M414.5,56c0-0.8-0.1-1.6-0.1-2.4c0.6,0,1.1,0,1.7,0.1c0.6,0,1.1,0,1.7,0c0.9,0,1.8,0,2.5,0
						c0.7,0,1.2,0,1.5-0.1c-0.1,0.2-0.1,0.5-0.1,0.8c0,0.2,0,0.4,0,0.5c0,0.1,0,0.2,0.1,0.4c-0.4,0-0.8,0-1.2-0.1
						c-0.4,0-0.9,0-1.3-0.1c-0.4,0-0.8,0-1.1-0.1c-0.3,0-0.6,0-0.7,0c-0.1,0.7-0.1,1.4-0.1,2.1c0,0.7,0,1.4,0,2c0.8,0,1.6,0,2.2,0
						c0.7,0,1.4,0,2.1-0.1c0,0.2-0.1,0.4-0.1,0.5c0,0.1,0,0.2,0,0.4c0,0.1,0,0.2,0,0.3c0,0.1,0,0.3,0.1,0.5
						c-1.4-0.1-2.9-0.2-4.3-0.2v1c0,1,0,2,0,2.8c0,0.8,0.1,1.6,0.1,2.4c-0.2,0-0.4,0-0.7,0c-0.3,0-0.5,0-0.9,0c-0.3,0-0.6,0-0.9,0
						c-0.3,0-0.5,0-0.7,0c0.1-0.8,0.1-1.6,0.1-2.4c0-0.8,0-1.7,0-2.8v-2.6C414.6,57.7,414.6,56.8,414.5,56z"/>
					<path class="st0" d="M428.1,57.4c0.3-0.8,0.8-1.5,1.5-2.2c0.6-0.6,1.4-1.1,2.3-1.5c0.9-0.4,1.9-0.5,3-0.5c1,0,1.9,0.1,2.8,0.4
						c0.9,0.3,1.6,0.7,2.3,1.2c0.6,0.6,1.1,1.3,1.5,2.1c0.4,0.9,0.6,1.8,0.6,3c0,0.9-0.2,1.8-0.5,2.6c-0.4,0.8-0.9,1.5-1.5,2.1
						c-0.6,0.6-1.4,1.1-2.3,1.4c-0.9,0.3-1.8,0.5-2.9,0.5c-1,0-1.9-0.1-2.8-0.4c-0.9-0.2-1.6-0.6-2.3-1.2c-0.6-0.5-1.2-1.2-1.5-2.1
						c-0.4-0.9-0.6-1.9-0.6-3C427.6,59.1,427.8,58.2,428.1,57.4z M438.6,57.5c-0.2-0.6-0.5-1.2-0.8-1.6c-0.4-0.5-0.8-0.8-1.3-1
						c-0.5-0.2-1.1-0.4-1.7-0.4c-0.6,0-1.2,0.2-1.7,0.5c-0.5,0.3-0.9,0.7-1.3,1.3c-0.4,0.5-0.6,1.1-0.8,1.9
						c-0.2,0.7-0.3,1.5-0.3,2.3c0,1,0.1,1.9,0.3,2.5c0.2,0.7,0.5,1.2,0.9,1.7c0.4,0.4,0.8,0.7,1.3,0.9c0.5,0.2,1,0.3,1.5,0.3
						c0.6,0,1.1-0.1,1.6-0.4c0.5-0.2,1-0.6,1.3-1.1c0.4-0.5,0.7-1.1,0.9-1.9c0.2-0.8,0.3-1.6,0.3-2.7
						C438.9,58.8,438.8,58.1,438.6,57.5z"/>
					<path class="st0" d="M451.6,60.5v0.8c0,1,0,2,0,2.8c0,0.8,0.1,1.6,0.1,2.4c-0.2,0-0.4,0-0.7,0c-0.3,0-0.5,0-0.9,0
						c-0.3,0-0.6,0-0.9,0c-0.3,0-0.5,0-0.7,0c0.1-0.8,0.1-1.6,0.1-2.4c0-0.8,0-1.7,0-2.8v-2.6c0-1,0-2,0-2.8c0-0.8-0.1-1.6-0.1-2.4
						c0.2,0,0.4,0.1,0.7,0.1c0.3,0,0.5,0,0.8,0c0.3,0,0.7,0,1.2-0.1c0.4,0,1-0.1,1.6-0.1c0.5,0,0.9,0,1.2,0c0.3,0,0.6,0.1,0.9,0.1
						c0.2,0.1,0.5,0.1,0.6,0.2c0.2,0.1,0.4,0.2,0.5,0.3c0.4,0.3,0.7,0.6,0.9,1c0.2,0.4,0.3,0.9,0.3,1.5c0,0.9-0.3,1.7-0.8,2.2
						c-0.5,0.6-1.2,1-2.2,1.2c0.6,1.1,1.3,2.1,1.9,3.2c0.7,1.1,1.4,2.1,2.1,3.2c-0.3,0-0.6,0-0.8,0s-0.6,0-0.8,0c-0.3,0-0.6,0-0.9,0
						c-0.3,0-0.6,0-0.9,0l-3.4-5.9H451.6z M454.4,55.8c-0.1-0.3-0.3-0.6-0.5-0.7c-0.2-0.2-0.5-0.3-0.9-0.3c-0.4,0-0.8-0.1-1.3-0.1
						c0,1.7,0,3.4,0,5.1c0.1,0,0.1,0,0.2,0c0.1,0,0.1,0,0.2,0c0.8,0,1.5-0.2,1.9-0.7c0.4-0.4,0.7-1.1,0.7-2
						C454.6,56.6,454.6,56.1,454.4,55.8z"/>
					<path class="st0" d="M466.7,55.6c0-0.3,0-0.5,0-0.7c-0.2,0-0.4,0-0.7,0c-0.3,0-0.6,0-0.9,0c-0.3,0-0.6,0-1,0.1
						c-0.3,0-0.6,0.1-0.9,0.1c0-0.1,0-0.3,0.1-0.4c0-0.1,0-0.3,0-0.4c0-0.1,0-0.3,0-0.4c0-0.1,0-0.3-0.1-0.4c0.4,0,0.8,0,1.2,0
						c0.3,0,0.7,0,1.1,0c0.4,0,0.7,0,1.2,0c0.4,0,0.9,0,1.5,0c0.6,0,1.1,0,1.5,0c0.4,0,0.8,0,1.2,0c0.4,0,0.7,0,1,0
						c0.3,0,0.7,0,1.1,0c0,0.1,0,0.3-0.1,0.4c0,0.1,0,0.3,0,0.4c0,0.1,0,0.3,0,0.4c0,0.1,0,0.3,0.1,0.4c-0.3,0-0.5-0.1-0.8-0.1
						c-0.3,0-0.6-0.1-0.9-0.1c-0.3,0-0.6,0-0.9,0c-0.3,0-0.5,0-0.7,0c0,0.1,0,0.1,0,0.3c0,0.1,0,0.2,0,0.4v1v4.7c0,1,0,2,0,2.8
						c0,0.8,0.1,1.6,0.1,2.4c-0.2,0-0.4,0-0.7,0c-0.3,0-0.5,0-0.9,0c-0.3,0-0.6,0-0.9,0c-0.3,0-0.5,0-0.7,0c0.1-0.8,0.1-1.6,0.1-2.4
						c0-0.8,0-1.7,0-2.8v-4.7C466.7,56.3,466.7,55.9,466.7,55.6z"/>
				</g>
				<g>
					<g>
						<g>
							<g>
								<path d="M135.8,56.6c-1,0-2.1,0-3.1,0c-1,0-2.1,0-3.1,0c-1,0-2.1,0.1-3.1,0.1v1.7c0,1.6,0,3.1,0.1,4.3
									c0.1,1.3,0.1,2.5,0.2,3.7c-0.5,0-1-0.1-1.5-0.1c-0.5,0-1.2,0-1.9,0c-0.7,0-1.3,0-1.9,0c-0.5,0-1.1,0-1.5,0.1
									c0.1-1.2,0.2-2.5,0.3-3.7c0.1-1.3,0.1-2.7,0.1-4.3v-4c0-1.6,0-3.1-0.1-4.3c-0.1-1.3-0.1-2.5-0.3-3.8c0.5,0,1,0.1,1.5,0.1
									c0.6,0,1.2,0.1,1.9,0.1c0.7,0,1.3,0,1.9-0.1c0.6,0,1.1-0.1,1.5-0.1c-0.1,1.3-0.2,2.5-0.2,3.8c0,1.3-0.1,2.7-0.1,4.3
									c0.7,0,1.6,0,2.6,0c1,0,2.2,0,3.7,0c1.5,0,2.7,0,3.6,0c0.9,0,1.8,0,2.6,0c0-1.6,0-3.1-0.1-4.3c-0.1-1.3-0.1-2.5-0.3-3.8
									c0.5,0,1,0.1,1.5,0.1c0.5,0,1.2,0.1,1.9,0.1c0.7,0,1.3,0,1.9-0.1c0.5,0,1.1-0.1,1.5-0.1c-0.1,1.3-0.2,2.6-0.2,3.8
									c0,1.3-0.1,2.7-0.1,4.4v4c0,1.6,0,3.1,0.1,4.3c0,1.3,0.1,2.5,0.2,3.7c-0.5,0-1-0.1-1.5-0.1c-0.6,0-1.2,0-1.9,0
									c-0.7,0-1.3,0-1.9,0c-0.6,0-1.1,0-1.5,0.1c0.1-1.2,0.2-2.5,0.3-3.7c0.1-1.3,0.1-2.7,0.1-4.3v-1.7
									C137.9,56.6,136.9,56.6,135.8,56.6z"/>
								<path d="M155.7,52.2c0.8-1.3,1.8-2.4,3.2-3.3c1.4-1,3-1.7,5-2.3c2-0.5,4.1-0.8,6.5-0.8c2.2,0,4.2,0.2,6.1,0.6
									c1.9,0.4,3.5,1.1,4.9,1.9c1.4,0.9,2.5,2,3.3,3.3c0.8,1.3,1.2,2.9,1.2,4.6c0,1.5-0.4,2.8-1.2,4.1c-0.8,1.3-1.9,2.4-3.3,3.3
									c-1.4,0.9-3,1.7-5,2.2c-1.9,0.5-4,0.8-6.3,0.8c-2.2,0-4.2-0.2-6.1-0.6c-1.9-0.4-3.6-1-5-1.9c-1.4-0.8-2.5-1.9-3.4-3.3
									c-0.8-1.3-1.2-2.9-1.2-4.7C154.6,54.9,154.9,53.5,155.7,52.2z M178.6,52.3c-0.4-1-1.1-1.9-1.8-2.6c-0.8-0.7-1.7-1.2-2.8-1.6
									c-1.1-0.4-2.3-0.6-3.6-0.6c-1.4,0-2.7,0.2-3.8,0.7c-1.1,0.5-2.1,1.1-2.8,1.9c-0.8,0.8-1.4,1.8-1.8,2.9
									c-0.4,1.1-0.6,2.3-0.6,3.5c0,1.6,0.2,2.9,0.7,4c0.5,1.1,1.1,1.9,1.9,2.6c0.8,0.7,1.7,1.1,2.8,1.4c1,0.3,2.1,0.4,3.3,0.4
									c1.2,0,2.4-0.2,3.5-0.6c1.1-0.4,2.1-0.9,2.9-1.7c0.8-0.8,1.5-1.7,2-2.9c0.5-1.2,0.8-2.6,0.8-4.2
									C179.2,54.4,179,53.3,178.6,52.3z"/>
								<path d="M205.6,47.6c-1.5,0-2.8,0.3-3.8,0.8c-1,0.5-1.5,1.1-1.5,1.8c0,0.7,0.4,1.3,1.1,1.8c0.8,0.5,1.7,0.9,2.8,1.2
									c1.1,0.4,2.4,0.7,3.7,1.1c1.3,0.3,2.5,0.8,3.7,1.3c1.1,0.5,2.1,1.1,2.8,1.8c0.8,0.7,1.1,1.6,1.1,2.7c0,1-0.3,1.9-1,2.7
									c-0.6,0.8-1.5,1.5-2.7,2.1c-1.2,0.6-2.6,1-4.2,1.3c-1.6,0.3-3.4,0.5-5.4,0.5c-1.8,0-3.4-0.1-4.9-0.3
									c-1.4-0.2-2.5-0.5-3.2-0.8c0.3-0.7,0.6-1.3,0.9-1.9c0.2-0.6,0.4-1.2,0.6-1.9h1c0.1,0.4,0.4,0.8,0.8,1.2
									c0.4,0.4,0.8,0.7,1.4,1c0.6,0.3,1.3,0.5,2.1,0.7c0.8,0.2,1.7,0.3,2.7,0.3c2,0,3.5-0.3,4.5-0.9c1-0.6,1.4-1.3,1.4-2.1
									c0-0.7-0.4-1.4-1.1-1.8c-0.7-0.5-1.7-0.9-2.8-1.2c-1.1-0.4-2.3-0.7-3.6-1.1c-1.3-0.3-2.5-0.8-3.6-1.2
									c-1.1-0.5-2-1.1-2.8-1.8c-0.7-0.7-1.1-1.6-1.1-2.7c0-1,0.3-1.9,0.9-2.7c0.6-0.8,1.4-1.4,2.5-2c1-0.5,2.2-0.9,3.6-1.2
									c1.4-0.3,2.8-0.4,4.3-0.4c1.8,0,3.4,0.1,4.8,0.4c1.4,0.3,2.5,0.6,3.5,1.1c-0.3,0.5-0.6,0.9-0.8,1.3c-0.2,0.4-0.5,1-0.8,1.6
									h-0.8C210.7,48.5,208.6,47.6,205.6,47.6z"/>
								<path d="M230.3,49.4c0-0.5,0-0.8-0.1-1c-0.4,0-0.9,0-1.5,0c-0.6,0-1.2,0-1.9,0.1c-0.7,0-1.4,0.1-2.1,0.1
									c-0.7,0-1.4,0.1-2,0.1c0.1-0.2,0.1-0.4,0.1-0.6c0-0.2,0.1-0.4,0.1-0.6c0-0.2,0-0.4-0.1-0.6c0-0.2-0.1-0.4-0.1-0.6
									c0.9,0,1.8,0,2.5,0.1c0.8,0,1.5,0,2.3,0.1c0.8,0,1.6,0,2.6,0c0.9,0,2,0,3.3,0c1.3,0,2.4,0,3.3,0c0.9,0,1.8,0,2.5,0
									c0.8,0,1.5,0,2.2-0.1c0.7,0,1.5,0,2.4-0.1c-0.1,0.2-0.1,0.4-0.1,0.6c0,0.2-0.1,0.4-0.1,0.6c0,0.2,0,0.4,0.1,0.6
									c0,0.2,0.1,0.4,0.1,0.6c-0.5-0.1-1.2-0.1-1.9-0.1c-0.7,0-1.4-0.1-2-0.1c-0.7,0-1.3,0-1.9-0.1c-0.6,0-1.1,0-1.5,0
									c0,0.1-0.1,0.2-0.1,0.4c0,0.2,0,0.4,0,0.6V51v7.3c0,1.6,0,3.1,0.1,4.3c0,1.3,0.1,2.5,0.2,3.7c-0.5,0-1-0.1-1.5-0.1
									c-0.6,0-1.2,0-1.9,0c-0.7,0-1.3,0-1.9,0c-0.6,0-1.1,0-1.5,0.1c0.1-1.2,0.2-2.5,0.3-3.7c0.1-1.3,0.1-2.7,0.1-4.3V51
									C230.3,50.4,230.3,49.9,230.3,49.4z"/>
								<path d="M252.9,50c-0.1-1.3-0.1-2.5-0.3-3.8c0.5,0,1,0.1,1.5,0.1c0.6,0,1.2,0.1,1.9,0.1c0.7,0,1.3,0,1.9-0.1
									c0.6,0,1.1-0.1,1.5-0.1c-0.1,1.3-0.2,2.5-0.2,3.8c0,1.3-0.1,2.7-0.1,4.3v4c0,1.6,0,3.1,0.1,4.3c0,1.3,0.1,2.5,0.2,3.7
									c-0.5,0-1-0.1-1.5-0.1c-0.5,0-1.2,0-1.9,0c-0.7,0-1.3,0-1.9,0c-0.5,0-1.1,0-1.5,0.1c0.1-1.2,0.2-2.5,0.3-3.7
									c0.1-1.3,0.1-2.7,0.1-4.3v-4C253,52.7,252.9,51.2,252.9,50z"/>
								<path d="M269.6,48.6c0-0.9-0.1-1.7-0.1-2.4c0.8,0.1,1.4,0.2,1.8,0.2c0.5,0,1.1-0.1,1.8-0.2c3,2.4,5.9,4.7,8.9,7
									c2.9,2.3,5.9,4.6,9,7v-2.6v-2.9c0-1,0-1.9,0-2.8c0-0.9,0-1.8,0-2.6c0-0.8,0-1.5-0.1-2c0-0.6-0.1-1-0.1-1.1
									c0.8,0.1,1.4,0.2,1.9,0.2c0.5,0,1.1-0.1,1.9-0.2c-0.1,1.8-0.2,3.4-0.3,4.8c-0.1,1.4-0.1,2.8-0.2,4.1
									c-0.1,1.3-0.1,2.5-0.1,3.8c0,1.2,0,2.6,0,4v3.5c-0.5,0-1.1-0.1-1.7-0.1c-0.6,0-1.1,0-1.6,0.1c-5.7-4.7-11.7-9.5-18-14.2
									c0,0.6,0,1.1,0,1.7c0,0.6,0,1.1,0,1.7V59c0,1.2,0,2.2,0,3c0,0.8,0,1.5,0.1,2.1c0,0.6,0.1,1,0.1,1.4c0,0.4,0.1,0.7,0.1,0.9
									c-0.3,0-0.7-0.1-1-0.1c-0.3,0-0.6,0-0.9,0c-0.6,0-1.3,0-1.9,0.1c0.1-0.2,0.1-0.7,0.2-1.7c0.1-1,0.2-2.1,0.3-3.5
									c0.1-1.4,0.2-2.9,0.2-4.5c0.1-1.6,0.1-3.2,0.1-4.7C269.7,50.7,269.6,49.5,269.6,48.6z"/>
								<path d="M325.2,48.4c-1.3-0.5-2.9-0.8-4.8-0.8c-1.3,0-2.5,0.2-3.8,0.6c-1.2,0.4-2.4,1-3.3,1.7c-1,0.8-1.8,1.7-2.4,2.9
									c-0.6,1.1-0.9,2.5-0.9,4c0,1.2,0.2,2.3,0.7,3.3c0.5,1,1.1,1.9,2,2.6c0.8,0.7,1.9,1.3,3.1,1.7c1.2,0.4,2.6,0.6,4.2,0.6
									c0.4,0,0.8,0,1.2,0c0.5,0,0.9-0.1,1.3-0.1c0.4,0,0.8-0.1,1.2-0.2c0.4-0.1,0.6-0.1,0.8-0.2c0.1-0.2,0.1-0.5,0.1-0.9
									c0-0.4,0-0.7,0-1.2c0-1.6,0-2.8-0.1-3.5c-0.1-0.8-0.1-1.3-0.2-1.5c0.3,0,0.6,0.1,1.1,0.1c0.5,0,1.1,0,2,0c1,0,1.7,0,2.2,0
									c0.5,0,0.9-0.1,1.1-0.1c-0.1,0.2-0.1,0.4-0.1,0.8c0,0.4-0.1,0.8-0.1,1.2c0,0.5,0,0.9-0.1,1.5c0,0.5,0,1,0,1.5v1
									c0,0.5,0,0.9,0,1.4c0,0.4,0,0.7,0.1,0.9c-1.8,0.4-3.6,0.7-5.5,0.9c-1.8,0.2-3.7,0.3-5.5,0.3c-2.4,0-4.5-0.2-6.5-0.7
									c-2-0.4-3.7-1.1-5.1-1.9c-1.4-0.9-2.6-1.9-3.4-3.1c-0.8-1.2-1.2-2.6-1.2-4.1c0-1.9,0.4-3.5,1.3-4.9c0.9-1.4,2.1-2.6,3.6-3.5
									c1.5-0.9,3.3-1.6,5.4-2.1c2.1-0.5,4.3-0.7,6.7-0.7c2.1,0,3.9,0.2,5.4,0.5c1.5,0.3,3,0.7,4.5,1.3c-0.2,0.5-0.4,1-0.6,1.5
									c-0.2,0.5-0.4,1-0.5,1.5h-0.6C327.6,49.7,326.5,49,325.2,48.4z"/>
							</g>
						</g>
					</g>
					<path class="st1" d="M153.4,54.6c-2.2,3-28.6,20.3-49.4,15.6c-7-1.6-13.1-7.5-12.3-14.2c0.4-3.5,3.5-7.6,7.9-9.3
						c9.1-3.4,15.6,1.1,14.2,5.5c-0.9,2.8-5,6.1-11.6,5.2c-6.4-0.9-10.6-6-11.2-7.7v0c2.6,3.8,6.4,6.7,11.3,7.1
						c5.7,0.6,9.5-2.7,10.1-5c1.2-5.2-6.9-7-12.4-4.8c-4.4,1.8-6.9,4.9-7.3,8.4c-0.8,6.3,4.6,11.4,11,13.3
						C124.4,74.6,150.7,57.3,153.4,54.6L153.4,54.6z"/>
				</g>
			</g>
		</g>
		<g>
			<path class="st2" d="M28.9,101.7L28.9,101.7l1.4,0c-0.8-2.3-2.9-4.4-3.7-5.2h-2.3v5.2H28.9z"/>
			<polygon class="st2" points="15.5,101.7 15.5,101.6 7.1,101.6 7.1,106.9 2.9,106.9 2.9,111.4 11.2,111.4 11.2,106.9 15.5,106.9 
				15.5,106.8 19.6,106.8 19.6,101.7 			"/>
			<path class="st2" d="M28.3,111.3c0.5-1.4,1.1-3,1.5-4.4h-0.9v-0.1h-9.2v4.6h16.7v-0.1L28.3,111.3z"/>
			<path class="st2" d="M3,96.5c-0.1,0.1-0.1,0.1-0.2,0.2v4.9h4.2v-5.1H3z"/>
			<path class="st2" d="M32.5,1.9c-0.1-0.7-0.9-1.4-1.2-1.7c-1.7-0.1-3.4-0.3-5-0.2c-2.5-0.1-5.3,0.3-7.6,0.3c-0.6,0,0,4.3-0.7,6.4
				c-0.4,1.1-2,0.6-2.4,0.6C15,7.3,13.1,8,12.5,7c-1.2-1.9-1.1-6.2-2.4-6.1C4.9,1.6,0,2.3,0,2.3s2.6,5.2,2.6,10.4
				c0,5.2,1.6,11.9,1.6,11.9l2.6,2.6c0,0,3.1,3.1,3.1,11.9c0,8.8,0,15.5,0,15.5L6,55.1v2.3l3.4,3.4c0,0-0.5,16.6-3.1,19.1
				c-2.6,2.6-2.9,4.4-2.9,4.4S4,85,4.6,86.1h2.5v5.1h4.1v-5.1h3.7l0,0v5.1h-3.7v5.3h4.2v-5.2h4.1v5.1h4.5v-5.1h4.7v-5.1h-4.7v-5.3
				h-1.8v-5.1h1.8v5.1h3.3V81h-0.2v5.1h3.6c0-0.1,0-0.2,0-0.4c0-3-3.2-3.2-0.3-6.1c2.9-2.9,1.5-14.4,1.5-18.6c0-2.3-1.5-5.7-1.5-5.7
				l-7.1-1.5c0,0,3.7-0.3,7.1-1.5c3.4-1.2,1.9-24.4,0-26.3c-1.9-1.9-6.3-2.5-6.3-2.5s3.7-1.2,5.2-1.2c1.5,0,2.7-5.2,2.7-9.3"/>
		</g>
		<path class="st3" d="M46.9,91.2c0-4.7,2.3-7,2.3-7s-0.3-1.8-2.8-4.4c-2.6-2.6-3.1-19.1-3.1-19.1l3.4-3.4V55l-3.9-0.5
			c0,0,0-6.7,0-15.5c0-8.8,3.1-11.9,3.1-11.9l2.6-2.6c0,0,1.6-6.7,1.6-11.9c0-5.2,2.6-10.3,2.6-10.3s-4.9-0.8-10.1-1.4
			c-1.3-0.2-1.2,4.1-2.4,6.1c-0.6,1-2.5,0.3-3.1,0.3c-0.4,0-2,0.4-2.4-0.6c-0.7-2.1-0.1-6.4-0.6-6.4c-1.1,0-2.2-0.1-3.3-0.1
			c0,0,1.2,0.9,1.4,1.9c0.3,1.5-0.5,6.8-0.5,11.3c0,4.2-1.2,9.3-2.7,9.3c-1.5,0-5.2,1.2-5.2,1.2s4.5,0.6,6.3,2.5
			c1.9,1.9,3.4,25.1,0,26.3c-3.4,1.2-7.1,1.5-7.1,1.5l7.1,1.5c0,0,1.5,3.5,1.5,5.7c0,4.2,1.4,15.6-1.5,18.6
			c-2.9,2.9,0.3,3.2,0.3,6.1c0,2.9,2.2,5.6-0.3,8.1c-2.5,2.5-4.4,2.2-4.4,2.2s4.4,3.7,4.4,7.1c0,1.6-1.1,5.1-2.2,8.1l27.4,0
			c0-6.7,0-6.5,0-8.6C55.2,100.5,46.9,95.9,46.9,91.2z"/>
	</g>
</g>
</svg>
