<?xml version="1.0" encoding="utf-8"?>
<!-- Generator: Adobe Illustrator 18.0.0, SVG Export Plug-In . SVG Version: 6.00 Build 0)  -->
<!DOCTYPE svg PUBLIC "-//W3C//DTD SVG 1.1//EN" "http://www.w3.org/Graphics/SVG/1.1/DTD/svg11.dtd">
<svg version="1.1" id="Layer_1" xmlns="http://www.w3.org/2000/svg" xmlns:xlink="http://www.w3.org/1999/xlink" x="0px" y="0px"
	 viewBox="0 0 100 100" enable-background="new 0 0 100 100" xml:space="preserve">
<g>
	<g>
		<g>
			<path fill="#08262C" d="M65.3,9.5H61V0.3h4.1c1.8,0,2.7,1,2.7,2.5c0,0.8-0.3,1.4-0.9,1.8c0.7,0.4,1.2,1.1,1.2,2.2
				C68.1,8.4,67.1,9.5,65.3,9.5z M62.7,1.9v2h2.4c0.6,0,1-0.4,1-1s-0.4-1-1-1H62.7z M65.1,5.5h-2.3v2.4h2.4c0.7,0,1.3-0.3,1.3-1.2
				C66.4,6,65.9,5.5,65.1,5.5z"/>
			<path fill="#08262C" d="M70.7,9.5H69V0.3h1.6V9.5z"/>
			<path fill="#08262C" d="M77.5,9.5h-1.6V8.9c-0.4,0.5-1,0.7-1.6,0.7c-1.5,0-2.5-1.1-2.5-2.9V3h1.6v3.8c0,0.4,0.1,1.3,1.2,1.3
				c0.7,0,1.3-0.5,1.3-1.3V3h1.6L77.5,9.5L77.5,9.5z"/>
			<path fill="#08262C" d="M84.8,7.4c-0.4,1.3-1.5,2.2-3.1,2.2c-1.8,0-3.3-1.5-3.3-3.4s1.5-3.4,3.3-3.4c1.6,0,2.9,1,3.2,2.7
				l-4.6,1.9c0.3,0.4,0.8,0.7,1.4,0.7c0.5,0,1.1-0.2,1.4-0.7H84.8z M82.9,4.9c-0.3-0.4-0.7-0.6-1.3-0.6c-1,0-1.7,0.7-1.8,1.9
				L82.9,4.9z"/>
			<path fill="#08262C" d="M87.5,9.5h-1.6V0.3h1.6V9.5z"/>
			<path fill="#08262C" d="M95.3,9.5h-1.8L91.1,3h1.7l1.6,4.7L96.1,3h1.7L95.3,9.5z"/>
			<rect x="88.6" y="3" fill="#08262C" width="1.6" height="6.5"/>
		</g>
		<circle fill="#FF5959" cx="89.4" cy="1.1" r="1"/>
		<rect x="98" y="7.2" fill="#0091B3" width="2" height="2"/>
	</g>
	<g>
		<rect x="31.1" y="0" fill="#0091B3" width="9.3" height="9.3"/>
		<circle fill="#FF5959" cx="20.2" cy="4.7" r="4.7"/>
		<circle fill="#FDD032" cx="4.7" cy="4.7" r="4.7"/>
		<circle fill="#1FB288" cx="51.3" cy="4.7" r="4.7"/>
	</g>
</g>
</svg>
