<?xml version="1.0" encoding="utf-8"?>
<!-- Generator: Adobe Illustrator 18.0.0, SVG Export Plug-In . SVG Version: 6.00 Build 0)  -->
<!DOCTYPE svg PUBLIC "-//W3C//DTD SVG 1.1//EN" "http://www.w3.org/Graphics/SVG/1.1/DTD/svg11.dtd">
<svg version="1.1" id="Capa_1" xmlns="http://www.w3.org/2000/svg" xmlns:xlink="http://www.w3.org/1999/xlink" x="0px" y="0px"
	 viewBox="0 0 100 100" enable-background="new 0 0 100 100" xml:space="preserve">
<path fill="#1B2734" stroke="#1B2734" stroke-width="4" stroke-miterlimit="10" d="M94,94.1L67.3,66.4c6.8-6.8,11-16.2,11-26.6
	C78.3,19,61.4,2.1,40.6,2.1S2.9,19,2.9,39.8s16.9,37.6,37.7,37.6c9.1,0,17.5-3.2,24-8.7l26.7,27.8c0.3,0.3,0.8,0.6,1.3,0.6
	c0.4,0,0.9-0.2,1.2-0.6C94.6,96,94.6,94.9,94,94.1z M40.6,73.9c-18.8,0-34.1-15.3-34.1-34.1S21.8,5.6,40.6,5.6s34.1,15.3,34.1,34.1
	S59.4,73.9,40.6,73.9z"/>
<line fill="none" stroke="#1B2734" stroke-width="6" stroke-linecap="round" stroke-miterlimit="10" x1="25.3" y1="31.7" x2="25.3" y2="56.7"/>
<line fill="none" stroke="#1B2734" stroke-width="6" stroke-linecap="round" stroke-miterlimit="10" x1="40.3" y1="21.7" x2="40.3" y2="56.7"/>
<line fill="none" stroke="#1B2734" stroke-width="6" stroke-linecap="round" stroke-miterlimit="10" x1="55.3" y1="41.7" x2="55.3" y2="56.7"/>
</svg>
