<?xml version="1.0" encoding="utf-8"?>
<!-- Generator: Adobe Illustrator 18.0.0, SVG Export Plug-In . SVG Version: 6.00 Build 0)  -->
<!DOCTYPE svg PUBLIC "-//W3C//DTD SVG 1.1//EN" "http://www.w3.org/Graphics/SVG/1.1/DTD/svg11.dtd">
<svg version="1.1" id="Capa_1" xmlns="http://www.w3.org/2000/svg" xmlns:xlink="http://www.w3.org/1999/xlink" x="0px" y="0px"
	 viewBox="0 0 100 100" enable-background="new 0 0 100 100" xml:space="preserve">
<g>
	<path fill="#1B2734" d="M84.3,2.1C83.7,0.8,82.3,0,80.9,0H32.3c-1.6,0-2.9,0.9-3.5,2.4l-21.1,55c-0.4,1.1-0.3,2.4,0.4,3.4
		c0.7,1,1.9,1.6,3.1,1.6h23.6l-1.1,33.6c-0.1,1.6,0.9,3.1,2.4,3.6c0.4,0.2,0.9,0.3,1.3,0.3c1.1,0,2.2-0.5,2.9-1.4l51.2-61.9
		c0.9-1.1,1.1-2.7,0.5-4c-0.6-1.3-1.9-2.1-3.4-2.1H64.6L83.8,6.1C84.7,4.9,84.9,3.4,84.3,2.1z M53.9,32.1c-0.9,1.1-1.1,2.7-0.4,3.9
		c0.6,1.3,1.9,2.1,3.4,2.1h24L41.7,85.4l0.8-26.5c0.1-1-0.4-2-1.1-2.8c-0.7-0.8-1.7-1.1-2.7-1.1H16.7L34.9,7.5h38.3L53.9,32.1z"/>
</g>
</svg>
