<?xml version="1.0" encoding="utf-8"?>
<!-- Generator: Adobe Illustrator 18.0.0, SVG Export Plug-In . SVG Version: 6.00 Build 0)  -->
<!DOCTYPE svg PUBLIC "-//W3C//DTD SVG 1.1//EN" "http://www.w3.org/Graphics/SVG/1.1/DTD/svg11.dtd">
<svg version="1.1" id="Capa_1" xmlns="http://www.w3.org/2000/svg" xmlns:xlink="http://www.w3.org/1999/xlink" x="0px" y="0px"
	 viewBox="450 450 100 100" enable-background="new 450 450 100 100" xml:space="preserve">
<g>
	<path d="M545.5,473.8c0-0.4-0.1-0.8-0.3-1.1c-0.3-0.7-1-1.2-1.7-1.3L501,450.8c-0.7-0.3-1.5-0.3-2.2,0l-43,20.8
		c-0.8,0.4-1.4,1.2-1.4,2.2v0c0,0,0,0,0,0.1v52.3c0,1,0.5,1.8,1.4,2.3l43,20.8c0,0,0,0,0,0c0.1,0,0.1,0,0.2,0.1c0,0,0,0,0.1,0
		c0.1,0,0.1,0,0.2,0.1c0,0,0,0,0.1,0c0.1,0,0.1,0,0.2,0c0,0,0,0,0.1,0c0.1,0,0.2,0,0.3,0s0.2,0,0.3,0c0,0,0,0,0.1,0
		c0.1,0,0.1,0,0.2,0c0,0,0,0,0.1,0c0.1,0,0.1,0,0.2-0.1c0,0,0,0,0.1,0c0.1,0,0.1,0,0.2-0.1c0,0,0,0,0,0l43.1-20.9
		c0.9-0.4,1.4-1.3,1.4-2.3L545.5,473.8C545.5,473.9,545.5,473.9,545.5,473.8z M499.9,455.8l37.3,18.1l-13.7,6.7l-37.3-18.1
		L499.9,455.8z M499.9,491.9l-37.3-18.1l17.8-8.6l37.3,18.1L499.9,491.9z M459.4,477.9l38,18.4V543l-38-18.4V477.9z M502.4,543
		v-46.7l17.8-8.7v12.2c0,1.4,1.1,2.5,2.5,2.5c1.4,0,2.5-1.1,2.5-2.5v-14.6l15.3-7.4v46.7L502.4,543z"/>
</g>
</svg>
