<?xml version="1.0" encoding="utf-8"?>
<!-- Generator: Adobe Illustrator 18.0.0, SVG Export Plug-In . SVG Version: 6.00 Build 0)  -->
<!DOCTYPE svg PUBLIC "-//W3C//DTD SVG 1.1//EN" "http://www.w3.org/Graphics/SVG/1.1/DTD/svg11.dtd">
<svg version="1.1" id="Capa_1" xmlns="http://www.w3.org/2000/svg" xmlns:xlink="http://www.w3.org/1999/xlink" x="0px" y="0px"
	 viewBox="165.3 165.3 100 100" enable-background="new 165.3 165.3 100 100" xml:space="preserve">
<g>
	<g>
		<path stroke="#000000" stroke-width="3" stroke-miterlimit="10" d="M169.9,213.7c-0.7,0-1.3,0.6-1.3,1.3c0,0.7,0.6,1.3,1.3,1.3
			c1.5,0,2.7,0.5,3.7,1.5c2.8,2.9,2.4,9.1,2.4,9.3v16.7c0,4.2,1.2,7.4,3.5,9.6c2.8,2.6,6.2,2.8,7.2,2.8c0.1,0,0.2,0,0.2,0
			c0.7,0,1.3-0.7,1.2-1.4c0-0.7-0.7-1.3-1.4-1.2c0,0-3.1,0.1-5.5-2.1c-1.8-1.7-2.6-4.3-2.6-7.7l0-16.6c0-0.3,0.5-7.4-3.1-11.2
			c-0.4-0.4-0.8-0.7-1.2-1c0.4-0.3,0.8-0.6,1.2-1c3.5-3.8,3.1-10.9,3.1-11.1v-16.7c0-3.4,0.9-6,2.6-7.7c2.3-2.2,5.4-2.1,5.5-2.1
			c0.7,0,1.3-0.5,1.4-1.2c0-0.7-0.5-1.3-1.2-1.4c-0.2,0-4.3-0.2-7.4,2.8c-2.3,2.2-3.5,5.4-3.5,9.6l0,16.8c0.1,1.7-0.1,6.7-2.4,9.2
			C172.6,213.2,171.4,213.7,169.9,213.7z"/>
		<g>
			<path stroke="#000000" stroke-width="3" stroke-miterlimit="10" d="M260.8,214.4c-1.5,0-2.7-0.5-3.7-1.5
				c-2.8-2.9-2.4-9.1-2.4-9.3v-16.7c0-4.2-1.2-7.4-3.5-9.6c-3.1-3-7.2-2.8-7.4-2.8c-0.7,0-1.3,0.7-1.2,1.4c0,0.7,0.7,1.3,1.4,1.2
				c0,0,3.1-0.1,5.5,2.1c1.8,1.7,2.6,4.3,2.6,7.7l0,16.6c0,0.3-0.5,7.4,3.1,11.2c0.4,0.4,0.8,0.7,1.2,1c-0.4,0.3-0.8,0.6-1.2,1
				c-3.5,3.8-3.1,10.9-3.1,11.1v16.7c0,3.4-0.9,6-2.6,7.7c-2.3,2.2-5.4,2.1-5.5,2.1c-0.7,0-1.3,0.5-1.4,1.2c0,0.7,0.5,1.3,1.2,1.4
				c0,0,0.1,0,0.2,0c0.9,0,4.4-0.2,7.2-2.8c2.3-2.2,3.5-5.4,3.5-9.6l0-16.8c-0.1-1.7,0.1-6.7,2.4-9.2c0.9-1,2.1-1.5,3.7-1.5
				c0.7,0,1.3-0.6,1.3-1.3C262.1,215,261.5,214.4,260.8,214.4z"/>
		</g>
	</g>
</g>
</svg>
