<?xml version="1.0" encoding="utf-8"?>
<!-- Generator: Adobe Illustrator 18.0.0, SVG Export Plug-In . SVG Version: 6.00 Build 0)  -->
<!DOCTYPE svg PUBLIC "-//W3C//DTD SVG 1.1//EN" "http://www.w3.org/Graphics/SVG/1.1/DTD/svg11.dtd">
<svg version="1.1" id="Capa_1" xmlns="http://www.w3.org/2000/svg" xmlns:xlink="http://www.w3.org/1999/xlink" x="0px" y="0px"
	 viewBox="0 0 100 100" enable-background="new 0 0 100 100" xml:space="preserve">
<g>
	<path fill="#1B2734" stroke="#1B2734" stroke-width="2" stroke-miterlimit="10" d="M93.9,7.7H82.5V2.9c0-0.9-0.7-1.6-1.6-1.6H69.5
		c-0.9,0-1.6,0.7-1.6,1.6v4.9H32.1V2.9c0-0.9-0.7-1.6-1.6-1.6H19.1c-0.9,0-1.6,0.7-1.6,1.6v4.9H6.1c-0.9,0-1.6,0.7-1.6,1.6v17.9
		v69.9c0,0.9,0.7,1.6,1.6,1.6h87.8c0.9,0,1.6-0.7,1.6-1.6V27.2V9.4C95.5,8.5,94.8,7.7,93.9,7.7z M71.1,4.5h8.1v4.9v4.9h-8.1V9.4V4.5
		z M20.7,4.5h8.1v4.9v4.9h-8.1V9.4V4.5z M7.7,11h9.8v4.9c0,0.9,0.7,1.6,1.6,1.6h11.4c0.9,0,1.6-0.7,1.6-1.6V11h35.8v4.9
		c0,0.9,0.7,1.6,1.6,1.6h11.4c0.9,0,1.6-0.7,1.6-1.6V11h9.8v14.6H7.7V11z M7.7,95.5V28.9h84.5v66.6H7.7z"/>
	<path fill="#1B2734" stroke="#1B2734" stroke-width="2" stroke-miterlimit="10" d="M19.1,38.6v47.1h61.8V38.6H19.1z M48.4,82.5h-26
		v-19h26V82.5z M48.4,60.2h-26V41.9h26V60.2z M77.6,82.5h-26v-19h26V82.5z M77.6,60.2h-26V41.9h26V60.2z"/>
</g>
</svg>
