<?xml version="1.0" encoding="utf-8"?>
<!-- Generator: Adobe Illustrator 18.0.0, SVG Export Plug-In . SVG Version: 6.00 Build 0)  -->
<!DOCTYPE svg PUBLIC "-//W3C//DTD SVG 1.1//EN" "http://www.w3.org/Graphics/SVG/1.1/DTD/svg11.dtd">
<svg version="1.1" id="Capa_1" xmlns="http://www.w3.org/2000/svg" xmlns:xlink="http://www.w3.org/1999/xlink" x="0px" y="0px"
	 viewBox="0 0 100 100" enable-background="new 0 0 100 100" xml:space="preserve">
<g>
	<path fill="#1B2734" d="M10.3,48.2l23.9-16.3v6.8L17,50.2l17.2,11.5v6.8L10.3,52.4V48.2z"/>
	<path fill="#1B2734" d="M37.5,68.7l16.2-37.3h6.8L44.4,68.7H37.5z"/>
	<path fill="#1B2734" d="M89.7,52.4L65.8,68.7v-6.8L83,50.2L65.8,38.7v-6.8l23.9,16.3C89.7,48.2,89.7,52.4,89.7,52.4z"/>
</g>
<g>
	<path fill="#1B2734" stroke="#1B2734" stroke-width="4" stroke-miterlimit="10" d="M50,2C23.6,2,2,23.6,2,50s21.6,48,48,48
		s48-21.6,48-48S76.4,2,50,2z M50,94.9C25.3,94.9,5.1,74.7,5.1,50S25.3,5.1,50,5.1S94.9,25.3,94.9,50S74.7,94.9,50,94.9z"/>
</g>
</svg>
