<?xml version="1.0" encoding="utf-8"?>
<!-- Generator: Adobe Illustrator 18.0.0, SVG Export Plug-In . SVG Version: 6.00 Build 0)  -->
<!DOCTYPE svg PUBLIC "-//W3C//DTD SVG 1.1//EN" "http://www.w3.org/Graphics/SVG/1.1/DTD/svg11.dtd">
<svg version="1.1" id="Capa_1" xmlns="http://www.w3.org/2000/svg" xmlns:xlink="http://www.w3.org/1999/xlink" x="0px" y="0px"
	 viewBox="0 0 100 100" enable-background="new 0 0 100 100" xml:space="preserve">
<path stroke="#000000" stroke-width="2" stroke-miterlimit="10" d="M73.2,33.7L89,8.4c0.3-0.5,0.3-1.1,0-1.7
	c-0.3-0.5-0.8-0.8-1.4-0.8H14.1V2.6c0-0.9-0.7-1.6-1.6-1.6c-0.9,0-1.6,0.7-1.6,1.6v4.9v47.4v4.9v37.6c0,0.9,0.7,1.6,1.6,1.6
	c0.9,0,1.6-0.7,1.6-1.6V61.4h73.5c0.6,0,1.1-0.3,1.4-0.8c0.3-0.5,0.3-1.2,0-1.7L73.2,33.7z M14.1,58.2v-3.3V9.2h70.6L69.8,32.8
	c-0.3,0.5-0.3,1.2,0,1.7l14.8,23.6H14.1z"/>
</svg>
