<?xml version="1.0" encoding="utf-8"?>
<!-- Generator: Adobe Illustrator 18.0.0, SVG Export Plug-In . SVG Version: 6.00 Build 0)  -->
<!DOCTYPE svg PUBLIC "-//W3C//DTD SVG 1.1//EN" "http://www.w3.org/Graphics/SVG/1.1/DTD/svg11.dtd">
<svg version="1.1" id="Capa_1" xmlns="http://www.w3.org/2000/svg" xmlns:xlink="http://www.w3.org/1999/xlink" x="0px" y="0px"
	 viewBox="0 0 100 100" enable-background="new 0 0 100 100" xml:space="preserve">
<g>
	<g>
		
			<path fill="#030303" stroke="#000000" stroke-width="2" stroke-linecap="round" stroke-linejoin="round" stroke-miterlimit="10" d="
			M98.9,88.4H1.1V11.6h97.8V88.4z M4,85.6h92v-71H4V85.6z"/>
	</g>
	<g>
		
			<path fill="#030303" stroke="#000000" stroke-width="2" stroke-linecap="round" stroke-linejoin="round" stroke-miterlimit="10" d="
			M33.5,72.7H12.3V51.5h21.2V72.7z M15.3,69.7h15.3V54.4H15.3V69.7z"/>
	</g>
	<g>
		
			<path fill="#030303" stroke="#000000" stroke-width="2" stroke-linecap="round" stroke-linejoin="round" stroke-miterlimit="10" d="
			M22.9,45.7c-5.8,0-10.6-4.8-10.6-10.6s4.8-10.6,10.6-10.6s10.6,4.8,10.6,10.6S28.8,45.7,22.9,45.7z M22.9,27.4
			c-4.2,0-7.7,3.4-7.7,7.7s3.4,7.7,7.7,7.7c4.2,0,7.7-3.4,7.7-7.7S27.2,27.4,22.9,27.4z"/>
	</g>
	<g>
		
			<rect x="51.9" y="24.4" fill="#030303" stroke="#000000" stroke-width="2" stroke-linecap="round" stroke-linejoin="round" stroke-miterlimit="10" width="35.2" height="2.9"/>
	</g>
	<g>
		
			<rect x="51.9" y="39.1" fill="#030303" stroke="#000000" stroke-width="2" stroke-linecap="round" stroke-linejoin="round" stroke-miterlimit="10" width="35.2" height="2.9"/>
	</g>
	<g>
		
			<rect x="51.9" y="53.8" fill="#030303" stroke="#000000" stroke-width="2" stroke-linecap="round" stroke-linejoin="round" stroke-miterlimit="10" width="35.2" height="2.9"/>
	</g>
	<g>
		
			<rect x="51.9" y="68.4" fill="#030303" stroke="#000000" stroke-width="2" stroke-linecap="round" stroke-linejoin="round" stroke-miterlimit="10" width="35.2" height="2.9"/>
	</g>
</g>
</svg>
