<?xml version="1.0" encoding="utf-8"?>
<!-- Generator: Adobe Illustrator 18.0.0, SVG Export Plug-In . SVG Version: 6.00 Build 0)  -->
<!DOCTYPE svg PUBLIC "-//W3C//DTD SVG 1.1//EN" "http://www.w3.org/Graphics/SVG/1.1/DTD/svg11.dtd">
<svg version="1.1" id="Capa_1" xmlns="http://www.w3.org/2000/svg" xmlns:xlink="http://www.w3.org/1999/xlink" x="0px" y="0px"
	 viewBox="450 450 100 100" enable-background="new 450 450 100 100" xml:space="preserve">
<g>
	<path fill="#1B2734" stroke="#1B2734" stroke-width="2" stroke-miterlimit="10" d="M544.9,495.1h-5.7v-10.2c0-2.5-2-4.5-4.5-4.5
		h-5.3v-3.9l-0.8-0.8c0,0,0,0,0,0l-11.9-11.9L503.9,451h-39.9v18h-8.6c-2.5,0-4.5,2-4.5,4.5v71.4h0c0,0.9,0.3,1.8,0.9,2.6
		c0.8,1,2,1.6,3.3,1.6h73.1c1.9,0,3.6-1.3,4-3l16.7-45.8V500C549,497.1,547.3,495.1,544.9,495.1z M534.7,483.7
		c0.7,0,1.2,0.5,1.2,1.2v10.2h-6.5v-11.4H534.7z M504.9,456.6l18.9,18.9h-18.9V456.6z M467.3,454.3h34.3v24.5h24.5v1.6v14.7h-54.3
		c-0.2,0-0.5,0-0.7,0.1c-1.6,0.3-2.9,1.4-3.3,2.9l-0.5,1.3V469V454.3z M454.3,473.4c0-0.7,0.5-1.2,1.2-1.2h8.6v36l-9.8,26.7V473.4z
		 M529.2,545.1c-0.1,0.4-0.5,0.7-0.9,0.7h-73.1c-0.4,0-0.6-0.2-0.7-0.4c-0.1-0.1-0.3-0.4-0.2-0.7l9.8-26.9v0l6.8-18.6l0-0.1
		c0.1-0.4,0.5-0.7,0.9-0.7h54.3h3.3h9.8h5.7c0.6,0,0.8,0.9,0.8,1.3L529.2,545.1z"/>
	<path fill="#1B2734" stroke="#1B2734" stroke-width="2" stroke-miterlimit="10" d="M477.1,478.8h16.3c0.9,0,1.6-0.7,1.6-1.6
		s-0.7-1.6-1.6-1.6h-16.3c-0.9,0-1.6,0.7-1.6,1.6S476.2,478.8,477.1,478.8z"/>
	<path fill="#1B2734" stroke="#1B2734" stroke-width="2" stroke-miterlimit="10" d="M477.1,467.3h16.3c0.9,0,1.6-0.7,1.6-1.6
		c0-0.9-0.7-1.6-1.6-1.6h-16.3c-0.9,0-1.6,0.7-1.6,1.6C475.5,466.6,476.2,467.3,477.1,467.3z"/>
	<path fill="#1B2734" stroke="#1B2734" stroke-width="2" stroke-miterlimit="10" d="M477.1,490.2h39.2c0.9,0,1.6-0.7,1.6-1.6
		c0-0.9-0.7-1.6-1.6-1.6h-39.2c-0.9,0-1.6,0.7-1.6,1.6C475.5,489.5,476.2,490.2,477.1,490.2z"/>
</g>
</svg>
