<?xml version="1.0" encoding="utf-8"?>
<!-- Generator: Adobe Illustrator 18.0.0, SVG Export Plug-In . SVG Version: 6.00 Build 0)  -->
<!DOCTYPE svg PUBLIC "-//W3C//DTD SVG 1.1//EN" "http://www.w3.org/Graphics/SVG/1.1/DTD/svg11.dtd">
<svg version="1.1" id="Capa_1" xmlns="http://www.w3.org/2000/svg" xmlns:xlink="http://www.w3.org/1999/xlink" x="0px" y="0px"
	 viewBox="0 0 100 100" enable-background="new 0 0 100 100" xml:space="preserve">
<path fill="#1B2734" stroke="#1B2734" stroke-width="2" stroke-miterlimit="10" d="M85.5,81.4c7.4-8.4,12-19.4,12-31.4
	c0-12.5-4.9-23.9-12.9-32.5l0,0l0,0c-8.4-8.8-19.9-14.5-33-15l0,0h-1c-0.3,0-0.5,0-0.8,0s-0.5,0-0.8,0h-0.9l0,0
	C35.4,3,23.8,8.7,15.4,17.5l0,0l0,0c-8,8.5-12.9,20-12.9,32.5c0,12.1,4.6,23.1,12,31.4l0,0l0.1,0.1c8.4,9.3,20.3,15.4,33.7,15.9l0,0
	h1c0.3,0,0.5,0,0.8,0s0.5,0,0.8,0h1l0,0C65.1,96.9,77.2,90.9,85.5,81.4C85.4,81.5,85.4,81.5,85.5,81.4
	C85.5,81.5,85.5,81.5,85.5,81.4z M5.8,51.6h19.7c0.2,6.9,1.5,13.7,4,20c-4.7,1.7-9.1,4-13.3,6.7C10,71.1,6.2,61.8,5.8,51.6z
	 M17,20.5c4.1,2.7,8.5,4.8,12.9,6.4c-2.8,6.7-4.3,14-4.5,21.5H5.8C6.2,37.7,10.4,28,17,20.5z M94.2,48.4H74.5
	c-0.2-7.5-1.7-14.7-4.5-21.5c4.6-1.6,8.8-3.7,12.9-6.4C89.6,28,93.8,37.7,94.2,48.4z M48.4,27c-4.8-0.1-9.4-0.9-13.9-2.1
	c3.3-6.8,8-12.9,13.9-18C48.4,6.9,48.4,27,48.4,27z M48.4,30.2v18.1H28.7c0.2-7.1,1.7-14.1,4.4-20.4C38,29.4,43.2,30.1,48.4,30.2z
	 M51.6,30.2c5.2-0.1,10.4-1,15.2-2.4c2.7,6.4,4.2,13.3,4.4,20.4H51.6V30.2z M51.6,27V6.9c5.9,5.1,10.5,11.3,13.9,18
	C61,26.2,56.4,26.9,51.6,27z M68.7,23.9c-3.1-6.6-7.5-12.6-12.9-17.8c9.6,1.2,18.2,5.6,24.9,12C76.9,20.5,72.9,22.4,68.7,23.9z
	 M31.3,23.9c-4.2-1.4-8.2-3.3-12-5.8c6.6-6.4,15.3-10.7,24.9-12C38.8,11.3,34.4,17.3,31.3,23.9z M28.7,51.6h19.6V68
	c-5.4,0.2-10.7,0.9-15.9,2.6C30.2,64.6,28.9,58.3,28.7,51.6z M48.4,71.4v21.9c-6.3-5.5-11.2-12.2-14.5-19.6
	C38.5,72.2,43.3,71.5,48.4,71.4z M51.6,93.1V71.3c4.9,0.1,9.9,0.9,14.5,2.3C62.8,81.1,57.9,87.7,51.6,93.1z M51.6,68V51.6h19.6
	c-0.2,6.6-1.5,13-3.8,19C62.3,69.1,57,68.2,51.6,68z M74.5,51.6h19.7C93.8,61.8,90,71.1,83.8,78.4c-4.2-2.9-8.6-5-13.3-6.7
	C73,65.3,74.3,58.5,74.5,51.6z M18.4,80.9c3.9-2.6,8-4.7,12.3-6.2c3.2,7.1,7.8,13.7,13.6,19.2C34.1,92.6,25.1,87.8,18.4,80.9z
	 M55.8,93.8c5.8-5.5,10.4-12,13.5-19.1c4.3,1.5,8.5,3.6,12.3,6.2C74.9,87.8,65.9,92.6,55.8,93.8z"/>
</svg>
