<?xml version="1.0" encoding="utf-8"?>
<!-- Generator: Adobe Illustrator 18.0.0, SVG Export Plug-In . SVG Version: 6.00 Build 0)  -->
<!DOCTYPE svg PUBLIC "-//W3C//DTD SVG 1.1//EN" "http://www.w3.org/Graphics/SVG/1.1/DTD/svg11.dtd">
<svg version="1.1" id="Capa_1" xmlns="http://www.w3.org/2000/svg" xmlns:xlink="http://www.w3.org/1999/xlink" x="0px" y="0px"
	 viewBox="0 0 100 100" enable-background="new 0 0 100 100" xml:space="preserve">
<path fill="#1B2734" stroke="#1B2734" stroke-width="4" stroke-miterlimit="10" d="M89.7,9.7c-0.4-0.4-1.1-0.4-1.6,0L74,23.8H47.3
	L17.2,54.2C16.4,54.9,16,55.9,16,57s0.4,2.1,1.2,2.9l23.5,23.5c0.8,0.8,1.9,1.2,2.9,1.2c1.1,0,2.1-0.4,2.9-1.2l29.2-30.1v-28
	l14.1-14.1C90.2,10.8,90.2,10.1,89.7,9.7z M73.3,52.3L44.8,81.8c-0.7,0.7-1.8,0.7-2.5,0L18.7,58.2c-0.7-0.7-0.7-1.8,0-2.5L48.2,26
	h23.5l-9.8,9.8c-0.9-0.6-2-0.9-3.1-0.9c-3.1,0-5.8,2.6-5.8,5.8c0,3.2,2.6,5.8,5.8,5.8c3.2,0,5.8-2.6,5.8-5.8c0-1.1-0.4-2.3-0.9-3.1
	l9.8-9.8V52.3z M62.2,40.6c0,1.9-1.6,3.4-3.4,3.4s-3.4-1.6-3.4-3.4c0-1.9,1.6-3.4,3.4-3.4c0.5,0,1,0.1,1.5,0.4L58,39.8
	c-0.4,0.4-0.4,1.1,0,1.6c0.2,0.2,0.5,0.4,0.8,0.4s0.6-0.1,0.8-0.4l2.3-2.3C62.1,39.6,62.2,40.1,62.2,40.6z"/>
<g>
	<path fill="#1B2734" stroke="#1B2734" stroke-width="4" stroke-miterlimit="10" d="M50,2C23.6,2,2,23.6,2,50s21.6,48,48,48
		s48-21.6,48-48S76.4,2,50,2z M50,94.9C25.3,94.9,5.1,74.7,5.1,50S25.3,5.1,50,5.1S94.9,25.3,94.9,50S74.7,94.9,50,94.9z"/>
</g>
</svg>
