<?xml version="1.0" encoding="utf-8"?>
<!-- Generator: Adobe Illustrator 18.0.0, SVG Export Plug-In . SVG Version: 6.00 Build 0)  -->
<!DOCTYPE svg PUBLIC "-//W3C//DTD SVG 1.1//EN" "http://www.w3.org/Graphics/SVG/1.1/DTD/svg11.dtd">
<svg version="1.1" id="Layer_1" xmlns="http://www.w3.org/2000/svg" xmlns:xlink="http://www.w3.org/1999/xlink" x="0px" y="0px"
	 viewBox="0 0 100 100" enable-background="new 0 0 100 100" xml:space="preserve">
<g>
	<g>
		<g>
			<path stroke="#000000" stroke-width="2" stroke-miterlimit="10" d="M42.7,39.6H30.4c-1.1,0-1.9,0.9-1.9,1.9s0.9,1.9,1.9,1.9h10.2
				c-0.9,4.8-5.2,8.5-10.2,8.5c-5.7,0-10.4-4.7-10.4-10.4s4.7-10.4,10.4-10.4c2.8,0,5.4,1.1,7.4,3.1c0.7,0.7,2,0.7,2.7,0
				c0.7-0.7,0.7-2,0-2.7c-2.7-2.7-6.3-4.2-10.1-4.2c-7.9,0-14.3,6.4-14.3,14.3s6.4,14.3,14.3,14.3s14.3-6.4,14.3-14.3
				C44.6,40.4,43.8,39.6,42.7,39.6z"/>
		</g>
	</g>
	<g>
		<g>
			<path stroke="#000000" stroke-width="2" stroke-miterlimit="10" d="M91,18.7H52.6L47.5,3.1c-0.3-0.8-1-1.3-1.8-1.3H9
				c-4.4,0-8,3.6-8,8v63.6c0,4.4,3.6,8,8,8h38.9L53,96.9c0.3,0.8,1,1.3,1.8,1.3H91c4.4,0,8-3.6,8-8V26.6C99,22.2,95.4,18.7,91,18.7z
				 M9,77.5c-2.3,0-4.1-1.9-4.1-4.1V9.7c0-2.3,1.9-4.1,4.1-4.1h35.3l13.5,40.9c0,0,0,0,0,0l10.3,31H9z M65.6,55.2
				c0.2,0.2,2.1,2.8,5,6.5c-0.8,1.1-1.7,2.2-2.7,3.3l-5.7-17.2H79c-1.2,2.5-3.2,6.5-6.1,10.7c-2.6-3.2-4.2-5.5-4.3-5.5
				c-0.6-0.9-1.8-1-2.7-0.4C65.2,53.2,65,54.4,65.6,55.2z M51.9,81.3h14.4L55.7,92.7L51.9,81.3z M95.2,90.3c0,2.3-1.9,4.1-4.1,4.1
				H59.3l12.8-13.7l0,0c0.1-0.1,0.1-0.1,0.2-0.2c0.4-0.5,0.5-1.1,0.3-1.7l-3.2-9.6c1.4-1.4,2.6-2.9,3.8-4.4c2.5,3,5.6,6.4,8.8,9.6
				c0.4,0.4,0.9,0.6,1.4,0.6c0.5,0,1-0.2,1.4-0.6c0.7-0.7,0.7-2,0-2.7c-3.3-3.3-6.5-6.9-9.1-10.1c4.1-5.8,6.7-11.4,7.8-13.8h4.1
				c1.1,0,1.9-0.9,1.9-1.9S88.4,44,87.4,44H82c0,0,0,0,0,0h-7.3v-3.5c0-1.1-0.9-1.9-1.9-1.9c-1.1,0-1.9,0.9-1.9,1.9V44H61l-7.1-21.5
				H91c2.3,0,4.1,1.9,4.1,4.1L95.2,90.3L95.2,90.3z"/>
		</g>
	</g>
</g>
</svg>
