<?xml version="1.0" encoding="utf-8"?>
<!-- Generator: Adobe Illustrator 18.0.0, SVG Export Plug-In . SVG Version: 6.00 Build 0)  -->
<!DOCTYPE svg PUBLIC "-//W3C//DTD SVG 1.1//EN" "http://www.w3.org/Graphics/SVG/1.1/DTD/svg11.dtd">
<svg version="1.1" id="Capa_1" xmlns="http://www.w3.org/2000/svg" xmlns:xlink="http://www.w3.org/1999/xlink" x="0px" y="0px"
	 viewBox="0 0 1000 1000" enable-background="new 0 0 1000 1000" xml:space="preserve">
<path fill="#1B2734" stroke="#1B2734" stroke-width="35" stroke-miterlimit="10" d="M958.5,953.4L687,671.8
	c69-69,112-165.1,112-270.3C799,189.9,627,18,415.5,18S32.1,189.9,32.1,401.4S204,783.8,415.5,783.8c92.8,0,177.6-32.8,244.3-88.2
	l271.5,282.8c3.4,3.4,7.9,5.7,13.6,5.7c4.5,0,9-2.3,12.4-5.7C965.2,972.7,965.2,961.3,958.5,953.4z M415.5,747.6
	c-191.2,0-347.2-156.1-347.2-347.2S224.4,53.1,415.5,53.1s347.2,156.1,347.2,347.2S606.7,747.6,415.5,747.6z"/>
<g>
	<path fill="#1B2734" stroke="#1B2734" stroke-width="35" stroke-miterlimit="10" d="M421.2,122.7c-7.2,0-12.7,5.6-12.7,12.7v293.1
		H217.3c-7.2,0-12.7,5.6-12.7,12.7c0,7.2,5.6,12.7,12.7,12.7h203.9c7.2,0,12.7-5.6,12.7-12.7V135.5
		C433.9,128.3,428.3,122.7,421.2,122.7z"/>
</g>
</svg>
