<?xml version="1.0" encoding="utf-8"?>
<!-- Generator: Adobe Illustrator 18.0.0, SVG Export Plug-In . SVG Version: 6.00 Build 0)  -->
<!DOCTYPE svg PUBLIC "-//W3C//DTD SVG 1.1//EN" "http://www.w3.org/Graphics/SVG/1.1/DTD/svg11.dtd">
<svg version="1.1" id="Capa_1" xmlns="http://www.w3.org/2000/svg" xmlns:xlink="http://www.w3.org/1999/xlink" x="0px" y="0px"
	 viewBox="0 0 1000 1000" enable-background="new 0 0 1000 1000" xml:space="preserve">
<g>
	<g>
		<path stroke="#000000" stroke-width="20" stroke-miterlimit="10" d="M803.5,689.7c-3.9,0-7.8-1.4-10.8-4.3L610.8,514.9
			c-6.4-5.9-6.7-16-0.7-22.3c6-6.4,15.9-6.7,22.3-0.7l181.8,170.6c6.4,5.9,6.7,16,0.7,22.3C811.9,688.1,807.7,689.7,803.5,689.7z"/>
		<path stroke="#000000" stroke-width="20" stroke-miterlimit="10" d="M196.5,689.7c-4.2,0-8.4-1.7-11.5-5c-6-6.4-5.7-16.4,0.7-22.3
			l181.9-170.6c6.4-5.9,16.4-5.7,22.3,0.7c6,6.4,5.7,16.4-0.7,22.3L207.3,685.4C204.3,688.3,200.4,689.7,196.5,689.7z"/>
	</g>
	<path stroke="#000000" stroke-width="20" stroke-miterlimit="10" d="M911,848.3H89c-43.5,0-79-35.4-79-79V230.6
		c0-43.6,35.5-79,79-79h822c43.5,0,79,35.4,79,79v538.7C990,812.9,954.5,848.3,911,848.3z M89,183.2c-26.1,0-47.4,21.3-47.4,47.4
		v538.7c0,26.1,21.3,47.4,47.4,47.4h822c26.1,0,47.4-21.3,47.4-47.4V230.6c0-26.1-21.3-47.4-47.4-47.4H89z"/>
	<path stroke="#000000" stroke-width="20" stroke-miterlimit="10" d="M500,579.4c-21,0-42-7-58-20.9l-405.8-354
		c-6.6-5.7-7.3-15.7-1.5-22.3c5.8-6.6,15.7-7.2,22.3-1.5l405.8,353.9c20.2,17.6,54.3,17.6,74.5,0l405.2-353.4
		c6.5-5.7,16.5-5.1,22.3,1.5c5.7,6.6,5.1,16.6-1.5,22.3L558,558.4C542,572.4,521,579.4,500,579.4z"/>
</g>
</svg>
