<?xml version="1.0" encoding="utf-8"?>
<!-- Generator: Adobe Illustrator 18.0.0, SVG Export Plug-In . SVG Version: 6.00 Build 0)  -->
<!DOCTYPE svg PUBLIC "-//W3C//DTD SVG 1.1//EN" "http://www.w3.org/Graphics/SVG/1.1/DTD/svg11.dtd">
<svg version="1.1" id="Layer_1" xmlns="http://www.w3.org/2000/svg" xmlns:xlink="http://www.w3.org/1999/xlink" x="0px" y="0px"
	 viewBox="0 0 1000 1000" enable-background="new 0 0 1000 1000" xml:space="preserve">
<g>
	<path stroke="#000000" stroke-width="20" stroke-miterlimit="10" d="M432.2,856.3V605.7c0-8.6-7-15.6-15.6-15.6H312.3
		c-8.6,0-15.6,7-15.6,15.6s7,15.6,15.6,15.6H401v235c-29.8,7.1-52.1,33.9-52.1,65.9c0,37.4,30.4,67.8,67.8,67.8s67.8-30.4,67.8-67.8
		C484.4,890.3,462.1,863.4,432.2,856.3z M416.6,958.7c-20.1,0-36.5-16.4-36.5-36.5c0-20.1,16.4-36.5,36.5-36.5s36.5,16.4,36.5,36.5
		C453.1,942.4,436.7,958.7,416.6,958.7z"/>
	<path stroke="#000000" stroke-width="20" stroke-miterlimit="10" d="M599,856.3V605.7c0-8.6-7-15.6-15.6-15.6H479.2
		c-8.6,0-15.6,7-15.6,15.6s7,15.6,15.6,15.6h88.6v235c-29.8,7.1-52.1,33.9-52.1,65.9c0,37.4,30.4,67.8,67.8,67.8
		c37.4,0,67.8-30.4,67.8-67.8C651.2,890.3,628.9,863.4,599,856.3z M583.4,958.7c-20.1,0-36.5-16.4-36.5-36.5
		c0-20.1,16.4-36.5,36.5-36.5c20.1,0,36.5,16.4,36.5,36.5C619.9,942.4,603.5,958.7,583.4,958.7z"/>
	<path stroke="#000000" stroke-width="20" stroke-miterlimit="10" d="M864.9,750.2c-32,0-58.8,22.3-65.9,52.1h-33.1V605.7
		c0-8.6-7-15.6-15.6-15.6H646c-8.6,0-15.6,7-15.6,15.6s7,15.6,15.6,15.6h88.6V818c0,8.6,7,15.6,15.6,15.6H799
		c7.1,29.8,33.9,52.1,65.9,52.1c37.4,0,67.8-30.4,67.8-67.8C932.7,780.6,902.3,750.2,864.9,750.2z M864.9,854.5
		c-20.1,0-36.5-16.4-36.5-36.5c0-20.1,16.4-36.5,36.5-36.5s36.5,16.4,36.5,36.5C901.4,838.1,885,854.5,864.9,854.5z"/>
	<path stroke="#000000" stroke-width="20" stroke-miterlimit="10" d="M952.8,346.9c-21.1-26.2-49.7-45.6-81.6-55.4
		c-3.6-74-34.3-143.1-87.2-195.6C728.2,40.5,654.1,10,575.5,10c-103.2,0-198.7,53.8-252.4,141.3c-13.1-4.1-26.6-6.2-40.5-6.2
		c-63.9,0-118.8,45.1-132.1,106.6C68.5,273,10,347.8,10,433.5C10,537,94.3,621.3,197.8,621.3h36.3v181H201
		c-7.1-29.8-33.9-52.1-65.9-52.1c-37.4,0-67.8,30.4-67.8,67.8c0,37.4,30.4,67.8,67.8,67.8c32,0,58.8-22.3,65.9-52.1h48.8
		c8.6,0,15.6-7,15.6-15.6V605.7c0-8.6-7-15.6-15.6-15.6h-52c-86.3,0-156.5-70.2-156.5-156.5c0-74.5,53-139.1,125.9-153.5
		c6.6-1.3,11.6-6.7,12.5-13.3c6.7-51.4,51-90.2,102.9-90.2c14.3,0,28.2,2.9,41.2,8.5c7.4,3.2,16,0.3,19.9-6.8
		C390.3,93.7,479.2,41.3,575.5,41.3C720.2,41.3,839,159,840.3,303.6c0.1,7.2,5.1,13.5,12.1,15.1c62.6,14.5,106.3,69.5,106.3,133.9
		c0,75.8-61.7,137.5-137.5,137.5h-8.5c-8.6,0-15.6,7-15.6,15.6s7,15.6,15.6,15.6h8.5c93,0,168.7-75.7,168.7-168.7
		C990,414.2,976.8,376.7,952.8,346.9z M135.1,854.5c-20.1,0-36.5-16.4-36.5-36.5c0-20.1,16.4-36.5,36.5-36.5s36.5,16.4,36.5,36.5
		C171.6,838.1,155.2,854.5,135.1,854.5z"/>
</g>
</svg>
