<?xml version="1.0" encoding="utf-8"?>
<!-- Generator: Adobe Illustrator 18.0.0, SVG Export Plug-In . SVG Version: 6.00 Build 0)  -->
<!DOCTYPE svg PUBLIC "-//W3C//DTD SVG 1.1//EN" "http://www.w3.org/Graphics/SVG/1.1/DTD/svg11.dtd">
<svg version="1.1" id="Capa_1" xmlns="http://www.w3.org/2000/svg" xmlns:xlink="http://www.w3.org/1999/xlink" x="0px" y="0px"
	 viewBox="0 0 595.3 841.9" enable-background="new 0 0 595.3 841.9" xml:space="preserve">
<g>
	<path fill="#1B2734" stroke="#1B2734" stroke-width="12" stroke-miterlimit="10" d="M297.6,135.2c-157.2,0-285.7,128.6-285.7,285.7
		s128.6,285.7,285.7,285.7S583.3,578,583.3,420.9S454.8,135.2,297.6,135.2z M297.6,688.2c-147,0-267.3-120.2-267.3-267.3
		s120.2-267.3,267.3-267.3s267.3,120.2,267.3,267.3S444.7,688.2,297.6,688.2z"/>
</g>
<path fill="#1B2734" stroke="#1B2734" stroke-width="12" stroke-miterlimit="10" d="M306.2,261.8l36.5,113.5l119.3-0.1
	c5,0,9,3.9,9,8.9c0,2.9-1.5,5.6-3.7,7.3l0,0l-96.7,69.9l37.1,113.5c1.5,4.7-1,9.7-5.7,11.2c-3.1,1-6.4,0.3-8.7-1.7l-95.8-69.9
	l-96.4,70.3c-4.1,2.9-9.7,2-12.5-1.9c-1.8-2.4-2.2-5.5-1.3-8h-0.1l37.2-113.5l-96.7-69.9c-4.1-2.9-5-8.5-2-12.5
	c1.9-2.7,4.8-3.9,7.9-3.7l118.7,0.1L289,261.8c1.5-4.7,6.5-7.3,11.2-5.9C303.3,257,305.3,259.1,306.2,261.8L306.2,261.8z M327.7,387
	l-30.1-93.3L267.5,387l0,0c-1.1,3.7-4.6,6.2-8.5,6.2l-98.1-0.1l79.5,57.4l0,0c3.1,2.3,4.5,6.2,3.2,10.1l-30.4,93.2l79.1-57.7
	c3.1-2.3,7.4-2.4,10.7-0.1l79.2,57.8L351.8,461c-1.4-3.7-0.3-8,3.1-10.4l79.6-57.4l-97.8,0.1C332.7,393.5,329,390.9,327.7,387
	L327.7,387z"/>
</svg>
