<?xml version="1.0" encoding="utf-8"?>
<!-- Generator: Adobe Illustrator 18.0.0, SVG Export Plug-In . SVG Version: 6.00 Build 0)  -->
<!DOCTYPE svg PUBLIC "-//W3C//DTD SVG 1.1//EN" "http://www.w3.org/Graphics/SVG/1.1/DTD/svg11.dtd">
<svg version="1.1" id="Capa_1" xmlns="http://www.w3.org/2000/svg" xmlns:xlink="http://www.w3.org/1999/xlink" x="0px" y="0px"
	 viewBox="0 0 1000 1000" enable-background="new 0 0 1000 1000" xml:space="preserve">
<g>
	<g>
		<path stroke="#000000" stroke-width="20" stroke-miterlimit="10" d="M516.1,220v-99.2c24.8-7.6,42.3-32.3,38.4-60.4
			c-3.4-24.7-23.5-44.3-48.2-47c-33.2-3.7-61.4,22.3-61.4,54.7c0,24.8,16.4,45.8,39,52.7V220c-204,8.5-367.3,177.1-367.3,383.1
			v174.7c0,8.9,7.2,16.1,16.1,16.1c8.9,0,16.1-7.2,16.1-16.1V606.5c0-194.1,156.1-354.1,350.2-354.6
			c194.1-0.5,352.2,157.2,352.2,351.2V920c0,18.9-15.3,34.3-34.3,34.3H690.3v-32.2c0-56.5-45.8-102.3-102.3-102.3H412
			c-56.5,0-102.3,45.8-102.3,102.3v32.2H207.6h-24.5c-18.9,0-34.3-15.3-34.3-34.3v-66.9c0-8.9-7.2-16.1-16.1-16.1
			s-16.1,7.2-16.1,16.1V920c0,36.7,29.8,66.5,66.5,66.5h633.8c36.7,0,66.5-29.8,66.5-66.5V603.1C883.5,397.1,720.1,228.5,516.1,220z
			 M477.2,68.2c0-12.6,10.2-22.8,22.8-22.8c12.6,0,22.8,10.2,22.8,22.8S512.6,91,500,91C487.4,91,477.2,80.8,477.2,68.2z
			 M424.8,955.2h-78.5v-31.3c0-37.6,30.6-68.1,68.1-68.1h10.4L424.8,955.2L424.8,955.2z M543.8,955.2h-87.6v-99.4h87.6V955.2z
			 M653.7,955.2h-78.5v-99.4h10.4c37.6,0,68.1,30.6,68.1,68.1L653.7,955.2L653.7,955.2z"/>
	</g>
</g>
<g>
	<g>
		<path stroke="#000000" stroke-width="20" stroke-miterlimit="10" d="M681.4,520.9H318.6c-59.4,0-107.7,48.3-107.7,107.7
			s48.3,107.7,107.7,107.7h362.7c59.4,0,107.7-48.3,107.7-107.7S740.8,520.9,681.4,520.9z M681.4,704.4H318.6
			c-41.8,0-75.7-34-75.7-75.7c0-41.8,34-75.7,75.7-75.7l362.7,0c41.8,0,75.7,34,75.7,75.7C757.1,670.4,723.1,704.4,681.4,704.4z"/>
	</g>
</g>
</svg>
