<?xml version="1.0" encoding="utf-8"?>
<!-- Generator: Adobe Illustrator 18.0.0, SVG Export Plug-In . SVG Version: 6.00 Build 0)  -->
<!DOCTYPE svg PUBLIC "-//W3C//DTD SVG 1.1//EN" "http://www.w3.org/Graphics/SVG/1.1/DTD/svg11.dtd">
<svg version="1.1" id="Capa_1" xmlns="http://www.w3.org/2000/svg" xmlns:xlink="http://www.w3.org/1999/xlink" x="0px" y="0px"
	 viewBox="0 0 100 100" enable-background="new 0 0 100 100" xml:space="preserve">
<path fill="#1B2734" stroke="#1B2734" stroke-width="4" stroke-miterlimit="10" d="M90.7,90l-24-24.9c6.1-6.1,9.9-14.6,9.9-23.9
	c0-18.7-15.2-33.9-33.9-33.9S8.8,22.5,8.8,41.2S24,75,42.7,75c8.2,0,15.7-2.9,21.6-7.8l24,25c0.3,0.3,0.7,0.5,1.2,0.5
	c0.4,0,0.8-0.2,1.1-0.5C91.3,91.7,91.3,90.7,90.7,90z M42.7,71.8C25.8,71.8,12,58,12,41.1s13.8-30.7,30.7-30.7s30.7,13.8,30.7,30.7
	S59.6,71.8,42.7,71.8z"/>
</svg>
