<?xml version="1.0" encoding="utf-8"?>
<!-- Generator: Adobe Illustrator 18.0.0, SVG Export Plug-In . SVG Version: 6.00 Build 0)  -->
<!DOCTYPE svg PUBLIC "-//W3C//DTD SVG 1.1//EN" "http://www.w3.org/Graphics/SVG/1.1/DTD/svg11.dtd">
<svg version="1.1" id="Capa_1" xmlns="http://www.w3.org/2000/svg" xmlns:xlink="http://www.w3.org/1999/xlink" x="0px" y="0px"
	 viewBox="0 0 1000 1000" enable-background="new 0 0 1000 1000" xml:space="preserve">
<g>
	<path fill="#1B2734" d="M34.8,302.2c19.2,0,34.8-15.6,34.8-34.8V118.9L294,343.2c6.8,6.8,15.7,10.2,24.6,10.2
		c8.9,0,17.8-3.4,24.6-10.2c13.6-13.6,13.6-35.7,0-49.3L118.9,69.7h148.5c19.2,0,34.8-15.6,34.8-34.8S286.7,0,267.4,0H34.8
		C15.6,0,0,15.6,0,34.8v232.6C0,286.6,15.6,302.2,34.8,302.2z"/>
	<path fill="#1B2734" d="M965.2,697.8c-19.2,0-34.8,15.6-34.8,34.8v148.5L699.1,649.9c-13.6-13.6-35.7-13.6-49.3,0
		s-13.6,35.7,0,49.3l231.2,231.2H732.6c-19.2,0-34.8,15.6-34.8,34.8c0,19.2,15.6,34.8,34.8,34.8h232.6c19.2,0,34.8-15.6,34.8-34.8
		V732.6C1000,713.4,984.4,697.8,965.2,697.8z"/>
	<path fill="#1B2734" d="M300.9,649.9L69.7,881.1V732.6c0-19.2-15.6-34.8-34.8-34.8S0,713.4,0,732.6v232.6
		c0,19.2,15.6,34.8,34.8,34.8h232.6c19.2,0,34.8-15.6,34.8-34.8s-15.6-34.8-34.8-34.8H118.9l231.2-231.2c13.6-13.6,13.6-35.7,0-49.3
		C336.5,636.3,314.5,636.3,300.9,649.9z"/>
	<path fill="#1B2734" d="M965.2,0H732.6c-19.2,0-34.8,15.6-34.8,34.8s15.6,34.8,34.8,34.8h148.5L656.8,294
		c-13.6,13.6-13.6,35.7,0,49.3c6.8,6.8,15.7,10.2,24.6,10.2c8.9,0,17.8-3.4,24.6-10.2l224.3-224.3v148.5c0,19.2,15.6,34.8,34.8,34.8
		s34.8-15.6,34.8-34.8V34.8C1000,15.6,984.4,0,965.2,0z"/>
</g>
</svg>
