<?xml version="1.0" encoding="utf-8"?>
<!-- Generator: Adobe Illustrator 18.0.0, SVG Export Plug-In . SVG Version: 6.00 Build 0)  -->
<!DOCTYPE svg PUBLIC "-//W3C//DTD SVG 1.1//EN" "http://www.w3.org/Graphics/SVG/1.1/DTD/svg11.dtd">
<svg version="1.1" id="Capa_1" xmlns="http://www.w3.org/2000/svg" xmlns:xlink="http://www.w3.org/1999/xlink" x="0px" y="0px"
	 viewBox="0 0 100 100" enable-background="new 0 0 100 100" xml:space="preserve">
<g>
	<g>
		<path fill="#1B2734" stroke="#1B2734" stroke-width="4" stroke-miterlimit="10" d="M65.2,71.3L65.2,71.3H34.8
			c-0.7,0-1.3-0.6-1.4-1.2c-0.4-3-1.3-7.1-4.3-10.2l0,0c-7.3-6.2-11.6-15.3-11.6-24.9C17.5,16.9,32.2,2.3,50,2.3
			s32.5,14.5,32.5,32.5c0,9.6-4.2,18.8-11.7,25c-2.9,3-3.9,7.1-4.2,10.1C66.5,70.7,65.9,71.3,65.2,71.3z M36.2,68.4h27.8
			c0.6-3.2,1.9-7.4,5.1-10.6c6.9-5.8,10.8-14,10.8-22.8C79.5,18.5,66.3,5.3,50,5.3S20.5,18.5,20.5,34.8c0,8.8,3.8,17.1,10.6,22.7
			c0.1,0.1,0.2,0.2,0.2,0.3C34.3,61,35.6,65.2,36.2,68.4z"/>
		<path fill="#1B2734" stroke="#1B2734" stroke-width="4" stroke-miterlimit="10" d="M65.2,80H34.8c-0.8,0-1.4-0.7-1.4-1.4
			c0-0.8,0.7-1.4,1.4-1.4h30.2c0.8,0,1.4,0.7,1.4,1.4C66.6,79.4,65.9,80,65.2,80z"/>
		<path fill="#1B2734" stroke="#1B2734" stroke-width="4" stroke-miterlimit="10" d="M65.2,88.8H34.8c-0.8,0-1.4-0.7-1.4-1.4
			c0-0.8,0.7-1.4,1.4-1.4h30.2c0.8,0,1.4,0.7,1.4,1.4C66.6,88.1,65.9,88.8,65.2,88.8z"/>
		<path fill="#1B2734" stroke="#1B2734" stroke-width="4" stroke-miterlimit="10" d="M56.3,97.7H43.6c-0.8,0-1.4-0.7-1.4-1.4
			c0-0.8,0.7-1.4,1.4-1.4h12.7c0.8,0,1.4,0.7,1.4,1.4S57.1,97.7,56.3,97.7z"/>
	</g>
</g>
</svg>
