<?xml version="1.0" encoding="utf-8"?>
<!-- Generator: Adobe Illustrator 18.0.0, SVG Export Plug-In . SVG Version: 6.00 Build 0)  -->
<!DOCTYPE svg PUBLIC "-//W3C//DTD SVG 1.1//EN" "http://www.w3.org/Graphics/SVG/1.1/DTD/svg11.dtd">
<svg version="1.1" id="Capa_1" xmlns="http://www.w3.org/2000/svg" xmlns:xlink="http://www.w3.org/1999/xlink" x="0px" y="0px"
	 viewBox="0 0 595.3 841.9" enable-background="new 0 0 595.3 841.9" xml:space="preserve">
<path fill="#1B2734" stroke="#1B2734" stroke-width="14" stroke-miterlimit="10" d="M297.6,135.2c-157.2,0-285.7,128.6-285.7,285.7
	s128.6,285.7,285.7,285.7s285.7-128.6,285.7-285.7S454.8,135.2,297.6,135.2z M297.6,684.1c-145.2,0-263.1-117.9-263.1-263.1
	s117.9-263.1,263.1-263.1s263.1,117.9,263.1,263.1S442.9,684.1,297.6,684.1z"/>
<g>
	<g>
		<path fill="#1B2734" d="M297.6,277.1c-12.8,0-23.3,10.4-23.3,23.3v149.7c0,12.8,10.4,23.3,23.3,23.3s23.3-10.4,23.3-23.3V300.4
			C320.9,287.6,310.5,277.1,297.6,277.1z"/>
	</g>
</g>
<g>
	<g>
		<circle fill="#1B2734" cx="297.6" cy="533.3" r="31.4"/>
	</g>
</g>
</svg>
