<?xml version="1.0" encoding="utf-8"?>
<!-- Generator: Adobe Illustrator 18.0.0, SVG Export Plug-In . SVG Version: 6.00 Build 0)  -->
<!DOCTYPE svg PUBLIC "-//W3C//DTD SVG 1.1//EN" "http://www.w3.org/Graphics/SVG/1.1/DTD/svg11.dtd">
<svg version="1.1" id="Capa_1" xmlns="http://www.w3.org/2000/svg" xmlns:xlink="http://www.w3.org/1999/xlink" x="0px" y="0px"
	 viewBox="450 450 100 100" enable-background="new 450 450 100 100" xml:space="preserve">
<g>
	<path fill="#1B2734" stroke="#1B2734" stroke-width="4" stroke-miterlimit="10" d="M500,452c-26.4,0-48,21.6-48,48
		c0,26.4,21.6,48,48,48c26.4,0,48-21.6,48-48C548,473.6,526.4,452,500,452z M500,544.9c-24.7,0-44.9-20.2-44.9-44.9
		s20.2-44.9,44.9-44.9s44.9,20.2,44.9,44.9S524.7,544.9,500,544.9z"/>
	<path fill="#1B2734" stroke="#1B2734" stroke-width="4" stroke-miterlimit="10" d="M500,461.6c-0.9,0-1.6,0.7-1.6,1.6V500h-24
		c-0.9,0-1.6,0.7-1.6,1.6s0.7,1.6,1.6,1.6H500c0.9,0,1.6-0.7,1.6-1.6v-38.4C501.6,462.3,500.9,461.6,500,461.6z"/>
</g>
</svg>
