<?xml version="1.0" encoding="utf-8"?>
<!-- Generator: Adobe Illustrator 18.0.0, SVG Export Plug-In . SVG Version: 6.00 Build 0)  -->
<!DOCTYPE svg PUBLIC "-//W3C//DTD SVG 1.1//EN" "http://www.w3.org/Graphics/SVG/1.1/DTD/svg11.dtd">
<svg version="1.1" id="Capa_1" xmlns="http://www.w3.org/2000/svg" xmlns:xlink="http://www.w3.org/1999/xlink" x="0px" y="0px"
	 viewBox="211.2 211.2 100 100" enable-background="new 211.2 211.2 100 100" xml:space="preserve">
<g>
	<path d="M211.2,264.8l20.2-13.8v5.8l-14.6,9.8l14.6,9.7v5.8l-20.2-13.8V264.8z"/>
	<path d="M264.1,282.1h-5.7v-15.3c0-5.6-1.7-8-6.4-8c-5.3,0-7.5,3.7-7.5,8.6v14.7h-5.7v-41.7h5.7v18.7c0.8-2.4,4.2-4.7,7.5-4.9
		c7.4-0.6,12.2,3.1,12.2,12.1V282.1z"/>
	<path d="M283.1,240.4v41.7h-6.2v-36.6h-6.2v-5.1H283.1z"/>
	<path d="M311.1,268.3l-20.2,13.8v-5.8l14.6-9.7l-14.6-9.8V251l20.2,13.8V268.3z"/>
</g>
</svg>
