<?xml version="1.0" encoding="utf-8"?>
<!-- Generator: Adobe Illustrator 18.0.0, SVG Export Plug-In . SVG Version: 6.00 Build 0)  -->
<!DOCTYPE svg PUBLIC "-//W3C//DTD SVG 1.1//EN" "http://www.w3.org/Graphics/SVG/1.1/DTD/svg11.dtd">
<svg version="1.1" id="Layer_1" xmlns="http://www.w3.org/2000/svg" xmlns:xlink="http://www.w3.org/1999/xlink" x="0px" y="0px"
	 viewBox="0 0 100 100" enable-background="new 0 0 100 100" xml:space="preserve">
<g>
	<g>
		<g>
			<path fill="#1B2734" stroke="#1B2734" stroke-width="2" stroke-miterlimit="10" d="M52.2,73.3c-0.9-0.3-1.8,0.1-2.1,1
				c-0.3,0.8,0.1,1.8,1,2.1c0.9,0.3,1.6,1,2,2c0.2,0.7,0.9,1.1,1.5,1.1c0.2,0,0.4,0,0.6-0.1c0.8-0.3,1.3-1.2,1-2.1
				C55.5,75.3,54,73.9,52.2,73.3z"/>
			<path fill="#1B2734" stroke="#1B2734" stroke-width="2" stroke-miterlimit="10" d="M13.1,20.3c2.3,1.6,4.2,2.8,4.2,8.4
				c0,0.9,0.7,1.6,1.6,1.6c0.9,0,1.6-0.7,1.6-1.6c0-7.4-3-9.4-5.6-11.2c-2.1-1.4-3.8-2.5-4.1-6.8h14.7c0.9,0,1.6-0.7,1.6-1.6
				c0-2.7,2.2-4.9,4.9-4.9h36c2.7,0,4.9,2.2,4.9,4.9c0,0.9,0.7,1.6,1.6,1.6h14.7c-0.3,4.3-2,5.4-4.1,6.8c-2.6,1.8-5.6,3.8-5.6,11.2
				c0,0.9,0.7,1.6,1.6,1.6s1.6-0.7,1.6-1.6c0-5.7,1.8-6.9,4.2-8.4c2.6-1.8,5.6-3.8,5.6-11.2c0-0.9-0.7-1.6-1.6-1.6H76
				C75.2,3.8,71.9,1,68,1H32c-3.9,0-7.2,2.8-8,6.5H9.1c-0.9,0-1.6,0.7-1.6,1.6C7.5,16.5,10.5,18.5,13.1,20.3z"/>
			<path fill="#1B2734" stroke="#1B2734" stroke-width="2" stroke-miterlimit="10" d="M50,66.3c-7.2,0-13.1,5.9-13.1,13.1
				S42.8,92.5,50,92.5s13.1-5.9,13.1-13.1S57.2,66.3,50,66.3z M50,89.2c-5.4,0-9.8-4.4-9.8-9.8c0-5.4,4.4-9.8,9.8-9.8
				s9.8,4.4,9.8,9.8C59.8,84.8,55.4,89.2,50,89.2z"/>
			<path fill="#1B2734" stroke="#1B2734" stroke-width="2" stroke-miterlimit="10" d="M52.2,43.8c-0.9-0.3-1.8,0.1-2.1,1
				c-0.3,0.8,0.1,1.8,1,2.1c0.9,0.3,1.6,1,2,2c0.2,0.7,0.9,1.1,1.5,1.1c0.2,0,0.4,0,0.6-0.1c0.8-0.3,1.3-1.2,1-2.1
				C55.5,45.9,54,44.5,52.2,43.8z"/>
			<path fill="#1B2734" stroke="#1B2734" stroke-width="2" stroke-miterlimit="10" d="M50,36.9c-7.2,0-13.1,5.9-13.1,13.1
				S42.8,63.1,50,63.1S63.1,57.2,63.1,50S57.2,36.9,50,36.9z M50,59.8c-5.4,0-9.8-4.4-9.8-9.8s4.4-9.8,9.8-9.8s9.8,4.4,9.8,9.8
				S55.4,59.8,50,59.8z"/>
			<path fill="#1B2734" stroke="#1B2734" stroke-width="2" stroke-miterlimit="10" d="M90.9,36.9H76.2V15.7c0-0.9-0.7-1.6-1.6-1.6
				s-1.6,0.7-1.6,1.6v22.9c0,0.9,0.7,1.6,1.6,1.6h14.7c-0.3,4.3-2,5.4-4.1,6.8c-2.6,1.8-5.6,3.8-5.6,11.2c0,0.9,0.7,1.6,1.6,1.6
				s1.6-0.7,1.6-1.6c0-5.7,1.8-6.9,4.2-8.4c2.6-1.8,5.6-3.8,5.6-11.2C92.5,37.7,91.8,36.9,90.9,36.9z"/>
			<path fill="#1B2734" stroke="#1B2734" stroke-width="2" stroke-miterlimit="10" d="M52.2,14.4c-0.9-0.3-1.8,0.1-2.1,1
				c-0.3,0.8,0.1,1.8,1,2.1c0.9,0.3,1.6,1,2,2c0.2,0.7,0.9,1.1,1.5,1.1c0.2,0,0.4,0,0.6-0.1c0.8-0.3,1.3-1.2,1-2.1
				C55.5,16.5,54,15.1,52.2,14.4z"/>
			<path fill="#1B2734" stroke="#1B2734" stroke-width="2" stroke-miterlimit="10" d="M90.9,66.3H76.2V45.1c0-0.9-0.7-1.6-1.6-1.6
				s-1.6,0.7-1.6,1.6V68c0,0.9,0.7,1.6,1.6,1.6h14.7c-0.3,4.3-2,5.4-4.1,6.8c-2.6,1.8-5.6,3.8-5.6,11.2c0,0.9,0.7,1.6,1.6,1.6
				s1.6-0.7,1.6-1.6c0-5.7,1.8-6.9,4.2-8.4c2.6-1.8,5.6-3.8,5.6-11.2C92.5,67.1,91.8,66.3,90.9,66.3z"/>
			<path fill="#1B2734" stroke="#1B2734" stroke-width="2" stroke-miterlimit="10" d="M14.9,76.4c-2.1-1.4-3.8-2.5-4.1-6.8h14.7
				c0.9,0,1.6-0.7,1.6-1.6V45.1c0-0.9-0.7-1.6-1.6-1.6s-1.6,0.7-1.6,1.6v21.2H9.1c-0.9,0-1.6,0.7-1.6,1.6c0,7.4,3,9.4,5.6,11.2
				c2.3,1.6,4.2,2.8,4.2,8.4c0,0.9,0.7,1.6,1.6,1.6c0.9,0,1.6-0.7,1.6-1.6C20.6,80.2,17.6,78.2,14.9,76.4z"/>
			<path fill="#1B2734" stroke="#1B2734" stroke-width="2" stroke-miterlimit="10" d="M74.5,72.9c-0.9,0-1.6,0.7-1.6,1.6v16.3
				c0,2.7-2.2,4.9-4.9,4.9H32c-2.7,0-4.9-2.2-4.9-4.9V74.5c0-0.9-0.7-1.6-1.6-1.6c-0.9,0-1.6,0.7-1.6,1.6v16.3
				c0,4.5,3.7,8.2,8.2,8.2h36c4.5,0,8.2-3.7,8.2-8.2V74.5C76.2,73.6,75.4,72.9,74.5,72.9z"/>
			<path fill="#1B2734" stroke="#1B2734" stroke-width="2" stroke-miterlimit="10" d="M13.1,49.7c2.3,1.6,4.2,2.8,4.2,8.4
				c0,0.9,0.7,1.6,1.6,1.6c0.9,0,1.6-0.7,1.6-1.6c0-7.4-3-9.4-5.6-11.2c-2.1-1.4-3.8-2.5-4.1-6.8h14.7c0.9,0,1.6-0.7,1.6-1.6V15.7
				c0-0.9-0.7-1.6-1.6-1.6s-1.6,0.7-1.6,1.6v21.2H9.1c-0.9,0-1.6,0.7-1.6,1.6C7.5,46,10.5,48,13.1,49.7z"/>
			<path fill="#1B2734" stroke="#1B2734" stroke-width="2" stroke-miterlimit="10" d="M50,7.5c-7.2,0-13.1,5.9-13.1,13.1
				S42.8,33.7,50,33.7s13.1-5.9,13.1-13.1S57.2,7.5,50,7.5z M50,30.4c-5.4,0-9.8-4.4-9.8-9.8s4.4-9.8,9.8-9.8s9.8,4.4,9.8,9.8
				S55.4,30.4,50,30.4z"/>
		</g>
	</g>
</g>
</svg>
