<?xml version="1.0" encoding="utf-8"?>
<!-- Generator: Adobe Illustrator 18.0.0, SVG Export Plug-In . SVG Version: 6.00 Build 0)  -->
<!DOCTYPE svg PUBLIC "-//W3C//DTD SVG 1.1//EN" "http://www.w3.org/Graphics/SVG/1.1/DTD/svg11.dtd">
<svg version="1.1" id="Capa_1" xmlns="http://www.w3.org/2000/svg" xmlns:xlink="http://www.w3.org/1999/xlink" x="0px" y="0px"
	 viewBox="0 0 100 100" enable-background="new 0 0 100 100" xml:space="preserve">
<g>
	<g>
		<g>
			<path fill="#1B2734" stroke="#1B2734" stroke-miterlimit="10" d="M50,38.4h-9.9c-1,0-1.9,0.8-1.9,1.9c0,1,0.8,1.9,1.9,1.9h1.2
				c-1.8,2-3,4.8-3,7.8c0,6.4,5.2,11.6,11.6,11.6S61.6,56.4,61.6,50S56.4,38.4,50,38.4z M50,57.8c-4.3,0-7.8-3.5-7.8-7.8
				s3.5-7.8,7.8-7.8s7.8,3.5,7.8,7.8S54.3,57.8,50,57.8z"/>
			<path fill="#1B2734" stroke="#1B2734" stroke-miterlimit="10" d="M50,9.7h-9.9c-1,0-1.9,0.8-1.9,1.9s0.8,1.9,1.9,1.9h1.2
				c-1.8,2-3,4.8-3,7.8C38.4,27.8,43.6,33,50,33s11.6-5.3,11.6-11.6C61.6,15,56.4,9.7,50,9.7z M50,29.1c-4.3,0-7.8-3.5-7.8-7.8
				s3.5-7.8,7.8-7.8s7.8,3.5,7.8,7.8S54.3,29.1,50,29.1z"/>
			<path fill="#1B2734" stroke="#1B2734" stroke-miterlimit="10" d="M50,67.1h-9.9c-1,0-1.9,0.8-1.9,1.9c0,1,0.8,1.9,1.9,1.9h1.2
				c-1.8,2-3,4.8-3,7.8c0,6.4,5.2,11.6,11.6,11.6S61.6,85,61.6,78.6C61.6,72.3,56.4,67.1,50,67.1z M50,86.4c-4.3,0-7.8-3.5-7.8-7.8
				s3.5-7.8,7.8-7.8s7.8,3.5,7.8,7.8S54.3,86.4,50,86.4z"/>
			<path fill="#1B2734" stroke="#1B2734" stroke-miterlimit="10" d="M34.6,9.7L34.6,9.7c-1.1,0-1.9,0.8-1.9,1.9s0.8,1.9,1.9,1.9l0,0
				c1,0,1.9-0.8,1.9-1.9S35.6,9.7,34.6,9.7z"/>
			<path fill="#1B2734" stroke="#1B2734" stroke-miterlimit="10" d="M34.6,38.4L34.6,38.4c-1.1,0-1.9,0.8-1.9,1.9
				c0,1,0.8,1.9,1.9,1.9l0,0c1,0,1.9-0.8,1.9-1.9C36.5,39.3,35.6,38.4,34.6,38.4z"/>
			<path fill="#1B2734" stroke="#1B2734" stroke-miterlimit="10" d="M34.6,67.1L34.6,67.1c-1.1,0-1.9,0.8-1.9,1.9
				c0,1,0.8,1.9,1.9,1.9l0,0c1,0,1.9-0.8,1.9-1.9C36.5,67.9,35.6,67.1,34.6,67.1z"/>
			<path fill="#1B2734" stroke="#1B2734" stroke-miterlimit="10" d="M78.1,19.5c2.7,0,4.8-2.1,4.8-4.8v-2.9c0-1-0.8-1.9-1.9-1.9
				h-5.8V6.3c0-3.2-2.6-5.8-5.8-5.8H30.7c-3.2,0-5.8,2.6-5.8,5.8v3.5H19c-1,0-1.9,0.8-1.9,1.9v2.9c0,2.7,2.1,4.8,4.8,4.8h2.9v19
				h-5.8c-1,0-1.9,0.8-1.9,1.9v2.9c0,2.7,2.1,4.8,4.8,4.8h2.9v19h-5.8c-1,0-1.9,0.8-1.9,1.9v2.9c0,2.7,2.1,4.8,4.8,4.8h2.9v17.1
				c0,3.2,2.6,5.8,5.8,5.8h38.7c3.2,0,5.8-2.6,5.8-5.8v-17h2.9c2.7,0,4.8-2.1,4.8-4.8V69c0-1-0.8-1.9-1.9-1.9h-5.8v-19h2.9
				c2.7,0,4.8-2.1,4.8-4.8v-2.9c0-1-0.8-1.9-1.9-1.9h-5.8v-19H78.1z M75.1,13.6H79v0.9c0,0.5-0.4,0.9-0.9,0.9h-2.9v-1.8H75.1z
				 M24.9,72.9H22c-0.5,0-0.9-0.4-0.9-0.9V71H25v1.8H24.9z M24.9,44.2H22c-0.5,0-0.9-0.4-0.9-0.9v-0.9H25v1.8H24.9z M24.9,15.6H22
				c-0.5,0-0.9-0.4-0.9-0.9v-0.9H25v1.8H24.9z M71.3,11.7v5.8v22.9v5.8v22.9v5.8v19c0,1-0.8,1.9-1.9,1.9H30.7c-1,0-1.9-0.8-1.9-1.9
				V74.8V69V46.1v-5.8V17.5v-5.8V6.3c0-1,0.8-1.9,1.9-1.9h38.7c1,0,1.9,0.8,1.9,1.9v5.4H71.3z M79,70.9v0.9c0,0.5-0.4,0.9-0.9,0.9
				h-2.9v-1.9H79V70.9z M79,42.2v0.9c0,0.5-0.4,0.9-0.9,0.9h-2.9v-1.9H79V42.2z"/>
		</g>
	</g>
</g>
</svg>
