<?xml version="1.0" encoding="utf-8"?>
<!-- Generator: Adobe Illustrator 18.0.0, SVG Export Plug-In . SVG Version: 6.00 Build 0)  -->
<!DOCTYPE svg PUBLIC "-//W3C//DTD SVG 1.1//EN" "http://www.w3.org/Graphics/SVG/1.1/DTD/svg11.dtd">
<svg version="1.1" id="Capa_1" xmlns="http://www.w3.org/2000/svg" xmlns:xlink="http://www.w3.org/1999/xlink" x="0px" y="0px"
	 viewBox="0 0 100 100" enable-background="new 0 0 100 100" xml:space="preserve">
<g>
	
		<line fill="none" stroke="#1B2734" stroke-width="6" stroke-linecap="round" stroke-miterlimit="10" x1="35.8" y1="52.5" x2="16.3" y2="38"/>
	
		<line fill="none" stroke="#1B2734" stroke-width="6" stroke-linecap="round" stroke-miterlimit="10" x1="35.8" y1="23.5" x2="16.3" y2="38"/>
	
		<line fill="none" stroke="#1B2734" stroke-width="6" stroke-linecap="round" stroke-miterlimit="10" x1="58.5" y1="38" x2="16.3" y2="38"/>
</g>
<g>
	<path fill="#1B2734" stroke="#1B2734" stroke-width="4" stroke-miterlimit="10" d="M49,1C22.6,1,1,22.6,1,49s21.6,48,48,48
		s48-21.6,48-48S75.4,1,49,1z M49,93.9C24.3,93.9,4.1,73.7,4.1,49S24.3,4.1,49,4.1S93.9,24.3,93.9,49S73.7,93.9,49,93.9z"/>
</g>
<g>
	
		<line fill="none" stroke="#1B2734" stroke-width="6" stroke-linecap="round" stroke-miterlimit="10" x1="61" y1="47.5" x2="80.5" y2="62"/>
	
		<line fill="none" stroke="#1B2734" stroke-width="6" stroke-linecap="round" stroke-miterlimit="10" x1="61" y1="76.5" x2="80.5" y2="62"/>
	
		<line fill="none" stroke="#1B2734" stroke-width="6" stroke-linecap="round" stroke-miterlimit="10" x1="38.3" y1="62" x2="80.5" y2="62"/>
</g>
</svg>
