<?xml version="1.0" encoding="utf-8"?>
<!-- Generator: Adobe Illustrator 18.0.0, SVG Export Plug-In . SVG Version: 6.00 Build 0)  -->
<!DOCTYPE svg PUBLIC "-//W3C//DTD SVG 1.1//EN" "http://www.w3.org/Graphics/SVG/1.1/DTD/svg11.dtd">
<svg version="1.1" id="Capa_1" xmlns="http://www.w3.org/2000/svg" xmlns:xlink="http://www.w3.org/1999/xlink" x="0px" y="0px"
	 viewBox="0 0 100 100" enable-background="new 0 0 100 100" xml:space="preserve">
<g>
	<g>
		<path fill="#1B2734" stroke="#1B2734" stroke-width="2" stroke-miterlimit="10" d="M74.5,37.9H45.2c-0.9,0-1.7,0.8-1.7,1.7
			s0.8,1.7,1.7,1.7h29.3c0.9,0,1.7-0.8,1.7-1.7S75.4,37.9,74.5,37.9z"/>
		<path fill="#1B2734" stroke="#1B2734" stroke-width="2" stroke-miterlimit="10" d="M84.6,10.9H71.1V7.5c0-0.9-0.8-1.7-1.7-1.7
			H59.3V2.5c0-0.9-0.8-1.7-1.7-1.7H42.4c-0.9,0-1.7,0.8-1.7,1.7v3.4H30.6c-0.9,0-1.7,0.8-1.7,1.7V11H15.4c-0.9,0-1.7,0.8-1.7,1.7
			v84.5c0,0.9,0.8,1.7,1.7,1.7h69.3c0.9,0,1.7-0.8,1.7-1.7V12.6C86.3,11.7,85.6,10.9,84.6,10.9z M44.1,7.5V4.1h11.8v3.4v3.4H44.1
			V7.5z M32.3,12.6V9.2h8.4v3.4c0,0.9,0.8,1.7,1.7,1.7h15.2c0.9,0,1.7-0.8,1.7-1.7V9.2h8.4v3.4V16H32.3V12.6z M17.1,14.3h11.8v3.4
			c0,0.9,0.8,1.7,1.7,1.7h38.9c0.9,0,1.7-0.8,1.7-1.7v-3.4H83v81.1H17.1V14.3z"/>
	</g>
	<path fill="#1B2734" stroke="#1B2734" stroke-width="2" stroke-miterlimit="10" d="M74.5,52.8H35.2c-0.9,0-1.7,0.8-1.7,1.7
		s0.8,1.7,1.7,1.7h39.3c0.9,0,1.7-0.8,1.7-1.7S75.4,52.8,74.5,52.8z"/>
	<path fill="#1B2734" stroke="#1B2734" stroke-width="2" stroke-miterlimit="10" d="M74.5,67.6h-49c-0.9,0-1.7,0.8-1.7,1.7
		s0.8,1.7,1.7,1.7h49c0.9,0,1.7-0.8,1.7-1.7S75.4,67.6,74.5,67.6z"/>
	<path fill="#1B2734" stroke="#1B2734" stroke-width="2" stroke-miterlimit="10" d="M74.5,82.5h-49c-0.9,0-1.7,0.8-1.7,1.7
		c0,0.9,0.8,1.7,1.7,1.7h49c0.9,0,1.7-0.8,1.7-1.7C76.2,83.2,75.4,82.5,74.5,82.5z"/>
</g>
<g>
	<g>
		<path stroke="#000000" stroke-width="2" stroke-miterlimit="10" d="M74.5-112.1H45.2c-0.9,0-1.7,0.8-1.7,1.7
			c0,0.9,0.8,1.7,1.7,1.7h29.3c0.9,0,1.7-0.8,1.7-1.7C76.2-111.3,75.4-112.1,74.5-112.1z"/>
		<path stroke="#000000" stroke-width="2" stroke-miterlimit="10" d="M84.6-139.1H71.1v-3.4c0-0.9-0.8-1.7-1.7-1.7H59.3v-3.3
			c0-0.9-0.8-1.7-1.7-1.7H42.4c-0.9,0-1.7,0.8-1.7,1.7v3.4H30.6c-0.9,0-1.7,0.8-1.7,1.7v3.4H15.4c-0.9,0-1.7,0.8-1.7,1.7v84.5
			c0,0.9,0.8,1.7,1.7,1.7h69.3c0.9,0,1.7-0.8,1.7-1.7v-84.6C86.3-138.3,85.6-139.1,84.6-139.1z M44.1-142.5v-3.4h11.8v3.4v3.4H44.1
			V-142.5z M32.3-137.4v-3.4h8.4v3.4c0,0.9,0.8,1.7,1.7,1.7h15.2c0.9,0,1.7-0.8,1.7-1.7v-3.4h8.4v3.4v3.4H32.3V-137.4z M17.1-135.7
			h11.8v3.4c0,0.9,0.8,1.7,1.7,1.7h38.9c0.9,0,1.7-0.8,1.7-1.7v-3.4H83v81.1H17.1V-135.7z"/>
	</g>
	<path stroke="#000000" stroke-width="2" stroke-miterlimit="10" d="M74.5-97.2H45.2c-0.9,0-1.7,0.8-1.7,1.7s0.8,1.7,1.7,1.7h29.3
		c0.9,0,1.7-0.8,1.7-1.7S75.4-97.2,74.5-97.2z"/>
	<path stroke="#000000" stroke-width="2" stroke-miterlimit="10" d="M74.5-82.4h-49c-0.9,0-1.7,0.8-1.7,1.7s0.8,1.7,1.7,1.7h49
		c0.9,0,1.7-0.8,1.7-1.7S75.4-82.4,74.5-82.4z"/>
	<path stroke="#000000" stroke-width="2" stroke-miterlimit="10" d="M74.5-67.5h-49c-0.9,0-1.7,0.8-1.7,1.7c0,0.9,0.8,1.7,1.7,1.7
		h49c0.9,0,1.7-0.8,1.7-1.7C76.2-66.8,75.4-67.5,74.5-67.5z"/>
	<path stroke="#000000" stroke-width="2" stroke-miterlimit="10" d="M38.2-104.3l-8.4,8.4l-4.2-4.2c-0.7-0.7-1.7-0.7-2.4,0
		c-0.7,0.7-0.7,1.7,0,2.4l5.4,5.4l0,0l0,0l0,0c0.1,0.1,0.2,0.1,0.2,0.2c0.2,0.2,0.5,0.2,0.8,0.3h0.1h0.1c0.2,0,0.4,0,0.5-0.1
		c0,0,0.1,0,0.1-0.1c0.1,0,0.1-0.1,0.2-0.1c0.1-0.1,0.2-0.1,0.3-0.2l9.6-9.6c0.7-0.7,0.7-1.7,0-2.4S38.8-105,38.2-104.3z"/>
</g>
</svg>
