<?xml version="1.0" encoding="utf-8"?>
<!-- Generator: Adobe Illustrator 18.0.0, SVG Export Plug-In . SVG Version: 6.00 Build 0)  -->
<!DOCTYPE svg PUBLIC "-//W3C//DTD SVG 1.1//EN" "http://www.w3.org/Graphics/SVG/1.1/DTD/svg11.dtd">
<svg version="1.1" id="Capa_1" xmlns="http://www.w3.org/2000/svg" xmlns:xlink="http://www.w3.org/1999/xlink" x="0px" y="0px"
	 viewBox="0 0 1000 1000" enable-background="new 0 0 1000 1000" xml:space="preserve">
<path fill="#1B2734" stroke="#1B2734" stroke-width="30" stroke-miterlimit="10" d="M976,960L772,748c52-52,84-124,84-203
	c0-159-129-288-288-288S280,386,280,545s129,287,288,287c70,0,133-25,184-66l204,213c3,3,6,4,10,4c3,0,7-2,9-4
	C981,975,981,966,976,960z M568,805c-144,0-261-117-261-261s117-261,261-261s261,117,261,261S712,805,568,805z"/>
<g>
	<g>
		<path fill="#FFFFFF" stroke="#FFFFFF" stroke-width="50" stroke-linejoin="round" stroke-miterlimit="10" d="M710.6,0L534.2,462.1
			h-58L360.1,160.7L244,462.1h-58L9.7,0h98.2l109.4,323.7l98.2-285.7L328.9,0h69.2l13.4,37.9l96,285.7L616.8,0
			C616.8,0,710.6,0,710.6,0z"/>
	</g>
	<g>
		<path fill="#1B2734" stroke="#1B2734" stroke-width="2" stroke-miterlimit="10" d="M710.6,0L534.2,462.1h-58L360.1,160.7
			L244,462.1h-58L9.7,0h98.2l109.4,323.7l98.2-285.7L328.9,0h69.2l13.4,37.9l96,285.7L616.8,0C616.8,0,710.6,0,710.6,0z"/>
	</g>
</g>
</svg>
