<?xml version="1.0" encoding="utf-8"?>
<!-- Generator: Adobe Illustrator 18.0.0, SVG Export Plug-In . SVG Version: 6.00 Build 0)  -->
<!DOCTYPE svg PUBLIC "-//W3C//DTD SVG 1.1//EN" "http://www.w3.org/Graphics/SVG/1.1/DTD/svg11.dtd">
<svg version="1.1" id="Capa_1" xmlns="http://www.w3.org/2000/svg" xmlns:xlink="http://www.w3.org/1999/xlink" x="0px" y="0px"
	 viewBox="0 0 100 100" enable-background="new 0 0 100 100" xml:space="preserve">
<path fill="#1B2734" stroke="#1B2734" stroke-width="2" stroke-miterlimit="10" d="M97.5,50C97.5,23.8,76.2,2.5,50,2.5
	S2.5,23.8,2.5,50c0,13.9,6,26.3,15.4,35l0,0l1.5,1.3c0.1,0.1,0.2,0.2,0.3,0.2c0.9,0.7,1.7,1.3,2.6,1.9c0.3,0.2,0.6,0.4,0.9,0.6
	c0.9,0.7,1.9,1.2,2.8,1.8c0.2,0.1,0.4,0.3,0.7,0.4c1,0.6,2.2,1.1,3.2,1.7c0.1,0,0.2,0.1,0.3,0.1c3.6,1.7,7.5,2.9,11.5,3.6
	c0.1,0,0.2,0,0.3,0.1c1.2,0.2,2.5,0.4,3.8,0.5c0.2,0,0.3,0,0.5,0c1.2,0.1,2.6,0.2,3.9,0.2c1.3,0,2.6-0.1,3.8-0.2c0.2,0,0.3,0,0.5,0
	c1.2-0.1,2.6-0.3,3.8-0.5c0.1,0,0.2,0,0.3-0.1c4-0.7,7.8-1.9,11.3-3.5c0.1-0.1,0.3-0.1,0.4-0.2c1-0.5,2.1-1,3.1-1.6
	c0.3-0.2,0.5-0.3,0.8-0.5c0.9-0.6,1.8-1.1,2.8-1.7c0.3-0.2,0.7-0.5,1-0.7c0.8-0.6,1.5-1.1,2.2-1.7c0.2-0.1,0.4-0.3,0.5-0.4L82,85
	l0,0C91.5,76.4,97.5,63.9,97.5,50z M5.9,50C5.9,25.7,25.7,5.9,50,5.9S94.1,25.7,94.1,50c0,13.1-5.7,24.9-14.8,33
	c-0.5-0.4-1-0.7-1.5-1L63,74.7c-1.3-0.7-2.1-2-2.1-3.4v-5.1c0.4-0.4,0.7-0.9,1-1.4c1.9-2.7,3.4-5.6,4.6-8.8c2.2-1,3.6-3.2,3.6-5.7
	v-6.1c0-1.5-0.6-2.9-1.5-4.1V32c0.1-0.9,0.4-6-3.2-10.2c-3.2-3.6-8.4-5.5-15.3-5.5s-12.2,1.8-15.3,5.5C31,26,31.4,31,31.5,31.9V40
	c-1,1.1-1.5,2.6-1.5,4.1v6.1c0,1.9,0.9,3.7,2.3,4.8c1.4,5.5,4.3,9.6,5.3,11v5c0,1.4-0.8,2.7-2,3.4l-13.7,7.4
	c-0.5,0.2-0.9,0.5-1.3,0.9C11.6,74.7,5.9,63,5.9,50z M75.8,85.6c-0.6,0.5-1.2,0.9-1.8,1.2c-0.3,0.2-0.6,0.4-0.9,0.6
	c-0.9,0.5-1.6,0.9-2.5,1.4c-0.2,0.1-0.4,0.2-0.6,0.3c-1.9,1-4,1.9-6,2.6c-0.1,0-0.2,0.1-0.2,0.1c-1,0.4-2.2,0.7-3.3,1l0,0
	c-1.1,0.3-2.3,0.5-3.4,0.7H57c-1,0.2-2.2,0.3-3.2,0.4c-0.2,0-0.4,0-0.6,0C52.2,94,51,94,50,94c-1.1,0-2.2-0.1-3.2-0.1
	c-0.2,0-0.4,0-0.6,0c-1.1-0.1-2.2-0.2-3.2-0.4c-0.1,0-0.1,0-0.2,0c-2.3-0.4-4.6-0.9-6.7-1.7c-0.1,0-0.1,0-0.2-0.1
	c-1-0.4-2.2-0.8-3.2-1.2l0,0c-1-0.5-2-1-2.9-1.4c-0.1-0.1-0.3-0.1-0.4-0.2c-0.9-0.5-1.7-1-2.6-1.5c-0.3-0.2-0.5-0.3-0.8-0.5
	c-0.8-0.5-1.5-1-2.3-1.6c-0.3,0-0.3,0-0.4-0.1c0.1,0,0.1-0.1,0.2-0.1l13.6-7.4c2.4-1.2,3.8-3.7,3.8-6.5V65l-0.4-0.5
	c0,0-3.8-4.6-5.2-10.7L35.2,53l-0.6-0.4c-0.9-0.6-1.3-1.4-1.3-2.4v-6.1c0-0.8,0.4-1.5,1-2.1l0.6-0.5v-9.8v-0.2c0,0-0.5-4.2,2.4-7.5
	c2.5-2.8,6.7-4.3,12.7-4.3c5.9,0,10.2,1.4,12.7,4.3c2.9,3.3,2.5,7.5,2.5,7.6v9.9l0.6,0.5c0.7,0.6,0.9,1.3,0.9,2.1v6.1
	c0,1.2-0.9,2.4-2,2.8l-0.9,0.3l-0.3,0.9c-1,3.1-2.5,6.1-4.3,8.6c-0.5,0.7-0.9,1.2-1.2,1.6l-0.5,0.5v6.4c0,2.8,1.5,5.3,4.1,6.6
	l14.6,7.3c0.1,0,0.2,0.1,0.3,0.2C76.2,85.3,76,85.5,75.8,85.6z"/>
</svg>
