<?xml version="1.0" encoding="utf-8"?>
<!-- Generator: Adobe Illustrator 18.0.0, SVG Export Plug-In . SVG Version: 6.00 Build 0)  -->
<!DOCTYPE svg PUBLIC "-//W3C//DTD SVG 1.1//EN" "http://www.w3.org/Graphics/SVG/1.1/DTD/svg11.dtd">
<svg version="1.1" id="Artwork" xmlns="http://www.w3.org/2000/svg" xmlns:xlink="http://www.w3.org/1999/xlink" x="0px" y="0px"
	 viewBox="0 0 100 100" enable-background="new 0 0 100 100" xml:space="preserve">
<g>
	<path fill="#1B2734" stroke="#1B2734" stroke-width="4" stroke-miterlimit="10" d="M50,2C23.6,2,2,23.6,2,50s21.6,48,48,48
		s48-21.6,48-48S76.4,2,50,2z M50,94.9C25.3,94.9,5.1,74.7,5.1,50S25.3,5.1,50,5.1S94.9,25.3,94.9,50S74.7,94.9,50,94.9z"/>
</g>
<g>
	<path fill="#1B2734" d="M35.8,66.1L23.4,33.9h5.1l8.7,23.7l8.6-23.7h5.1L38.5,66.1H35.8z"/>
	<path fill="#1B2734" d="M49.3,66.5c-1.7,0-3-1.3-3-3c0-1.6,1.3-3,3-3c1.7,0,3,1.3,3,3C52.3,65.2,51,66.5,49.3,66.5z"/>
	<path fill="#1B2734" d="M76.6,44.4v11.3h0c-0.1,6.3-5,10.9-11,10.9c-6,0-10.9-4.6-11-10.9V44.4c0.1-6.2,5-10.8,11-10.8
		C71.6,33.5,76.5,38.1,76.6,44.4L76.6,44.4z M72.1,44.5c0-3.9-3-6.6-6.6-6.6c-3.6,0-6.6,2.7-6.6,6.6v10.9c0,3.9,3,6.6,6.6,6.6
		c3.6,0,6.6-2.7,6.6-6.6V44.5z"/>
</g>
<path fill="#1B2734" d="M59.2,60l8.6-23.7h5.1L62.3,63.9L59.2,60z"/>
</svg>
