<?xml version="1.0" encoding="utf-8"?>
<!-- Generator: Adobe Illustrator 18.0.0, SVG Export Plug-In . SVG Version: 6.00 Build 0)  -->
<!DOCTYPE svg PUBLIC "-//W3C//DTD SVG 1.1//EN" "http://www.w3.org/Graphics/SVG/1.1/DTD/svg11.dtd">
<svg version="1.1" id="Layer_1" xmlns="http://www.w3.org/2000/svg" xmlns:xlink="http://www.w3.org/1999/xlink" x="0px" y="0px"
	 viewBox="0 0 400 400" enable-background="new 0 0 400 400" xml:space="preserve">
<g>
	<path fill="#C9C9C9" d="M350,200c0,40.4-16,77.1-42,104.1l35.4,35.4c35.1-36,56.7-85.2,56.7-139.5C400,90.5,312.1,1.6,203,0v50
		C284.5,51.6,350,118.1,350,200z"/>
	<path fill="#327ABD" d="M303.7,308.4C276.8,334.1,240.2,350,200,350c-82.8,0-150-67.2-150-150c0-81.8,65.5-148.4,147-150V0
		C87.9,1.6,0,90.5,0,200c0,110.5,89.5,200,200,200c54,0,103.1-21.4,139.1-56.3L303.7,308.4z"/>
</g>
<rect y="135.5" fill="none" width="400" height="129"/>
<text transform="matrix(1 0 0 1 122.5625 195.54)"><tspan x="0" y="0" opacity="0.5" enable-background="new    " font-family="'OpenSans'" font-size="79">63,8 </tspan><tspan x="13.8" y="58.8" enable-background="new    " font-family="'OpenSans'" font-size="49">Score</tspan></text>
</svg>
