<?xml version="1.0" encoding="utf-8"?>
<!-- Generator: Adobe Illustrator 18.0.0, SVG Export Plug-In . SVG Version: 6.00 Build 0)  -->
<!DOCTYPE svg PUBLIC "-//W3C//DTD SVG 1.1//EN" "http://www.w3.org/Graphics/SVG/1.1/DTD/svg11.dtd">
<svg version="1.1" id="Layer_1" xmlns="http://www.w3.org/2000/svg" xmlns:xlink="http://www.w3.org/1999/xlink" x="0px" y="0px"
	 viewBox="0 0 400 400" enable-background="new 0 0 400 400" xml:space="preserve">
<g>
	<path fill="#C9C9C9" d="M203,0v50c81.5,1.6,147,68.1,147,150c0,82.8-67.2,150-150,150c-26.6,0-51.5-6.9-73.2-19l-25.3,43.1
		c29.1,16.5,62.7,25.9,98.5,25.9c110.5,0,200-89.5,200-200C400,90.5,312.1,1.6,203,0z"/>
	<path fill="#337BBC" d="M121.6,327.9C78.7,301.5,50,254.1,50,200c0-81.8,65.5-148.4,147-150V0C87.9,1.6,0,90.5,0,200
		c0,72.5,38.6,136,96.3,171L121.6,327.9z"/>
</g>
<rect x="-2" y="136.5" fill="none" width="400" height="129"/>
<text transform="matrix(1 0 0 1 120.5625 196.54)"><tspan x="0" y="0" opacity="0.5" enable-background="new    " font-family="'OpenSans'" font-size="79">41,9 </tspan><tspan x="13.8" y="58.8" enable-background="new    " font-family="'OpenSans'" font-size="49">Score</tspan></text>
</svg>
