<?xml version="1.0" encoding="utf-8"?>
<!-- Generator: Adobe Illustrator 18.0.0, SVG Export Plug-In . SVG Version: 6.00 Build 0)  -->
<!DOCTYPE svg PUBLIC "-//W3C//DTD SVG 1.1//EN" "http://www.w3.org/Graphics/SVG/1.1/DTD/svg11.dtd">
<svg version="1.1" id="Layer_1" xmlns="http://www.w3.org/2000/svg" xmlns:xlink="http://www.w3.org/1999/xlink" x="0px" y="0px"
	 viewBox="0 0 400 400" enable-background="new 0 0 400 400" xml:space="preserve">
<g>
	<path fill="#C9C9C9" d="M350,200c0,13.3-1.7,26.2-5,38.5l48.1,13.7c4.5-16.6,6.9-34.1,6.9-52.2C400,90.5,312.1,1.6,203,0v50
		C284.5,51.6,350,118.1,350,200z"/>
	<path fill="#337BBC" d="M343.3,244.3C324.4,305.5,267.4,350,200,350c-82.8,0-150-67.2-150-150c0-81.8,65.5-148.4,147-150V0
		C87.9,1.6,0,90.5,0,200c0,110.5,89.5,200,200,200c90.3,0,166.6-59.8,191.4-142L343.3,244.3z"/>
</g>
<rect x="-1" y="137.5" fill="none" width="400" height="129"/>
<text transform="matrix(1 0 0 1 121.5625 197.54)"><tspan x="0" y="0" opacity="0.5" enable-background="new    " font-family="'OpenSans'" font-size="79">70,4 </tspan><tspan x="13.8" y="58.8" enable-background="new    " font-family="'OpenSans'" font-size="49">Score</tspan></text>
</svg>
