<?xml version="1.0" encoding="utf-8"?>
<!-- Generator: Adobe Illustrator 18.0.0, SVG Export Plug-In . SVG Version: 6.00 Build 0)  -->
<!DOCTYPE svg PUBLIC "-//W3C//DTD SVG 1.1//EN" "http://www.w3.org/Graphics/SVG/1.1/DTD/svg11.dtd">
<svg version="1.1" id="Layer_1" xmlns="http://www.w3.org/2000/svg" xmlns:xlink="http://www.w3.org/1999/xlink" x="0px" y="0px"
	 viewBox="0 0 400 400" enable-background="new 0 0 400 400" xml:space="preserve">
<path fill="#DC665A" d="M229.9,397.8c14.5-2.2,28.4-5.9,41.7-11c0,0,0,0,0,0c1.4-0.5,2.7-1.1,4.1-1.6c0.2-0.1,0.4-0.2,0.7-0.3
	c1.1-0.5,2.3-1,3.4-1.4c0.4-0.2,0.9-0.4,1.3-0.6c0.9-0.4,1.8-0.8,2.7-1.2c0.7-0.3,1.3-0.6,2-0.9c0.7-0.3,1.3-0.6,2-1
	c0.9-0.4,1.8-0.9,2.7-1.3c0.4-0.2,0.9-0.4,1.3-0.7c1.1-0.6,2.2-1.1,3.3-1.7c0.2-0.1,0.4-0.2,0.6-0.3c1.3-0.7,2.6-1.4,3.8-2.1
	c0,0,0,0,0.1,0c12.3-7.1,24-15.6,34.9-25.4c0.2-0.2,0.4-0.4,0.6-0.6c0.9-0.9,1.9-1.7,2.8-2.6c17-16.2,31.2-35.4,41.7-56.7
	c0.1-0.1,0.1-0.2,0.2-0.3c0.6-1.3,1.2-2.6,1.9-3.9c0.1-0.2,0.2-0.5,0.3-0.7c0.5-1.2,1.1-2.3,1.6-3.5c0.2-0.4,0.3-0.7,0.5-1.1
	c0.4-1,0.9-2.1,1.3-3.1c0.2-0.5,0.4-1,0.6-1.5c0.4-0.9,0.7-1.8,1.1-2.8c0.2-0.6,0.5-1.3,0.7-1.9c0.3-0.8,0.6-1.6,0.8-2.4
	c0.3-0.8,0.6-1.6,0.8-2.4c0.2-0.6,0.4-1.3,0.6-1.9c0.3-0.9,0.6-1.9,0.9-2.8c0.2-0.5,0.3-1,0.5-1.5c0.3-1.1,0.7-2.2,1-3.3
	c0.1-0.4,0.2-0.8,0.3-1.1c0.3-1.2,0.7-2.5,1-3.7c0.1-0.2,0.1-0.5,0.2-0.7c0.4-1.4,0.7-2.8,1-4.2c0-0.1,0.1-0.2,0.1-0.3
	c4.8-21,6.2-42.6,4.2-63.9c0,0,0-0.1,0-0.1c-0.4-3.9-0.9-7.8-1.5-11.7c-0.1-0.7-0.2-1.3-0.3-2c-0.2-1.1-0.4-2.3-0.6-3.4
	c-0.2-0.8-0.3-1.6-0.5-2.5c-0.2-1-0.4-1.9-0.6-2.9c-0.3-1.4-0.6-2.7-0.9-4.1c-0.3-1.1-0.5-2.2-0.8-3.3c-0.2-1-0.5-2-0.8-3
	c-0.2-0.8-0.4-1.5-0.6-2.3c-0.3-1-0.6-1.9-0.8-2.9c-0.2-0.8-0.5-1.6-0.7-2.4c-0.3-0.9-0.6-1.8-0.9-2.8c-0.3-1-0.6-1.9-1-2.9
	c-0.4-1-0.7-2.1-1.1-3.1c-0.5-1.3-1-2.7-1.5-4c-0.3-0.7-0.5-1.3-0.8-2c-0.4-1.1-0.8-2.1-1.3-3.2c-0.3-0.7-0.6-1.3-0.9-2
	c-0.5-1.1-0.9-2.1-1.4-3.2c-0.3-0.6-0.6-1.3-0.9-1.9c-0.5-1.2-1.1-2.4-1.7-3.5c-0.2-0.5-0.5-1-0.7-1.5c-0.8-1.5-1.5-3-2.3-4.6
	c-0.1-0.2-0.2-0.3-0.3-0.5l0,0c-12.1-22.7-28.9-43.4-50.1-60.7c-26.5-21.6-56.8-35.2-88.1-41.3l-8.8,49.2
	c23.2,4.6,45.6,14.8,65.2,30.8c64.2,52.3,73.9,146.8,21.6,211c-2.7,3.4-5.6,6.6-8.6,9.6c-14.7,15.1-32.5,27.2-52.5,35.1
	c-0.1,0-0.2,0.1-0.4,0.1c-0.9,0.4-1.9,0.7-2.8,1.1c-0.2,0.1-0.5,0.2-0.7,0.3c-0.8,0.3-1.7,0.6-2.5,0.9c-0.3,0.1-0.7,0.2-1,0.3
	c-0.8,0.3-1.6,0.5-2.4,0.8c-0.4,0.1-0.8,0.2-1.2,0.4c-0.8,0.2-1.6,0.5-2.3,0.7c-0.4,0.1-0.8,0.2-1.2,0.3c-0.8,0.2-1.7,0.5-2.5,0.7
	c-0.3,0.1-0.7,0.2-1,0.3c-1,0.2-2,0.5-2.9,0.7c-0.2,0-0.3,0.1-0.5,0.1c-10.8,2.5-22.1,3.8-33.7,3.8c-64.4,0-119.3-40.6-140.6-97.6
	c-0.1-0.3-0.2-0.6-0.4-0.9c-0.1-0.3-0.2-0.7-0.4-1c-3.4-9.6-5.8-19.5-7.2-29.6c0-0.3-0.1-0.6-0.1-0.9c-0.1-0.7-0.2-1.5-0.3-2.2
	c-0.1-0.6-0.1-1.1-0.2-1.7c-0.1-0.5-0.1-1-0.2-1.5c-0.1-0.9-0.2-1.7-0.2-2.6c0-0.3,0-0.5-0.1-0.8c-0.3-3.7-0.4-7.4-0.4-11.2
	c0-81.8,65.5-148.4,147-150V0C134.6,0.9,79.1,30.4,43,76l0,0c0,0.1-0.1,0.1-0.1,0.2c-1,1.2-1.9,2.4-2.8,3.7
	c-0.1,0.1-0.2,0.2-0.2,0.3c-0.9,1.2-1.9,2.5-2.8,3.8c-0.1,0.1-0.1,0.2-0.2,0.3c-0.9,1.2-1.7,2.5-2.6,3.7c-0.1,0.1-0.2,0.3-0.3,0.4
	c-0.8,1.2-1.5,2.3-2.3,3.5c-0.2,0.2-0.3,0.5-0.5,0.7c-0.6,1-1.2,2-1.9,3c-0.3,0.4-0.5,0.9-0.8,1.3c-0.4,0.7-0.8,1.3-1.2,2
	C5.3,136.4-3.2,179.1,1,220.5c0,0,0,0,0,0c0.1,1.4,0.3,2.9,0.5,4.3c0,0.3,0.1,0.7,0.1,1c0.1,1,0.3,2,0.4,3c0.1,0.7,0.2,1.5,0.3,2.2
	c0.1,0.4,0.1,0.8,0.2,1.2c2.5,15.6,6.8,30.5,12.7,44.7c0,0.1,0,0.1,0.1,0.2c0.5,1.2,1,2.4,1.5,3.5c0.2,0.4,0.3,0.7,0.5,1.1
	c0.4,0.9,0.8,1.8,1.2,2.6c0.3,0.7,0.6,1.3,0.9,2c0.3,0.6,0.6,1.2,0.9,1.8c0.5,0.9,0.9,1.9,1.4,2.8c0.2,0.3,0.3,0.6,0.5,0.9
	c0.6,1.2,1.2,2.4,1.9,3.5c0,0.1,0.1,0.1,0.1,0.2c8.3,15.2,18.6,29.5,31,42.5c16.2,17,35.3,31.1,56.6,41.6c0.1,0.1,0.2,0.1,0.3,0.2
	c1.3,0.6,2.6,1.2,3.9,1.9c0.2,0.1,0.5,0.2,0.7,0.3c1.2,0.5,2.3,1.1,3.5,1.6c0.4,0.2,0.7,0.3,1.1,0.5c1,0.4,2.1,0.9,3.1,1.3
	c0.5,0.2,1,0.4,1.5,0.6c0.9,0.4,1.8,0.7,2.8,1.1c0.6,0.2,1.3,0.5,1.9,0.7c0.8,0.3,1.6,0.6,2.4,0.8c0.8,0.3,1.6,0.6,2.4,0.8
	c0.6,0.2,1.3,0.4,2,0.6c0.9,0.3,1.9,0.6,2.8,0.9c0.5,0.2,1,0.3,1.5,0.5c1.1,0.3,2.2,0.7,3.3,1c0.4,0.1,0.8,0.2,1.1,0.3
	c1.2,0.3,2.5,0.7,3.7,1c0.2,0.1,0.5,0.1,0.7,0.2c1.4,0.4,2.8,0.7,4.2,1c0.1,0,0.2,0.1,0.3,0.1c23.1,5.3,46.9,6.5,70.3,3.5
	c1.3-0.2,2.6-0.3,3.9-0.5C229.4,397.8,229.7,397.8,229.9,397.8z"/>
<g>
	<path fill="#C9C9C9" d="M232.3,2.6C222.7,1,213,0.2,203,0v50c7,0.1,13.8,0.8,20.5,1.8L232.3,2.6z"/>
</g>
<g>
	<path opacity="0.5" d="M163,166c0,22.3-8.6,33.5-25.9,33.5c-3,0-5.4-0.3-7.2-0.8v-5.6c2.1,0.7,4.5,1,7.1,1c6.2,0,11-1.9,14.2-5.8
		c3.2-3.9,4.9-9.8,5.2-17.8h-0.5c-1.4,2.2-3.3,3.8-5.7,4.9c-2.4,1.1-5,1.7-8,1.7c-5.1,0-9.1-1.5-12-4.5c-3-3-4.5-7.2-4.5-12.7
		c0-5.9,1.7-10.6,5-14.1s7.7-5.2,13.1-5.2c3.9,0,7.3,1,10.2,3c2.9,2,5.1,4.9,6.7,8.7C162.2,156.3,163,160.8,163,166z M143.8,146.3
		c-3.7,0-6.6,1.2-8.6,3.6c-2,2.4-3,5.7-3,10c0,3.8,0.9,6.7,2.8,8.8s4.7,3.2,8.6,3.2c2.4,0,4.6-0.5,6.5-1.4c2-1,3.6-2.3,4.7-3.9
		c1.1-1.7,1.7-3.4,1.7-5.2c0-2.7-0.5-5.3-1.6-7.6c-1.1-2.3-2.6-4.1-4.5-5.5S146.2,146.3,143.8,146.3z"/>
	<path opacity="0.5" d="M178.4,198.7l23.7-51.1H171v-6h38v5.2l-23.4,51.9H178.4z"/>
	<path opacity="0.5" d="M226.7,189.4l0.6,0.9c-0.7,2.6-1.7,5.6-2.9,9.1c-1.3,3.5-2.6,6.7-4,9.6h-4.9c0.7-2.7,1.5-6.1,2.3-10
		c0.8-4,1.4-7.2,1.8-9.6H226.7z"/>
	<path opacity="0.5" d="M243.8,198.7l23.7-51.1h-31.1v-6h38v5.2L251,198.7H243.8z"/>
	<path d="M160.1,249.2c0,3.1-1.1,5.6-3.4,7.3c-2.3,1.8-5.4,2.6-9.3,2.6c-4.2,0-7.5-0.5-9.8-1.6v-4c1.5,0.6,3.1,1.1,4.8,1.5
		c1.7,0.4,3.4,0.5,5.1,0.5c2.8,0,4.9-0.5,6.2-1.6c1.4-1,2.1-2.5,2.1-4.4c0-1.2-0.2-2.2-0.7-3c-0.5-0.8-1.3-1.5-2.5-2.2
		c-1.2-0.7-2.9-1.4-5.3-2.3c-3.3-1.2-5.7-2.6-7.1-4.2c-1.4-1.6-2.1-3.8-2.1-6.4c0-2.8,1-4.9,3.1-6.6c2.1-1.6,4.8-2.4,8.2-2.4
		c3.5,0,6.8,0.7,9.8,2l-1.3,3.6c-2.9-1.2-5.8-1.9-8.6-1.9c-2.2,0-3.9,0.5-5.2,1.4c-1.2,0.9-1.9,2.3-1.9,3.9c0,1.2,0.2,2.3,0.7,3
		c0.5,0.8,1.2,1.5,2.3,2.2c1.1,0.7,2.7,1.4,5,2.2c3.7,1.3,6.3,2.8,7.7,4.3C159.4,244.8,160.1,246.8,160.1,249.2z"/>
	<path d="M177.4,259.2c-3.9,0-6.9-1.2-9-3.6c-2.1-2.4-3.2-5.8-3.2-10.1c0-4.5,1.1-7.9,3.2-10.4c2.2-2.4,5.2-3.7,9.2-3.7
		c1.3,0,2.6,0.1,3.9,0.4c1.3,0.3,2.3,0.6,3,1l-1.2,3.4c-0.9-0.4-1.9-0.7-2.9-0.9c-1.1-0.2-2-0.4-2.8-0.4c-5.4,0-8.2,3.5-8.2,10.4
		c0,3.3,0.7,5.8,2,7.6c1.3,1.8,3.3,2.6,5.9,2.6c2.2,0,4.5-0.5,6.9-1.4v3.6C182.4,258.7,180.2,259.2,177.4,259.2z"/>
	<path d="M213.6,245.3c0,4.4-1.1,7.8-3.3,10.2c-2.2,2.4-5.2,3.7-9.1,3.7c-2.4,0-4.5-0.6-6.4-1.7s-3.3-2.7-4.3-4.8
		c-1-2.1-1.5-4.6-1.5-7.4c0-4.4,1.1-7.8,3.3-10.2c2.2-2.4,5.2-3.6,9.1-3.6c3.7,0,6.7,1.2,8.9,3.7
		C212.5,237.7,213.6,241.1,213.6,245.3z M193.3,245.3c0,3.4,0.7,6,2.1,7.8c1.4,1.8,3.4,2.7,6,2.7c2.7,0,4.7-0.9,6-2.7
		s2.1-4.4,2.1-7.8c0-3.4-0.7-6-2.1-7.8c-1.4-1.8-3.4-2.6-6.1-2.6c-2.7,0-4.7,0.9-6,2.6C193.9,239.3,193.3,241.9,193.3,245.3z"/>
	<path d="M233,231.5c1.2,0,2.3,0.1,3.2,0.3l-0.6,3.8c-1.1-0.2-2.1-0.4-2.9-0.4c-2.2,0-4,0.9-5.6,2.6c-1.5,1.8-2.3,3.9-2.3,6.6v14.4
		h-4.1V232h3.3l0.5,5h0.2c1-1.7,2.2-3.1,3.6-4C229.7,231.9,231.3,231.5,233,231.5z"/>
	<path d="M252.5,259.2c-4,0-7.1-1.2-9.4-3.6c-2.3-2.4-3.4-5.8-3.4-10c0-4.3,1.1-7.7,3.2-10.3c2.1-2.5,5-3.8,8.6-3.8
		c3.4,0,6,1.1,8,3.3c2,2.2,2.9,5.1,2.9,8.7v2.6h-18.4c0.1,3.1,0.9,5.5,2.4,7.2c1.5,1.6,3.6,2.4,6.4,2.4c2.9,0,5.7-0.6,8.5-1.8v3.6
		c-1.4,0.6-2.8,1.1-4.1,1.3C255.8,259.1,254.3,259.2,252.5,259.2z M251.4,234.9c-2.1,0-3.9,0.7-5.1,2.1c-1.3,1.4-2,3.3-2.3,5.8h14
		c0-2.6-0.6-4.5-1.7-5.9C255.1,235.5,253.5,234.9,251.4,234.9z"/>
</g>
</svg>
