<?xml version="1.0" encoding="utf-8"?>
<!-- Generator: Adobe Illustrator 18.0.0, SVG Export Plug-In . SVG Version: 6.00 Build 0)  -->
<!DOCTYPE svg PUBLIC "-//W3C//DTD SVG 1.1//EN" "http://www.w3.org/Graphics/SVG/1.1/DTD/svg11.dtd">
<svg version="1.1" id="Layer_1" xmlns="http://www.w3.org/2000/svg" xmlns:xlink="http://www.w3.org/1999/xlink" x="0px" y="0px"
	 viewBox="0 0 400 400" enable-background="new 0 0 400 400" xml:space="preserve">
<g>
	<path fill="#C9C9C9" d="M329.7,124.7l43.7-24.3C339.4,41.2,275.9,1.1,203,0v50C257.1,51.1,304.2,80.8,329.7,124.7z"/>
	<path fill="#337BBC" d="M376.4,105.6l-43.7,24.3c11.1,20.9,17.3,44.7,17.3,70c0,82.8-67.2,150-150,150S50,282.8,50,200
		c0-81.8,65.5-148.4,147-150V0C87.9,1.6,0,90.5,0,200c0,110.5,89.5,200,200,200s200-89.5,200-200C400,165.8,391.4,133.7,376.4,105.6
		z"/>
</g>
<rect x="-1" y="137.5" fill="none" width="400" height="129"/>
<text transform="matrix(1 0 0 1 121.5625 197.54)"><tspan x="0" y="0" opacity="0.5" enable-background="new    " font-family="'OpenSans'" font-size="79">82,7 </tspan><tspan x="13.8" y="58.8" enable-background="new    " font-family="'OpenSans'" font-size="49">Score</tspan></text>
</svg>
