<?xml version="1.0" encoding="utf-8"?>
<!-- Generator: Adobe Illustrator 24.1.0, SVG Export Plug-In . SVG Version: 6.00 Build 0)  -->
<svg version="1.1" id="Layer_1" xmlns="http://www.w3.org/2000/svg" xmlns:xlink="http://www.w3.org/1999/xlink" x="0px" y="0px"
	 viewBox="0 0 110.6 110.4" style="enable-background:new 0 0 110.6 110.4;" xml:space="preserve">
<style type="text/css">
	.st0{fill:#FF585D;}
	.st1{fill:#00B388;}
	.st2{fill:#1B2734;}
	.st3{fill:#FFD100;}
</style>
<path class="st0" d="M48,24.8c0,13-10.6,23.6-23.6,23.6S0.9,37.8,0.9,24.8c0-13,10.6-23.6,23.6-23.6S48,11.8,48,24.8"/>
<path class="st1" d="M109.4,85.5c0,13-10.6,23.6-23.6,23.6c-13,0-23.6-10.6-23.6-23.6c0-13,10.6-23.6,23.6-23.6
	C98.8,61.9,109.4,72.4,109.4,85.5"/>
<rect x="1.6" y="61.9" class="st2" width="47.2" height="47.2"/>
<path class="st3" d="M85.9,1.2c13,0,23.6,10.6,23.6,23.6c0,13-10.6,23.6-23.6,23.6c-13,0-23.6-10.6-23.6-23.6
	C62.3,11.8,72.8,1.2,85.9,1.2"/>
</svg>
