<?xml version="1.0" encoding="utf-8"?>
<!-- Generator: Adobe Illustrator 24.3.0, SVG Export Plug-In . SVG Version: 6.00 Build 0)  -->
<svg version="1.1" id="Layer_1" xmlns="http://www.w3.org/2000/svg" xmlns:xlink="http://www.w3.org/1999/xlink" x="0px" y="0px"
	 viewBox="0 0 100 100" style="enable-background:new 0 0 100 100;" xml:space="preserve">
<style type="text/css">
	.st0{fill:#1B2734;}
</style>
<g>
	<path class="st0" d="M84.9,27.4c-3.4-3.3-7.7-6.1-12.1-7.9c-11.2-4.8-23.1-5.1-34.8-3.2c-7.9,1.3-15.3,4.2-21.4,9.5
		c-5.9,5.2-8.2,13.7-5.4,21c0.3,1.7,1.3,3.2,2.6,3.8c1.1,0.7,1.1,1.6,1.4,2.6V56c0,19.2,15.6,44,34.7,44s34.7-24.8,34.7-43.9v-2.9
		c0.2-1.1,0.6-2.1,1.8-2.8c1.1-0.6,2.2-1.9,2.5-3.2C90.8,40,90.8,32.8,84.9,27.4z M21.5,39.4c7.8-4.5,16.2-6.7,25.1-7
		c11.1-0.4,21.8,1.3,31.5,6.8c1.4,0.9,2.2,1.6,2.2,3.4c0,1.9-0.6,2.8-2.5,3.2c-9.2,2.5-18.4,4.2-28,4c-9.5,0-18.7-1.5-27.7-4.2
		c-1-0.3-2.2-1.1-2.3-1.9C19.6,42.3,19.5,40.5,21.5,39.4z M72.1,51.6c-1.8,4.4-2.7,4.8-6.8,4c-1.6-0.4-3.4-0.6-5.1-1v-0.5
		C64.1,53.2,68,52.5,72.1,51.6z M40.2,54v0.5C37.5,55,34.6,56.3,32,56c-1.5-0.1-2.9-2.5-4.3-4l0.4-0.5C32.1,52.4,36.3,53.1,40.2,54z
		 M50,95.5c-15.9,0-29.1-20.4-30.3-36.9c0.4,0.3,0.7,0.4,0.7,0.3c3.5,5.1,8.7,5.3,13.6,3.5c5.7-1.9,10.8-4.7,16.6-7.2
		c2.9,1.5,6.4,3.7,10,5.3c2.5,1.1,5.2,1.8,7.8,2.3c4.5,1,8.5-0.1,12-4.8l0,0C79.2,74.7,66,95.5,50,95.5z"/>
	<path class="st0" d="M84.2,23.7C81.1,8.6,62.9-2.1,44.6,0.4c-14.3,1.9-28.9,14-28.3,23.1C32.7,9.2,68.1,9.4,84.2,23.7z"/>
</g>
</svg>
