<?xml version="1.0" encoding="utf-8"?>
<!-- Generator: Adobe Illustrator 25.0.1, SVG Export Plug-In . SVG Version: 6.00 Build 0)  -->
<svg version="1.1" id="Capa_1" xmlns="http://www.w3.org/2000/svg" xmlns:xlink="http://www.w3.org/1999/xlink" x="0px" y="0px"
	 viewBox="0 0 100 66.2" style="enable-background:new 0 0 100 66.2;" xml:space="preserve">
<style type="text/css">
	.st0{fill:#327ABD;}
</style>
<g>
	<path class="st0" d="M94.9,8L70.2,3L54.6,19.4l16.1,1.9L50.8,58.9l32.6,6.6c3.4,0.7,6.7-1.5,7.4-4.9l9.1-45.1
		C100.6,12.1,98.4,8.7,94.9,8z M62.9,14.8l6-7.2l24,3.5c1.1,0.2,1.9,1.2,1.7,2.3l-0.8,5.8L62.9,14.8z M88,59
		c-0.2,1.1-1.2,1.9-2.3,1.7l-28.2-4l12-26.2l22.3,3.2L88,59z"/>
	<path class="st0" d="M53.3,16.5l-15.5,4.7L45.5,0L5,8.9C1.6,9.6-0.5,13,0.2,16.4L10,61.3c0.7,3.4,4.1,5.5,7.5,4.8l32.8-7.2
		L53.3,16.5z M4.3,15.4c-0.2-1.1,0.5-2.2,1.6-2.4L40,5.6l-3.1,8.8L5.6,21.2L4.3,15.4z M14.1,60.4l-5.5-25l40.8-8.9l-2,28.7L16.5,62
		C15.5,62.2,14.4,61.5,14.1,60.4z"/>
</g>
</svg>
