<?xml version="1.0" encoding="utf-8"?>
<!-- Generator: Adobe Illustrator 25.0.1, SVG Export Plug-In . SVG Version: 6.00 Build 0)  -->
<svg version="1.1" id="Capa_1" xmlns="http://www.w3.org/2000/svg" xmlns:xlink="http://www.w3.org/1999/xlink" x="0px" y="0px"
	 viewBox="0 0 100 100" style="enable-background:new 0 0 100 100;" xml:space="preserve">
<style type="text/css">
	.st0{fill:#1B2734;}
</style>
<g>
	<path class="st0" d="M50.2,42.5c5,0,8.7-2.3,8.7-5v-9.8l0,0l0,0c0-2.9-3.7-5-8.7-5s-8.7,2.1-8.7,5l0,0l0,0v9.8
		C41.4,40.4,45.2,42.5,50.2,42.5z M50.2,39.4c-3.5,0-5.6-1.5-5.6-1.9v-5.8c1.5,0.6,3.5,1.2,5.6,1.2c2.3,0,4.2-0.4,5.6-1.2v5.8
		C55.8,38.1,53.9,39.4,50.2,39.4z M50.2,25.8c3.7,0,5.6,1.5,5.6,1.9c0,0.6-2.1,1.9-5.6,1.9c-3.5,0-5.6-1.5-5.6-1.9
		C44.6,27.1,46.6,25.8,50.2,25.8z"/>
	<path class="st0" d="M90.6,26.3c0,0-0.2,0-0.2-0.2l-0.2-0.2L79.3,20c0,0,0,0-0.2,0v-3.3l0,0c0-2.9-3.7-5-8.7-5c-2.1,0-4,0.4-5.4,1
		l-0.2-0.2l-5.2-2.7h-0.2V5.2c0-2.9-3.7-5-8.7-5c-5.4,0-9.2,2.3-9.2,5V9h-0.2l-5.6,2.9c-0.4,0.2-0.4,0.4-0.6,0.6
		c-1.5-0.6-3.1-1-5.2-1c-5,0-8.7,2.3-8.7,5v3.1c-0.4,0-0.6,0-0.8,0.2L9.3,25.6c-0.4,0.2-0.6,0.4-0.8,0.8c-0.2,0.4-0.4,0.8-0.4,1.2
		v47.9c0,0.8,0.4,1.5,1,1.9l39.6,22.3c0.4,0.2,0.6,0.2,1,0.2c0.4,0,0.6,0,1-0.2l0,0l40-22.5c0.6-0.4,1-1,1-1.9V27.7
		C91.6,27.3,91.2,26.7,90.6,26.3z M64.5,20.4c1.5,0.6,3.5,1.2,5.6,1.2c2.3,0,4.2-0.4,5.6-1.2v5.8c0,0.6-2.1,1.9-5.6,1.9
		c-3.5,0-5.6-1.5-5.6-1.9C64.5,26.3,64.5,20.4,64.5,20.4z M76,16.7c0,0.6-2.1,1.9-5.6,1.9s-5.6-1.5-5.6-1.9c0-0.6,2.1-1.9,5.6-1.9
		C73.9,14.6,76,16,76,16.7z M44.6,9.2c1.5,0.6,3.5,1.2,5.6,1.2c2.3,0,4.2-0.4,5.6-1.2V15c0.2,0.6-1.9,1.9-5.6,1.9
		c-3.5,0-5.6-1.5-5.6-1.9V9.2z M50.2,3.3c3.7,0,5.8,1.5,5.8,1.9c0,0.6-2.1,1.9-5.6,1.9s-5.6-1.5-5.6-1.9C44.6,4.8,46.6,3.3,50.2,3.3
		z M23.9,20.6c1.5,0.6,3.5,1.2,5.6,1.2c2.3,0,4.2-0.4,5.6-1.2v5.8c0,0.6-2.1,1.9-5.6,1.9s-5.6-1.5-5.6-1.9V20.6z M29.8,14.6
		c3.7,0,5.6,1.5,5.6,1.9c0,0.6-2.1,1.9-5.6,1.9s-5.6-1.5-5.6-1.9C23.9,16,26,14.6,29.8,14.6z M20.8,24.2v2.1c0,2.9,3.7,5,8.7,5
		s8.7-2.3,8.7-5v-9.6c0-0.4-0.2-0.8-0.4-1.2l3.5-1.9V15c0,2.9,3.7,5,8.7,5c5,0,8.7-2.3,8.7-5v-0.8l2.5,1.2c-0.2,0.4-0.2,0.6-0.2,1
		l0,0v9.8c0,2.9,3.7,5,8.7,5c5,0,8.7-2.3,8.7-5v-1.7l6.2,3.3L49.6,48.1L14.1,27.9L20.8,24.2z M12.1,74.6V31.5l35.4,20.2v14.6v28.3
		L12.1,74.6z M87.5,74.4L51.6,94.6V51.7l35.8-20V74.4z"/>
</g>
</svg>
