<?xml version="1.0" encoding="utf-8"?>
<!-- Generator: Adobe Illustrator 24.3.0, SVG Export Plug-In . SVG Version: 6.00 Build 0)  -->
<svg version="1.1" id="Layer_1" xmlns="http://www.w3.org/2000/svg" xmlns:xlink="http://www.w3.org/1999/xlink" x="0px" y="0px"
	 viewBox="0 0 100 100" style="enable-background:new 0 0 100 100;" xml:space="preserve">
<style type="text/css">
	.st0{fill:#1B2734;}
</style>
<g>
	<path class="st0" d="M47.4,71.8c-0.2-0.5-0.8-1.2-1.5-1.5L26.2,62c-0.7-0.3-1.6-0.3-2.4,0.1c-0.8,0.5-1.2,1.3-1.2,2
		C22,70.1,25.4,75.7,31,78c1.6,0.7,3.4,1.1,5.4,1.1c4,0,7.9-1.8,10.5-4.8c0.5-0.6,0.7-1.5,0.6-2.3L47.4,71.8z M39.4,73.4
		c-0.9,0.4-2,0.6-3.1,0.6c-1.2,0-2.4-0.2-3.3-0.7c-2.1-0.9-3.7-2.5-4.6-4.5L39.4,73.4z"/>
	<path class="st0" d="M87.8,2.7C87.9,1.4,87,0.3,85.6,0c-1.2-0.2-2.5,0.5-3,1.8L70.9,37c-6.2-4.1-13.4-6.3-20.8-6.3
		S35.5,32.9,29.3,37L17.5,1.9c-0.4-1.3-1.6-2-3-1.8c-1.3,0.3-2.2,1.4-2.2,2.6V80c0,1,0.6,2,1.5,2.4L49,99.7c0.3,0.1,0.7,0.2,1.1,0.2
		s0.7-0.1,1.1-0.3l35.2-17.3c0.9-0.5,1.5-1.4,1.5-2.4L87.8,2.7z M82.6,78.4l-32.5,16l-32.5-16V19l7.8,23.1c0.3,1,1.1,1.5,1.8,1.8
		c0.8,0.2,1.7,0,2.4-0.5c5.8-4.7,13.1-7.3,20.5-7.3s14.7,2.6,20.5,7.3c0.7,0.5,1.7,0.7,2.4,0.5c0.9-0.2,1.5-0.9,1.8-1.7L82.6,19
		V78.4z"/>
	<path class="st0" d="M54.3,70.3L54.3,70.3c-0.8,0.4-1.4,1.1-1.6,1.8c-0.2,0.9,0,1.8,0.6,2.4c2.6,3,6.5,4.8,10.5,4.8
		c2,0,3.7-0.3,5.3-1c5.5-2.3,8.9-7.9,8.5-14c-0.1-1-0.6-1.6-1.2-2c-0.7-0.5-1.6-0.5-2.4-0.1L54.3,70.3z M60.7,73.4l11-4.6
		c-0.8,2-2.5,3.6-4.6,4.5l0,0C65.4,74.1,62.9,74.2,60.7,73.4z"/>
</g>
</svg>
