<?xml version="1.0" encoding="utf-8"?>
<!-- Generator: Adobe Illustrator 24.3.0, SVG Export Plug-In . SVG Version: 6.00 Build 0)  -->
<svg version="1.1" id="Layer_1" xmlns="http://www.w3.org/2000/svg" xmlns:xlink="http://www.w3.org/1999/xlink" x="0px" y="0px"
	 viewBox="0 0 100 100" style="enable-background:new 0 0 100 100;" xml:space="preserve">
<style type="text/css">
	.st0{fill:#1B2734;}
</style>
<g>
	<path class="st0" d="M33.1,46.4c0,1.5,1.1,2.6,2.6,2.6h40.8c1.5,0,2.6-1.1,2.6-2.6s-1.1-2.6-2.6-2.6H35.7
		C34.2,43.8,33.1,44.9,33.1,46.4z"/>
	<path class="st0" d="M35.7,36H52c1.5,0,2.6-1.1,2.6-2.6s-1.1-2.6-2.6-2.6H35.7c-1.5,0-2.6,1.1-2.6,2.6C33.1,34.9,34.2,36,35.7,36z"
		/>
	<path class="st0" d="M76.5,80H35.7c-1.5,0-2.6,1.1-2.6,2.6s1.1,2.6,2.6,2.6h40.8c1.5,0,2.6-1.1,2.6-2.6S78,80,76.5,80z"/>
	<path class="st0" d="M76.5,68H35.7c-1.5,0-2.6,1.1-2.6,2.6s1.1,2.6,2.6,2.6h40.8c1.5,0,2.6-1.1,2.6-2.6S78,68,76.5,68z"/>
	<path class="st0" d="M76.5,55.9H35.7c-1.5,0-2.6,1.1-2.6,2.6s1.1,2.6,2.6,2.6h40.8c1.5,0,2.6-1.1,2.6-2.6S78,55.9,76.5,55.9z"/>
	<path class="st0" d="M84,27.4V0H7.8v91.8H20v8.2h72.2V35.6L84,27.4z M69.3,34V20.1L83.2,34H69.3z M67.8,11.2H20v75.4h-6.9V5.3h65.7
		v16.9L67.8,11.2z M86.9,39.3v55.4H25.2V16.4H64v22.9H86.9z"/>
</g>
</svg>
