<?xml version="1.0" encoding="utf-8"?>
<!-- Generator: Adobe Illustrator 25.0.1, SVG Export Plug-In . SVG Version: 6.00 Build 0)  -->
<svg version="1.1" id="Layer_1" xmlns="http://www.w3.org/2000/svg" xmlns:xlink="http://www.w3.org/1999/xlink" x="0px" y="0px"
	 viewBox="0 0 100 100" style="enable-background:new 0 0 100 100;" xml:space="preserve">
<style type="text/css">
	.st0{fill:#1B2734;}
</style>
<path class="st0" d="M68.4,43.1V2.8c0-1.6-1.2-2.8-2.8-2.8c-1.7,0-2.9,1.2-2.9,2.8V43c-4.1,1.5-6.9,6.3-6.9,11.8s2.8,10.2,6.9,11.8
	v11.5c0,8.9-7.2,16.1-16.1,16.1S30.5,87,30.5,78.1V74l7.2,6.2c0.6,0.6,1.4,0.9,2.3,0.7c0.7-0.1,1.4-0.5,1.8-1c0.5-0.5,0.7-1,0.8-1.7
	c0-0.8-0.3-1.6-0.9-2.2l-17-14.2v16.4c0.2,12,10.1,21.8,21.9,21.8c12,0,21.8-9.8,21.8-21.8V66.7c4.1-1.5,6.9-6.3,6.9-11.8
	C75.3,49.4,72.5,44.7,68.4,43.1z M69.7,54.9c-0.1,3.8-2.2,6.7-4.1,6.7c-2.1,0-4-3.2-4-6.6s1.9-6.6,4-6.6
	C67.8,48.3,69.7,51.4,69.7,54.9z"/>
</svg>
