<?xml version="1.0" encoding="utf-8"?>
<!-- Generator: Adobe Illustrator 25.0.1, SVG Export Plug-In . SVG Version: 6.00 Build 0)  -->
<svg version="1.1" id="Layer_1" xmlns="http://www.w3.org/2000/svg" xmlns:xlink="http://www.w3.org/1999/xlink" x="0px" y="0px"
	 viewBox="0 0 100 100" style="enable-background:new 0 0 100 100;" xml:space="preserve">
<style type="text/css">
	.st0{fill:#1B2734;}
</style>
<g>
	<path class="st0" d="M90.1,32.6c0,5.6-0.1,11.2,0,16.8c0,3.7-0.5,7.3-1.6,10.8c-2.7,9.1-7.2,17.3-13.5,24.5
		c-4,4.6-8.7,8.4-14.1,11.3c-3.4,1.8-7,3.2-10.8,4.1h-0.3c-5.5-1.3-10.6-3.6-15.3-6.9c-6.3-4.4-11.3-9.9-15.4-16.3
		c-3.5-5.5-6.1-11.3-7.9-17.5C10.5,56,10,52.9,10,49.6V14c0-1.9,0.7-3.4,2-4.8c1.2-1.3,2.7-2.2,4.3-3c3.5-1.8,7.2-2.9,11-3.8
		c3.3-0.8,6.7-1.3,10.1-1.7C43.1,0,48.8-0.1,54.6,0.1c3.8,0.1,7.6,0.5,11.3,1c4.3,0.6,8.5,1.5,12.6,2.9c2.9,1,5.8,2.2,8.3,4.1
		c0.9,0.7,1.8,1.5,2.4,2.5c0.6,0.9,0.9,1.9,0.9,3C90.1,13.6,90.1,32.6,90.1,32.6z M54.5,94c1.4-0.7,2.7-1.2,4-1.9
		c4.9-2.5,9.1-6,12.8-10.1c6.1-6.8,10.5-14.7,13.1-23.5c0.9-3,1.3-6,1.3-9.1V13.6c0-0.7-0.2-1.2-0.7-1.6c-0.8-0.6-1.7-1.3-2.6-1.8
		c-2.4-1.3-5.1-2.2-7.7-3c-4-1.1-8-1.9-12.1-2.3c-2.8-0.3-5.5-0.5-8.3-0.6c-3.7-0.2-7.3-0.1-11,0.1c-3.2,0.2-6.3,0.5-9.5,1
		c-2.9,0.5-5.9,1.1-8.7,1.9c-2.5,0.7-4.9,1.6-7.3,2.8c-1,0.6-2,1.2-2.8,2c-0.3,0.3-0.4,0.7-0.4,1.2v38.6c0.2,2.4,0.7,4.7,1.4,7
		c2.4,7.9,6.3,15.1,11.6,21.4c4.4,5.3,9.7,9.6,16,12.5l2.1,0.9v-14h8.9C54.5,84.6,54.5,89.2,54.5,94L54.5,94z"/>
	<path class="st0" d="M50,66.5c-0.2,0.2-0.3,0.4-0.5,0.6l-3.7,3.7c-0.1,0.1-0.4,0.2-0.5,0.2H30.4c-0.2,0-0.4,0-0.5-0.3
		c-3.6-5.7-7.1-11.4-10.7-17.1c0-0.1-0.1-0.2-0.1-0.3c0.7,0.6,1.4,1.1,2,1.7c3.6,3,7.3,6.1,10.9,9.1c0.1,0.1,0.3,0.2,0.4,0.2h8.4
		c0.2,0,0.4-0.1,0.5-0.2l6.2-6.2c0.2-0.2,0.4-0.3,0.6-0.2h3.8c0.2,0,0.4,0.1,0.6,0.2c2,2.1,4.1,4.1,6.2,6.2c0.2,0.2,0.4,0.3,0.7,0.3
		h8.1c0.3,0,0.5-0.1,0.7-0.2l12.6-10.5c0.1-0.1,0.2-0.2,0.4-0.2c0,0.1-0.1,0.2-0.1,0.3c-3.6,5.7-7.1,11.4-10.7,17.1
		c-0.1,0.2-0.3,0.3-0.5,0.3H55c-0.2,0-0.4-0.1-0.5-0.2l-3.9-3.9L50,66.5z M81.1,28.7l-3.6-2.1c-1.7-0.9-3.5-1.6-5.3-2
		C68.9,24,66.3,25,64,27.3c-1.2,1.2-2.1,2.6-3,4c-0.3,0.5-0.7,1-1.1,1.4c-1.3,1-3.1,0.9-4.3-0.3c-1.2-1.1-1.3-3-0.3-4.3
		c1-1.2,1.9-2.5,3-3.6c1.9-2,4.1-3.5,6.8-4.1c4.1-0.9,7.8-0.1,11.1,2.4C78.3,24.4,79.9,26.4,81.1,28.7C81,28.7,81,28.7,81.1,28.7z
		 M19,28.8c0-0.1,0.1-0.2,0.1-0.2c1.6-2.5,3.4-4.8,5.9-6.5c2.5-1.6,5.2-2.3,8.1-2.1c3.5,0.3,6.4,1.9,8.8,4.4c1,1,1.8,2.2,2.7,3.2
		c0.6,0.7,1,1.5,0.9,2.5c0,1.4-1,2.7-2.5,3.1c-1.4,0.4-2.8-0.1-3.6-1.3c-0.9-1.3-1.7-2.5-2.6-3.7c-1.2-1.5-2.6-2.6-4.4-3.3
		c-1.7-0.6-3.4-0.5-5.1-0.1c-2.7,0.6-5,1.9-7.3,3.3C19.8,28.3,19.5,28.5,19,28.8z M21.2,36.7c4.6-4.6,13.5-4.3,17.7,0
		C34.7,41,25.7,41.2,21.2,36.7z M78.9,36.7c-4.4,4.4-13.2,4.5-17.7,0C65.1,32.5,74.2,32,78.9,36.7z"/>
</g>
</svg>
