<?xml version="1.0" encoding="utf-8"?>
<!-- Generator: Adobe Illustrator 25.0.1, SVG Export Plug-In . SVG Version: 6.00 Build 0)  -->
<svg version="1.1" id="Capa_1" xmlns="http://www.w3.org/2000/svg" xmlns:xlink="http://www.w3.org/1999/xlink" x="0px" y="0px"
	 viewBox="0 0 100 77.4" style="enable-background:new 0 0 100 77.4;" xml:space="preserve">
<style type="text/css">
	.st0{fill:#1B2734;}
</style>
<g>
	<path class="st0" d="M99.1,49.3c-3.7-14.1-7.6-28.4-11.4-42.4c-1.1-4.4-4.6-6.9-9-6.9c-0.3,0-1,0-1.7,0.2c-21,5.5-42,11.3-63,17
		c-4,1-6.6,4-6.2,8c0.2,3.1-1,4.5-3.1,6.1c-4.7,3.4-5.3,7.4-2.3,12.3c6,9.8,12,19.3,17.8,29.1c2.3,3.7,5.6,5.4,9.8,4.4
		C51,71.7,72.1,66,92.9,60.1C98.1,58.9,100.4,54.3,99.1,49.3z M89,54.4c-16.2,4.4-32.5,8.7-48.7,13.1c-3.6,1-7.1,1.8-10.7,2.9
		c-2.2,0.7-3.4-0.2-4-2.2C22,54.6,18.4,40.9,14.7,27.4C14,24.8,15,23.7,17.4,23C37.3,17.7,57.1,12.5,77,7.1c0.5-0.2,1-0.3,1.5-0.5
		c1.7-0.1,2.5,0.7,3,2.3c3.7,13.9,7.6,27.8,11.1,41.6C93.4,53.6,91.1,53.9,89,54.4z"/>
	<path class="st0" d="M45.5,38.2c0.8-0.2,2.2,0,2-1.3c-1-4-2.2-7.8-3.1-11.7c-0.5-2.3-1.6-2.5-3.4-2c-6,1.7-11.8,3.2-17.7,4.7
		c-1.7,0.3-2.2,1.1-1.8,2.9c1,3.7,2.2,7.4,3.1,11c0.3,1.8,1.1,1.7,2.6,1.1C33.2,41.4,39.3,39.8,45.5,38.2z"/>
	<path class="st0" d="M80.4,39.5c2.2-0.6,2-1.7,1.6-3.2c-0.3-1.7-0.8-2.5-3.1-1.8c-9.9,2.9-20.1,5.4-30.1,8
		c-6.9,1.8-13.8,3.7-20.6,5.4c-1.6,0.3-2.5,1-1.6,2.8c0.6,1-0.1,3.1,2.2,2.6c0.3-0.1,0.6-0.2,0.8-0.3C46.6,48.4,63.4,44,80.4,39.5z"
		/>
	<path class="st0" d="M81.9,44.1c-8.9,2.5-17.7,4.7-26.4,7c-8.2,2.2-16.2,4.4-24.1,6.6c-1.4,0.3-2.6,0.8-1.8,2.6c0.5,1.1,0,3,2,2.8
		c0.3-0.1,0.5-0.2,0.6-0.2c17-4.5,34.3-9.1,51.4-13.6c2.5-0.7,1.4-2.1,1.1-3.4C84.3,44.3,83.7,43.7,81.9,44.1z"/>
	<path class="st0" d="M50.5,26.1c8.6-2.3,17-4.6,25.4-6.9c1.8-0.5,1.1-1.8,0.7-3c-0.3-1,0-2.8-2.1-2.2c-8.3,2.2-16.3,4.4-24.6,6.6
		c-1.8,0.5-1.4,1.7-0.9,2.9C49.4,24.6,49,26.2,50.5,26.1z"/>
	<path class="st0" d="M51.8,33.7c0.3,1,0.1,2.6,1.5,2.5c8.9-2.4,17.1-4.6,25.5-6.9c2.1-0.6,0.9-2.2,0.6-3.3c-0.2-1-0.2-2.2-2-1.7
		c-8.3,2.2-16.3,4.4-24.6,6.6C50.9,31.2,51.3,32.5,51.8,33.7z"/>
</g>
</svg>
