<?xml version="1.0" encoding="utf-8"?>
<!-- Generator: Adobe Illustrator 25.0.0, SVG Export Plug-In . SVG Version: 6.00 Build 0)  -->
<svg version="1.1" id="Layer_1" xmlns="http://www.w3.org/2000/svg" xmlns:xlink="http://www.w3.org/1999/xlink" x="0px" y="0px"
	 viewBox="0 0 100 100" style="enable-background:new 0 0 100 100;" xml:space="preserve">
<style type="text/css">
	.st0{fill:#327ABD;}
</style>
<path class="st0" d="M71,0H29c-4,0-7.3,3.3-7.3,7.3v85.3c0,4.1,3.3,7.3,7.3,7.3h42c4.1,0,7.3-3.3,7.3-7.3V7.3C78.3,3.3,75,0,71,0z
	 M25,7.3c0-2.2,1.8-4,4-4h42c2.2,0,4,1.8,4,4V10H25V7.3z M75,92.7c0,2.2-1.8,4-4,4H29c-2.2,0-4-1.8-4-4V80h50V92.7z M75,76.7H25
	V13.3h50V76.7z M50,95c3.7,0,6.7-3,6.7-6.7s-3-6.7-6.7-6.7s-6.7,3-6.7,6.7S46.3,95,50,95z M50,85c1.8,0,3.3,1.5,3.3,3.3
	s-1.5,3.3-3.3,3.3s-3.3-1.5-3.3-3.3S48.2,85,50,85z"/>
</svg>
