<?xml version="1.0" encoding="utf-8"?>
<!-- Generator: Adobe Illustrator 25.0.1, SVG Export Plug-In . SVG Version: 6.00 Build 0)  -->
<svg version="1.1" id="Capa_1" xmlns="http://www.w3.org/2000/svg" xmlns:xlink="http://www.w3.org/1999/xlink" x="0px" y="0px"
	 viewBox="0 0 100 100" style="enable-background:new 0 0 100 100;" xml:space="preserve">
<style type="text/css">
	.st0{fill:#327ABD;}
	.st1{fill:#327ABD;stroke:#327ABD;stroke-width:3;stroke-miterlimit:10;}
	.st2{fill:#FFFFFF;stroke:#FFFFFF;stroke-width:11;stroke-miterlimit:10;}
	.st3{fill:#327ABD;stroke:#327ABD;stroke-miterlimit:10;}
</style>
<g>
	<path class="st0" d="M44.5,41.1H32.5v28.6h-6.6V41.1h-11v-5.9h29.5V41.1z"/>
	<path class="st0" d="M71.8,68.6V46.8L63,63.7h-3.6l-8.9-16.9v22.8h-6.7V35.2H51l10.1,19.6l10.2-19.6h7.1v33.4H71.8z"/>
</g>
<g>
	<path class="st1" d="M44.8,8.4c-23.3,0-42.3,19-42.3,42.3s19,42.3,42.3,42.3s42.3-19,42.3-42.3S68.2,8.4,44.8,8.4z M44.8,89.7
		c-21.5,0-39-17.5-39-39s17.5-39,39-39s39,17.5,39,39S66.3,89.7,44.8,89.7z"/>
</g>
<g>
	<g>
		<g>
			<path class="st2" d="M98.3,49c0.3-0.6,0.2-1.2-0.1-1.8c-0.3-0.5-0.9-0.9-1.5-0.9h-19v-43c0-0.9-0.6-1.6-1.5-1.8
				c-0.9-0.2-1.7,0.3-2,1.1L56.1,64.1c-0.2,0.6-0.1,1.2,0.2,1.7c0.3,0.5,0.9,0.8,1.5,0.8h20v30.6c0,0.9,0.6,1.6,1.4,1.8
				c0.1,0,0.3,0,0.4,0c0.7,0,1.3-0.4,1.7-1L98.3,49z"/>
		</g>
	</g>
	<g>
		<g>
			<path class="st3" d="M98.3,49c0.3-0.6,0.2-1.2-0.1-1.8c-0.3-0.5-0.9-0.9-1.5-0.9h-19v-43c0-0.9-0.6-1.6-1.5-1.8
				c-0.9-0.2-1.7,0.3-2,1.1L56.1,64.1c-0.2,0.6-0.1,1.2,0.2,1.7c0.3,0.5,0.9,0.8,1.5,0.8h20v30.6c0,0.9,0.6,1.6,1.4,1.8
				c0.1,0,0.3,0,0.4,0c0.7,0,1.3-0.4,1.7-1L98.3,49z M81.3,89.2V64.7c0-1-0.8-1.8-1.8-1.8H60.4l13.8-50.1v35.4c0,1,0.8,1.8,1.8,1.8
				h17.9L81.3,89.2z"/>
		</g>
	</g>
</g>
</svg>
