<?xml version="1.0" encoding="utf-8"?>
<!-- Generator: Adobe Illustrator 25.0.0, SVG Export Plug-In . SVG Version: 6.00 Build 0)  -->
<svg version="1.1" id="Layer_1" xmlns="http://www.w3.org/2000/svg" xmlns:xlink="http://www.w3.org/1999/xlink" x="0px" y="0px"
	 viewBox="0 0 100 77.6" style="enable-background:new 0 0 100 77.6;" xml:space="preserve">
<style type="text/css">
	.st0{fill:#1B2734;}
</style>
<path class="st0" d="M97.9,25.3C94.3,15.8,83.3,0,50.1,0C23,0,0.5,17.8,0,32.5c-0.1,3.9,1.3,12.6,16.6,14.8
	c-0.2,0.9-0.2,1.8-0.2,2.8c0,6.3,7.1,15,18.8,15c4,0,7-0.6,9.5-1.6l10.5,13.1c0.5,0.6,1.2,0.9,1.9,0.9c0.6,0,1.1-0.2,1.6-0.6
	c1.1-0.9,1.2-2.4,0.4-3.5l-9.9-12.3c0.8-0.5,1.6-1,2.4-1.5c0.8-0.5,1.7-1.1,2.5-1.6L68,76.6c0.5,0.7,1.2,1,2,1c0.5,0,1-0.2,1.5-0.5
	c1.1-0.8,1.3-2.4,0.5-3.5l-2.8-3.8c3.2,0,6.7-0.9,9.8-2.4c7.3-3.6,10.9-9.5,9.4-15c2.4-0.8,5-2.4,8.3-5.4
	C100.1,43.8,101.5,34.7,97.9,25.3L97.9,25.3z M76.8,62.8c-4.8,2.3-10.9,2.9-12.9-0.2l-5.2-6.8c2.4-1,5.3-1.8,9.1-2.4
	c5.5-0.8,9.1-0.6,12.1-0.4c1.3,0.1,2.5,0.1,3.6,0.1c0,0.1,0,0.1,0,0.2C84.9,57,81.1,60.7,76.8,62.8L76.8,62.8z M93.3,43.2
	c-5.9,5.3-8,5.2-13.1,4.8c-0.9-0.1-1.9-0.1-3-0.2c-0.7-2.2-1.9-4.2-3-6c-2.5-4.2-3.9-6.8-2-10.7c0.6-1.2,0.1-2.7-1.1-3.4
	c-1.2-0.6-2.7-0.1-3.3,1.1c-3.2,6.5-0.2,11.5,2.2,15.5c0.7,1.2,1.3,2.3,1.8,3.5c-1.4,0.1-3,0.2-4.7,0.5c-9.5,1.5-14.1,4.5-18.2,7.2
	c-3.9,2.5-7,4.6-13.8,4.6c-8.9,0-13.8-6.6-13.8-10c0-7,6.6-7.5,17.6-7.5c7.4,0,14.4,0,17.8-4.2c1.7-2.2,2.2-5.1,1.4-8.8
	c-0.3-1.2-1.3-2-2.4-2c-0.2,0-0.4,0-0.5,0.1c-1.3,0.3-2.2,1.6-1.9,3c0.5,2.1,0.3,3.7-0.4,4.6c-1.9,2.4-8.3,2.4-13.9,2.4
	c-7,0-15.9,0-20.1,4.9C13,41.9,4.7,39.8,5,32.7c0.1-3.4,2.1-7.4,5.6-11.3c0.8,4.7,3.6,8.5,7,9.8c0.8,0.3,1.7,0.5,2.6,0.5
	c2.6,0,5.4-1.4,7.5-5.5c0.6-1.2,0.1-2.7-1.1-3.4c-1.2-0.6-2.7-0.1-3.3,1.1c-1.1,2.3-2.4,3.1-3.8,2.6c-2.2-0.9-4.7-5.1-3.8-9.7
	C21.9,11.9,30.4,7.7,40.3,6c-0.5,1.8-1.7,3.9-2.7,5.6c-2,3.4-3.7,6.3-2.2,8.9c0.8,1.5,2.5,2.2,4.8,2.2c1.4,0,2.5-1.1,2.5-2.5
	c0-1.4-1.3-2.4-2.7-2.5c0.4-1,1.3-2.5,1.9-3.6c1.6-2.8,3.3-5.8,3.6-8.8c1.5-0.1,3.1-0.2,4.7-0.2c30.2,0,40,13.8,43.2,22
	C96.2,34.9,94.9,41.8,93.3,43.2L93.3,43.2z"/>
<path class="st0" d="M71.2,14.8c-6.8-2.7-15.1-2.4-18.3,4.1c-0.6,1.2-0.1,2.7,1.1,3.4c1.2,0.6,2.7,0.1,3.3-1.1
	c1.8-3.7,7.5-3.5,12-1.7s8.8,5.5,7.8,9c-0.4,1.3,0.4,2.7,1.7,3.1c0.2,0.1,0.5,0.1,0.7,0.1c1.1,0,2.1-0.7,2.4-1.8
	C83.8,23.2,77.7,17.3,71.2,14.8z"/>
</svg>
