<?xml version="1.0" encoding="utf-8"?>
<!-- Generator: Adobe Illustrator 18.0.0, SVG Export Plug-In . SVG Version: 6.00 Build 0)  -->
<!DOCTYPE svg PUBLIC "-//W3C//DTD SVG 1.1//EN" "http://www.w3.org/Graphics/SVG/1.1/DTD/svg11.dtd">
<svg version="1.1" id="Layer_1" xmlns="http://www.w3.org/2000/svg" xmlns:xlink="http://www.w3.org/1999/xlink" x="0px" y="0px"
	 viewBox="0 0 100 100" enable-background="new 0 0 100 100" xml:space="preserve">
<rect x="171.5" fill="#327ABD" width="100" height="100"/>
<g>
	<path fill="#FFFFFF" d="M252.6,26.5l-13.5-11.2c-0.2-0.1-0.5-0.3-0.8-0.3h-33.6c-0.3,0-0.6,0.1-0.8,0.3l-13.3,11.2
		c-0.6,0.4-1,1-1,1.7V79h64V28.1C253.5,27.5,253.1,27,252.6,26.5z M238.5,33.2c0,2.6-2.2,4.8-4.8,4.8c-2.6,0-4.8-2.2-4.8-4.8v-4.1
		h9.5V33.2z M226.3,33.2c0,2.6-2.2,4.8-4.8,4.8s-4.8-2.2-4.8-4.8v-4.1h9.5V33.2z M214,33.2c0,2.6-2.2,4.8-4.8,4.8s-4.8-2.2-4.8-4.8
		v-4.1h9.5V33.2z M223.7,17.7l2.1,8.7h-8.7l2.1-8.7H223.7z M230.9,17.7l6.3,8.7h-8.5l-1.3-5.2l-0.8-3.5
		C226.6,17.7,230.9,17.7,230.9,17.7z M214.3,26.4h-8.5l6.3-8.7h4.2L214.3,26.4z M248.3,26.4h-7.8l-6.3-8.7h3.6L248.3,26.4z
		 M205.2,17.7h3.6l-6.3,8.7h-7.8L205.2,17.7z M192.2,29.2h9.5v4.1c0,2.6-2.2,4.8-4.8,4.8s-4.8-2.2-4.8-4.8V29.2z M192.2,76.3V39
		c1.3,1.1,3,1.8,4.8,1.8c2.5,0,4.8-1.3,6.1-3.2c1.4,1.9,3.6,3.2,6.1,3.2c2.5,0,4.8-1.3,6.1-3.2c1.4,1.9,3.6,3.2,6.1,3.2
		s4.8-1.3,6.1-3.2c1.4,1.9,3.6,3.2,6.1,3.2s4.8-1.3,6.1-3.2c1.4,1.9,3.6,3.2,6.1,3.2c1.8,0,3.5-0.7,4.8-1.8v37.3L192.2,76.3
		L192.2,76.3z M250.8,33.2c0,2.6-2.2,4.8-4.8,4.8s-4.8-2.2-4.8-4.8v-4.1h9.5V33.2z"/>
	<g>
		<rect x="191" y="57.3" fill="#FFFFFF" width="61.3" height="2.7"/>
	</g>
</g>
<rect fill="#F7F7F9" width="100" height="100"/>
<g>
	<path fill="#1B2734" d="M81.1,26.5L67.6,15.3C67.4,15.1,67,15,66.7,15H33.1c-0.3,0-0.6,0.1-0.8,0.3L19,26.5c-0.6,0.4-1,1-1,1.7V79
		h64V28.1C82,27.5,81.6,27,81.1,26.5z M67,33.2c0,2.6-2.2,4.8-4.8,4.8s-4.8-2.2-4.8-4.8v-4.1H67V33.2z M54.8,33.2
		c0,2.6-2.2,4.8-4.8,4.8s-4.8-2.2-4.8-4.8v-4.1h9.5V33.2z M42.5,33.2c0,2.6-2.2,4.8-4.8,4.8c-2.6,0-4.8-2.2-4.8-4.8v-4.1h9.5V33.2z
		 M52.2,17.7l2.1,8.7h-8.7l2.1-8.7H52.2z M59.4,17.7l6.3,8.7h-8.5l-1.3-5.2l-0.8-3.5C55.1,17.7,59.4,17.7,59.4,17.7z M42.8,26.4
		h-8.5l6.3-8.7h4.2L42.8,26.4z M76.8,26.4H69l-6.3-8.7h3.6L76.8,26.4z M33.7,17.7h3.6L31,26.4h-7.8L33.7,17.7z M20.7,29.2h9.5v4.1
		c0,2.6-2.2,4.8-4.8,4.8s-4.8-2.2-4.8-4.8V29.2z M20.7,76.3V39c1.3,1.1,3,1.8,4.8,1.8c2.5,0,4.8-1.3,6.1-3.2
		c1.4,1.9,3.6,3.2,6.1,3.2s4.8-1.3,6.1-3.2c1.4,1.9,3.6,3.2,6.1,3.2c2.5,0,4.8-1.3,6.1-3.2c1.4,1.9,3.6,3.2,6.1,3.2
		c2.5,0,4.8-1.3,6.1-3.2c1.4,1.9,3.6,3.2,6.1,3.2c1.8,0,3.5-0.7,4.8-1.8v37.3L20.7,76.3L20.7,76.3z M79.3,33.2
		c0,2.6-2.2,4.8-4.8,4.8s-4.8-2.2-4.8-4.8v-4.1h9.5V33.2z"/>
	<g>
		<rect x="19.5" y="57.3" fill="#1B2734" width="61.3" height="2.7"/>
	</g>
</g>
</svg>
