<?xml version="1.0" encoding="utf-8"?>
<!-- Generator: Adobe Illustrator 22.1.0, SVG Export Plug-In . SVG Version: 6.00 Build 0)  -->
<svg version="1.1" id="Layer_1" xmlns="http://www.w3.org/2000/svg" xmlns:xlink="http://www.w3.org/1999/xlink" x="0px" y="0px"
	 viewBox="0 0 600 600" enable-background="new 0 0 600 600" xml:space="preserve">
<rect fill="#E5E6E8" width="600" height="600"/>
<g>
	<path fill="#327ABD" d="M260.411,216.492l26.214,30.793v-30.793h8.338v44.121h-7.327l-26.372-31.298v31.298h-8.338v-44.121H260.411
		z"/>
	<path fill="#327ABD" d="M327.272,215.924c4.568,0,8.68,0.943,12.333,2.827c3.653,1.885,6.564,4.601,8.733,8.148
		c2.168,3.548,3.253,7.438,3.253,11.67c0,4.127-1.058,7.954-3.174,11.48c-2.116,3.527-5.022,6.264-8.717,8.212
		c-3.695,1.948-7.859,2.921-12.491,2.921c-4.569,0-8.722-0.989-12.459-2.969c-3.738-1.979-6.648-4.7-8.733-8.164
		c-2.084-3.463-3.127-7.29-3.127-11.48c0-4.043,1.042-7.843,3.127-11.401c2.084-3.558,4.958-6.321,8.622-8.29
		C318.302,216.908,322.513,215.924,327.272,215.924z M311.701,238.569c0,2.927,0.663,5.559,1.99,7.896s3.174,4.148,5.543,5.432
		c2.369,1.285,5.048,1.927,8.038,1.927c4.527,0,8.248-1.421,11.164-4.264c2.916-2.842,4.374-6.506,4.374-10.991
		c0-2.926-0.658-5.563-1.974-7.911c-1.316-2.347-3.169-4.163-5.559-5.448c-2.39-1.284-5.08-1.927-8.069-1.927
		c-2.99,0-5.68,0.647-8.069,1.942c-2.39,1.295-4.227,3.106-5.511,5.432C312.343,232.984,311.701,235.621,311.701,238.569z"/>
	<path fill="#327ABD" d="M212.99,277.94v44.121h-8.527V277.94H212.99z"/>
	<path fill="#327ABD" d="M230.581,277.94l14.496,17.402l14.496-17.402h7.611v44.121h-8.527v-30.983h-0.253l-12.759,15.539h-1.2
		l-12.759-15.539h-0.253v30.983h-8.527V277.94H230.581z"/>
	<path fill="#327ABD" d="M299.274,277.94l19.487,44.121h-9.001l-4.579-10.738h-19.613l-4.264,10.738h-8.938l18.192-44.121H299.274z
		 M288.156,304.848H302.4l-7.453-17.465L288.156,304.848z"/>
	<path fill="#327ABD" d="M345.163,277.371c5.432,0,10.822,1.211,16.17,3.632v7.801c-5.349-2.716-10.612-4.074-15.791-4.074
		c-3.221,0-6.085,0.643-8.59,1.927c-2.506,1.285-4.448,3.132-5.827,5.543c-1.379,2.411-2.069,5.101-2.069,8.069
		c0,4.506,1.5,8.133,4.501,10.88c3,2.748,6.953,4.122,11.859,4.122c1.347,0,2.637-0.115,3.869-0.347
		c1.232-0.231,2.7-0.673,4.406-1.326v-7.327h-7.296v-6.664h15.823v18.192c-2.169,1.516-4.775,2.7-7.817,3.553
		c-3.043,0.853-6.206,1.279-9.491,1.279c-4.654,0-8.87-0.958-12.649-2.874c-3.78-1.915-6.727-4.6-8.843-8.054
		c-2.116-3.453-3.174-7.306-3.174-11.559c0-4.316,1.068-8.222,3.206-11.717c2.137-3.495,5.116-6.211,8.938-8.148
		C336.21,278.34,340.468,277.371,345.163,277.371z"/>
	<path fill="#327ABD" d="M399.833,277.94v6.664h-19.992v11.591h19.139v6.664h-19.139v12.538h20.434v6.664h-28.961V277.94H399.833z"
		/>
	<path fill="#327ABD" d="M157.783,339.387l19.486,44.121h-9.001l-4.579-10.738h-19.613l-4.264,10.738h-8.938l18.192-44.121H157.783z
		 M146.666,366.295h14.244l-7.453-17.465L146.666,366.295z"/>
	<path fill="#327ABD" d="M181.723,339.387l12.475,28.33l12.159-28.33h8.938l-19.486,44.689h-2.969l-20.118-44.689H181.723z"/>
	<path fill="#327ABD" d="M237.656,339.387l19.486,44.121h-9.001l-4.579-10.738h-19.613l-4.264,10.738h-8.938l18.192-44.121H237.656z
		 M226.539,366.295h14.244l-7.454-17.465L226.539,366.295z"/>
	<path fill="#327ABD" d="M271.039,339.387v44.121h-8.527v-44.121H271.039z"/>
	<path fill="#327ABD" d="M289.483,339.387v37.457h21.413v6.664h-29.94v-44.121H289.483z"/>
	<path fill="#327ABD" d="M339.099,339.387l19.486,44.121h-9.001l-4.579-10.738h-19.613l-4.264,10.738h-8.938l18.192-44.121H339.099z
		 M327.982,366.295h14.244l-7.454-17.465L327.982,366.295z"/>
	<path fill="#327ABD" d="M379.936,339.387c4.043,0,7.337,1.053,9.885,3.158c2.547,2.106,3.822,4.737,3.822,7.896
		c0,2.021-0.532,3.801-1.595,5.337c-1.064,1.537-2.606,2.759-4.627,3.664v0.379c3.074,0.695,5.469,2.069,7.185,4.122
		c1.716,2.053,2.574,4.459,2.574,7.217c0,2.443-0.627,4.627-1.879,6.553c-1.253,1.927-2.99,3.375-5.211,4.343
		c-2.222,0.969-4.838,1.453-7.848,1.453h-18.476v-44.121H379.936z M377.662,357.705c2.253,0,4.032-0.537,5.337-1.611
		c1.305-1.074,1.958-2.568,1.958-4.485c0-1.705-0.6-3.058-1.8-4.058c-1.2-1-2.779-1.5-4.737-1.5h-6.127v11.654H377.662z
		 M379.651,376.844c2.884,0,5.064-0.542,6.538-1.627c1.473-1.084,2.211-2.679,2.211-4.785c0-1.874-0.732-3.353-2.195-4.437
		c-1.464-1.084-3.427-1.627-5.89-1.627h-8.022v12.475H379.651z"/>
	<path fill="#327ABD" d="M412.908,339.387v37.457h21.413v6.664h-29.94v-44.121H412.908z"/>
	<path fill="#327ABD" d="M468.683,339.387v6.664h-19.992v11.591h19.139v6.664h-19.139v12.538h20.434v6.664h-28.961v-44.121H468.683z
		"/>
</g>
</svg>
