<?xml version="1.0" encoding="utf-8"?>
<!-- Generator: Adobe Illustrator 18.0.0, SVG Export Plug-In . SVG Version: 6.00 Build 0)  -->
<!DOCTYPE svg PUBLIC "-//W3C//DTD SVG 1.1//EN" "http://www.w3.org/Graphics/SVG/1.1/DTD/svg11.dtd">
<svg version="1.1" id="Layer_1" xmlns="http://www.w3.org/2000/svg" xmlns:xlink="http://www.w3.org/1999/xlink" x="0px" y="0px"
	 viewBox="0 0 737.3 553" enable-background="new 0 0 737.3 553" xml:space="preserve">
<rect fill="#DDDDDD" width="737.3" height="553"/>
<g>
	<path d="M250.3,259.7h-4.2l-28.6-42.6v42.6h-4.2v-49.8h4.2l28.6,42.6v-42.6h4.2V259.7z"/>
	<path d="M299.7,237.5c0,4.6-0.8,8.6-2.4,12.1c-1.6,3.5-3.8,6.1-6.8,8c-2.9,1.9-6.3,2.8-10.2,2.8c-5.8,0-10.5-2.1-14.1-6.2
		c-3.6-4.2-5.4-9.8-5.4-16.8v-5.1c0-4.5,0.8-8.6,2.4-12c1.6-3.5,3.9-6.2,6.8-8.1s6.3-2.8,10.2-2.8s7.2,0.9,10.1,2.8
		c2.9,1.8,5.2,4.5,6.8,7.8c1.6,3.4,2.4,7.3,2.5,11.7V237.5z M295.5,232.1c0-6-1.4-10.7-4.1-14.1c-2.7-3.4-6.4-5.1-11.1-5.1
		c-4.6,0-8.3,1.7-11.1,5.1c-2.7,3.4-4.1,8.2-4.1,14.3v5.2c0,5.9,1.4,10.6,4.1,14s6.4,5.2,11.1,5.2c4.8,0,8.5-1.7,11.1-5.1
		c2.7-3.4,4-8.2,4-14.2V232.1z"/>
	<path d="M332.5,259.7h-4.2v-49.8h4.2V259.7z"/>
	<path d="M351.5,209.9l18.4,43.9l18.4-43.9h5.6v49.8h-4.2V238l0.3-22.2l-18.5,43.9h-3.2L349.8,216l0.3,21.9v21.8H346v-49.8H351.5z"
		/>
	<path d="M434,245.7h-22.6l-5.1,14h-4.4l18.8-49.8h4l18.8,49.8h-4.4L434,245.7z M412.7,242.2h20l-10-27.1L412.7,242.2z"/>
	<path d="M486.4,253.8c-1.5,2.1-3.7,3.7-6.9,4.9c-3.1,1.2-6.6,1.7-10.4,1.7c-3.9,0-7.4-0.9-10.4-2.8c-3-1.9-5.4-4.5-7-7.9
		c-1.7-3.4-2.5-7.3-2.5-11.8v-6.3c0-6.9,1.7-12.4,5.2-16.4s8.2-6,14-6c5.1,0,9.3,1.3,12.4,3.9c3.1,2.6,5,6.2,5.6,10.8h-4.2
		c-0.6-3.7-2.1-6.4-4.5-8.3c-2.4-1.9-5.4-2.8-9.2-2.8c-4.6,0-8.3,1.7-11,5c-2.7,3.3-4.1,8-4.1,14v5.9c0,3.8,0.6,7.1,1.9,10
		c1.3,2.9,3.1,5.2,5.5,6.8c2.4,1.6,5.2,2.4,8.3,2.4c3.6,0,6.7-0.6,9.3-1.7c1.7-0.8,2.9-1.6,3.8-2.6v-12.9h-13.4v-3.6h17.6V253.8z"/>
	<path d="M525.8,235.8h-23.3v20.3h26.8v3.6h-31v-49.8h30.8v3.6h-26.6v18.8h23.3V235.8z"/>
	<path d="M230.3,329.7h-22.6l-5.1,14h-4.4l18.8-49.8h4l18.8,49.8h-4.4L230.3,329.7z M209,326.2h20l-10-27.1L209,326.2z"/>
	<path d="M259.2,337.6l0.3,1.1l0.3-1.1l15.7-43.6h4.6l-18.5,49.8h-4l-18.5-49.8h4.6L259.2,337.6z"/>
	<path d="M311.6,329.7h-22.6l-5.1,14h-4.4l18.8-49.8h4l18.8,49.8h-4.4L311.6,329.7z M290.4,326.2h20l-10-27.1L290.4,326.2z"/>
	<path d="M333.6,343.7h-4.2v-49.8h4.2V343.7z"/>
	<path d="M351.4,340.1h24.6v3.6h-28.8v-49.8h4.2V340.1z"/>
	<path d="M411.5,329.7h-22.6l-5.1,14h-4.4l18.8-49.8h4l18.8,49.8h-4.4L411.5,329.7z M390.2,326.2h20l-10-27.1L390.2,326.2z"/>
	<path d="M428.4,343.7v-49.8h14.7c5.3,0,9.4,1.1,12.1,3.3c2.8,2.2,4.1,5.4,4.1,9.7c0,2.6-0.7,4.8-2.1,6.7s-3.3,3.3-5.8,4.1
		c2.9,0.6,5.2,2.1,7,4.3s2.6,4.8,2.6,7.7c0,4.4-1.4,7.8-4.3,10.3c-2.8,2.5-6.8,3.7-11.8,3.7H428.4z M432.6,316.3h11.5
		c3.5-0.1,6.2-0.9,8.2-2.5c1.9-1.6,2.9-3.9,2.9-6.9c0-3.2-1-5.6-3-7.1s-5-2.3-9-2.3h-10.5V316.3z M432.6,319.8v20.3h12.6
		c3.6,0,6.5-0.9,8.6-2.7c2.1-1.8,3.2-4.4,3.2-7.6c0-3.1-1-5.5-3-7.3c-2-1.8-4.8-2.7-8.4-2.7H432.6z"/>
	<path d="M475.5,340.1h24.6v3.6h-28.8v-49.8h4.2V340.1z"/>
	<path d="M535.6,319.8h-23.3v20.3h26.8v3.6h-31v-49.8h30.8v3.6h-26.6v18.8h23.3V319.8z"/>
</g>
</svg>
