<?xml version="1.0" encoding="utf-8"?>
<!-- Generator: Adobe Illustrator 18.0.0, SVG Export Plug-In . SVG Version: 6.00 Build 0)  -->
<!DOCTYPE svg PUBLIC "-//W3C//DTD SVG 1.1//EN" "http://www.w3.org/Graphics/SVG/1.1/DTD/svg11.dtd">
<svg version="1.1" id="OBJECTS" xmlns="http://www.w3.org/2000/svg" xmlns:xlink="http://www.w3.org/1999/xlink" x="0px" y="0px"
	 viewBox="0 236 1000 520" enable-background="new 0 236 1000 520" xml:space="preserve">
<g>
	<g>
		<g opacity="0.22">
			<path fill="#A2DBF1" d="M537.6,331.6c-78.4,25-326.2-98.2-306.8,70.2c3,25,19.2,60.4,5.6,83.8c-9.8,17.6-28,27.8-45.4,34.6
				c-45.6,18.6-62.6,53.4-51,103c31,133.8,199.2,102.2,287.4,62.4c62.8-29.6,137-34.6,202-9.6c51,20.4,82.8,63,142.6,50.6
				c53-10.6,61-60.8,45.6-107.4c-8.8-28.8-15.2-41,2.4-68.8c14.8-27.6,40.6-48.6,42.6-81c0.4-35-15.6-70.4-46.8-83.8
				c-25.6-10.8-48.6-6.4-74-13.2c-56.2-15.8-92.2-103-162-73c-17.4,8.2-27.2,27-46,32.6"/>
		</g>
		<g opacity="0.3">
			<g>
				<g>
					<path fill="#A2DBF1" d="M509.2,319.6c7,0,7-11,0-11C502,308.6,502,319.6,509.2,319.6L509.2,319.6z"/>
				</g>
			</g>
			<g>
				<g>
					<path fill="#A2DBF1" d="M183.2,488.8c14.2,0,14.2-22,0-22S169,488.8,183.2,488.8L183.2,488.8z"/>
				</g>
			</g>
			<g>
				<g>
					<path fill="#A2DBF1" d="M844.6,576.4c14.2,0,14.2-22,0-22C830.4,554.4,830.4,576.4,844.6,576.4L844.6,576.4z"/>
				</g>
			</g>
			<g>
				<g>
					<path fill="#A2DBF1" d="M472,314.2c14.2,0,14.2-22,0-22S457.8,314.2,472,314.2L472,314.2z"/>
				</g>
			</g>
			<g>
				<g>
					<path fill="#A2DBF1" d="M866.6,541.6c18.4,0,18.4-28.6,0-28.6C848.2,513,848.2,541.6,866.6,541.6L866.6,541.6z"/>
				</g>
			</g>
			<g>
				<g>
					<path fill="#A2DBF1" d="M146.2,525c18.4,0,18.4-28.6,0-28.6S127.8,525,146.2,525L146.2,525z"/>
				</g>
			</g>
			<g>
				<g>
					<path fill="#A2DBF1" d="M756.6,353.2c18.4,0,18.4-28.6,0-28.6C738.2,324.6,738.2,353.2,756.6,353.2L756.6,353.2z"/>
				</g>
			</g>
			<g>
				<g>
					<path fill="#A2DBF1" d="M503.6,296.2c21.2,0,21.2-33,0-33C482.4,263.2,482.4,296.2,503.6,296.2L503.6,296.2z"/>
				</g>
			</g>
			<g>
				<g>
					<path fill="#A2DBF1" d="M878.4,567.4c10.6,0,10.6-16.4,0-16.4C867.8,550.8,867.8,567.4,878.4,567.4L878.4,567.4z"/>
				</g>
			</g>
			<g>
				<g>
					<path fill="#A2DBF1" d="M142.4,479.2c10.6,0,10.6-16.4,0-16.4S131.6,479.2,142.4,479.2L142.4,479.2z"/>
				</g>
			</g>
			<g>
				<g>
					<path fill="#A2DBF1" d="M791,369.2c10.6,0,10.6-16.6,0-16.6S780.4,369.2,791,369.2L791,369.2z"/>
				</g>
			</g>
			<g>
				<g>
					<path fill="#A2DBF1" d="M788.2,338.8c7,0,7-11,0-11S781.2,338.8,788.2,338.8L788.2,338.8z"/>
				</g>
			</g>
			<g>
				<g>
					<path fill="#A2DBF1" d="M231.2,319.8c14.2,0,14.2-22,0-22S217,319.8,231.2,319.8L231.2,319.8z"/>
				</g>
			</g>
			<g>
				<g>
					<path fill="#A2DBF1" d="M857,699.2c14.2,0,14.2-22,0-22S842.8,699.2,857,699.2L857,699.2z"/>
				</g>
			</g>
			<g>
				<g>
					<path fill="#A2DBF1" d="M142,708.8c14.2,0,14.2-22,0-22S127.8,708.8,142,708.8L142,708.8z"/>
				</g>
			</g>
			<g>
				<g>
					<path fill="#A2DBF1" d="M264.2,303.4c7,0,7-11,0-11C257,292.4,257,303.4,264.2,303.4L264.2,303.4z"/>
				</g>
			</g>
			<g>
				<g>
					<path fill="#A2DBF1" d="M858.4,655.2c7,0,7-11,0-11S851.4,655.2,858.4,655.2L858.4,655.2z"/>
				</g>
			</g>
			<g>
				<g>
					<path fill="#A2DBF1" d="M175,722.4c7,0,7-11,0-11S168,722.4,175,722.4L175,722.4z"/>
				</g>
			</g>
		</g>
	</g>
	<g>
		<g>
			<g>
				<g>
					<g>
						<g>
							<path fill="#327ABD" d="M332,537.2c-7.4,2.6-12.4,3.2-16-4.4c-3-5.8-4.8-11.8-8.6-17.2c-8-11.8-15.8-12.4-28.4-10.8
								s-30-1.6-31.8-16.2c-1.4-10.4-1.4-20-6-29.8c-2.2-4.8-9.4-0.6-7.2,4.2c5,10.8,2.8,22.6,6.6,33.6c3.8,11.2,16.4,14.8,26.8,16
								c8,1,15-1,22.8-1c8.4,0,14.2,14.4,16.8,20.8c5.6,13.2,13.4,17.6,27.4,12.6C339.2,543.4,337,535.6,332,537.2L332,537.2z"/>
						</g>
					</g>
					<g>
						<g>
							<g>
								<path fill="#327ABD" d="M244.8,447.8c-2.4,3.2-5.4,5.2-9,7c-3.8,2-0.4,7.6,3.4,5.6c4.6-2.4,8.2-5.2,11.4-9.4
									c1-1.4,0.2-3.6-1.2-4.6C247.6,445.6,246,446.4,244.8,447.8L244.8,447.8z"/>
							</g>
						</g>
						<g>
							<g>
								<path fill="#327ABD" d="M233,439c0,7,1,14,1,21c0,4.2,6.6,4.2,6.6,0c0-7-1-14-1-21C239.6,434.8,233,434.8,233,439L233,439z"
									/>
							</g>
						</g>
						<g>
							<g>
								<path fill="#327ABD" d="M222,445.8c4.4,5.6,9,11,15,14.8c3.6,2.2,7-3.4,3.4-5.6c-5.6-3.4-9.6-8.8-13.6-13.8
									C224,437.8,219.2,442.4,222,445.8L222,445.8z"/>
							</g>
						</g>
						<g>
							<g>
								<path fill="#327ABD" d="M216.4,455.6c6.2,5.8,13.8,7.8,22,5.2c4-1.2,2.4-7.6-1.8-6.4c-5.8,1.8-11,0.6-15.4-3.6
									C218,448,213.4,452.6,216.4,455.6L216.4,455.6z"/>
							</g>
						</g>
					</g>
				</g>
				<g>
					<g>
						<g>
							<path fill="#327ABD" d="M669.4,557.8c0.2-10.8,4-14.4,14.4-15.2c6.8-0.6,13.6-0.4,20.4-1.8c10.2-2,10-16,14-23.2
								c6-11,22.2-10,32.6-13.2c11.6-3.6,16-13.4,16.6-24.8c0.4-5.4-8-5.2-8.2,0c-1,17-13.4,17.4-27,20.2c-12,2.4-20.2,9-24.2,20.6
								c-1.4,3.6-1.6,11.2-6,12.4c-7,1.8-15,1-22.2,1.8c-13.4,1.4-18.2,10.2-18.4,23C661,563,669.4,563,669.4,557.8L669.4,557.8z"/>
						</g>
					</g>
					<g>
						<g>
							<g>
								<path fill="#327ABD" d="M748,469.6c2.8,6.8,7.6,11.6,14.4,14.4c1.6,0.6,3.6-0.8,4-2.4c0.6-2-0.6-3.4-2.4-4
									c-4.4-1.8-8-5.4-9.8-9.8c-0.6-1.6-2.2-2.8-4-2.4C748.8,466,747.2,467.8,748,469.6L748,469.6z"/>
							</g>
						</g>
						<g>
							<g>
								<path fill="#327ABD" d="M757.8,461c0,5.6,0,11,0,16.4c0,4.2,6.6,4.2,6.6,0c0-5.6,0-11,0-16.4
									C764.4,456.8,757.8,456.8,757.8,461L757.8,461z"/>
							</g>
						</g>
						<g>
							<g>
								<path fill="#327ABD" d="M768.8,462.2c-2,5.8-5.4,10.2-10.2,14c-3.2,2.6,1.4,7.4,4.6,4.6c5.6-4.6,9.4-10,11.8-16.8
									C776.6,460,770.2,458.2,768.8,462.2L768.8,462.2z"/>
							</g>
						</g>
						<g>
							<g>
								<path fill="#327ABD" d="M777,469.2c-2.8,4.6-7.4,7.4-12.4,9.4c-3.8,1.6-2.2,8,1.8,6.4c6.6-2.6,12.4-6.4,16.2-12.6
									C784.8,469,779.2,465.6,777,469.2L777,469.2z"/>
							</g>
						</g>
					</g>
				</g>
			</g>
			<g>
				<g>
					<g>
						<path fill="#FFFFFF" d="M708.8,677.4c0,5.8-43.2,7.4-47.8,7.4H337.6c-4.6,0-47.8-1.6-47.8-7.4l39.4-59.2
							c0-5.8,3.8-10.4,8.4-10.4H661c4.6,0,8.4,4.6,8.4,10.4L708.8,677.4z"/>
						<g>
							<g>
								<polygon fill="#327ABD" points="432.8,664.2 349.6,664.2 364.2,629 439.4,629 								"/>
								<polygon fill="#327ABD" points="565.8,664.2 648.8,664.2 634.4,629 559.2,629 								"/>
								<polygon fill="#327ABD" points="658,664.2 687.4,664.2 663.4,629 641.4,629 								"/>
								<polygon fill="#327ABD" points="340.4,664.2 311.2,664.2 335.2,629 357.2,629 								"/>
								<polygon fill="#327ABD" points="558.4,664.2 440,664.2 446.6,629 551.8,629 								"/>
							</g>
							<g>
								<rect x="318.4" y="635.4" fill="#FFFFFF" width="361.8" height="5.4"/>
								<rect x="314.4" y="648.6" fill="#FFFFFF" width="369.6" height="5.4"/>
							</g>
						</g>
					</g>
					<g>
						<path fill="#327ABD" d="M711,691c0,4.6-1,8.4-5.6,8.4H293.2c-4.6,0-5.6-3.8-5.6-8.4v-7.2c0-4.6,1-8.4,5.6-8.4h412.2
							c4.6,0,5.6,3.8,5.6,8.4V691z"/>
						<path fill="#327ABD" d="M576.6,687.6c0,2.4-2,4.4-4.4,4.4H426.4c-2.4,0-4.4-2-4.4-4.4l0,0c0-2.4,2-4.4,4.4-4.4h145.8
							C574.6,683.2,576.6,685.2,576.6,687.6L576.6,687.6z"/>
					</g>
				</g>
				<g>
					<path fill="#327ABD" d="M673.6,610.2c0,4.6-3.8,8.4-8.4,8.4H333.4c-4.6,0-8.4-3.8-8.4-8.4V393.8c0-4.6,3.8-8.4,8.4-8.4h331.8
						c4.6,0,8.4,3.8,8.4,8.4V610.2z"/>
					<g>
						<g>
							<path fill="#FFFFFF" d="M499.2,397c4.6,0,4.6-7,0-7S494.8,397,499.2,397L499.2,397z"/>
						</g>
					</g>
					<g>
						<path fill="#FFFFFF" d="M649.2,596.6c0,4-3.2,7.2-7.2,7.2H356.6c-4,0-7.2-3.2-7.2-7.2V410.4c0-4,3.2-7.2,7.2-7.2H642
							c4,0,7.2,3.2,7.2,7.2V596.6z"/>
						<g>
							<g>
								<g>
									
										<line fill="none" stroke="#425973" stroke-width="3.3" stroke-linecap="round" stroke-linejoin="round" stroke-miterlimit="10" x1="455.6" y1="478.6" x2="430.8" y2="503.6"/>
									
										<line fill="none" stroke="#425973" stroke-width="3.3" stroke-linecap="round" stroke-linejoin="round" stroke-miterlimit="10" x1="455.6" y1="503.6" x2="430.8" y2="478.6"/>
								</g>
								<g>
									
										<line fill="none" stroke="#425973" stroke-width="3.3" stroke-linecap="round" stroke-linejoin="round" stroke-miterlimit="10" x1="567.8" y1="478.6" x2="543" y2="503.6"/>
									
										<line fill="none" stroke="#425973" stroke-width="3.3" stroke-linecap="round" stroke-linejoin="round" stroke-miterlimit="10" x1="567.8" y1="503.6" x2="543" y2="478.6"/>
								</g>
							</g>
							<g>
								<g>
									<path fill="#DD9AB2" d="M556.6,533.6v24.6c0,4.8-4,8.8-8.8,8.8H543c-4.8,0-8.8-4-8.8-8.8v-24.6"/>
									<g>
										<polygon fill="#D6819F" points="549.4,534.8 545.4,563.4 541.6,534.8 										"/>
									</g>
								</g>
								
									<line fill="none" stroke="#425973" stroke-width="2.75" stroke-linecap="round" stroke-linejoin="round" stroke-miterlimit="10" x1="424.6" y1="533.6" x2="573.8" y2="533.6"/>
							</g>
						</g>
					</g>
				</g>
			</g>
		</g>
		<g>
			<g>
				<g>
					<path fill="#DB9022" d="M617,356.4c0,24.2,0,48.4,0,72.6c0,7,11,7,11,0c0-24.2,0-48.4,0-72.6C628,349.4,617,349.4,617,356.4
						L617,356.4z"/>
				</g>
			</g>
			<g>
				<g>
					<path fill="#DB9022" d="M622.4,457.2c10.6,0,10.6-16.4,0-16.4C611.8,440.6,611.8,457.2,622.4,457.2L622.4,457.2z"/>
				</g>
			</g>
		</g>
	</g>
</g>
<g>
	<g>
		<path fill="#FFD7B6" d="M-1121,643.2l0.4,9.5c0.1,3.1,2.6,5.5,5.7,5.5h2.1c3.1,0,5.6-2.5,5.7-5.6l0.1-6.4c0-1.2,1.8-1.5,2.1-0.3
			l7.6,23.3c1.1,3.3,4.6,5.1,7.9,4.1l0.1,0c3.1-1,5-4.2,4.2-7.5l-9.5-41.1c-0.2-0.9,0.9-1.5,1.5-0.8l5,5c0.6,0.6,1.4,0.9,2.2,0.9
			l10.8-0.3c0.4,0,0.7-0.2,1-0.5l9.4-13.1c0.7-1,0.8-2.4,0.1-3.5l-1.4-2.1l3.4-2.3c0.5-0.3,0.7-0.9,0.5-1.5l-5-15.7l-19.4-15.9
			c-1.4-1.2-2.3-2.9-2.3-4.8l-0.3-16.2h-36.5v20.6l-6.7,18.1v43.6c0,2.4,1.9,4.3,4.3,4.3h3.9C-1122.4,640.4-1121.1,641.7-1121,643.2
			z M-1087.8,599.3l5.3-2.5l6,2.8v4.8c0,1.2,0.6,2.3,1.5,3l3.8,2.8h-3.8c-0.5,0-1,0.2-1.3,0.6l-4.8,5.1l-6.7-7.5V599.3z"/>
	</g>
	<path fill="#FFB89C" d="M-1103,652l-9-35.5c-0.1-0.2-0.3-0.4-0.5-0.3l-2.3,0.6c-0.2,0.1-0.4,0.3-0.3,0.5l8.1,30.7
		c0,0-0.1-1.2,0.2-2.2c0.2-0.8,1.3-0.9,1.8-0.2C-1104.6,646.7-1103.9,648.4-1103,652z"/>
	<path fill="#FFB89C" d="M-1121.1,642.5l-2.6-28.9c-0.1-0.8-0.8-1.4-1.6-1.4l0,0c-0.9,0-1.7,0.8-1.6,1.7l2.3,26.6
		C-1124.6,640.4-1122.1,640-1121.1,642.5z"/>
	<path fill="#327ABD" d="M-1129.4,539.6l46.5-0.1c2.5,0,4.6-2.1,4.6-4.6l-0.1-336.6h-55.6v337.5
		C-1133.9,538.3-1131.9,539.6-1129.4,539.6z"/>
	<path fill="#327ABD" d="M-1086.3,538.2l0,13.4c0,1.2-1,2.2-2.2,2.2l-37.2,0.1c-1.2,0-2.2-1-2.2-2.2l0-13.4L-1086.3,538.2z"/>
	
		<rect x="-1108.7" y="520.4" transform="matrix(-2.617996e-03 -1 1 -2.617996e-03 -1651.244 -564.4055)" fill="#8115FF" width="3.2" height="41.6"/>
</g>
<rect x="-1025" y="458.2" fill="none" width="652.5" height="234"/>
<text transform="matrix(1 0 0 1 -1025.0253 556.96)"><tspan x="0" y="0" fill="#327ABD" font-family="'OpenSans-Extrabold'" font-size="130">404</tspan><tspan x="0" y="72" fill="#327ABD" font-family="'OpenSans'" font-size="60">Page not found</tspan></text>
</svg>
