<?xml version="1.0" encoding="utf-8"?>
<!-- Generator: Adobe Illustrator 18.0.0, SVG Export Plug-In . SVG Version: 6.00 Build 0)  -->
<!DOCTYPE svg PUBLIC "-//W3C//DTD SVG 1.1//EN" "http://www.w3.org/Graphics/SVG/1.1/DTD/svg11.dtd">
<svg version="1.1" id="OBJECTS" xmlns="http://www.w3.org/2000/svg" xmlns:xlink="http://www.w3.org/1999/xlink" x="0px" y="0px"
	 viewBox="0 0 1000 1000" enable-background="new 0 0 1000 1000" xml:space="preserve">
<g>
	<g opacity="0.22">
		<path fill="#A2DBF1" d="M528.8,335.6c-78.4,25-326.2-98.2-306.8,70.2c3,25,19.2,60.4,5.6,83.8c-9.8,17.6-28,27.8-45.4,34.6
			c-45.6,18.6-62.6,53.4-51,103c31,133.8,199.2,102.2,287.4,62.4c62.8-29.6,137-34.6,202-9.6c51,20.4,82.8,63,142.6,50.6
			c53-10.6,61-60.8,45.6-107.4c-8.8-28.8-15.2-41,2.4-68.8c14.8-27.6,40.6-48.6,42.6-81c0.4-35-15.6-70.4-46.8-83.8
			c-25.6-10.8-48.6-6.4-74-13.2c-56.2-15.8-92.2-103-162-73c-17.4,8.2-27.2,27-46,32.6"/>
	</g>
	<g opacity="0.3">
		<g>
			<g>
				<path fill="#A2DBF1" d="M500.4,323.6c7,0,7-11,0-11C493.1,312.6,493.1,323.6,500.4,323.6L500.4,323.6z"/>
			</g>
		</g>
		<g>
			<g>
				<path fill="#A2DBF1" d="M174.3,492.8c14.2,0,14.2-22,0-22S160.1,492.8,174.3,492.8L174.3,492.8z"/>
			</g>
		</g>
		<g>
			<g>
				<path fill="#A2DBF1" d="M835.8,580.4c14.2,0,14.2-22,0-22C821.6,558.4,821.6,580.4,835.8,580.4L835.8,580.4z"/>
			</g>
		</g>
		<g>
			<g>
				<path fill="#A2DBF1" d="M463.1,318.2c14.2,0,14.2-22,0-22S448.9,318.2,463.1,318.2L463.1,318.2z"/>
			</g>
		</g>
		<g>
			<g>
				<path fill="#A2DBF1" d="M857.8,545.6c18.4,0,18.4-28.6,0-28.6C839.4,517,839.4,545.6,857.8,545.6L857.8,545.6z"/>
			</g>
		</g>
		<g>
			<g>
				<path fill="#A2DBF1" d="M137.3,529c18.4,0,18.4-28.6,0-28.6S118.9,529,137.3,529L137.3,529z"/>
			</g>
		</g>
		<g>
			<g>
				<path fill="#A2DBF1" d="M747.8,357.2c18.4,0,18.4-28.6,0-28.6C729.4,328.6,729.4,357.2,747.8,357.2L747.8,357.2z"/>
			</g>
		</g>
		<g>
			<g>
				<path fill="#A2DBF1" d="M494.8,300.2c21.2,0,21.2-33,0-33S473.5,300.2,494.8,300.2L494.8,300.2z"/>
			</g>
		</g>
		<g>
			<g>
				<path fill="#A2DBF1" d="M869.6,571.4c10.6,0,10.6-16.4,0-16.4C859,554.8,859,571.4,869.6,571.4L869.6,571.4z"/>
			</g>
		</g>
		<g>
			<g>
				<path fill="#A2DBF1" d="M133.5,483.2c10.6,0,10.6-16.4,0-16.4S122.8,483.2,133.5,483.2L133.5,483.2z"/>
			</g>
		</g>
		<g>
			<g>
				<path fill="#A2DBF1" d="M782.2,373.2c10.6,0,10.6-16.6,0-16.6S771.6,373.2,782.2,373.2L782.2,373.2z"/>
			</g>
		</g>
		<g>
			<g>
				<path fill="#A2DBF1" d="M779.4,342.8c7,0,7-11,0-11S772.4,342.8,779.4,342.8L779.4,342.8z"/>
			</g>
		</g>
		<g>
			<g>
				<path fill="#A2DBF1" d="M222.3,323.8c14.2,0,14.2-22,0-22S208.1,323.8,222.3,323.8L222.3,323.8z"/>
			</g>
		</g>
		<g>
			<g>
				<path fill="#A2DBF1" d="M848.2,703.2c14.2,0,14.2-22,0-22S834,703.2,848.2,703.2L848.2,703.2z"/>
			</g>
		</g>
		<g>
			<g>
				<path fill="#A2DBF1" d="M133.1,712.8c14.2,0,14.2-22,0-22S118.9,712.8,133.1,712.8L133.1,712.8z"/>
			</g>
		</g>
		<g>
			<g>
				<path fill="#A2DBF1" d="M255.4,307.4c7,0,7-11,0-11C248.1,296.4,248.1,307.4,255.4,307.4L255.4,307.4z"/>
			</g>
		</g>
		<g>
			<g>
				<path fill="#A2DBF1" d="M849.6,659.2c7,0,7-11,0-11S842.6,659.2,849.6,659.2L849.6,659.2z"/>
			</g>
		</g>
		<g>
			<g>
				<path fill="#A2DBF1" d="M166.1,726.4c7,0,7-11,0-11S159.1,726.4,166.1,726.4L166.1,726.4z"/>
			</g>
		</g>
	</g>
</g>
<g>
	<g>
		<path fill="#FFD7B6" d="M-1121,883.2l0.4,9.5c0.1,3.1,2.6,5.5,5.7,5.5h2.1c3.1,0,5.6-2.5,5.7-5.6l0.1-6.4c0-1.2,1.8-1.5,2.1-0.3
			l7.6,23.3c1.1,3.3,4.6,5.1,7.9,4.1h0.1c3.1-1,5-4.2,4.2-7.5l-9.5-41.1c-0.2-0.9,0.9-1.5,1.5-0.8l5,5c0.6,0.6,1.4,0.9,2.2,0.9
			l10.8-0.3c0.4,0,0.7-0.2,1-0.5l9.4-13.1c0.7-1,0.8-2.4,0.1-3.5l-1.4-2.1l3.4-2.3c0.5-0.3,0.7-0.9,0.5-1.5l-5-15.7l-19.4-15.9
			c-1.4-1.2-2.3-2.9-2.3-4.8l-0.3-16.2h-36.5v20.6l-6.7,18.1v43.6c0,2.4,1.9,4.3,4.3,4.3h3.9C-1122.4,880.4-1121.1,881.7-1121,883.2
			z M-1087.8,839.3l5.3-2.5l6,2.8v4.8c0,1.2,0.6,2.3,1.5,3l3.8,2.8h-3.8c-0.5,0-1,0.2-1.3,0.6l-4.8,5.1l-6.7-7.5V839.3z"/>
	</g>
	<path fill="#FFB89C" d="M-1103,892l-9-35.5c-0.1-0.2-0.3-0.4-0.5-0.3l-2.3,0.6c-0.2,0.1-0.4,0.3-0.3,0.5l8.1,30.7
		c0,0-0.1-1.2,0.2-2.2c0.2-0.8,1.3-0.9,1.8-0.2C-1104.6,886.7-1103.9,888.4-1103,892z"/>
	<path fill="#FFB89C" d="M-1121.1,882.5l-2.6-28.9c-0.1-0.8-0.8-1.4-1.6-1.4l0,0c-0.9,0-1.7,0.8-1.6,1.7l2.3,26.6
		C-1124.6,880.4-1122.1,880-1121.1,882.5z"/>
	<path fill="#327ABD" d="M-1129.4,779.6l46.5-0.1c2.5,0,4.6-2.1,4.6-4.6l-0.1-336.6h-55.6v337.5
		C-1133.9,778.3-1131.9,779.6-1129.4,779.6z"/>
	<path fill="#327ABD" d="M-1086.3,778.2v13.4c0,1.2-1,2.2-2.2,2.2l-37.2,0.1c-1.2,0-2.2-1-2.2-2.2v-13.4L-1086.3,778.2z"/>
	
		<rect x="-1108.7" y="760.5" transform="matrix(2.618028e-03 1 -1 2.618028e-03 -322.9722 1886.374)" fill="#8115FF" width="3.2" height="41.6"/>
</g>
<rect x="-1025" y="698.2" fill="none" width="652.5" height="234"/>
<text transform="matrix(1 0 0 1 -1025.0253 796.96)" fill="#327ABD" font-family="'OpenSans-Extrabold'" font-size="130">404</text>
<text transform="matrix(1 0 0 1 -1025.0253 868.96)" fill="#327ABD" font-family="'OpenSans'" font-size="60">Page not found</text>
<g>
	<path fill="none" stroke="#FFFFFF" stroke-width="4.8319" stroke-linecap="round" stroke-miterlimit="10" d="M430.3,501.8
		l68.6-22.1c29.9-9.6,61.9,6.8,71.5,36.7l15.6,48.5c9.4,29.1,40.6,45.2,69.7,35.8c29.1-9.4,45.2-40.6,35.8-69.7l-5-15.4
		c-9.6-29.9,6.8-61.9,36.7-71.5l32.7-10.5"/>
	<g>
		<path fill="#31638C" d="M326.2,260.1c-1.8-5.7-8-8.9-13.7-7l-44.8,14.4c-5.7,1.8-8.9,8-7,13.7l3.8,11.9L330,272L326.2,260.1z"/>
		<path fill="none" stroke="#177D74" stroke-width="4.3677" stroke-miterlimit="10" d="M403.5,305.7l11.1-3.6
			c5.7-1.8,11.9,1.3,13.7,7l27.3,84.7l-29.7,9.5"/>
		<path fill="#327ABD" d="M428.9,384.8c3,9.2-2.1,19.1-11.3,22.1l-113.8,36.6c-9.2,3-19.1-2.1-22.1-11.3l-36.8-114.3
			c-3-9.2,2.1-19.1,11.3-22.1L370,259.1c9.2-3,19.1,2.1,22.1,11.3L428.9,384.8z"/>
		<g>
			<g>
				<path fill="#31638C" d="M479.9,543.5l38.5-12.4l-35.8-111.3c-8.4-26-36.3-40.3-62.3-32l-48.1,15.5l12.4,38.5l48.1-15.5
					c4.7-1.5,9.8,1.1,11.4,5.8L479.9,543.5z"/>
			</g>
			<path fill="#49999D" d="M481.1,471c2.9,9,12.5,13.9,21.5,11l-10.5-32.5C483.2,452.4,478.2,462.1,481.1,471z"/>
			<path fill="#1C4360" d="M479.9,467.2c2.9,9,12.5,13.9,21.5,11l-10.5-32.5C481.9,448.6,477,458.2,479.9,467.2z"/>
			<g>
				<path fill="#3D9AD3" d="M459.4,480.1l38.4-12.3c3.2-1,4.9-4.4,3.9-7.6c-1-3.2-4.4-4.9-7.6-3.9l-38.4,12.3L459.4,480.1z"/>
			</g>
			<path fill="#FFFFFF" d="M476,406.5c-2.8,4.6-7.1,8.2-12.6,10c-12.2,3.9-25.2-2.8-29.1-14.9c-1.8-5.5-1.4-11.1,0.7-16.1
				C451.2,385.3,466.6,393.2,476,406.5z"/>
			
				<rect x="460.2" y="423.3" transform="matrix(-0.952 0.3062 -0.3062 -0.952 1051.7708 686.5552)" fill="#FA870A" width="23.7" height="4.9"/>
			
				<rect x="462.6" y="431" transform="matrix(-0.952 0.3062 -0.3062 -0.952 1058.9685 700.8403)" fill="#FA870A" width="23.7" height="4.9"/>
			
				<rect x="465.1" y="438.7" transform="matrix(-0.952 0.3062 -0.3062 -0.952 1066.1665 715.1255)" fill="#FA870A" width="23.7" height="4.9"/>
			<g>
				<path fill="#31638C" d="M404.2,326.4c1.4,4.4-1,9.2-5.4,10.6l-121.4,39c-4.4,1.4-9.2-1-10.6-5.4l-9.1-28.3
					c-1.4-4.4,1-9.2,5.4-10.6l121.4-39c4.4-1.4,9.2,1,10.6,5.4L404.2,326.4z"/>
				<circle fill="#3D9AD3" cx="331" cy="334.3" r="65"/>
				<circle fill="#82878C" cx="331" cy="334.3" r="50.6"/>
				<circle fill="#10283A" cx="331" cy="334.3" r="43.2"/>
				<path fill="#373C41" d="M356.1,299.1c2.3,3.4,4.2,7.1,5.5,11.2c7.3,22.7-5.2,47.1-27.9,54.4c-13.5,4.3-27.6,1.7-38.3-6
					c10.5,15.3,30.2,22.7,48.9,16.7c22.7-7.3,35.2-31.7,27.9-54.4C369.2,311.9,363.4,304.3,356.1,299.1z"/>
				<path fill="#82878C" d="M323,305c1.8-1.7,3.7-3.3,5.8-4.7c-2.8,0.2-5.6,0.7-8.4,1.6c-5.3,1.7-9.9,4.6-13.6,8.3L323,305z"/>
				<path fill="#82878C" d="M301,318.2c-3.9,7.2-5.2,15.8-3,24.3l16.1-5.2c-2.1-8.5-0.8-17.1,3.1-24.3L301,318.2z"/>
			</g>
			
				<line fill="none" stroke="#78E9E1" stroke-width="5.3688" stroke-linecap="round" stroke-miterlimit="10" x1="277.4" y1="413.5" x2="420.6" y2="367.4"/>
			
				<rect x="313.6" y="398.9" transform="matrix(0.952 -0.3062 0.3062 0.952 -129.9286 139.6214)" fill="#31638C" width="133" height="170.2"/>
			
				<rect x="363.6" y="555.5" transform="matrix(0.952 -0.3062 0.3062 0.952 -178.8395 150.644)" fill="#327ABD" width="54.5" height="179.9"/>
			
				<rect x="438.3" y="531.5" transform="matrix(0.952 -0.3062 0.3062 0.952 -167.8894 172.3698)" fill="#327ABD" width="54.5" height="179.9"/>
			<g>
				<path fill="#31638C" d="M334.2,590.3l-38.5,12.4l-35.8-111.3c-8.4-26,6-53.9,32-62.3l48.1-15.5l12.4,38.5l-48.1,15.5
					c-4.7,1.5-7.4,6.6-5.8,11.4L334.2,590.3z"/>
			</g>
			
				<rect x="333" y="433.4" transform="matrix(0.952 -0.3062 0.3062 0.952 -127.4194 138.0178)" fill="#49999D" width="86.6" height="83.7"/>
			
				<rect x="331.7" y="429.5" transform="matrix(0.952 -0.3062 0.3062 0.952 -126.2991 137.4533)" fill="#FFFFFF" width="86.6" height="83.7"/>
			<path fill="#3D9AD3" d="M440.5,710.9c-4.6-14.3-19.9-22.2-34.3-17.6c-14.3,4.6-22.2,19.9-17.6,34.3l3.8,11.8l51.8-16.7
				L440.5,710.9z"/>
			
				<rect x="392.1" y="730.9" transform="matrix(0.952 -0.3062 0.3062 0.952 -204.6318 163.6384)" fill="#10283A" width="54.5" height="6.5"/>
			<circle fill="#1C4360" cx="392" cy="649.2" r="27.4"/>
			<circle fill="#FFFFFF" cx="390.3" cy="644.1" r="27.4"/>
			
				<line fill="none" stroke="#78E9E1" stroke-width="4.8319" stroke-linecap="round" stroke-miterlimit="10" x1="364.2" y1="652.5" x2="416.4" y2="635.7"/>
			
				<rect x="331.4" y="531.9" transform="matrix(0.952 -0.3062 0.3062 0.952 -146.222 147.7853)" fill="#1C4360" width="133.2" height="16.2"/>
			
				<rect x="335.5" y="446.8" transform="matrix(0.952 -0.3062 0.3062 0.952 -122.8125 129.9733)" fill="#49999D" width="34.9" height="19.3"/>
			
				<rect x="340.9" y="470.3" transform="matrix(0.952 -0.3062 0.3062 0.952 -127.7271 132.4475)" fill="#10283A" width="34.9" height="6.3"/>
			<circle fill="#FA870A" cx="357.7" cy="499.2" r="8.9"/>
			<circle fill="#696E73" cx="384.4" cy="490.6" r="11.3"/>
			<circle fill="#3D9AD3" cx="384.4" cy="490.6" r="7"/>
			
				<rect x="380.9" y="438.3" transform="matrix(0.952 -0.3062 0.3062 0.952 -118.5815 141.3184)" fill="#FA870A" width="20.7" height="20.7"/>
			<polygon fill="#FA690F" points="404.2,455.4 384.5,461.7 397.9,435.7 			"/>
			
				<rect x="404.1" y="468.5" transform="matrix(0.952 -0.3062 0.3062 0.952 -125.7613 153.1167)" fill="#1C4360" width="42.3" height="17.9"/>
			<path fill="#3D9AD3" d="M335.6,594.7c3.4,10.6-2.5,21.9-13.1,25.4c-10.6,3.4-22-2.4-25.4-13l-7.6-23.6l38.5-12.4L335.6,594.7z"/>
			
				<line fill="none" stroke="#78E9E1" stroke-width="5.3688" stroke-linecap="round" stroke-miterlimit="10" x1="323.4" y1="579.6" x2="338.6" y2="591.3"/>
			<polygon fill="#3D9AD3" points="463.4,527.5 336.5,568.3 394.7,568.7 417.6,561.4 			"/>
			<path fill="#49999D" d="M291,532.2c2.9,9-2.1,18.6-11,21.5l-10.5-32.5C278.4,518.3,288.1,523.2,291,532.2z"/>
			<path fill="#1C4360" d="M289.7,528.4c2.9,9-2.1,18.6-11,21.5l-10.5-32.5C277.2,514.4,286.8,519.4,289.7,528.4z"/>
			<g>
				<path fill="#3D9AD3" d="M313.9,527l-38.4,12.3c-3.2,1-6.6-0.7-7.6-3.9c-1-3.2,0.7-6.6,3.9-7.6l38.4-12.3L313.9,527z"/>
			</g>
			<path fill="#10283A" d="M396.9,746.9l-2.5-1.3l3.5-6.9l6.9,3.5l-1.3,2.5C402.3,747.2,399.3,748.1,396.9,746.9z"/>
			<path fill="#10283A" d="M407.3,743.5l-2.5-1.3l3.5-6.9l6.9,3.5l-1.3,2.5C412.7,743.8,409.7,744.8,407.3,743.5z"/>
			<path fill="#10283A" d="M417.6,740.2l-2.5-1.3l3.5-6.9l6.9,3.5l-1.3,2.5C423,740.5,420.1,741.4,417.6,740.2z"/>
			<path fill="#10283A" d="M428,736.9l-2.5-1.3l3.5-6.9l6.9,3.5l-1.3,2.5C433.4,737.2,430.4,738.1,428,736.9z"/>
			<path fill="#10283A" d="M438.4,733.5l-2.5-1.3l3.5-6.9l6.9,3.5l-1.3,2.5C443.8,733.8,440.8,734.8,438.4,733.5z"/>
			<g>
				<path fill="#B6FFF6" d="M408,700.4c1.2-1.2,2.5-2.3,4-3.2c-1.9,0.1-3.8,0.5-5.7,1.1c-3.6,1.2-6.7,3.1-9.2,5.6L408,700.4z"/>
				<path fill="#B6FFF6" d="M393,709.4c-2.6,4.9-3.5,10.7-2.1,16.5l10.9-3.5c-1.4-5.7-0.6-11.6,2.1-16.5L393,709.4z"/>
			</g>
			<g>
				<path fill="#B6FFF6" d="M321.2,615.2c1.2,0.2,2.3,0.3,3.5,0.2c-1.1,0.7-2.3,1.3-3.6,1.7c-2.5,0.8-5.1,1-7.5,0.6L321.2,615.2z"/>
				<path fill="#B6FFF6" d="M309.1,616.2c-3.5-1.7-6.3-4.7-7.9-8.5l7.6-2.4c1.5,3.8,4.4,6.8,7.9,8.5L309.1,616.2z"/>
			</g>
			<g>
				
					<rect x="283.8" y="564.1" transform="matrix(0.952 -0.3062 0.3062 0.952 -160.0253 121.3167)" fill="#49999D" width="45.9" height="13.5"/>
			</g>
			<path fill="#FFFFFF" d="M257.5,476.8c4.9,2.1,10.6,2.5,16.1,0.7c12.2-3.9,18.9-17,14.9-29.1c-1.8-5.5-5.4-9.8-10-12.6
				C265.3,445.1,257.3,460.5,257.5,476.8z"/>
			
				<rect x="260.1" y="487.7" transform="matrix(0.952 -0.3062 0.3062 0.952 -136.9946 106.7905)" fill="#FA870A" width="23.7" height="4.9"/>
			
				<rect x="262.5" y="495.4" transform="matrix(0.952 -0.3062 0.3062 0.952 -139.2353 107.9195)" fill="#FA870A" width="23.7" height="4.9"/>
			
				<rect x="265" y="503.1" transform="matrix(0.952 -0.3062 0.3062 0.952 -141.4758 109.0484)" fill="#FA870A" width="23.7" height="4.9"/>
			<path fill="#3D9AD3" d="M515.6,686.7c-4.6-14.3-19.9-22.2-34.3-17.6c-14.3,4.6-22.2,19.9-17.6,34.3l3.8,11.8l51.8-16.7
				L515.6,686.7z"/>
			
				<rect x="467.3" y="706.7" transform="matrix(0.952 -0.3062 0.3062 0.952 -193.6227 185.4878)" fill="#10283A" width="54.5" height="6.5"/>
			<circle fill="#1C4360" cx="467.3" cy="625" r="27.4"/>
			<circle fill="#FFFFFF" cx="465.6" cy="619.9" r="27.4"/>
			
				<line fill="none" stroke="#78E9E1" stroke-width="4.8319" stroke-linecap="round" stroke-miterlimit="10" x1="491.7" y1="611.5" x2="439.5" y2="628.3"/>
			<path fill="#3D9AD3" d="M481.3,547.8c3.4,10.6,14.8,16.4,25.4,13c10.6-3.4,16.5-14.8,13.1-25.4l-7.6-23.6l-38.5,12.4L481.3,547.8
				z"/>
			
				<line fill="none" stroke="#78E9E1" stroke-width="5.3688" stroke-linecap="round" stroke-miterlimit="10" x1="482.4" y1="528.4" x2="476.9" y2="546.8"/>
			<path fill="#10283A" d="M472,722.7l-2.5-1.3l3.5-6.9l6.9,3.5l-1.3,2.5C477.4,723,474.5,723.9,472,722.7z"/>
			<path fill="#10283A" d="M482.4,719.4l-2.5-1.3l3.5-6.9l6.9,3.5l-1.3,2.5C487.8,719.7,484.8,720.6,482.4,719.4z"/>
			<path fill="#10283A" d="M492.8,716l-2.5-1.3l3.5-6.9l6.9,3.5l-1.3,2.5C498.2,716.3,495.2,717.3,492.8,716z"/>
			<path fill="#10283A" d="M503.2,712.7l-2.5-1.3l3.5-6.9l6.9,3.5l-1.3,2.5C508.6,713,505.6,713.9,503.2,712.7z"/>
			<path fill="#10283A" d="M513.5,709.4l-2.5-1.3l3.5-6.9l6.9,3.5l-1.3,2.5C518.9,709.6,516,710.6,513.5,709.4z"/>
			<g>
				<path fill="#B6FFF6" d="M483.2,676.2c1.2-1.2,2.5-2.3,4-3.2c-1.9,0.1-3.8,0.5-5.7,1.1c-3.6,1.2-6.7,3.1-9.2,5.6L483.2,676.2z"/>
				<path fill="#B6FFF6" d="M468.2,685.2c-2.6,4.9-3.5,10.7-2.1,16.5l10.9-3.5c-1.4-5.7-0.6-11.6,2.1-16.5L468.2,685.2z"/>
			</g>
			<g>
				<path fill="#B6FFF6" d="M505,556.1c-0.8,0.8-1.8,1.6-2.8,2.2c1.3-0.1,2.6-0.3,3.9-0.7c2.5-0.8,4.7-2.2,6.4-3.9L505,556.1z"/>
				<path fill="#B6FFF6" d="M515.4,549.9c1.8-3.4,2.4-7.5,1.4-11.5l-7.6,2.4c1,4,0.4,8.1-1.4,11.5L515.4,549.9z"/>
			</g>
			<g>
				
					<rect x="467.9" y="504.9" transform="matrix(-0.952 0.3062 -0.3062 -0.952 1114.6732 848.3698)" fill="#49999D" width="45.9" height="13.5"/>
			</g>
			
				<line fill="none" stroke="#49999D" stroke-width="6.4425" stroke-linecap="round" stroke-miterlimit="10" x1="272.9" y1="430.5" x2="434.2" y2="378.6"/>
			
				<line fill="none" stroke="#54B5B7" stroke-width="6.4425" stroke-linecap="round" stroke-miterlimit="10" x1="298.6" y1="422.2" x2="340.4" y2="408.8"/>
			
				<line fill="none" stroke="#B6FFF6" stroke-width="5.3688" stroke-linecap="round" stroke-miterlimit="10" x1="300.5" y1="406" x2="329.4" y2="396.7"/>
		</g>
	</g>
</g>
</svg>
