<?xml version="1.0" encoding="utf-8"?>
<!-- Generator: Adobe Illustrator 18.0.0, SVG Export Plug-In . SVG Version: 6.00 Build 0)  -->
<!DOCTYPE svg PUBLIC "-//W3C//DTD SVG 1.1//EN" "http://www.w3.org/Graphics/SVG/1.1/DTD/svg11.dtd">
<svg version="1.1" id="Layer_1" xmlns="http://www.w3.org/2000/svg" xmlns:xlink="http://www.w3.org/1999/xlink" x="0px" y="0px"
	 viewBox="0 0 100 100" enable-background="new 0 0 100 100" xml:space="preserve">
<g>
	<path fill="none" d="M41.6,19.8c-2.2,0-4,1.8-4,4c0,2.2,1.8,3.9,4,3.9c0.8,0,1.5-0.2,2.1-0.6c-0.3-2.3-0.3-4.5,0-6.7
		C43.2,20,42.5,19.8,41.6,19.8z"/>
	<rect x="37.6" y="62.8" fill="none" width="3.7" height="3.7"/>
	<path fill="none" d="M76.7,14.9c-2.4-2.4-5.5-3.7-8.8-3.7s-6.4,1.3-8.8,3.7s-3.7,5.5-3.7,8.8c0,3.3,1.3,6.4,3.7,8.8
		s5.5,3.7,8.8,3.7s6.4-1.3,8.8-3.7s3.7-5.5,3.7-8.8C80.3,20.4,79,17.3,76.7,14.9z"/>
	<path fill="none" d="M11.9,64.8c0-2.2-1.8-4-4-4c-2.2,0-3.9,1.8-3.9,4s1.8,4,3.9,4C10,68.8,11.9,66.9,11.9,64.8z"/>
	<path fill="none" d="M28.9,41.4h0.8v0.2h21.4c-0.1-0.1-0.3-0.3-0.4-0.4c-2.7-2.8-4.6-5.9-5.8-9.3c-1,0.4-2.1,0.6-3.2,0.6
		c-4.9,0-8.6-3.8-8.6-8.7s3.8-8.6,8.6-8.6c1.1,0,2.3,0.2,3.2,0.6c1.2-3.5,3.2-6.7,5.8-9.3c0.9-0.9,1.8-1.7,2.6-2.3C52.1,4,51,4,50,4
		C35,4,22.9,16.1,22.9,31.1v4.2C22.9,38.6,25.6,41.4,28.9,41.4z"/>
	<path fill="none" d="M81.9,9.7C78.2,6.1,73.1,4,67.9,4s-10.3,2.1-14,5.8c-3.7,3.7-5.8,8.7-5.8,14s2.1,10.2,5.8,14s8.7,5.8,14,5.8
		s10.2-2.1,14-5.8C89.6,30,89.6,17.4,81.9,9.7z M79.9,35.6c-3.1,3.2-7.5,5-12,5c-4.5,0-8.8-1.8-12-5c-3.2-3.1-5-7.5-5-12
		c0-4.4,1.8-8.7,5-12c3.1-3.2,7.5-5,12-5c4.5,0,8.8,1.8,12,5s5,7.5,5,12S83.2,32.4,79.9,35.6z"/>
	<path fill="none" d="M96,64.8c0-2.2-1.8-4-4-4c-0.6,0-1.1,0.1-1.6,0.3c-1.5,0.6-2.4,2-2.4,3.6c0,0.4,0.1,0.8,0.2,1.2l0.1,0.2
		c0.6,1.5,2.2,2.5,3.8,2.5c1.1,0,2-0.4,2.8-1.2C95.6,66.8,96,65.8,96,64.8z"/>
	<path fill="none" d="M71.4,57.2c-0.3-0.4-0.9-0.7-1.5-0.7H30.2c-0.6,0-1.2,0.3-1.5,0.7c-0.2,0.3-0.5,0.9-0.3,1.6L33.8,81
		c0.6,2.7,3.1,4.6,5.9,4.6h20.6c2.8,0,5.2-1.9,5.9-4.6l3-11.8H54.2c-1.3,0-2.4-1-2.4-2.3c0-1.3,1-2.4,2.4-2.4h16l1.5-5.6
		C71.8,58.3,71.6,57.6,71.4,57.2z M58.2,75c0-1.3,1-2.3,2.3-2.3s2.3,1,2.3,2.3v0.2c0,1.3-1,2.3-2.3,2.3c-1.3,0-2.3-1.1-2.3-2.3V75z
		 M37.4,77.7c-1.3,0-2.4-1-2.4-2.4v-0.2c0-1.3,1-2.3,2.4-2.3c1.2,0,2.2,1,2.3,2.3l0,0.3C39.8,76.6,38.7,77.7,37.4,77.7z M46,75.3
		c0,1.3-1,2.4-2.3,2.4c-1.3,0-2.4-1-2.4-2.4v-0.2c0-1.3,1-2.3,2.4-2.3c1.3,0,2.3,1,2.3,2.3V75.3z M46,66.8c0,2.4-2,4.5-4.4,4.5h-4.2
		c-2.4,0-4.4-2-4.4-4.5v-4.2c0-2.4,2-4.4,4.4-4.4h4.2c2.4,0,4.4,2,4.4,4.4V66.8z"/>
	<path fill="#327ABD" d="M65.7,98.4c-0.1-0.5-0.5-0.9-1-0.9H35.3c-0.5,0-0.8,0.4-0.8,0.9c0,0.5,0.4,0.8,0.8,0.8h29.5
		C65.3,99.2,65.7,98.9,65.7,98.4z"/>
	<path fill="#327ABD" d="M99.2,64.7c0-3.9-3.2-7.2-7.2-7.2c-0.6,0-1.2,0.1-1.8,0.2l-0.5,0.1l-9-15.2l0.6-0.4c1.1-0.7,2-1.5,2.8-2.3
		c4.3-4.3,6.7-10.1,6.7-16.2c0-6.2-2.4-11.9-6.7-16.2C79.8,3.1,74,0.8,67.9,0.8c-2.8,0-5.5,0.5-8,1.4l-0.2,0.1l-0.2-0.1
		c-3-1-6.2-1.5-9.4-1.5c-16.7,0-30.4,13.6-30.4,30.4v4.2c0,5.1,4.1,9.2,9.2,9.2h29.4l0.1,0.1c3,1.3,6.3,2,9.5,2
		c3.8,0,7.5-0.9,10.8-2.7l0.6-0.3l9,15.1l-0.5,0.4C86,60.4,85,62.6,85,64.8V66H73.1l1.6-6.3c0.4-1.6,0-3.2-0.9-4.3
		c-1-1.2-2.4-1.9-4-1.9H30.1c-1.6,0-3.1,0.7-4,1.9c-1,1.2-1.3,2.8-1,4.4l1.6,6.3H15v-1.2c0-4-3.1-7.1-7.1-7.1c-3.9,0-7.1,3.2-7.1,7
		c0,3.4,2.4,6.3,5.7,7L7,71.8V87H4.1c-0.8,0-1.7,0.4-2.2,1c-0.6,0.6-0.8,1.5-0.6,2.4l1.3,8.1c0.1,0.5,0.6,0.7,1,0.7
		c0.2,0,0.3-0.1,0.5-0.3c0.2-0.2,0.2-0.5,0.2-0.7L2.9,90c0-0.3,0.1-0.7,0.2-0.7l0.1-0.2c0.1-0.1,0.4-0.4,0.9-0.4h7.7
		c0.5,0,0.8,0.3,0.9,0.4c0.4,0.4,0.4,0.8,0.3,1.1l-1.3,8c0,0.4,0.1,0.9,0.6,0.9l0.2,0c0.6,0,0.8-0.5,0.9-0.7l1.3-8
		c0.2-0.9-0.1-1.8-0.6-2.4c-0.6-0.7-1.4-1-2.2-1H8.8V71.9l0.6-0.1c2.1-0.5,3.9-1.8,4.9-3.7l0.2-0.4h12.8l3.4,14.1c1,4.1,4.7,7,9,7
		h20.5c4.3,0,8-2.9,9-7l3.5-14.1h12.8l0.2,0.4c1.2,2.3,3.7,3.8,6.3,3.8C96.1,71.8,99.2,68.7,99.2,64.7z M28.1,43v-0.2
		c-3.8-0.4-6.8-3.6-6.8-7.5v-4.2C21.4,15.3,34.2,2.5,50,2.5c1.6,0,3.3,0.2,5.4,0.5l2,0.3l-1.7,1c-1.3,0.8-2.6,1.8-4,3.2
		c-2.7,2.7-4.6,5.9-5.7,9.5l-0.3,0.9l-0.8-0.4c-1-0.5-2.1-0.8-3.3-0.8c-4,0-7.1,3.1-7.1,7.1c0,4,3.1,7.2,7.1,7.2
		c1.2,0,2.4-0.3,3.3-0.8l0.8-0.4l0.3,0.9c1.1,3.5,3,6.7,5.7,9.5c0.6,0.6,1.1,1.1,1.8,1.6l1.9,1.4H28.1z M45.2,27.3l0.1,0.4L45,28
		c-0.9,0.8-2,1.2-3.4,1.2c-3,0-5.5-2.4-5.5-5.4c0-3,2.4-5.5,5.5-5.5c1.2,0,2.3,0.4,3.4,1.1l0.4,0.3l-0.1,0.4
		C44.9,22.4,44.9,24.9,45.2,27.3z M67.9,45c-5.7,0-11-2.2-15-6.2c-4-4-6.2-9.3-6.2-15s2.2-11,6.2-15c4-4,9.4-6.2,15-6.2
		s11.1,2.3,15,6.2c8.3,8.3,8.3,21.8,0,30.1C78.9,42.7,73.6,45,67.9,45z M7.9,70.2c-3,0-5.4-2.4-5.4-5.5s2.4-5.5,5.4-5.5
		c3,0,5.5,2.4,5.5,5.5C13.4,67.8,10.9,70.2,7.9,70.2z M71.4,66H54.2c-0.5,0-0.9,0.4-0.9,0.9c0,0.5,0.4,0.8,0.9,0.8h16.9l-3.4,13.6
		c-0.9,3.4-3.9,5.8-7.3,5.8H39.7c-3.5,0-6.6-2.4-7.3-5.8l-5.5-22.1c-0.2-1,0-2,0.6-2.9c0.7-0.8,1.7-1.3,2.7-1.3h39.7
		c1,0,2,0.5,2.7,1.3c0.6,0.9,0.8,2,0.6,3L71.4,66z M92.1,70.2c-2.3,0-4.4-1.4-5.2-3.6l-0.1-0.2c-0.2-0.5-0.3-1.1-0.3-1.6
		c0-2.2,1.3-4.2,3.3-5c0.6-0.3,1.3-0.5,2.2-0.5c3,0,5.5,2.4,5.5,5.5c0.1,1.4-0.5,2.8-1.5,3.8C95,69.6,93.5,70.2,92.1,70.2z"/>
	<path fill="#327ABD" d="M38.2,75.3v-0.2c-0.1-0.4-0.4-0.8-0.9-0.8c-0.5,0-0.9,0.4-0.9,0.8v0.2c0,0.5,0.4,0.9,0.9,0.9
		S38.2,75.8,38.2,75.3z"/>
	<path fill="#327ABD" d="M59.7,75v0.2c0,0.5,0.5,0.8,0.8,0.8c0.5,0,0.8-0.4,0.8-0.8V75c0-0.5-0.4-0.8-0.8-0.8S59.7,74.5,59.7,75z"/>
	<path fill="#327ABD" d="M78.9,12.6c-3-3-6.9-4.6-11-4.6c-4.2,0-8.1,1.7-11,4.6c-3,3.1-4.6,7-4.6,11c0,4.2,1.7,8.1,4.6,11
		c3,3,6.9,4.6,11,4.6c4.2,0,8.1-1.7,11-4.6c3-3,4.6-6.9,4.6-11S81.8,15.6,78.9,12.6z M77.7,33.5c-2.7,2.7-6.1,4.1-9.8,4.1
		c-3.7,0-7.2-1.5-9.8-4.1c-2.7-2.7-4.1-6.1-4.1-9.8c0-3.7,1.5-7.2,4.1-9.8c2.7-2.7,6.1-4.1,9.8-4.1c3.7,0,7.2,1.5,9.8,4.1
		c2.7,2.7,4.1,6.1,4.1,9.8C81.8,27.4,80.4,30.9,77.7,33.5z"/>
	<path fill="#327ABD" d="M43.7,74.2c-0.5,0-0.9,0.4-0.9,0.8v0.2c0,0.5,0.4,0.9,0.9,0.9c0.5,0,0.8-0.4,0.8-0.9v-0.2
		C44.5,74.6,44.2,74.2,43.7,74.2z"/>
	<path fill="#327ABD" d="M41.6,59.7h-4.2c-1.6,0-2.9,1.4-2.9,2.9v4.2c0,1.6,1.4,3,2.9,3h4.2c1.6,0,2.9-1.4,2.9-3v-4.2
		C44.5,61,43.2,59.7,41.6,59.7z M42.9,66.8c0,0.7-0.5,1.2-1.2,1.2h-4.2c-0.7,0-1.2-0.5-1.2-1.2v-4.2c0-0.7,0.5-1.2,1.2-1.2h4.2
		c0.7,0,1.2,0.5,1.2,1.2V66.8z"/>
</g>
</svg>
