<?xml version="1.0" encoding="utf-8"?>
<!-- Generator: Adobe Illustrator 18.0.0, SVG Export Plug-In . SVG Version: 6.00 Build 0)  -->
<!DOCTYPE svg PUBLIC "-//W3C//DTD SVG 1.1//EN" "http://www.w3.org/Graphics/SVG/1.1/DTD/svg11.dtd">
<svg version="1.1" id="Layer_1" xmlns="http://www.w3.org/2000/svg" xmlns:xlink="http://www.w3.org/1999/xlink" x="0px" y="0px"
	 viewBox="0 0 841.9 595.3" enable-background="new 0 0 841.9 595.3" xml:space="preserve">
<path fill="#2A6A9B" d="M321.6,391.5c0,5.4-4.3,9.7-9.7,9.7H179.2v110H193c6.7,0,13,2.9,17.3,8c4.3,5.1,6.2,11.8,5.1,18.4l-8.3,49.6
	c-0.8,4.7-4.9,8.1-9.6,8.1c-0.5,0-1.1,0-1.6-0.1c-5.3-0.9-8.9-5.9-8-11.2l8.3-49.6c0.2-1.3-0.4-2.2-0.7-2.6
	c-0.4-0.4-1.2-1.1-2.5-1.1H146c-1.3,0-2.1,0.7-2.5,1.1s-0.9,1.3-0.7,2.6L151,584c0.9,5.3-2.7,10.3-8,11.2c-5.3,0.9-10.3-2.7-11.2-8
	l-8.3-49.6c-1.1-6.6,0.7-13.3,5.1-18.4c4.3-5.1,10.6-8,17.3-8h13.8V391.5c0-5.4,4.3-9.7,9.7-9.7h142.3
	C317.2,381.8,321.6,386.1,321.6,391.5z"/>
<path fill="#5DBDF9" d="M521.2,585.6c0,5.4-4.3,9.7-9.7,9.7H330.4c-5.4,0-9.7-4.3-9.7-9.7c0-5.4,4.3-9.7,9.7-9.7h181.2
	C516.9,575.9,521.2,580.2,521.2,585.6z"/>
<path fill="#327ABD" d="M568.2,355.7l-33.9,135.7c-5.8,23-26.5,39.2-50.2,39.2H357.8c-23.8,0-44.5-16.2-50.2-39.2l-33.9-135.7
	c-4.1-16.3,8.3-32.2,25.1-32.2h244.3C559.9,323.5,572.3,339.3,568.2,355.7z M420.9,0L420.9,0C320.9,0,239.8,81.1,239.8,181.2v25.9
	c0,28.6,23.2,51.8,51.8,51.8h258.8c28.6,0,51.8-23.2,51.8-51.8v-25.9C602.1,81.1,521,0,420.9,0z"/>
<path fill="#43A5ED" d="M524.5,323.5L501.3,416c-9.2,36.9-42.4,62.8-80.4,62.8l0,0c-38,0-71.2-25.9-80.4-62.8l-7.1-28.2
	c-8.2-32.7,16.5-64.3,50.2-64.3H524.5z"/>
<path fill="#2A6A9B" d="M701.1,406c-1.7,3-4.9,4.9-8.4,4.9H446.8c-5.4,0-9.7-4.3-9.7-9.7s4.3-9.7,9.7-9.7h228.8L526.5,140.8
	c-2.7-4.6-1.2-10.6,3.4-13.3c4.6-2.7,10.6-1.2,13.3,3.4L701,396.2C702.8,399.2,702.9,402.9,701.1,406z"/>
<path fill="#FC8059" d="M353,451.6v1.3c0,5.4-4.3,9.7-9.7,9.7c-5.4,0-9.7-4.3-9.7-9.7v-1.3c0-5.4,4.3-9.7,9.7-9.7
	C348.7,441.9,353,446.3,353,451.6z"/>
<path fill="#FFD880" d="M391.8,451.6v1.3c0,5.4-4.3,9.7-9.7,9.7c-5.4,0-9.7-4.3-9.7-9.7v-1.3c0-5.4,4.3-9.7,9.7-9.7
	C387.5,441.9,391.8,446.3,391.8,451.6z"/>
<path fill="#B5E5BC" d="M495.4,451.6v1.3c0,5.4-4.3,9.7-9.7,9.7s-9.7-4.3-9.7-9.7v-1.3c0-5.4,4.3-9.7,9.7-9.7
	C491,441.9,495.4,446.3,495.4,451.6z"/>
<path fill="#CFDFE2" d="M369.2,414.1h-38.8c-7.1,0-12.9-5.8-12.9-12.9v-25.9c0-7.1,5.8-12.9,12.9-12.9h38.8
	c7.1,0,12.9,5.8,12.9,12.9v25.9C382.1,408.3,376.3,414.1,369.2,414.1z"/>
<path fill="#2A6A9B" d="M718.6,388.2c0,21.4-17.4,38.8-38.8,38.8c-21.4,0-38.8-17.4-38.8-38.8c0-21.4,17.4-38.8,38.8-38.8
	C701.2,349.4,718.6,366.8,718.6,388.2z M175.1,349.4c-21.4,0-38.8,17.4-38.8,38.8c0,21.4,17.4,38.8,38.8,38.8s38.8-17.4,38.8-38.8
	C213.9,366.8,196.5,349.4,175.1,349.4z"/>
<path fill="#5DBDF9" d="M201,388.2c0,14.3-11.6,25.9-25.9,25.9s-25.9-11.6-25.9-25.9c0-14.3,11.6-25.9,25.9-25.9
	S201,373.9,201,388.2z M679.8,362.3c-14.3,0-25.9,11.6-25.9,25.9c0,14.3,11.6,25.9,25.9,25.9c14.3,0,25.9-11.6,25.9-25.9
	C705.6,373.9,694.1,362.3,679.8,362.3z"/>
<path fill="#2A6A9B" d="M304.5,135.9c0-35.7,29-64.7,64.7-64.7s64.7,29,64.7,64.7s-29,64.7-64.7,64.7S304.5,171.6,304.5,135.9z"/>
<path fill="#CFDFE2" d="M330.4,135.9c0-21.4,17.4-38.8,38.8-38.8c21.4,0,38.8,17.4,38.8,38.8c0,21.4-17.4,38.8-38.8,38.8
	C347.7,174.7,330.4,157.3,330.4,135.9z"/>
<path fill="#FFFFFF" d="M369.2,135.9c0-10.7,8.7-19.4,19.4-19.4c10.7,0,19.4,8.7,19.4,19.4s-8.7,19.4-19.4,19.4
	C377.9,155.3,369.2,146.6,369.2,135.9z"/>
<path fill="#43A5ED" d="M627,39.8c53.1,53.1,53.1,139.1,0,192.2s-139.1,53.1-192.2,0s-53.1-139.1,0-192.2S574-13.3,627,39.8z"/>
<path fill="#C3E4ED" d="M621.5,135.9c0,50-40.6,90.6-90.6,90.6s-90.6-40.6-90.6-90.6s40.6-90.6,90.6-90.6S621.5,85.8,621.5,135.9z"
	/>
<path fill="#DCF3F9" d="M616.3,105.5L500.5,221.2c-16.9-6-31.5-17-42.1-31.1L585.2,63.3C599.3,73.9,610.2,88.5,616.3,105.5z
	 M561.4,50.5L445.6,166.3c1.5,4.3,3.3,8.4,5.4,12.3L573.7,56C569.7,53.9,565.6,52.1,561.4,50.5z"/>
<path fill="#FFFFFF" d="M531.3,68.1c14.3,0,25.9,11.6,25.9,25.9s-11.6,25.9-25.9,25.9s-25.9-11.6-25.9-25.9S517.1,68.1,531.3,68.1z"
	/>
</svg>
