<?xml version="1.0" encoding="utf-8"?>
<!-- Generator: Adobe Illustrator 18.0.0, SVG Export Plug-In . SVG Version: 6.00 Build 0)  -->
<!DOCTYPE svg PUBLIC "-//W3C//DTD SVG 1.1//EN" "http://www.w3.org/Graphics/SVG/1.1/DTD/svg11.dtd">
<svg version="1.1" id="Layer_1" xmlns="http://www.w3.org/2000/svg" xmlns:xlink="http://www.w3.org/1999/xlink" x="0px" y="0px"
	 viewBox="0 0 100 100" enable-background="new 0 0 100 100" xml:space="preserve">
<path d="M14,100v-3.4c0-4.3,2.3-8.2,6.1-10.3L35,78.2c2.5-1.4,4-4,4-6.8v-6.7l-0.4-0.5c0,0-4.1-5-5.7-11.8l-0.2-0.7l-0.6-0.4
	c-1-0.6-1.5-1.7-1.5-2.8V42c0-0.9,0.4-1.8,1.1-2.5l0.5-0.5V28.7l0-0.2c0,0-0.6-4.7,2.7-8.4c2.8-3.2,7.5-4.7,14-4.7
	c6.5,0,11.2,1.6,14,4.7c3.2,3.7,2.7,8.4,2.7,8.4l0,10.6l0.5,0.5c0.7,0.7,1.1,1.5,1.1,2.5v6.7c0,1.5-1,2.7-2.4,3.2l-0.8,0.3l-0.3,0.8
	c-1.1,3.5-2.7,6.7-4.7,9.5c-0.5,0.7-1,1.3-1.4,1.8l-0.4,0.5v6.9c0,3,1.6,5.6,4.3,6.9l15.9,8c4,2,6.5,6,6.5,10.5v3.1
	c1.1,0,2.2,0,3.3,0v-3.1c0-5.7-3.2-10.9-8.3-13.4l-15.9-8c-1.5-0.8-2.4-2.3-2.4-3.9v-5.6c0.4-0.5,0.8-1,1.2-1.6
	c2.1-2.9,3.7-6.2,4.9-9.7c2.4-1.1,3.9-3.4,3.9-6V42c0-1.6-0.6-3.2-1.7-4.4v-8.9c0.1-0.9,0.5-6.4-3.5-10.9C62.1,14,56.5,12,49,12
	s-13.1,2-16.5,5.9c-3.9,4.5-3.6,10-3.5,10.9v8.9c-1.1,1.2-1.7,2.8-1.7,4.4v6.7c0,2,0.9,3.9,2.5,5.2c1.5,6,4.7,10.6,5.8,12.1v5.5
	c0,1.6-0.9,3.1-2.3,3.9l-14.9,8.1c-4.8,2.6-7.8,7.7-7.8,13.2v3.3C11.8,100,12.9,100,14,100z"/>
</svg>
