<?xml version="1.0" encoding="utf-8"?>
<!-- Generator: Adobe Illustrator 22.1.0, SVG Export Plug-In . SVG Version: 6.00 Build 0)  -->
<svg version="1.1" id="OBJECTS" xmlns="http://www.w3.org/2000/svg" xmlns:xlink="http://www.w3.org/1999/xlink" x="0px" y="0px"
	 viewBox="0 0 100 100" enable-background="new 0 0 100 100" xml:space="preserve">
<g id="XMLID_135_">
	<circle id="XMLID_121_" fill="#00B18F" cx="50" cy="50" r="50"/>
	<linearGradient id="XMLID_2_" gradientUnits="userSpaceOnUse" x1="55.8746" y1="45.9461" x2="89.6148" y2="79.6863">
		<stop  offset="0" style="stop-color:#3B683D"/>
		<stop  offset="0.8957" style="stop-color:#3B683D;stop-opacity:0"/>
	</linearGradient>
	<path id="XMLID_140_" fill="url(#XMLID_2_)" d="M99.932,50.068c0-3.159-0.296-6.248-0.856-9.244l-16.354-16.23l-36.223,33.66
		l-7.25,19.388l21.294,21.294C83.059,94.07,99.932,74.041,99.932,50.068z"/>
	<g id="XMLID_146_">
		<path id="XMLID_158_" fill="#FFFFFF" d="M39.349,77.652L17.068,55.37c-2.789-2.789-2.789-7.31,0-10.098
			c2.789-2.789,7.31-2.789,10.098,0l12.238,12.237l33.321-32.961c2.804-2.774,7.325-2.748,10.098,0.055
			c2.773,2.804,2.749,7.325-0.055,10.098L39.349,77.652z"/>
	</g>
</g>
</svg>
