<?xml version="1.0" encoding="utf-8"?>
<!-- Generator: Adobe Illustrator 22.1.0, SVG Export Plug-In . SVG Version: 6.00 Build 0)  -->
<svg version="1.1" id="Layer_1" xmlns="http://www.w3.org/2000/svg" xmlns:xlink="http://www.w3.org/1999/xlink" x="0px" y="0px"
	 viewBox="0 0 600 600" enable-background="new 0 0 600 600" xml:space="preserve">
<radialGradient id="SVGID_1_" cx="306.0077" cy="669.9991" r="201.0213" gradientTransform="matrix(1.4925 0 0 0.2313 -156.7164 325.5292)" gradientUnits="userSpaceOnUse">
	<stop  offset="0" style="stop-color:#8A8A8A;stop-opacity:0.3"/>
	<stop  offset="0.2072" style="stop-color:#A4A4A4;stop-opacity:0.4815"/>
	<stop  offset="0.648" style="stop-color:#E7E7E7;stop-opacity:0.8678"/>
	<stop  offset="0.7988" style="stop-color:#FFFFFF"/>
</radialGradient>
<ellipse opacity="0.5" fill="url(#SVGID_1_)" enable-background="new    " cx="300" cy="480.5" rx="300" ry="46.5"/>
<circle fill="#B3F8FF" cx="300" cy="236" r="236.5"/>
<g>
	<path fill="#327ABD" d="M449.995,152.049l-82.602-16.721l-52.169,54.845l53.842,6.354l-66.549,125.742l109.021,22.072
		c11.37,2.341,22.406-5.016,24.747-16.387l30.432-150.823C469.057,165.761,461.7,154.39,449.995,152.049z M342.981,174.79
		l20.065-24.078l80.261,11.705c3.679,0.669,6.354,4.013,5.685,7.692l-2.675,19.396L342.981,174.79z M426.92,322.603
		c-0.669,3.679-4.013,6.354-7.692,5.685l-94.306-13.377l40.13-87.618l74.576,10.701L426.92,322.603z"/>
	<path fill="#327ABD" d="M310.876,180.475l-51.835,15.718l25.75-70.897l-135.44,29.763c-11.37,2.341-18.393,13.711-16.052,25.081
		l32.773,150.154c2.341,11.37,13.711,18.393,25.081,16.052l109.69-24.078L310.876,180.475z M147.011,176.797
		c-0.669-3.679,1.672-7.357,5.351-8.026l114.037-24.747l-10.367,29.429l-104.673,22.741L147.011,176.797z M179.784,327.285
		l-18.393-83.605l136.443-29.763l-6.688,95.978L187.81,332.636C184.466,333.305,180.787,330.964,179.784,327.285z"/>
</g>
</svg>
