<?xml version="1.0" encoding="utf-8"?>
<!-- Generator: Adobe Illustrator 22.1.0, SVG Export Plug-In . SVG Version: 6.00 Build 0)  -->
<svg version="1.1" id="Layer_1" xmlns="http://www.w3.org/2000/svg" xmlns:xlink="http://www.w3.org/1999/xlink" x="0px" y="0px"
	 viewBox="0 0 600 600" enable-background="new 0 0 600 600" xml:space="preserve">
<radialGradient id="SVGID_1_" cx="306.0077" cy="-69.9991" r="201.0213" gradientTransform="matrix(1.4925 0 0 -0.2313 -156.7164 464.3092)" gradientUnits="userSpaceOnUse">
	<stop  offset="0" style="stop-color:#8A8A8A;stop-opacity:0.3"/>
	<stop  offset="0.2072" style="stop-color:#A4A4A4;stop-opacity:0.4815"/>
	<stop  offset="0.648" style="stop-color:#E7E7E7;stop-opacity:0.8678"/>
	<stop  offset="0.7988" style="stop-color:#FFFFFF"/>
</radialGradient>
<ellipse opacity="0.5" fill="url(#SVGID_1_)" enable-background="new    " cx="300" cy="480.5" rx="300" ry="46.5"/>
<circle fill="#B3F8FF" cx="300" cy="236" r="236.5"/>
<g>
	<g>
		<path fill="#327ABD" d="M167.683,238.397c5.458,3.509,3.509,8.187,6.627,12.865c6.627,9.356,16.373,18.712,17.543,17.543
			c12.865,18.712,31.577,19.492,49.509,12.865c20.661-7.017,39.373-17.153,60.424-26.119c10.526,5.458,23.39,13.644,36.644,19.492
			c8.966,3.898,19.102,6.627,28.458,8.576c16.373,3.509,31.187-0.39,43.661-17.543c0,0,15.204-12.475,15.204-14.424
			c0.39-5.848,1.17-10.526,7.017-14.034c3.898-2.339,8.187-7.017,8.966-11.695c7.017-26.509,7.017-52.628-14.424-72.509
			c-12.475-12.085-28.068-22.221-44.051-28.848c-40.933-17.543-84.204-18.712-127.086-11.695
			c-28.848,4.678-55.746,15.204-77.967,34.695c-21.441,19.102-30.017,49.899-19.882,76.797
			C159.497,230.6,163.005,236.058,167.683,238.397z M234.345,257.888c-5.458-0.39-10.526-8.966-15.593-14.424l1.559-1.949
			c14.424,3.119,29.627,5.848,44.051,8.966v1.949C254.226,254.38,243.701,259.058,234.345,257.888z M355.583,256.329
			c-5.848-1.559-12.475-2.339-18.712-3.508c0-0.39,0-1.559,0-1.949c14.424-3.119,28.848-5.848,43.661-8.966
			C373.906,257.888,370.787,259.448,355.583,256.329z M196.141,197.464c28.458-16.373,59.255-24.56,91.611-25.729
			c40.543-1.559,79.526,4.678,115.001,24.949c5.068,3.119,8.187,5.848,8.187,12.475c0,7.017-2.339,10.136-8.966,11.695
			c-33.526,8.966-67.052,15.204-102.137,14.424c-34.695,0-68.221-5.458-100.967-15.204c-3.508-1.17-8.187-3.898-8.576-7.017
			C189.124,207.989,188.734,201.362,196.141,197.464z"/>
		<path fill="#327ABD" d="M424.974,140.158c-58.865-52.238-188.29-53.017-247.935-1.17c-2.339-33.136,51.068-77.187,103.306-84.204
			C347.007,45.818,413.669,84.802,424.974,140.158z"/>
	</g>
	<path fill="#327ABD" d="M410.94,242.295v15.593l0,0c0,61.204-49.899,144.239-111.103,144.239s-111.103-82.645-111.103-143.849
		v-1.559l0,0v-30.017c-5.458,0.39-10.526,0-15.983-1.169v32.356c0,70.17,56.916,160.612,126.696,160.612
		s126.696-90.442,126.696-160.222v-17.543C421.465,241.905,416.008,243.075,410.94,242.295z"/>
</g>
</svg>
