<?xml version="1.0" encoding="utf-8"?>
<!-- Generator: Adobe Illustrator 22.1.0, SVG Export Plug-In . SVG Version: 6.00 Build 0)  -->
<svg version="1.1" id="Layer_1" xmlns="http://www.w3.org/2000/svg" xmlns:xlink="http://www.w3.org/1999/xlink" x="0px" y="0px"
	 viewBox="0 0 600 600" enable-background="new 0 0 600 600" xml:space="preserve">
<radialGradient id="SVGID_1_" cx="306.0077" cy="669.9991" r="201.0213" gradientTransform="matrix(1.4925 0 0 0.2313 -156.7164 325.5292)" gradientUnits="userSpaceOnUse">
	<stop  offset="0" style="stop-color:#8A8A8A;stop-opacity:0.3"/>
	<stop  offset="0.2072" style="stop-color:#A4A4A4;stop-opacity:0.4815"/>
	<stop  offset="0.648" style="stop-color:#E7E7E7;stop-opacity:0.8678"/>
	<stop  offset="0.7988" style="stop-color:#FFFFFF"/>
</radialGradient>
<ellipse opacity="0.5" fill="url(#SVGID_1_)" enable-background="new    " cx="300" cy="480.5" rx="300" ry="46.5"/>
<circle fill="#B3F8FF" cx="300" cy="236" r="236.5"/>
<g>
	<path fill="#327ABD" d="M291.99,262.082c-0.757-1.514-2.555-3.636-4.715-4.715l-60.348-25.378
		c-2.116-1.058-4.763-0.943-7.429,0.408c-2.371,1.578-3.785,3.908-3.779,6.102c-1.617,18.424,8.839,35.593,25.987,42.713
		c4.822,2.11,10.493,3.225,16.405,3.225c12.137,0,24.145-5.522,32.157-14.815c1.529-1.913,2.229-4.555,1.871-7.066L291.99,262.082z
		 M267.333,266.902c-2.909,1.142-6.194,1.753-9.532,1.753c-3.802,0-7.231-0.683-10.229-2.046
		c-6.35-2.684-11.423-7.698-14.069-13.757L267.333,266.902z"/>
	<path fill="#327ABD" d="M415.625,50.317c0.402-3.973-2.336-7.408-6.51-8.174c-3.787-0.745-7.631,1.466-9.185,5.364l-35.874,107.929
		c-18.995-12.595-41.027-19.24-63.857-19.24c-22.832,0-44.867,6.647-63.862,19.243L200.174,47.86
		c-1.17-3.89-5.026-6.159-9.215-5.404c-3.884,0.775-6.814,4.222-6.814,8.017v237.059c0,3.128,1.913,6.132,4.579,7.272
		l107.888,52.995c0.978,0.329,2.087,0.701,3.278,0.701c1.192,0,2.298-0.372,3.468-0.777l107.783-52.968
		c2.814-1.608,4.494-4.31,4.494-7.223L415.625,50.317z M399.849,282.24L300.2,331.3l-99.653-49.063V100.136l23.889,70.839
		c0.84,2.935,3.305,4.701,5.395,5.396c2.483,0.703,5.201,0.139,7.281-1.523c17.703-14.347,39.998-22.247,62.778-22.247
		c22.78,0,45.075,7.9,62.786,22.253c2.049,1.634,5.062,2.252,7.275,1.517c2.663-0.762,4.63-2.728,5.371-5.327l23.942-70.997
		L399.849,282.24z"/>
	<path fill="#327ABD" d="M313.231,257.319l-0.106,0.048c-2.421,1.209-4.134,3.198-4.82,5.603c-0.759,2.66-0.033,5.425,1.862,7.314
		c7.976,9.251,19.983,14.773,32.12,14.773c6.081,0,11.445-1.055,16.378-3.213c16.864-7.003,27.321-24.16,26.006-42.807
		c-0.417-2.923-1.777-5.038-3.769-6.023c-2.215-1.475-4.993-1.626-7.323-0.453L313.231,257.319z M332.837,266.872l33.798-14.038
		c-2.575,6.087-7.58,11.013-14.117,13.775l-0.039,0.018C347.035,269.105,339.495,269.441,332.837,266.872z"/>
</g>
</svg>
