<?xml version="1.0" encoding="utf-8"?>
<!-- Generator: Adobe Illustrator 22.1.0, SVG Export Plug-In . SVG Version: 6.00 Build 0)  -->
<svg version="1.1" id="Layer_1" xmlns="http://www.w3.org/2000/svg" xmlns:xlink="http://www.w3.org/1999/xlink" x="0px" y="0px"
	 viewBox="0 0 600 600" enable-background="new 0 0 600 600" xml:space="preserve">
<radialGradient id="SVGID_1_" cx="306.0077" cy="-69.9991" r="201.0213" gradientTransform="matrix(1.4925 0 0 -0.2313 -156.7164 464.3092)" gradientUnits="userSpaceOnUse">
	<stop  offset="0" style="stop-color:#8A8A8A;stop-opacity:0.3"/>
	<stop  offset="0.2072" style="stop-color:#A4A4A4;stop-opacity:0.4815"/>
	<stop  offset="0.648" style="stop-color:#E7E7E7;stop-opacity:0.8678"/>
	<stop  offset="0.7988" style="stop-color:#FFFFFF"/>
</radialGradient>
<ellipse opacity="0.5" fill="url(#SVGID_1_)" enable-background="new    " cx="300" cy="480.5" rx="300" ry="46.5"/>
<circle fill="#B3F8FF" cx="300" cy="236" r="236.5"/>
<g>
	<path fill="#327ABD" d="M256.642,211.484c0,3.741,2.93,6.671,6.671,6.671h104.676c3.741,0,6.67-2.93,6.67-6.671
		s-2.929-6.671-6.67-6.671H263.313C259.572,204.813,256.642,207.744,256.642,211.484z"/>
	<path fill="#327ABD" d="M263.313,184.802h41.819c3.741,0,6.67-2.93,6.67-6.671c0-3.741-2.929-6.671-6.67-6.671h-41.819
		c-3.741,0-6.671,2.93-6.671,6.671C256.642,181.872,259.572,184.802,263.313,184.802z"/>
	<path fill="#327ABD" d="M367.988,235.859H263.313c-3.741,0-6.671,2.929-6.671,6.67s2.93,6.67,6.671,6.67h104.676
		c3.741,0,6.67-2.929,6.67-6.67S371.729,235.859,367.988,235.859z"/>
	<path fill="#327ABD" d="M367.988,266.901H263.313c-3.741,0-6.671,2.929-6.671,6.67c0,3.741,2.93,6.672,6.671,6.672h104.676
		c3.741,0,6.67-2.931,6.67-6.672C374.658,269.83,371.729,266.901,367.988,266.901z"/>
	<path fill="#327ABD" d="M367.988,297.688H263.313c-3.741,0-6.671,2.929-6.671,6.67c0,3.741,2.93,6.672,6.671,6.672h104.676
		c3.741,0,6.67-2.931,6.67-6.672C374.658,300.617,371.729,297.688,367.988,297.688z"/>
	<path fill="#327ABD" d="M387.23,162.702V92.441H191.732v235.521h31.301V349h185.236V183.74L387.23,162.702z M349.515,179.671
		v-35.625l35.625,35.625H349.515z M345.705,121.176H223.032V314.62H205.33V106.038h168.558v43.323L345.705,121.176z
		 M394.671,193.268v142.135H236.374V134.517h99.544v58.752H394.671z"/>
</g>
</svg>
