<?xml version="1.0" encoding="utf-8"?>
<!-- Generator: Adobe Illustrator 22.1.0, SVG Export Plug-In . SVG Version: 6.00 Build 0)  -->
<svg version="1.1" id="Layer_1" xmlns="http://www.w3.org/2000/svg" xmlns:xlink="http://www.w3.org/1999/xlink" x="0px" y="0px"
	 viewBox="0 0 600 600" enable-background="new 0 0 600 600" xml:space="preserve">
<radialGradient id="SVGID_1_" cx="306.0077" cy="-69.9991" r="201.0213" gradientTransform="matrix(1.4925 0 0 -0.2313 -156.7164 464.3092)" gradientUnits="userSpaceOnUse">
	<stop  offset="0" style="stop-color:#8A8A8A;stop-opacity:0.3"/>
	<stop  offset="0.2072" style="stop-color:#A4A4A4;stop-opacity:0.4815"/>
	<stop  offset="0.648" style="stop-color:#E7E7E7;stop-opacity:0.8678"/>
	<stop  offset="0.7988" style="stop-color:#FFFFFF"/>
</radialGradient>
<ellipse opacity="0.5" fill="url(#SVGID_1_)" enable-background="new    " cx="300" cy="480.5" rx="300" ry="46.5"/>
<circle fill="#B3F8FF" cx="300" cy="236" r="236.5"/>
<path fill="#327ABD" d="M351.607,191.121V66.222c0-4.764-3.458-8.222-8.222-8.222c-4.886,0-8.569,3.535-8.569,8.222v124.846
	c-12.614,4.552-21.234,19.092-21.234,36.325c0,16.891,8.625,31.424,21.234,36.271v35.786c0,27.713-22.546,50.26-50.259,50.26
	s-50.26-22.547-50.26-50.26v-13.632l23.163,20.018c1.691,1.635,4.129,2.416,6.551,2.091c2.147-0.288,3.982-1.392,5.115-3.056
	c1.364-1.324,2.147-3.038,2.217-4.874c0.088-2.283-0.921-4.651-2.767-6.497l-51.419-43.7l0,49.709
	c0.731,36.939,30.966,66.991,67.398,66.991c36.971,0,67.05-30.079,67.05-67.051v-35.732c12.614-4.552,21.234-19.092,21.234-36.325
	C372.842,210.501,364.217,195.968,351.607,191.121z M356.399,227.312c-0.298,11.043-6.501,21.1-13.014,21.1
	c-6.932,0-13.013-9.822-13.013-21.019s6.081-21.019,13.013-21.019S356.398,216.195,356.399,227.312z"/>
</svg>
