<?xml version="1.0" encoding="utf-8"?>
<!-- Generator: Adobe Illustrator 22.1.0, SVG Export Plug-In . SVG Version: 6.00 Build 0)  -->
<svg version="1.1" id="Layer_1" xmlns="http://www.w3.org/2000/svg" xmlns:xlink="http://www.w3.org/1999/xlink" x="0px" y="0px"
	 viewBox="0 0 787.145 40" enable-background="new 0 0 787.145 40" xml:space="preserve">
<g>
	<circle fill="#0091B3" cx="8.845" cy="8.845" r="8.845"/>
	<rect y="22.31" fill="#08262C" width="17.558" height="17.558"/>
	<circle fill="#FF5959" cx="31.419" cy="31.155" r="8.845"/>
	<rect x="22.706" fill="#08262C" width="17.558" height="17.558"/>
</g>
<g>
	<circle fill="#0091B3" cx="54.092" cy="8.845" r="8.845"/>
	<rect x="45.248" y="22.31" fill="#08262C" width="17.558" height="17.558"/>
	<circle fill="#FF5959" cx="76.667" cy="31.155" r="8.845"/>
	<rect x="67.954" fill="#08262C" width="17.558" height="17.558"/>
</g>
<g>
	<circle fill="#0091B3" cx="99.356" cy="8.845" r="8.845"/>
	<rect x="90.512" y="22.31" fill="#08262C" width="17.558" height="17.558"/>
	<circle fill="#FF5959" cx="121.931" cy="31.155" r="8.845"/>
	<rect x="113.218" fill="#08262C" width="17.558" height="17.558"/>
</g>
<g>
	<circle fill="#0091B3" cx="144.62" cy="8.845" r="8.845"/>
	<rect x="135.776" y="22.31" fill="#08262C" width="17.558" height="17.558"/>
	<circle fill="#FF5959" cx="167.195" cy="31.155" r="8.845"/>
	<rect x="158.482" fill="#08262C" width="17.558" height="17.558"/>
</g>
<g>
	<circle fill="#0091B3" cx="189.884" cy="8.845" r="8.845"/>
	<rect x="181.04" y="22.31" fill="#08262C" width="17.558" height="17.558"/>
	<circle fill="#FF5959" cx="212.459" cy="31.155" r="8.845"/>
	<rect x="203.746" fill="#08262C" width="17.558" height="17.558"/>
</g>
<g>
	<circle fill="#0091B3" cx="235.149" cy="8.845" r="8.845"/>
	<rect x="226.304" y="22.31" fill="#08262C" width="17.558" height="17.558"/>
	<circle fill="#FF5959" cx="257.723" cy="31.155" r="8.845"/>
	<rect x="249.01" fill="#08262C" width="17.558" height="17.558"/>
</g>
<g>
	<circle fill="#0091B3" cx="280.413" cy="8.845" r="8.845"/>
	<rect x="271.568" y="22.31" fill="#08262C" width="17.558" height="17.558"/>
	<circle fill="#FF5959" cx="302.987" cy="31.155" r="8.845"/>
	<rect x="294.274" fill="#08262C" width="17.558" height="17.558"/>
</g>
<g>
	<circle fill="#0091B3" cx="325.677" cy="8.845" r="8.845"/>
	<rect x="316.832" y="22.31" fill="#08262C" width="17.558" height="17.558"/>
	<circle fill="#FF5959" cx="348.251" cy="31.155" r="8.845"/>
	<rect x="339.538" fill="#08262C" width="17.558" height="17.558"/>
</g>
<g>
	<circle fill="#0091B3" cx="370.941" cy="8.845" r="8.845"/>
	<rect x="362.096" y="22.31" fill="#08262C" width="17.558" height="17.558"/>
	<circle fill="#FF5959" cx="393.515" cy="31.155" r="8.845"/>
	<rect x="384.802" fill="#08262C" width="17.558" height="17.558"/>
</g>
<g>
	<circle fill="#0091B3" cx="416.205" cy="8.845" r="8.845"/>
	<rect x="407.36" y="22.31" fill="#08262C" width="17.558" height="17.558"/>
	<circle fill="#FF5959" cx="438.779" cy="31.155" r="8.845"/>
	<rect x="430.066" fill="#08262C" width="17.558" height="17.558"/>
</g>
<g>
	<circle fill="#0091B3" cx="461.469" cy="8.845" r="8.845"/>
	<rect x="452.624" y="22.31" fill="#08262C" width="17.558" height="17.558"/>
	<circle fill="#FF5959" cx="484.043" cy="31.155" r="8.845"/>
	<rect x="475.33" fill="#08262C" width="17.558" height="17.558"/>
</g>
<g>
	<circle fill="#0091B3" cx="506.733" cy="8.845" r="8.845"/>
	<rect x="497.888" y="22.31" fill="#08262C" width="17.558" height="17.558"/>
	<circle fill="#FF5959" cx="529.307" cy="31.155" r="8.845"/>
	<rect x="520.594" fill="#08262C" width="17.558" height="17.558"/>
</g>
<g>
	<circle fill="#0091B3" cx="551.997" cy="8.845" r="8.845"/>
	<rect x="543.152" y="22.31" fill="#08262C" width="17.558" height="17.558"/>
	<circle fill="#FF5959" cx="574.571" cy="31.155" r="8.845"/>
	<rect x="565.858" fill="#08262C" width="17.558" height="17.558"/>
</g>
<g>
	<circle fill="#0091B3" cx="597.261" cy="8.845" r="8.845"/>
	<rect x="588.416" y="22.31" fill="#08262C" width="17.558" height="17.558"/>
	<circle fill="#FF5959" cx="619.835" cy="31.155" r="8.845"/>
	<rect x="611.122" fill="#08262C" width="17.558" height="17.558"/>
</g>
<g>
	<circle fill="#0091B3" cx="642.525" cy="8.845" r="8.845"/>
	<rect x="633.68" y="22.31" fill="#08262C" width="17.558" height="17.558"/>
	<circle fill="#FF5959" cx="665.099" cy="31.155" r="8.845"/>
	<rect x="656.386" fill="#08262C" width="17.558" height="17.558"/>
</g>
<g>
	<circle fill="#0091B3" cx="687.772" cy="8.845" r="8.845"/>
	<rect x="678.928" y="22.31" fill="#08262C" width="17.558" height="17.558"/>
	<circle fill="#FF5959" cx="710.347" cy="31.155" r="8.845"/>
	<rect x="701.634" fill="#08262C" width="17.558" height="17.558"/>
</g>
<g>
	<circle fill="#0091B3" cx="733.036" cy="8.845" r="8.845"/>
	<rect x="724.192" y="22.31" fill="#08262C" width="17.558" height="17.558"/>
	<circle fill="#FF5959" cx="755.611" cy="31.155" r="8.845"/>
	<rect x="746.898" fill="#08262C" width="17.558" height="17.558"/>
</g>
<g>
	<circle fill="#0091B3" cx="778.3" cy="8.845" r="8.845"/>
	<rect x="769.456" y="22.31" fill="#08262C" width="17.558" height="17.558"/>
	<circle fill="#FF5959" cx="800.875" cy="31.155" r="8.845"/>
	<rect x="792.162" fill="#08262C" width="17.558" height="17.558"/>
</g>
<g>
	<circle fill="#0091B3" cx="823.564" cy="8.845" r="8.845"/>
	<rect x="814.72" y="22.31" fill="#08262C" width="17.558" height="17.558"/>
	<circle fill="#FF5959" cx="846.139" cy="31.155" r="8.845"/>
	<rect x="837.426" fill="#08262C" width="17.558" height="17.558"/>
</g>
<g>
	<circle fill="#0091B3" cx="868.829" cy="8.845" r="8.845"/>
	<rect x="859.984" y="22.31" fill="#08262C" width="17.558" height="17.558"/>
	<circle fill="#FF5959" cx="891.403" cy="31.155" r="8.845"/>
	<rect x="882.69" fill="#08262C" width="17.558" height="17.558"/>
</g>
<g>
	<circle fill="#0091B3" cx="914.093" cy="8.845" r="8.845"/>
	<rect x="905.248" y="22.31" fill="#08262C" width="17.558" height="17.558"/>
	<circle fill="#FF5959" cx="936.667" cy="31.155" r="8.845"/>
	<rect x="927.954" fill="#08262C" width="17.558" height="17.558"/>
</g>
<g>
	<circle fill="#0091B3" cx="959.357" cy="8.845" r="8.845"/>
	<rect x="950.512" y="22.31" fill="#08262C" width="17.558" height="17.558"/>
	<circle fill="#FF5959" cx="981.931" cy="31.155" r="8.845"/>
	<rect x="973.218" fill="#08262C" width="17.558" height="17.558"/>
</g>
<g>
	<circle fill="#0091B3" cx="1004.621" cy="8.845" r="8.845"/>
	<rect x="995.776" y="22.31" fill="#08262C" width="17.558" height="17.558"/>
	<circle fill="#FF5959" cx="1027.195" cy="31.155" r="8.845"/>
	<rect x="1018.482" fill="#08262C" width="17.558" height="17.558"/>
</g>
<g>
	<circle fill="#0091B3" cx="1049.885" cy="8.845" r="8.845"/>
	<rect x="1041.04" y="22.31" fill="#08262C" width="17.558" height="17.558"/>
	<circle fill="#FF5959" cx="1072.459" cy="31.155" r="8.845"/>
	<rect x="1063.746" fill="#08262C" width="17.558" height="17.558"/>
</g>
<g>
	<circle fill="#0091B3" cx="1095.149" cy="8.845" r="8.845"/>
	<rect x="1086.304" y="22.31" fill="#08262C" width="17.558" height="17.558"/>
	<circle fill="#FF5959" cx="1117.723" cy="31.155" r="8.845"/>
	<rect x="1109.01" fill="#08262C" width="17.558" height="17.558"/>
</g>
<g>
	<circle fill="#0091B3" cx="1140.413" cy="8.845" r="8.845"/>
	<rect x="1131.568" y="22.31" fill="#08262C" width="17.558" height="17.558"/>
	<circle fill="#FF5959" cx="1162.987" cy="31.155" r="8.845"/>
	<rect x="1154.274" fill="#08262C" width="17.558" height="17.558"/>
</g>
<g>
	<circle fill="#0091B3" cx="1185.677" cy="8.845" r="8.845"/>
	<rect x="1176.832" y="22.31" fill="#08262C" width="17.558" height="17.558"/>
	<circle fill="#FF5959" cx="1208.251" cy="31.155" r="8.845"/>
	<rect x="1199.538" fill="#08262C" width="17.558" height="17.558"/>
</g>
<g>
	<circle fill="#0091B3" cx="1230.941" cy="8.845" r="8.845"/>
	<rect x="1222.096" y="22.31" fill="#08262C" width="17.558" height="17.558"/>
	<circle fill="#FF5959" cx="1253.515" cy="31.155" r="8.845"/>
	<rect x="1244.802" fill="#08262C" width="17.558" height="17.558"/>
</g>
</svg>
