<?xml version="1.0" encoding="utf-8"?>
<!-- Generator: Adobe Illustrator 22.1.0, SVG Export Plug-In . SVG Version: 6.00 Build 0)  -->
<svg version="1.1" id="Layer_1" xmlns="http://www.w3.org/2000/svg" xmlns:xlink="http://www.w3.org/1999/xlink" x="0px" y="0px"
	 viewBox="0 0 600 600" enable-background="new 0 0 600 600" xml:space="preserve">
<radialGradient id="SVGID_1_" cx="306.0077" cy="669.9991" r="201.0213" gradientTransform="matrix(1.4925 0 0 0.2313 -156.7164 325.5292)" gradientUnits="userSpaceOnUse">
	<stop  offset="0" style="stop-color:#8A8A8A;stop-opacity:0.3"/>
	<stop  offset="0.2072" style="stop-color:#A4A4A4;stop-opacity:0.4815"/>
	<stop  offset="0.648" style="stop-color:#E7E7E7;stop-opacity:0.8678"/>
	<stop  offset="0.7988" style="stop-color:#FFFFFF"/>
</radialGradient>
<ellipse opacity="0.5" fill="url(#SVGID_1_)" enable-background="new    " cx="300" cy="480.5" rx="300" ry="46.5"/>
<circle fill="#B3F8FF" cx="300" cy="236" r="236.5"/>
<g>
	<path fill="#327ABD" d="M413.062,164.446c0,15.809-0.282,31.618,0,47.427c0,10.445-1.411,20.608-4.517,30.489
		c-7.622,25.689-20.326,48.838-38.111,69.164c-11.292,12.986-24.56,23.713-39.805,31.9c-9.598,5.081-19.761,9.034-30.489,11.574
		c-0.282,0-0.565,0-0.847,0c-15.527-3.67-29.924-10.163-43.192-19.479c-17.785-12.421-31.9-27.948-43.475-46.015
		c-9.881-15.527-17.22-31.9-22.302-49.403c-1.976-9.598-3.388-18.35-3.388-27.666c0-33.312,0-66.906,0-100.5
		c0-5.364,1.976-9.598,5.646-13.55c3.388-3.67,7.622-6.211,12.139-8.469c9.881-5.081,20.326-8.187,31.053-10.727
		c9.316-2.258,18.914-3.67,28.513-4.799c16.091-1.976,32.182-2.258,48.556-1.694c10.727,0.282,21.455,1.412,31.9,2.823
		c12.139,1.694,23.996,4.235,35.57,8.187c8.187,2.823,16.374,6.211,23.431,11.574c2.541,1.976,5.081,4.235,6.775,7.058
		c1.694,2.541,2.541,5.364,2.541,8.469C413.062,128.594,413.062,146.661,413.062,164.446z M312.562,337.78
		c3.952-1.976,7.622-3.388,11.292-5.364c13.833-7.058,25.689-16.938,36.135-28.513c17.22-19.197,29.642-41.498,36.982-66.341
		c2.541-8.469,3.67-16.938,3.67-25.689c0-33.594,0-67.47,0-101.064c0-1.976-0.565-3.388-1.976-4.517
		c-2.258-1.694-4.799-3.67-7.34-5.081c-6.775-3.67-14.397-6.211-21.737-8.469c-11.292-3.105-22.584-5.364-34.159-6.493
		c-7.904-0.847-15.527-1.412-23.431-1.694c-10.445-0.565-20.608-0.282-31.053,0.282c-9.034,0.565-17.785,1.412-26.819,2.823
		c-8.187,1.412-16.656,3.105-24.56,5.364c-7.058,1.976-13.833,4.517-20.608,7.904c-2.823,1.694-5.646,3.388-7.904,5.646
		c-0.847,0.847-1.129,1.976-1.129,3.388c0,35.288,0,70.293,0,105.581c0,1.129,0,2.258,0,3.388
		c0.565,6.775,1.976,13.268,3.952,19.761c6.775,22.302,17.785,42.628,32.747,60.413c12.421,14.962,27.383,27.101,45.168,35.288
		c1.976,0.847,3.952,1.694,5.928,2.541c0-13.268,0-26.254,0-39.522c8.469,0,16.656,0,25.125,0
		C312.562,311.243,312.562,324.229,312.562,337.78z"/>
	<path fill="#327ABD" d="M299.859,260.146c-0.565,0.565-0.847,1.129-1.411,1.694c-3.388,3.388-7.058,7.058-10.445,10.445
		c-0.282,0.282-1.129,0.565-1.411,0.565c-14.115,0-27.948,0-42.063,0c-0.565,0-1.129,0-1.411-0.847
		c-10.163-16.091-20.043-32.182-30.206-48.274c0-0.282-0.282-0.565-0.282-0.847c1.976,1.694,3.952,3.105,5.646,4.799
		c10.163,8.469,20.608,17.22,30.771,25.689c0.282,0.282,0.847,0.565,1.129,0.565c7.904,0,15.809,0,23.713,0
		c0.565,0,1.129-0.282,1.411-0.565c5.928-5.928,11.574-11.574,17.503-17.503c0.565-0.565,1.129-0.847,1.694-0.565
		c3.67,0,7.058,0,10.727,0c0.565,0,1.129,0.282,1.694,0.565c5.646,5.928,11.574,11.574,17.503,17.503
		c0.565,0.565,1.129,0.847,1.976,0.847c7.622,0,15.244,0,22.866,0c0.847,0,1.411-0.282,1.976-0.565
		c11.857-9.881,23.713-19.761,35.57-29.642c0.282-0.282,0.565-0.565,1.129-0.565c0,0.282-0.282,0.565-0.282,0.847
		c-10.163,16.091-20.043,32.182-30.206,48.274c-0.282,0.565-0.847,0.847-1.412,0.847c-14.115,0-28.23,0-42.063,0
		c-0.565,0-1.129-0.282-1.411-0.565c-3.67-3.67-7.34-7.34-11.01-11.01C300.706,260.993,300.423,260.711,299.859,260.146z"/>
	<path fill="#327ABD" d="M387.655,153.436c-3.388-1.976-6.775-3.952-10.163-5.928c-4.799-2.541-9.881-4.517-14.962-5.646
		c-9.316-1.694-16.656,1.129-23.149,7.622c-3.388,3.388-5.928,7.34-8.469,11.292c-0.847,1.412-1.976,2.823-3.105,3.952
		c-3.67,2.823-8.751,2.541-12.139-0.847c-3.388-3.105-3.67-8.469-0.847-12.139c2.823-3.388,5.364-7.058,8.469-10.163
		c5.364-5.646,11.574-9.881,19.197-11.574c11.574-2.541,22.02-0.282,31.336,6.775C379.75,141.297,384.267,146.943,387.655,153.436
		C387.372,153.436,387.372,153.436,387.655,153.436z"/>
	<path fill="#327ABD" d="M212.345,153.719c0-0.282,0.282-0.565,0.282-0.565c4.517-7.058,9.598-13.55,16.656-18.35
		c7.058-4.517,14.68-6.493,22.866-5.928c9.881,0.847,18.067,5.364,24.843,12.421c2.823,2.823,5.081,6.211,7.622,9.034
		c1.694,1.976,2.823,4.235,2.541,7.058c0,3.952-2.823,7.622-7.058,8.751c-3.952,1.129-7.904-0.282-10.163-3.67
		c-2.541-3.67-4.799-7.058-7.34-10.445c-3.388-4.235-7.34-7.34-12.421-9.316c-4.799-1.694-9.598-1.412-14.397-0.282
		c-7.622,1.694-14.115,5.364-20.608,9.316C214.604,152.307,213.757,152.872,212.345,153.719z"/>
	<path fill="#327ABD" d="M218.556,176.02c12.986-12.986,38.111-12.139,49.967,0C256.667,188.159,231.259,188.724,218.556,176.02z"/>
	<path fill="#327ABD" d="M381.444,176.02c-12.421,12.421-37.264,12.704-49.967,0C342.486,164.164,368.176,162.752,381.444,176.02z"
		/>
</g>
</svg>
