<?xml version="1.0" encoding="utf-8"?>
<!-- Generator: Adobe Illustrator 22.1.0, SVG Export Plug-In . SVG Version: 6.00 Build 0)  -->
<svg version="1.1" id="Layer_1" xmlns="http://www.w3.org/2000/svg" xmlns:xlink="http://www.w3.org/1999/xlink" x="0px" y="0px"
	 viewBox="0 0 600 600" enable-background="new 0 0 600 600" xml:space="preserve">
<radialGradient id="SVGID_1_" cx="306.0077" cy="-69.9991" r="201.0213" gradientTransform="matrix(1.4925 0 0 -0.2313 -156.7164 464.3092)" gradientUnits="userSpaceOnUse">
	<stop  offset="0" style="stop-color:#8A8A8A;stop-opacity:0.3"/>
	<stop  offset="0.2072" style="stop-color:#A4A4A4;stop-opacity:0.4815"/>
	<stop  offset="0.648" style="stop-color:#E7E7E7;stop-opacity:0.8678"/>
	<stop  offset="0.7988" style="stop-color:#FFFFFF"/>
</radialGradient>
<ellipse opacity="0.5" fill="url(#SVGID_1_)" enable-background="new    " cx="300" cy="480.5" rx="300" ry="46.5"/>
<circle fill="#B3F8FF" cx="300" cy="236" r="236.5"/>
<g>
	<path fill="#327ABD" d="M440.52,232.173c-10.53-40.476-21.719-81.281-32.578-121.429C404.651,98.24,394.778,91,382.273,91
		c-0.987,0-2.962,0-4.936,0.658c-60.221,15.796-120.112,32.249-180.333,48.703c-11.518,2.962-18.757,11.518-17.77,23.035
		c0.658,8.885-2.962,12.834-8.885,17.441c-13.492,9.872-15.137,21.061-6.581,35.211c17.112,27.971,34.224,55.285,51.007,83.256
		c6.581,10.53,16.125,15.466,27.971,12.505c59.892-15.467,120.441-31.92,180.004-48.703
		C437.558,259.486,444.14,246.323,440.52,232.173z M411.561,246.652c-46.4,12.505-93.128,25.01-139.528,37.515
		c-10.201,2.962-20.403,5.265-30.604,8.227c-6.252,1.974-9.872-0.658-11.518-6.252c-10.201-38.831-20.403-77.991-31.262-116.822
		c-1.974-7.24,0.987-10.53,7.898-12.505c56.93-15.137,113.531-29.946,170.461-45.412c1.316-0.658,2.962-0.987,4.278-1.316
		c4.936-0.329,7.24,1.974,8.556,6.581c10.53,39.818,21.719,79.636,31.92,119.125C424.066,244.349,417.484,245.336,411.561,246.652z"
		/>
	<path fill="#327ABD" d="M286.842,200.253c2.304-0.658,6.252,0,5.594-3.62c-2.962-11.518-6.252-22.377-8.885-33.566
		c-1.316-6.581-4.607-7.24-9.872-5.594c-17.112,4.936-33.895,9.214-50.677,13.492c-4.936,0.987-6.252,3.291-5.265,8.227
		c2.962,10.53,6.252,21.061,8.885,31.591c0.987,5.265,3.291,4.936,7.569,3.291C251.631,209.467,269.072,204.86,286.842,200.253z"/>
	<path fill="#327ABD" d="M386.881,204.202c6.252-1.645,5.594-4.936,4.607-9.214c-0.987-4.936-2.304-7.24-8.885-5.265
		c-28.3,8.227-57.588,15.467-86.218,23.035c-19.744,5.265-39.489,10.53-58.904,15.467c-4.607,0.987-7.24,2.962-4.607,7.898
		c1.645,2.962-0.329,8.885,6.252,7.569c0.987-0.329,1.645-0.658,2.304-0.987C290.133,229.54,338.177,217.036,386.881,204.202z"/>
	<path fill="#327ABD" d="M391.158,217.365c-25.339,7.24-50.678,13.492-75.687,20.074c-23.364,6.252-46.4,12.505-69.106,18.757
		c-3.949,0.987-7.569,2.304-5.265,7.569c1.316,3.291,0,8.556,5.594,7.898c0.987-0.329,1.316-0.658,1.645-0.658
		c48.703-12.834,98.064-25.997,147.096-38.831c7.24-1.974,3.949-5.923,3.291-9.872C398.069,217.694,396.424,216.048,391.158,217.365
		z"/>
	<path fill="#327ABD" d="M301.321,165.7c24.681-6.581,48.703-13.163,72.725-19.744c5.265-1.316,3.291-5.265,1.974-8.556
		c-0.987-2.962,0-7.898-5.923-6.252c-23.693,6.252-46.729,12.505-70.422,18.757c-5.265,1.316-3.949,4.936-2.633,8.227
		C298.03,161.422,297.043,166.029,301.321,165.7z"/>
	<path fill="#327ABD" d="M304.941,187.419c0.987,2.962,0.329,7.569,4.278,7.24c25.339-6.911,49.032-13.163,73.055-19.744
		c5.923-1.645,2.633-6.252,1.645-9.543c-0.658-2.962-0.658-6.252-5.594-4.936c-23.693,6.252-46.729,12.505-70.422,18.757
		C302.308,180.179,303.625,184.128,304.941,187.419z"/>
</g>
</svg>
