<?xml version="1.0" encoding="utf-8"?>
<!-- Generator: Adobe Illustrator 22.1.0, SVG Export Plug-In . SVG Version: 6.00 Build 0)  -->
<svg version="1.1" id="Layer_1" xmlns="http://www.w3.org/2000/svg" xmlns:xlink="http://www.w3.org/1999/xlink" x="0px" y="0px"
	 viewBox="0 0 600 600" enable-background="new 0 0 600 600" xml:space="preserve">
<radialGradient id="SVGID_1_" cx="306.0077" cy="669.9991" r="201.0213" gradientTransform="matrix(1.4925 0 0 0.2313 -156.7164 325.5292)" gradientUnits="userSpaceOnUse">
	<stop  offset="0" style="stop-color:#8A8A8A;stop-opacity:0.3"/>
	<stop  offset="0.2072" style="stop-color:#A4A4A4;stop-opacity:0.4815"/>
	<stop  offset="0.648" style="stop-color:#E7E7E7;stop-opacity:0.8678"/>
	<stop  offset="0.7988" style="stop-color:#FFFFFF"/>
</radialGradient>
<ellipse opacity="0.5" fill="url(#SVGID_1_)" enable-background="new    " cx="300" cy="480.5" rx="300" ry="46.5"/>
<circle fill="#B3F8FF" cx="300" cy="236" r="236.5"/>
<g>
	<g>
		<polygon fill="#327ABD" points="301.535,276.194 301.535,199.036 312.576,220.138 320.566,193.166 303.205,159.622 
			281.16,159.622 278.822,159.622 180.955,159.622 180.955,179.663 218.365,179.663 218.365,276.528 240.744,276.528 
			240.744,179.663 278.822,179.663 278.822,276.194 		"/>
		<path fill="#327ABD" d="M375.686,298.909c-23.254,25.033-56.409,40.748-93.19,40.748c-70.171,0-127.26-57.089-127.26-127.259
			c0-70.173,57.089-127.262,127.26-127.262c23.653,0,45.806,6.507,64.801,17.795l6.239-21.061
			c-21.119-11.54-45.325-18.11-71.04-18.11c-81.959,0-148.637,66.679-148.637,148.637s66.678,148.637,148.637,148.637
			c35.263,0,67.678-12.367,93.19-32.96V298.909z"/>
		<path fill="#327ABD" d="M412.428,140.323v38.673h14.874C424.14,165.289,419.098,152.3,412.428,140.323z"/>
	</g>
	<path fill="#327ABD" d="M458.523,195.697h-62.796V51.402c0-3.735-2.539-6.804-6.318-7.643c-3.714-0.825-7.253,1.112-8.644,4.831
		l-61.777,208.704c-0.786,2.365-0.494,4.873,0.822,7.065c1.269,2.117,3.797,3.484,6.442,3.484h66.135v102.208
		c0,3.676,2.388,6.746,5.94,7.636l1.743,0.049c2.76,0,5.336-1.487,7.067-4.084l58.272-166.623c1.098-2.267,0.972-4.694-0.444-7.519
		C463.595,197.231,461.005,195.697,458.523,195.697z M407.752,332.018v-72.192c0-4.237-3.446-7.682-7.682-7.682h-62.608
		l42.9-155.973v107.541c0,4.237,3.446,7.682,7.683,7.682h58.498L407.752,332.018z"/>
</g>
</svg>
