<?xml version="1.0" encoding="utf-8"?>
<!-- Generator: Adobe Illustrator 22.1.0, SVG Export Plug-In . SVG Version: 6.00 Build 0)  -->
<svg version="1.1" id="Layer_1" xmlns="http://www.w3.org/2000/svg" xmlns:xlink="http://www.w3.org/1999/xlink" x="0px" y="0px"
	 viewBox="0 0 600 600" enable-background="new 0 0 600 600" xml:space="preserve">
<radialGradient id="SVGID_1_" cx="306.0077" cy="-69.9991" r="201.0213" gradientTransform="matrix(1.4925 0 0 -0.2313 -156.7164 464.3092)" gradientUnits="userSpaceOnUse">
	<stop  offset="0" style="stop-color:#8A8A8A;stop-opacity:0.3"/>
	<stop  offset="0.2072" style="stop-color:#A4A4A4;stop-opacity:0.4815"/>
	<stop  offset="0.648" style="stop-color:#E7E7E7;stop-opacity:0.8678"/>
	<stop  offset="0.7988" style="stop-color:#FFFFFF"/>
</radialGradient>
<ellipse opacity="0.5" fill="url(#SVGID_1_)" enable-background="new    " cx="300" cy="480.5" rx="300" ry="46.5"/>
<circle fill="#B3F8FF" cx="300" cy="236" r="236.5"/>
<g>
	<g>
		<path fill="#327ABD" d="M455.748,154.694c-11.986-31.425-48.651-84.105-159.457-84.105c-90.446,0-165.303,59.16-166.976,108.15
			c-0.439,12.876,4.385,42.149,55.353,49.246c-0.55,2.851-0.828,5.94-0.828,9.314c0,20.889,23.806,50.013,62.566,50.013
			c13.42,0,23.423-2.056,31.802-5.19l35.165,43.761c1.639,2.051,4.062,3.112,6.48,3.112c1.834,0,3.685-0.6,5.212-1.84
			c3.573-2.895,4.14-8.141,1.267-11.72l-32.864-40.899c2.74-1.672,5.429-3.395,8.119-5.157c2.74-1.795,5.524-3.595,8.441-5.368
			l46.117,61.649c1.639,2.184,4.14,3.34,6.657,3.34c1.739,0,3.49-0.539,4.984-1.661c3.668-2.768,4.418-7.991,1.672-11.676
			l-9.469-12.659c10.731-0.066,22.295-3.045,32.558-8.068c24.368-11.926,36.481-31.741,31.258-50.057
			c8.019-2.745,16.521-8.024,27.685-18.049C462.872,216.604,467.729,186.113,455.748,154.694z M385.258,279.954
			c-16.015,7.802-36.326,9.58-43.072-0.75l-17.116-22.878c7.947-3.306,17.504-6.14,30.191-7.985
			c18.188-2.667,30.396-1.856,40.238-1.222c4.334,0.289,8.235,0.445,11.992,0.4c0.066,0.244,0.028,0.494,0.122,0.739
			C412.198,260.348,399.695,272.885,385.258,279.954z M440.383,214.426c-19.666,17.666-26.79,17.193-43.794,16.071
			c-3.012-0.2-6.318-0.384-9.847-0.522c-2.411-7.296-6.274-13.843-9.947-19.977c-8.474-14.164-12.959-22.806-6.563-35.654
			c2.045-4.118,0.389-9.119-3.718-11.186c-4.107-2.051-9.075-0.372-11.153,3.729c-10.797,21.65-0.828,38.31,7.18,51.691
			c2.395,4.001,4.396,7.824,6.102,11.642c-4.79,0.3-9.919,0.761-15.776,1.612c-31.386,4.573-46.784,14.687-60.371,23.589
			c-12.975,8.496-23.223,15.221-46.084,15.221c-29.713,0-45.939-22.028-45.939-33.342c0-23.328,22.133-25.006,58.57-25.006
			c24.701,0,48.034,0,59.348-14.098c5.813-7.23,7.402-17.11,4.723-29.352c-0.845-3.907-4.284-6.563-8.119-6.563
			c-0.583,0-1.184,0.066-1.773,0.195c-4.495,0.978-7.341,5.423-6.352,9.913c1.545,7.079,1.056,12.242-1.445,15.354
			c-6.318,7.88-27.607,7.88-46.389,7.88c-23.284,0-52.869,0-67,16.46c-19.439-1.984-46.929-8.985-46.117-32.769
			c0.395-11.392,7.129-24.728,18.772-37.659c2.734,15.609,12.125,28.418,23.173,32.747c2.695,1.045,5.668,1.662,8.752,1.662
			c8.625,0,18.105-4.818,24.879-18.382c2.045-4.118,0.389-9.119-3.718-11.186c-4.107-2.051-9.075-0.372-11.153,3.729
			c-3.768,7.585-8.008,10.419-12.714,8.647c-7.485-2.94-15.621-16.976-12.809-32.491c20.644-16.399,49.151-30.291,82.104-36.121
			c-1.806,5.857-5.679,12.837-8.936,18.516c-6.546,11.347-12.181,21.166-7.374,29.53c2.812,4.851,8.235,7.307,16.143,7.307
			c4.596,0,8.313-3.729,8.313-8.335c0-4.818-4.495-7.947-8.93-8.352c1.3-3.223,4.174-8.219,6.252-11.836
			c5.285-9.197,11.08-19.31,12.114-29.191c5.091-0.417,10.264-0.634,15.51-0.634c100.854,0,133.462,45.973,143.92,73.374
			C450.13,186.635,445.535,209.802,440.383,214.426z"/>
	</g>
</g>
<g>
	<g>
		<path fill="#327ABD" d="M366.52,149.757c-22.606-8.875-50.191-8.008-61.038,13.787c-2.045,4.118-0.389,9.119,3.718,11.186
			c4.14,2.084,9.092,0.406,11.153-3.729c6.151-12.308,25.107-11.575,40.111-5.729c15.07,5.907,29.263,18.477,25.901,30.169
			c-1.267,4.429,1.267,9.052,5.685,10.319c0.761,0.228,1.545,0.328,2.306,0.328c3.623,0,6.935-2.378,7.991-6.024
			C408.786,177.659,388.292,158.27,366.52,149.757z"/>
	</g>
</g>
</svg>
